<?xml version="1.0" encoding="UTF-8"?>
<!DOCTYPE svg PUBLIC "-//W3C//DTD SVG 1.1//EN" "http://www.w3.org/Graphics/SVG/1.1/DTD/svg11.dtd">
<svg version="1.1" xmlns="http://www.w3.org/2000/svg" xmlns:xlink="http://www.w3.org/1999/xlink" x="0" y="0" width="62.189" height="12.616" viewBox="0, 0, 62.189, 12.616">
  <defs>
    <linearGradient id="Gradient_1" gradientUnits="userSpaceOnUse" x1="0.989" y1="9.804" x2="5.702" y2="1.641">
      <stop offset="0" stop-color="#7A3827"/>
      <stop offset="1" stop-color="#91532C"/>
    </linearGradient>
    <linearGradient id="Gradient_2" gradientUnits="userSpaceOnUse" x1="5.438" y1="9.622" x2="10.2" y2="1.375">
      <stop offset="0" stop-color="#7A3827"/>
      <stop offset="1" stop-color="#91532C"/>
    </linearGradient>
    <linearGradient id="Gradient_3" gradientUnits="userSpaceOnUse" x1="9.642" y1="10.373" x2="14.809" y2="1.423">
      <stop offset="0" stop-color="#7A3827"/>
      <stop offset="1" stop-color="#91532C"/>
    </linearGradient>
    <linearGradient id="Gradient_4" gradientUnits="userSpaceOnUse" x1="14.96" y1="9.976" x2="20.266" y2="0.786">
      <stop offset="0" stop-color="#7A3827"/>
      <stop offset="1" stop-color="#91532C"/>
    </linearGradient>
    <linearGradient id="Gradient_5" gradientUnits="userSpaceOnUse" x1="20.722" y1="9.56" x2="24.565" y2="2.903">
      <stop offset="0" stop-color="#7A3827"/>
      <stop offset="1" stop-color="#91532C"/>
    </linearGradient>
    <linearGradient id="Gradient_6" gradientUnits="userSpaceOnUse" x1="25.799" y1="10.43" x2="30.787" y2="1.79">
      <stop offset="0" stop-color="#7A3827"/>
      <stop offset="1" stop-color="#91532C"/>
    </linearGradient>
    <linearGradient id="Gradient_7" gradientUnits="userSpaceOnUse" x1="34.201" y1="10.598" x2="39.595" y2="1.255">
      <stop offset="0" stop-color="#7A3827"/>
      <stop offset="1" stop-color="#91532C"/>
    </linearGradient>
    <linearGradient id="Gradient_8" gradientUnits="userSpaceOnUse" x1="39.812" y1="9.56" x2="43.656" y2="2.903">
      <stop offset="0" stop-color="#7A3827"/>
      <stop offset="1" stop-color="#91532C"/>
    </linearGradient>
    <linearGradient id="Gradient_9" gradientUnits="userSpaceOnUse" x1="43.07" y1="9.988" x2="47.57" y2="2.194">
      <stop offset="0" stop-color="#7A3827"/>
      <stop offset="1" stop-color="#91532C"/>
    </linearGradient>
    <linearGradient id="Gradient_10" gradientUnits="userSpaceOnUse" x1="46.517" y1="10.982" x2="52.322" y2="0.927">
      <stop offset="0" stop-color="#7A3827"/>
      <stop offset="1" stop-color="#91532C"/>
    </linearGradient>
    <linearGradient id="Gradient_11" gradientUnits="userSpaceOnUse" x1="52.321" y1="9.621" x2="57.083" y2="1.374">
      <stop offset="0" stop-color="#7A3827"/>
      <stop offset="1" stop-color="#91532C"/>
    </linearGradient>
    <linearGradient id="Gradient_12" gradientUnits="userSpaceOnUse" x1="56.445" y1="11.605" x2="62.22" y2="1.604">
      <stop offset="0" stop-color="#7A3827"/>
      <stop offset="1" stop-color="#91532C"/>
    </linearGradient>
  </defs>
  <g id="Layer_1">
    <path d="M3.234,0.796 C3.182,0.796 3.128,0.801 3.072,0.809 L3.072,0.809 C2.808,0.832 2.54,0.889 2.268,0.977 L2.268,0.977 C1.996,1.065 1.736,1.192 1.488,1.361 L1.488,1.361 C1.239,1.529 1.015,1.742 0.816,2.002 L0.816,2.002 C0.616,2.263 0.456,2.576 0.336,2.945 L0.336,2.945 C0.223,3.296 0.139,3.679 0.084,4.09 L0.084,4.09 C0.028,4.503 -0,4.929 -0,5.368 L-0,5.368 C-0,5.496 0.002,5.622 0.006,5.746 L0.006,5.746 C0.01,5.871 0.016,5.993 0.024,6.113 L0.024,6.113 C0.064,6.769 0.156,7.369 0.3,7.912 L0.3,7.912 C0.412,8.32 0.582,8.714 0.81,9.093 L0.81,9.093 C1.038,9.474 1.316,9.808 1.644,10.095 L1.644,10.095 C1.9,10.32 2.178,10.505 2.478,10.654 L2.478,10.654 C2.777,10.802 3.096,10.904 3.432,10.961 L3.432,10.961 C3.551,10.984 3.716,10.996 3.924,10.996 L3.924,10.996 C4.132,10.996 4.342,10.981 4.554,10.949 L4.554,10.949 C4.766,10.918 4.92,10.867 5.016,10.794 L5.016,10.794 C5.232,10.621 5.34,10.467 5.34,10.334 L5.34,10.334 C5.34,10.293 5.336,10.265 5.328,10.25 L5.328,10.25 C5.288,10.13 5.144,10.068 4.896,10.06 L4.896,10.06 L4.836,10.06 C4.739,10.06 4.656,10.068 4.584,10.083 L4.584,10.083 C4.513,10.101 4.432,10.113 4.343,10.121 L4.343,10.121 L4.224,10.121 C4,10.121 3.788,10.091 3.588,10.037 L3.588,10.037 C3.38,9.98 3.181,9.9 2.988,9.796 L2.988,9.796 C2.796,9.693 2.632,9.552 2.496,9.377 L2.496,9.377 C2.304,9.137 2.144,8.886 2.016,8.626 L2.016,8.626 C1.887,8.367 1.784,8.097 1.704,7.816 L1.704,7.816 C1.592,7.441 1.52,7.059 1.488,6.671 L1.488,6.671 C1.456,6.283 1.44,5.884 1.44,5.477 L1.44,5.477 C1.448,5.357 1.456,5.208 1.464,5.033 L1.464,5.033 C1.471,4.857 1.484,4.666 1.5,4.462 L1.5,4.462 C1.516,4.258 1.538,4.044 1.566,3.82 L1.566,3.82 C1.594,3.597 1.632,3.377 1.68,3.161 L1.68,3.161 C1.752,2.865 1.836,2.619 1.932,2.423 L1.932,2.423 C2.028,2.226 2.134,2.072 2.25,1.96 L2.25,1.96 C2.366,1.849 2.492,1.771 2.628,1.727 L2.628,1.727 C2.764,1.683 2.903,1.66 3.048,1.66 L3.048,1.66 C3.136,1.66 3.245,1.673 3.372,1.698 L3.372,1.698 C3.5,1.724 3.636,1.749 3.78,1.775 L3.78,1.775 C3.924,1.8 4.07,1.826 4.217,1.851 L4.217,1.851 C4.366,1.876 4.5,1.888 4.62,1.888 L4.62,1.888 C4.716,1.888 4.801,1.879 4.878,1.858 L4.878,1.858 C4.954,1.839 5.012,1.801 5.052,1.747 L5.052,1.747 C5.1,1.675 5.124,1.608 5.124,1.544 L5.124,1.544 C5.124,1.45 5.078,1.357 4.986,1.265 L4.986,1.265 C4.894,1.174 4.77,1.093 4.613,1.022 L4.613,1.022 C4.458,0.95 4.276,0.896 4.068,0.856 L4.068,0.856 C3.86,0.817 3.636,0.796 3.396,0.796 L3.396,0.796 z" fill="url(#Gradient_1)"/>
    <path d="M6.588,0.749 C6.323,0.781 6.16,0.832 6.096,0.904 L6.096,0.904 C6.064,0.945 6.046,0.977 6.042,1.001 L6.042,1.001 C6.037,1.025 6.035,1.057 6.035,1.096 L6.035,1.096 C6.035,1.153 6.032,1.197 6.024,1.229 L6.024,1.229 C6.008,1.317 5.991,1.362 5.976,1.367 L5.976,1.367 C5.96,1.371 5.942,1.379 5.922,1.391 L5.922,1.391 C5.902,1.403 5.886,1.442 5.874,1.51 L5.874,1.51 C5.862,1.578 5.856,1.716 5.856,1.924 L5.856,1.924 C5.856,2.197 5.858,2.502 5.862,2.842 L5.862,2.842 C5.865,3.183 5.87,3.544 5.874,3.928 L5.874,3.928 C5.878,4.313 5.884,4.706 5.892,5.111 L5.892,5.111 C5.9,5.515 5.911,5.916 5.927,6.317 L5.927,6.317 C5.936,6.588 5.942,6.855 5.945,7.115 L5.945,7.115 C5.95,7.374 5.952,7.625 5.952,7.865 L5.952,7.865 C5.952,8.137 5.948,8.391 5.94,8.626 L5.94,8.626 C5.932,8.863 5.92,9.08 5.904,9.281 L5.904,9.281 C5.896,9.297 5.886,9.324 5.874,9.365 L5.874,9.365 C5.862,9.404 5.856,9.457 5.856,9.521 L5.856,9.521 C5.856,9.601 5.878,9.689 5.922,9.785 L5.922,9.785 C5.966,9.881 6.064,9.973 6.215,10.06 L6.215,10.06 C6.296,10.109 6.36,10.148 6.408,10.182 L6.408,10.182 C6.456,10.213 6.544,10.228 6.672,10.228 L6.672,10.228 C6.752,10.228 6.82,10.222 6.876,10.21 L6.876,10.21 C6.932,10.199 6.992,10.19 7.056,10.182 L7.056,10.182 C7.12,10.172 7.195,10.164 7.284,10.156 L7.284,10.156 C7.372,10.148 7.492,10.145 7.644,10.145 L7.644,10.145 L7.896,10.145 C7.968,10.145 8.05,10.146 8.142,10.15 L8.142,10.15 C8.234,10.154 8.328,10.156 8.424,10.156 L8.424,10.156 C8.664,10.156 8.904,10.136 9.144,10.095 L9.144,10.095 C9.383,10.056 9.568,9.965 9.696,9.82 L9.696,9.82 C9.743,9.766 9.768,9.709 9.768,9.652 L9.768,9.652 C9.768,9.533 9.66,9.434 9.444,9.354 L9.444,9.354 C9.283,9.297 9.13,9.257 8.982,9.238 L8.982,9.238 C8.834,9.218 8.68,9.209 8.52,9.209 L8.52,9.209 C8.36,9.209 8.2,9.215 8.04,9.227 L8.04,9.227 C7.88,9.238 7.708,9.244 7.524,9.244 L7.524,9.244 C7.436,9.236 7.382,9.217 7.362,9.185 L7.362,9.185 C7.342,9.152 7.332,9.093 7.332,9.005 L7.332,9.005 L7.332,8.742 C7.332,8.589 7.334,8.441 7.338,8.299 L7.338,8.299 C7.342,8.154 7.344,8.005 7.344,7.855 L7.344,7.855 C7.344,7.703 7.342,7.554 7.338,7.412 L7.338,7.412 C7.334,7.267 7.332,7.119 7.332,6.968 L7.332,6.968 C7.323,6.808 7.32,6.651 7.32,6.494 L7.32,6.494 L7.32,6.022 L7.32,5.627 C7.392,5.627 7.482,5.624 7.59,5.62 L7.59,5.62 C7.698,5.617 7.812,5.609 7.932,5.596 L7.932,5.596 C8.051,5.584 8.174,5.569 8.298,5.548 L8.298,5.548 C8.422,5.529 8.536,5.506 8.64,5.483 L8.64,5.483 C8.8,5.443 8.9,5.385 8.94,5.309 L8.94,5.309 C8.98,5.232 9,5.151 9,5.063 L9,5.063 L9,5.015 C9,4.952 8.982,4.889 8.946,4.829 L8.946,4.829 C8.91,4.77 8.827,4.72 8.699,4.68 L8.699,4.68 C8.635,4.664 8.57,4.652 8.502,4.644 L8.502,4.644 C8.434,4.636 8.364,4.632 8.292,4.632 L8.292,4.632 C8.164,4.632 8.04,4.638 7.92,4.65 L7.92,4.65 C7.799,4.662 7.688,4.667 7.584,4.667 L7.584,4.667 C7.431,4.667 7.336,4.644 7.296,4.596 L7.296,4.596 C7.28,4.388 7.266,4.205 7.254,4.044 L7.254,4.044 C7.241,3.885 7.23,3.705 7.218,3.505 L7.218,3.505 C7.206,3.305 7.188,3.107 7.164,2.907 L7.164,2.907 C7.148,2.691 7.136,2.489 7.128,2.301 L7.128,2.301 C7.12,2.114 7.115,1.964 7.115,1.852 L7.115,1.852 L7.115,1.708 C7.172,1.677 7.244,1.657 7.332,1.649 L7.332,1.649 C7.42,1.641 7.52,1.636 7.632,1.636 L7.632,1.636 L7.907,1.636 C8.02,1.636 8.128,1.639 8.232,1.643 L8.232,1.643 C8.336,1.647 8.444,1.649 8.555,1.649 L8.555,1.649 C8.796,1.649 9.014,1.631 9.21,1.594 L9.21,1.594 C9.406,1.558 9.536,1.47 9.6,1.333 L9.6,1.333 C9.616,1.283 9.624,1.252 9.624,1.236 L9.624,1.236 C9.624,1.163 9.598,1.095 9.546,1.035 L9.546,1.035 C9.494,0.974 9.448,0.936 9.408,0.92 L9.408,0.92 C9.296,0.87 9.102,0.829 8.825,0.791 L8.825,0.791 C8.55,0.755 8.248,0.729 7.92,0.713 L7.92,0.713 C7.848,0.713 7.776,0.71 7.704,0.706 L7.704,0.706 C7.632,0.703 7.56,0.701 7.488,0.701 L7.488,0.701 C7.152,0.701 6.852,0.716 6.588,0.749 z" fill="url(#Gradient_2)"/>
    <path d="M11.616,0.34 C11.304,0.429 11.034,0.592 10.806,0.832 L10.806,0.832 C10.578,1.073 10.427,1.376 10.356,1.744 L10.356,1.744 C10.292,2.105 10.254,2.57 10.242,3.143 L10.242,3.143 C10.23,3.714 10.232,4.336 10.248,5.008 L10.248,5.008 C10.255,5.464 10.264,5.918 10.272,6.37 L10.272,6.37 C10.28,6.823 10.284,7.257 10.284,7.678 L10.284,7.678 L10.284,8.878 C10.284,9.257 10.28,9.606 10.272,9.916 L10.272,9.916 C10.272,10.021 10.282,10.143 10.301,10.283 L10.301,10.283 C10.322,10.422 10.358,10.55 10.41,10.666 L10.41,10.666 C10.462,10.783 10.536,10.874 10.632,10.943 L10.632,10.943 C10.728,11.009 10.852,11.021 11.004,10.973 L11.004,10.973 C11.1,10.941 11.19,10.902 11.274,10.859 L11.274,10.859 C11.358,10.814 11.432,10.773 11.496,10.732 L11.496,10.732 C11.888,10.804 12.29,10.818 12.702,10.776 L12.702,10.776 C13.114,10.731 13.487,10.587 13.824,10.35 L13.824,10.35 C14.161,10.109 14.434,9.751 14.646,9.281 L14.646,9.281 C14.858,8.808 14.964,8.185 14.964,7.408 L14.964,7.408 C14.964,6.952 14.898,6.545 14.766,6.185 L14.766,6.185 C14.634,5.825 14.478,5.515 14.298,5.254 L14.298,5.254 C14.118,4.995 13.94,4.782 13.765,4.619 L13.765,4.619 C13.588,4.455 13.456,4.341 13.369,4.277 L13.369,4.277 C13.44,4.205 13.528,4.115 13.631,4.006 L13.631,4.006 C13.736,3.899 13.832,3.759 13.92,3.586 L13.92,3.586 C14.008,3.414 14.081,3.205 14.135,2.956 L14.135,2.956 C14.192,2.708 14.208,2.416 14.184,2.081 L14.184,2.081 C14.152,1.672 14.009,1.305 13.757,0.977 L13.757,0.977 C13.506,0.649 13.18,0.433 12.78,0.328 L12.78,0.328 C12.587,0.278 12.397,0.253 12.209,0.253 L12.209,0.253 C12.008,0.253 11.811,0.282 11.616,0.34 z M11.748,4.181 C11.668,4.172 11.604,4.159 11.556,4.138 L11.556,4.138 C11.507,4.118 11.484,4.065 11.484,3.977 L11.484,3.977 C11.476,3.856 11.466,3.701 11.454,3.508 L11.454,3.508 C11.442,3.316 11.434,3.122 11.43,2.926 L11.43,2.926 C11.426,2.73 11.424,2.54 11.424,2.357 L11.424,2.357 C11.424,2.172 11.432,2.025 11.448,1.912 L11.448,1.912 C11.464,1.817 11.492,1.708 11.532,1.588 L11.532,1.588 C11.572,1.468 11.626,1.364 11.694,1.277 L11.694,1.277 C11.762,1.189 11.846,1.128 11.946,1.096 L11.946,1.096 C12.046,1.065 12.164,1.088 12.299,1.168 L12.299,1.168 C12.38,1.216 12.448,1.29 12.504,1.391 L12.504,1.391 C12.56,1.49 12.606,1.601 12.642,1.72 L12.642,1.72 C12.677,1.84 12.706,1.964 12.726,2.092 L12.726,2.092 C12.746,2.221 12.756,2.336 12.756,2.441 L12.756,2.441 C12.772,2.856 12.728,3.195 12.624,3.454 L12.624,3.454 C12.52,3.714 12.4,3.912 12.264,4.048 L12.264,4.048 C12.176,4.137 12.086,4.185 11.994,4.193 L11.994,4.193 C11.964,4.195 11.935,4.196 11.906,4.196 L11.906,4.196 C11.849,4.196 11.796,4.191 11.748,4.181 z M11.507,10.109 C11.532,9.676 11.546,9.257 11.55,8.855 L11.55,8.855 C11.553,8.451 11.553,8.05 11.55,7.654 L11.55,7.654 C11.546,7.257 11.542,6.861 11.538,6.46 L11.538,6.46 C11.533,6.06 11.536,5.641 11.544,5.201 L11.544,5.201 C11.561,5.097 11.582,5.033 11.61,5.008 L11.61,5.008 C11.638,4.985 11.708,4.964 11.82,4.949 L11.82,4.949 C12.036,4.933 12.238,5 12.425,5.152 L12.425,5.152 C12.613,5.305 12.775,5.511 12.912,5.771 L12.912,5.771 C13.048,6.031 13.158,6.329 13.243,6.664 L13.243,6.664 C13.326,7 13.372,7.346 13.38,7.697 L13.38,7.697 C13.387,8.033 13.352,8.352 13.272,8.651 L13.272,8.651 C13.192,8.951 13.072,9.215 12.912,9.443 L12.912,9.443 C12.752,9.669 12.554,9.843 12.318,9.965 L12.318,9.965 C12.12,10.064 11.898,10.115 11.652,10.115 L11.652,10.115 C11.605,10.115 11.556,10.113 11.507,10.109 z" fill="url(#Gradient_3)"/>
    <path d="M19.578,0.485 C19.47,0.5 19.362,0.538 19.254,0.599 L19.254,0.599 C19.146,0.659 19.046,0.732 18.954,0.821 L18.954,0.821 C18.862,0.909 18.792,0.992 18.744,1.073 L18.744,1.073 L18.744,1.739 C18.744,2.015 18.742,2.324 18.738,2.668 L18.738,2.668 C18.734,3.013 18.73,3.382 18.726,3.779 L18.726,3.779 C18.722,4.174 18.715,4.576 18.708,4.985 L18.708,4.985 C18.699,5.137 18.694,5.391 18.69,5.746 L18.69,5.746 C18.686,6.103 18.678,6.496 18.666,6.928 L18.666,6.928 C18.653,7.361 18.632,7.803 18.6,8.254 L18.6,8.254 C18.568,8.706 18.52,9.105 18.456,9.449 L18.456,9.449 C18.416,9.641 18.372,9.808 18.324,9.953 L18.324,9.953 C18.276,10.095 18.22,10.205 18.156,10.277 L18.156,10.277 C18.068,10.373 17.986,10.434 17.91,10.457 L17.91,10.457 C17.834,10.48 17.762,10.477 17.694,10.445 L17.694,10.445 C17.626,10.412 17.566,10.357 17.514,10.277 L17.514,10.277 C17.462,10.197 17.416,10.101 17.376,9.988 L17.376,9.988 C17.24,9.66 17.141,9.293 17.077,8.885 L17.077,8.885 C17.012,8.476 16.968,8.06 16.943,7.636 L16.943,7.636 C16.92,7.212 16.906,6.797 16.902,6.388 L16.902,6.388 C16.898,5.98 16.896,5.609 16.896,5.273 L16.896,5.273 C16.888,4.624 16.872,3.992 16.848,3.377 L16.848,3.377 C16.824,2.76 16.768,2.229 16.681,1.781 L16.681,1.781 C16.624,1.477 16.536,1.244 16.416,1.084 L16.416,1.084 C16.296,0.924 16.174,0.822 16.05,0.778 L16.05,0.778 C15.926,0.735 15.816,0.742 15.719,0.802 L15.719,0.802 C15.624,0.863 15.572,0.96 15.564,1.096 L15.564,1.096 C15.548,1.289 15.536,1.541 15.528,1.853 L15.528,1.853 C15.52,2.164 15.512,2.511 15.504,2.891 L15.504,2.891 C15.496,3.27 15.493,3.675 15.493,4.103 L15.493,4.103 C15.493,4.53 15.496,4.953 15.504,5.368 L15.504,5.368 C15.504,5.617 15.51,5.939 15.522,6.334 L15.522,6.334 C15.534,6.731 15.562,7.154 15.606,7.608 L15.606,7.608 C15.65,8.058 15.718,8.511 15.81,8.968 L15.81,8.968 C15.902,9.424 16.036,9.831 16.212,10.193 L16.212,10.193 C16.348,10.465 16.504,10.697 16.681,10.889 L16.681,10.889 C16.856,11.08 17.068,11.216 17.316,11.297 L17.316,11.297 C17.635,11.4 17.918,11.425 18.162,11.375 L18.162,11.375 C18.406,11.322 18.616,11.22 18.792,11.068 L18.792,11.068 C18.967,10.916 19.116,10.726 19.236,10.497 L19.236,10.497 C19.356,10.272 19.46,10.025 19.548,9.759 L19.548,9.759 C19.668,9.392 19.761,9.021 19.83,8.644 L19.83,8.644 C19.898,8.269 19.952,7.89 19.993,7.509 L19.993,7.509 C20.031,7.13 20.06,6.751 20.076,6.37 L20.076,6.37 C20.092,5.99 20.108,5.609 20.124,5.225 L20.124,5.225 C20.124,5.113 20.13,4.931 20.142,4.678 L20.142,4.678 C20.154,4.426 20.165,4.141 20.172,3.82 L20.172,3.82 C20.18,3.5 20.184,3.164 20.184,2.813 L20.184,2.813 C20.184,2.46 20.172,2.128 20.148,1.817 L20.148,1.817 C20.132,1.505 20.102,1.233 20.058,1.001 L20.058,1.001 C20.013,0.768 19.948,0.621 19.86,0.557 L19.86,0.557 C19.797,0.506 19.724,0.48 19.643,0.48 L19.643,0.48 C19.622,0.48 19.6,0.481 19.578,0.485 z" fill="url(#Gradient_4)"/>
    <path d="M21.348,1.145 C21.245,1.153 21.154,1.192 21.078,1.265 L21.078,1.265 C21.002,1.336 20.956,1.5 20.94,1.756 L20.94,1.756 L20.903,2.452 C20.896,2.684 20.89,2.922 20.886,3.166 L20.886,3.166 C20.882,3.411 20.88,3.66 20.88,3.917 L20.88,3.917 C20.88,4.197 20.882,4.473 20.886,4.745 L20.886,4.745 C20.89,5.017 20.894,5.271 20.898,5.506 L20.898,5.506 C20.902,5.743 20.908,5.949 20.916,6.124 L20.916,6.124 C20.924,6.3 20.929,6.437 20.929,6.533 L20.929,6.533 L20.952,6.641 L20.952,8.728 C20.952,8.912 20.965,9.093 20.994,9.275 L20.994,9.275 C21.022,9.455 21.092,9.609 21.204,9.736 L21.204,9.736 C21.34,9.896 21.474,10.006 21.606,10.066 L21.606,10.066 C21.738,10.127 21.865,10.156 21.984,10.156 L21.984,10.156 L22.032,10.156 C22.152,10.156 22.266,10.143 22.374,10.115 L22.374,10.115 C22.482,10.086 22.572,10.068 22.644,10.06 L22.644,10.06 C22.836,10.037 23.048,10.025 23.279,10.025 L23.279,10.025 C23.464,10.025 23.652,10.029 23.845,10.037 L23.845,10.037 C24.036,10.045 24.212,10.048 24.372,10.048 L24.372,10.048 C24.604,10.048 24.774,10.015 24.881,9.947 L24.881,9.947 C24.99,9.879 25.044,9.796 25.044,9.701 L25.044,9.701 C25.044,9.587 24.976,9.477 24.84,9.365 L24.84,9.365 C24.704,9.252 24.528,9.172 24.312,9.125 L24.312,9.125 C24.224,9.102 24.133,9.085 24.042,9.082 L24.042,9.082 C23.95,9.078 23.86,9.072 23.772,9.065 L23.772,9.065 L23.316,9.065 L23.112,9.065 C23.048,9.065 22.984,9.06 22.92,9.053 L22.92,9.053 C22.848,9.053 22.783,9.048 22.722,9.041 L22.722,9.041 C22.662,9.033 22.612,9.021 22.572,9.003 L22.572,9.003 C22.556,8.949 22.54,8.822 22.524,8.626 L22.524,8.626 C22.508,8.431 22.494,8.103 22.482,7.643 L22.482,7.643 C22.47,7.184 22.454,6.55 22.434,5.746 L22.434,5.746 C22.415,4.943 22.392,3.905 22.369,2.632 L22.369,2.632 C22.36,2.408 22.322,2.205 22.254,2.021 L22.254,2.021 C22.186,1.836 22.104,1.681 22.008,1.552 L22.008,1.552 C21.912,1.425 21.81,1.325 21.702,1.253 L21.702,1.253 C21.595,1.181 21.492,1.145 21.396,1.145 L21.396,1.145 z" fill="url(#Gradient_5)"/>
    <path d="M28.152,0.437 C27.984,0.437 27.814,0.475 27.642,0.55 L27.642,0.55 C27.47,0.626 27.306,0.727 27.15,0.851 L27.15,0.851 C26.994,0.975 26.85,1.115 26.717,1.271 L26.717,1.271 C26.585,1.426 26.472,1.588 26.375,1.756 L26.375,1.756 C26.184,2.092 26.028,2.46 25.907,2.861 L25.907,2.861 C25.788,3.261 25.696,3.666 25.632,4.079 L25.632,4.079 C25.567,4.491 25.52,4.897 25.488,5.296 L25.488,5.296 C25.456,5.697 25.436,6.068 25.428,6.412 L25.428,6.412 C25.42,6.605 25.413,6.843 25.41,7.127 L25.41,7.127 C25.406,7.41 25.402,7.691 25.397,7.967 L25.397,7.967 C25.393,8.242 25.39,8.486 25.385,8.699 L25.385,8.699 C25.381,8.91 25.38,9.041 25.38,9.088 L25.38,9.088 C25.38,9.209 25.377,9.354 25.374,9.521 L25.374,9.521 C25.369,9.689 25.384,9.843 25.415,9.983 L25.415,9.983 C25.447,10.123 25.507,10.23 25.596,10.307 L25.596,10.307 C25.683,10.382 25.816,10.389 25.992,10.324 L25.992,10.324 C26.072,10.3 26.132,10.267 26.172,10.222 L26.172,10.222 C26.212,10.18 26.24,10.121 26.256,10.048 L26.256,10.048 C26.272,9.976 26.282,9.891 26.285,9.791 L26.285,9.791 C26.29,9.691 26.295,9.568 26.303,9.424 L26.303,9.424 C26.312,9.209 26.318,8.968 26.321,8.705 L26.321,8.705 C26.326,8.441 26.329,8.182 26.333,7.923 L26.333,7.923 C26.338,7.668 26.339,7.436 26.339,7.222 L26.339,7.222 C26.339,7.012 26.344,6.849 26.352,6.736 L26.352,6.736 C26.656,6.729 26.974,6.712 27.306,6.689 L27.306,6.689 C27.638,6.664 27.967,6.645 28.296,6.628 L28.296,6.628 L28.296,7.246 L28.296,8.129 C28.296,8.449 28.3,8.777 28.308,9.113 L28.308,9.113 C28.316,9.449 28.336,9.759 28.368,10.048 L28.368,10.048 C28.4,10.335 28.444,10.582 28.499,10.787 L28.499,10.787 C28.556,10.99 28.632,11.117 28.727,11.164 L28.727,11.164 C28.872,11.236 29.046,11.287 29.249,11.315 L29.249,11.315 C29.453,11.342 29.62,11.293 29.748,11.164 L29.748,11.164 C29.844,11.076 29.897,11.016 29.91,10.978 L29.91,10.978 C29.922,10.943 29.92,10.857 29.903,10.721 L29.903,10.721 C29.895,10.377 29.893,10.011 29.897,9.629 L29.897,9.629 C29.902,9.244 29.906,8.858 29.91,8.464 L29.91,8.464 C29.913,8.072 29.922,7.685 29.934,7.301 L29.934,7.301 C29.946,6.916 29.952,6.548 29.952,6.196 L29.952,6.196 C29.952,5.668 29.946,5.155 29.934,4.655 L29.934,4.655 C29.922,4.154 29.888,3.709 29.831,3.316 L29.831,3.316 C29.784,2.948 29.716,2.588 29.627,2.236 L29.627,2.236 C29.54,1.884 29.427,1.575 29.291,1.307 L29.291,1.307 C29.156,1.038 28.993,0.824 28.805,0.664 L28.805,0.664 C28.626,0.512 28.421,0.437 28.188,0.437 L28.188,0.437 C28.176,0.437 28.164,0.437 28.152,0.437 z M26.454,5.123 C26.49,4.807 26.534,4.484 26.585,4.157 L26.585,4.157 C26.637,3.828 26.702,3.508 26.778,3.197 L26.778,3.197 C26.853,2.884 26.938,2.607 27.03,2.362 L27.03,2.362 C27.122,2.118 27.221,1.92 27.329,1.769 L27.329,1.769 C27.437,1.616 27.547,1.536 27.66,1.529 L27.66,1.529 C27.764,1.529 27.856,1.599 27.935,1.739 L27.935,1.739 C28.015,1.878 28.082,2.061 28.134,2.285 L28.134,2.285 C28.185,2.508 28.228,2.76 28.26,3.04 L28.26,3.04 C28.292,3.321 28.316,3.597 28.331,3.868 L28.331,3.868 C28.355,4.292 28.363,4.687 28.355,5.05 L28.355,5.05 C28.347,5.414 28.331,5.673 28.308,5.825 L28.308,5.825 C28.236,5.84 28.1,5.857 27.9,5.872 L27.9,5.872 C27.699,5.889 27.491,5.905 27.276,5.92 L27.276,5.92 C27.059,5.937 26.864,5.949 26.688,5.956 L26.688,5.956 C26.511,5.964 26.416,5.968 26.4,5.968 L26.4,5.968 C26.4,5.721 26.418,5.438 26.454,5.123 z" fill="url(#Gradient_6)"/>
    <path d="M34.332,0.916 C34.291,0.996 34.264,1.09 34.248,1.199 L34.248,1.199 C34.231,1.307 34.219,1.416 34.211,1.529 L34.211,1.529 C34.203,1.641 34.199,1.747 34.199,1.846 L34.199,1.846 L34.199,2.081 C34.184,2.168 34.176,2.344 34.176,2.609 L34.176,2.609 L34.176,3.532 C34.176,3.868 34.178,4.225 34.182,4.601 L34.182,4.601 C34.186,4.977 34.189,5.336 34.194,5.681 L34.194,5.681 C34.197,6.024 34.201,6.329 34.205,6.592 L34.205,6.592 C34.209,6.857 34.214,7.049 34.223,7.167 L34.223,7.167 L34.223,7.277 C34.231,7.412 34.24,7.584 34.254,7.793 L34.254,7.793 C34.266,8 34.277,8.222 34.289,8.459 L34.289,8.459 C34.301,8.695 34.316,8.933 34.338,9.172 L34.338,9.172 C34.357,9.412 34.377,9.636 34.396,9.843 L34.396,9.843 C34.418,10.053 34.438,10.23 34.457,10.379 L34.457,10.379 C34.476,10.527 34.5,10.625 34.523,10.672 L34.523,10.672 C34.546,10.729 34.596,10.787 34.668,10.846 L34.668,10.846 C34.738,10.906 34.822,10.961 34.92,11.008 L34.92,11.008 C35.015,11.056 35.119,11.098 35.23,11.128 L35.23,11.128 C35.344,11.16 35.447,11.176 35.543,11.176 L35.543,11.176 C35.671,11.176 35.779,11.143 35.867,11.074 L35.867,11.074 C35.955,11.006 36,10.893 36,10.732 L36,10.732 L36,10.637 C35.982,10.5 35.963,10.29 35.94,10.006 L35.94,10.006 C35.916,9.723 35.887,9.412 35.855,9.076 L35.855,9.076 C35.823,8.676 35.797,8.289 35.778,7.912 L35.778,7.912 C35.758,7.537 35.748,7.244 35.748,7.037 L35.748,7.037 C35.748,6.901 35.752,6.824 35.76,6.809 L35.76,6.809 C35.823,6.84 35.953,6.947 36.148,7.127 L36.148,7.127 C36.346,7.306 36.563,7.514 36.803,7.744 L36.803,7.744 C36.978,7.912 37.125,8.092 37.24,8.285 L37.24,8.285 C37.357,8.476 37.462,8.664 37.559,8.85 L37.559,8.85 C37.654,9.033 37.746,9.213 37.836,9.389 L37.836,9.389 C37.924,9.564 38.031,9.724 38.16,9.869 L38.16,9.869 L38.759,10.552 C38.879,10.681 39.039,10.744 39.238,10.744 L39.238,10.744 C39.416,10.744 39.559,10.693 39.672,10.587 L39.672,10.587 C39.672,10.517 39.639,10.408 39.574,10.265 L39.574,10.265 C39.463,10.065 39.305,9.816 39.101,9.521 L39.101,9.521 C38.896,9.225 38.684,8.93 38.459,8.633 L38.459,8.633 C38.235,8.336 38.02,8.064 37.811,7.816 L37.811,7.816 C37.604,7.568 37.447,7.392 37.344,7.289 L37.344,7.289 C37.192,7.152 37.043,7.017 36.898,6.88 L36.898,6.88 C36.756,6.744 36.625,6.622 36.509,6.515 L36.509,6.515 C36.392,6.407 36.299,6.317 36.227,6.244 L36.227,6.244 C36.154,6.172 36.119,6.132 36.119,6.124 L36.119,6.124 L36.119,6.088 C36.119,6.024 36.176,5.925 36.287,5.789 L36.287,5.789 C36.447,5.596 36.629,5.368 36.834,5.105 L36.834,5.105 C37.037,4.84 37.248,4.565 37.462,4.277 L37.462,4.277 C37.494,4.229 37.559,4.134 37.654,3.994 L37.654,3.994 C37.752,3.854 37.859,3.692 37.978,3.508 L37.978,3.508 C38.1,3.324 38.225,3.125 38.357,2.909 L38.357,2.909 C38.488,2.693 38.611,2.481 38.723,2.272 L38.723,2.272 C38.859,2.033 38.971,1.811 39.058,1.606 L39.058,1.606 C39.146,1.403 39.191,1.244 39.191,1.132 L39.191,1.132 C39.191,1.1 39.183,1.069 39.168,1.037 L39.168,1.037 C39.096,0.973 39.021,0.921 38.946,0.88 L38.946,0.88 C38.869,0.84 38.787,0.821 38.699,0.821 L38.699,0.821 C38.547,0.821 38.427,0.893 38.34,1.037 L38.34,1.037 C38.203,1.269 38.074,1.495 37.955,1.714 L37.955,1.714 C37.836,1.935 37.715,2.159 37.596,2.386 L37.596,2.386 C37.474,2.614 37.35,2.847 37.217,3.082 L37.217,3.082 C37.086,3.319 36.935,3.561 36.768,3.809 L36.768,3.809 C36.607,4.048 36.451,4.278 36.299,4.498 L36.299,4.498 C36.147,4.719 35.978,4.944 35.795,5.176 L35.795,5.176 C35.738,5.169 35.705,5.077 35.693,4.9 L35.693,4.9 C35.681,4.725 35.676,4.501 35.676,4.229 L35.676,4.229 L35.676,3.617 C35.676,3.321 35.668,3.017 35.651,2.704 L35.651,2.704 C35.635,2.393 35.6,2.103 35.543,1.834 L35.543,1.834 C35.486,1.567 35.404,1.333 35.297,1.132 L35.297,1.132 C35.189,0.933 35.043,0.796 34.86,0.725 L34.86,0.725 C34.787,0.701 34.718,0.689 34.654,0.689 L34.654,0.689 C34.504,0.689 34.394,0.765 34.332,0.916 z" fill="url(#Gradient_7)"/>
    <path d="M40.44,1.145 C40.336,1.153 40.244,1.192 40.17,1.265 L40.17,1.265 C40.094,1.336 40.047,1.5 40.031,1.756 L40.031,1.756 L39.994,2.452 C39.986,2.684 39.981,2.922 39.976,3.166 L39.976,3.166 C39.973,3.411 39.971,3.66 39.971,3.917 L39.971,3.917 C39.971,4.197 39.973,4.473 39.976,4.745 L39.976,4.745 C39.981,5.017 39.984,5.271 39.988,5.506 L39.988,5.506 C39.992,5.743 39.998,5.949 40.008,6.124 L40.008,6.124 C40.016,6.3 40.019,6.437 40.019,6.533 L40.019,6.533 L40.043,6.641 L40.043,8.728 C40.043,8.912 40.056,9.093 40.086,9.275 L40.086,9.275 C40.113,9.455 40.183,9.609 40.295,9.736 L40.295,9.736 C40.432,9.896 40.565,10.006 40.697,10.066 L40.697,10.066 C40.829,10.127 40.955,10.156 41.074,10.156 L41.074,10.156 L41.123,10.156 C41.243,10.156 41.358,10.143 41.465,10.115 L41.465,10.115 C41.572,10.086 41.662,10.068 41.735,10.06 L41.735,10.06 C41.927,10.037 42.139,10.025 42.371,10.025 L42.371,10.025 C42.555,10.025 42.742,10.029 42.935,10.037 L42.935,10.037 C43.127,10.045 43.303,10.048 43.463,10.048 L43.463,10.048 C43.695,10.048 43.865,10.015 43.973,9.947 L43.973,9.947 C44.082,9.879 44.135,9.796 44.135,9.701 L44.135,9.701 C44.135,9.587 44.067,9.477 43.932,9.365 L43.932,9.365 C43.795,9.252 43.619,9.172 43.402,9.125 L43.402,9.125 C43.314,9.102 43.224,9.085 43.133,9.082 L43.133,9.082 C43.041,9.078 42.952,9.072 42.863,9.065 L42.863,9.065 L42.406,9.065 L42.203,9.065 C42.139,9.065 42.074,9.06 42.012,9.053 L42.012,9.053 C41.939,9.053 41.873,9.048 41.812,9.041 L41.812,9.041 C41.754,9.033 41.703,9.021 41.662,9.003 L41.662,9.003 C41.647,8.949 41.631,8.822 41.615,8.626 L41.615,8.626 C41.6,8.431 41.586,8.103 41.572,7.643 L41.572,7.643 C41.56,7.184 41.545,6.55 41.525,5.746 L41.525,5.746 C41.506,4.943 41.483,3.905 41.459,2.632 L41.459,2.632 C41.451,2.408 41.412,2.205 41.346,2.021 L41.346,2.021 C41.278,1.836 41.196,1.681 41.099,1.552 L41.099,1.552 C41.004,1.425 40.9,1.325 40.793,1.253 L40.793,1.253 C40.685,1.181 40.584,1.145 40.486,1.145 L40.486,1.145 z" fill="url(#Gradient_8)"/>
    <path d="M44.621,1.054 C44.576,1.187 44.555,1.333 44.555,1.493 L44.555,1.493 L44.555,1.84 C44.531,2.776 44.519,3.692 44.519,4.588 L44.519,4.588 C44.519,4.701 44.518,4.897 44.514,5.176 L44.514,5.176 C44.508,5.456 44.506,5.784 44.506,6.16 L44.506,6.16 C44.506,6.576 44.508,7.025 44.511,7.504 L44.511,7.504 C44.516,7.985 44.523,8.439 44.537,8.867 L44.537,8.867 C44.549,9.295 44.563,9.672 44.578,10 L44.578,10 C44.594,10.328 44.618,10.545 44.651,10.649 L44.651,10.649 C44.705,10.849 44.825,11 45.006,11.105 L45.006,11.105 C45.19,11.208 45.379,11.26 45.578,11.26 L45.578,11.26 C45.656,11.26 45.713,11.255 45.744,11.248 L45.744,11.248 C45.856,11.232 45.95,11.185 46.025,11.105 L46.025,11.105 C46.102,11.025 46.139,10.904 46.139,10.744 L46.139,10.744 C46.139,10.712 46.137,10.681 46.133,10.649 L46.133,10.649 C46.129,10.617 46.123,10.58 46.115,10.541 L46.115,10.541 C46.066,10.293 46.031,9.983 46.006,9.611 L46.006,9.611 C45.983,9.238 45.963,8.838 45.948,8.41 L45.948,8.41 C45.93,7.982 45.92,7.544 45.916,7.095 L45.916,7.095 C45.912,6.649 45.91,6.22 45.91,5.813 L45.91,5.813 L45.91,4.565 C45.91,4.221 45.916,3.854 45.93,3.466 L45.93,3.466 C45.941,3.079 45.948,2.733 45.948,2.428 L45.948,2.428 C45.948,2.108 45.935,1.876 45.91,1.732 L45.91,1.732 C45.871,1.541 45.823,1.382 45.761,1.258 L45.761,1.258 C45.703,1.134 45.606,1.044 45.471,0.989 L45.471,0.989 C45.274,0.901 45.102,0.857 44.959,0.857 L44.959,0.857 C44.778,0.857 44.664,0.922 44.621,1.054 z" fill="url(#Gradient_9)"/>
    <path d="M50.291,0.094 C50.219,0.155 50.181,0.265 50.181,0.424 L50.181,0.424 L50.181,0.508 L50.181,0.58 C50.181,0.605 50.18,0.621 50.176,0.628 L50.176,0.628 C50.172,0.637 50.162,0.652 50.146,0.676 L50.146,0.676 C49.914,1.277 49.682,1.876 49.451,2.477 L49.451,2.477 C49.218,3.076 48.982,3.676 48.742,4.277 L48.742,4.277 C48.687,4.365 48.659,4.421 48.659,4.445 L48.659,4.445 C48.659,4.468 48.627,4.501 48.562,4.54 L48.562,4.54 C48.547,4.532 48.533,4.529 48.522,4.529 L48.522,4.529 C48.508,4.529 48.497,4.522 48.485,4.51 L48.485,4.51 C48.473,4.498 48.463,4.475 48.455,4.439 L48.455,4.439 C48.447,4.403 48.443,4.345 48.443,4.265 L48.443,4.265 C48.434,4.105 48.424,3.897 48.412,3.641 L48.412,3.641 C48.4,3.384 48.383,3.113 48.36,2.825 L48.36,2.825 C48.342,2.601 48.32,2.374 48.293,2.147 L48.293,2.147 C48.263,1.919 48.233,1.706 48.198,1.51 L48.198,1.51 C48.16,1.315 48.121,1.143 48.076,0.994 L48.076,0.994 C48.033,0.847 47.983,0.737 47.926,0.664 L47.926,0.664 C47.902,0.632 47.866,0.592 47.813,0.544 L47.813,0.544 C47.759,0.497 47.701,0.451 47.633,0.407 L47.633,0.407 C47.564,0.363 47.496,0.325 47.427,0.292 L47.427,0.292 C47.362,0.261 47.303,0.245 47.254,0.245 L47.254,0.245 C47.135,0.245 47.043,0.261 46.978,0.292 L46.978,0.292 C46.914,0.325 46.869,0.364 46.84,0.412 L46.84,0.412 C46.813,0.461 46.795,0.521 46.787,0.592 L46.787,0.592 C46.779,0.664 46.776,0.744 46.776,0.832 L46.776,0.832 L46.776,0.904 C46.766,1.112 46.76,1.325 46.756,1.541 L46.756,1.541 C46.752,1.756 46.75,1.977 46.75,2.2 L46.75,2.2 C46.75,2.672 46.758,3.149 46.776,3.629 L46.776,3.629 C46.791,4.108 46.806,4.601 46.822,5.105 L46.822,5.105 C46.863,5.977 46.904,6.836 46.949,7.685 L46.949,7.685 C46.993,8.533 47.023,9.335 47.039,10.095 L47.039,10.095 C47.047,10.385 47.053,10.629 47.057,10.828 L47.057,10.828 C47.06,11.029 47.115,11.197 47.219,11.332 L47.219,11.332 C47.283,11.42 47.377,11.49 47.5,11.543 L47.5,11.543 C47.625,11.594 47.791,11.64 47.998,11.682 L47.998,11.682 C48.031,11.689 48.07,11.693 48.119,11.693 L48.119,11.693 C48.246,11.693 48.35,11.656 48.43,11.584 L48.43,11.584 C48.51,11.512 48.578,11.415 48.635,11.297 L48.635,11.297 C48.682,11.168 48.717,11.025 48.736,10.865 L48.736,10.865 C48.756,10.705 48.766,10.537 48.766,10.361 L48.766,10.361 C48.766,10.105 48.754,9.861 48.73,9.629 L48.73,9.629 C48.707,9.397 48.692,9.22 48.682,9.102 L48.682,9.102 C48.666,8.668 48.649,8.242 48.629,7.822 L48.629,7.822 C48.609,7.402 48.597,7.04 48.597,6.736 L48.597,6.736 C48.597,6.552 48.602,6.399 48.612,6.275 L48.612,6.275 C48.619,6.15 48.639,6.06 48.67,6.005 L48.67,6.005 C48.742,6.021 48.828,6.078 48.928,6.178 L48.928,6.178 C49.029,6.278 49.139,6.407 49.258,6.563 L49.258,6.563 C49.378,6.718 49.504,6.897 49.637,7.095 L49.637,7.095 C49.769,7.297 49.902,7.504 50.039,7.721 L50.039,7.721 C50.094,7.808 50.156,7.945 50.225,8.129 L50.225,8.129 C50.293,8.312 50.363,8.517 50.435,8.74 L50.435,8.74 C50.506,8.965 50.582,9.197 50.662,9.437 L50.662,9.437 C50.742,9.676 50.822,9.9 50.902,10.109 L50.902,10.109 C50.982,10.317 51.061,10.497 51.137,10.654 L51.137,10.654 C51.213,10.811 51.287,10.912 51.359,10.961 L51.359,10.961 C51.543,11.088 51.723,11.152 51.898,11.152 L51.898,11.152 C52.035,11.152 52.147,11.117 52.234,11.045 L52.234,11.045 C52.322,10.973 52.367,10.873 52.367,10.744 L52.367,10.744 C52.367,10.664 52.334,10.525 52.271,10.324 L52.271,10.324 C52.207,10.125 52.127,9.9 52.031,9.652 L52.031,9.652 C51.935,9.404 51.83,9.145 51.719,8.873 L51.719,8.873 C51.608,8.601 51.502,8.352 51.406,8.123 L51.406,8.123 C51.311,7.895 51.226,7.703 51.154,7.546 L51.154,7.546 C51.082,7.391 51.043,7.304 51.035,7.289 L51.035,7.289 C50.762,6.889 50.486,6.517 50.207,6.172 L50.207,6.172 C49.926,5.828 49.674,5.588 49.451,5.452 L49.451,5.452 C49.459,5.404 49.51,5.263 49.607,5.026 L49.607,5.026 C49.703,4.79 49.819,4.52 49.955,4.216 L49.955,4.216 C49.963,4.2 49.971,4.183 49.979,4.162 L49.979,4.162 C49.986,4.143 49.994,4.124 50.002,4.108 L50.002,4.108 C50.09,3.908 50.18,3.704 50.273,3.496 L50.273,3.496 C50.365,3.288 50.451,3.094 50.531,2.914 L50.531,2.914 C50.611,2.735 50.678,2.575 50.735,2.435 L50.735,2.435 C50.791,2.294 50.83,2.193 50.855,2.128 L50.855,2.128 C50.944,1.856 51.012,1.597 51.064,1.349 L51.064,1.349 C51.117,1.1 51.143,0.88 51.143,0.689 L51.143,0.689 C51.143,0.577 51.133,0.479 51.114,0.395 L51.114,0.395 C51.092,0.311 51.059,0.24 51.01,0.185 L51.01,0.185 C50.971,0.145 50.906,0.105 50.818,0.065 L50.818,0.065 C50.73,0.025 50.639,0.004 50.543,0.004 L50.543,0.004 C50.448,0.004 50.363,0.035 50.291,0.094 z" fill="url(#Gradient_10)"/>
    <path d="M53.471,0.749 C53.207,0.781 53.043,0.832 52.979,0.904 L52.979,0.904 C52.947,0.945 52.93,0.977 52.925,1.001 L52.925,1.001 C52.92,1.025 52.918,1.057 52.918,1.096 L52.918,1.096 C52.918,1.153 52.914,1.197 52.906,1.229 L52.906,1.229 C52.89,1.317 52.875,1.362 52.86,1.367 L52.86,1.367 C52.844,1.371 52.825,1.379 52.805,1.391 L52.805,1.391 C52.785,1.403 52.77,1.442 52.758,1.51 L52.758,1.51 C52.745,1.578 52.738,1.716 52.738,1.924 L52.738,1.924 C52.738,2.197 52.74,2.502 52.745,2.842 L52.745,2.842 C52.748,3.183 52.752,3.544 52.758,3.928 L52.758,3.928 C52.762,4.313 52.768,4.706 52.775,5.111 L52.775,5.111 C52.783,5.515 52.795,5.916 52.81,6.317 L52.81,6.317 C52.818,6.588 52.825,6.855 52.828,7.115 L52.828,7.115 C52.832,7.374 52.834,7.625 52.834,7.865 L52.834,7.865 C52.834,8.137 52.83,8.391 52.822,8.626 L52.822,8.626 C52.815,8.863 52.803,9.08 52.787,9.281 L52.787,9.281 C52.78,9.297 52.77,9.324 52.758,9.365 L52.758,9.365 C52.745,9.404 52.738,9.457 52.738,9.521 L52.738,9.521 C52.738,9.601 52.762,9.689 52.805,9.785 L52.805,9.785 C52.85,9.881 52.947,9.973 53.1,10.06 L53.1,10.06 C53.18,10.109 53.242,10.148 53.291,10.182 L53.291,10.182 C53.339,10.213 53.428,10.228 53.555,10.228 L53.555,10.228 C53.635,10.228 53.703,10.222 53.76,10.21 L53.76,10.21 C53.815,10.199 53.875,10.19 53.94,10.182 L53.94,10.182 C54.002,10.172 54.078,10.164 54.166,10.156 L54.166,10.156 C54.254,10.148 54.375,10.145 54.527,10.145 L54.527,10.145 L54.779,10.145 C54.851,10.145 54.933,10.146 55.025,10.15 L55.025,10.15 C55.117,10.154 55.21,10.156 55.307,10.156 L55.307,10.156 C55.547,10.156 55.787,10.136 56.028,10.095 L56.028,10.095 C56.268,10.056 56.452,9.965 56.579,9.82 L56.579,9.82 C56.627,9.766 56.65,9.709 56.65,9.652 L56.65,9.652 C56.65,9.533 56.543,9.434 56.327,9.354 L56.327,9.354 C56.166,9.297 56.013,9.257 55.865,9.238 L55.865,9.238 C55.717,9.218 55.562,9.209 55.402,9.209 L55.402,9.209 C55.242,9.209 55.082,9.215 54.923,9.227 L54.923,9.227 C54.764,9.238 54.592,9.244 54.406,9.244 L54.406,9.244 C54.319,9.236 54.266,9.217 54.244,9.185 L54.244,9.185 C54.225,9.152 54.215,9.093 54.215,9.005 L54.215,9.005 L54.215,8.742 C54.215,8.589 54.217,8.441 54.221,8.299 L54.221,8.299 C54.225,8.154 54.227,8.005 54.227,7.855 L54.227,7.855 C54.227,7.703 54.225,7.554 54.221,7.412 L54.221,7.412 C54.217,7.267 54.215,7.119 54.215,6.968 L54.215,6.968 C54.207,6.808 54.203,6.651 54.203,6.494 L54.203,6.494 L54.203,6.022 L54.203,5.627 C54.275,5.627 54.365,5.624 54.473,5.62 L54.473,5.62 C54.581,5.617 54.696,5.609 54.814,5.596 L54.814,5.596 C54.935,5.584 55.057,5.569 55.182,5.548 L55.182,5.548 C55.305,5.529 55.418,5.506 55.524,5.483 L55.524,5.483 C55.684,5.443 55.783,5.385 55.822,5.309 L55.822,5.309 C55.863,5.232 55.883,5.151 55.883,5.063 L55.883,5.063 L55.883,5.015 C55.883,4.952 55.865,4.889 55.828,4.829 L55.828,4.829 C55.793,4.77 55.711,4.72 55.582,4.68 L55.582,4.68 C55.519,4.664 55.454,4.652 55.385,4.644 L55.385,4.644 C55.317,4.636 55.247,4.632 55.175,4.632 L55.175,4.632 C55.047,4.632 54.923,4.638 54.803,4.65 L54.803,4.65 C54.684,4.662 54.571,4.667 54.467,4.667 L54.467,4.667 C54.314,4.667 54.219,4.644 54.18,4.596 L54.18,4.596 C54.162,4.388 54.148,4.205 54.137,4.044 L54.137,4.044 C54.125,3.885 54.113,3.705 54.102,3.505 L54.102,3.505 C54.09,3.305 54.07,3.107 54.047,2.907 L54.047,2.907 C54.031,2.691 54.02,2.489 54.012,2.301 L54.012,2.301 C54.002,2.114 53.998,1.964 53.998,1.852 L53.998,1.852 L53.998,1.708 C54.055,1.677 54.127,1.657 54.215,1.649 L54.215,1.649 C54.302,1.641 54.402,1.636 54.516,1.636 L54.516,1.636 L54.791,1.636 C54.903,1.636 55.012,1.639 55.115,1.643 L55.115,1.643 C55.219,1.647 55.327,1.649 55.439,1.649 L55.439,1.649 C55.679,1.649 55.896,1.631 56.093,1.594 L56.093,1.594 C56.289,1.558 56.418,1.47 56.482,1.333 L56.482,1.333 C56.498,1.283 56.507,1.252 56.507,1.236 L56.507,1.236 C56.507,1.163 56.48,1.095 56.43,1.035 L56.43,1.035 C56.377,0.974 56.33,0.936 56.291,0.92 L56.291,0.92 C56.18,0.87 55.984,0.829 55.709,0.791 L55.709,0.791 C55.434,0.755 55.131,0.729 54.803,0.713 L54.803,0.713 C54.731,0.713 54.658,0.71 54.588,0.706 L54.588,0.706 C54.516,0.703 54.444,0.701 54.371,0.701 L54.371,0.701 C54.035,0.701 53.734,0.716 53.471,0.749 z" fill="url(#Gradient_11)"/>
    <path d="M58.078,0.004 C57.911,0.013 57.764,0.03 57.641,0.059 L57.641,0.059 C57.515,0.086 57.424,0.132 57.365,0.197 L57.365,0.197 C57.305,0.261 57.28,0.345 57.287,0.449 L57.287,0.449 C57.295,0.552 57.35,0.676 57.455,0.821 L57.455,0.821 C57.414,0.885 57.389,0.933 57.377,0.964 L57.377,0.964 C57.365,0.996 57.357,1.029 57.353,1.061 L57.353,1.061 C57.348,1.092 57.345,1.13 57.345,1.174 L57.345,1.174 L57.345,1.372 L57.345,1.996 C57.345,2.244 57.348,2.521 57.353,2.825 L57.353,2.825 C57.357,3.128 57.361,3.457 57.365,3.809 L57.365,3.809 C57.369,4.16 57.375,4.52 57.383,4.888 L57.383,4.888 L57.383,5.285 C57.383,5.508 57.387,5.792 57.395,6.136 L57.395,6.136 C57.402,6.481 57.408,6.869 57.412,7.301 L57.412,7.301 C57.416,7.733 57.425,8.168 57.443,8.609 L57.443,8.609 C57.459,9.048 57.475,9.48 57.49,9.904 L57.49,9.904 C57.506,10.328 57.527,10.705 57.551,11.033 L57.551,11.033 C57.559,11.176 57.574,11.347 57.597,11.549 L57.597,11.549 C57.623,11.748 57.668,11.934 57.736,12.108 L57.736,12.108 C57.804,12.279 57.902,12.414 58.031,12.515 L58.031,12.515 C58.158,12.615 58.338,12.64 58.57,12.592 L58.57,12.592 C58.746,12.552 58.871,12.472 58.944,12.353 L58.944,12.353 C59.014,12.233 59.061,12.093 59.081,11.939 L59.081,11.939 C59.099,11.783 59.101,11.621 59.086,11.453 L59.086,11.453 C59.071,11.285 59.063,11.128 59.063,10.984 L59.063,10.984 C59.054,10.568 59.043,10.14 59.027,9.701 L59.027,9.701 C59.009,9.262 59.006,8.873 59.014,8.537 L59.014,8.537 C59.014,8.496 59.012,8.404 59.008,8.26 L59.008,8.26 C59.004,8.117 58.998,7.953 58.991,7.77 L58.991,7.77 C58.982,7.584 58.974,7.391 58.967,7.187 L58.967,7.187 C58.959,6.983 58.953,6.792 58.949,6.617 L58.949,6.617 C58.945,6.441 58.945,6.293 58.949,6.172 L58.949,6.172 C58.953,6.052 58.963,5.985 58.979,5.968 L58.979,5.968 L58.967,6.017 C59.101,6.24 59.252,6.572 59.416,7.012 L59.416,7.012 C59.58,7.453 59.752,7.925 59.932,8.436 L59.932,8.436 C60.114,8.943 60.295,9.443 60.478,9.935 L60.478,9.935 C60.662,10.425 60.845,10.836 61.031,11.164 L61.031,11.164 C61.079,11.244 61.139,11.333 61.211,11.435 L61.211,11.435 C61.283,11.535 61.366,11.619 61.457,11.687 L61.457,11.687 C61.549,11.754 61.646,11.792 61.75,11.801 L61.75,11.801 C61.853,11.809 61.959,11.766 62.062,11.667 L62.062,11.667 C62.142,11.595 62.185,11.493 62.189,11.362 L62.189,11.362 L62.189,11.32 C62.184,11.168 62.159,11.006 62.112,10.834 L62.112,10.834 C62.062,10.662 62.002,10.49 61.93,10.318 L61.93,10.318 C61.86,10.146 61.799,9.992 61.75,9.858 L61.75,9.858 C61.375,9.08 60.992,8.31 60.605,7.546 L60.605,7.546 C60.217,6.782 59.838,6.013 59.471,5.237 L59.471,5.237 C59.727,5.141 59.982,5 60.238,4.817 L60.238,4.817 C60.494,4.632 60.72,4.406 60.916,4.138 L60.916,4.138 C61.114,3.871 61.258,3.557 61.356,3.197 L61.356,3.197 C61.451,2.837 61.466,2.437 61.402,1.996 L61.402,1.996 C61.346,1.621 61.203,1.302 60.971,1.042 L60.971,1.042 C60.738,0.783 60.465,0.572 60.149,0.412 L60.149,0.412 C59.832,0.252 59.49,0.141 59.123,0.076 L59.123,0.076 C58.825,0.026 58.542,0 58.271,0 L58.271,0 C58.206,0 58.141,0.001 58.078,0.004 z M58.889,4.187 C58.877,3.99 58.865,3.767 58.854,3.515 L58.854,3.515 C58.84,3.262 58.826,2.999 58.811,2.723 L58.811,2.723 C58.795,2.447 58.781,2.195 58.767,1.966 L58.767,1.966 C58.756,1.739 58.746,1.548 58.738,1.397 L58.738,1.397 C58.73,1.244 58.727,1.164 58.727,1.156 L58.727,1.156 C58.719,1.069 58.702,1.004 58.672,0.964 L58.672,0.964 C58.645,0.924 58.612,0.876 58.57,0.821 L58.57,0.821 C58.802,0.836 59.033,0.893 59.26,0.989 L59.26,0.989 C59.488,1.084 59.67,1.189 59.807,1.3 L59.807,1.3 C59.944,1.42 60.043,1.585 60.107,1.793 L60.107,1.793 C60.169,2.001 60.206,2.225 60.209,2.464 L60.209,2.464 C60.213,2.704 60.186,2.948 60.131,3.197 L60.131,3.197 C60.074,3.445 59.99,3.67 59.879,3.874 L59.879,3.874 C59.765,4.079 59.631,4.246 59.471,4.378 L59.471,4.378 C59.311,4.51 59.127,4.581 58.918,4.588 L58.918,4.588 C58.91,4.517 58.9,4.382 58.889,4.187 z" fill="url(#Gradient_12)"/>
  </g>
</svg>
