<?xml version="1.0" encoding="UTF-8"?>
<!DOCTYPE svg PUBLIC "-//W3C//DTD SVG 1.1//EN" "http://www.w3.org/Graphics/SVG/1.1/DTD/svg11.dtd">
<svg version="1.1" xmlns="http://www.w3.org/2000/svg" xmlns:xlink="http://www.w3.org/1999/xlink" x="0" y="0" width="36.5" height="27.667" viewBox="0, 0, 36.5, 27.667">
  <defs>
    <linearGradient id="Gradient_1" gradientUnits="userSpaceOnUse" x1="18.25" y1="27.667" x2="18.25" y2="0">
      <stop offset="0" stop-color="#7A3827"/>
      <stop offset="1" stop-color="#91522C"/>
    </linearGradient>
  </defs>
  <g id="Layer_1">
    <path d="M5.669,0 C2.538,0 0,2.538 0,5.669 L0,5.669 L0,21.998 C0,25.129 2.538,27.667 5.669,27.667 L5.669,27.667 L30.83,27.667 C33.962,27.667 36.5,25.129 36.5,21.998 L36.5,21.998 L36.5,5.669 C36.5,2.538 33.962,0 30.83,0 L30.83,0 z" fill="url(#Gradient_1)"/>
    <g>
      <path d="M15.961,8.877 C15.961,9.048 15.937,9.165 15.889,9.229 C15.841,9.293 15.779,9.33 15.705,9.341 C15.587,9.352 15.462,9.319 15.329,9.245 C15.195,9.17 15.076,9.111 14.969,9.068 C14.521,8.908 14.145,8.94 13.841,9.165 C13.537,9.389 13.289,9.703 13.097,10.108 C12.916,10.482 12.753,11.008 12.609,11.685 C12.465,12.362 12.361,13.096 12.297,13.885 C12.244,14.546 12.235,15.207 12.273,15.869 C12.31,16.53 12.409,17.127 12.569,17.661 C12.729,18.194 12.959,18.632 13.257,18.973 C13.556,19.315 13.94,19.49 14.409,19.501 C14.761,19.512 15.078,19.426 15.361,19.245 C15.644,19.064 15.897,18.823 16.121,18.524 C16.345,18.227 16.537,17.885 16.697,17.501 C16.857,17.116 16.993,16.731 17.105,16.341 C17.217,15.951 17.305,15.572 17.369,15.205 C17.433,14.837 17.481,14.524 17.513,14.269 C17.587,13.607 17.617,12.954 17.601,12.309 C17.585,11.663 17.513,11.088 17.385,10.581 C17.257,10.074 17.076,9.663 16.841,9.349 C16.607,9.034 16.313,8.877 15.961,8.877 M13.689,7.981 C13.945,7.768 14.217,7.632 14.505,7.572 C14.793,7.515 15.086,7.512 15.385,7.565 C16.142,7.692 16.777,7.979 17.289,8.421 C17.801,8.863 18.204,9.404 18.497,10.045 C18.79,10.685 18.98,11.389 19.065,12.156 C19.15,12.925 19.15,13.698 19.065,14.477 C19.012,14.903 18.926,15.355 18.809,15.829 C18.691,16.304 18.534,16.771 18.337,17.229 C18.14,17.688 17.905,18.122 17.633,18.532 C17.361,18.943 17.051,19.298 16.705,19.597 C16.358,19.896 15.974,20.122 15.553,20.276 C15.131,20.432 14.67,20.477 14.169,20.413 C13.412,20.316 12.779,20.071 12.273,19.677 C11.766,19.282 11.358,18.789 11.049,18.196 C10.74,17.605 10.524,16.946 10.401,16.221 C10.278,15.495 10.228,14.765 10.249,14.028 C10.27,13.165 10.377,12.333 10.569,11.532 C10.761,10.732 11.027,10.05 11.369,9.484 C11.571,9.154 11.809,8.874 12.081,8.645 C12.353,8.415 12.675,8.269 13.049,8.205 C13.188,8.184 13.299,8.165 13.385,8.148 C13.47,8.133 13.571,8.077 13.689,7.981" fill="#7B3927"/>
      <path d="M19.977,9.116 L19.977,8.804 C19.977,8.672 19.982,8.53 19.993,8.381 C20.003,8.231 20.019,8.085 20.041,7.94 C20.062,7.797 20.099,7.672 20.153,7.564 C20.238,7.362 20.383,7.261 20.585,7.261 C20.67,7.261 20.761,7.276 20.857,7.308 C21.102,7.404 21.297,7.586 21.441,7.852 C21.585,8.119 21.694,8.431 21.769,8.789 C21.844,9.146 21.891,9.532 21.913,9.948 C21.934,10.364 21.945,10.77 21.945,11.165 L21.945,11.98 C21.945,12.344 21.953,12.642 21.969,12.877 C21.984,13.111 22.03,13.234 22.105,13.245 C22.35,12.935 22.574,12.634 22.777,12.341 C22.979,12.048 23.188,11.74 23.4,11.421 C23.625,11.09 23.824,10.767 24.001,10.453 C24.177,10.137 24.345,9.829 24.505,9.524 C24.665,9.22 24.824,8.922 24.984,8.629 C25.144,8.335 25.315,8.034 25.497,7.724 C25.615,7.532 25.773,7.436 25.977,7.436 C26.094,7.436 26.203,7.464 26.306,7.516 C26.406,7.57 26.505,7.639 26.602,7.724 C26.622,7.767 26.633,7.81 26.633,7.852 C26.633,8.002 26.574,8.213 26.457,8.484 C26.34,8.757 26.189,9.053 26.009,9.373 C25.859,9.65 25.697,9.932 25.521,10.22 C25.345,10.509 25.177,10.775 25.017,11.02 C24.857,11.266 24.713,11.482 24.585,11.669 C24.457,11.855 24.372,11.98 24.328,12.045 C24.041,12.429 23.761,12.797 23.488,13.148 C23.217,13.501 22.975,13.804 22.761,14.06 C22.611,14.242 22.537,14.375 22.537,14.461 L22.537,14.509 C22.537,14.519 22.585,14.572 22.681,14.669 C22.777,14.764 22.902,14.885 23.057,15.028 C23.211,15.173 23.385,15.335 23.576,15.516 C23.769,15.698 23.967,15.88 24.169,16.06 C24.307,16.199 24.516,16.434 24.793,16.764 C25.07,17.095 25.357,17.458 25.656,17.852 C25.955,18.247 26.24,18.642 26.513,19.037 C26.785,19.431 26.995,19.762 27.144,20.028 C27.23,20.22 27.273,20.364 27.273,20.461 C27.123,20.599 26.932,20.669 26.697,20.669 C26.431,20.669 26.217,20.583 26.057,20.413 L25.257,19.501 C25.086,19.308 24.941,19.095 24.824,18.86 C24.707,18.626 24.585,18.386 24.457,18.14 C24.328,17.895 24.188,17.644 24.033,17.388 C23.878,17.133 23.684,16.892 23.449,16.669 C23.129,16.359 22.838,16.085 22.576,15.845 C22.315,15.604 22.143,15.464 22.057,15.421 C22.046,15.442 22.041,15.543 22.041,15.724 C22.041,16.002 22.056,16.391 22.081,16.892 C22.107,17.394 22.143,17.911 22.185,18.444 C22.227,18.892 22.265,19.306 22.297,19.684 C22.328,20.063 22.355,20.344 22.377,20.524 L22.377,20.652 C22.377,20.866 22.318,21.018 22.201,21.108 C22.084,21.199 21.939,21.245 21.769,21.245 C21.641,21.245 21.502,21.223 21.353,21.18 C21.203,21.137 21.064,21.085 20.938,21.02 C20.809,20.957 20.697,20.885 20.602,20.804 C20.505,20.724 20.441,20.647 20.408,20.572 C20.377,20.509 20.348,20.378 20.32,20.18 C20.294,19.983 20.268,19.746 20.24,19.469 C20.214,19.191 20.188,18.892 20.161,18.572 C20.134,18.253 20.113,17.935 20.097,17.621 C20.081,17.306 20.065,17.01 20.049,16.732 C20.033,16.455 20.019,16.226 20.009,16.045 L20.009,15.9 C19.998,15.74 19.99,15.484 19.985,15.133 C19.979,14.78 19.974,14.375 19.969,13.917 C19.963,13.458 19.958,12.978 19.953,12.476 C19.947,11.975 19.945,11.501 19.945,11.053 L19.945,9.82 C19.945,9.469 19.956,9.234 19.977,9.116" fill="#7B3927"/>
      <path d="M15.294,8.319 C15.294,8.49 15.27,8.607 15.222,8.671 C15.174,8.735 15.112,8.772 15.038,8.783 C14.92,8.794 14.795,8.761 14.662,8.687 C14.528,8.612 14.409,8.553 14.302,8.51 C13.854,8.35 13.478,8.382 13.174,8.607 C12.87,8.831 12.622,9.145 12.43,9.55 C12.249,9.924 12.086,10.45 11.942,11.127 C11.798,11.804 11.694,12.538 11.63,13.327 C11.577,13.988 11.568,14.649 11.606,15.311 C11.643,15.972 11.742,16.569 11.902,17.103 C12.062,17.636 12.292,18.074 12.59,18.415 C12.889,18.757 13.273,18.932 13.742,18.943 C14.094,18.954 14.411,18.868 14.694,18.687 C14.977,18.506 15.23,18.265 15.454,17.966 C15.678,17.669 15.87,17.327 16.03,16.943 C16.19,16.558 16.326,16.173 16.438,15.783 C16.55,15.393 16.638,15.014 16.702,14.647 C16.766,14.279 16.814,13.966 16.846,13.711 C16.92,13.049 16.95,12.396 16.934,11.751 C16.918,11.105 16.846,10.53 16.718,10.023 C16.59,9.516 16.409,9.105 16.174,8.791 C15.94,8.476 15.646,8.319 15.294,8.319 M13.022,7.423 C13.278,7.21 13.55,7.074 13.838,7.014 C14.126,6.957 14.419,6.954 14.718,7.007 C15.475,7.134 16.11,7.421 16.622,7.863 C17.134,8.305 17.537,8.846 17.83,9.487 C18.123,10.127 18.313,10.831 18.398,11.598 C18.483,12.367 18.483,13.14 18.398,13.919 C18.345,14.345 18.259,14.797 18.142,15.271 C18.024,15.746 17.867,16.213 17.67,16.671 C17.473,17.13 17.238,17.564 16.966,17.974 C16.694,18.385 16.384,18.74 16.038,19.039 C15.691,19.338 15.307,19.564 14.886,19.718 C14.464,19.874 14.003,19.919 13.502,19.855 C12.745,19.758 12.112,19.513 11.606,19.119 C11.099,18.724 10.691,18.231 10.382,17.638 C10.073,17.047 9.857,16.388 9.734,15.663 C9.611,14.937 9.561,14.207 9.582,13.47 C9.603,12.607 9.71,11.775 9.902,10.974 C10.094,10.174 10.36,9.492 10.702,8.926 C10.904,8.596 11.142,8.316 11.414,8.087 C11.686,7.857 12.008,7.711 12.382,7.647 C12.521,7.626 12.632,7.607 12.718,7.59 C12.803,7.575 12.904,7.519 13.022,7.423" fill="#FFFFFF"/>
      <path d="M19.311,8.559 L19.311,8.247 C19.311,8.115 19.316,7.973 19.326,7.824 C19.337,7.674 19.353,7.528 19.375,7.383 C19.396,7.24 19.433,7.115 19.486,7.007 C19.572,6.805 19.715,6.704 19.919,6.704 C20.003,6.704 20.095,6.719 20.19,6.751 C20.436,6.847 20.631,7.029 20.774,7.295 C20.919,7.562 21.028,7.874 21.103,8.232 C21.177,8.589 21.226,8.975 21.247,9.391 C21.269,9.807 21.278,10.213 21.278,10.608 L21.278,11.423 C21.278,11.787 21.286,12.085 21.302,12.32 C21.319,12.554 21.364,12.677 21.438,12.688 C21.684,12.378 21.908,12.077 22.11,11.784 C22.312,11.491 22.521,11.183 22.735,10.864 C22.958,10.533 23.159,10.21 23.335,9.896 C23.51,9.58 23.679,9.272 23.839,8.967 C23.999,8.663 24.159,8.365 24.319,8.072 C24.479,7.778 24.649,7.477 24.83,7.167 C24.948,6.975 25.108,6.879 25.311,6.879 C25.429,6.879 25.537,6.907 25.639,6.959 C25.74,7.013 25.839,7.082 25.934,7.167 C25.955,7.21 25.967,7.253 25.967,7.295 C25.967,7.445 25.908,7.656 25.791,7.927 C25.673,8.2 25.524,8.496 25.343,8.816 C25.193,9.093 25.03,9.375 24.854,9.663 C24.679,9.952 24.51,10.218 24.351,10.463 C24.19,10.709 24.047,10.925 23.919,11.112 C23.791,11.298 23.705,11.423 23.663,11.488 C23.375,11.872 23.095,12.24 22.823,12.591 C22.551,12.944 22.308,13.247 22.095,13.503 C21.944,13.685 21.87,13.818 21.87,13.904 L21.87,13.952 C21.87,13.962 21.919,14.015 22.014,14.112 C22.11,14.207 22.235,14.328 22.391,14.471 C22.545,14.616 22.719,14.778 22.911,14.959 C23.103,15.141 23.3,15.323 23.503,15.503 C23.642,15.642 23.849,15.877 24.127,16.207 C24.404,16.538 24.691,16.901 24.991,17.295 C25.29,17.69 25.575,18.085 25.847,18.48 C26.118,18.874 26.329,19.205 26.479,19.471 C26.562,19.663 26.606,19.807 26.606,19.904 C26.458,20.042 26.264,20.112 26.03,20.112 C25.764,20.112 25.551,20.026 25.391,19.856 L24.59,18.944 C24.42,18.751 24.276,18.538 24.159,18.303 C24.042,18.069 23.919,17.829 23.791,17.583 C23.663,17.338 23.521,17.087 23.366,16.831 C23.212,16.576 23.017,16.335 22.781,16.112 C22.462,15.802 22.172,15.528 21.911,15.288 C21.649,15.047 21.476,14.907 21.391,14.864 C21.38,14.885 21.375,14.986 21.375,15.167 C21.375,15.445 21.388,15.834 21.415,16.335 C21.441,16.837 21.476,17.354 21.519,17.887 C21.561,18.335 21.599,18.749 21.631,19.127 C21.663,19.506 21.689,19.787 21.711,19.967 L21.711,20.095 C21.711,20.309 21.651,20.461 21.534,20.551 C21.417,20.642 21.273,20.688 21.103,20.688 C20.975,20.688 20.836,20.666 20.686,20.623 C20.537,20.58 20.399,20.528 20.27,20.463 C20.142,20.4 20.031,20.328 19.934,20.247 C19.839,20.167 19.774,20.09 19.743,20.015 C19.711,19.952 19.681,19.821 19.655,19.623 C19.628,19.426 19.602,19.189 19.575,18.912 C19.548,18.634 19.521,18.335 19.495,18.015 C19.468,17.696 19.447,17.378 19.431,17.064 C19.415,16.749 19.399,16.453 19.382,16.175 C19.367,15.898 19.353,15.669 19.343,15.488 L19.343,15.343 C19.332,15.183 19.323,14.927 19.319,14.576 C19.312,14.223 19.308,13.818 19.302,13.36 C19.297,12.901 19.292,12.421 19.287,11.919 C19.281,11.418 19.279,10.944 19.279,10.496 L19.279,9.263 C19.279,8.912 19.29,8.677 19.311,8.559" fill="#FFFFFF"/>
    </g>
  </g>
</svg>
