<?xml version="1.0" encoding="UTF-8"?>
<!DOCTYPE svg PUBLIC "-//W3C//DTD SVG 1.1//EN" "http://www.w3.org/Graphics/SVG/1.1/DTD/svg11.dtd">
<svg version="1.1" xmlns="http://www.w3.org/2000/svg" xmlns:xlink="http://www.w3.org/1999/xlink" x="0" y="0" width="62.167" height="27.667" viewBox="0, 0, 62.167, 27.667">
  <defs>
    <linearGradient id="Gradient_1" gradientUnits="userSpaceOnUse" x1="31.083" y1="27.667" x2="31.083" y2="0">
      <stop offset="0" stop-color="#7A3827"/>
      <stop offset="1" stop-color="#91522C"/>
    </linearGradient>
    <clipPath id="Clip_1">
      <path d="M5.669,0 C2.538,0 0,2.538 0,5.669 L0,5.669 L0,21.998 C0,25.129 2.538,27.667 5.669,27.667 L5.669,27.667 L56.497,27.667 C59.629,27.667 62.167,25.129 62.167,21.998 L62.167,21.998 L62.167,5.669 C62.167,2.538 59.629,0 56.497,0 L56.497,0 z"/>
    </clipPath>
  </defs>
  <g id="Layer_1">
    <g clip-path="url(#Clip_1)">
      <path d="M56.497,0 C59.807,0.126 61.848,2.508 62.167,5.664 L62.167,22.003 C62.039,25.315 59.652,27.349 56.497,27.667 L5.669,27.667 C2.538,27.667 -0,25.129 -0,21.998 L-0,5.669 C-0,2.538 2.538,0 5.669,0 L56.497,0 z" fill="url(#Gradient_1)"/>
    </g>
    <g>
      <path d="M10.329,8.229 C10.18,8.08 10.105,7.936 10.105,7.796 C10.105,7.595 10.259,7.46 10.569,7.398 C10.697,7.365 10.889,7.348 11.145,7.348 C11.326,7.339 11.537,7.332 11.777,7.332 L12.537,7.332 C12.771,7.332 13.006,7.335 13.241,7.34 C13.475,7.346 13.7,7.354 13.913,7.365 C14.126,7.375 14.324,7.391 14.505,7.413 C14.686,7.434 14.841,7.46 14.969,7.493 C15.065,7.515 15.163,7.589 15.265,7.716 C15.366,7.845 15.417,7.999 15.417,8.181 C15.417,8.319 15.379,8.464 15.305,8.613 C15.006,9.583 14.721,10.542 14.449,11.486 C14.177,12.429 13.902,13.391 13.625,14.373 C13.593,14.479 13.545,14.653 13.481,14.892 C13.417,15.132 13.342,15.41 13.257,15.724 C13.171,16.041 13.081,16.374 12.985,16.725 C12.889,17.077 12.795,17.417 12.705,17.742 C12.614,18.066 12.529,18.359 12.449,18.622 C12.369,18.882 12.302,19.083 12.249,19.22 C12.27,19.22 12.297,19.223 12.329,19.229 C12.361,19.234 12.393,19.237 12.425,19.237 C12.606,19.237 12.828,19.22 13.089,19.19 C13.35,19.157 13.62,19.14 13.897,19.14 C14.1,19.14 14.308,19.157 14.521,19.19 C14.766,19.243 14.953,19.326 15.081,19.437 C15.209,19.549 15.273,19.668 15.273,19.796 C15.273,19.914 15.222,20.021 15.121,20.118 C15.019,20.212 14.862,20.288 14.649,20.34 L12.265,20.42 C12.147,20.431 12.003,20.448 11.833,20.469 C11.662,20.49 11.486,20.5 11.305,20.5 C11.209,20.5 11.116,20.497 11.025,20.486 C10.934,20.475 10.851,20.458 10.777,20.437 C10.691,20.417 10.62,20.386 10.561,20.348 C10.502,20.312 10.462,20.25 10.441,20.166 C10.217,20.101 10.105,19.983 10.105,19.813 L10.105,19.781 C10.105,19.653 10.14,19.52 10.209,19.381 C10.278,19.243 10.329,19.115 10.361,18.997 C10.67,17.92 10.982,16.872 11.297,15.852 C11.611,14.835 11.902,13.872 12.169,12.964 C12.382,12.26 12.579,11.559 12.761,10.861 C12.942,10.163 13.15,9.471 13.385,8.79 C13.428,8.682 13.449,8.602 13.449,8.549 C13.449,8.453 13.395,8.389 13.289,8.358 L13.241,8.358 L13.193,8.358 L13.145,8.358 L13.097,8.358 L13.049,8.358 L13.001,8.358 L12.953,8.358 L12.905,8.358 L12.857,8.358 C12.771,8.346 12.694,8.339 12.625,8.332 C12.556,8.328 12.489,8.325 12.425,8.325 C12.265,8.325 12.1,8.33 11.929,8.34 C11.758,8.351 11.582,8.368 11.401,8.389 C11.326,8.399 11.254,8.408 11.185,8.413 C11.116,8.418 11.038,8.42 10.953,8.42 C10.825,8.42 10.705,8.408 10.593,8.38 C10.481,8.354 10.393,8.304 10.329,8.229" fill="#7B3927"/>
      <path d="M20.329,10.293 C20.308,9.76 20.23,9.336 20.097,9.021 C19.963,8.706 19.801,8.485 19.609,8.357 C19.417,8.229 19.209,8.184 18.985,8.221 C18.761,8.259 18.547,8.359 18.345,8.525 C18.142,8.69 17.958,8.909 17.793,9.181 C17.627,9.453 17.513,9.755 17.449,10.085 C17.417,10.16 17.388,10.307 17.361,10.525 C17.334,10.744 17.313,10.997 17.297,11.285 C17.281,11.573 17.27,11.874 17.265,12.189 C17.26,12.504 17.257,12.8 17.257,13.077 C17.257,13.355 17.26,13.587 17.265,13.773 C17.27,13.96 17.278,14.069 17.289,14.101 C17.353,14.261 17.505,14.365 17.745,14.413 C17.985,14.461 18.249,14.485 18.537,14.485 C18.825,14.485 19.1,14.472 19.361,14.445 C19.622,14.419 19.806,14.405 19.913,14.405 C20.052,14.405 20.161,14.402 20.241,14.397 C20.321,14.392 20.377,14.37 20.409,14.333 C20.441,14.296 20.459,14.234 20.465,14.149 C20.47,14.064 20.468,13.946 20.457,13.797 C20.435,13.392 20.433,12.986 20.449,12.581 C20.465,12.176 20.457,11.786 20.425,11.413 C20.404,11.231 20.385,11.037 20.369,10.829 C20.353,10.621 20.339,10.442 20.329,10.293 M17.401,15.269 C17.379,15.472 17.377,15.658 17.393,15.829 C17.409,16 17.428,16.187 17.449,16.389 C17.459,16.538 17.468,16.76 17.473,17.053 C17.478,17.347 17.486,17.661 17.497,17.997 C17.508,18.333 17.513,18.653 17.513,18.957 L17.513,19.653 C17.502,19.856 17.454,19.992 17.369,20.061 C17.284,20.131 17.187,20.157 17.081,20.141 C16.974,20.125 16.87,20.08 16.769,20.005 C16.667,19.931 16.596,19.856 16.553,19.781 C16.489,19.664 16.435,19.373 16.393,18.909 C16.35,18.445 16.313,17.898 16.281,17.269 C16.26,16.821 16.241,16.352 16.225,15.861 C16.209,15.37 16.196,14.901 16.185,14.453 C16.174,14.005 16.163,13.6 16.153,13.237 C16.142,12.874 16.131,12.592 16.121,12.389 C16.1,12.08 16.105,11.738 16.137,11.365 C16.169,10.992 16.23,10.621 16.321,10.253 C16.412,9.885 16.534,9.53 16.689,9.189 C16.844,8.848 17.027,8.549 17.241,8.293 C17.614,7.855 18.006,7.52 18.417,7.285 C18.828,7.051 19.331,6.992 19.929,7.109 C20.185,7.162 20.396,7.229 20.562,7.309 C20.729,7.389 20.903,7.52 21.086,7.701 C21.355,7.979 21.573,8.29 21.74,8.637 C21.906,8.983 22.033,9.341 22.119,9.709 C22.204,10.077 22.266,10.447 22.304,10.821 C22.342,11.194 22.366,11.547 22.377,11.877 C22.377,11.983 22.379,12.191 22.385,12.501 C22.39,12.811 22.398,13.144 22.409,13.501 C22.419,13.858 22.428,14.2 22.433,14.525 C22.438,14.851 22.441,15.082 22.441,15.221 L22.457,19.413 C22.457,19.669 22.454,19.832 22.449,19.901 C22.443,19.971 22.441,20.021 22.441,20.053 C22.441,20.085 22.443,20.136 22.449,20.205 C22.454,20.274 22.468,20.427 22.489,20.661 C22.51,20.778 22.513,20.853 22.497,20.885 C22.481,20.917 22.462,20.976 22.44,21.061 C22.419,21.093 22.349,21.139 22.231,21.197 C22.113,21.256 21.975,21.293 21.82,21.309 C21.664,21.325 21.5,21.312 21.328,21.269 C21.156,21.227 21.005,21.119 20.876,20.949 C20.812,20.863 20.771,20.805 20.755,20.773 C20.739,20.741 20.721,20.666 20.699,20.549 L20.441,16.133 C20.452,15.931 20.452,15.786 20.441,15.701 C20.43,15.616 20.43,15.53 20.441,15.445 C19.875,15.445 19.358,15.435 18.889,15.413 C18.419,15.392 17.923,15.344 17.401,15.269" fill="#7B3927"/>
      <path d="M29.225,12.949 C29.001,12.949 28.828,12.901 28.705,12.804 C28.582,12.709 28.521,12.602 28.521,12.485 C28.521,12.314 28.622,12.18 28.825,12.085 C28.942,12.032 29.134,12 29.401,11.989 C29.667,11.978 29.945,11.972 30.233,11.972 L31.209,11.972 L31.577,11.972 L31.609,11.972 C31.747,11.972 31.857,11.994 31.937,12.037 C32.017,12.08 32.076,12.136 32.113,12.205 C32.15,12.274 32.174,12.357 32.185,12.453 C32.195,12.549 32.206,12.65 32.217,12.757 L32.217,12.837 C32.227,12.975 32.235,13.12 32.241,13.268 C32.246,13.419 32.249,13.584 32.249,13.764 C32.249,14.128 32.233,14.516 32.201,14.932 C32.158,15.476 32.07,16.037 31.937,16.613 C31.804,17.189 31.603,17.72 31.337,18.205 C31.07,18.69 30.724,19.098 30.297,19.428 C29.87,19.76 29.342,19.952 28.713,20.005 C28.66,20.015 28.601,20.02 28.537,20.02 L28.361,20.02 C27.764,20.02 27.22,19.925 26.729,19.733 C25.982,19.445 25.377,19.074 24.913,18.621 C24.449,18.168 24.086,17.65 23.825,17.069 C23.563,16.487 23.382,15.85 23.281,15.157 C23.18,14.464 23.123,13.733 23.113,12.965 L23.113,12.693 C23.113,11.829 23.193,11.02 23.353,10.268 C23.513,9.516 23.785,8.847 24.169,8.261 C24.574,7.642 25.086,7.165 25.705,6.829 C26.324,6.493 26.996,6.325 27.721,6.325 C27.987,6.325 28.23,6.354 28.449,6.413 C28.667,6.471 28.849,6.544 28.993,6.629 C29.137,6.715 29.249,6.804 29.329,6.901 C29.409,6.997 29.449,7.082 29.449,7.157 C29.449,7.306 29.321,7.381 29.065,7.381 C28.905,7.381 28.707,7.348 28.473,7.285 C28.249,7.22 28.036,7.189 27.833,7.189 C27.331,7.189 26.915,7.362 26.585,7.709 C26.254,8.055 25.977,8.485 25.753,8.997 C25.614,9.306 25.505,9.636 25.425,9.989 C25.345,10.341 25.281,10.69 25.233,11.037 C25.185,11.384 25.153,11.717 25.137,12.037 C25.121,12.357 25.113,12.644 25.113,12.901 L25.113,13.157 C25.123,13.595 25.15,14.082 25.193,14.621 C25.235,15.16 25.324,15.687 25.457,16.205 C25.59,16.722 25.787,17.194 26.049,17.621 C26.31,18.048 26.67,18.362 27.129,18.565 C27.534,18.735 27.913,18.821 28.265,18.821 L28.425,18.821 C28.478,18.821 28.532,18.815 28.585,18.804 C28.915,18.752 29.211,18.621 29.473,18.413 C29.734,18.205 29.961,17.954 30.153,17.661 C30.345,17.368 30.499,17.04 30.617,16.677 C30.734,16.314 30.814,15.946 30.857,15.573 C30.889,15.306 30.932,15.003 30.985,14.661 C31.038,14.319 31.065,13.989 31.065,13.669 C31.065,13.541 31.059,13.419 31.049,13.301 C31.038,13.183 31.017,13.071 30.985,12.965 C30.846,12.923 30.66,12.901 30.425,12.901 C30.244,12.901 30.057,12.909 29.865,12.925 C29.673,12.941 29.497,12.949 29.337,12.949 z" fill="#7B3927"/>
      <path d="M34.889,13.013 C34.986,13.056 35.104,13.077 35.243,13.077 C35.414,13.077 35.586,13.034 35.758,12.95 C35.93,12.864 36.091,12.749 36.242,12.606 C36.392,12.461 36.532,12.293 36.66,12.101 C36.789,11.909 36.902,11.701 36.998,11.477 C37.117,11.201 37.202,10.917 37.256,10.629 C37.309,10.341 37.336,10.064 37.336,9.797 C37.336,9.456 37.299,9.173 37.224,8.95 C37.106,8.587 36.948,8.326 36.748,8.165 C36.55,8.005 36.344,7.925 36.129,7.925 C35.881,7.936 35.646,8.034 35.42,8.221 C35.195,8.409 35.029,8.672 34.921,9.013 C34.9,9.067 34.883,9.179 34.873,9.349 C34.862,9.52 34.852,9.723 34.84,9.957 C34.83,10.192 34.822,10.446 34.817,10.717 C34.811,10.99 34.809,11.253 34.809,11.509 C34.809,11.872 34.814,12.195 34.825,12.477 C34.835,12.76 34.857,12.939 34.889,13.013 M39.737,20.709 C39.587,20.816 39.407,20.869 39.193,20.869 C38.969,20.869 38.744,20.808 38.521,20.685 C38.297,20.563 38.125,20.4 38.008,20.198 C37.689,19.728 37.43,19.267 37.233,18.814 C37.035,18.36 36.851,17.896 36.68,17.421 C36.51,16.947 36.32,16.453 36.11,15.942 C35.9,15.429 35.627,14.88 35.293,14.293 C35.153,14.187 35.05,14.133 34.986,14.133 C34.932,14.133 34.894,14.176 34.872,14.261 C34.872,14.325 34.878,14.504 34.889,14.797 C34.901,15.091 34.912,15.437 34.924,15.837 C34.935,16.238 34.95,16.659 34.966,17.101 C34.983,17.544 35,17.957 35.017,18.341 C35.034,18.725 35.048,19.045 35.059,19.301 C35.071,19.557 35.082,19.691 35.094,19.701 C35.127,19.797 35.145,19.883 35.145,19.957 C35.145,20.139 35.08,20.285 34.952,20.398 C34.825,20.509 34.67,20.581 34.489,20.614 C34.456,20.624 34.422,20.629 34.385,20.629 L34.281,20.629 C34.003,20.629 33.743,20.555 33.496,20.406 C33.251,20.256 33.129,20.033 33.129,19.734 L33.129,19.621 L33.129,19.318 C33.129,18.997 33.123,18.651 33.113,18.278 C33.102,17.904 33.091,17.517 33.08,17.117 C33.07,16.717 33.056,16.309 33.04,15.893 C33.025,15.477 33.011,15.067 33.001,14.661 C32.969,13.349 32.952,12.011 32.952,10.645 L32.952,9.749 C32.952,9.44 32.995,9.112 33.08,8.765 C33.166,8.419 33.293,8.107 33.465,7.829 C33.561,7.68 33.694,7.541 33.865,7.413 C34.035,7.285 34.217,7.176 34.409,7.085 C34.6,6.994 34.797,6.923 35,6.869 C35.203,6.816 35.395,6.789 35.576,6.789 L35.609,6.789 C36.131,6.8 36.595,6.896 37,7.077 C37.407,7.259 37.746,7.496 38.025,7.789 C38.302,8.082 38.512,8.416 38.657,8.789 C38.801,9.162 38.883,9.547 38.905,9.942 L38.905,10.261 C38.905,11.201 38.697,11.954 38.281,12.526 C37.865,13.096 37.203,13.536 36.297,13.845 C36.755,14.496 37.15,15.099 37.481,15.654 C37.811,16.208 38.11,16.736 38.377,17.238 C38.643,17.739 38.886,18.224 39.105,18.694 C39.323,19.162 39.549,19.637 39.785,20.117 L39.785,20.15 L39.785,20.181 L39.785,20.229 L39.785,20.278 C39.785,20.309 39.787,20.344 39.793,20.381 C39.797,20.419 39.801,20.453 39.801,20.486 C39.801,20.592 39.78,20.666 39.737,20.709" fill="#7B3927"/>
      <path d="M44.713,10.293 C44.692,9.76 44.613,9.336 44.481,9.021 C44.347,8.706 44.185,8.485 43.992,8.357 C43.801,8.229 43.592,8.184 43.368,8.221 C43.145,8.259 42.931,8.359 42.729,8.525 C42.525,8.69 42.342,8.909 42.176,9.181 C42.011,9.453 41.897,9.755 41.832,10.085 C41.801,10.16 41.772,10.307 41.744,10.525 C41.718,10.744 41.696,10.997 41.68,11.285 C41.664,11.573 41.654,11.874 41.649,12.189 C41.643,12.504 41.641,12.8 41.641,13.077 C41.641,13.355 41.643,13.587 41.649,13.773 C41.654,13.96 41.662,14.069 41.672,14.101 C41.736,14.261 41.889,14.365 42.129,14.413 C42.368,14.461 42.633,14.485 42.92,14.485 C43.209,14.485 43.483,14.472 43.744,14.445 C44.006,14.419 44.19,14.405 44.297,14.405 C44.436,14.405 44.545,14.402 44.625,14.397 C44.705,14.392 44.76,14.37 44.793,14.333 C44.824,14.296 44.843,14.234 44.848,14.149 C44.854,14.064 44.852,13.946 44.84,13.797 C44.818,13.392 44.817,12.986 44.832,12.581 C44.848,12.176 44.84,11.786 44.809,11.413 C44.787,11.231 44.769,11.037 44.752,10.829 C44.736,10.621 44.723,10.442 44.713,10.293 M41.784,15.269 C41.763,15.472 41.76,15.658 41.776,15.829 C41.793,16 41.811,16.187 41.832,16.389 C41.843,16.538 41.852,16.76 41.857,17.053 C41.861,17.347 41.869,17.661 41.881,17.997 C41.891,18.333 41.897,18.653 41.897,18.957 L41.897,19.653 C41.886,19.856 41.838,19.992 41.752,20.061 C41.667,20.131 41.57,20.157 41.465,20.141 C41.358,20.125 41.254,20.08 41.152,20.005 C41.051,19.931 40.979,19.856 40.937,19.781 C40.873,19.664 40.818,19.373 40.776,18.909 C40.734,18.445 40.696,17.898 40.664,17.269 C40.643,16.821 40.625,16.352 40.609,15.861 C40.592,15.37 40.579,14.901 40.568,14.453 C40.558,14.005 40.547,13.6 40.537,13.237 C40.526,12.874 40.515,12.592 40.504,12.389 C40.483,12.08 40.488,11.738 40.521,11.365 C40.553,10.992 40.613,10.621 40.705,10.253 C40.795,9.885 40.918,9.53 41.072,9.189 C41.227,8.848 41.41,8.549 41.625,8.293 C41.998,7.855 42.39,7.52 42.801,7.285 C43.211,7.051 43.715,6.992 44.313,7.109 C44.568,7.162 44.779,7.229 44.945,7.309 C45.112,7.389 45.287,7.52 45.47,7.701 C45.738,7.979 45.957,8.29 46.123,8.637 C46.289,8.983 46.416,9.341 46.502,9.709 C46.588,10.077 46.65,10.447 46.688,10.821 C46.725,11.194 46.75,11.547 46.76,11.877 C46.76,11.983 46.763,12.191 46.769,12.501 C46.774,12.811 46.781,13.144 46.793,13.501 C46.803,13.858 46.811,14.2 46.817,14.525 C46.822,14.851 46.824,15.082 46.824,15.221 L46.84,19.413 C46.84,19.669 46.838,19.832 46.832,19.901 C46.826,19.971 46.824,20.021 46.824,20.053 C46.824,20.085 46.826,20.136 46.832,20.205 C46.838,20.274 46.852,20.427 46.873,20.661 C46.894,20.778 46.897,20.853 46.881,20.885 C46.864,20.917 46.846,20.976 46.824,21.061 C46.803,21.093 46.733,21.139 46.614,21.197 C46.496,21.256 46.359,21.293 46.203,21.309 C46.047,21.325 45.883,21.312 45.711,21.269 C45.539,21.227 45.389,21.119 45.26,20.949 C45.195,20.863 45.154,20.805 45.139,20.773 C45.123,20.741 45.104,20.666 45.082,20.549 L44.824,16.133 C44.835,15.931 44.835,15.786 44.824,15.701 C44.814,15.616 44.814,15.53 44.824,15.445 C44.259,15.445 43.742,15.435 43.273,15.413 C42.803,15.392 42.307,15.344 41.784,15.269" fill="#7B3927"/>
      <path d="M48.633,7.157 C48.675,7.136 48.797,7.106 49,7.069 C49.203,7.032 49.451,6.994 49.744,6.957 C50.037,6.92 50.356,6.887 50.696,6.861 C51.037,6.835 51.368,6.821 51.689,6.821 C52.008,6.821 52.293,6.832 52.545,6.852 C52.795,6.874 52.974,6.917 53.08,6.981 C53.262,7.077 53.406,7.231 53.512,7.445 C53.619,7.658 53.701,7.887 53.76,8.133 C53.819,8.379 53.864,8.629 53.897,8.885 C53.928,9.14 53.955,9.365 53.977,9.556 C54.051,10.251 54.11,10.909 54.153,11.533 C54.195,12.157 54.2,12.77 54.168,13.373 C54.137,13.975 54.062,14.581 53.945,15.189 C53.826,15.797 53.646,16.431 53.401,17.093 C53.251,17.476 53.083,17.85 52.897,18.213 C52.709,18.576 52.488,18.909 52.233,19.213 C51.977,19.516 51.689,19.786 51.368,20.02 C51.049,20.256 50.692,20.427 50.297,20.533 C49.699,20.704 49.195,20.755 48.784,20.684 C48.373,20.616 48.062,20.507 47.848,20.357 C47.625,20.176 47.539,19.992 47.592,19.804 C47.646,19.618 47.881,19.514 48.297,19.493 C48.446,19.493 48.612,19.485 48.793,19.469 C48.974,19.453 49.162,19.419 49.361,19.365 C49.558,19.311 49.76,19.228 49.969,19.117 C50.176,19.005 50.381,18.852 50.584,18.661 C50.894,18.362 51.15,18.011 51.353,17.605 C51.555,17.2 51.726,16.757 51.864,16.277 C52.057,15.605 52.176,14.88 52.225,14.1 C52.273,13.322 52.285,12.552 52.264,11.789 C52.242,11.026 52.205,10.299 52.153,9.605 C52.099,8.912 52.062,8.308 52.041,7.797 C51.955,7.797 51.787,7.813 51.536,7.844 C51.285,7.877 51.003,7.901 50.689,7.917 C50.373,7.932 50.059,7.935 49.744,7.925 C49.43,7.914 49.166,7.866 48.952,7.781 C48.621,7.642 48.51,7.434 48.616,7.157 z" fill="#7B3927"/>
      <path d="M9.163,8.061 C9.014,7.913 8.939,7.768 8.939,7.629 C8.939,7.427 9.093,7.293 9.403,7.23 C9.531,7.198 9.723,7.181 9.979,7.181 C10.16,7.171 10.371,7.165 10.611,7.165 L11.371,7.165 C11.605,7.165 11.84,7.168 12.075,7.173 C12.309,7.179 12.534,7.187 12.747,7.198 C12.96,7.208 13.158,7.224 13.339,7.246 C13.52,7.267 13.675,7.293 13.803,7.326 C13.899,7.347 13.997,7.421 14.099,7.549 C14.2,7.677 14.251,7.832 14.251,8.013 C14.251,8.153 14.213,8.296 14.139,8.446 C13.84,9.417 13.555,10.374 13.283,11.318 C13.011,12.261 12.736,13.224 12.459,14.207 C12.427,14.312 12.379,14.486 12.315,14.726 C12.251,14.965 12.176,15.243 12.091,15.557 C12.005,15.873 11.915,16.206 11.819,16.557 C11.723,16.91 11.629,17.25 11.539,17.574 C11.448,17.899 11.363,18.192 11.283,18.455 C11.203,18.715 11.136,18.916 11.083,19.053 C11.104,19.053 11.131,19.056 11.163,19.062 C11.195,19.067 11.227,19.07 11.259,19.07 C11.44,19.07 11.662,19.053 11.923,19.022 C12.184,18.99 12.454,18.973 12.731,18.973 C12.934,18.973 13.142,18.99 13.355,19.022 C13.6,19.076 13.787,19.159 13.915,19.269 C14.043,19.382 14.107,19.501 14.107,19.629 C14.107,19.747 14.056,19.854 13.955,19.951 C13.853,20.045 13.696,20.122 13.483,20.174 L11.099,20.253 C10.981,20.264 10.837,20.281 10.667,20.302 C10.496,20.323 10.32,20.333 10.139,20.333 C10.043,20.333 9.95,20.33 9.859,20.319 C9.768,20.307 9.685,20.291 9.611,20.269 C9.525,20.25 9.454,20.219 9.395,20.181 C9.336,20.144 9.296,20.083 9.275,19.998 C9.051,19.934 8.939,19.816 8.939,19.646 L8.939,19.615 C8.939,19.486 8.974,19.352 9.043,19.213 C9.112,19.076 9.163,18.948 9.195,18.83 C9.504,17.753 9.816,16.705 10.131,15.686 C10.445,14.667 10.736,13.705 11.003,12.797 C11.216,12.094 11.413,11.392 11.595,10.694 C11.776,9.995 11.984,9.304 12.219,8.622 C12.262,8.516 12.283,8.436 12.283,8.381 C12.283,8.286 12.229,8.221 12.123,8.19 L12.075,8.19 L12.027,8.19 L11.979,8.19 L11.931,8.19 L11.883,8.19 L11.835,8.19 L11.787,8.19 L11.739,8.19 L11.691,8.19 C11.605,8.179 11.528,8.171 11.459,8.165 C11.39,8.161 11.323,8.158 11.259,8.158 C11.099,8.158 10.934,8.163 10.763,8.174 C10.592,8.184 10.416,8.201 10.235,8.221 C10.16,8.233 10.088,8.241 10.019,8.247 C9.95,8.252 9.872,8.253 9.787,8.253 C9.659,8.253 9.539,8.241 9.427,8.214 C9.315,8.188 9.227,8.136 9.163,8.061" fill="#FFFFFF"/>
      <path d="M19.163,10.126 C19.142,9.593 19.064,9.169 18.931,8.854 C18.797,8.539 18.635,8.318 18.443,8.19 C18.251,8.062 18.043,8.017 17.819,8.054 C17.595,8.092 17.381,8.192 17.179,8.358 C16.976,8.523 16.792,8.742 16.627,9.014 C16.461,9.286 16.347,9.588 16.283,9.918 C16.251,9.993 16.222,10.14 16.195,10.358 C16.168,10.577 16.147,10.83 16.131,11.118 C16.115,11.406 16.104,11.707 16.099,12.022 C16.094,12.337 16.091,12.633 16.091,12.91 C16.091,13.188 16.094,13.42 16.099,13.606 C16.104,13.793 16.112,13.902 16.123,13.934 C16.187,14.094 16.339,14.198 16.579,14.246 C16.819,14.294 17.083,14.318 17.371,14.318 C17.659,14.318 17.934,14.305 18.195,14.278 C18.456,14.252 18.64,14.238 18.747,14.238 C18.886,14.238 18.995,14.235 19.075,14.23 C19.155,14.225 19.211,14.203 19.243,14.166 C19.275,14.129 19.293,14.067 19.299,13.982 C19.304,13.897 19.302,13.779 19.291,13.63 C19.269,13.225 19.267,12.819 19.283,12.414 C19.299,12.009 19.291,11.619 19.259,11.246 C19.238,11.064 19.219,10.87 19.203,10.662 C19.187,10.454 19.173,10.275 19.163,10.126 M16.235,15.102 C16.213,15.305 16.211,15.491 16.227,15.662 C16.243,15.833 16.262,16.02 16.283,16.222 C16.293,16.371 16.302,16.593 16.307,16.886 C16.312,17.18 16.32,17.494 16.331,17.83 C16.342,18.166 16.347,18.486 16.347,18.79 L16.347,19.486 C16.336,19.689 16.288,19.825 16.203,19.894 C16.118,19.964 16.021,19.99 15.915,19.974 C15.808,19.958 15.704,19.913 15.603,19.838 C15.501,19.764 15.43,19.689 15.387,19.614 C15.323,19.497 15.269,19.206 15.227,18.742 C15.184,18.278 15.147,17.731 15.115,17.102 C15.094,16.654 15.075,16.185 15.059,15.694 C15.043,15.203 15.03,14.734 15.019,14.286 C15.008,13.838 14.997,13.433 14.987,13.07 C14.976,12.707 14.965,12.425 14.955,12.222 C14.934,11.913 14.939,11.571 14.971,11.198 C15.003,10.825 15.064,10.454 15.155,10.086 C15.246,9.718 15.368,9.363 15.523,9.022 C15.678,8.681 15.861,8.382 16.075,8.126 C16.448,7.688 16.84,7.353 17.251,7.118 C17.662,6.884 18.165,6.825 18.763,6.942 C19.019,6.995 19.23,7.062 19.396,7.142 C19.563,7.222 19.737,7.353 19.92,7.534 C20.189,7.812 20.407,8.123 20.574,8.47 C20.74,8.816 20.867,9.174 20.953,9.542 C21.038,9.91 21.1,10.28 21.138,10.654 C21.176,11.027 21.2,11.38 21.211,11.71 C21.211,11.816 21.213,12.024 21.219,12.334 C21.224,12.644 21.232,12.977 21.243,13.334 C21.253,13.691 21.262,14.033 21.267,14.358 C21.272,14.684 21.275,14.915 21.275,15.054 L21.291,19.246 C21.291,19.502 21.288,19.665 21.283,19.734 C21.277,19.804 21.275,19.854 21.275,19.886 C21.275,19.918 21.277,19.969 21.283,20.038 C21.288,20.107 21.302,20.26 21.323,20.494 C21.344,20.611 21.347,20.686 21.331,20.718 C21.315,20.75 21.296,20.809 21.274,20.894 C21.253,20.926 21.183,20.972 21.065,21.03 C20.947,21.089 20.809,21.126 20.654,21.142 C20.498,21.158 20.334,21.145 20.162,21.102 C19.99,21.06 19.839,20.952 19.71,20.782 C19.646,20.696 19.605,20.638 19.589,20.606 C19.573,20.574 19.555,20.499 19.533,20.382 L19.275,15.966 C19.286,15.764 19.286,15.619 19.275,15.534 C19.264,15.449 19.264,15.363 19.275,15.278 C18.709,15.278 18.192,15.268 17.723,15.246 C17.253,15.225 16.757,15.177 16.235,15.102" fill="#FFFFFF"/>
      <path d="M28.059,12.782 C27.835,12.782 27.662,12.734 27.539,12.637 C27.416,12.542 27.355,12.435 27.355,12.318 C27.355,12.147 27.456,12.013 27.659,11.918 C27.776,11.865 27.968,11.833 28.235,11.822 C28.501,11.811 28.779,11.805 29.067,11.805 L30.043,11.805 L30.411,11.805 L30.443,11.805 C30.581,11.805 30.691,11.827 30.771,11.87 C30.851,11.913 30.91,11.969 30.947,12.038 C30.984,12.107 31.008,12.19 31.019,12.286 C31.029,12.382 31.04,12.483 31.051,12.59 L31.051,12.67 C31.061,12.808 31.069,12.953 31.075,13.101 C31.08,13.252 31.083,13.417 31.083,13.597 C31.083,13.961 31.067,14.349 31.035,14.765 C30.992,15.309 30.904,15.87 30.771,16.446 C30.638,17.022 30.437,17.553 30.171,18.038 C29.904,18.523 29.558,18.931 29.131,19.261 C28.704,19.593 28.176,19.785 27.547,19.838 C27.494,19.848 27.435,19.853 27.371,19.853 L27.195,19.853 C26.598,19.853 26.054,19.758 25.563,19.566 C24.816,19.278 24.211,18.907 23.747,18.454 C23.283,18.001 22.92,17.483 22.659,16.902 C22.397,16.32 22.216,15.683 22.115,14.99 C22.014,14.297 21.957,13.566 21.947,12.798 L21.947,12.526 C21.947,11.662 22.027,10.853 22.187,10.101 C22.347,9.349 22.619,8.68 23.003,8.094 C23.408,7.475 23.92,6.998 24.539,6.662 C25.158,6.326 25.83,6.158 26.555,6.158 C26.821,6.158 27.064,6.187 27.283,6.246 C27.501,6.304 27.683,6.377 27.827,6.462 C27.971,6.548 28.083,6.637 28.163,6.734 C28.243,6.83 28.283,6.915 28.283,6.99 C28.283,7.139 28.155,7.214 27.899,7.214 C27.739,7.214 27.541,7.181 27.307,7.118 C27.083,7.053 26.87,7.022 26.667,7.022 C26.165,7.022 25.749,7.195 25.419,7.542 C25.088,7.888 24.811,8.318 24.587,8.83 C24.448,9.139 24.339,9.469 24.259,9.822 C24.179,10.174 24.115,10.523 24.067,10.87 C24.019,11.217 23.987,11.55 23.971,11.87 C23.955,12.19 23.947,12.477 23.947,12.734 L23.947,12.99 C23.957,13.428 23.984,13.915 24.027,14.454 C24.069,14.993 24.158,15.52 24.291,16.038 C24.424,16.555 24.621,17.027 24.883,17.454 C25.144,17.881 25.504,18.195 25.963,18.398 C26.368,18.568 26.747,18.654 27.099,18.654 L27.259,18.654 C27.312,18.654 27.366,18.648 27.419,18.637 C27.749,18.585 28.045,18.454 28.307,18.246 C28.568,18.038 28.795,17.787 28.987,17.494 C29.179,17.201 29.333,16.873 29.451,16.51 C29.568,16.147 29.648,15.779 29.691,15.406 C29.723,15.139 29.766,14.836 29.819,14.494 C29.872,14.152 29.899,13.822 29.899,13.502 C29.899,13.374 29.893,13.252 29.883,13.134 C29.872,13.016 29.851,12.904 29.819,12.798 C29.68,12.756 29.494,12.734 29.259,12.734 C29.078,12.734 28.891,12.742 28.699,12.758 C28.507,12.774 28.331,12.782 28.171,12.782 z" fill="#FFFFFF"/>
      <path d="M33.723,12.846 C33.819,12.889 33.938,12.91 34.077,12.91 C34.248,12.91 34.42,12.867 34.592,12.783 C34.764,12.697 34.924,12.582 35.075,12.439 C35.225,12.294 35.366,12.126 35.494,11.934 C35.622,11.742 35.735,11.534 35.832,11.31 C35.95,11.034 36.036,10.75 36.09,10.462 C36.143,10.174 36.17,9.897 36.17,9.63 C36.17,9.289 36.132,9.006 36.057,8.783 C35.94,8.42 35.782,8.159 35.582,7.998 C35.383,7.838 35.177,7.758 34.962,7.758 C34.715,7.769 34.479,7.867 34.254,8.054 C34.028,8.242 33.862,8.505 33.754,8.846 C33.733,8.9 33.717,9.012 33.706,9.182 C33.696,9.353 33.685,9.556 33.674,9.79 C33.663,10.025 33.655,10.279 33.651,10.55 C33.645,10.823 33.642,11.086 33.642,11.342 C33.642,11.705 33.647,12.028 33.659,12.31 C33.668,12.593 33.69,12.772 33.723,12.846 M38.571,20.542 C38.42,20.649 38.24,20.702 38.026,20.702 C37.802,20.702 37.578,20.641 37.354,20.518 C37.13,20.396 36.959,20.233 36.842,20.031 C36.522,19.561 36.264,19.1 36.067,18.647 C35.869,18.193 35.684,17.729 35.514,17.254 C35.344,16.78 35.153,16.286 34.944,15.775 C34.733,15.262 34.461,14.713 34.127,14.126 C33.987,14.02 33.883,13.966 33.819,13.966 C33.766,13.966 33.727,14.009 33.705,14.094 C33.705,14.158 33.711,14.337 33.723,14.63 C33.735,14.924 33.745,15.27 33.757,15.67 C33.768,16.071 33.783,16.492 33.799,16.934 C33.817,17.377 33.834,17.79 33.85,18.174 C33.868,18.558 33.881,18.878 33.893,19.134 C33.905,19.39 33.915,19.524 33.927,19.534 C33.961,19.63 33.978,19.716 33.978,19.79 C33.978,19.972 33.914,20.118 33.785,20.231 C33.659,20.342 33.503,20.414 33.323,20.447 C33.289,20.457 33.255,20.462 33.218,20.462 L33.114,20.462 C32.837,20.462 32.576,20.388 32.33,20.239 C32.085,20.089 31.962,19.866 31.962,19.567 L31.962,19.454 L31.962,19.151 C31.962,18.83 31.956,18.484 31.946,18.111 C31.935,17.737 31.925,17.35 31.914,16.95 C31.903,16.55 31.89,16.142 31.874,15.726 C31.858,15.31 31.845,14.9 31.834,14.494 C31.802,13.182 31.786,11.844 31.786,10.478 L31.786,9.582 C31.786,9.273 31.828,8.945 31.914,8.598 C31.999,8.252 32.127,7.94 32.298,7.662 C32.394,7.513 32.527,7.374 32.698,7.246 C32.869,7.118 33.05,7.009 33.243,6.918 C33.434,6.827 33.631,6.756 33.834,6.702 C34.036,6.649 34.229,6.622 34.41,6.622 L34.442,6.622 C34.965,6.633 35.428,6.729 35.834,6.91 C36.24,7.092 36.58,7.329 36.858,7.622 C37.135,7.915 37.346,8.249 37.491,8.622 C37.634,8.995 37.717,9.38 37.739,9.775 L37.739,10.094 C37.739,11.034 37.53,11.787 37.114,12.359 C36.698,12.929 36.036,13.369 35.13,13.678 C35.588,14.329 35.983,14.932 36.315,15.487 C36.645,16.041 36.944,16.569 37.21,17.071 C37.477,17.572 37.719,18.057 37.938,18.527 C38.157,18.995 38.383,19.47 38.618,19.95 L38.618,19.983 L38.618,20.014 L38.618,20.062 L38.618,20.111 C38.618,20.142 38.62,20.177 38.626,20.214 C38.631,20.252 38.634,20.286 38.634,20.319 C38.634,20.425 38.613,20.499 38.571,20.542" fill="#FFFFFF"/>
      <path d="M43.546,10.126 C43.525,9.593 43.447,9.169 43.315,8.854 C43.18,8.539 43.018,8.318 42.826,8.19 C42.634,8.062 42.426,8.017 42.201,8.054 C41.979,8.092 41.764,8.192 41.563,8.358 C41.359,8.523 41.176,8.742 41.01,9.014 C40.844,9.286 40.731,9.588 40.666,9.918 C40.634,9.993 40.605,10.14 40.578,10.358 C40.551,10.577 40.529,10.83 40.514,11.118 C40.498,11.406 40.487,11.707 40.483,12.022 C40.477,12.337 40.474,12.633 40.474,12.91 C40.474,13.188 40.477,13.42 40.483,13.606 C40.487,13.793 40.495,13.902 40.506,13.934 C40.57,14.094 40.722,14.198 40.962,14.246 C41.201,14.294 41.466,14.318 41.754,14.318 C42.042,14.318 42.317,14.305 42.578,14.278 C42.84,14.252 43.024,14.238 43.13,14.238 C43.269,14.238 43.378,14.235 43.458,14.23 C43.538,14.225 43.594,14.203 43.626,14.166 C43.658,14.129 43.676,14.067 43.682,13.982 C43.688,13.897 43.685,13.779 43.674,13.63 C43.652,13.225 43.65,12.819 43.666,12.414 C43.682,12.009 43.674,11.619 43.643,11.246 C43.621,11.064 43.602,10.87 43.586,10.662 C43.57,10.454 43.557,10.275 43.546,10.126 M40.617,15.102 C40.596,15.305 40.594,15.491 40.609,15.662 C40.626,15.833 40.645,16.02 40.666,16.222 C40.676,16.371 40.685,16.593 40.69,16.886 C40.695,17.18 40.703,17.494 40.714,17.83 C40.725,18.166 40.731,18.486 40.731,18.79 L40.731,19.486 C40.719,19.689 40.671,19.825 40.586,19.894 C40.5,19.964 40.404,19.99 40.298,19.974 C40.192,19.958 40.087,19.913 39.986,19.838 C39.885,19.764 39.813,19.689 39.77,19.614 C39.706,19.497 39.652,19.206 39.609,18.742 C39.567,18.278 39.529,17.731 39.498,17.102 C39.477,16.654 39.458,16.185 39.442,15.694 C39.426,15.203 39.412,14.734 39.402,14.286 C39.391,13.838 39.381,13.433 39.37,13.07 C39.359,12.707 39.348,12.425 39.338,12.222 C39.317,11.913 39.322,11.571 39.354,11.198 C39.386,10.825 39.447,10.454 39.538,10.086 C39.629,9.718 39.751,9.363 39.906,9.022 C40.061,8.681 40.244,8.382 40.458,8.126 C40.831,7.688 41.223,7.353 41.634,7.118 C42.045,6.884 42.549,6.825 43.147,6.942 C43.402,6.995 43.613,7.062 43.779,7.142 C43.945,7.222 44.12,7.353 44.303,7.534 C44.572,7.812 44.79,8.123 44.957,8.47 C45.123,8.816 45.25,9.174 45.336,9.542 C45.422,9.91 45.483,10.28 45.522,10.654 C45.559,11.027 45.583,11.38 45.594,11.71 C45.594,11.816 45.596,12.024 45.602,12.334 C45.608,12.644 45.615,12.977 45.626,13.334 C45.637,13.691 45.645,14.033 45.65,14.358 C45.655,14.684 45.658,14.915 45.658,15.054 L45.674,19.246 C45.674,19.502 45.671,19.665 45.666,19.734 C45.66,19.804 45.658,19.854 45.658,19.886 C45.658,19.918 45.66,19.969 45.666,20.038 C45.671,20.107 45.685,20.26 45.706,20.494 C45.727,20.611 45.73,20.686 45.714,20.718 C45.697,20.75 45.679,20.809 45.657,20.894 C45.636,20.926 45.567,20.972 45.447,21.03 C45.33,21.089 45.192,21.126 45.037,21.142 C44.881,21.158 44.717,21.145 44.545,21.102 C44.373,21.06 44.223,20.952 44.094,20.782 C44.029,20.696 43.988,20.638 43.973,20.606 C43.956,20.574 43.938,20.499 43.916,20.382 L43.658,15.966 C43.668,15.764 43.668,15.619 43.658,15.534 C43.647,15.449 43.647,15.363 43.658,15.278 C43.092,15.278 42.575,15.268 42.106,15.246 C41.637,15.225 41.141,15.177 40.617,15.102" fill="#FFFFFF"/>
      <path d="M47.466,6.99 C47.508,6.969 47.631,6.939 47.834,6.902 C48.036,6.865 48.284,6.827 48.578,6.79 C48.871,6.753 49.189,6.72 49.529,6.694 C49.871,6.668 50.201,6.654 50.522,6.654 C50.842,6.654 51.127,6.665 51.378,6.685 C51.629,6.707 51.807,6.75 51.914,6.814 C52.096,6.91 52.239,7.064 52.346,7.278 C52.452,7.491 52.535,7.72 52.594,7.966 C52.653,8.212 52.697,8.462 52.731,8.718 C52.762,8.973 52.788,9.198 52.81,9.389 C52.885,10.084 52.944,10.742 52.987,11.366 C53.028,11.99 53.033,12.603 53.002,13.206 C52.97,13.808 52.895,14.414 52.778,15.022 C52.66,15.63 52.479,16.264 52.235,16.926 C52.084,17.309 51.916,17.683 51.731,18.046 C51.543,18.409 51.322,18.742 51.067,19.046 C50.81,19.349 50.522,19.619 50.201,19.853 C49.882,20.089 49.525,20.26 49.13,20.366 C48.532,20.537 48.028,20.588 47.617,20.517 C47.207,20.449 46.895,20.34 46.682,20.19 C46.458,20.009 46.372,19.825 46.426,19.637 C46.479,19.451 46.714,19.347 47.13,19.326 C47.279,19.326 47.445,19.318 47.626,19.302 C47.807,19.286 47.996,19.252 48.194,19.198 C48.391,19.144 48.594,19.061 48.802,18.95 C49.01,18.838 49.215,18.685 49.418,18.494 C49.727,18.195 49.983,17.844 50.186,17.438 C50.389,17.033 50.559,16.59 50.697,16.11 C50.89,15.438 51.01,14.713 51.058,13.933 C51.106,13.155 51.119,12.385 51.098,11.622 C51.076,10.859 51.039,10.132 50.987,9.438 C50.932,8.745 50.895,8.141 50.874,7.63 C50.788,7.63 50.62,7.646 50.369,7.677 C50.119,7.71 49.836,7.734 49.522,7.75 C49.207,7.765 48.893,7.768 48.578,7.758 C48.264,7.747 47.999,7.699 47.785,7.614 C47.455,7.475 47.344,7.267 47.449,6.99 z" fill="#FFFFFF"/>
    </g>
  </g>
</svg>
