<?xml version="1.0" encoding="UTF-8"?>
<!DOCTYPE svg PUBLIC "-//W3C//DTD SVG 1.1//EN" "http://www.w3.org/Graphics/SVG/1.1/DTD/svg11.dtd">
<svg version="1.1" xmlns="http://www.w3.org/2000/svg" xmlns:xlink="http://www.w3.org/1999/xlink" x="0" y="0" width="40.835" height="41.511" viewBox="0, 0, 40.835, 41.511">
  <defs>
    <clipPath id="Clip_1">
      <path d="M0,0 L40.835,0 L40.835,41.511 L0,41.511 z"/>
    </clipPath>
  </defs>
  <g id="Layer_1">
    <g clip-path="url(#Clip_1)">
      <path d="M20.782,10.451 L20.372,10.451 L20.372,5.519 L20.782,5.519 z M20.155,10.45 L19.745,10.45 L19.745,5.518 L20.155,5.518 z M23.164,7.673 C23.011,6.078 21.613,4.895 20.015,5.008 C18.415,5.119 17.196,6.484 17.266,8.085 C17.335,9.686 18.667,10.941 20.27,10.915 L20.583,10.892 C22.174,10.696 23.318,9.268 23.164,7.673" fill="#9A6E38"/>
      <path d="M7.435,11.83 L19.947,2.974 L33.427,11.762 z M30.562,29.177 L30.562,22.203 C30.562,20.979 32.347,20.923 32.326,22.203 L32.347,29.177 z M29.133,32.242 L28.445,32.242 L25.861,32.242 L25.172,32.242 L25.172,30.949 L25.861,30.949 L25.861,14.667 L25.162,14.667 L25.162,13.376 L25.861,13.376 L28.445,13.376 L29.122,13.376 L29.122,14.667 L28.445,14.667 L28.445,30.949 L29.133,30.949 z M22.259,23.32 L22.259,16.345 C22.259,15.122 24.044,15.064 24.022,16.345 L24.044,23.32 z M19.277,22.203 L19.277,15.227 C19.277,14.005 21.061,13.948 21.039,15.227 L21.061,22.203 z M16.29,23.32 L16.29,16.345 C16.29,15.122 18.076,15.064 18.054,16.345 L18.076,23.32 z M22.75,31.394 L17.799,31.402 L17.756,24.406 L22.75,24.406 z M15.356,32.177 L14.572,32.177 L11.989,32.177 L11.395,32.177 L11.395,30.884 L11.989,30.884 L11.989,14.682 L11.308,14.682 L11.308,13.39 L11.989,13.39 L14.572,13.39 L15.27,13.39 L15.27,14.682 L14.572,14.682 L14.572,30.884 L15.356,30.884 z M8.949,29.201 L8.949,22.226 C8.949,21.003 10.734,20.945 10.712,22.226 L10.734,29.201 z M40.827,33.769 L40.154,33.765 L40.158,33.025 L39.331,33.005 L39.339,32.306 L38.61,32.306 L38.61,31.023 L38.097,31.023 L38.097,14.749 L38.621,14.749 L38.621,13.457 L38.556,13.457 L38.556,13.453 L40.336,13.448 L19.706,-0 L0.56,13.553 L2.595,13.548 L2.595,14.816 L3.091,14.816 L3.091,31.025 L2.584,31.025 L2.584,32.312 L1.355,32.312 L1.362,33.013 L0.615,33.033 L0.617,33.771 L0.007,33.777 L-0,34.81 L33.919,34.81 L33.919,34.802 L40.835,34.802 z" fill="#9A6E38"/>
      <path d="M32.939,13.413 C32.888,15.358 32.58,17.237 31.537,18.923 C31.02,19.761 30.399,20.502 29.134,20.838 C30.156,17.979 30.354,15.277 30.228,12.548 C30.191,11.745 30.51,11.568 31.225,11.598 C33.085,11.674 32.998,11.197 32.939,13.413 M8.569,18.923 C7.527,17.237 7.22,15.358 7.169,13.413 C7.109,11.197 7.021,11.674 8.882,11.598 C9.595,11.568 9.916,11.745 9.878,12.548 C9.752,15.277 9.953,17.979 10.974,20.838 C9.708,20.502 9.087,19.761 8.569,18.923 M34.825,8.91 C33.577,8.846 32.323,8.893 31.075,8.857 C30.799,8.849 30.5,8.802 30.427,8.588 C30.277,8.145 30.295,7.391 30.306,6.702 C30.319,5.866 31.034,6.153 31.562,6.023 C31.562,5.711 31.559,5.335 31.562,4.96 C31.562,3.538 31.562,3.536 30.187,3.536 C26.854,3.535 23.521,3.536 20.188,3.536 L20.052,3.536 L19.919,3.536 C16.586,3.536 13.253,3.535 9.92,3.536 C8.543,3.536 8.543,3.538 8.543,4.96 C8.545,5.335 8.543,5.711 8.543,6.023 C9.071,6.153 9.788,5.866 9.8,6.702 C9.81,7.391 9.831,8.145 9.679,8.588 C9.607,8.802 9.307,8.849 9.034,8.857 C7.784,8.893 6.528,8.846 5.281,8.91 C5.019,8.924 4.552,9.289 4.558,9.481 C4.624,11.913 4.603,14.361 4.922,16.764 C5.201,18.855 6.202,20.725 7.808,22.185 C8.898,23.178 10.156,23.702 11.666,23.617 C11.964,23.601 12.401,23.812 12.569,24.059 C13.814,25.867 15.335,27.332 17.339,28.287 C17.604,28.413 17.858,28.84 17.884,29.146 C17.958,30.008 17.924,30.879 17.9,31.745 C17.892,31.983 17.844,32.328 17.684,32.441 C16.156,33.539 15.311,35.017 15.189,36.978 C14.493,36.978 13.887,36.995 13.285,36.974 C12.747,36.955 12.542,37.187 12.559,37.721 C12.585,38.49 12.607,39.265 12.55,40.029 C12.493,40.802 12.792,41.016 13.543,41.012 C15.712,40.997 17.882,40.994 20.052,40.994 C22.225,40.994 24.393,40.997 26.563,41.012 C27.313,41.016 27.614,40.802 27.556,40.029 C27.502,39.265 27.521,38.49 27.548,37.721 C27.566,37.187 27.361,36.955 26.823,36.974 C26.219,36.995 25.615,36.978 24.919,36.978 C24.794,35.017 23.951,33.539 22.423,32.441 C22.264,32.328 22.215,31.983 22.208,31.745 C22.181,30.879 22.149,30.008 22.222,29.146 C22.249,28.84 22.5,28.413 22.767,28.287 C24.771,27.332 26.292,25.867 27.538,24.059 C27.707,23.812 28.142,23.601 28.443,23.617 C29.951,23.702 31.209,23.178 32.299,22.185 C33.904,20.725 34.907,18.855 35.187,16.764 C35.504,14.361 35.484,11.913 35.549,9.481 C35.554,9.289 35.089,8.924 34.825,8.91" fill="#9A6E38"/>
      <path d="M32.939,13.413 C32.888,15.358 32.58,17.237 31.537,18.923 C31.02,19.761 30.399,20.502 29.134,20.838 C30.156,17.979 30.354,15.277 30.228,12.548 C30.191,11.745 30.51,11.568 31.225,11.598 C33.085,11.674 32.998,11.197 32.939,13.413 z M8.569,18.923 C7.527,17.237 7.22,15.358 7.169,13.413 C7.109,11.197 7.021,11.674 8.882,11.598 C9.595,11.568 9.916,11.745 9.878,12.548 C9.752,15.277 9.953,17.979 10.974,20.838 C9.708,20.502 9.087,19.761 8.569,18.923 z M34.825,8.91 C33.577,8.846 32.323,8.893 31.075,8.857 C30.799,8.849 30.5,8.802 30.427,8.588 C30.277,8.145 30.295,7.391 30.306,6.702 C30.319,5.866 31.034,6.153 31.562,6.023 C31.562,5.711 31.559,5.335 31.562,4.96 C31.562,3.538 31.562,3.536 30.187,3.536 C26.854,3.535 23.521,3.536 20.188,3.536 L20.052,3.536 L19.919,3.536 C16.586,3.536 13.253,3.535 9.92,3.536 C8.543,3.536 8.543,3.538 8.543,4.96 C8.545,5.335 8.543,5.711 8.543,6.023 C9.071,6.153 9.788,5.866 9.8,6.702 C9.81,7.391 9.831,8.145 9.679,8.588 C9.607,8.802 9.307,8.849 9.034,8.857 C7.784,8.893 6.528,8.846 5.281,8.91 C5.019,8.924 4.552,9.289 4.558,9.481 C4.624,11.913 4.603,14.361 4.922,16.764 C5.201,18.855 6.202,20.725 7.808,22.185 C8.898,23.178 10.156,23.702 11.666,23.617 C11.964,23.601 12.401,23.812 12.569,24.059 C13.814,25.867 15.335,27.332 17.339,28.287 C17.604,28.413 17.858,28.84 17.884,29.146 C17.958,30.008 17.924,30.879 17.9,31.745 C17.892,31.983 17.844,32.328 17.684,32.441 C16.156,33.539 15.311,35.017 15.189,36.978 C14.493,36.978 13.887,36.995 13.285,36.974 C12.747,36.955 12.542,37.187 12.559,37.721 C12.585,38.49 12.607,39.265 12.55,40.029 C12.493,40.802 12.792,41.016 13.543,41.012 C15.712,40.997 17.882,40.994 20.052,40.994 C22.225,40.994 24.393,40.997 26.563,41.012 C27.313,41.016 27.614,40.802 27.556,40.029 C27.502,39.265 27.521,38.49 27.548,37.721 C27.566,37.187 27.361,36.955 26.823,36.974 C26.219,36.995 25.615,36.978 24.919,36.978 C24.794,35.017 23.951,33.539 22.423,32.441 C22.264,32.328 22.215,31.983 22.208,31.745 C22.181,30.879 22.149,30.008 22.222,29.146 C22.249,28.84 22.5,28.413 22.767,28.287 C24.771,27.332 26.292,25.867 27.538,24.059 C27.707,23.812 28.142,23.601 28.443,23.617 C29.951,23.702 31.209,23.178 32.299,22.185 C33.904,20.725 34.907,18.855 35.187,16.764 C35.504,14.361 35.484,11.913 35.549,9.481 C35.554,9.289 35.089,8.924 34.825,8.91 z" fill-opacity="0" stroke="#FDF5E0" stroke-width="1"/>
    </g>
    <text transform="matrix(1, 0, -0, 1, 20.249, 15.894)">
      <tspan x="-5.438" y="3" font-family="Love*Monster" font-size="14.503" kerning="-0.276" fill="#FDF5E0">5</tspan>
      <tspan x="-0.305" y="3" font-family="Love*Monster" font-size="14.503" kerning="0" fill="#FDF5E0">0</tspan>
    </text>
  </g>
</svg>
