<?xml version="1.0" encoding="UTF-8"?>
<!DOCTYPE svg PUBLIC "-//W3C//DTD SVG 1.1//EN" "http://www.w3.org/Graphics/SVG/1.1/DTD/svg11.dtd">
<svg version="1.1" xmlns="http://www.w3.org/2000/svg" xmlns:xlink="http://www.w3.org/1999/xlink" x="0" y="0" width="34.338" height="49.511" viewBox="0, 0, 34.338, 49.511">
  <defs>
    <clipPath id="Clip_1">
      <path d="M-0,0 L34.338,0 L34.338,49.511 L-0,49.511 z"/>
    </clipPath>
  </defs>
  <g id="Layer_1">
    <g clip-path="url(#Clip_1)">
      <path d="M13.184,13.696 C13.185,13.694 13.186,13.692 13.187,13.691 C13.186,13.693 13.184,13.696 13.181,13.698 C13.181,13.697 13.183,13.697 13.184,13.696" fill="#9A6E38"/>
      <path d="M12.598,12.356 C12.6,12.367 12.602,12.377 12.604,12.39 C12.656,12.675 12.723,12.943 12.793,13.164 C12.796,13.121 12.816,12.959 12.83,12.871 C12.786,12.72 12.734,12.582 12.679,12.481 C12.66,12.447 12.631,12.402 12.598,12.356" fill="#9A6E38"/>
      <path d="M12.85,15.98 C12.854,15.979 12.86,15.978 12.865,15.978 L12.865,15.973 C12.86,15.974 12.854,15.975 12.85,15.976 z" fill="#9A6E38"/>
      <path d="M25.669,10.993 C25.672,10.991 25.672,10.99 25.674,10.988 C25.672,10.99 25.669,10.993 25.668,10.995 C25.668,10.994 25.669,10.994 25.669,10.993" fill="#9A6E38"/>
      <path d="M25.336,13.276 C25.341,13.275 25.347,13.274 25.351,13.273 L25.351,13.27 C25.347,13.27 25.341,13.271 25.336,13.273 z" fill="#9A6E38"/>
      <path d="M27.588,14.888 C27.438,15.604 26.783,16.084 25.647,16.316 C25.6,16.325 25.559,16.332 25.521,16.338 C25.524,16.342 25.525,16.344 25.527,16.347 C25.542,16.379 25.58,16.411 25.623,16.436 L25.703,16.482 L25.626,16.482 C25.57,16.482 25.533,16.472 25.496,16.449 C25.489,16.443 25.484,16.438 25.479,16.434 C25.481,16.497 25.489,16.577 25.499,16.618 C25.512,16.662 25.516,16.699 25.509,16.699 C25.504,16.699 25.481,16.68 25.459,16.659 C25.435,16.635 25.409,16.59 25.387,16.534 C25.361,16.639 25.244,16.881 25.244,16.83 C25.244,16.823 25.254,16.783 25.266,16.741 C25.283,16.683 25.289,16.623 25.288,16.567 C25.281,16.581 25.27,16.591 25.246,16.605 C25.184,16.643 25.169,16.643 25.19,16.605 C25.197,16.59 25.205,16.553 25.205,16.524 C25.205,16.508 25.209,16.492 25.213,16.478 C25.172,16.503 25.123,16.524 25.096,16.524 C25.074,16.525 25.076,16.519 25.106,16.489 C25.125,16.469 25.154,16.417 25.17,16.374 C25.175,16.361 25.181,16.348 25.186,16.338 C25.105,16.326 25.007,16.312 24.936,16.296 C23.944,16.081 23.311,15.644 23.116,15.038 C23.06,14.862 23.038,14.488 23.074,14.299 C23.166,13.812 23.379,13.44 23.817,12.998 C24.277,12.534 24.611,12.086 24.858,11.595 C24.969,11.373 24.983,11.336 24.99,11.181 C25,11.038 24.993,10.992 24.955,10.906 C24.93,10.848 24.912,10.798 24.917,10.794 C24.92,10.791 24.935,10.799 24.956,10.811 C24.895,10.688 24.804,10.577 24.729,10.537 C24.703,10.525 24.649,10.509 24.606,10.503 C24.543,10.492 24.557,10.491 24.673,10.494 C24.841,10.498 24.914,10.528 24.99,10.618 C24.996,10.625 25,10.633 25.006,10.64 C24.986,10.492 24.956,10.322 24.923,10.168 C24.854,9.856 24.781,9.645 24.66,9.416 C24.596,9.294 24.551,9.228 24.494,9.17 C24.455,9.131 24.446,9.117 24.458,9.117 C24.467,9.117 24.56,9.211 24.609,9.272 C24.856,9.568 25.032,9.903 25.124,10.239 C25.108,10.152 25.087,10.065 25.067,10 C25.025,9.863 25.018,9.805 25.02,9.669 C25.02,9.628 25.022,9.595 25.022,9.567 C24.99,9.524 24.959,9.486 24.93,9.452 C24.859,9.371 24.852,9.362 24.855,9.359 C24.86,9.354 24.937,9.42 24.993,9.476 C25.004,9.488 25.014,9.499 25.025,9.511 C25.031,9.442 25.045,9.457 25.066,9.555 C25.311,9.828 25.462,10.138 25.518,10.474 C25.52,10.488 25.521,10.508 25.522,10.53 C25.527,10.516 25.531,10.504 25.535,10.49 C25.542,10.37 25.545,10.132 25.537,10.08 C25.531,10.043 25.531,10.03 25.539,9.984 C25.551,9.918 25.58,9.822 25.606,9.763 C25.641,9.681 25.742,9.523 25.786,9.483 C25.823,9.449 25.82,9.481 25.762,9.723 C25.707,9.942 25.683,10.067 25.668,10.197 C25.85,9.878 26.123,9.584 26.459,9.355 C26.524,9.311 26.639,9.245 26.648,9.247 C26.659,9.251 26.648,9.261 26.598,9.288 C26.527,9.329 26.465,9.379 26.369,9.481 C26.193,9.668 26.065,9.849 25.914,10.132 C25.877,10.197 25.843,10.267 25.809,10.337 C25.806,10.384 25.799,10.453 25.79,10.492 C25.784,10.519 25.775,10.581 25.764,10.616 C25.754,10.642 25.736,10.693 25.713,10.748 C25.736,10.718 25.76,10.693 25.788,10.674 C25.884,10.607 25.965,10.599 26.127,10.641 C26.24,10.67 26.252,10.676 26.19,10.666 C26.147,10.663 26.09,10.664 26.063,10.668 C25.981,10.685 25.873,10.766 25.783,10.863 C25.805,10.842 25.824,10.827 25.838,10.829 C25.845,10.827 25.852,10.823 25.858,10.823 C25.892,10.823 25.877,10.882 25.799,11.071 C25.682,11.355 25.682,11.354 25.826,11.628 C26.122,12.18 26.399,12.552 26.869,13.02 C27.06,13.21 27.147,13.311 27.231,13.436 C27.549,13.911 27.68,14.441 27.588,14.888 M15.101,17.593 C14.952,18.306 14.298,18.788 13.162,19.018 C13.113,19.028 13.072,19.036 13.035,19.042 C13.037,19.046 13.039,19.048 13.04,19.051 C13.056,19.082 13.095,19.116 13.138,19.14 L13.217,19.186 L13.14,19.187 C13.083,19.187 13.047,19.176 13.01,19.152 C13.004,19.147 12.998,19.143 12.993,19.139 C12.994,19.2 13.003,19.282 13.014,19.323 C13.026,19.367 13.03,19.402 13.023,19.402 C13.017,19.402 12.994,19.385 12.972,19.363 C12.948,19.338 12.924,19.293 12.902,19.239 C12.875,19.343 12.757,19.583 12.757,19.535 C12.757,19.526 12.767,19.485 12.78,19.445 C12.796,19.387 12.804,19.327 12.802,19.27 C12.796,19.284 12.783,19.294 12.76,19.308 C12.699,19.346 12.683,19.346 12.703,19.309 C12.712,19.293 12.717,19.256 12.717,19.228 C12.717,19.211 12.721,19.197 12.727,19.182 C12.687,19.207 12.637,19.228 12.61,19.228 C12.588,19.228 12.589,19.222 12.621,19.193 C12.639,19.173 12.669,19.121 12.684,19.078 C12.689,19.064 12.693,19.052 12.699,19.041 C12.619,19.03 12.52,19.016 12.449,19 C11.458,18.785 10.824,18.346 10.63,17.741 C10.572,17.565 10.551,17.191 10.588,17.001 C10.679,16.516 10.892,16.144 11.331,15.702 C11.793,15.238 12.125,14.789 12.373,14.299 C12.484,14.077 12.496,14.04 12.505,13.884 C12.513,13.742 12.508,13.696 12.468,13.61 C12.443,13.553 12.427,13.502 12.432,13.499 C12.434,13.495 12.449,13.502 12.471,13.514 C12.408,13.392 12.318,13.281 12.242,13.242 C12.217,13.229 12.161,13.211 12.12,13.205 C12.058,13.196 12.07,13.195 12.187,13.198 C12.354,13.201 12.429,13.233 12.504,13.322 C12.51,13.329 12.514,13.337 12.52,13.344 C12.499,13.197 12.469,13.026 12.436,12.872 C12.368,12.559 12.294,12.349 12.175,12.121 C12.109,11.998 12.065,11.932 12.008,11.873 C11.968,11.834 11.959,11.822 11.971,11.822 C11.981,11.822 12.073,11.915 12.123,11.977 C12.369,12.272 12.547,12.606 12.638,12.942 C12.621,12.856 12.602,12.769 12.582,12.704 C12.539,12.565 12.532,12.51 12.533,12.373 C12.534,12.332 12.534,12.299 12.536,12.27 C12.504,12.228 12.473,12.188 12.444,12.155 C12.374,12.075 12.366,12.066 12.369,12.064 C12.375,12.058 12.451,12.123 12.507,12.18 C12.519,12.192 12.527,12.203 12.538,12.215 C12.545,12.146 12.558,12.161 12.579,12.258 C12.823,12.532 12.975,12.841 13.031,13.179 C13.033,13.192 13.035,13.211 13.037,13.234 C13.04,13.22 13.044,13.207 13.048,13.195 C13.056,13.075 13.058,12.835 13.05,12.784 C13.046,12.747 13.046,12.735 13.054,12.687 C13.065,12.622 13.093,12.525 13.119,12.466 C13.153,12.385 13.256,12.226 13.299,12.187 C13.337,12.152 13.333,12.185 13.275,12.425 C13.221,12.646 13.196,12.771 13.183,12.902 C13.364,12.581 13.637,12.288 13.973,12.059 C14.039,12.014 14.153,11.949 14.161,11.951 C14.172,11.955 14.161,11.964 14.111,11.992 C14.041,12.032 13.98,12.084 13.884,12.185 C13.706,12.371 13.579,12.554 13.427,12.835 C13.392,12.902 13.357,12.971 13.323,13.04 C13.32,13.087 13.314,13.157 13.303,13.196 C13.298,13.222 13.288,13.285 13.277,13.319 C13.268,13.346 13.25,13.395 13.226,13.451 C13.25,13.422 13.274,13.397 13.301,13.378 C13.399,13.311 13.478,13.303 13.64,13.344 C13.754,13.374 13.766,13.379 13.704,13.372 C13.661,13.367 13.604,13.368 13.575,13.372 C13.495,13.389 13.389,13.47 13.298,13.565 C13.319,13.546 13.339,13.531 13.352,13.533 C13.358,13.531 13.366,13.526 13.371,13.526 C13.405,13.526 13.392,13.586 13.314,13.775 C13.196,14.06 13.196,14.056 13.341,14.33 C13.635,14.885 13.913,15.254 14.382,15.724 C14.574,15.914 14.661,16.015 14.744,16.14 C15.063,16.616 15.193,17.146 15.101,17.593 M18.066,27.02 C22.112,26.894 22.546,22.518 22.54,22.546 L22.904,22.833 C22.915,25.346 22.615,32.449 22.577,34.043 C21.923,40.231 22.084,42.93 19.205,49.054 L22.864,48.971 C22.899,49.38 24.168,40.585 24.349,35.295 C24.525,29.905 24.338,28.7 24.203,24.251 C24.221,24.266 24.239,24.282 24.258,24.296 C24.856,24.736 26.222,24.841 28.334,23.058 C28.867,22.608 28.699,20.659 28.765,20.132 L29.109,20.058 C29.453,20.172 30.059,20.411 30.953,20.148 C30.737,20.491 30.47,20.819 30.135,21.159 C29.697,21.6 29.483,21.972 29.392,22.458 C29.356,22.648 29.377,23.022 29.434,23.198 C29.629,23.804 30.262,24.242 31.252,24.457 C31.324,24.472 31.423,24.488 31.504,24.498 C31.498,24.509 31.492,24.52 31.488,24.534 C31.471,24.576 31.443,24.629 31.424,24.648 C31.393,24.68 31.391,24.685 31.412,24.685 C31.442,24.685 31.49,24.662 31.529,24.638 C31.526,24.652 31.522,24.667 31.522,24.685 C31.522,24.713 31.515,24.749 31.506,24.765 C31.487,24.802 31.502,24.802 31.563,24.764 C31.586,24.751 31.6,24.74 31.606,24.727 C31.608,24.784 31.601,24.843 31.584,24.9 C31.57,24.942 31.561,24.982 31.561,24.991 C31.561,25.04 31.679,24.8 31.706,24.696 C31.727,24.75 31.752,24.795 31.775,24.819 C31.798,24.841 31.82,24.858 31.827,24.858 C31.834,24.858 31.83,24.822 31.817,24.778 C31.807,24.737 31.798,24.658 31.797,24.594 C31.802,24.6 31.808,24.604 31.815,24.608 C31.852,24.634 31.887,24.643 31.943,24.643 L32.022,24.642 L31.942,24.597 C31.899,24.573 31.859,24.538 31.844,24.508 C31.842,24.504 31.84,24.502 31.84,24.498 C31.875,24.492 31.918,24.485 31.965,24.475 C33.102,24.244 33.756,23.762 33.904,23.048 C33.996,22.602 33.867,22.072 33.547,21.596 C33.464,21.471 33.377,21.371 33.185,21.18 C32.716,20.71 32.438,20.34 32.143,19.787 C32.106,19.718 32.078,19.665 32.059,19.623 C32.192,19.537 32.325,19.443 32.467,19.338 C32.719,19.146 32.94,18.943 33.135,18.731 C35.715,15.924 33.49,11.55 32.521,11.255 C32.393,11.215 32.285,11.247 32.215,11.364 C32.209,11.374 32.205,11.379 32.204,11.38 C32.192,11.374 32.674,10.354 32.106,9.722 C32.066,9.676 32.02,9.632 31.967,9.592 C31.959,9.585 31.955,9.578 31.947,9.571 C31.942,9.563 31.932,9.556 31.926,9.548 C31.766,9.322 32.301,8.907 31.985,7.842 C31.848,7.373 31.605,7.08 31.387,6.899 C31.172,6.721 30.983,6.652 30.94,6.639 C30.936,6.637 30.932,6.637 30.932,6.637 C30.904,6.629 30.88,6.622 30.856,6.612 C30.496,6.455 30.433,5.822 30.143,5.413 C29.344,4.279 28.632,3.546 27.787,3.189 C26.943,2.831 25.969,2.852 24.643,3.228 C24.639,3.231 24.637,3.231 24.631,3.232 C24.56,3.254 24.488,3.276 24.416,3.302 C24.398,3.307 24.379,3.314 24.359,3.321 C24.285,3.347 24.213,3.374 24.143,3.404 C24.131,3.409 24.117,3.414 24.106,3.419 C24.037,3.449 23.971,3.476 23.905,3.509 C23.894,3.513 23.883,3.518 23.871,3.524 C23.795,3.56 23.721,3.596 23.648,3.635 C23.642,3.638 23.636,3.641 23.629,3.644 C23.317,3.809 23.027,3.993 22.779,4.175 C22.744,4.149 22.701,4.125 22.654,4.103 L22.652,4.103 C22.608,4.079 22.555,4.058 22.5,4.038 C22.165,3.92 21.695,3.853 21.311,3.835 C21.27,3.581 21.156,3.282 20.967,3.042 C20.967,3.039 20.966,3.038 20.965,3.035 C20.942,3.007 20.917,2.977 20.893,2.95 C20.893,2.95 20.891,2.95 20.891,2.949 C20.867,2.924 20.843,2.9 20.818,2.877 C20.814,2.873 20.809,2.868 20.805,2.865 C20.779,2.842 20.753,2.82 20.726,2.801 C20.721,2.796 20.717,2.793 20.711,2.788 C20.687,2.771 20.662,2.755 20.637,2.74 C20.631,2.736 20.626,2.732 20.619,2.729 C20.592,2.712 20.562,2.697 20.531,2.683 C20.524,2.679 20.515,2.675 20.508,2.672 C20.481,2.661 20.453,2.65 20.424,2.64 C20.419,2.639 20.413,2.637 20.408,2.636 C20.375,2.625 20.342,2.616 20.308,2.61 C20.298,2.607 20.289,2.607 20.277,2.604 C20.244,2.599 20.211,2.595 20.177,2.592 L20.168,2.592 L20.166,2.592 C20.124,2.589 20.08,2.59 20.036,2.592 C20.029,2.594 20.022,2.594 20.014,2.595 C19.97,2.598 19.924,2.605 19.875,2.614 C19.869,2.616 19.862,2.616 19.857,2.618 C19.806,2.629 19.754,2.642 19.702,2.659 C19.702,2.661 19.702,2.661 19.702,2.661 C19.413,2.757 19.086,2.956 18.72,3.298 C18.697,3.284 18.678,3.267 18.656,3.252 C18.183,2.89 18.081,1.954 17.422,1.176 C17.418,1.172 17.415,1.169 17.412,1.165 C17.374,1.12 17.333,1.077 17.292,1.034 C17.284,1.026 17.275,1.018 17.268,1.01 C17.23,0.971 17.188,0.933 17.147,0.895 C17.135,0.887 17.125,0.875 17.113,0.866 C17.072,0.83 17.028,0.793 16.983,0.76 C16.97,0.75 16.959,0.74 16.945,0.731 C16.897,0.696 16.844,0.66 16.792,0.626 C16.782,0.62 16.773,0.613 16.762,0.607 C16.632,0.525 16.49,0.449 16.332,0.381 C16.32,0.375 16.31,0.372 16.298,0.369 C16.232,0.34 16.162,0.312 16.09,0.286 C16.064,0.278 16.037,0.27 16.012,0.262 C15.952,0.242 15.891,0.222 15.826,0.204 C15.794,0.195 15.759,0.188 15.724,0.177 C15.664,0.164 15.602,0.148 15.539,0.135 C15.5,0.126 15.461,0.118 15.42,0.111 C15.356,0.099 15.289,0.088 15.223,0.078 C15.18,0.072 15.136,0.066 15.092,0.06 C15.022,0.051 14.949,0.043 14.875,0.036 C14.83,0.032 14.786,0.027 14.74,0.024 C14.656,0.018 14.57,0.014 14.483,0.01 C14.442,0.008 14.404,0.005 14.361,0.003 C14.229,-0 14.093,-0.001 13.952,0.001 C13.829,0.003 13.699,0.009 13.567,0.015 C13.525,0.018 13.484,0.019 13.442,0.021 L13.438,0.021 C13.13,0.042 12.802,0.072 12.449,0.118 C11.43,0.252 10.019,1.022 8.833,1.762 C8.138,2.195 7.622,1.824 6.544,3.013 C5.36,4.321 6.038,4.889 5.748,5.373 C5.137,6.39 4.839,6.913 4.906,7.709 C4.987,8.665 5.536,9.808 6.12,9.805 L5.423,10.524 C5.179,10.74 4.676,10.566 3.889,11.259 C2.971,12.068 3.001,11.952 2.837,12.344 C0.423,18.138 6.751,19.673 6.739,20.078 C6.665,22.542 8.871,22.337 8.671,22.405 C8.671,22.405 9.676,23.229 10.294,23.356 C10.868,23.473 11.712,23.21 12.126,22.607 C12.231,22.452 12.319,22.328 12.396,22.222 C12.309,22.577 12.303,23.038 12.527,23.582 C12.527,23.583 12.527,23.584 12.528,23.586 C12.532,23.591 12.534,23.597 12.536,23.603 C12.571,23.688 12.613,23.775 12.661,23.865 C12.847,24.21 13.092,24.676 13.469,25.145 C14.007,25.808 14.814,26.475 16.121,26.794 C16.388,26.86 17.08,26.939 17.535,27.017" fill="#9A6E38"/>
      <path d="M31.668,21.434 C31.662,21.435 31.657,21.435 31.652,21.435 L31.652,21.431 C31.657,21.431 31.662,21.431 31.668,21.43 z" fill="#9A6E38"/>
      <path d="M25.084,9.651 C25.087,9.663 25.088,9.673 25.092,9.686 C25.143,9.971 25.209,10.24 25.279,10.461 C25.282,10.418 25.303,10.255 25.316,10.166 C25.272,10.016 25.221,9.879 25.166,9.777 C25.146,9.742 25.117,9.698 25.084,9.651" fill="#9A6E38"/>
      <path d="M15.316,34.611 C15.288,35.643 15.126,36.641 14.572,37.536 C14.297,37.98 13.967,38.374 13.295,38.551 C13.839,37.034 13.944,35.6 13.877,34.151 C13.858,33.725 14.027,33.632 14.406,33.647 C15.394,33.688 15.348,33.434 15.316,34.611 M2.379,37.536 C1.826,36.641 1.664,35.643 1.636,34.611 C1.605,33.434 1.558,33.688 2.545,33.647 C2.925,33.632 3.094,33.725 3.075,34.151 C3.007,35.6 3.113,37.034 3.656,38.551 C2.984,38.374 2.654,37.98 2.379,37.536 M16.317,32.219 C15.655,32.186 14.989,32.212 14.326,32.192 C14.181,32.188 14.022,32.163 13.983,32.049 C13.903,31.815 13.914,31.414 13.919,31.048 C13.925,30.604 14.305,30.757 14.586,30.688 C14.586,30.522 14.585,30.323 14.586,30.124 C14.586,29.368 14.586,29.368 13.856,29.368 C12.086,29.367 10.316,29.368 8.547,29.368 L8.476,29.368 L8.404,29.368 C6.635,29.368 4.866,29.367 3.097,29.368 C2.366,29.368 2.366,29.368 2.366,30.124 C2.367,30.323 2.366,30.522 2.366,30.688 C2.647,30.757 3.026,30.604 3.033,31.048 C3.038,31.414 3.049,31.815 2.969,32.049 C2.93,32.163 2.771,32.188 2.627,32.192 C1.962,32.212 1.296,32.186 0.634,32.219 C0.495,32.227 0.247,32.422 0.25,32.524 C0.285,33.814 0.274,35.114 0.443,36.389 C0.591,37.499 1.123,38.492 1.976,39.268 C2.554,39.794 3.222,40.073 4.023,40.028 C4.182,40.018 4.413,40.132 4.503,40.262 C5.165,41.221 5.972,41.999 7.035,42.507 C7.176,42.573 7.311,42.799 7.324,42.963 C7.364,43.42 7.345,43.882 7.333,44.342 C7.329,44.468 7.302,44.651 7.218,44.712 C6.407,45.294 5.959,46.079 5.893,47.12 C5.524,47.12 5.203,47.129 4.883,47.118 C4.597,47.108 4.488,47.231 4.498,47.514 C4.511,47.923 4.523,48.333 4.493,48.739 C4.462,49.149 4.622,49.263 5.02,49.26 C6.172,49.253 7.324,49.252 8.476,49.252 C9.628,49.252 10.78,49.253 11.932,49.26 C12.33,49.263 12.489,49.149 12.459,48.739 C12.429,48.333 12.441,47.923 12.455,47.514 C12.464,47.231 12.355,47.108 12.069,47.118 C11.749,47.129 11.428,47.12 11.059,47.12 C10.993,46.079 10.545,45.294 9.734,44.712 C9.649,44.651 9.624,44.468 9.619,44.342 C9.606,43.882 9.588,43.42 9.628,42.963 C9.642,42.799 9.775,42.573 9.917,42.507 C10.98,41.999 11.788,41.221 12.449,40.262 C12.539,40.132 12.77,40.018 12.928,40.028 C13.73,40.073 14.398,39.794 14.976,39.268 C15.829,38.492 16.36,37.499 16.509,36.389 C16.678,35.114 16.667,33.814 16.702,32.524 C16.705,32.422 16.457,32.227 16.317,32.219" fill="#9A6E38"/>
      <path d="M15.316,34.611 C15.288,35.643 15.126,36.641 14.572,37.536 C14.297,37.98 13.967,38.374 13.295,38.551 C13.839,37.034 13.944,35.6 13.877,34.151 C13.858,33.725 14.027,33.632 14.406,33.647 C15.394,33.688 15.348,33.434 15.316,34.611 z M2.379,37.536 C1.826,36.641 1.664,35.643 1.636,34.611 C1.605,33.434 1.558,33.688 2.545,33.647 C2.925,33.632 3.094,33.725 3.075,34.151 C3.007,35.6 3.113,37.034 3.656,38.551 C2.984,38.374 2.654,37.98 2.379,37.536 z M16.317,32.219 C15.655,32.186 14.989,32.212 14.326,32.192 C14.181,32.188 14.022,32.163 13.983,32.049 C13.903,31.815 13.914,31.414 13.919,31.048 C13.925,30.604 14.305,30.757 14.586,30.688 C14.586,30.522 14.585,30.323 14.586,30.124 C14.586,29.368 14.586,29.368 13.856,29.368 C12.086,29.367 10.316,29.368 8.547,29.368 L8.476,29.368 L8.404,29.368 C6.635,29.368 4.866,29.367 3.097,29.368 C2.366,29.368 2.366,29.368 2.366,30.124 C2.367,30.323 2.366,30.522 2.366,30.688 C2.647,30.757 3.026,30.604 3.033,31.048 C3.038,31.414 3.049,31.815 2.969,32.049 C2.93,32.163 2.771,32.188 2.627,32.192 C1.962,32.212 1.296,32.186 0.634,32.219 C0.495,32.227 0.247,32.422 0.25,32.524 C0.285,33.814 0.274,35.114 0.443,36.389 C0.591,37.499 1.123,38.492 1.976,39.268 C2.554,39.794 3.222,40.073 4.023,40.028 C4.182,40.018 4.413,40.132 4.503,40.262 C5.165,41.221 5.972,41.999 7.035,42.507 C7.176,42.573 7.311,42.799 7.324,42.963 C7.364,43.42 7.345,43.882 7.333,44.342 C7.329,44.468 7.302,44.651 7.218,44.712 C6.407,45.294 5.959,46.079 5.893,47.12 C5.524,47.12 5.203,47.129 4.883,47.118 C4.597,47.108 4.488,47.231 4.498,47.514 C4.511,47.923 4.523,48.333 4.493,48.739 C4.462,49.149 4.622,49.263 5.02,49.26 C6.172,49.253 7.324,49.252 8.476,49.252 C9.628,49.252 10.78,49.253 11.932,49.26 C12.33,49.263 12.489,49.149 12.459,48.739 C12.429,48.333 12.441,47.923 12.455,47.514 C12.464,47.231 12.355,47.108 12.069,47.118 C11.749,47.129 11.428,47.12 11.059,47.12 C10.993,46.079 10.545,45.294 9.734,44.712 C9.649,44.651 9.624,44.468 9.619,44.342 C9.606,43.882 9.588,43.42 9.628,42.963 C9.642,42.799 9.775,42.573 9.917,42.507 C10.98,41.999 11.788,41.221 12.449,40.262 C12.539,40.132 12.77,40.018 12.928,40.028 C13.73,40.073 14.398,39.794 14.976,39.268 C15.829,38.492 16.36,37.499 16.509,36.389 C16.678,35.114 16.667,33.814 16.702,32.524 C16.705,32.422 16.457,32.227 16.317,32.219 z" fill-opacity="0" stroke="#FDF5E0" stroke-width="0.5"/>
    </g>
    <text transform="matrix(1, 0, -0, 1, 8.59, 36.022)">
      <tspan x="-2.887" y="1.5" font-family="Love*Monster" font-size="7.698" kerning="-0.146" fill="#FDF5E0">5</tspan>
      <tspan x="-0.162" y="1.5" font-family="Love*Monster" font-size="7.698" kerning="0" fill="#FDF5E0">0</tspan>
    </text>
  </g>
</svg>
