<?xml version="1.0" encoding="UTF-8"?>
<!DOCTYPE svg PUBLIC "-//W3C//DTD SVG 1.1//EN" "http://www.w3.org/Graphics/SVG/1.1/DTD/svg11.dtd">
<svg version="1.1" xmlns="http://www.w3.org/2000/svg" xmlns:xlink="http://www.w3.org/1999/xlink" x="0" y="0" width="48.337" height="54.304" viewBox="0, 0, 48.337, 54.304">
  <defs>
    <clipPath id="Clip_1">
      <path d="M-0,0 L48.337,0 L48.337,54.304 L-0,54.304 z"/>
    </clipPath>
  </defs>
  <g id="Layer_1">
    <g clip-path="url(#Clip_1)">
      <path d="M24.332,0.499 C24.469,0.188 24.524,-0 24.524,-0 C24.455,0.165 24.391,0.332 24.332,0.499" fill="#9A6E38"/>
      <path d="M24.332,0.499 C23.902,1.473 22.677,3.649 19.885,5 C18.056,5.884 15.163,5.483 13.336,8.719 C16.312,6.128 18.889,7.712 21.67,6.636 C23.561,4.683 23.594,2.564 24.332,0.499" fill="#9A6E38"/>
      <path d="M27.029,37.34 L28.576,37.34 L28.576,39.471 L27.029,39.471 z" fill="#9A6E38"/>
      <path d="M23.25,37.34 L24.598,37.34 L24.598,39.471 L23.25,39.471 z" fill="#9A6E38"/>
      <path d="M19.731,37.34 L20.904,37.34 L20.904,39.471 L19.731,39.471 z" fill="#9A6E38"/>
      <path d="M21.395,37.34 L22.759,37.34 L22.759,39.471 L21.395,39.471 z" fill="#9A6E38"/>
      <path d="M44.902,48.76 L40.887,48.76 L40.887,40.102 L44.902,40.102 z M36.644,34.948 L32.63,34.948 L32.63,26.289 L36.644,26.289 z M14.089,35.147 L10.075,35.147 L10.075,26.489 L14.089,26.489 z M13.883,45.194 L9.869,45.194 L9.869,36.536 L13.883,36.536 z M7.479,35.086 L3.465,35.086 L3.465,26.427 L7.479,26.427 z M35.456,18.9 L35.699,10.347 C34.417,9.984 33.188,10.014 31.727,10.277 L31.661,17.621 L30.216,17.134 L30.226,19.226 L30.23,19.227 L30.3,30.313 L23.703,25.414 L18.12,29.934 L18.12,25.842 L18.12,23.224 L15.574,22.366 L15.604,9.757 C14.146,9.477 12.917,9.433 11.631,9.781 L11.824,21.101 L-0,17.114 L0.01,19.207 L0.013,19.208 L0.218,51.313 L18.121,51.313 L18.121,51.293 L30.435,51.332 L48.337,51.332 L48.337,25.862 L48.337,23.245 z" fill="#9A6E38"/>
      <path d="M25.089,37.34 L26.536,37.34 L26.536,39.471 L25.089,39.471 z" fill="#9A6E38"/>
      <path d="M17.978,29.932 L18.269,29.936 L17.935,51.315 L17.645,51.311 z" fill="#9A6E38"/>
      <path d="M39,21.517 C38.938,23.792 38.578,25.991 37.359,27.962 C36.754,28.942 36.028,29.809 34.548,30.204 C35.743,26.859 35.977,23.698 35.827,20.504 C35.785,19.565 36.158,19.358 36.993,19.393 C39.171,19.483 39.068,18.925 39,21.517 M10.49,27.962 C9.271,25.991 8.911,23.792 8.851,21.517 C8.781,18.925 8.677,19.483 10.854,19.393 C11.691,19.358 12.064,19.565 12.022,20.504 C11.873,23.698 12.107,26.859 13.302,30.204 C11.821,29.809 11.095,28.942 10.49,27.962 M41.206,16.248 C39.747,16.173 38.278,16.229 36.818,16.187 C36.497,16.177 36.146,16.122 36.062,15.872 C35.884,15.354 35.908,14.471 35.919,13.665 C35.933,12.687 36.771,13.023 37.389,12.871 C37.389,12.506 37.387,12.067 37.389,11.627 C37.389,9.964 37.389,9.961 35.779,9.961 C31.882,9.961 27.98,9.961 24.082,9.961 L23.924,9.961 L23.767,9.961 C19.868,9.961 15.969,9.961 12.069,9.961 C10.46,9.961 10.46,9.964 10.46,11.627 C10.462,12.067 10.46,12.506 10.46,12.871 C11.076,13.023 11.915,12.687 11.929,13.665 C11.941,14.471 11.965,15.354 11.788,15.872 C11.703,16.122 11.352,16.177 11.034,16.187 C9.569,16.229 8.102,16.173 6.643,16.248 C6.336,16.265 5.79,16.692 5.796,16.917 C5.874,19.762 5.849,22.626 6.224,25.437 C6.548,27.883 7.72,30.07 9.599,31.78 C10.873,32.94 12.347,33.554 14.111,33.454 C14.46,33.434 14.972,33.684 15.17,33.972 C16.627,36.087 18.406,37.8 20.75,38.917 C21.061,39.065 21.355,39.563 21.386,39.923 C21.473,40.931 21.434,41.95 21.406,42.964 C21.396,43.242 21.34,43.645 21.152,43.778 C19.365,45.062 18.377,46.791 18.233,49.086 C17.42,49.086 16.712,49.104 16.006,49.08 C15.376,49.058 15.137,49.329 15.156,49.954 C15.187,50.854 15.213,51.761 15.148,52.655 C15.081,53.559 15.43,53.809 16.309,53.804 C18.846,53.787 21.385,53.784 23.924,53.784 C26.465,53.784 29.003,53.787 31.541,53.804 C32.418,53.809 32.77,53.559 32.702,52.655 C32.638,51.761 32.661,50.854 32.693,49.954 C32.715,49.329 32.473,49.058 31.844,49.08 C31.139,49.104 30.431,49.086 29.617,49.086 C29.472,46.791 28.483,45.062 26.697,43.778 C26.511,43.645 26.454,43.242 26.444,42.964 C26.414,41.95 26.375,40.931 26.462,39.923 C26.493,39.563 26.788,39.065 27.1,38.917 C29.444,37.8 31.222,36.087 32.681,33.972 C32.877,33.684 33.389,33.434 33.738,33.454 C35.502,33.554 36.977,32.94 38.25,31.78 C40.129,30.07 41.301,27.883 41.629,25.437 C42,22.626 41.977,19.762 42.054,16.917 C42.058,16.692 41.515,16.265 41.206,16.248" fill="#9A6E38"/>
      <path d="M39,21.517 C38.938,23.792 38.578,25.991 37.359,27.962 C36.754,28.942 36.028,29.809 34.548,30.204 C35.743,26.859 35.977,23.698 35.827,20.504 C35.785,19.565 36.158,19.358 36.993,19.393 C39.171,19.483 39.068,18.925 39,21.517 z M10.49,27.962 C9.271,25.991 8.911,23.792 8.851,21.517 C8.781,18.925 8.677,19.483 10.854,19.393 C11.691,19.358 12.064,19.565 12.022,20.504 C11.873,23.698 12.107,26.859 13.302,30.204 C11.821,29.809 11.095,28.942 10.49,27.962 z M41.206,16.248 C39.747,16.173 38.278,16.229 36.818,16.187 C36.497,16.177 36.146,16.122 36.062,15.872 C35.884,15.354 35.908,14.471 35.919,13.665 C35.933,12.687 36.771,13.023 37.389,12.871 C37.389,12.506 37.387,12.067 37.389,11.627 C37.389,9.964 37.389,9.961 35.779,9.961 C31.882,9.961 27.98,9.961 24.082,9.961 L23.924,9.961 L23.767,9.961 C19.868,9.961 15.969,9.961 12.069,9.961 C10.46,9.961 10.46,9.964 10.46,11.627 C10.462,12.067 10.46,12.506 10.46,12.871 C11.076,13.023 11.915,12.687 11.929,13.665 C11.941,14.471 11.965,15.354 11.788,15.872 C11.703,16.122 11.352,16.177 11.034,16.187 C9.569,16.229 8.102,16.173 6.643,16.248 C6.336,16.265 5.79,16.692 5.796,16.917 C5.874,19.762 5.849,22.626 6.224,25.437 C6.548,27.883 7.72,30.07 9.599,31.78 C10.873,32.94 12.347,33.554 14.111,33.454 C14.46,33.434 14.972,33.684 15.17,33.972 C16.627,36.087 18.406,37.8 20.75,38.917 C21.061,39.065 21.355,39.563 21.386,39.923 C21.473,40.931 21.434,41.95 21.406,42.964 C21.396,43.242 21.34,43.645 21.152,43.778 C19.365,45.062 18.377,46.791 18.233,49.086 C17.42,49.086 16.712,49.104 16.006,49.08 C15.376,49.058 15.137,49.329 15.156,49.954 C15.187,50.854 15.213,51.761 15.148,52.655 C15.081,53.559 15.43,53.809 16.309,53.804 C18.846,53.787 21.385,53.784 23.924,53.784 C26.465,53.784 29.003,53.787 31.541,53.804 C32.418,53.809 32.77,53.559 32.702,52.655 C32.638,51.761 32.661,50.854 32.693,49.954 C32.715,49.329 32.473,49.058 31.844,49.08 C31.139,49.104 30.431,49.086 29.617,49.086 C29.472,46.791 28.483,45.062 26.697,43.778 C26.511,43.645 26.454,43.242 26.444,42.964 C26.414,41.95 26.375,40.931 26.462,39.923 C26.493,39.563 26.788,39.065 27.1,38.917 C29.444,37.8 31.222,36.087 32.681,33.972 C32.877,33.684 33.389,33.434 33.738,33.454 C35.502,33.554 36.977,32.94 38.25,31.78 C40.129,30.07 41.301,27.883 41.629,25.437 C42,22.626 41.977,19.762 42.054,16.917 C42.058,16.692 41.515,16.265 41.206,16.248 z" fill-opacity="0" stroke="#FDF5E0" stroke-width="1"/>
    </g>
    <text transform="matrix(1, 0, -0, 1, 23.921, 23.93)">
      <tspan x="-1.23" y="4" font-family="Love*Monster" font-size="16.966" kerning="0" fill="#FDF5E0">1</tspan>
    </text>
  </g>
</svg>
