<?xml version="1.0" encoding="UTF-8"?>
<!DOCTYPE svg PUBLIC "-//W3C//DTD SVG 1.1//EN" "http://www.w3.org/Graphics/SVG/1.1/DTD/svg11.dtd">
<svg version="1.1" xmlns="http://www.w3.org/2000/svg" xmlns:xlink="http://www.w3.org/1999/xlink" x="0" y="0" width="30.578" height="32.009" viewBox="0, 0, 30.578, 32.009">
  <g id="Layer_1">
    <path d="M13.874,6.185 L14.752,6.55 L13.603,9.307 L12.726,8.942 z" fill="#9A6E38"/>
    <path d="M6.892,11.346 L6.527,12.222 L3.77,11.075 L4.135,10.199 z" fill="#9A6E38"/>
    <path d="M16.012,12.241 L15.65,11.363 L18.409,10.225 L18.773,11.103 z" fill="#9A6E38"/>
    <path d="M8.687,6.176 L9.825,8.937 L8.946,9.3 L7.809,6.538 z" fill="#9A6E38"/>
    <path d="M18.77,6.847 L15.093,10.527 L14.42,9.855 L18.097,6.176 z" fill="#9A6E38"/>
    <path d="M4.431,6.18 L8.111,9.856 L7.439,10.529 L3.76,6.852 z" fill="#9A6E38"/>
    <path d="M1.276,11.907 L6.372,12.949 L6.181,13.88 L1.086,12.839 z" fill="#9A6E38"/>
    <path d="M10.788,3.544 L10.79,8.745 L11.74,8.745 L11.737,3.544 z" fill="#9A6E38"/>
    <g>
      <path d="M29.138,16.167 C28.614,16.106 27.967,16.066 27.232,16.05 L27.18,14.486 C27.964,14.495 28.638,14.532 29.156,14.593 z M24.445,16.087 L24.378,14.553 C25.099,14.514 25.781,14.492 26.409,14.485 L26.461,16.042 C25.831,16.042 25.154,16.056 24.445,16.087 M21.588,16.302 L21.458,14.793 C22.193,14.712 22.915,14.648 23.61,14.6 L23.675,16.128 C22.995,16.17 22.295,16.227 21.588,16.302 M19.146,16.625 L18.929,15.133 C19.519,15.039 20.109,14.955 20.694,14.882 L20.824,16.389 C20.263,16.458 19.701,16.535 19.146,16.625 M18.705,13.595 L18.515,13.406 L20.624,13.202 L20.558,13.308 L20.641,14.27 C20.048,14.339 19.447,14.419 18.839,14.516 z M18.527,25.952 C18.223,25.635 17.843,25.251 17.389,24.827 L17.572,24.59 C18.023,25.026 18.4,25.425 18.708,25.764 z M16.794,24.286 C16.365,23.906 15.885,23.503 15.359,23.091 L15.542,22.823 C16.078,23.243 16.558,23.651 16.984,24.04 z M14.721,22.605 C14.293,22.288 13.839,21.97 13.359,21.656 L13.511,21.386 C14.008,21.705 14.471,22.024 14.903,22.34 z M12.682,21.227 C12.196,20.928 11.686,20.636 11.156,20.358 L11.287,20.105 C11.83,20.386 12.345,20.674 12.83,20.965 z M9.062,19.382 L9.627,17.935 C10.141,18.136 10.658,18.354 11.172,18.592 L10.441,19.997 C9.995,19.781 9.534,19.576 9.062,19.382 M8.315,19.094 C7.781,18.897 7.231,18.719 6.666,18.562 L7.036,17.06 C7.639,17.233 8.255,17.431 8.877,17.654 z M7.452,15.372 C7.653,15.824 7.932,16.241 8.283,16.601 C7.938,16.49 7.586,16.385 7.227,16.285 z M11.894,18.938 C11.945,18.965 11.995,18.99 12.046,19.017 C11.929,19.104 11.819,19.192 11.715,19.282 z M12.566,17.647 C12.92,17.531 13.258,17.369 13.571,17.163 L13.841,17.993 L14.056,17.941 C13.608,18.122 13.191,18.316 12.813,18.526 C12.631,18.429 12.446,18.333 12.259,18.237 z M14.703,16.052 C15.053,15.951 15.411,15.856 15.774,15.767 L16.138,17.26 C15.586,17.406 15.058,17.569 14.562,17.748 L14.204,16.649 C14.387,16.467 14.554,16.268 14.703,16.052 M15.12,15.286 C15.263,14.943 15.356,14.592 15.403,14.241 L15.631,15.177 C15.455,15.223 15.28,15.269 15.106,15.317 C15.111,15.307 15.116,15.296 15.12,15.286 M18.171,15.263 L18.388,16.757 C17.875,16.852 17.37,16.956 16.88,17.073 L16.519,15.592 C17.062,15.471 17.615,15.362 18.171,15.263 M5.889,18.363 C5.339,18.234 4.776,18.126 4.201,18.045 L4.397,16.441 C4.994,16.549 5.619,16.684 6.263,16.851 z M3.407,17.946 C2.761,17.882 2.102,17.851 1.43,17.854 L1.43,16.111 C2.076,16.126 2.81,16.191 3.607,16.309 z M29.908,16.288 L29.925,14.729 C30.032,14.76 30.118,14.792 30.181,14.827 C30.286,14.866 30.183,14.046 30.183,14.046 C30.136,14.044 30.05,14.04 29.933,14.034 L29.941,13.293 L29.554,12.783 L29.171,13.289 L29.163,13.995 C28.65,13.974 27.97,13.951 27.162,13.944 L27.13,12.973 L26.721,12.477 L26.361,12.995 L26.392,13.942 C25.765,13.944 25.081,13.958 24.355,13.987 L24.316,13.062 L23.901,12.568 L23.546,13.089 L23.586,14.023 C22.888,14.062 22.158,14.115 21.408,14.188 L21.326,13.256 L21.225,13.144 L21.572,13.11 L21.481,12.165 L16.303,12.665 L16.394,13.61 L18.07,13.449 L17.943,13.681 L18.081,14.643 C17.513,14.745 16.943,14.862 16.375,14.994 L16.149,14.068 L15.644,13.643 L15.412,14.17 C15.626,12.365 14.634,10.562 12.871,9.829 C10.743,8.942 8.301,9.949 7.414,12.077 C7.099,12.835 7.025,13.632 7.154,14.386 L6.784,14.737 L6.452,16.083 C5.819,15.925 5.165,15.788 4.492,15.672 L4.659,14.304 L4.338,13.682 L3.864,14.207 L3.7,15.547 C2.966,15.441 2.21,15.36 1.43,15.309 L1.43,14.038 L1.021,13.426 L0.629,14.038 L0.629,15.268 C0.423,15.26 0.217,15.253 0.008,15.249 C0.008,15.249 -0.021,16.157 0.034,16.168 C0.217,16.146 0.416,16.128 0.629,16.118 L0.629,17.878 C0.521,17.885 0.413,17.889 0.304,17.896 C0.444,27.125 0.514,27.125 0.514,27.125 L19.392,26.915 C19.392,26.915 19.282,26.779 19.072,26.542 L19.242,26.363 C19.578,26.747 19.761,26.956 19.811,26.915 L22.146,26.915 C22.21,26.917 22.253,26.917 22.253,26.917 L22.251,26.915 L30.577,26.915 L30.577,16.639 C30.585,16.5 30.343,16.382 29.908,16.288" fill="#9A6E38"/>
      <path d="M25.951,8.673 C25.907,10.282 25.653,11.837 24.791,13.232 C24.362,13.925 23.848,14.538 22.802,14.817 C23.648,12.451 23.813,10.215 23.708,7.957 C23.677,7.292 23.942,7.146 24.532,7.171 C26.073,7.234 26.001,6.839 25.951,8.673 M5.786,13.232 C4.924,11.837 4.67,10.282 4.627,8.673 C4.578,6.839 4.505,7.234 6.045,7.171 C6.636,7.146 6.9,7.292 6.87,7.957 C6.764,10.215 6.93,12.451 7.776,14.817 C6.729,14.538 6.215,13.925 5.786,13.232 M27.513,4.946 C26.479,4.893 25.441,4.933 24.407,4.903 C24.181,4.896 23.932,4.857 23.873,4.68 C23.749,4.314 23.764,3.69 23.773,3.119 C23.783,2.427 24.376,2.665 24.811,2.558 L24.811,1.678 C24.812,0.501 24.812,0.5 23.675,0.5 C20.917,0.499 18.157,0.5 15.4,0.5 L15.289,0.5 L15.177,0.5 C12.42,0.5 9.661,0.499 6.904,0.5 C5.765,0.5 5.765,0.501 5.765,1.678 C5.767,1.989 5.765,2.299 5.765,2.558 C6.202,2.665 6.794,2.427 6.805,3.119 C6.813,3.69 6.829,4.314 6.704,4.68 C6.644,4.857 6.396,4.896 6.171,4.903 C5.136,4.933 4.097,4.893 3.065,4.946 C2.848,4.958 2.462,5.26 2.467,5.42 C2.521,7.431 2.504,9.457 2.768,11.445 C2.999,13.175 3.827,14.722 5.156,15.932 C6.058,16.753 7.099,17.186 8.348,17.116 C8.596,17.102 8.956,17.278 9.097,17.482 C10.127,18.978 11.386,20.19 13.043,20.98 C13.263,21.084 13.472,21.437 13.494,21.692 C13.555,22.403 13.527,23.124 13.507,23.841 C13.5,24.038 13.46,24.323 13.328,24.417 C12.064,25.325 11.365,26.548 11.263,28.172 C10.688,28.172 10.187,28.185 9.688,28.167 C9.243,28.152 9.073,28.345 9.088,28.786 C9.109,29.423 9.127,30.064 9.081,30.696 C9.033,31.335 9.281,31.513 9.901,31.509 C11.697,31.497 13.493,31.495 15.289,31.494 C17.085,31.495 18.88,31.497 20.677,31.509 C21.296,31.513 21.545,31.335 21.497,30.696 C21.45,30.064 21.469,29.423 21.491,28.786 C21.506,28.345 21.335,28.152 20.889,28.167 C20.391,28.185 19.889,28.172 19.315,28.172 C19.212,26.548 18.514,25.325 17.25,24.417 C17.118,24.323 17.077,24.038 17.071,23.841 C17.051,23.124 17.022,22.403 17.084,21.692 C17.106,21.437 17.314,21.084 17.534,20.98 C19.192,20.19 20.451,18.978 21.481,17.482 C21.622,17.278 21.981,17.102 22.229,17.116 C23.478,17.186 24.519,16.753 25.421,15.932 C26.751,14.722 27.579,13.175 27.809,11.445 C28.073,9.457 28.057,7.431 28.11,5.42 C28.116,5.26 27.729,4.958 27.513,4.946" fill="#9A6E38"/>
      <path d="M25.951,8.673 C25.907,10.282 25.653,11.837 24.791,13.232 C24.362,13.925 23.848,14.538 22.802,14.817 C23.648,12.451 23.813,10.215 23.708,7.957 C23.677,7.292 23.942,7.146 24.532,7.171 C26.073,7.234 26.001,6.839 25.951,8.673 z M5.786,13.232 C4.924,11.837 4.67,10.282 4.627,8.673 C4.578,6.839 4.505,7.234 6.045,7.171 C6.636,7.146 6.9,7.292 6.87,7.957 C6.764,10.215 6.93,12.451 7.776,14.817 C6.729,14.538 6.215,13.925 5.786,13.232 z M27.513,4.946 C26.479,4.893 25.441,4.933 24.407,4.903 C24.181,4.896 23.932,4.857 23.873,4.68 C23.749,4.314 23.764,3.69 23.773,3.119 C23.783,2.427 24.376,2.665 24.811,2.558 L24.811,1.678 C24.812,0.501 24.812,0.5 23.675,0.5 C20.917,0.499 18.157,0.5 15.4,0.5 L15.289,0.5 L15.177,0.5 C12.42,0.5 9.661,0.499 6.904,0.5 C5.765,0.5 5.765,0.501 5.765,1.678 C5.767,1.989 5.765,2.299 5.765,2.558 C6.202,2.665 6.794,2.427 6.805,3.119 C6.813,3.69 6.829,4.314 6.704,4.68 C6.644,4.857 6.396,4.896 6.171,4.903 C5.136,4.933 4.097,4.893 3.065,4.946 C2.848,4.958 2.462,5.26 2.467,5.42 C2.521,7.431 2.504,9.457 2.768,11.445 C2.999,13.175 3.827,14.722 5.156,15.932 C6.058,16.753 7.099,17.186 8.348,17.116 C8.596,17.102 8.956,17.278 9.097,17.482 C10.127,18.978 11.386,20.19 13.043,20.98 C13.263,21.084 13.472,21.437 13.494,21.692 C13.555,22.403 13.527,23.124 13.507,23.841 C13.5,24.038 13.46,24.323 13.328,24.417 C12.064,25.325 11.365,26.548 11.263,28.172 C10.688,28.172 10.187,28.185 9.688,28.167 C9.243,28.152 9.073,28.345 9.088,28.786 C9.109,29.423 9.127,30.064 9.081,30.696 C9.033,31.335 9.281,31.513 9.901,31.509 C11.697,31.497 13.493,31.495 15.289,31.494 C17.085,31.495 18.88,31.497 20.677,31.509 C21.296,31.513 21.545,31.335 21.497,30.696 C21.45,30.064 21.469,29.423 21.491,28.786 C21.506,28.345 21.335,28.152 20.889,28.167 C20.391,28.185 19.889,28.172 19.315,28.172 C19.212,26.548 18.514,25.325 17.25,24.417 C17.118,24.323 17.077,24.038 17.071,23.841 C17.051,23.124 17.022,22.403 17.084,21.692 C17.106,21.437 17.314,21.084 17.534,20.98 C19.192,20.19 20.451,18.978 21.481,17.482 C21.622,17.278 21.981,17.102 22.229,17.116 C23.478,17.186 24.519,16.753 25.421,15.932 C26.751,14.722 27.579,13.175 27.809,11.445 C28.073,9.457 28.057,7.431 28.11,5.42 C28.116,5.26 27.729,4.958 27.513,4.946 z" fill-opacity="0" stroke="#FDF5E0" stroke-width="1"/>
    </g>
    <text transform="matrix(1, 0, -0, 1, 15.381, 10.71)">
      <tspan x="-5.454" y="2.5" font-family="Love*Monster" font-size="12" kerning="-0.144" fill="#FDF5E0">1</tspan>
      <tspan x="-4.002" y="2.5" font-family="Love*Monster" font-size="12" kerning="-0.048" fill="#FDF5E0">0</tspan>
      <tspan x="0.702" y="2.5" font-family="Love*Monster" font-size="12" kerning="0" fill="#FDF5E0">0</tspan>
    </text>
  </g>
</svg>
