<?xml version="1.0" encoding="UTF-8"?>
<!DOCTYPE svg PUBLIC "-//W3C//DTD SVG 1.1//EN" "http://www.w3.org/Graphics/SVG/1.1/DTD/svg11.dtd">
<svg version="1.1" xmlns="http://www.w3.org/2000/svg" xmlns:xlink="http://www.w3.org/1999/xlink" x="0" y="0" width="39.707" height="32.01" viewBox="0, 0, 39.707, 32.01">
  <g id="Layer_1">
    <g>
      <path d="M37.791,11.202 C37.791,11.202 37.777,11.212 37.757,11.227 C37.785,11.223 37.797,11.216 37.791,11.202" fill="#9A6E38"/>
      <path d="M25.741,8.682 C25.738,8.682 25.732,8.68 25.73,8.681 C25.711,8.684 25.717,8.684 25.741,8.682" fill="#9A6E38"/>
      <path d="M7.981,17.225 C7.985,17.237 7.989,17.246 7.993,17.257 C7.988,17.269 7.983,17.279 7.979,17.288 C7.98,17.269 7.98,17.246 7.981,17.225 M18.792,20.448 C18.586,20.082 18.565,19.86 18.53,19.714 C18.64,19.951 18.729,20.195 18.792,20.448 M39.046,19.736 C38.999,19.67 38.956,19.634 38.923,19.631 C37.52,19.419 35.8,19.401 34.19,19.537 L34.597,18.259 C34.148,18.095 33.579,18.437 33.573,18.728 C33.567,18.699 33.562,18.673 33.556,18.646 C33.56,18.049 33.683,17.032 33.833,16.554 C33.985,16.067 34.556,14.361 35.065,13.712 C35.792,12.788 37.511,11.422 37.757,11.228 C37.472,11.266 35.392,10.821 33.933,13.109 C33.657,13.538 33.465,14.058 33.332,14.602 C33.46,13.859 33.673,13.034 34.021,12.171 C34.214,11.69 35.321,9.611 35.936,9.054 C37.12,7.978 38.851,7.089 38.851,7.089 C38.851,7.089 35.251,6.74 33.364,8.939 C32.573,9.862 32.289,11.758 32.245,13.615 C32.099,12.951 31.909,12.279 31.662,11.65 C30.329,8.254 26.08,8.655 25.74,8.682 C25.946,8.681 27.587,9.633 28.798,10.909 C29.683,11.84 30.519,13.306 30.874,13.908 C31.459,14.896 32.296,17.394 32.423,18.302 C32.382,18.442 32.355,18.589 32.288,18.751 C31.976,18.361 31.673,18.138 31.116,18.177 L31.829,19.869 C30.325,20.181 29.212,20.654 29.045,21.24 C28.5,19.769 29.731,19.82 28.047,19.474 C24.773,19.15 21.612,19.705 19.989,20.554 C20.673,18.38 23.026,16.685 24.367,14.911 C22.794,15.109 20.805,15.624 20.108,17.646 C19.749,18.47 19.523,19.238 19.408,20.06 C19.414,19.614 19.421,19.093 19.43,18.496 C19.45,17.355 19.476,15.947 19.509,14.281 C19.968,14.333 20.406,14.239 20.58,13.572 C20.379,12.964 20.809,12.415 21.257,11.88 C20.938,11.82 20.642,11.824 20.371,11.9 L20.379,11.87 C20.117,11.524 19.779,11.095 19.422,10.843 C19.048,11.079 18.787,11.534 18.507,11.882 L18.511,11.897 C18.222,11.801 17.902,11.79 17.555,11.855 C18.003,12.39 18.434,12.939 18.232,13.547 C18.409,14.223 18.855,14.31 19.32,14.254 L19.32,14.264 C19.301,15.952 19.283,17.359 19.269,18.495 C19.262,18.853 19.256,19.173 19.252,19.464 C19.174,18.92 19.027,18.382 18.836,17.734 C18.14,15.712 15.868,15.112 14.296,14.913 C15.461,16.432 17.539,17.767 18.452,19.553 C18.351,19.454 18.12,19.412 17.483,19.336 C13.33,19.265 11.618,19.764 10.164,20.704 C10.056,20.535 9.947,20.396 9.849,20.326 C9.49,20.066 9.265,19.667 9.271,19.083 L10.061,17.36 C9.706,17.235 9.275,17.421 9.12,17.641 C9.186,16.873 9.478,15.357 10.039,13.619 C10.411,12.468 12.612,10.068 12.612,10.068 C12.631,9.962 11.006,10.173 9.448,12.526 C9.004,13.196 8.777,14.095 8.678,14.95 C8.759,13.613 8.991,12.008 9.562,10.638 C10.087,9.377 13.376,7.735 13.376,7.735 C13.376,7.735 10.968,7.68 8.837,9.454 C7.997,10.154 7.589,11.198 7.437,12.31 C7.37,12.1 7.298,11.893 7.216,11.692 C5.82,8.263 1.436,8.627 1.418,8.896 C1.418,8.896 5.524,11.705 6.117,13.26 C6.86,15.211 7.314,16.637 7.526,17.54 C7.3,17.354 7.042,17.255 6.662,17.282 L7.473,19.382 C5.468,19.267 1.078,19.513 0.056,20.478 C0.294,22.435 0.022,24.503 0,26.703 C13.588,26.662 25.798,26.644 39.593,26.703 L39.706,21.372 C39.431,21.431 39.889,20.49 39.046,19.736" fill="#9A6E38"/>
      <path d="M30.058,8.674 C30.015,10.283 29.761,11.838 28.898,13.233 C28.47,13.926 27.956,14.539 26.91,14.818 C27.755,12.452 27.92,10.216 27.816,7.958 C27.785,7.293 28.049,7.147 28.64,7.172 C30.18,7.235 30.108,6.84 30.058,8.674 M9.893,13.233 C9.031,11.838 8.777,10.283 8.734,8.674 C8.685,6.84 8.612,7.235 10.152,7.172 C10.744,7.147 11.008,7.293 10.977,7.958 C10.872,10.216 11.037,12.452 11.884,14.818 C10.836,14.539 10.322,13.926 9.893,13.233 M31.62,4.947 C30.587,4.894 29.548,4.934 28.515,4.904 C28.288,4.897 28.04,4.858 27.98,4.681 C27.856,4.315 27.872,3.691 27.88,3.12 C27.89,2.428 28.483,2.666 28.919,2.559 C28.919,2.3 28.918,1.99 28.919,1.679 C28.919,0.502 28.919,0.501 27.782,0.501 C25.024,0.5 22.265,0.501 19.508,0.501 L19.396,0.501 L19.285,0.501 C16.527,0.501 13.769,0.5 11.011,0.501 C9.873,0.501 9.873,0.502 9.873,1.679 C9.874,1.99 9.873,2.3 9.873,2.559 C10.309,2.666 10.902,2.428 10.912,3.12 C10.92,3.691 10.937,4.315 10.812,4.681 C10.752,4.858 10.504,4.897 10.278,4.904 C9.244,4.934 8.205,4.894 7.173,4.947 C6.956,4.959 6.57,5.261 6.574,5.421 C6.629,7.432 6.611,9.458 6.876,11.446 C7.106,13.176 7.934,14.723 9.264,15.933 C10.165,16.754 11.207,17.187 12.455,17.117 C12.703,17.103 13.063,17.278 13.204,17.484 C14.235,18.979 15.493,20.191 17.151,20.981 C17.37,21.085 17.579,21.439 17.601,21.693 C17.662,22.404 17.634,23.125 17.614,23.843 C17.608,24.04 17.567,24.324 17.435,24.419 C16.171,25.327 15.473,26.55 15.37,28.173 C14.795,28.173 14.294,28.187 13.795,28.169 C13.35,28.153 13.18,28.345 13.195,28.787 C13.217,29.424 13.234,30.064 13.188,30.697 C13.141,31.337 13.389,31.514 14.009,31.51 C15.805,31.497 17.6,31.495 19.396,31.495 C21.192,31.495 22.988,31.497 24.784,31.51 C25.404,31.514 25.652,31.337 25.605,30.697 C25.558,30.064 25.576,29.424 25.598,28.787 C25.613,28.345 25.443,28.153 24.997,28.169 C24.498,28.187 23.997,28.173 23.423,28.173 C23.32,26.55 22.621,25.327 21.357,24.419 C21.225,24.324 21.185,24.04 21.178,23.843 C21.158,23.125 21.13,22.404 21.191,21.693 C21.213,21.439 21.422,21.085 21.642,20.981 C23.3,20.191 24.558,18.979 25.589,17.484 C25.729,17.278 26.089,17.103 26.337,17.117 C27.585,17.187 28.626,16.754 29.529,15.933 C30.858,14.723 31.687,13.176 31.917,11.446 C32.181,9.458 32.164,7.432 32.218,5.421 C32.223,5.261 31.837,4.959 31.62,4.947" fill="#9A6E38"/>
      <path d="M30.058,8.674 C30.015,10.283 29.761,11.838 28.898,13.233 C28.47,13.926 27.956,14.539 26.91,14.818 C27.755,12.452 27.92,10.216 27.816,7.958 C27.785,7.293 28.049,7.147 28.64,7.172 C30.18,7.235 30.108,6.84 30.058,8.674 z M9.893,13.233 C9.031,11.838 8.777,10.283 8.734,8.674 C8.685,6.84 8.612,7.235 10.152,7.172 C10.744,7.147 11.008,7.293 10.977,7.958 C10.872,10.216 11.037,12.452 11.884,14.818 C10.836,14.539 10.322,13.926 9.893,13.233 z M31.62,4.947 C30.587,4.894 29.548,4.934 28.515,4.904 C28.288,4.897 28.04,4.858 27.98,4.681 C27.856,4.315 27.872,3.691 27.88,3.12 C27.89,2.428 28.483,2.666 28.919,2.559 C28.919,2.3 28.918,1.99 28.919,1.679 C28.919,0.502 28.919,0.501 27.782,0.501 C25.024,0.5 22.265,0.501 19.508,0.501 L19.396,0.501 L19.285,0.501 C16.527,0.501 13.769,0.5 11.011,0.501 C9.873,0.501 9.873,0.502 9.873,1.679 C9.874,1.99 9.873,2.3 9.873,2.559 C10.309,2.666 10.902,2.428 10.912,3.12 C10.92,3.691 10.937,4.315 10.812,4.681 C10.752,4.858 10.504,4.897 10.278,4.904 C9.244,4.934 8.205,4.894 7.173,4.947 C6.956,4.959 6.57,5.261 6.574,5.421 C6.629,7.432 6.611,9.458 6.876,11.446 C7.106,13.176 7.934,14.723 9.264,15.933 C10.165,16.754 11.207,17.187 12.455,17.117 C12.703,17.103 13.063,17.278 13.204,17.484 C14.235,18.979 15.493,20.191 17.151,20.981 C17.37,21.085 17.579,21.439 17.601,21.693 C17.662,22.404 17.634,23.125 17.614,23.843 C17.608,24.04 17.567,24.324 17.435,24.419 C16.171,25.327 15.473,26.55 15.37,28.173 C14.795,28.173 14.294,28.187 13.795,28.169 C13.35,28.153 13.18,28.345 13.195,28.787 C13.217,29.424 13.234,30.064 13.188,30.697 C13.141,31.337 13.389,31.514 14.009,31.51 C15.805,31.497 17.6,31.495 19.396,31.495 C21.192,31.495 22.988,31.497 24.784,31.51 C25.404,31.514 25.652,31.337 25.605,30.697 C25.558,30.064 25.576,29.424 25.598,28.787 C25.613,28.345 25.443,28.153 24.997,28.169 C24.498,28.187 23.997,28.173 23.423,28.173 C23.32,26.55 22.621,25.327 21.357,24.419 C21.225,24.324 21.185,24.04 21.178,23.843 C21.158,23.125 21.13,22.404 21.191,21.693 C21.213,21.439 21.422,21.085 21.642,20.981 C23.3,20.191 24.558,18.979 25.589,17.484 C25.729,17.278 26.089,17.103 26.337,17.117 C27.585,17.187 28.626,16.754 29.529,15.933 C30.858,14.723 31.687,13.176 31.917,11.446 C32.181,9.458 32.164,7.432 32.218,5.421 C32.223,5.261 31.837,4.959 31.62,4.947 z" fill-opacity="0" stroke="#FDF5E0" stroke-width="1"/>
    </g>
    <text transform="matrix(1, 0, -0, 1, 19.395, 10.71)">
      <tspan x="-0.87" y="2.5" font-family="Love*Monster" font-size="12" kerning="0" fill="#FDF5E0">1</tspan>
    </text>
  </g>
</svg>
