<?xml version="1.0" encoding="UTF-8"?>
<!DOCTYPE svg PUBLIC "-//W3C//DTD SVG 1.1//EN" "http://www.w3.org/Graphics/SVG/1.1/DTD/svg11.dtd">
<svg version="1.1" xmlns="http://www.w3.org/2000/svg" xmlns:xlink="http://www.w3.org/1999/xlink" x="0" y="0" width="39.706" height="32.01" viewBox="0, 0, 39.706, 32.01">
  <defs>
    <clipPath id="Clip_1">
      <path d="M-0,-0 L39.706,-0 L39.706,32.01 L-0,32.01 z"/>
    </clipPath>
  </defs>
  <g id="Layer_1">
    <g clip-path="url(#Clip_1)">
      <path d="M37.79,11.202 C37.79,11.202 37.778,11.212 37.759,11.227 C37.784,11.223 37.796,11.216 37.79,11.202" fill="#9A6E38"/>
      <path d="M25.741,8.682 C25.737,8.682 25.731,8.68 25.729,8.681 C25.71,8.684 25.716,8.684 25.741,8.682" fill="#9A6E38"/>
      <path d="M7.981,17.225 C7.985,17.237 7.989,17.246 7.993,17.258 C7.989,17.268 7.984,17.279 7.979,17.289 C7.98,17.268 7.981,17.246 7.981,17.225 M18.792,20.448 C18.586,20.082 18.566,19.86 18.531,19.713 C18.641,19.95 18.729,20.194 18.792,20.448 M39.046,19.735 C38.999,19.67 38.958,19.633 38.925,19.631 C37.521,19.42 35.802,19.401 34.19,19.537 L34.599,18.259 C34.148,18.096 33.581,18.436 33.573,18.727 C33.567,18.7 33.562,18.673 33.558,18.646 C33.562,18.049 33.683,17.032 33.833,16.554 C33.987,16.067 34.558,14.361 35.065,13.712 C35.792,12.788 37.513,11.422 37.759,11.228 C37.474,11.266 35.392,10.821 33.933,13.109 C33.659,13.538 33.466,14.058 33.333,14.602 C33.46,13.859 33.675,13.034 34.021,12.171 C34.214,11.69 35.323,9.611 35.937,9.054 C37.12,7.978 38.851,7.089 38.851,7.089 C38.851,7.089 35.251,6.74 33.364,8.939 C32.573,9.862 32.29,11.758 32.245,13.615 C32.101,12.951 31.911,12.279 31.663,11.65 C30.329,8.254 26.081,8.655 25.741,8.682 C25.946,8.681 27.587,9.633 28.8,10.909 C29.683,11.84 30.521,13.306 30.876,13.908 C31.46,14.896 32.298,17.394 32.425,18.303 C32.382,18.442 32.355,18.59 32.288,18.752 C31.976,18.361 31.673,18.137 31.118,18.177 L31.829,19.87 C30.325,20.181 29.214,20.655 29.046,21.241 C28.501,19.768 29.733,19.821 28.048,19.475 C24.774,19.15 21.612,19.705 19.99,20.555 C20.673,18.379 23.026,16.685 24.368,14.911 C22.796,15.109 20.805,15.624 20.108,17.647 C19.75,18.47 19.524,19.238 19.409,20.061 C19.415,19.614 19.422,19.093 19.43,18.496 C19.45,17.355 19.477,15.947 19.509,14.281 C19.968,14.333 20.407,14.239 20.581,13.572 C20.379,12.964 20.809,12.415 21.258,11.88 C20.938,11.82 20.643,11.824 20.372,11.9 L20.379,11.87 C20.118,11.524 19.78,11.095 19.422,10.843 C19.048,11.079 18.788,11.534 18.508,11.882 L18.512,11.897 C18.223,11.801 17.903,11.79 17.555,11.855 C18.004,12.39 18.434,12.939 18.233,13.547 C18.41,14.223 18.856,14.31 19.321,14.254 L19.321,14.264 C19.301,15.952 19.284,17.359 19.27,18.495 C19.262,18.854 19.256,19.174 19.252,19.465 C19.174,18.92 19.028,18.381 18.836,17.734 C18.14,15.712 15.869,15.112 14.297,14.913 C15.461,16.432 17.54,17.768 18.452,19.553 C18.351,19.454 18.12,19.412 17.483,19.336 C13.331,19.265 11.618,19.764 10.165,20.705 C10.056,20.536 9.948,20.397 9.85,20.325 C9.491,20.067 9.266,19.666 9.271,19.084 L10.061,17.36 C9.707,17.235 9.276,17.421 9.12,17.641 C9.186,16.873 9.479,15.357 10.04,13.619 C10.412,12.468 12.612,10.068 12.612,10.068 C12.631,9.962 11.006,10.173 9.448,12.526 C9.004,13.196 8.778,14.095 8.678,14.95 C8.76,13.613 8.991,12.008 9.563,10.638 C10.088,9.377 13.377,7.735 13.377,7.735 C13.377,7.735 10.968,7.68 8.838,9.454 C7.998,10.154 7.59,11.198 7.437,12.31 C7.371,12.1 7.298,11.893 7.216,11.692 C5.821,8.263 1.436,8.627 1.419,8.896 C1.419,8.896 5.525,11.705 6.118,13.26 C6.86,15.211 7.314,16.637 7.527,17.54 C7.301,17.354 7.043,17.256 6.663,17.282 L7.473,19.383 C5.469,19.268 1.079,19.513 0.056,20.479 C0.294,22.435 0.022,24.503 0.001,26.702 C13.588,26.662 25.8,26.645 39.595,26.702 L39.706,21.372 C39.433,21.432 39.89,20.49 39.046,19.735" fill="#9A6E38"/>
      <path d="M30.06,8.674 C30.015,10.283 29.761,11.838 28.9,13.233 C28.47,13.926 27.956,14.539 26.91,14.818 C27.757,12.452 27.921,10.216 27.816,7.958 C27.785,7.293 28.05,7.147 28.64,7.172 C30.181,7.235 30.109,6.84 30.06,8.674 M9.893,13.233 C9.032,11.838 8.778,10.283 8.735,8.674 C8.686,6.84 8.612,7.235 10.153,7.172 C10.744,7.147 11.009,7.293 10.977,7.958 C10.872,10.216 11.038,12.452 11.884,14.818 C10.837,14.539 10.323,13.926 9.893,13.233 M31.621,4.947 C30.587,4.894 29.55,4.934 28.515,4.904 C28.29,4.897 28.04,4.858 27.982,4.681 C27.857,4.315 27.872,3.691 27.882,3.12 C27.892,2.428 28.484,2.666 28.919,2.559 L28.919,1.679 C28.921,0.502 28.921,0.501 27.783,0.501 C25.025,0.5 22.265,0.501 19.509,0.501 L19.397,0.501 L19.285,0.501 C16.528,0.501 13.769,0.5 11.012,0.501 C9.874,0.501 9.874,0.502 9.874,1.679 C9.875,1.99 9.874,2.3 9.874,2.559 C10.31,2.666 10.902,2.428 10.913,3.12 C10.921,3.691 10.937,4.315 10.812,4.681 C10.753,4.858 10.505,4.897 10.278,4.904 C9.244,4.934 8.206,4.894 7.173,4.947 C6.956,4.959 6.57,5.261 6.575,5.421 C6.63,7.432 6.612,9.458 6.876,11.446 C7.106,13.176 7.935,14.723 9.265,15.933 C10.166,16.754 11.208,17.187 12.456,17.117 C12.704,17.103 13.063,17.279 13.204,17.483 C14.235,18.979 15.493,20.191 17.151,20.981 C17.371,21.085 17.58,21.438 17.602,21.693 C17.663,22.404 17.635,23.125 17.614,23.842 C17.608,24.039 17.567,24.324 17.436,24.418 C16.172,25.326 15.474,26.549 15.371,28.173 C14.796,28.173 14.295,28.186 13.796,28.168 C13.351,28.153 13.181,28.346 13.196,28.787 C13.218,29.424 13.235,30.065 13.188,30.697 C13.142,31.336 13.39,31.514 14.009,31.51 C15.806,31.498 17.601,31.496 19.397,31.495 C21.192,31.496 22.988,31.498 24.785,31.51 C25.404,31.514 25.654,31.336 25.605,30.697 C25.558,30.065 25.578,29.424 25.599,28.787 C25.615,28.346 25.443,28.153 24.998,28.168 C24.499,28.186 23.998,28.173 23.423,28.173 C23.32,26.549 22.623,25.326 21.359,24.418 C21.226,24.324 21.185,24.039 21.179,23.842 C21.159,23.125 21.131,22.404 21.192,21.693 C21.214,21.438 21.423,21.085 21.642,20.981 C23.3,20.191 24.56,18.979 25.589,17.483 C25.73,17.279 26.089,17.103 26.337,17.117 C27.587,17.187 28.628,16.754 29.529,15.933 C30.859,14.723 31.687,13.176 31.917,11.446 C32.181,9.458 32.165,7.432 32.218,5.421 C32.224,5.261 31.837,4.959 31.621,4.947" fill="#9A6E38"/>
      <path d="M30.06,8.674 C30.015,10.283 29.761,11.838 28.9,13.233 C28.47,13.926 27.956,14.539 26.91,14.818 C27.757,12.452 27.921,10.216 27.816,7.958 C27.785,7.293 28.05,7.147 28.64,7.172 C30.181,7.235 30.109,6.84 30.06,8.674 z M9.893,13.233 C9.032,11.838 8.778,10.283 8.735,8.674 C8.686,6.84 8.612,7.235 10.153,7.172 C10.744,7.147 11.009,7.293 10.977,7.958 C10.872,10.216 11.038,12.452 11.884,14.818 C10.837,14.539 10.323,13.926 9.893,13.233 z M31.621,4.947 C30.587,4.894 29.55,4.934 28.515,4.904 C28.29,4.897 28.04,4.858 27.982,4.681 C27.857,4.315 27.872,3.691 27.882,3.12 C27.892,2.428 28.484,2.666 28.919,2.559 L28.919,1.679 C28.921,0.502 28.921,0.501 27.783,0.501 C25.025,0.5 22.265,0.501 19.509,0.501 L19.397,0.501 L19.285,0.501 C16.528,0.501 13.769,0.5 11.012,0.501 C9.874,0.501 9.874,0.502 9.874,1.679 C9.875,1.99 9.874,2.3 9.874,2.559 C10.31,2.666 10.902,2.428 10.913,3.12 C10.921,3.691 10.937,4.315 10.812,4.681 C10.753,4.858 10.505,4.897 10.278,4.904 C9.244,4.934 8.206,4.894 7.173,4.947 C6.956,4.959 6.57,5.261 6.575,5.421 C6.63,7.432 6.612,9.458 6.876,11.446 C7.106,13.176 7.935,14.723 9.265,15.933 C10.166,16.754 11.208,17.187 12.456,17.117 C12.704,17.103 13.063,17.279 13.204,17.483 C14.235,18.979 15.493,20.191 17.151,20.981 C17.371,21.085 17.58,21.438 17.602,21.693 C17.663,22.404 17.635,23.125 17.614,23.842 C17.608,24.039 17.567,24.324 17.436,24.418 C16.172,25.326 15.474,26.549 15.371,28.173 C14.796,28.173 14.295,28.186 13.796,28.168 C13.351,28.153 13.181,28.346 13.196,28.787 C13.218,29.424 13.235,30.065 13.188,30.697 C13.142,31.336 13.39,31.514 14.009,31.51 C15.806,31.498 17.601,31.496 19.397,31.495 C21.192,31.496 22.988,31.498 24.785,31.51 C25.404,31.514 25.654,31.336 25.605,30.697 C25.558,30.065 25.578,29.424 25.599,28.787 C25.615,28.346 25.443,28.153 24.998,28.168 C24.499,28.186 23.998,28.173 23.423,28.173 C23.32,26.549 22.623,25.326 21.359,24.418 C21.226,24.324 21.185,24.039 21.179,23.842 C21.159,23.125 21.131,22.404 21.192,21.693 C21.214,21.438 21.423,21.085 21.642,20.981 C23.3,20.191 24.56,18.979 25.589,17.483 C25.73,17.279 26.089,17.103 26.337,17.117 C27.587,17.187 28.628,16.754 29.529,15.933 C30.859,14.723 31.687,13.176 31.917,11.446 C32.181,9.458 32.165,7.432 32.218,5.421 C32.224,5.261 31.837,4.959 31.621,4.947 z" fill-opacity="0" stroke="#FDF5E0" stroke-width="1"/>
    </g>
    <text transform="matrix(1, 0, -0, 1, 19.712, 10.71)">
      <tspan x="-4.5" y="2.5" font-family="Love*Monster" font-size="12" kerning="-0.228" fill="#FDF5E0">5</tspan>
      <tspan x="-0.252" y="2.5" font-family="Love*Monster" font-size="12" kerning="0" fill="#FDF5E0">0</tspan>
    </text>
  </g>
</svg>
