<?xml version="1.0" encoding="UTF-8"?>
<!DOCTYPE svg PUBLIC "-//W3C//DTD SVG 1.1//EN" "http://www.w3.org/Graphics/SVG/1.1/DTD/svg11.dtd">
<svg version="1.1" xmlns="http://www.w3.org/2000/svg" xmlns:xlink="http://www.w3.org/1999/xlink" x="0" y="0" width="39.707" height="32.01" viewBox="0, 0, 39.707, 32.01">
  <g id="Layer_1">
    <g>
      <path d="M37.791,11.202 C37.791,11.202 37.777,11.212 37.757,11.227 C37.785,11.223 37.797,11.216 37.791,11.202" fill="#9A6E38"/>
      <path d="M25.741,8.681 C25.738,8.681 25.732,8.679 25.73,8.68 C25.711,8.683 25.717,8.683 25.741,8.681" fill="#9A6E38"/>
      <path d="M7.981,17.224 C7.985,17.236 7.989,17.245 7.993,17.257 C7.988,17.268 7.983,17.279 7.979,17.288 C7.98,17.268 7.98,17.245 7.981,17.224 M18.792,20.447 C18.586,20.081 18.565,19.859 18.53,19.713 C18.64,19.95 18.729,20.194 18.792,20.447 M39.046,19.735 C38.999,19.669 38.956,19.633 38.923,19.63 C37.52,19.419 35.8,19.4 34.19,19.537 L34.597,18.259 C34.148,18.095 33.579,18.436 33.573,18.727 C33.567,18.699 33.562,18.673 33.556,18.646 C33.56,18.048 33.683,17.032 33.833,16.553 C33.985,16.066 34.556,14.36 35.065,13.712 C35.792,12.788 37.511,11.421 37.757,11.227 C37.472,11.266 35.392,10.821 33.933,13.108 C33.657,13.538 33.465,14.057 33.332,14.602 C33.46,13.858 33.673,13.034 34.021,12.17 C34.214,11.69 35.321,9.611 35.936,9.054 C37.12,7.978 38.851,7.088 38.851,7.088 C38.851,7.088 35.251,6.74 33.364,8.939 C32.573,9.861 32.289,11.757 32.245,13.615 C32.099,12.951 31.909,12.279 31.662,11.649 C30.329,8.253 26.08,8.654 25.74,8.682 C25.946,8.68 27.587,9.632 28.798,10.908 C29.683,11.84 30.519,13.305 30.874,13.907 C31.459,14.896 32.296,17.394 32.423,18.302 C32.382,18.441 32.355,18.589 32.288,18.751 C31.976,18.361 31.673,18.137 31.116,18.177 L31.829,19.869 C30.325,20.181 29.212,20.654 29.045,21.24 C28.5,19.768 29.731,19.82 28.047,19.474 C24.773,19.15 21.612,19.704 19.989,20.554 C20.673,18.379 23.026,16.685 24.367,14.911 C22.794,15.108 20.805,15.624 20.108,17.646 C19.749,18.47 19.523,19.238 19.408,20.06 C19.414,19.613 19.421,19.093 19.43,18.495 C19.45,17.355 19.476,15.947 19.509,14.281 C19.968,14.333 20.406,14.239 20.58,13.572 C20.379,12.963 20.809,12.415 21.257,11.879 C20.938,11.82 20.642,11.824 20.371,11.899 L20.379,11.87 C20.117,11.524 19.779,11.094 19.422,10.842 C19.048,11.078 18.787,11.533 18.507,11.882 L18.511,11.897 C18.222,11.801 17.902,11.789 17.555,11.854 C18.003,12.39 18.434,12.938 18.232,13.546 C18.409,14.222 18.855,14.31 19.32,14.253 L19.32,14.264 C19.301,15.951 19.283,17.359 19.269,18.494 C19.262,18.853 19.256,19.173 19.252,19.464 C19.174,18.919 19.027,18.381 18.836,17.734 C18.14,15.711 15.868,15.111 14.296,14.913 C15.461,16.432 17.539,17.767 18.452,19.552 C18.351,19.453 18.12,19.412 17.483,19.335 C13.33,19.265 11.618,19.763 10.164,20.704 C10.056,20.535 9.947,20.396 9.849,20.325 C9.49,20.066 9.265,19.666 9.271,19.083 L10.061,17.359 C9.706,17.234 9.275,17.42 9.12,17.64 C9.186,16.872 9.478,15.356 10.039,13.619 C10.411,12.467 12.612,10.067 12.612,10.067 C12.631,9.962 11.006,10.172 9.448,12.525 C9.004,13.195 8.777,14.095 8.678,14.949 C8.759,13.612 8.991,12.007 9.562,10.637 C10.087,9.377 13.376,7.734 13.376,7.734 C13.376,7.734 10.968,7.679 8.837,9.454 C7.997,10.154 7.589,11.198 7.437,12.31 C7.37,12.099 7.298,11.892 7.216,11.691 C5.82,8.263 1.436,8.626 1.418,8.896 C1.418,8.896 5.524,11.704 6.117,13.26 C6.86,15.21 7.314,16.637 7.526,17.539 C7.3,17.353 7.042,17.255 6.662,17.281 L7.473,19.382 C5.468,19.267 1.078,19.513 0.056,20.478 C0.294,22.435 0.022,24.503 0,26.702 C13.588,26.662 25.798,26.644 39.593,26.702 L39.706,21.372 C39.431,21.431 39.889,20.49 39.046,19.735" fill="#9A6E38"/>
      <path d="M30.058,8.673 C30.015,10.282 29.761,11.837 28.898,13.232 C28.47,13.925 27.956,14.538 26.91,14.817 C27.755,12.451 27.92,10.215 27.816,7.957 C27.785,7.292 28.049,7.146 28.64,7.171 C30.18,7.234 30.108,6.839 30.058,8.673 M9.893,13.232 C9.031,11.837 8.777,10.282 8.734,8.673 C8.685,6.839 8.612,7.234 10.152,7.171 C10.744,7.146 11.008,7.292 10.977,7.957 C10.872,10.215 11.037,12.451 11.884,14.817 C10.836,14.538 10.322,13.925 9.893,13.232 M31.62,4.946 C30.587,4.893 29.548,4.933 28.515,4.903 C28.288,4.896 28.04,4.857 27.98,4.68 C27.856,4.314 27.872,3.69 27.88,3.119 C27.89,2.427 28.483,2.665 28.919,2.558 C28.919,2.299 28.918,1.989 28.919,1.678 C28.919,0.501 28.919,0.5 27.782,0.5 C25.024,0.499 22.265,0.5 19.508,0.5 L19.396,0.5 L19.285,0.5 C16.527,0.5 13.769,0.499 11.011,0.5 C9.873,0.5 9.873,0.501 9.873,1.678 C9.874,1.989 9.873,2.299 9.873,2.558 C10.309,2.665 10.902,2.427 10.912,3.119 C10.92,3.69 10.937,4.314 10.812,4.68 C10.752,4.857 10.504,4.896 10.278,4.903 C9.244,4.933 8.205,4.893 7.173,4.946 C6.956,4.958 6.57,5.26 6.574,5.42 C6.629,7.431 6.611,9.457 6.876,11.445 C7.106,13.175 7.934,14.722 9.264,15.932 C10.165,16.753 11.207,17.186 12.455,17.116 C12.703,17.102 13.063,17.278 13.204,17.482 C14.235,18.977 15.493,20.19 17.151,20.979 C17.37,21.085 17.579,21.437 17.601,21.692 C17.662,22.403 17.634,23.124 17.614,23.841 C17.608,24.039 17.567,24.323 17.435,24.418 C16.171,25.326 15.473,26.548 15.37,28.173 C14.795,28.173 14.294,28.185 13.795,28.168 C13.35,28.152 13.18,28.344 13.195,28.786 C13.217,29.423 13.234,30.063 13.188,30.696 C13.141,31.336 13.389,31.512 14.009,31.508 C15.805,31.497 17.6,31.495 19.396,31.495 C21.192,31.495 22.988,31.497 24.784,31.508 C25.404,31.512 25.652,31.336 25.605,30.696 C25.558,30.063 25.576,29.423 25.598,28.786 C25.613,28.344 25.443,28.152 24.997,28.168 C24.498,28.185 23.997,28.173 23.423,28.173 C23.32,26.548 22.621,25.326 21.357,24.418 C21.225,24.323 21.185,24.039 21.178,23.841 C21.158,23.124 21.13,22.403 21.191,21.692 C21.213,21.437 21.422,21.085 21.642,20.979 C23.3,20.19 24.558,18.977 25.589,17.482 C25.729,17.278 26.089,17.102 26.337,17.116 C27.585,17.186 28.626,16.753 29.529,15.932 C30.858,14.722 31.687,13.175 31.917,11.445 C32.181,9.457 32.164,7.431 32.218,5.42 C32.223,5.26 31.837,4.958 31.62,4.946" fill="#9A6E38"/>
      <path d="M30.058,8.673 C30.015,10.282 29.761,11.837 28.898,13.232 C28.47,13.925 27.956,14.538 26.91,14.817 C27.755,12.451 27.92,10.215 27.816,7.957 C27.785,7.292 28.049,7.146 28.64,7.171 C30.18,7.234 30.108,6.839 30.058,8.673 z M9.893,13.232 C9.031,11.837 8.777,10.282 8.734,8.673 C8.685,6.839 8.612,7.234 10.152,7.171 C10.744,7.146 11.008,7.292 10.977,7.957 C10.872,10.215 11.037,12.451 11.884,14.817 C10.836,14.538 10.322,13.925 9.893,13.232 z M31.62,4.946 C30.587,4.893 29.548,4.933 28.515,4.903 C28.288,4.896 28.04,4.857 27.98,4.68 C27.856,4.314 27.872,3.69 27.88,3.119 C27.89,2.427 28.483,2.665 28.919,2.558 C28.919,2.299 28.918,1.989 28.919,1.678 C28.919,0.501 28.919,0.5 27.782,0.5 C25.024,0.499 22.265,0.5 19.508,0.5 L19.396,0.5 L19.285,0.5 C16.527,0.5 13.769,0.499 11.011,0.5 C9.873,0.5 9.873,0.501 9.873,1.678 C9.874,1.989 9.873,2.299 9.873,2.558 C10.309,2.665 10.902,2.427 10.912,3.119 C10.92,3.69 10.937,4.314 10.812,4.68 C10.752,4.857 10.504,4.896 10.278,4.903 C9.244,4.933 8.205,4.893 7.173,4.946 C6.956,4.958 6.57,5.26 6.574,5.42 C6.629,7.431 6.611,9.457 6.876,11.445 C7.106,13.175 7.934,14.722 9.264,15.932 C10.165,16.753 11.207,17.186 12.455,17.116 C12.703,17.102 13.063,17.278 13.204,17.482 C14.235,18.977 15.493,20.19 17.151,20.979 C17.37,21.085 17.579,21.437 17.601,21.692 C17.662,22.403 17.634,23.124 17.614,23.841 C17.608,24.039 17.567,24.323 17.435,24.418 C16.171,25.326 15.473,26.548 15.37,28.173 C14.795,28.173 14.294,28.185 13.795,28.168 C13.35,28.152 13.18,28.344 13.195,28.786 C13.217,29.423 13.234,30.063 13.188,30.696 C13.141,31.336 13.389,31.512 14.009,31.508 C15.805,31.497 17.6,31.495 19.396,31.495 C21.192,31.495 22.988,31.497 24.784,31.508 C25.404,31.512 25.652,31.336 25.605,30.696 C25.558,30.063 25.576,29.423 25.598,28.786 C25.613,28.344 25.443,28.152 24.997,28.168 C24.498,28.185 23.997,28.173 23.423,28.173 C23.32,26.548 22.621,25.326 21.357,24.418 C21.225,24.323 21.185,24.039 21.178,23.841 C21.158,23.124 21.13,22.403 21.191,21.692 C21.213,21.437 21.422,21.085 21.642,20.979 C23.3,20.19 24.558,18.977 25.589,17.482 C25.729,17.278 26.089,17.102 26.337,17.116 C27.585,17.186 28.626,16.753 29.529,15.932 C30.858,14.722 31.687,13.175 31.917,11.445 C32.181,9.457 32.164,7.431 32.218,5.42 C32.223,5.26 31.837,4.958 31.62,4.946 z" fill-opacity="0" stroke="#FDF5E0" stroke-width="1"/>
    </g>
    <text transform="matrix(1, 0, -0, 1, 19.735, 10.71)">
      <tspan x="-3.21" y="2.5" font-family="Love*Monster" font-size="12" kerning="-0.072" fill="#FDF5E0">1</tspan>
      <tspan x="-1.542" y="2.5" font-family="Love*Monster" font-size="12" kerning="0" fill="#FDF5E0">0</tspan>
    </text>
  </g>
</svg>
