<?xml version="1.0" encoding="UTF-8"?>
<!DOCTYPE svg PUBLIC "-//W3C//DTD SVG 1.1//EN" "http://www.w3.org/Graphics/SVG/1.1/DTD/svg11.dtd">
<svg version="1.1" xmlns="http://www.w3.org/2000/svg" xmlns:xlink="http://www.w3.org/1999/xlink" x="0" y="0" width="39.706" height="32.01" viewBox="0, 0, 39.706, 32.01">
  <g id="Layer_1">
    <g>
      <path d="M37.791,11.202 C37.791,11.202 37.778,11.212 37.759,11.227 C37.785,11.223 37.797,11.216 37.791,11.202" fill="#9A6E38"/>
      <path d="M25.741,8.682 C25.738,8.682 25.732,8.68 25.729,8.681 C25.711,8.684 25.717,8.684 25.741,8.682" fill="#9A6E38"/>
      <path d="M7.981,17.225 C7.985,17.237 7.989,17.246 7.993,17.257 C7.988,17.268 7.983,17.278 7.979,17.288 C7.98,17.268 7.98,17.246 7.981,17.225 M18.792,20.448 C18.586,20.082 18.565,19.86 18.53,19.713 C18.64,19.95 18.729,20.194 18.792,20.448 M39.045,19.735 C38.999,19.67 38.957,19.633 38.924,19.631 C37.52,19.419 35.801,19.401 34.189,19.536 L34.598,18.258 C34.148,18.095 33.58,18.436 33.572,18.727 C33.567,18.699 33.562,18.672 33.557,18.645 C33.561,18.049 33.682,17.032 33.832,16.553 C33.986,16.066 34.557,14.36 35.065,13.712 C35.791,12.788 37.512,11.421 37.758,11.227 C37.473,11.266 35.391,10.821 33.932,13.108 C33.658,13.538 33.465,14.058 33.332,14.602 C33.459,13.858 33.674,13.034 34.021,12.17 C34.213,11.69 35.322,9.611 35.936,9.054 C37.12,7.978 38.851,7.088 38.851,7.088 C38.851,7.088 35.25,6.74 33.364,8.939 C32.573,9.861 32.289,11.757 32.244,13.615 C32.1,12.951 31.91,12.279 31.662,11.649 C30.329,8.253 26.08,8.654 25.74,8.682 C25.946,8.68 27.587,9.632 28.799,10.908 C29.683,11.84 30.52,13.305 30.875,13.907 C31.459,14.896 32.297,17.394 32.424,18.302 C32.382,18.442 32.355,18.589 32.287,18.751 C31.976,18.36 31.672,18.137 31.117,18.176 L31.828,19.869 C30.324,20.18 29.213,20.654 29.045,21.24 C28.5,19.768 29.732,19.82 28.047,19.474 C24.773,19.149 21.612,19.705 19.989,20.554 C20.673,18.379 23.025,16.685 24.367,14.911 C22.795,15.108 20.805,15.624 20.108,17.646 C19.749,18.469 19.523,19.237 19.408,20.06 C19.414,19.614 19.421,19.092 19.43,18.496 C19.45,17.355 19.476,15.947 19.509,14.281 C19.968,14.333 20.406,14.239 20.58,13.572 C20.379,12.963 20.809,12.415 21.257,11.879 C20.938,11.82 20.642,11.824 20.371,11.899 L20.379,11.87 C20.117,11.524 19.779,11.094 19.422,10.842 C19.048,11.078 18.787,11.533 18.507,11.882 L18.511,11.897 C18.222,11.801 17.902,11.789 17.555,11.854 C18.003,12.39 18.434,12.938 18.232,13.546 C18.409,14.222 18.855,14.31 19.32,14.253 L19.32,14.264 C19.301,15.951 19.283,17.359 19.269,18.495 C19.262,18.853 19.256,19.173 19.252,19.464 C19.174,18.92 19.027,18.381 18.836,17.733 C18.14,15.711 15.868,15.111 14.296,14.913 C15.461,16.432 17.539,17.767 18.452,19.553 C18.351,19.454 18.12,19.411 17.483,19.336 C13.33,19.264 11.618,19.764 10.164,20.704 C10.056,20.535 9.947,20.396 9.849,20.325 C9.49,20.066 9.265,19.666 9.271,19.083 L10.061,17.36 C9.706,17.235 9.275,17.42 9.12,17.641 C9.186,16.872 9.478,15.356 10.039,13.619 C10.411,12.467 12.612,10.067 12.612,10.067 C12.631,9.962 11.006,10.172 9.448,12.525 C9.004,13.195 8.777,14.095 8.678,14.949 C8.759,13.612 8.991,12.007 9.562,10.637 C10.087,9.377 13.376,7.734 13.376,7.734 C13.376,7.734 10.968,7.679 8.837,9.454 C7.997,10.154 7.589,11.198 7.437,12.31 C7.37,12.1 7.298,11.892 7.216,11.691 C5.82,8.263 1.436,8.626 1.418,8.896 C1.418,8.896 5.524,11.704 6.117,13.26 C6.86,15.21 7.314,16.637 7.526,17.539 C7.3,17.354 7.042,17.255 6.662,17.282 L7.473,19.382 C5.468,19.267 1.078,19.512 0.056,20.478 C0.294,22.434 0.022,24.502 0,26.702 C13.588,26.661 25.799,26.644 39.594,26.702 L39.705,21.371 C39.432,21.431 39.889,20.489 39.045,19.735" fill="#9A6E38"/>
      <path d="M30.059,8.674 C30.015,10.283 29.761,11.838 28.899,13.233 C28.47,13.926 27.955,14.539 26.909,14.818 C27.756,12.452 27.92,10.216 27.815,7.958 C27.785,7.293 28.049,7.147 28.64,7.172 C30.18,7.235 30.108,6.84 30.059,8.674 M9.893,13.233 C9.031,11.838 8.777,10.283 8.734,8.674 C8.685,6.84 8.612,7.235 10.152,7.172 C10.744,7.147 11.008,7.293 10.977,7.958 C10.872,10.216 11.038,12.452 11.884,14.818 C10.836,14.539 10.322,13.926 9.893,13.233 M31.62,4.947 C30.587,4.894 29.549,4.934 28.514,4.904 C28.289,4.897 28.04,4.858 27.981,4.681 C27.856,4.315 27.872,3.691 27.881,3.12 C27.891,2.428 28.483,2.666 28.919,2.559 C28.919,2.3 28.918,1.99 28.919,1.679 C28.92,0.502 28.92,0.501 27.782,0.501 C25.024,0.5 22.265,0.501 19.508,0.501 L19.396,0.501 L19.285,0.501 C16.527,0.501 13.769,0.5 11.011,0.501 C9.873,0.501 9.873,0.502 9.873,1.679 C9.874,1.99 9.873,2.3 9.873,2.559 C10.309,2.666 10.902,2.428 10.912,3.12 C10.92,3.691 10.937,4.315 10.812,4.681 C10.752,4.858 10.504,4.897 10.278,4.904 C9.244,4.934 8.205,4.894 7.173,4.947 C6.956,4.959 6.57,5.261 6.574,5.421 C6.629,7.432 6.611,9.458 6.876,11.446 C7.106,13.176 7.934,14.723 9.264,15.933 C10.165,16.754 11.207,17.187 12.455,17.117 C12.703,17.103 13.063,17.279 13.204,17.483 C14.235,18.979 15.493,20.19 17.151,20.981 C17.371,21.085 17.58,21.438 17.601,21.692 C17.663,22.405 17.634,23.126 17.614,23.842 C17.608,24.04 17.567,24.325 17.435,24.419 C16.171,25.327 15.473,26.549 15.371,28.173 C14.795,28.173 14.294,28.186 13.795,28.169 C13.35,28.153 13.18,28.345 13.195,28.788 C13.217,29.424 13.234,30.064 13.188,30.698 C13.141,31.337 13.389,31.514 14.009,31.51 C15.805,31.498 17.6,31.496 19.396,31.495 C21.192,31.496 22.988,31.498 24.784,31.51 C25.404,31.514 25.653,31.337 25.604,30.698 C25.558,30.064 25.577,29.424 25.598,28.788 C25.614,28.345 25.443,28.153 24.997,28.169 C24.498,28.186 23.997,28.173 23.422,28.173 C23.32,26.549 22.622,25.327 21.357,24.419 C21.226,24.325 21.185,24.04 21.178,23.842 C21.158,23.126 21.13,22.405 21.191,21.692 C21.213,21.438 21.422,21.085 21.642,20.981 C23.299,20.19 24.559,18.979 25.588,17.483 C25.729,17.279 26.089,17.103 26.336,17.117 C27.586,17.187 28.627,16.754 29.529,15.933 C30.858,14.723 31.686,13.176 31.917,11.446 C32.181,9.458 32.164,7.432 32.218,5.421 C32.223,5.261 31.836,4.959 31.62,4.947" fill="#9A6E38"/>
      <path d="M30.059,8.674 C30.015,10.283 29.761,11.838 28.899,13.233 C28.47,13.926 27.955,14.539 26.909,14.818 C27.756,12.452 27.92,10.216 27.815,7.958 C27.785,7.293 28.049,7.147 28.64,7.172 C30.18,7.235 30.108,6.84 30.059,8.674 z M9.893,13.233 C9.031,11.838 8.777,10.283 8.734,8.674 C8.685,6.84 8.612,7.235 10.152,7.172 C10.744,7.147 11.008,7.293 10.977,7.958 C10.872,10.216 11.038,12.452 11.884,14.818 C10.836,14.539 10.322,13.926 9.893,13.233 z M31.62,4.947 C30.587,4.894 29.549,4.934 28.514,4.904 C28.289,4.897 28.04,4.858 27.981,4.681 C27.856,4.315 27.872,3.691 27.881,3.12 C27.891,2.428 28.483,2.666 28.919,2.559 C28.919,2.3 28.918,1.99 28.919,1.679 C28.92,0.502 28.92,0.501 27.782,0.501 C25.024,0.5 22.265,0.501 19.508,0.501 L19.396,0.501 L19.285,0.501 C16.527,0.501 13.769,0.5 11.011,0.501 C9.873,0.501 9.873,0.502 9.873,1.679 C9.874,1.99 9.873,2.3 9.873,2.559 C10.309,2.666 10.902,2.428 10.912,3.12 C10.92,3.691 10.937,4.315 10.812,4.681 C10.752,4.858 10.504,4.897 10.278,4.904 C9.244,4.934 8.205,4.894 7.173,4.947 C6.956,4.959 6.57,5.261 6.574,5.421 C6.629,7.432 6.611,9.458 6.876,11.446 C7.106,13.176 7.934,14.723 9.264,15.933 C10.165,16.754 11.207,17.187 12.455,17.117 C12.703,17.103 13.063,17.279 13.204,17.483 C14.235,18.979 15.493,20.19 17.151,20.981 C17.371,21.085 17.58,21.438 17.601,21.692 C17.663,22.405 17.634,23.126 17.614,23.842 C17.608,24.04 17.567,24.325 17.435,24.419 C16.171,25.327 15.473,26.549 15.371,28.173 C14.795,28.173 14.294,28.186 13.795,28.169 C13.35,28.153 13.18,28.345 13.195,28.788 C13.217,29.424 13.234,30.064 13.188,30.698 C13.141,31.337 13.389,31.514 14.009,31.51 C15.805,31.498 17.6,31.496 19.396,31.495 C21.192,31.496 22.988,31.498 24.784,31.51 C25.404,31.514 25.653,31.337 25.604,30.698 C25.558,30.064 25.577,29.424 25.598,28.788 C25.614,28.345 25.443,28.153 24.997,28.169 C24.498,28.186 23.997,28.173 23.422,28.173 C23.32,26.549 22.622,25.327 21.357,24.419 C21.226,24.325 21.185,24.04 21.178,23.842 C21.158,23.126 21.13,22.405 21.191,21.692 C21.213,21.438 21.422,21.085 21.642,20.981 C23.299,20.19 24.559,18.979 25.588,17.483 C25.729,17.279 26.089,17.103 26.336,17.117 C27.586,17.187 28.627,16.754 29.529,15.933 C30.858,14.723 31.686,13.176 31.917,11.446 C32.181,9.458 32.164,7.432 32.218,5.421 C32.223,5.261 31.836,4.959 31.62,4.947 z" fill-opacity="0" stroke="#FDF5E0" stroke-width="1"/>
    </g>
    <text transform="matrix(1, 0, -0, 1, 19.619, 10.71)">
      <tspan x="-5.454" y="2.5" font-family="Love*Monster" font-size="12" kerning="-0.144" fill="#FDF5E0">1</tspan>
      <tspan x="-4.002" y="2.5" font-family="Love*Monster" font-size="12" kerning="-0.048" fill="#FDF5E0">0</tspan>
      <tspan x="0.702" y="2.5" font-family="Love*Monster" font-size="12" kerning="0" fill="#FDF5E0">0</tspan>
    </text>
  </g>
</svg>
