<?xml version="1.0" encoding="UTF-8"?>
<!DOCTYPE svg PUBLIC "-//W3C//DTD SVG 1.1//EN" "http://www.w3.org/Graphics/SVG/1.1/DTD/svg11.dtd">
<svg version="1.1" xmlns="http://www.w3.org/2000/svg" xmlns:xlink="http://www.w3.org/1999/xlink" x="0" y="0" width="20.779" height="26.691" viewBox="0, 0, 20.779, 26.691">
  <defs>
    <clipPath id="Clip_1">
      <path d="M0,-0 L20.779,-0 L20.779,26.691 L0,26.691 z"/>
    </clipPath>
  </defs>
  <g id="Layer_1">
    <g clip-path="url(#Clip_1)">
      <path d="M13.796,15.747 L13.797,15.73 L14.15,15.629 L14.996,3.808 L14.704,3.728 L14.704,3.737 L13.028,3.495 L13.028,3.514 C10.017,3.061 9.507,3.223 7.843,3.42 L7.843,3.413 L6.035,3.658 L7.025,15.701 L8.398,15.684 L8.398,15.682 L8.653,15.518 L8.295,4.983 C10.698,4.504 11.248,5.014 12.962,5.077 L12.509,15.729 z" fill="#9A6E38"/>
      <path d="M5.268,17.414 L5.269,17.428 L5.98,17.019 L5.014,2.957 C9.191,2.316 14.335,2.818 15.66,3.074 L14.816,17.289 L17.232,17.477 L17.927,17.185 L19.644,0.925 L19.076,0.783 L19.078,0.77 L16.111,0.463 C16.115,0.435 11.868,-0.575 4.312,0.48 L4.311,0.467 L1.118,0.766 L2.94,17.471 z" fill="#9A6E38"/>
      <path d="M5.528,22.074 L6.489,20.445 L14.429,20.51 L15.407,22.166 z M12.628,17.455 L13.356,18.69 L7.56,18.629 L8.274,17.42 z M11.52,15.262 L11.544,15.618 L11.939,16.287 L8.961,16.256 L9.3,15.679 L9.323,15.285 L9.325,15.282 L9.323,15.282 L9.325,15.256 L9.31,15.281 L8.839,15.273 L2.083,25.455 L3.112,25.542 L3.128,25.515 L3.167,26.076 L3.943,24.76 L16.991,24.851 L17.676,26.014 L17.716,25.453 L18.695,25.456 L11.911,15.24 z" fill="#9A6E38"/>
      <path d="M18.718,8.48 C18.683,9.737 18.486,10.952 17.812,12.04 C17.478,12.582 17.075,13.061 16.257,13.278 C16.919,11.431 17.048,9.685 16.966,7.92 C16.942,7.402 17.148,7.288 17.61,7.307 C18.812,7.356 18.755,7.048 18.718,8.48 M2.968,12.04 C2.294,10.952 2.095,9.737 2.062,8.48 C2.025,7.048 1.967,7.356 3.17,7.307 C3.632,7.288 3.838,7.402 3.815,7.92 C3.732,9.685 3.861,11.431 4.522,13.278 C3.705,13.061 3.302,12.582 2.968,12.04 M19.937,5.569 C19.13,5.528 18.32,5.56 17.512,5.536 C17.335,5.53 17.142,5.5 17.095,5.361 C16.997,5.076 17.01,4.588 17.017,4.142 C17.025,3.602 17.488,3.788 17.827,3.704 L17.827,3.017 C17.827,2.098 17.827,2.097 16.939,2.097 C14.784,2.096 12.63,2.097 10.477,2.097 L10.39,2.097 L10.303,2.097 C8.149,2.097 5.995,2.096 3.841,2.097 C2.952,2.097 2.952,2.098 2.952,3.017 C2.953,3.26 2.952,3.502 2.952,3.704 C3.293,3.788 3.756,3.602 3.763,4.142 C3.77,4.588 3.782,5.076 3.685,5.361 C3.638,5.5 3.445,5.53 3.268,5.536 C2.46,5.56 1.649,5.528 0.843,5.569 C0.673,5.578 0.371,5.815 0.375,5.939 C0.418,7.51 0.404,9.092 0.611,10.646 C0.791,11.997 1.438,13.205 2.476,14.149 C3.18,14.791 3.994,15.129 4.968,15.075 C5.162,15.064 5.444,15.201 5.553,15.361 C6.358,16.529 7.342,17.474 8.636,18.092 C8.807,18.173 8.971,18.449 8.988,18.648 C9.036,19.205 9.013,19.767 8.998,20.328 C8.993,20.482 8.961,20.704 8.859,20.777 C7.871,21.487 7.325,22.442 7.245,23.71 C6.797,23.71 6.405,23.72 6.015,23.707 C5.668,23.694 5.535,23.844 5.547,24.189 C5.563,24.687 5.577,25.187 5.541,25.681 C5.504,26.181 5.697,26.32 6.182,26.316 C7.585,26.306 8.987,26.304 10.39,26.304 C11.793,26.304 13.195,26.306 14.597,26.316 C15.081,26.32 15.277,26.181 15.239,25.681 C15.202,25.187 15.216,24.687 15.234,24.189 C15.245,23.844 15.113,23.694 14.765,23.707 C14.374,23.72 13.984,23.71 13.534,23.71 C13.454,22.442 12.909,21.487 11.922,20.777 C11.819,20.704 11.787,20.482 11.781,20.328 C11.766,19.767 11.744,19.205 11.792,18.648 C11.809,18.449 11.972,18.173 12.144,18.092 C13.439,17.474 14.421,16.529 15.226,15.361 C15.335,15.201 15.617,15.064 15.81,15.075 C16.786,15.129 17.599,14.791 18.304,14.149 C19.342,13.205 19.989,11.997 20.169,10.646 C20.375,9.092 20.363,7.51 20.405,5.939 C20.407,5.815 20.107,5.578 19.937,5.569" fill="#9A6E38"/>
      <path d="M18.718,8.48 C18.683,9.737 18.486,10.952 17.812,12.04 C17.478,12.582 17.075,13.061 16.257,13.278 C16.919,11.431 17.048,9.685 16.966,7.92 C16.942,7.402 17.148,7.288 17.61,7.307 C18.812,7.356 18.755,7.048 18.718,8.48 z M2.968,12.04 C2.294,10.952 2.095,9.737 2.062,8.48 C2.025,7.048 1.967,7.356 3.17,7.307 C3.632,7.288 3.838,7.402 3.815,7.92 C3.732,9.685 3.861,11.431 4.522,13.278 C3.705,13.061 3.302,12.582 2.968,12.04 z M19.937,5.569 C19.13,5.528 18.32,5.56 17.512,5.536 C17.335,5.53 17.142,5.5 17.095,5.361 C16.997,5.076 17.01,4.588 17.017,4.142 C17.025,3.602 17.488,3.788 17.827,3.704 L17.827,3.017 C17.827,2.098 17.827,2.097 16.939,2.097 C14.784,2.096 12.63,2.097 10.477,2.097 L10.39,2.097 L10.303,2.097 C8.149,2.097 5.995,2.096 3.841,2.097 C2.952,2.097 2.952,2.098 2.952,3.017 C2.953,3.26 2.952,3.502 2.952,3.704 C3.293,3.788 3.756,3.602 3.763,4.142 C3.77,4.588 3.782,5.076 3.685,5.361 C3.638,5.5 3.445,5.53 3.268,5.536 C2.46,5.56 1.649,5.528 0.843,5.569 C0.673,5.578 0.371,5.815 0.375,5.939 C0.418,7.51 0.404,9.092 0.611,10.646 C0.791,11.997 1.438,13.205 2.476,14.149 C3.18,14.791 3.994,15.129 4.968,15.075 C5.162,15.064 5.444,15.201 5.553,15.361 C6.358,16.529 7.342,17.474 8.636,18.092 C8.807,18.173 8.971,18.449 8.988,18.648 C9.036,19.205 9.013,19.767 8.998,20.328 C8.993,20.482 8.961,20.704 8.859,20.777 C7.871,21.487 7.325,22.442 7.245,23.71 C6.797,23.71 6.405,23.72 6.015,23.707 C5.668,23.694 5.535,23.844 5.547,24.189 C5.563,24.687 5.577,25.187 5.541,25.681 C5.504,26.181 5.697,26.32 6.182,26.316 C7.585,26.306 8.987,26.304 10.39,26.304 C11.793,26.304 13.195,26.306 14.597,26.316 C15.081,26.32 15.277,26.181 15.239,25.681 C15.202,25.187 15.216,24.687 15.234,24.189 C15.245,23.844 15.113,23.694 14.765,23.707 C14.374,23.72 13.984,23.71 13.534,23.71 C13.454,22.442 12.909,21.487 11.922,20.777 C11.819,20.704 11.787,20.482 11.781,20.328 C11.766,19.767 11.744,19.205 11.792,18.648 C11.809,18.449 11.972,18.173 12.144,18.092 C13.439,17.474 14.421,16.529 15.226,15.361 C15.335,15.201 15.617,15.064 15.81,15.075 C16.786,15.129 17.599,14.791 18.304,14.149 C19.342,13.205 19.989,11.997 20.169,10.646 C20.375,9.092 20.363,7.51 20.405,5.939 C20.407,5.815 20.107,5.578 19.937,5.569 z" fill-opacity="0" stroke="#FDF5E0" stroke-width="0.75"/>
    </g>
    <text transform="matrix(1, 0, -0, 1, 10.536, 10.023)">
      <tspan x="-3.515" y="2" font-family="Love*Monster" font-size="9.373" kerning="-0.178" fill="#FDF5E0">5</tspan>
      <tspan x="-0.197" y="2" font-family="Love*Monster" font-size="9.373" kerning="0" fill="#FDF5E0">0</tspan>
    </text>
  </g>
</svg>
