<?xml version="1.0" encoding="UTF-8"?>
<!DOCTYPE svg PUBLIC "-//W3C//DTD SVG 1.1//EN" "http://www.w3.org/Graphics/SVG/1.1/DTD/svg11.dtd">
<svg version="1.1" xmlns="http://www.w3.org/2000/svg" xmlns:xlink="http://www.w3.org/1999/xlink" x="0" y="0" width="20.78" height="26.691" viewBox="0, 0, 20.78, 26.691">
  <defs>
    <clipPath id="Clip_1">
      <path d="M-0,0 L20.78,0 L20.78,26.691 L-0,26.691 z"/>
    </clipPath>
  </defs>
  <g id="Layer_1">
    <g clip-path="url(#Clip_1)">
      <path d="M13.795,15.746 L13.797,15.729 L14.149,15.629 L14.996,3.807 L14.704,3.728 L14.703,3.736 L13.027,3.495 L13.027,3.513 C10.016,3.061 9.506,3.223 7.843,3.42 L7.843,3.412 L6.034,3.658 L7.024,15.701 L8.397,15.684 L8.397,15.681 L8.653,15.517 L8.295,4.983 C10.697,4.504 11.247,5.014 12.961,5.076 L12.509,15.728 z" fill="#9A6E38"/>
      <path d="M5.268,17.414 L5.269,17.428 L5.98,17.019 L5.014,2.956 C9.191,2.315 14.335,2.817 15.659,3.073 L14.816,17.289 L17.231,17.476 L17.927,17.185 L19.644,0.925 L19.075,0.782 L19.077,0.769 L16.11,0.463 C16.115,0.435 11.868,-0.576 4.312,0.48 L4.311,0.466 L1.118,0.765 L2.94,17.471 z" fill="#9A6E38"/>
      <path d="M5.528,22.073 L6.489,20.445 L14.43,20.509 L15.406,22.165 z M12.627,17.454 L13.357,18.689 L7.56,18.629 L8.274,17.419 z M11.52,15.261 L11.544,15.617 L11.939,16.287 L8.961,16.255 L9.3,15.679 L9.323,15.284 L9.325,15.281 L9.323,15.281 L9.325,15.255 L9.31,15.281 L8.839,15.273 L2.083,25.455 L3.112,25.541 L3.128,25.515 L3.167,26.076 L3.943,24.76 L16.991,24.851 L17.677,26.013 L17.717,25.453 L18.695,25.455 L11.911,15.24 z" fill="#9A6E38"/>
      <path d="M18.717,8.48 C18.683,9.737 18.485,10.952 17.811,12.04 C17.477,12.582 17.074,13.061 16.257,13.278 C16.918,11.431 17.047,9.685 16.965,7.92 C16.942,7.402 17.148,7.288 17.61,7.307 C18.812,7.356 18.755,7.048 18.717,8.48 M2.967,12.04 C2.294,10.952 2.095,9.737 2.062,8.48 C2.024,7.048 1.967,7.356 3.17,7.307 C3.631,7.288 3.838,7.402 3.814,7.92 C3.731,9.685 3.861,11.431 4.522,13.278 C3.704,13.061 3.302,12.582 2.967,12.04 M19.936,5.569 C19.13,5.528 18.319,5.56 17.512,5.536 C17.335,5.53 17.141,5.5 17.094,5.361 C16.996,5.076 17.01,4.588 17.016,4.142 C17.024,3.602 17.487,3.788 17.827,3.704 C17.827,3.502 17.826,3.26 17.827,3.017 C17.827,2.098 17.827,2.097 16.939,2.097 C14.784,2.096 12.629,2.097 10.476,2.097 L10.389,2.097 L10.302,2.097 C8.149,2.097 5.994,2.096 3.841,2.097 C2.951,2.097 2.951,2.098 2.951,3.017 C2.952,3.26 2.951,3.502 2.951,3.704 C3.292,3.788 3.755,3.602 3.763,4.142 C3.769,4.588 3.782,5.076 3.685,5.361 C3.637,5.5 3.444,5.53 3.268,5.536 C2.46,5.56 1.648,5.528 0.842,5.569 C0.673,5.578 0.371,5.815 0.375,5.939 C0.417,7.51 0.404,9.092 0.611,10.646 C0.79,11.997 1.437,13.205 2.475,14.149 C3.179,14.791 3.993,15.129 4.968,15.074 C5.162,15.063 5.443,15.201 5.553,15.36 C6.358,16.528 7.341,17.475 8.635,18.092 C8.807,18.174 8.97,18.449 8.987,18.648 C9.035,19.205 9.013,19.767 8.998,20.327 C8.993,20.481 8.961,20.703 8.858,20.777 C7.871,21.486 7.324,22.441 7.245,23.71 C6.796,23.71 6.404,23.72 6.014,23.706 C5.667,23.693 5.534,23.844 5.547,24.189 C5.563,24.688 5.576,25.187 5.541,25.682 C5.504,26.181 5.697,26.319 6.182,26.316 C7.584,26.307 8.986,26.305 10.389,26.305 C11.792,26.305 13.195,26.307 14.597,26.316 C15.081,26.319 15.276,26.181 15.238,25.682 C15.201,25.187 15.216,24.688 15.233,24.189 C15.244,23.844 15.112,23.693 14.764,23.706 C14.374,23.72 13.983,23.71 13.533,23.71 C13.453,22.441 12.908,21.486 11.921,20.777 C11.818,20.703 11.786,20.481 11.781,20.327 C11.766,19.767 11.743,19.205 11.791,18.648 C11.809,18.449 11.971,18.174 12.143,18.092 C13.438,17.475 14.421,16.528 15.226,15.36 C15.335,15.201 15.617,15.063 15.81,15.074 C16.785,15.129 17.599,14.791 18.303,14.149 C19.342,13.205 19.988,11.997 20.168,10.646 C20.375,9.092 20.362,7.51 20.404,5.939 C20.407,5.815 20.106,5.578 19.936,5.569" fill="#9A6E38"/>
      <path d="M18.717,8.48 C18.683,9.737 18.485,10.952 17.811,12.04 C17.477,12.582 17.074,13.061 16.257,13.278 C16.918,11.431 17.047,9.685 16.965,7.92 C16.942,7.402 17.148,7.288 17.61,7.307 C18.812,7.356 18.755,7.048 18.717,8.48 z M2.967,12.04 C2.294,10.952 2.095,9.737 2.062,8.48 C2.024,7.048 1.967,7.356 3.17,7.307 C3.631,7.288 3.838,7.402 3.814,7.92 C3.731,9.685 3.861,11.431 4.522,13.278 C3.704,13.061 3.302,12.582 2.967,12.04 z M19.936,5.569 C19.13,5.528 18.319,5.56 17.512,5.536 C17.335,5.53 17.141,5.5 17.094,5.361 C16.996,5.076 17.01,4.588 17.016,4.142 C17.024,3.602 17.487,3.788 17.827,3.704 C17.827,3.502 17.826,3.26 17.827,3.017 C17.827,2.098 17.827,2.097 16.939,2.097 C14.784,2.096 12.629,2.097 10.476,2.097 L10.389,2.097 L10.302,2.097 C8.149,2.097 5.994,2.096 3.841,2.097 C2.951,2.097 2.951,2.098 2.951,3.017 C2.952,3.26 2.951,3.502 2.951,3.704 C3.292,3.788 3.755,3.602 3.763,4.142 C3.769,4.588 3.782,5.076 3.685,5.361 C3.637,5.5 3.444,5.53 3.268,5.536 C2.46,5.56 1.648,5.528 0.842,5.569 C0.673,5.578 0.371,5.815 0.375,5.939 C0.417,7.51 0.404,9.092 0.611,10.646 C0.79,11.997 1.437,13.205 2.475,14.149 C3.179,14.791 3.993,15.129 4.968,15.074 C5.162,15.063 5.443,15.201 5.553,15.36 C6.358,16.528 7.341,17.475 8.635,18.092 C8.807,18.174 8.97,18.449 8.987,18.648 C9.035,19.205 9.013,19.767 8.998,20.327 C8.993,20.481 8.961,20.703 8.858,20.777 C7.871,21.486 7.324,22.441 7.245,23.71 C6.796,23.71 6.404,23.72 6.014,23.706 C5.667,23.693 5.534,23.844 5.547,24.189 C5.563,24.688 5.576,25.187 5.541,25.682 C5.504,26.181 5.697,26.319 6.182,26.316 C7.584,26.307 8.986,26.305 10.389,26.305 C11.792,26.305 13.195,26.307 14.597,26.316 C15.081,26.319 15.276,26.181 15.238,25.682 C15.201,25.187 15.216,24.688 15.233,24.189 C15.244,23.844 15.112,23.693 14.764,23.706 C14.374,23.72 13.983,23.71 13.533,23.71 C13.453,22.441 12.908,21.486 11.921,20.777 C11.818,20.703 11.786,20.481 11.781,20.327 C11.766,19.767 11.743,19.205 11.791,18.648 C11.809,18.449 11.971,18.174 12.143,18.092 C13.438,17.475 14.421,16.528 15.226,15.36 C15.335,15.201 15.617,15.063 15.81,15.074 C16.785,15.129 17.599,14.791 18.303,14.149 C19.342,13.205 19.988,11.997 20.168,10.646 C20.375,9.092 20.362,7.51 20.404,5.939 C20.407,5.815 20.106,5.578 19.936,5.569 z" fill-opacity="0" stroke="#FDF5E0" stroke-width="0.75"/>
    </g>
    <text transform="matrix(1, 0, -0, 1, 10.388, 10.023)">
      <tspan x="-0.68" y="2" font-family="Love*Monster" font-size="9.373" kerning="0" fill="#FDF5E0">1</tspan>
    </text>
  </g>
</svg>
