<?xml version="1.0" encoding="UTF-8"?>
<!DOCTYPE svg PUBLIC "-//W3C//DTD SVG 1.1//EN" "http://www.w3.org/Graphics/SVG/1.1/DTD/svg11.dtd">
<svg version="1.1" xmlns="http://www.w3.org/2000/svg" xmlns:xlink="http://www.w3.org/1999/xlink" x="0" y="0" width="20.779" height="26.691" viewBox="0, 0, 20.779, 26.691">
  <defs>
    <clipPath id="Clip_1">
      <path d="M0,0 L20.779,0 L20.779,26.691 L0,26.691 z"/>
    </clipPath>
  </defs>
  <g id="Layer_1">
    <g clip-path="url(#Clip_1)">
      <path d="M13.795,15.747 L13.797,15.729 L14.149,15.628 L14.996,3.807 L14.705,3.728 L14.704,3.736 L13.028,3.495 L13.027,3.513 C10.017,3.061 9.507,3.223 7.843,3.42 L7.843,3.412 L6.035,3.658 L7.025,15.701 L8.398,15.684 L8.398,15.681 L8.653,15.517 L8.295,4.983 C10.698,4.504 11.248,5.014 12.961,5.076 L12.51,15.729 z" fill="#9A6E38"/>
      <path d="M5.268,17.414 L5.269,17.428 L5.98,17.018 L5.014,2.956 C9.191,2.315 14.335,2.817 15.659,3.073 L14.817,17.288 L17.231,17.477 L17.926,17.185 L19.645,0.925 L19.076,0.782 L19.077,0.769 L16.111,0.463 C16.116,0.435 11.868,-0.576 4.312,0.48 L4.311,0.466 L1.118,0.765 L2.94,17.471 z" fill="#9A6E38"/>
      <path d="M5.528,22.073 L6.489,20.445 L14.429,20.509 L15.406,22.165 z M12.628,17.454 L13.357,18.69 L7.56,18.628 L8.274,17.419 z M11.52,15.262 L11.544,15.618 L11.939,16.286 L8.961,16.255 L9.3,15.679 L9.323,15.284 L9.325,15.282 L9.323,15.282 L9.325,15.255 L9.31,15.281 L8.839,15.273 L2.083,25.454 L3.112,25.542 L3.128,25.515 L3.167,26.076 L3.943,24.76 L16.992,24.851 L17.677,26.014 L17.716,25.452 L18.695,25.456 L11.911,15.239 z" fill="#9A6E38"/>
      <path d="M18.717,8.48 C18.684,9.737 18.485,10.952 17.812,12.04 C17.477,12.582 17.074,13.061 16.258,13.278 C16.919,11.431 17.048,9.685 16.965,7.92 C16.942,7.402 17.149,7.288 17.61,7.307 C18.813,7.356 18.756,7.048 18.717,8.48 M2.967,12.04 C2.294,10.952 2.095,9.737 2.062,8.48 C2.025,7.048 1.967,7.356 3.17,7.307 C3.632,7.288 3.838,7.402 3.815,7.92 C3.732,9.685 3.861,11.431 4.522,13.278 C3.705,13.061 3.302,12.582 2.967,12.04 M19.937,5.569 C19.131,5.528 18.32,5.56 17.512,5.536 C17.336,5.53 17.142,5.5 17.094,5.361 C16.996,5.076 17.01,4.588 17.016,4.142 C17.024,3.602 17.487,3.788 17.828,3.704 C17.828,3.502 17.826,3.26 17.828,3.017 C17.828,2.098 17.828,2.097 16.94,2.097 C14.785,2.096 12.63,2.097 10.477,2.097 L10.39,2.097 L10.303,2.097 C8.149,2.097 5.995,2.096 3.841,2.097 C2.952,2.097 2.952,2.098 2.952,3.017 C2.953,3.26 2.952,3.502 2.952,3.704 C3.293,3.788 3.756,3.602 3.763,4.142 C3.77,4.588 3.782,5.076 3.685,5.361 C3.638,5.5 3.445,5.53 3.268,5.536 C2.46,5.56 1.649,5.528 0.843,5.569 C0.673,5.578 0.371,5.815 0.375,5.939 C0.418,7.51 0.404,9.092 0.611,10.646 C0.791,11.997 1.438,13.205 2.476,14.149 C3.18,14.79 3.994,15.13 4.968,15.075 C5.162,15.063 5.444,15.201 5.553,15.36 C6.358,16.528 7.342,17.475 8.636,18.093 C8.807,18.174 8.971,18.449 8.988,18.647 C9.036,19.204 9.013,19.767 8.998,20.327 C8.993,20.481 8.961,20.704 8.859,20.777 C7.871,21.487 7.325,22.442 7.245,23.71 C6.797,23.71 6.405,23.72 6.015,23.706 C5.668,23.694 5.535,23.845 5.547,24.189 C5.563,24.687 5.577,25.187 5.541,25.682 C5.504,26.181 5.697,26.319 6.182,26.315 C7.585,26.307 8.987,26.305 10.39,26.304 C11.793,26.305 13.196,26.307 14.598,26.315 C15.082,26.319 15.276,26.181 15.238,25.682 C15.202,25.187 15.217,24.687 15.234,24.189 C15.245,23.845 15.113,23.694 14.764,23.706 C14.375,23.72 13.983,23.71 13.534,23.71 C13.454,22.442 12.908,21.487 11.922,20.777 C11.819,20.704 11.787,20.481 11.781,20.327 C11.766,19.767 11.744,19.204 11.792,18.647 C11.809,18.449 11.972,18.174 12.144,18.093 C13.439,17.475 14.422,16.528 15.227,15.36 C15.336,15.201 15.617,15.063 15.811,15.075 C16.786,15.13 17.6,14.79 18.304,14.149 C19.342,13.205 19.988,11.997 20.169,10.646 C20.375,9.092 20.362,7.51 20.404,5.939 C20.408,5.815 20.107,5.578 19.937,5.569" fill="#9A6E38"/>
      <path d="M18.717,8.48 C18.684,9.737 18.485,10.952 17.812,12.04 C17.477,12.582 17.074,13.061 16.258,13.278 C16.919,11.431 17.048,9.685 16.965,7.92 C16.942,7.402 17.149,7.288 17.61,7.307 C18.813,7.356 18.756,7.048 18.717,8.48 z M2.967,12.04 C2.294,10.952 2.095,9.737 2.062,8.48 C2.025,7.048 1.967,7.356 3.17,7.307 C3.632,7.288 3.838,7.402 3.815,7.92 C3.732,9.685 3.861,11.431 4.522,13.278 C3.705,13.061 3.302,12.582 2.967,12.04 z M19.937,5.569 C19.131,5.528 18.32,5.56 17.512,5.536 C17.336,5.53 17.142,5.5 17.094,5.361 C16.996,5.076 17.01,4.588 17.016,4.142 C17.024,3.602 17.487,3.788 17.828,3.704 C17.828,3.502 17.826,3.26 17.828,3.017 C17.828,2.098 17.828,2.097 16.94,2.097 C14.785,2.096 12.63,2.097 10.477,2.097 L10.39,2.097 L10.303,2.097 C8.149,2.097 5.995,2.096 3.841,2.097 C2.952,2.097 2.952,2.098 2.952,3.017 C2.953,3.26 2.952,3.502 2.952,3.704 C3.293,3.788 3.756,3.602 3.763,4.142 C3.77,4.588 3.782,5.076 3.685,5.361 C3.638,5.5 3.445,5.53 3.268,5.536 C2.46,5.56 1.649,5.528 0.843,5.569 C0.673,5.578 0.371,5.815 0.375,5.939 C0.418,7.51 0.404,9.092 0.611,10.646 C0.791,11.997 1.438,13.205 2.476,14.149 C3.18,14.79 3.994,15.13 4.968,15.075 C5.162,15.063 5.444,15.201 5.553,15.36 C6.358,16.528 7.342,17.475 8.636,18.093 C8.807,18.174 8.971,18.449 8.988,18.647 C9.036,19.204 9.013,19.767 8.998,20.327 C8.993,20.481 8.961,20.704 8.859,20.777 C7.871,21.487 7.325,22.442 7.245,23.71 C6.797,23.71 6.405,23.72 6.015,23.706 C5.668,23.694 5.535,23.845 5.547,24.189 C5.563,24.687 5.577,25.187 5.541,25.682 C5.504,26.181 5.697,26.319 6.182,26.315 C7.585,26.307 8.987,26.305 10.39,26.304 C11.793,26.305 13.196,26.307 14.598,26.315 C15.082,26.319 15.276,26.181 15.238,25.682 C15.202,25.187 15.217,24.687 15.234,24.189 C15.245,23.845 15.113,23.694 14.764,23.706 C14.375,23.72 13.983,23.71 13.534,23.71 C13.454,22.442 12.908,21.487 11.922,20.777 C11.819,20.704 11.787,20.481 11.781,20.327 C11.766,19.767 11.744,19.204 11.792,18.647 C11.809,18.449 11.972,18.174 12.144,18.093 C13.439,17.475 14.422,16.528 15.227,15.36 C15.336,15.201 15.617,15.063 15.811,15.075 C16.786,15.13 17.6,14.79 18.304,14.149 C19.342,13.205 19.988,11.997 20.169,10.646 C20.375,9.092 20.362,7.51 20.404,5.939 C20.408,5.815 20.107,5.578 19.937,5.569 z" fill-opacity="0" stroke="#FDF5E0" stroke-width="0.75"/>
    </g>
    <text transform="matrix(1, 0, -0, 1, 10.463, 10.023)">
      <tspan x="-4.26" y="2" font-family="Love*Monster" font-size="9.373" kerning="-0.112" fill="#FDF5E0">1</tspan>
      <tspan x="-3.126" y="2" font-family="Love*Monster" font-size="9.373" kerning="-0.037" fill="#FDF5E0">0</tspan>
      <tspan x="0.548" y="2" font-family="Love*Monster" font-size="9.373" kerning="0" fill="#FDF5E0">0</tspan>
    </text>
  </g>
</svg>
