<?xml version="1.0" encoding="UTF-8"?>
<!DOCTYPE svg PUBLIC "-//W3C//DTD SVG 1.1//EN" "http://www.w3.org/Graphics/SVG/1.1/DTD/svg11.dtd">
<svg version="1.1" xmlns="http://www.w3.org/2000/svg" xmlns:xlink="http://www.w3.org/1999/xlink" x="0" y="0" width="27.65" height="32.01" viewBox="0, 0, 27.65, 32.01">
  <defs>
    <clipPath id="Clip_1">
      <path d="M0,0 L27.65,0 L27.65,32.01 L0,32.01 z"/>
    </clipPath>
  </defs>
  <g id="Layer_1">
    <g clip-path="url(#Clip_1)">
      <path d="M12.836,26.335 L12.836,26.335 L12.836,26.335 z" fill="#9A6E38"/>
      <path d="M1.87,25.524 L1.87,25.524 L1.87,25.524 z" fill="#9A6E38"/>
      <path d="M8.997,18.191 C9.011,18.207 9.023,18.219 9.032,18.229 C9.025,18.219 9.014,18.206 9.002,18.191 z" fill="#9A6E38"/>
      <path d="M9.162,18.188 C9.142,18.199 9.124,18.208 9.108,18.215 L9.113,18.215 L9.177,18.188 z" fill="#9A6E38"/>
      <path d="M9.061,15.556 C9.056,15.557 9.051,15.557 9.047,15.558 L9.047,15.562 C9.051,15.561 9.056,15.561 9.061,15.56 z" fill="#9A6E38"/>
      <path d="M9.099,18.19 C9.092,18.196 9.086,18.2 9.08,18.203 L9.048,18.215 C9.047,18.227 9.047,18.236 9.047,18.241 L9.049,18.241 C9.051,18.239 9.055,18.235 9.06,18.231 C9.063,18.219 9.069,18.215 9.079,18.214 C9.088,18.208 9.098,18.2 9.108,18.19 z" fill="#9A6E38"/>
      <path d="M9.144,18.213 C9.17,18.203 9.174,18.211 9.235,18.188 C9.238,18.186 9.241,18.184 9.244,18.184 C9.231,18.184 9.218,18.186 9.206,18.186 C9.184,18.195 9.163,18.204 9.144,18.213" fill="#9A6E38"/>
      <path d="M9.281,13.623 C9.281,13.627 9.282,13.629 9.283,13.631 C9.29,13.626 9.298,13.618 9.306,13.608 C9.304,13.61 9.302,13.612 9.301,13.613 C9.292,13.619 9.286,13.622 9.281,13.623" fill="#9A6E38"/>
      <path d="M8.848,18.184 C8.876,18.194 8.903,18.204 8.929,18.211 C8.931,18.208 8.932,18.207 8.934,18.205 C8.921,18.2 8.907,18.194 8.892,18.186 C8.877,18.186 8.863,18.184 8.848,18.184" fill="#9A6E38"/>
      <path d="M8.917,13.226 C8.917,13.241 8.918,13.256 8.918,13.272 C8.919,13.268 8.92,13.264 8.922,13.26 C8.927,13.231 8.932,13.214 8.936,13.206 C8.929,13.211 8.922,13.218 8.917,13.225 C8.917,13.226 8.917,13.226 8.917,13.226" fill="#9A6E38"/>
      <path d="M9.339,13.568 C9.339,13.567 9.34,13.565 9.341,13.564 C9.34,13.566 9.339,13.568 9.337,13.57 C9.338,13.569 9.338,13.569 9.339,13.568" fill="#9A6E38"/>
      <path d="M9.114,13.267 C9.114,13.259 9.113,13.251 9.112,13.245 C9.107,13.207 9.101,13.17 9.095,13.133 C9.097,13.181 9.1,13.243 9.102,13.3 C9.106,13.288 9.11,13.278 9.114,13.267" fill="#9A6E38"/>
      <path d="M9.054,13.436 C9.057,13.429 9.062,13.419 9.067,13.407 C9.043,13.34 9.015,13.28 8.993,13.242 C9,13.26 9.008,13.28 9.015,13.301 C9.031,13.345 9.043,13.39 9.054,13.436" fill="#9A6E38"/>
      <path d="M9.03,12.848 C8.992,12.716 8.946,12.598 8.898,12.509 C8.881,12.479 8.856,12.44 8.827,12.399 C8.829,12.409 8.831,12.418 8.833,12.43 C8.878,12.678 8.935,12.913 8.998,13.106 C9,13.067 9.018,12.926 9.03,12.848" fill="#9A6E38"/>
      <path d="M8.94,18.189 C8.955,18.197 8.968,18.204 8.981,18.211 C8.983,18.211 8.986,18.213 8.989,18.213 C8.976,18.207 8.961,18.198 8.946,18.19 C8.943,18.189 8.942,18.189 8.94,18.189" fill="#9A6E38"/>
      <path d="M8.946,13.206 C8.948,13.204 8.95,13.203 8.953,13.203 L8.954,13.203 C8.954,13.202 8.954,13.201 8.953,13.2 C8.95,13.2 8.947,13.201 8.944,13.203 C8.944,13.204 8.945,13.205 8.946,13.206" fill="#9A6E38"/>
      <path d="M17.635,11.854 C17.639,11.848 17.643,11.837 17.648,11.825 C17.624,11.758 17.596,11.698 17.573,11.66 C17.581,11.678 17.589,11.698 17.596,11.719 C17.613,11.763 17.624,11.808 17.635,11.854" fill="#9A6E38"/>
      <path d="M17.863,12.042 C17.863,12.044 17.864,12.047 17.865,12.049 C17.871,12.044 17.879,12.036 17.888,12.025 C17.886,12.027 17.884,12.03 17.883,12.031 C17.874,12.037 17.867,12.04 17.863,12.042" fill="#9A6E38"/>
      <path d="M17.523,16.608 C17.537,16.616 17.55,16.623 17.562,16.63 C17.566,16.631 17.568,16.632 17.572,16.633 C17.558,16.626 17.544,16.617 17.529,16.608 C17.526,16.608 17.524,16.608 17.523,16.608" fill="#9A6E38"/>
      <path d="M17.527,11.625 C17.529,11.624 17.532,11.622 17.534,11.622 C17.535,11.622 17.535,11.622 17.535,11.622 L17.535,11.619 C17.532,11.62 17.529,11.621 17.525,11.622 C17.525,11.623 17.527,11.624 17.527,11.625" fill="#9A6E38"/>
      <path d="M17.578,16.609 C17.593,16.625 17.605,16.638 17.613,16.647 C17.605,16.638 17.596,16.625 17.584,16.609 z" fill="#9A6E38"/>
      <path d="M17.642,13.975 C17.637,13.975 17.632,13.976 17.628,13.977 L17.628,13.981 C17.632,13.98 17.637,13.979 17.642,13.979 z" fill="#9A6E38"/>
      <path d="M17.744,16.607 C17.723,16.617 17.705,16.626 17.689,16.634 C17.691,16.635 17.692,16.635 17.693,16.635 L17.758,16.607 C17.754,16.607 17.748,16.607 17.744,16.607" fill="#9A6E38"/>
      <path d="M17.681,16.609 C17.673,16.614 17.667,16.618 17.661,16.622 L17.629,16.634 C17.628,16.646 17.628,16.654 17.628,16.659 C17.628,16.659 17.63,16.659 17.63,16.66 C17.632,16.657 17.636,16.654 17.641,16.65 C17.644,16.637 17.651,16.633 17.661,16.633 C17.669,16.626 17.679,16.618 17.689,16.609 z" fill="#9A6E38"/>
      <path d="M17.5,11.644 C17.5,11.659 17.5,11.674 17.5,11.69 C17.501,11.686 17.501,11.682 17.503,11.678 C17.51,11.649 17.514,11.632 17.519,11.625 C17.511,11.63 17.503,11.636 17.5,11.644" fill="#9A6E38"/>
      <path d="M17.611,11.267 C17.574,11.135 17.528,11.016 17.48,10.928 C17.463,10.897 17.437,10.858 17.41,10.817 C17.411,10.827 17.413,10.837 17.414,10.848 C17.459,11.097 17.517,11.332 17.58,11.524 C17.582,11.485 17.6,11.344 17.611,11.267" fill="#9A6E38"/>
      <path d="M17.696,11.685 C17.695,11.677 17.694,11.669 17.693,11.663 C17.689,11.626 17.683,11.588 17.677,11.551 C17.679,11.599 17.681,11.661 17.683,11.718 C17.687,11.706 17.691,11.696 17.696,11.685" fill="#9A6E38"/>
      <path d="M25.792,18.25 L25.79,18.25 L25.79,18.248 L25.792,18.248 z M19.593,15.388 C19.464,16.012 18.892,16.432 17.9,16.634 C17.859,16.642 17.823,16.649 17.791,16.654 C17.792,16.657 17.794,16.659 17.794,16.662 C17.808,16.689 17.842,16.718 17.88,16.74 L17.951,16.781 L17.882,16.781 C17.833,16.781 17.802,16.772 17.769,16.75 C17.763,16.746 17.758,16.743 17.753,16.739 C17.755,16.794 17.763,16.864 17.773,16.899 C17.783,16.938 17.787,16.969 17.781,16.969 C17.775,16.969 17.755,16.953 17.736,16.934 C17.714,16.913 17.693,16.874 17.675,16.827 C17.651,16.918 17.548,17.127 17.548,17.084 C17.548,17.076 17.557,17.041 17.568,17.006 C17.583,16.955 17.589,16.903 17.587,16.853 C17.582,16.866 17.572,16.875 17.551,16.886 C17.497,16.92 17.484,16.92 17.501,16.887 C17.509,16.873 17.515,16.842 17.515,16.817 C17.515,16.802 17.517,16.79 17.522,16.778 C17.486,16.799 17.444,16.817 17.419,16.817 C17.401,16.817 17.402,16.812 17.429,16.786 C17.446,16.768 17.471,16.723 17.484,16.686 C17.489,16.674 17.494,16.663 17.498,16.654 C17.427,16.644 17.341,16.632 17.279,16.618 C16.414,16.43 15.861,16.048 15.691,15.519 C15.642,15.365 15.624,15.039 15.655,14.873 C15.736,14.45 15.921,14.124 16.303,13.739 C16.707,13.333 16.996,12.942 17.212,12.513 C17.31,12.32 17.321,12.288 17.329,12.152 C17.335,12.028 17.331,11.987 17.297,11.911 C17.275,11.862 17.259,11.818 17.263,11.814 C17.265,11.812 17.279,11.818 17.298,11.829 C17.244,11.721 17.166,11.625 17.099,11.591 C17.078,11.579 17.029,11.565 16.992,11.559 C16.937,11.55 16.949,11.549 17.051,11.552 C17.197,11.556 17.263,11.581 17.328,11.66 C17.333,11.666 17.336,11.672 17.34,11.677 C17.324,11.549 17.297,11.401 17.269,11.268 C17.208,10.995 17.145,10.812 17.041,10.613 C16.984,10.505 16.945,10.447 16.894,10.396 C16.86,10.361 16.853,10.35 16.863,10.35 C16.871,10.35 16.951,10.432 16.996,10.486 C17.208,10.741 17.362,11.03 17.443,11.32 C17.428,11.247 17.412,11.176 17.395,11.121 C17.359,11 17.352,10.951 17.353,10.832 C17.353,10.796 17.354,10.766 17.355,10.741 C17.328,10.705 17.3,10.671 17.275,10.642 C17.214,10.572 17.207,10.564 17.208,10.562 C17.214,10.557 17.281,10.614 17.33,10.664 C17.339,10.674 17.348,10.683 17.357,10.693 C17.363,10.632 17.374,10.645 17.392,10.731 C17.606,10.97 17.739,11.24 17.788,11.535 C17.79,11.547 17.791,11.564 17.792,11.583 C17.795,11.571 17.8,11.559 17.802,11.548 C17.809,11.443 17.812,11.235 17.804,11.192 C17.8,11.158 17.8,11.147 17.807,11.107 C17.816,11.05 17.841,10.965 17.864,10.913 C17.894,10.842 17.984,10.704 18.022,10.669 C18.054,10.64 18.05,10.668 18,10.879 C17.953,11.069 17.931,11.178 17.919,11.291 C18.078,11.013 18.316,10.758 18.609,10.558 C18.667,10.519 18.767,10.462 18.774,10.464 C18.784,10.467 18.773,10.475 18.731,10.5 C18.669,10.534 18.615,10.58 18.532,10.667 C18.376,10.831 18.265,10.989 18.132,11.236 C18.103,11.293 18.072,11.354 18.042,11.415 C18.04,11.455 18.033,11.517 18.025,11.551 C18.02,11.573 18.011,11.628 18.001,11.658 C17.996,11.681 17.979,11.722 17.96,11.768 C17.979,11.744 18,11.725 18.023,11.709 C18.108,11.651 18.178,11.644 18.32,11.68 C18.418,11.706 18.429,11.711 18.375,11.704 C18.337,11.699 18.287,11.699 18.263,11.704 C18.174,11.722 18.044,11.822 17.957,11.935 C17.976,11.912 17.997,11.891 18.016,11.875 C18.035,11.856 18.052,11.845 18.064,11.844 C18.072,11.841 18.078,11.839 18.083,11.839 C18.114,11.839 18.101,11.891 18.034,12.056 C17.93,12.304 17.93,12.302 18.057,12.541 C18.314,13.024 18.556,13.347 18.966,13.757 C19.134,13.924 19.21,14.011 19.283,14.12 C19.56,14.536 19.674,14.999 19.593,15.388 M17.544,16.907 C17.544,16.907 17.543,16.907 17.543,16.907 C17.543,16.907 17.544,16.907 17.544,16.906 z M14.141,24.484 C14.141,24.481 14.141,24.477 14.14,24.473 C14.141,24.475 14.141,24.477 14.141,24.479 z M12.921,26.078 L12.92,26.078 C12.922,26.078 12.926,26.076 12.931,26.074 z M12.835,26.057 L12.834,26.057 C12.832,26.053 12.83,26.05 12.826,26.047 C12.836,26.052 12.844,26.056 12.853,26.059 C12.846,26.059 12.841,26.057 12.835,26.057 M11.012,16.969 C10.882,17.594 10.312,18.014 9.319,18.215 C9.277,18.224 9.241,18.231 9.209,18.236 C9.21,18.239 9.212,18.24 9.213,18.244 C9.228,18.271 9.261,18.299 9.299,18.322 L9.369,18.362 L9.3,18.362 C9.252,18.362 9.22,18.354 9.188,18.332 C9.182,18.328 9.177,18.324 9.172,18.321 C9.173,18.375 9.181,18.445 9.19,18.481 C9.201,18.519 9.205,18.55 9.199,18.55 C9.193,18.55 9.173,18.534 9.154,18.516 C9.133,18.494 9.111,18.455 9.093,18.408 C9.069,18.5 8.967,18.708 8.966,18.666 C8.966,18.658 8.976,18.623 8.986,18.586 C9.001,18.537 9.008,18.485 9.006,18.435 C9,18.447 8.989,18.456 8.969,18.468 C8.915,18.501 8.901,18.502 8.919,18.469 C8.927,18.455 8.933,18.422 8.933,18.399 C8.933,18.383 8.936,18.371 8.94,18.359 C8.904,18.381 8.862,18.399 8.838,18.399 C8.818,18.399 8.82,18.393 8.846,18.367 C8.863,18.35 8.889,18.305 8.902,18.268 C8.907,18.256 8.911,18.244 8.915,18.235 C8.845,18.226 8.759,18.213 8.697,18.199 C7.832,18.012 7.279,17.629 7.109,17.1 C7.059,16.947 7.041,16.621 7.073,16.454 C7.152,16.031 7.339,15.706 7.721,15.32 C8.124,14.914 8.414,14.524 8.63,14.095 C8.728,13.902 8.738,13.869 8.746,13.734 C8.753,13.609 8.748,13.569 8.715,13.493 C8.692,13.443 8.678,13.399 8.682,13.395 C8.684,13.393 8.697,13.4 8.716,13.411 C8.661,13.303 8.583,13.207 8.517,13.172 C8.495,13.161 8.446,13.146 8.409,13.141 C8.355,13.132 8.366,13.131 8.469,13.133 C8.614,13.137 8.68,13.163 8.745,13.242 C8.75,13.247 8.754,13.253 8.758,13.259 C8.741,13.131 8.714,12.982 8.686,12.849 C8.626,12.576 8.563,12.393 8.458,12.194 C8.401,12.086 8.362,12.028 8.312,11.978 C8.277,11.943 8.27,11.932 8.28,11.932 C8.288,11.932 8.368,12.014 8.413,12.067 C8.625,12.323 8.779,12.611 8.86,12.902 C8.846,12.828 8.829,12.757 8.813,12.703 C8.776,12.582 8.769,12.532 8.771,12.414 C8.771,12.378 8.771,12.348 8.772,12.323 C8.745,12.287 8.718,12.252 8.692,12.224 C8.631,12.154 8.625,12.146 8.627,12.143 C8.632,12.139 8.699,12.196 8.748,12.245 C8.757,12.255 8.766,12.265 8.775,12.275 C8.781,12.214 8.792,12.226 8.81,12.313 C9.023,12.552 9.157,12.822 9.205,13.117 C9.208,13.129 9.208,13.145 9.209,13.165 C9.213,13.152 9.217,13.141 9.221,13.129 C9.227,13.024 9.229,12.817 9.222,12.773 C9.217,12.74 9.218,12.729 9.225,12.688 C9.234,12.631 9.259,12.547 9.281,12.495 C9.312,12.424 9.402,12.285 9.439,12.251 C9.472,12.221 9.469,12.249 9.417,12.46 C9.371,12.651 9.349,12.76 9.337,12.873 C9.495,12.595 9.734,12.34 10.027,12.139 C10.084,12.101 10.184,12.044 10.192,12.046 C10.202,12.049 10.191,12.057 10.149,12.081 C10.087,12.116 10.033,12.161 9.95,12.249 C9.794,12.412 9.683,12.571 9.551,12.818 C9.52,12.875 9.489,12.936 9.459,12.996 C9.458,13.037 9.451,13.098 9.443,13.132 C9.438,13.155 9.429,13.21 9.42,13.239 C9.413,13.263 9.397,13.304 9.378,13.35 C9.397,13.326 9.417,13.307 9.442,13.29 C9.526,13.233 9.596,13.226 9.737,13.262 C9.836,13.287 9.847,13.292 9.792,13.285 C9.755,13.281 9.705,13.281 9.681,13.286 C9.592,13.304 9.463,13.404 9.375,13.517 C9.394,13.494 9.415,13.473 9.435,13.456 C9.453,13.438 9.47,13.427 9.481,13.426 C9.489,13.423 9.496,13.42 9.501,13.42 C9.532,13.42 9.52,13.472 9.451,13.637 C9.348,13.886 9.348,13.884 9.475,14.122 C9.733,14.605 9.975,14.929 10.385,15.339 C10.552,15.505 10.628,15.593 10.701,15.702 C10.979,16.117 11.093,16.58 11.012,16.969 M8.962,18.489 L8.962,18.489 C8.962,18.489 8.962,18.489 8.962,18.489 M27.32,20.567 C27.249,20.453 27.174,20.362 27.009,20.188 C26.607,19.761 26.37,19.423 26.118,18.92 C25.994,18.671 25.994,18.672 26.093,18.414 C26.144,18.283 26.164,18.221 26.158,18.198 C26.162,18.194 26.164,18.188 26.167,18.183 C26.164,18.188 26.162,18.193 26.158,18.198 C26.156,18.195 26.155,18.192 26.153,18.19 C26.158,18.188 26.163,18.186 26.167,18.183 C26.17,18.182 26.173,18.18 26.177,18.178 C26.253,18.143 26.312,18.092 26.338,18.02 C26.43,17.776 26.537,17.549 26.517,17.253 C26.513,17.049 26.449,16.812 26.275,16.511 C26.87,16.261 27.009,15.783 26.975,15.326 C26.949,14.73 26.611,14.154 26.583,14.149 C26.583,14.149 25.421,13.535 24.961,13.486 C25.201,13.352 25.273,13.139 25.257,12.892 C25.25,12.343 24.763,11.603 24.717,11.207 C24.716,11.145 24.73,11.093 24.764,11.055 C24.976,10.815 25.275,10.084 25.238,9.371 C25.226,8.945 25.097,8.522 24.761,8.208 C23.587,7.107 22.514,7.33 21.958,7.682 C21.988,7.519 21.997,7.368 21.984,7.231 C21.895,5.722 19.464,5.697 19.46,5.702 C19.46,5.702 18.261,5.624 17.435,6.251 C17.57,5.959 17.615,5.676 17.599,5.424 C17.58,4.677 17.039,4.182 16.775,4.48 C16.919,4.085 16.974,3.772 16.957,3.527 C16.929,2.555 15.843,2.576 14.741,2.845 C13.589,2.024 12.834,1.591 11.968,1.546 C11.953,1.545 11.938,1.546 11.924,1.545 C11.567,1.531 11.191,1.582 10.758,1.699 C9.905,1.932 8.909,1.91 7.613,2.806 C7.61,2.802 7.607,2.798 7.604,2.795 C7.561,2.739 7.482,2.654 7.475,2.654 C7.464,2.654 7.472,2.665 7.506,2.701 C7.536,2.734 7.563,2.772 7.592,2.821 C7.439,2.927 7.284,3.043 7.123,3.177 C5.648,4.785 6.249,6.063 6.593,6.605 C6.56,6.656 6.528,6.707 6.5,6.759 C4.272,5.74 2.914,8.414 4.39,9.677 C3.772,9.163 2.473,8.555 1.947,9.471 C1.25,10.519 1.321,10.533 1.698,12.245 C-0.182,13.86 0.809,14.245 1.284,16.634 C0.011,18.348 0.439,19.868 1.632,20.327 C1.659,20.397 1.664,20.443 1.658,20.563 C1.65,20.705 1.64,20.739 1.544,20.94 C1.332,21.387 1.047,21.793 0.652,22.218 C0.276,22.62 0.094,22.959 0.016,23.401 C-0.016,23.574 0.002,23.914 0.051,24.074 C0.218,24.625 0.76,25.026 1.609,25.221 C1.67,25.236 1.755,25.248 1.824,25.258 C1.819,25.268 1.815,25.28 1.811,25.291 C1.797,25.331 1.773,25.378 1.756,25.397 C1.73,25.424 1.729,25.429 1.748,25.428 C1.769,25.428 1.806,25.412 1.839,25.393 C1.832,25.407 1.827,25.423 1.827,25.442 C1.827,25.467 1.821,25.501 1.813,25.516 C1.796,25.55 1.81,25.55 1.863,25.515 C1.902,25.49 1.906,25.481 1.906,25.42 C1.906,25.412 1.905,25.409 1.905,25.403 C1.917,25.472 1.914,25.552 1.893,25.625 C1.882,25.662 1.874,25.699 1.874,25.707 C1.874,25.752 1.976,25.532 1.998,25.438 C1.999,25.436 1.999,25.434 2,25.432 C2.01,25.442 2.018,25.449 2.02,25.448 C2.035,25.487 2.054,25.522 2.072,25.539 C2.09,25.56 2.11,25.576 2.115,25.576 C2.121,25.576 2.117,25.543 2.107,25.502 C2.098,25.467 2.091,25.401 2.089,25.344 C2.097,25.356 2.107,25.365 2.123,25.377 C2.155,25.4 2.187,25.408 2.234,25.408 L2.301,25.408 L2.233,25.367 C2.195,25.344 2.151,25.307 2.136,25.283 C2.128,25.273 2.121,25.266 2.115,25.259 C2.146,25.254 2.18,25.247 2.22,25.239 C3.193,25.029 3.753,24.59 3.88,23.939 C3.96,23.533 3.849,23.05 3.576,22.615 C3.504,22.502 3.429,22.41 3.266,22.237 C2.863,21.81 2.626,21.473 2.373,20.969 C2.249,20.721 2.249,20.721 2.348,20.467 C2.605,20.475 2.88,20.446 3.169,20.371 C3.72,20.23 3.937,20.649 4.315,21.14 C4.553,21.447 4.863,21.776 5.372,21.98 C5.382,22 5.391,22.022 5.402,22.041 C5.719,22.164 6.112,22.24 6.612,22.234 C6.541,22.51 6.489,22.785 6.505,23.061 C6.519,23.533 6.725,24.003 7.374,24.469 C8.146,24.774 8.753,24.526 9.195,23.727 C9.199,23.869 9.191,24.018 9.202,24.157 C9.218,24.514 9.328,24.829 10.024,24.883 C10.389,24.848 10.708,24.803 10.99,24.752 C10.998,24.803 11.007,24.849 11.018,24.885 C11.185,25.436 11.727,25.835 12.576,26.031 C12.637,26.045 12.721,26.059 12.79,26.069 C12.786,26.078 12.781,26.09 12.777,26.102 C12.764,26.141 12.739,26.189 12.722,26.206 C12.697,26.234 12.695,26.239 12.713,26.239 C12.735,26.239 12.773,26.223 12.806,26.202 C12.798,26.217 12.794,26.234 12.794,26.252 C12.794,26.278 12.788,26.311 12.78,26.326 C12.763,26.36 12.776,26.36 12.83,26.325 C12.868,26.301 12.872,26.291 12.872,26.231 C12.872,26.223 12.872,26.221 12.872,26.214 C12.884,26.283 12.881,26.363 12.86,26.436 C12.849,26.473 12.84,26.51 12.84,26.518 C12.84,26.563 12.942,26.344 12.965,26.249 C12.965,26.246 12.965,26.245 12.966,26.242 C12.976,26.252 12.984,26.26 12.986,26.258 C13.002,26.298 13.021,26.331 13.038,26.351 C13.057,26.37 13.077,26.387 13.082,26.387 C13.088,26.387 13.084,26.354 13.074,26.313 C13.065,26.278 13.058,26.211 13.056,26.155 C13.063,26.166 13.074,26.176 13.09,26.188 C13.122,26.211 13.153,26.219 13.201,26.219 L13.268,26.219 L13.199,26.178 C13.162,26.155 13.118,26.117 13.103,26.095 C13.095,26.083 13.088,26.076 13.082,26.071 C13.112,26.065 13.146,26.059 13.187,26.049 C14.16,25.84 14.72,25.401 14.847,24.75 C14.888,24.544 14.878,24.319 14.824,24.09 C16.986,24.402 16.946,24.059 17.56,23.476 L17.212,23.641 C18.31,25.703 17.208,27.283 15.735,28.971 L17.742,28.971 C18.485,28.02 19.712,25.432 18.092,23.306 L18.095,23.305 L18.23,23.699 C18.23,23.699 18.544,23.367 18.958,23.035 C19.087,22.932 19.199,22.627 19.281,22.514 C19.418,22.214 19.455,22.053 19.48,21.938 C19.529,21.742 19.585,21.469 19.878,21.322 C20.209,21.157 20.624,21.571 21.617,21.82 C22.611,22.068 22.777,21.489 22.942,20.908 C23.427,20.576 23.504,20.191 23.475,19.827 C23.461,19.561 23.386,19.305 23.359,19.09 C24.145,19.906 24.056,17.219 24.929,18.093 C24.956,18.119 25.131,18.174 25.351,18.21 C25.357,18.227 25.363,18.243 25.371,18.262 C25.403,18.341 25.408,18.383 25.402,18.513 C25.394,18.655 25.383,18.689 25.288,18.89 C25.076,19.336 24.791,19.744 24.396,20.168 C24.021,20.571 23.837,20.91 23.759,21.352 C23.728,21.525 23.747,21.864 23.794,22.025 C23.962,22.576 24.504,22.976 25.353,23.171 C25.414,23.186 25.498,23.199 25.568,23.208 C25.563,23.219 25.558,23.229 25.554,23.242 C25.542,23.281 25.517,23.328 25.5,23.346 C25.474,23.374 25.472,23.379 25.492,23.379 C25.513,23.379 25.55,23.363 25.583,23.342 C25.576,23.358 25.572,23.373 25.572,23.393 C25.572,23.418 25.566,23.451 25.558,23.467 C25.541,23.5 25.554,23.5 25.607,23.465 C25.646,23.441 25.65,23.432 25.65,23.371 C25.65,23.364 25.648,23.361 25.648,23.354 C25.66,23.423 25.658,23.502 25.636,23.576 C25.626,23.614 25.617,23.651 25.617,23.658 C25.618,23.703 25.718,23.484 25.742,23.389 C25.743,23.387 25.743,23.385 25.743,23.383 C25.753,23.393 25.761,23.4 25.763,23.399 L25.763,23.398 C25.779,23.438 25.798,23.472 25.816,23.49 C25.833,23.51 25.853,23.527 25.859,23.527 C25.865,23.527 25.861,23.494 25.851,23.453 C25.841,23.418 25.834,23.351 25.833,23.295 C25.841,23.307 25.851,23.317 25.867,23.328 C25.899,23.351 25.93,23.36 25.978,23.36 L26.044,23.36 L25.977,23.318 C25.94,23.295 25.896,23.257 25.879,23.235 C25.873,23.224 25.866,23.217 25.859,23.21 C25.89,23.204 25.924,23.197 25.964,23.19 C26.938,22.979 27.498,22.541 27.625,21.89 C27.705,21.484 27.593,21 27.32,20.567" fill="#9A6E38"/>
      <path d="M17.92,11.987 L17.923,11.983 C17.921,11.985 17.919,11.987 17.918,11.99 C17.919,11.989 17.919,11.988 17.92,11.987" fill="#9A6E38"/>
      <path d="M17.725,16.631 C17.751,16.623 17.755,16.63 17.816,16.606 C17.819,16.605 17.822,16.604 17.826,16.602 C17.812,16.603 17.8,16.605 17.787,16.605 C17.765,16.614 17.744,16.623 17.725,16.631" fill="#9A6E38"/>
      <path d="M17.429,16.602 C17.456,16.612 17.485,16.622 17.509,16.63 C17.511,16.627 17.513,16.625 17.515,16.624 C17.501,16.618 17.488,16.612 17.472,16.605 C17.458,16.604 17.444,16.603 17.429,16.602" fill="#9A6E38"/>
      <path d="M25.614,23.473 L25.615,23.473 L25.615,23.474 L25.614,23.474 z" fill="#9A6E38"/>
      <path d="M24.238,8.674 C24.194,10.283 23.94,11.838 23.078,13.233 C22.649,13.926 22.134,14.539 21.088,14.818 C21.935,12.452 22.099,10.216 21.994,7.958 C21.964,7.293 22.228,7.147 22.819,7.172 C24.359,7.235 24.287,6.84 24.238,8.674 M4.072,13.233 C3.21,11.838 2.956,10.283 2.913,8.674 C2.864,6.84 2.791,7.235 4.331,7.172 C4.923,7.147 5.187,7.293 5.156,7.958 C5.051,10.216 5.217,12.452 6.063,14.818 C5.015,14.539 4.501,13.926 4.072,13.233 M25.799,4.947 C24.766,4.894 23.728,4.934 22.693,4.904 C22.468,4.897 22.219,4.858 22.16,4.681 C22.035,4.315 22.051,3.691 22.06,3.12 C22.07,2.428 22.662,2.666 23.098,2.559 C23.098,2.3 23.097,1.99 23.098,1.679 C23.099,0.502 23.099,0.501 21.961,0.501 C19.203,0.5 16.444,0.501 13.687,0.501 L13.575,0.501 L13.464,0.501 C10.706,0.501 7.948,0.5 5.19,0.501 C4.052,0.501 4.052,0.502 4.052,1.679 C4.053,1.99 4.052,2.3 4.052,2.559 C4.488,2.666 5.081,2.428 5.091,3.12 C5.099,3.691 5.116,4.315 4.991,4.681 C4.931,4.858 4.683,4.897 4.457,4.904 C3.423,4.934 2.384,4.894 1.352,4.947 C1.135,4.959 0.749,5.261 0.753,5.421 C0.808,7.432 0.79,9.458 1.055,11.446 C1.285,13.176 2.113,14.723 3.443,15.933 C4.344,16.754 5.386,17.187 6.634,17.117 C6.882,17.103 7.242,17.279 7.383,17.483 C8.414,18.979 9.672,20.19 11.33,20.981 C11.55,21.085 11.759,21.438 11.78,21.692 C11.842,22.405 11.813,23.126 11.793,23.842 C11.787,24.04 11.746,24.325 11.614,24.419 C10.35,25.327 9.652,26.549 9.55,28.173 C8.974,28.173 8.473,28.186 7.974,28.169 C7.529,28.153 7.359,28.345 7.374,28.788 C7.396,29.424 7.413,30.064 7.367,30.698 C7.32,31.337 7.568,31.514 8.188,31.51 C9.984,31.498 11.779,31.496 13.575,31.495 C15.371,31.496 17.167,31.498 18.963,31.51 C19.583,31.514 19.832,31.337 19.783,30.698 C19.737,30.064 19.756,29.424 19.777,28.788 C19.793,28.345 19.622,28.153 19.176,28.169 C18.677,28.186 18.176,28.173 17.601,28.173 C17.499,26.549 16.801,25.327 15.537,24.419 C15.405,24.325 15.364,24.04 15.357,23.842 C15.337,23.126 15.309,22.405 15.37,21.692 C15.392,21.438 15.601,21.085 15.821,20.981 C17.478,20.19 18.738,18.979 19.767,17.483 C19.908,17.279 20.268,17.103 20.515,17.117 C21.765,17.187 22.806,16.754 23.708,15.933 C25.037,14.723 25.865,13.176 26.096,11.446 C26.36,9.458 26.343,7.432 26.397,5.421 C26.402,5.261 26.015,4.959 25.799,4.947" fill="#9A6E38"/>
      <path d="M24.238,8.674 C24.194,10.283 23.94,11.838 23.078,13.233 C22.649,13.926 22.134,14.539 21.088,14.818 C21.935,12.452 22.099,10.216 21.994,7.958 C21.964,7.293 22.228,7.147 22.819,7.172 C24.359,7.235 24.287,6.84 24.238,8.674 z M4.072,13.233 C3.21,11.838 2.956,10.283 2.913,8.674 C2.864,6.84 2.791,7.235 4.331,7.172 C4.923,7.147 5.187,7.293 5.156,7.958 C5.051,10.216 5.217,12.452 6.063,14.818 C5.015,14.539 4.501,13.926 4.072,13.233 z M25.799,4.947 C24.766,4.894 23.728,4.934 22.693,4.904 C22.468,4.897 22.219,4.858 22.16,4.681 C22.035,4.315 22.051,3.691 22.06,3.12 C22.07,2.428 22.662,2.666 23.098,2.559 C23.098,2.3 23.097,1.99 23.098,1.679 C23.099,0.502 23.099,0.501 21.961,0.501 C19.203,0.5 16.444,0.501 13.687,0.501 L13.575,0.501 L13.464,0.501 C10.706,0.501 7.948,0.5 5.19,0.501 C4.052,0.501 4.052,0.502 4.052,1.679 C4.053,1.99 4.052,2.3 4.052,2.559 C4.488,2.666 5.081,2.428 5.091,3.12 C5.099,3.691 5.116,4.315 4.991,4.681 C4.931,4.858 4.683,4.897 4.457,4.904 C3.423,4.934 2.384,4.894 1.352,4.947 C1.135,4.959 0.749,5.261 0.753,5.421 C0.808,7.432 0.79,9.458 1.055,11.446 C1.285,13.176 2.113,14.723 3.443,15.933 C4.344,16.754 5.386,17.187 6.634,17.117 C6.882,17.103 7.242,17.279 7.383,17.483 C8.414,18.979 9.672,20.19 11.33,20.981 C11.55,21.085 11.759,21.438 11.78,21.692 C11.842,22.405 11.813,23.126 11.793,23.842 C11.787,24.04 11.746,24.325 11.614,24.419 C10.35,25.327 9.652,26.549 9.55,28.173 C8.974,28.173 8.473,28.186 7.974,28.169 C7.529,28.153 7.359,28.345 7.374,28.788 C7.396,29.424 7.413,30.064 7.367,30.698 C7.32,31.337 7.568,31.514 8.188,31.51 C9.984,31.498 11.779,31.496 13.575,31.495 C15.371,31.496 17.167,31.498 18.963,31.51 C19.583,31.514 19.832,31.337 19.783,30.698 C19.737,30.064 19.756,29.424 19.777,28.788 C19.793,28.345 19.622,28.153 19.176,28.169 C18.677,28.186 18.176,28.173 17.601,28.173 C17.499,26.549 16.801,25.327 15.537,24.419 C15.405,24.325 15.364,24.04 15.357,23.842 C15.337,23.126 15.309,22.405 15.37,21.692 C15.392,21.438 15.601,21.085 15.821,20.981 C17.478,20.19 18.738,18.979 19.767,17.483 C19.908,17.279 20.268,17.103 20.515,17.117 C21.765,17.187 22.806,16.754 23.708,15.933 C25.037,14.723 25.865,13.176 26.096,11.446 C26.36,9.458 26.343,7.432 26.397,5.421 C26.402,5.261 26.015,4.959 25.799,4.947 z" fill-opacity="0" stroke="#FDF5E0" stroke-width="1"/>
    </g>
    <text transform="matrix(1, 0, -0, 1, 13.694, 10.739)">
      <tspan x="-4.5" y="2.5" font-family="Love*Monster" font-size="12" kerning="-0.228" fill="#FDF5E0">5</tspan>
      <tspan x="-0.252" y="2.5" font-family="Love*Monster" font-size="12" kerning="0" fill="#FDF5E0">0</tspan>
    </text>
  </g>
</svg>
