<?xml version="1.0" encoding="utf-8"?>
<!-- Generator: Adobe Illustrator 16.0.0, SVG Export Plug-In . SVG Version: 6.00 Build 0)  -->
<!DOCTYPE svg PUBLIC "-//W3C//DTD SVG 1.1//EN" "http://www.w3.org/Graphics/SVG/1.1/DTD/svg11.dtd">
<svg version="1.1" id="Layer_1" xmlns="http://www.w3.org/2000/svg" xmlns:xlink="http://www.w3.org/1999/xlink" x="0px" y="0px"
	 width="299.583px" height="387.963px" viewBox="0 0 299.583 387.963" enable-background="new 0 0 299.583 387.963"
	 xml:space="preserve">
<g id="Layer_1_1_">
	<g>
		<defs>
			<rect id="SVGID_1_" width="299.583" height="387.963"/>
		</defs>
		<clipPath id="SVGID_2_">
			<use xlink:href="#SVGID_1_"  overflow="visible"/>
		</clipPath>
		<g clip-path="url(#SVGID_2_)">
			<path fill="#AB8048" stroke="#AB8048" stroke-width="4" stroke-miterlimit="10" d="M267.433,277.877
				c-7.7,27.909-15.578,55.771-23.214,83.697c-0.922,3.375-2.411,4.296-5.838,4.284c-39.486-0.127-78.971-0.127-118.458,0.018
				c-3.478,0.014-4.848-1.133-5.952-4.299c-3.995-11.471-7.972-22.973-12.687-34.154c-2.559-6.068-6.439-11.613-9.991-17.224
				c-21.373-33.765-42.838-67.47-64.238-101.218c-6.3-9.934-5.466-21.042,2.042-28.973c7.367-7.782,19.041-9.712,28.337-4.089
				c3.144,1.901,5.983,4.854,8.019,7.946c10.708,16.273,21.111,32.742,31.626,49.142c1.072,1.673,2.182,3.319,3.274,4.978
				c0.354-0.086,0.708-0.172,1.061-0.258v-15.328c0-60.312-0.006-120.624,0.007-180.937c0.002-9.338,4.146-15.815,11.669-18.429
				c10.821-3.759,22.196,4.659,23.234,17.245c0.163,1.987,0.073,3.996,0.073,5.995c-0.001,43.485-0.007,86.97-0.01,130.455
				c-0.001,1.806,0,3.611,0,5.785h22.173v-5.396c0.001-20.659,0.105-41.32-0.098-61.977c-0.034-3.578,1.355-5.552,4.158-7.162
				c11.607-6.67,25.875,1.352,26.012,15.021c0.258,25.322,0.115,50.647,0.14,75.972c0.002,1.946,0.001,3.894,0.001,6.168h22.305
				v-75.929c10.644-2.875,20.469,5.115,20.584,16.581c0.182,17.826,0.072,35.654,0.072,53.48c0,7.16,0.012,14.318-0.074,21.477
				c-0.041,3.195,0.734,4.907,4.568,4.523c4.275-0.429,8.665-0.422,12.941,0.019c4.17,0.431,5.086-1.224,5.065-5.001
				c-0.114-21.325-0.043-42.651-0.034-63.977v-5.769c12.108-4.188,22.961,4.977,23.077,19.268
				c0.142,17.659-0.931,35.378,0.214,52.962C278.756,242.206,272.413,259.828,267.433,277.877 M299.483,170.707
				c-0.018-3.63-0.422-7.333-1.213-10.876c-5.109-22.856-21.752-34.785-44.893-32.107c-2.977,0.345-4.014-0.972-5.396-3.074
				c-8.725-13.267-21.246-19.283-36.956-18.326c-3.014,0.184-4.055-0.948-5.341-3.078c-6.184-10.234-15.115-17.02-26.923-18.864
				c-6.427-1.003-13.14-0.179-20.2-0.179c0-1.371,0.001-3.176,0-4.982c-0.007-13.165,0.232-26.335-0.073-39.493
				C157.9,14.487,134.671-4.209,110.48,0.822C91.99,4.668,79.267,20.466,79.221,40.076c-0.094,39.328-0.03,78.656-0.031,117.984
				v6.137c-1.528-1.127-2.299-1.632-2.997-2.222c-22.586-19.101-55.515-13.688-69.979,12.023
				c-7.329,13.026-8.924,26.992-0.701,40.394c19.854,32.362,40.079,64.496,60.035,96.797c5.76,9.324,12.038,18.492,16.428,28.457
				c6.227,14.138,11.078,28.896,16.166,43.51c1.25,3.589,2.796,4.808,6.612,4.798c50.159-0.134,100.321-0.144,150.48,0.01
				c3.79,0.013,5.125-1.315,6.06-4.678c11.891-42.823,23.92-85.606,35.83-128.425c1.105-3.975,2.281-8.105,2.317-12.172
				C299.655,218.696,299.59,194.701,299.483,170.707"/>
			<path fill="#AB8048" stroke="#AB8048" stroke-width="4" stroke-miterlimit="10" d="M215.874,259.481
				c6.676-6.948,4.055-17.713-5.092-19.406c-3.621-0.672-8.824,1.305-11.734,3.863c-8.063,7.088-15.301,15.117-23.356,23.271
				c-7.959-8.158-15.155-15.659-22.493-23.021c-6.259-6.278-12.365-6.588-17.753-1.131c-4.9,4.963-4.519,11.577,1.283,17.375
				c7.508,7.5,15.179,14.84,23.551,23c-4.437,4.06-8.42,7.571-12.25,11.238c-3.989,3.82-7.887,7.737-11.728,11.705
				c-4.949,5.114-5.558,11.197-1.741,15.992c4.78,6.001,11.835,6.5,17.698,0.721c7.81-7.695,15.271-15.745,23.394-24.172
				c8.086,8.26,15.16,15.564,22.319,22.783c6.58,6.634,12.854,7.168,18.236,1.691c5.004-5.088,4.477-11.722-1.656-17.865
				c-7.344-7.359-14.824-14.58-22.709-22.315C200.191,275.001,208.232,267.433,215.874,259.481"/>
		</g>
	</g>
</g>
</svg>
