<?xml version="1.0" encoding="utf-8"?>
<!-- Generator: Adobe Illustrator 16.0.0, SVG Export Plug-In . SVG Version: 6.00 Build 0)  -->
<!DOCTYPE svg PUBLIC "-//W3C//DTD SVG 1.1//EN" "http://www.w3.org/Graphics/SVG/1.1/DTD/svg11.dtd">
<svg version="1.1" id="Layer_1" xmlns="http://www.w3.org/2000/svg" xmlns:xlink="http://www.w3.org/1999/xlink" x="0px" y="0px"
	 width="299.583px" height="387.963px" viewBox="0 0 299.583 387.963" enable-background="new 0 0 299.583 387.963"
	 xml:space="preserve">
<g id="Layer_1_1_">
	<g>
		<g>
			<defs>
				<rect id="SVGID_1_" width="299.583" height="387.963"/>
			</defs>
			<clipPath id="SVGID_2_">
				<use xlink:href="#SVGID_1_"  overflow="visible"/>
			</clipPath>
			<g clip-path="url(#SVGID_2_)">
				<path fill="#9A6E38" stroke="#9A6E38" stroke-width="6" stroke-miterlimit="10" d="M267.433,277.877
					c-7.7,27.909-15.578,55.771-23.214,83.697c-0.922,3.375-2.411,4.296-5.838,4.284c-39.486-0.127-78.971-0.127-118.458,0.018
					c-3.478,0.014-4.848-1.133-5.952-4.299c-3.995-11.471-7.972-22.973-12.687-34.154c-2.559-6.068-6.439-11.613-9.991-17.224
					c-21.373-33.765-42.838-67.47-64.238-101.218c-6.3-9.935-5.466-21.042,2.042-28.974c7.367-7.782,19.041-9.712,28.337-4.089
					c3.144,1.901,5.983,4.854,8.019,7.946c10.708,16.272,21.111,32.741,31.626,49.142c1.072,1.674,2.182,3.319,3.274,4.979
					c0.354-0.086,0.708-0.172,1.061-0.258v-15.328c0-60.312-0.006-120.625,0.007-180.938c0.002-9.338,4.146-15.815,11.669-18.429
					c10.821-3.759,22.196,4.659,23.234,17.245c0.163,1.987,0.073,3.996,0.073,5.995c-0.001,43.485-0.007,86.97-0.01,130.455
					c-0.001,1.806,0,3.611,0,5.785h22.173v-5.396c0.001-20.659,0.104-41.32-0.099-61.977c-0.033-3.578,1.355-5.552,4.158-7.162
					c11.607-6.67,25.875,1.352,26.012,15.021c0.259,25.322,0.115,50.647,0.141,75.973c0.002,1.945,0.001,3.894,0.001,6.168h22.306
					v-75.93c10.644-2.875,20.469,5.115,20.584,16.581c0.182,17.826,0.071,35.654,0.071,53.479c0,7.16,0.013,14.318-0.073,21.478
					c-0.041,3.194,0.733,4.907,4.567,4.522c4.274-0.429,8.665-0.422,12.94,0.02c4.17,0.431,5.086-1.225,5.065-5.001
					c-0.114-21.325-0.043-42.651-0.034-63.977v-5.769c12.108-4.188,22.961,4.977,23.077,19.268
					c0.142,17.659-0.931,35.377,0.214,52.961C278.756,242.206,272.413,259.828,267.433,277.877 M299.483,170.707
					c-0.018-3.63-0.422-7.333-1.213-10.876c-5.109-22.856-21.752-34.785-44.893-32.107c-2.978,0.345-4.015-0.972-5.396-3.074
					c-8.725-13.267-21.246-19.283-36.956-18.326c-3.014,0.184-4.055-0.948-5.341-3.078c-6.184-10.234-15.115-17.02-26.923-18.864
					c-6.427-1.003-13.14-0.179-20.2-0.179c0-1.371,0.001-3.176,0-4.982c-0.007-13.165,0.232-26.335-0.073-39.493
					C157.9,14.487,134.671-4.209,110.48,0.822C91.99,4.668,79.267,20.466,79.221,40.076c-0.094,39.328-0.03,78.656-0.031,117.984
					v6.137c-1.528-1.127-2.299-1.632-2.997-2.222c-22.586-19.101-55.515-13.688-69.979,12.023
					c-7.329,13.026-8.924,26.992-0.701,40.394c19.854,32.362,40.079,64.496,60.035,96.797c5.76,9.324,12.038,18.492,16.428,28.457
					c6.227,14.139,11.078,28.896,16.166,43.51c1.25,3.59,2.796,4.809,6.612,4.799c50.159-0.135,100.321-0.145,150.48,0.01
					c3.79,0.014,5.125-1.314,6.06-4.678c11.892-42.823,23.92-85.605,35.83-128.426c1.105-3.975,2.281-8.104,2.317-12.172
					C299.655,218.696,299.59,194.701,299.483,170.707"/>
				<path fill="#9A6E38" stroke="#9A6E38" stroke-width="6" stroke-miterlimit="10" d="M215.874,259.481
					c6.676-6.948,4.056-17.713-5.092-19.406c-3.621-0.672-8.824,1.305-11.734,3.863c-8.062,7.088-15.301,15.117-23.355,23.271
					c-7.959-8.158-15.154-15.659-22.492-23.021c-6.26-6.278-12.366-6.588-17.754-1.131c-4.9,4.963-4.519,11.576,1.283,17.375
					c7.508,7.5,15.18,14.84,23.551,23c-4.438,4.06-8.42,7.57-12.25,11.237c-3.989,3.82-7.887,7.737-11.728,11.705
					c-4.949,5.114-5.558,11.196-1.741,15.992c4.78,6.001,11.835,6.5,17.697,0.721c7.811-7.694,15.271-15.745,23.395-24.172
					c8.086,8.26,15.16,15.563,22.319,22.783c6.58,6.634,12.854,7.168,18.235,1.69c5.004-5.088,4.478-11.722-1.655-17.865
					c-7.345-7.358-14.824-14.579-22.71-22.314C200.191,275.001,208.232,267.433,215.874,259.481"/>
			</g>
		</g>
	</g>
</g>
</svg>
