<?xml version="1.0" encoding="UTF-8"?>
<!DOCTYPE svg PUBLIC "-//W3C//DTD SVG 1.1//EN" "http://www.w3.org/Graphics/SVG/1.1/DTD/svg11.dtd">
<svg version="1.1" xmlns="http://www.w3.org/2000/svg" xmlns:xlink="http://www.w3.org/1999/xlink" x="0" y="0" width="36.564" height="36.184" viewBox="0, 0, 36.564, 36.184">
  <defs>
    <clipPath id="Clip_1">
      <path d="M0,-0 L36.564,-0 L36.564,36.184 L0,36.184 z"/>
    </clipPath>
  </defs>
  <g id="Layer_1">
    <g clip-path="url(#Clip_1)">
      <path d="M9.968,28.54 C9.994,28.826 9.784,29.078 9.499,29.103 C9.214,29.13 8.962,28.92 8.935,28.636 C8.909,28.351 9.118,28.098 9.403,28.071 C9.688,28.045 9.941,28.254 9.968,28.538 z M14.232,22.062 C13.558,22.125 12.962,21.63 12.9,20.956 C12.837,20.282 13.331,19.686 14.005,19.623 C14.678,19.56 15.275,20.054 15.339,20.727 L15.34,20.731 C15.401,21.404 14.905,22.001 14.232,22.062 M17.332,23.003 C17.305,22.718 17.515,22.466 17.8,22.438 C18.085,22.411 18.338,22.621 18.364,22.906 L18.365,22.908 C18.391,23.193 18.181,23.445 17.896,23.471 C17.611,23.497 17.359,23.288 17.332,23.003 M18.142,26.957 L18.142,26.961 C18.194,27.528 17.776,28.031 17.208,28.083 C16.64,28.136 16.138,27.718 16.085,27.15 C16.032,26.583 16.449,26.08 17.017,26.027 C17.584,25.974 18.088,26.39 18.142,26.957 M19.505,4.155 L19.039,4.249 L19.039,16.905 L29.519,30.715 L2.903,30.751 L13.591,16.95 L13.591,4.505 L13.343,4.292 C13.05,4.04 12.998,3.867 12.998,3.845 C12.998,3.844 13.018,3.805 13.112,3.747 L15.207,3.734 L15.395,17.835 L13.613,17.846 L4.597,30.012 L27.866,29.978 L19.033,17.811 L16.817,17.825 L16.629,3.727 L19.645,3.709 C19.748,3.793 19.772,3.845 19.775,3.845 C19.765,3.916 19.619,4.073 19.505,4.155 M35.275,16.203 C35.208,16.272 34.882,16.292 34.785,16.292 C34.739,16.292 34.6,16.24 34.54,16.209 C34.448,16.162 34.232,15.998 34.232,15.841 C34.232,15.419 34.755,14.343 34.839,14.063 C35.011,14.398 35.402,15.258 35.495,15.88 C35.488,15.981 35.331,16.143 35.275,16.203 M36.558,15.708 L36.53,15.618 C36.279,14.825 36.049,13.952 35.827,13.105 L35.817,13.063 C35.73,12.73 35.642,12.401 35.556,12.079 L35.669,0.81 C35.673,0.419 35.359,0.097 34.968,0.092 C31.755,0.046 27.956,-0 24.132,-0 C21.042,-0 18.338,0.03 15.862,0.092 C15.474,0.102 15.163,0.425 15.168,0.812 L15.188,2.313 L12.784,2.327 L12.647,2.389 C11.833,2.754 11.637,3.324 11.592,3.631 C11.52,4.133 11.723,4.662 12.168,5.135 L12.168,16.465 L0,32.178 L32.38,32.133 L20.462,16.427 L20.462,5.212 C20.706,5.011 21.076,4.629 21.173,4.101 C21.242,3.725 21.214,3.002 20.247,2.394 L20.072,2.284 L16.611,2.305 L16.6,1.497 C18.873,1.446 21.341,1.422 24.128,1.422 C27.724,1.422 31.379,1.465 34.239,1.504 L34.132,12.168 C33.981,12.663 33.878,13.067 33.78,13.46 C33.626,14.066 33.482,14.639 33.163,15.51 L33.128,15.605 L33.12,15.708 C33.072,16.477 33.349,16.947 33.591,17.206 C33.898,17.533 34.322,17.714 34.785,17.714 C35.267,17.714 35.735,17.515 36.068,17.168 C36.409,16.812 36.584,16.327 36.562,15.803 z" fill="#9A6E38"/>
      <path d="M27.283,11.431 C27.237,13.14 26.967,14.791 26.051,16.272 C25.596,17.009 25.051,17.66 23.938,17.956 C24.836,15.444 25.012,13.069 24.9,10.67 C24.868,9.965 25.148,9.809 25.776,9.836 C27.411,9.903 27.334,9.483 27.283,11.431 M5.867,16.272 C4.951,14.791 4.681,13.14 4.636,11.431 C4.583,9.483 4.506,9.903 6.141,9.836 C6.769,9.809 7.05,9.965 7.018,10.67 C6.906,13.069 7.081,15.444 7.98,17.956 C6.868,17.66 6.322,17.009 5.867,16.272 M28.939,7.473 C27.844,7.417 26.74,7.459 25.644,7.427 C25.402,7.419 25.138,7.378 25.076,7.19 C24.943,6.802 24.961,6.138 24.969,5.533 C24.979,4.798 25.608,5.051 26.072,4.937 C26.072,4.662 26.071,4.332 26.072,4.002 C26.072,2.752 26.072,2.751 24.864,2.751 C21.935,2.75 19.006,2.751 16.077,2.751 L15.958,2.751 L15.841,2.751 C12.912,2.751 9.983,2.75 7.054,2.751 C5.845,2.751 5.845,2.752 5.845,4.002 C5.846,4.332 5.845,4.662 5.845,4.937 C6.308,5.051 6.937,4.798 6.948,5.533 C6.957,6.138 6.975,6.802 6.843,7.19 C6.778,7.378 6.515,7.419 6.276,7.427 C5.176,7.459 4.074,7.417 2.977,7.473 C2.746,7.485 2.337,7.806 2.342,7.976 C2.4,10.113 2.381,12.264 2.662,14.376 C2.907,16.213 3.786,17.856 5.198,19.14 C6.156,20.011 7.262,20.472 8.588,20.398 C8.85,20.383 9.234,20.57 9.383,20.786 C10.477,22.374 11.813,23.662 13.574,24.501 C13.807,24.612 14.03,24.987 14.052,25.257 C14.117,26.013 14.088,26.779 14.067,27.54 C14.06,27.749 14.017,28.052 13.876,28.153 C12.534,29.118 11.792,30.415 11.683,32.139 C11.074,32.139 10.541,32.154 10.011,32.135 C9.537,32.118 9.357,32.323 9.373,32.792 C9.395,33.468 9.415,34.148 9.366,34.821 C9.315,35.499 9.578,35.687 10.238,35.683 C12.144,35.671 14.052,35.668 15.958,35.668 C17.867,35.668 19.773,35.671 21.679,35.683 C22.34,35.687 22.603,35.499 22.553,34.821 C22.504,34.148 22.522,33.468 22.546,32.792 C22.562,32.323 22.381,32.118 21.907,32.135 C21.378,32.154 20.846,32.139 20.234,32.139 C20.125,30.415 19.384,29.118 18.041,28.153 C17.902,28.052 17.859,27.749 17.852,27.54 C17.829,26.779 17.8,26.013 17.865,25.257 C17.888,24.987 18.11,24.612 18.344,24.501 C20.105,23.662 21.441,22.374 22.537,20.786 C22.683,20.57 23.068,20.383 23.332,20.398 C24.656,20.472 25.763,20.011 26.721,19.14 C28.131,17.856 29.012,16.213 29.258,14.376 C29.537,12.264 29.519,10.113 29.576,7.976 C29.58,7.806 29.173,7.485 28.939,7.473" fill="#9A6E38"/>
      <path d="M27.283,11.431 C27.237,13.14 26.967,14.791 26.051,16.272 C25.596,17.009 25.051,17.66 23.938,17.956 C24.836,15.444 25.012,13.069 24.9,10.67 C24.868,9.965 25.148,9.809 25.776,9.836 C27.411,9.903 27.334,9.483 27.283,11.431 z M5.867,16.272 C4.951,14.791 4.681,13.14 4.636,11.431 C4.583,9.483 4.506,9.903 6.141,9.836 C6.769,9.809 7.05,9.965 7.018,10.67 C6.906,13.069 7.081,15.444 7.98,17.956 C6.868,17.66 6.322,17.009 5.867,16.272 z M28.939,7.473 C27.844,7.417 26.74,7.459 25.644,7.427 C25.402,7.419 25.138,7.378 25.076,7.19 C24.943,6.802 24.961,6.138 24.969,5.533 C24.979,4.798 25.608,5.051 26.072,4.937 C26.072,4.662 26.071,4.332 26.072,4.002 C26.072,2.752 26.072,2.751 24.864,2.751 C21.935,2.75 19.006,2.751 16.077,2.751 L15.958,2.751 L15.841,2.751 C12.912,2.751 9.983,2.75 7.054,2.751 C5.845,2.751 5.845,2.752 5.845,4.002 C5.846,4.332 5.845,4.662 5.845,4.937 C6.308,5.051 6.937,4.798 6.948,5.533 C6.957,6.138 6.975,6.802 6.843,7.19 C6.778,7.378 6.515,7.419 6.276,7.427 C5.176,7.459 4.074,7.417 2.977,7.473 C2.746,7.485 2.337,7.806 2.342,7.976 C2.4,10.113 2.381,12.264 2.662,14.376 C2.907,16.213 3.786,17.856 5.198,19.14 C6.156,20.011 7.262,20.472 8.588,20.398 C8.85,20.383 9.234,20.57 9.383,20.786 C10.477,22.374 11.813,23.662 13.574,24.501 C13.807,24.612 14.03,24.987 14.052,25.257 C14.117,26.013 14.088,26.779 14.067,27.54 C14.06,27.749 14.017,28.052 13.876,28.153 C12.534,29.118 11.792,30.415 11.683,32.139 C11.074,32.139 10.541,32.154 10.011,32.135 C9.537,32.118 9.357,32.323 9.373,32.792 C9.395,33.468 9.415,34.148 9.366,34.821 C9.315,35.499 9.578,35.687 10.238,35.683 C12.144,35.671 14.052,35.668 15.958,35.668 C17.867,35.668 19.773,35.671 21.679,35.683 C22.34,35.687 22.603,35.499 22.553,34.821 C22.504,34.148 22.522,33.468 22.546,32.792 C22.562,32.323 22.381,32.118 21.907,32.135 C21.378,32.154 20.846,32.139 20.234,32.139 C20.125,30.415 19.384,29.118 18.041,28.153 C17.902,28.052 17.859,27.749 17.852,27.54 C17.829,26.779 17.8,26.013 17.865,25.257 C17.888,24.987 18.11,24.612 18.344,24.501 C20.105,23.662 21.441,22.374 22.537,20.786 C22.683,20.57 23.068,20.383 23.332,20.398 C24.656,20.472 25.763,20.011 26.721,19.14 C28.131,17.856 29.012,16.213 29.258,14.376 C29.537,12.264 29.519,10.113 29.576,7.976 C29.58,7.806 29.173,7.485 28.939,7.473 z" fill-opacity="0" stroke="#FDF5E0" stroke-width="1"/>
    </g>
    <text transform="matrix(1, 0, -0, 1, 16.074, 13.248)">
      <tspan x="-5.792" y="3" font-family="Love*Monster" font-size="12.744" kerning="-0.153" fill="#FDF5E0">1</tspan>
      <tspan x="-4.25" y="3" font-family="Love*Monster" font-size="12.744" kerning="-0.051" fill="#FDF5E0">0</tspan>
      <tspan x="0.746" y="3" font-family="Love*Monster" font-size="12.744" kerning="0" fill="#FDF5E0">0</tspan>
    </text>
  </g>
</svg>
