<?xml version="1.0" encoding="UTF-8"?>
<!DOCTYPE svg PUBLIC "-//W3C//DTD SVG 1.1//EN" "http://www.w3.org/Graphics/SVG/1.1/DTD/svg11.dtd">
<svg version="1.1" xmlns="http://www.w3.org/2000/svg" xmlns:xlink="http://www.w3.org/1999/xlink" x="0" y="0" width="48.303" height="53.061" viewBox="0, 0, 48.303, 53.061">
  <defs>
    <linearGradient id="Gradient_1" gradientUnits="userSpaceOnUse" x1="13.291" y1="57.693" x2="46.391" y2="0.362">
      <stop offset="0" stop-color="#7A3827"/>
      <stop offset="1" stop-color="#91522C"/>
    </linearGradient>
    <clipPath id="Clip_1">
      <path d="M44.677,0 C44.055,0 43.41,0.113 42.822,0.291 L42.822,0.291 C35.396,2.535 27.978,4.807 20.568,7.097 L20.568,7.097 C17.116,8.164 15.222,10.785 15.221,14.389 L15.221,14.389 C15.22,21.835 15.22,29.281 15.22,36.728 L15.22,36.728 L15.22,37.736 C15.083,37.736 15.026,37.749 14.98,37.733 L14.98,37.733 C10.034,36.108 3.985,38.256 1.229,42.616 L1.229,42.616 C0.408,43.917 0.012,45.252 0,46.514 L0,46.514 L0,46.639 C0.028,49.395 1.892,51.781 5.145,52.651 L5.145,52.651 C7.951,53.401 10.694,53.104 13.287,51.89 L13.287,51.89 C17.195,50.061 19.396,47.118 19.323,42.591 L19.323,42.591 C19.224,36.287 19.298,29.979 19.298,23.672 L19.298,23.672 C19.298,21.872 20.04,20.747 21.738,20.209 L21.738,20.209 C28.426,18.094 35.124,16.003 41.825,13.925 L41.825,13.925 C43.496,13.408 44.185,13.945 44.186,15.663 L44.186,15.663 C44.188,20.726 44.186,25.786 44.186,30.847 L44.186,30.847 L44.186,31.744 C43.98,31.691 43.879,31.671 43.782,31.639 L43.782,31.639 C39.135,29.998 33.468,31.583 30.391,35.388 L30.391,35.388 C26.853,39.76 28.582,45.062 34.029,46.438 L34.029,46.438 C37.057,47.201 40.001,46.802 42.742,45.347 L42.742,45.347 C46.335,43.44 48.35,40.62 48.302,36.311 L48.302,36.311 C48.184,25.685 48.263,15.058 48.262,4.432 L48.262,4.432 C48.262,4.062 48.271,3.689 48.242,3.321 L48.242,3.321 C48.101,1.52 46.938,0.199 45.163,0.023 L45.163,0.023 C45.008,0.007 44.85,0 44.691,0 L44.691,0 z"/>
    </clipPath>
  </defs>
  <g id="Layer_1">
    <g clip-path="url(#Clip_1)">
      <path d="M44.691,0 C44.85,0 45.008,0.007 45.163,0.023 C46.938,0.199 48.101,1.52 48.242,3.321 C48.271,3.689 48.262,4.062 48.262,4.432 C48.263,15.058 48.184,25.685 48.302,36.31 C48.35,40.62 46.335,43.44 42.742,45.347 C40.001,46.802 37.057,47.201 34.029,46.438 C28.582,45.062 26.853,39.76 30.391,35.387 C33.468,31.583 39.135,29.998 43.782,31.638 C43.879,31.671 43.98,31.691 44.186,31.744 L44.186,30.847 C44.186,25.786 44.188,20.725 44.186,15.663 C44.185,13.945 43.496,13.408 41.825,13.925 C35.124,16.003 28.426,18.094 21.738,20.209 C20.04,20.747 19.298,21.872 19.298,23.672 C19.298,29.979 19.224,36.287 19.323,42.591 C19.396,47.118 17.195,50.06 13.287,51.89 C10.694,53.104 7.951,53.4 5.145,52.65 C1.892,51.781 0.028,49.395 0,46.639 L0,46.514 C0.012,45.252 0.408,43.917 1.229,42.615 C3.985,38.256 10.034,36.108 14.98,37.733 C15.026,37.749 15.083,37.736 15.22,37.735 L15.22,36.727 C15.22,29.281 15.22,21.835 15.221,14.389 C15.222,10.785 17.116,8.164 20.568,7.097 C27.978,4.807 35.396,2.535 42.822,0.291 C43.41,0.113 44.055,0 44.677,0 L44.691,0 z" fill="url(#Gradient_1)"/>
    </g>
  </g>
</svg>
