<?xml version="1.0" encoding="UTF-8"?>
<!DOCTYPE svg PUBLIC "-//W3C//DTD SVG 1.1//EN" "http://www.w3.org/Graphics/SVG/1.1/DTD/svg11.dtd">
<svg version="1.1" xmlns="http://www.w3.org/2000/svg" xmlns:xlink="http://www.w3.org/1999/xlink" x="0" y="0" width="50.208" height="53.061" viewBox="0, 0, 50.208, 53.061">
  <defs>
    <linearGradient id="Gradient_1" gradientUnits="userSpaceOnUse" x1="21.391" y1="34.731" x2="31.876" y2="16.569">
      <stop offset="0" stop-color="#7A3827"/>
      <stop offset="1" stop-color="#91522C"/>
    </linearGradient>
    <linearGradient id="Gradient_2" gradientUnits="userSpaceOnUse" x1="31.854" y1="45.582" x2="34.918" y2="40.274">
      <stop offset="0" stop-color="#7A3827"/>
      <stop offset="1" stop-color="#91522C"/>
    </linearGradient>
    <linearGradient id="Gradient_3" gradientUnits="userSpaceOnUse" x1="5.155" y1="52.996" x2="20.877" y2="25.765">
      <stop offset="0" stop-color="#7A3827"/>
      <stop offset="1" stop-color="#91522C"/>
    </linearGradient>
    <linearGradient id="Gradient_4" gradientUnits="userSpaceOnUse" x1="30.139" y1="28.757" x2="46.497" y2="0.423">
      <stop offset="0" stop-color="#7A3827"/>
      <stop offset="1" stop-color="#91522C"/>
    </linearGradient>
  </defs>
  <g id="Layer_1">
    <path d="M3.663,1.959 C2.87,2.728 2.85,3.993 3.62,4.787 L3.62,4.787 L46.772,49.297 C47.165,49.701 47.686,49.904 48.208,49.904 L48.208,49.904 C48.71,49.904 49.212,49.716 49.601,49.34 L49.601,49.34 C49.997,48.956 50.2,48.447 50.208,47.936 L50.208,47.936 L50.208,47.876 C50.201,47.384 50.014,46.894 49.644,46.513 L49.644,46.513 L6.491,2.002 C6.099,1.598 5.578,1.395 5.055,1.395 L5.055,1.395 C4.554,1.395 4.052,1.583 3.663,1.959 z" fill="url(#Gradient_1)"/>
    <path d="M34.029,46.438 C35.607,46.836 37.161,46.91 38.676,46.692 L38.676,46.692 L29.32,37.042 C27.339,41.01 29.255,45.232 34.029,46.438 z" fill="url(#Gradient_2)"/>
    <path d="M15.22,36.728 L15.22,37.736 C15.083,37.736 15.026,37.749 14.98,37.733 L14.98,37.733 C10.034,36.108 3.985,38.256 1.229,42.615 L1.229,42.615 C0.408,43.917 0.012,45.252 0,46.514 L0,46.514 L0,46.639 C0.028,49.395 1.892,51.781 5.145,52.65 L5.145,52.65 C7.951,53.4 10.694,53.104 13.287,51.89 L13.287,51.89 C17.195,50.061 19.396,47.118 19.323,42.591 L19.323,42.591 C19.239,37.295 19.276,31.997 19.291,26.698 L19.291,26.698 L15.221,22.499 C15.22,27.241 15.22,31.984 15.22,36.728 z" fill="url(#Gradient_3)"/>
    <path d="M44.677,0 C44.054,0 43.41,0.113 42.822,0.291 L42.822,0.291 C35.396,2.535 27.978,4.807 20.568,7.097 L20.568,7.097 C19.645,7.382 18.843,7.785 18.15,8.281 L18.15,8.281 L27.859,18.295 C32.512,16.833 37.166,15.37 41.825,13.925 L41.825,13.925 C43.496,13.408 44.185,13.945 44.186,15.663 L44.186,15.663 C44.188,20.726 44.186,25.786 44.186,30.847 L44.186,30.847 L44.186,31.744 C43.98,31.691 43.879,31.671 43.782,31.639 L43.782,31.639 C42.624,31.229 41.404,31.021 40.175,30.997 L40.175,30.997 L47.997,39.068 C48.202,38.221 48.313,37.309 48.302,36.311 L48.302,36.311 C48.184,25.685 48.263,15.058 48.262,4.432 L48.262,4.432 C48.262,4.062 48.271,3.689 48.242,3.321 L48.242,3.321 C48.101,1.52 46.938,0.199 45.163,0.023 L45.163,0.023 C45.008,0.007 44.85,0 44.691,0 L44.691,0 z" fill="url(#Gradient_4)"/>
  </g>
</svg>
