<?xml version="1.0" encoding="utf-8"?>
<!-- Generator: Adobe Illustrator 16.0.0, SVG Export Plug-In . SVG Version: 6.00 Build 0)  -->
<!DOCTYPE svg PUBLIC "-//W3C//DTD SVG 1.1//EN" "http://www.w3.org/Graphics/SVG/1.1/DTD/svg11.dtd">
<svg version="1.1" id="Layer_1" xmlns="http://www.w3.org/2000/svg" xmlns:xlink="http://www.w3.org/1999/xlink" x="0px" y="0px"
	 width="44.558px" height="95.844px" viewBox="25.643 -25.643 44.558 95.844" enable-background="new 25.643 -25.643 44.558 95.844"
	 xml:space="preserve">
<g id="Layer_1_1_">
	<path fill="#DEB170" d="M68.24,70.201v-95.844H26.932v95.844H68.24z"/>
	<path fill="#896332" d="M25.751,36.412c-0.081-0.48-0.047-1.178-0.103-1.68l0.078,1.967L25.751,36.412z"/>
	<g>
		<defs>
			<path id="SVGID_1_" d="M25.644,39.724c0.205,1.879,0.123,5.174,0.242,7.516l0,0l-0.156-0.154c0.189,1.213-0.01,4.457,0.218,5.51
				l0,0l-0.064,0.178l0.207,2.393l0.002,0.062c-0.023,1.039-0.251,0.682-0.187,0.768l0,0c0.04,2.4,0.054,4.279-0.026,5.822l0,0
				c0.182,0.338,0.247,2.309,0.278,4.139l0,0c0.003,0.35,0.005,0.695,0.009,1.039l0,0c-0.015,1.061-0.024,2.131-0.03,3.205l0,0
				h0.796h0.31h1.599v-2.828c0-1.834-0.094-7.336-0.094-11.006l0,0c0-3.668,0.094-7.336,0.751-11.924l0,0
				c0.656-4.586,0.188-9.17-0.377-13.871l0,0c-0.562-4.701-0.094-11.464-0.094-15.478l0,0c0-4.012,0.376-10.318,0.376-14.445l0,0
				c0-4.127,0.376-7.91,0.376-10.662l0,0c0-2.752-0.752-15.63-0.752-15.63l0,0h-2.773c0.031,0.982,0.017,2.323,0.005,3.701l0,0
				c-0.014,1.504-0.028,3.051,0.013,4.224l0,0c0.008,0.537-0.015,1.162-0.039,1.91l0,0c-0.022,0.72-0.045,1.554-0.041,2.537l0,0
				l0.081-0.131c-0.081,1.618-0.133,7.637-0.318,9.144l0,0c0.062,1.521,0.017-0.158,0.08-0.125l0,0
				c0.084,2.966-0.043,3.173-0.091,4.728l0,0c0.04,1.825,0.03-1.397,0.093-0.414l0,0c-0.031,1.427-0.005,1.989,0.021,2.658l0,0
				c0.025,0.64,0.05,1.378,0.024,3.068l0,0c-0.045,0.343-0.031-0.891-0.062-1.249l0,0c0.057,1.62,0.051,4.171,0.048,6.764l0,0
				c-0.002,1.295-0.005,2.601,0.001,3.806l0,0c-0.033-0.856-0.062-1.615-0.097-2.062l0,0l0.072,3.183
				c-0.105-0.193-0.18,2.151-0.28,0.473l0,0c-0.097,3.17,0.021,7.001,0.105,10.041l0,0c0.03-0.375,0.05-0.846,0.1-0.896l0,0
				c-0.005,0.473-0.01,0.943-0.014,1.408l0,0c-0.033,0.129-0.075,0.18-0.108,0.314l0,0c0.024,0.363,0.056,0.6,0.095,0.775l0,0
				c-0.007,0.637-0.016,1.26-0.024,1.859l0,0l0.028,0.09c-0.043,1.18-0.036,2.416-0.031,3.709l0,0
				c0.003,0.811,0.006,1.641-0.003,2.496l0,0c-0.001,0.062-0.002,0.129-0.003,0.201l0,0l0.001-0.012
				c-0.001,0.047-0.001,0.098-0.001,0.145l0,0l0.009-0.244c0.016-0.197,0.027-0.396,0.045-0.523l0,0
				c0.014,0.559,0.019,1.035,0.02,1.496l0,0c-0.036,0.305-0.067,0.617-0.034,1.27l0,0l-0.2-1.068
				C25.754,38.703,25.814,40.279,25.644,39.724z"/>
		</defs>
		<clipPath id="SVGID_2_">
			<use xlink:href="#SVGID_1_"  overflow="visible"/>
		</clipPath>
		<g clip-path="url(#SVGID_2_)">
			
				<linearGradient id="SVGID_3_" gradientUnits="userSpaceOnUse" x1="56.2815" y1="68.6111" x2="56.2815" y2="64.4382" gradientTransform="matrix(-4.371139e-08 -1 -1 4.371139e-08 94.2559 78.561)">
				<stop  offset="0" style="stop-color:#896332"/>
				<stop  offset="1" style="stop-color:#B88344"/>
			</linearGradient>
			<path fill="url(#SVGID_3_)" d="M25.644,39.724c0.17,0.555,0.109-1.021,0.102-2.094l0.2,1.068
				c-0.033-0.652-0.002-0.965,0.034-1.27c-0.001-0.461-0.006-0.938-0.02-1.496c-0.018,0.127-0.029,0.326-0.045,0.523l-0.009,0.244
				c0-0.047,0-0.098,0.001-0.145l-0.001,0.012c0.001-0.072,0.002-0.139,0.003-0.201c0.009-0.855,0.006-1.686,0.003-2.496
				c-0.005-1.293-0.012-2.529,0.031-3.709l-0.028-0.09c0.009-0.6,0.018-1.223,0.024-1.859c-0.039-0.176-0.07-0.412-0.095-0.775
				c0.033-0.135,0.075-0.186,0.108-0.314c0.004-0.465,0.009-0.936,0.014-1.408c-0.05,0.051-0.069,0.521-0.1,0.896
				c-0.085-3.039-0.202-6.871-0.105-10.041c0.101,1.679,0.175-0.666,0.28-0.473l-0.072-3.183c0.035,0.446,0.063,1.205,0.097,2.062
				c-0.006-1.205-0.003-2.511-0.001-3.806c0.003-2.593,0.009-5.144-0.048-6.764c0.031,0.358,0.018,1.592,0.062,1.249
				c0.025-1.69,0.001-2.429-0.024-3.068c-0.025-0.669-0.052-1.231-0.021-2.658c-0.062-0.983-0.053,2.239-0.093,0.414
				c0.048-1.555,0.175-1.762,0.091-4.728c-0.063-0.033-0.019,1.646-0.08,0.125c0.186-1.507,0.237-7.525,0.318-9.144l-0.081,0.131
				c-0.004-0.983,0.019-1.817,0.041-2.537c0.024-0.748,0.047-1.373,0.039-1.91c-0.041-1.173-0.026-2.72-0.013-4.224
				c0.017-2.566,0.02-1.333-0.005-3.7h2.773c0.243,5.208,0.683,10.414,0.751,15.629c0.001,2.752-0.375,6.535-0.375,10.662
				s-0.376,10.434-0.376,14.445c0,4.014-0.469,10.777,0.094,15.478c0.565,4.701,1.033,9.285,0.377,13.871
				c-0.657,4.588-0.751,8.256-0.751,11.924c0,3.67,0.094,9.172,0.094,11.006v2.828h-2.704c0.006-1.074,0.016-2.145,0.03-3.205
				c-0.004-0.344-0.006-0.689-0.009-1.039c-0.031-1.83-0.097-3.801-0.278-4.139c0.08-1.543,0.066-3.422,0.026-5.822
				c-0.064-0.086,0.163,0.271,0.187-0.768l-0.002-0.062l-0.207-2.393l0.064-0.178c-0.228-1.053-0.028-4.297-0.218-5.51l0.156,0.154
				C25.767,44.898,25.849,41.603,25.644,39.724z"/>
		</g>
	</g>
	<g>
		<defs>
			<rect id="SVGID_4_" x="25.643" y="-25.642" width="44.558" height="95.843"/>
		</defs>
		<clipPath id="SVGID_5_">
			<use xlink:href="#SVGID_4_"  overflow="visible"/>
		</clipPath>
		<g clip-path="url(#SVGID_5_)">
			<path fill="#D19E5A" d="M65.172-5.847c-0.863,1.295-0.682,3.805-0.875,5.432c-0.188,1.557-0.389,3.021-0.895,4.507
				c-1.162,3.429-2.113,6.673-2.424,10.448c-0.402,4.91,0.609,9.791,1.111,14.619c0.459,4.412,1.174,8.773,1.629,13.146
				c0.1,0.975,0.057,2.496,0.5,3.264c0.836-1.26,0.605-4.916,0.699-6.574c0.115-1.992,0.234-3.998,0.316-6
				c0.178-4.367,0.018-8.754,0.189-13.16c0.156-3.982-0.584-7.848-0.502-11.773C65.006,4.076,64.86,0.1,65.123-3.844
				c0.051-0.744,0.307-1.518-0.201-1.928L65.172-5.847z"/>
			<path fill="#E6BD78" d="M58.506,57.279c0.125-6.062,0.367-11.365-0.584-17.43c-1.967-12.566-0.305-25.701-0.072-38.313
				c0.102-5.44,0.619-10.789,0.943-16.138c0.162-2.653,0.268-5.219,0.631-7.819c0.145-1.037,0.311-2.14,0.357-3.222H35.373
				c0.084,0.119,0.217,0.213,0.414,0.265l-0.469-0.112c0.002-0.047,0.014-0.099,0.027-0.152h-0.026
				c-0.163,5.513,0.882,11.476,1.498,16.892c0.577,5.074,0.776,11.021,0.357,16.196c-0.253,3.109-0.764,6.224-1.009,9.359
				c-0.307,3.908-0.054,7.792-0.381,11.736c-0.457,5.488-0.177,10.977-0.284,16.447c-0.098,4.951-0.061,10.252,0.756,15.049
				c0.479,2.816,0.507,5.619,0.746,8.486c0.036,0.436,0.03,1.051,0.042,1.678H58.58C57.951,66.601,58.473,58.959,58.506,57.279"/>
			<path fill="#896332" d="M67.645,36.412c-0.094-0.48-0.055-1.178-0.119-1.68l0.092,1.967L67.645,36.412z"/>
		</g>
	</g>
	<g>
		<defs>
			<path id="SVGID_6_" d="M66.299-4.281c0,0,0.094,2.063,0.094,3.782l0,0c0,1.722-0.188,2.753-0.188,3.898l0,0
				c0,1.147,0.375,6.077,0.375,7.224l0,0v6.65v19.833c0,2.293-0.281,2.637-0.281,5.846l0,0c0,3.211,0.658,5.16,0.188,8.713l0,0
				c-0.469,3.557-0.469,7.227,0.094,10.549l0,0c0.564,3.324,0,7.986,0,7.986l0,0h1.516h0.082h1.205
				c-0.18-0.977-0.139-2.66-0.098-4.398l0,0c0.035-1.498,0.07-3.039-0.035-4.209l0,0c-0.02-0.533,0.041-1.152,0.102-1.895l0,0
				c0.061-0.723,0.119-1.562,0.104-2.553l0,0l-0.209,0.129c0.213-1.617,0.348-7.635,0.832-9.145l0,0
				c-0.162-1.52-0.045,0.16-0.211,0.127l0,0c-0.217-2.967,0.111-3.174,0.234-4.727l0,0c-0.104-1.828-0.08,1.395-0.236,0.412l0,0
				c0.08-1.422,0.014-1.984-0.055-2.65l0,0c-0.066-0.643-0.133-1.379-0.064-3.076l0,0c0.119-0.344,0.082,0.891,0.16,1.25l0,0
				c-0.143-1.615-0.133-4.158-0.123-6.744l0,0c0.006-1.307,0.01-2.623-0.004-3.836l0,0c0.148-4.141,0.207-10.25,0.395-15.085l0,0
				l-0.076-0.09c0.115-1.171,0.1-2.4,0.086-3.687l0,0c-0.01-0.921-0.02-1.872,0.016-2.853l0,0l-0.111,1.148
				c-0.133-1.536-0.049-2.396-0.105-3.848l0,0l0.219-0.812c-0.072-1.571-0.186-0.693-0.299-1.836l0,0
				c0.092-0.945,0.068-2.581,0.043-3.782l0,0c-0.012-0.619-0.025-1.124-0.021-1.355l0,0c0.102-0.47,0.139,0.588,0.201,0.818l0,0
				c-0.074-1.845-0.283-1.713-0.287-4.005l0,0l0.061-0.036c-0.312-5.472-0.23-12.406-0.428-18.49l0,0
				c-0.012,0.412-0.057,0.308-0.102,0.467l0,0c-0.004-0.357-0.008-0.721-0.012-1.085l0,0h-1.127
				c0.002,0.077,0.004,0.159,0.006,0.239l0,0l-1.656-0.239v6.917c0,2.293-0.844,6.191-0.844,8.254l0,0
				C65.737-8.408,66.299-4.281,66.299-4.281z"/>
		</defs>
		<clipPath id="SVGID_7_">
			<use xlink:href="#SVGID_6_"  overflow="visible"/>
		</clipPath>
		<g clip-path="url(#SVGID_7_)">
			
				<linearGradient id="SVGID_8_" gradientUnits="userSpaceOnUse" x1="56.2815" y1="28.5193" x2="56.2815" y2="24.0544" gradientTransform="matrix(-4.371139e-08 -1 -1 4.371139e-08 94.2559 78.561)">
				<stop  offset="0" style="stop-color:#B88344"/>
				<stop  offset="1" style="stop-color:#896332"/>
			</linearGradient>
			<path fill="url(#SVGID_8_)" d="M65.737-10.472c0-2.062,0.844-5.961,0.844-8.254v-6.916h0.006l1.65,0.238
				c-0.004-0.16-0.002-0.08-0.006-0.238h1.127c0.008,0.724,0.004,0.363,0.012,1.084c0.045-0.159,0.09-0.055,0.102-0.467
				c0.197,6.084,0.115,13.019,0.428,18.49l-0.061,0.036c0.004,2.292,0.213,2.16,0.287,4.005c-0.062-0.23-0.1-1.288-0.201-0.818
				c-0.004,0.231,0.01,0.736,0.021,1.355c0.025,1.201,0.049,2.837-0.043,3.782c0.113,1.143,0.227,0.265,0.299,1.836l-0.219,0.812
				c0.057,1.451-0.027,2.312,0.105,3.848l0.111-1.148c-0.035,0.98-0.025,1.932-0.016,2.853c0.014,1.286,0.029,2.516-0.086,3.687
				l0.076,0.09c-0.188,4.836-0.246,10.945-0.395,15.085c0.014,1.213,0.01,2.529,0.004,3.836c-0.01,2.586-0.02,5.129,0.123,6.744
				c-0.078-0.359-0.041-1.594-0.16-1.25c-0.068,1.697-0.002,2.434,0.064,3.076c0.068,0.666,0.135,1.229,0.055,2.65
				c0.156,0.982,0.133-2.24,0.236-0.412c-0.123,1.553-0.451,1.76-0.234,4.727c0.166,0.033,0.049-1.646,0.211-0.127
				c-0.484,1.51-0.619,7.527-0.832,9.145l0.209-0.129c0.016,0.99-0.043,1.83-0.104,2.553c-0.061,0.742-0.121,1.361-0.102,1.895
				c0.105,1.17,0.07,2.711,0.035,4.209c-0.041,1.738-0.082,3.422,0.098,4.398H66.58c0,0,0.564-4.662,0-7.986
				c-0.562-3.322-0.562-6.992-0.094-10.549c0.471-3.553-0.188-5.502-0.188-8.713c0-3.209,0.281-3.553,0.281-5.846V10.623
				c0-1.146-0.375-6.076-0.375-7.224c0-1.146,0.188-2.177,0.188-3.898c0-1.719-0.094-3.782-0.094-3.782S65.737-8.408,65.737-10.472z
				"/>
		</g>
	</g>
	
		<linearGradient id="SVGID_9_" gradientUnits="userSpaceOnUse" x1="50.0627" y1="40.2898" x2="50.0627" y2="34.9607" gradientTransform="matrix(-4.371139e-08 -1 1 -4.371139e-08 25.6431 70.2007)">
		<stop  offset="0" style="stop-color:#D2944C"/>
		<stop  offset="0.831" style="stop-color:#D4A358"/>
		<stop  offset="1" style="stop-color:#D4A358"/>
	</linearGradient>
	<path fill="url(#SVGID_9_)" d="M63.055,39.849c0.275,2.232,0.527,4.418,0.717,6.441l0,0l0.035,0.377l0.018,0.188l0.002,0.023
		l0.002,0.012c0.09,0.02,0.045,0.012,0,0.004l0,0c-0.082-0.012-0.164-0.025,0.568,0.117l0,0l0.014-0.047l0.027-0.094
		c0.006-0.02,0.012-0.041,0.018-0.061l0,0c0.025,0.004,0.018,0.004,0-0.002l0,0c0.066-0.225,0.127-0.449,0.176-0.668l0,0
		c0.113-0.486,0.195-0.961,0.27-1.422l0,0c0.146-0.92,0.242-1.791,0.324-2.586l0,0c0.295-3.197,0.354-5.264,0.361-5.262l0,0
		c0.043,0.004,0.314-8.264,0.342-17.324l0,0c0.039-3.737-0.146-7.596-0.332-11.066l0,0c-0.268-5.009-0.535-9.216-0.131-11.115l0,0
		c0.051-0.764,0.088-1.489,0.092-2.192l0,0c-0.004-0.356-0.004-0.698-0.043-1.062l0,0c-0.016-0.174-0.049-0.368-0.109-0.577l0,0
		l-0.088-0.183l-0.023-0.043l-0.012-0.022l-0.008-0.009l-0.002-0.004c-0.064,0.007-0.033,0.002,0-0.002l0,0
		c0.059-0.009,0.117-0.018-0.416,0.045l0,0l-0.027,0.068L64.725-6.34c-0.318,1.307-0.379,2.434-0.494,3.568l0,0
		c-0.234,2.225-0.215,4.375-0.646,6.819l0,0c-1.938,4.185-2.883,7.692-2.965,13.746l0,0c-0.012,0.184-0.016,0.385-0.016,0.603l0,0
		C60.604,22.247,62.02,31.396,63.055,39.849z M65.332,19.531c-0.025,9.08-0.293,17.289-0.338,17.287l0,0
		c-0.008-0.002-0.066,2.059-0.359,5.209l0,0c-0.08,0.783-0.176,1.633-0.316,2.525l0,0c-0.021,0.145-0.049,0.293-0.074,0.441l0,0
		c-0.174-1.691-0.379-3.469-0.602-5.277l0,0c-1.098-8.945-2.607-18.676-2.432-21.922l0,0c0.08-5.997,0.793-9.399,2.459-13.936l0,0
		c-0.025,0.057-0.053,0.116-0.08,0.172l0,0c0.615-2.384,0.742-4.533,1.07-6.716l0,0c0.1-0.702,0.189-1.451,0.316-2.182l0,0v0.03
		c-0.01,0.666-0.051,1.377-0.102,2.129l0,0c-0.41,1.978-0.143,6.242,0.127,11.257l0,0c0.168,3.146,0.336,6.589,0.336,9.944l0,0
		C65.338,18.841,65.336,19.187,65.332,19.531z"/>
	<g>
		<defs>
			<rect id="SVGID_10_" x="25.643" y="-25.642" width="44.558" height="95.843"/>
		</defs>
		<clipPath id="SVGID_11_">
			<use xlink:href="#SVGID_10_"  overflow="visible"/>
		</clipPath>
		<g clip-path="url(#SVGID_11_)">
			<path fill="#E6C380" d="M50.088,37.371c0.852-6.943,0.627-13.779,0.627-20.855c-0.002-8.508,0.75-16.836,0.75-25.353
				c0-5.746,0.117-11.21,0.205-16.806h-9.573c0.102,6.213,0.23,12.226,0.23,18.488c0,6.539-0.867,12.758-1.002,19.256
				c-0.152,7.414-0.302,15.048,0.028,22.451c0.323,7.27-0.565,14.508-0.411,21.895c0.098,4.621,0.646,9.121,0.861,13.754h7.688
				c0.262-3.137,0.139-6.371,0.221-9.512C49.908,53.146,49.176,44.808,50.088,37.371"/>
		</g>
	</g>
	<g>
		<defs>
			<path id="SVGID_12_" d="M32.016,17.053c0.06,3.151,0.119,5.152,0.109,5.152l0,0c-0.026-0.002,0.262,8.933,0.41,18.728l0,0
				c-0.003,9.795-0.38,20.506-0.411,24.072l0,0c-0.027,1.943-0.028,3.635-0.013,5.195l0,0h0.777
				c0.035-1.559,0.064-3.244,0.095-5.172l0,0c0.039-3.561,0.415-14.258,0.416-24.102l0,0c-0.149-9.842-0.439-18.747-0.415-18.751
				l0,0c0.01,0.002-0.048-1.974-0.105-5.085l0,0c-0.065-3.503-0.13-8.448-0.101-13.639l0,0c-0.067-4.917,0.447-9.948,0.576-14.36
				l0,0c0.088-4.375-0.056-7.951-0.119-9.736l0,0c-0.08-1.861-0.174-3.492-0.282-4.999l0,0h-0.782
				c0.06,1.522,0.126,3.168,0.206,5.048l0,0c0.058,1.774,0.2,5.334,0.112,9.66l0,0c-0.125,4.283-0.646,9.461-0.577,14.377l0,0
				c-0.004,0.84-0.006,1.674-0.006,2.495l0,0C31.907,10.183,31.962,14.116,32.016,17.053z"/>
		</defs>
		<clipPath id="SVGID_13_">
			<use xlink:href="#SVGID_12_"  overflow="visible"/>
		</clipPath>
		<g clip-path="url(#SVGID_13_)">
			
				<linearGradient id="SVGID_14_" gradientUnits="userSpaceOnUse" x1="56.2815" y1="62.3494" x2="56.2815" y2="60.8572" gradientTransform="matrix(-4.371139e-08 -1 -1 4.371139e-08 94.2559 78.561)">
				<stop  offset="0" style="stop-color:#D2944C"/>
				<stop  offset="0.831" style="stop-color:#D4A358"/>
				<stop  offset="1" style="stop-color:#D4A358"/>
			</linearGradient>
			<path fill="url(#SVGID_14_)" d="M31.906,5.937c0.001-0.821,0.003-1.655,0.006-2.495c-0.067-4.916,0.453-10.094,0.576-14.377
				c0.09-4.326-0.053-7.886-0.11-9.66c-0.145-3.454-0.075-1.771-0.207-5.047h0.783c0.208,3.242,0.111,1.576,0.281,4.998
				c0.064,1.785,0.208,5.361,0.119,9.736c-0.128,4.412-0.643,9.443-0.576,14.36c-0.028,5.19,0.036,10.136,0.101,13.639
				c0.059,3.111,0.116,5.087,0.106,5.085c-0.024,0.005,0.266,8.91,0.414,18.751c0,9.844-0.376,20.541-0.415,24.102
				c-0.03,1.928-0.06,3.613-0.095,5.172h-0.777c-0.016-1.561-0.015-3.252,0.013-5.195c0.031-3.566,0.408-14.277,0.41-24.072
				c-0.147-9.795-0.436-18.73-0.409-18.728c0.01,0-0.05-2.001-0.11-5.152C31.962,14.116,31.907,10.183,31.906,5.937z"/>
		</g>
	</g>
	<g>
		<defs>
			<path id="SVGID_15_" d="M58.998,18.696c0.051,3.273,0.373,5.291,0.332,5.304l0,0c-0.07,0.01,0.887,8.229,2.053,17.186l0,0
				c0.586,4.492,0.891,9.178,1.283,13.217l0,0c0.439,4,0.756,7.254,0.797,8.887l0,0c0.156,2.65,0.002,4.848-0.096,6.912l0,0h0.68
				c0.211-2.02,0.424-4.211,0.275-6.969l0,0c-0.039-1.67-0.361-4.98-0.797-8.963l0,0c-0.383-3.957-0.697-8.746-1.283-13.238l0,0
				c-1.174-8.994-2.127-17.139-2.059-17.148l0,0c0.041,0.004-0.277-2.064-0.324-5.195l0,0c-0.055-3.155,0.484-7.41,1.395-11.799l0,0
				c0.895-4.39,1.938-9.018,2.291-13.082l0,0c0.338-4.024,0.623-7.285,0.771-8.937l0,0c0.52-4.295,0.318-7.334,0.418-10.514l0,0
				h-0.418c-0.379,3.147-0.332,6.163-0.855,10.404l0,0c-0.15,1.628-0.443,4.937-0.777,8.925l0,0
				c-0.344,3.961-1.369,8.529-2.27,12.951l0,0c-0.871,4.206-1.42,8.375-1.42,11.583l0,0C58.994,18.381,58.994,18.539,58.998,18.696z
				"/>
		</defs>
		<clipPath id="SVGID_16_">
			<use xlink:href="#SVGID_15_"  overflow="visible"/>
		</clipPath>
		<g clip-path="url(#SVGID_16_)">
			
				<linearGradient id="SVGID_17_" gradientUnits="userSpaceOnUse" x1="56.2815" y1="35.2615" x2="56.2815" y2="29.5212" gradientTransform="matrix(-4.371139e-08 -1 -1 4.371139e-08 94.2559 78.561)">
				<stop  offset="0" style="stop-color:#DDB070"/>
				<stop  offset="1" style="stop-color:#D2944C"/>
			</linearGradient>
			<path fill="url(#SVGID_17_)" d="M58.994,18.22c0-3.208,0.549-7.377,1.42-11.583c0.9-4.422,1.926-8.99,2.27-12.951
				c0.334-3.988,0.627-7.297,0.777-8.925c0.412-3.457,0.531-6.938,0.855-10.403h0.418c-0.008,3.513-0.053,7.017-0.418,10.513
				c-0.148,1.651-0.434,4.912-0.771,8.937c-0.354,4.064-1.396,8.692-2.291,13.082c-0.91,4.389-1.449,8.644-1.395,11.799
				c0.047,3.131,0.365,5.199,0.324,5.195c-0.068,0.01,0.885,8.154,2.059,17.148c0.586,4.492,0.9,9.281,1.283,13.238
				c0.436,3.982,0.758,7.293,0.797,8.963c0.148,2.758-0.064,4.949-0.275,6.969h-0.68c0.098-2.064,0.252-4.262,0.096-6.912
				c-0.041-1.633-0.357-4.887-0.797-8.887c-0.393-4.039-0.697-8.725-1.283-13.217C60.217,32.228,59.26,24.01,59.33,24
				c0.041-0.014-0.281-2.031-0.332-5.304C58.994,18.539,58.994,18.381,58.994,18.22z"/>
		</g>
	</g>
	<g>
		<defs>
			<path id="SVGID_18_" d="M56.877,24.201c-0.041,0.006,0.676,8.291,1.496,17.367l0,0c0.338,4.564,0.912,9.279,0.338,13.238l0,0
				c-0.518,3.961-0.773,7.381-0.67,9.059l0,0c0.064,2.449,0.152,4.469,0.254,6.336l0,0h0.676c-0.012-1.883-0.053-3.912-0.113-6.361
				l0,0c-0.094-1.65,0.146-4.865,0.67-8.904l0,0c0.588-4.092,0-8.957-0.336-13.469l0,0c-0.822-9.102-1.541-17.348-1.5-17.354l0,0
				c-0.105-0.01-0.537-8.218,0.295-17.339l0,0c0.455-9.176,1-19.045,1.311-22.373l0,0c0.273-4.094,0.395-7.02,0.375-10.044l0,0
				h-0.439c-0.221,2.995-0.469,5.882-0.75,9.958l0,0c-0.314,3.273-0.867,13.303-1.316,22.379l0,0c-0.385,4.208-0.5,8.281-0.5,11.438
				l0,0C56.666,21.793,56.819,24.222,56.877,24.201z"/>
		</defs>
		<clipPath id="SVGID_19_">
			<use xlink:href="#SVGID_18_"  overflow="visible"/>
		</clipPath>
		<g clip-path="url(#SVGID_19_)">
			
				<linearGradient id="SVGID_20_" gradientUnits="userSpaceOnUse" x1="56.2815" y1="37.5896" x2="56.2815" y2="34.4783" gradientTransform="matrix(-4.371139e-08 -1 -1 4.371139e-08 94.2559 78.561)">
				<stop  offset="0" style="stop-color:#DDB070"/>
				<stop  offset="1" style="stop-color:#D2944C"/>
			</linearGradient>
			<path fill="url(#SVGID_20_)" d="M56.666,18.131c0-3.156,0.115-7.229,0.5-11.438c0.449-9.076,1.002-19.105,1.316-22.379
				c0.229-3.321,0.496-6.638,0.75-9.957h0.439c0.035,3.352-0.17,6.699-0.375,10.043c-0.311,3.328-0.855,13.197-1.311,22.373
				c-0.832,9.121-0.4,17.33-0.295,17.339c-0.041,0.006,0.678,8.252,1.5,17.354c0.336,4.512,0.924,9.377,0.336,13.469
				c-0.523,4.039-0.764,7.254-0.67,8.904c0.061,2.449,0.102,4.479,0.113,6.361h-0.676c-0.102-1.867-0.189-3.887-0.254-6.336
				c-0.104-1.678,0.152-5.098,0.67-9.059c0.574-3.959,0-8.674-0.338-13.238c-0.82-9.076-1.537-17.361-1.496-17.367
				C56.819,24.222,56.666,21.793,56.666,18.131z"/>
		</g>
	</g>
	<g>
		<defs>
			<path id="SVGID_21_" d="M35.349-17.262c0.104,1.707,0.368,5.122,0.773,9.269l0,0c0.492,4.147,0.792,8.973,0.608,13.668l0,0
				c-0.415,9.352-1.058,17.91-0.987,17.908l0,0c0.011,0-0.114,2.01-0.237,5.152l0,0c-0.131,3.342-0.263,7.969-0.234,12.83l0,0
				c0.043,4.713,0.111,9.617,0.005,13.771l0,0c-0.022,4.32,0.892,7.617,1,9.285l0,0c0.175,2.102,0.298,3.906,0.392,5.58l0,0h0.712
				c-0.029-1.701-0.118-3.551-0.294-5.727l0,0c-0.118-1.729-1.019-5.057-0.986-9.111l0,0c0.107-4.176,0.039-9.111-0.004-13.805l0,0
				c-0.031-4.852,0.099-9.475,0.23-12.809l0,0c0.121-3.115,0.242-5.107,0.232-5.107l0,0c-0.067-0.012,0.573-8.496,0.994-17.931l0,0
				c0.191-4.712-0.124-9.725-0.612-13.826l0,0c-0.405-4.134-0.67-7.529-0.776-9.229l0,0c-0.219-3.305-0.389-5.854-0.542-8.299l0,0
				h-0.577C35.048-23.175,35.136-20.594,35.349-17.262z"/>
		</defs>
		<clipPath id="SVGID_22_">
			<use xlink:href="#SVGID_21_"  overflow="visible"/>
		</clipPath>
		<g clip-path="url(#SVGID_22_)">
			
				<linearGradient id="SVGID_23_" gradientUnits="userSpaceOnUse" x1="56.2815" y1="59.2107" x2="56.2815" y2="56.6462" gradientTransform="matrix(-4.371139e-08 -1 -1 4.371139e-08 94.2559 78.561)">
				<stop  offset="0" style="stop-color:#DDB070"/>
				<stop  offset="1" style="stop-color:#D2944C"/>
			</linearGradient>
			<path fill="url(#SVGID_23_)" d="M35.046-25.642h0.577c0.174,2.766,0.358,5.532,0.542,8.298c0.106,1.7,0.371,5.096,0.776,9.229
				c0.488,4.102,0.804,9.114,0.612,13.826c-0.421,9.436-1.062,17.919-0.994,17.931c0.01,0-0.111,1.992-0.232,5.107
				c-0.132,3.334-0.262,7.957-0.23,12.809c0.043,4.693,0.111,9.629,0.004,13.805c-0.032,4.055,0.868,7.383,0.986,9.111
				c0.176,2.176,0.265,4.025,0.294,5.727h-0.712c-0.094-1.674-0.217-3.479-0.392-5.58c-0.108-1.668-1.022-4.965-1-9.285
				c0.106-4.154,0.038-9.059-0.006-13.771c-0.027-4.861,0.104-9.488,0.235-12.83c0.123-3.143,0.248-5.152,0.237-5.152
				c-0.07,0.002,0.572-8.556,0.987-17.908c0.184-4.695-0.116-9.521-0.608-13.668c-0.405-4.146-0.669-7.562-0.773-9.269
				C35.154-20.052,35.073-22.847,35.046-25.642z"/>
		</g>
	</g>
	<g>
		<defs>
			<path id="SVGID_24_" d="M38.289,57.26c0.243,4.199,0.484,7.629,0.451,9.346l0,0c0.037,1.291,0.05,2.479,0.057,3.596l0,0h0.737
				c0.016-1.115,0.016-2.309-0.02-3.623l0,0c0.037-1.752-0.206-5.201-0.448-9.402l0,0C38.82,52.9,38.574,47.849,38.62,43.01l0,0
				c0.062-9.604,0.241-18.369,0.207-18.367l0,0c-0.104-0.006,0.299-8.678,0.952-18.309l0,0c0.235-4.739,0.144-9.674,0.053-13.876
				l0,0c-0.098-4.377-0.193-7.961,0.08-9.71l0,0c0.241-3.194,0.477-5.722,0.517-8.134l0,0c0.004-0.086,0.005-0.172,0.005-0.257l0,0
				H39.88l-0.019,0.217c-0.17,2.374-0.471,4.864-0.721,8.09l0,0c-0.281,1.814-0.184,5.47-0.089,9.889l0,0
				c0.092,4.194,0.183,9.078-0.049,13.727l0,0c-0.237,4.786-0.621,9.362-0.78,12.759l0,0c-0.173,3.396-0.154,5.601-0.171,5.601l0,0
				c0.035,0-0.146,8.729-0.212,18.371l0,0c-0.004,0.398-0.006,0.799-0.006,1.197l0,0C37.834,48.717,38.061,53.326,38.289,57.26z"/>
		</defs>
		<clipPath id="SVGID_25_">
			<use xlink:href="#SVGID_24_"  overflow="visible"/>
		</clipPath>
		<g clip-path="url(#SVGID_25_)">
			
				<linearGradient id="SVGID_26_" gradientUnits="userSpaceOnUse" x1="56.2815" y1="56.4236" x2="56.2815" y2="53.822" gradientTransform="matrix(-4.371139e-08 -1 -1 4.371139e-08 94.2559 78.561)">
				<stop  offset="0" style="stop-color:#DDB070"/>
				<stop  offset="1" style="stop-color:#D2944C"/>
			</linearGradient>
			<path fill="url(#SVGID_26_)" d="M37.833,44.207c0.001-0.398,0.003-0.799,0.007-1.197c0.066-9.643,0.247-18.371,0.212-18.371
				c0.017,0-0.002-2.206,0.171-5.601c0.159-3.396,0.543-7.973,0.78-12.759c0.231-4.648,0.141-9.532,0.049-13.727
				c-0.095-4.419-0.192-8.074,0.089-9.889c0.25-3.226,0.551-5.716,0.721-8.09l0.019-0.216h0.554c-0.002,0.17,0,0.085-0.005,0.256
				c-0.04,2.412-0.275,4.939-0.517,8.134c-0.273,1.749-0.178,5.333-0.08,9.71c0.091,4.202,0.183,9.137-0.053,13.876
				c-0.653,9.631-1.057,18.303-0.952,18.309c0.034-0.002-0.145,8.764-0.207,18.367c-0.046,4.84,0.2,9.891,0.446,14.166
				c0.242,4.201,0.485,7.65,0.448,9.402c0.035,1.314,0.035,2.508,0.02,3.623h-0.737c-0.007-1.117-0.02-2.305-0.057-3.596
				c0.033-1.717-0.208-5.146-0.451-9.346C38.061,53.326,37.834,48.717,37.833,44.207z"/>
		</g>
	</g>
	<g>
		<defs>
			<path id="SVGID_27_" d="M53.408,23.631c-0.055-0.004-0.141,8.416,0.07,17.621l0,0c0.043,5.074,0.039,10.408,0.035,14.736l0,0
				c-0.004,3.523-0.006,6.377,0.016,7.881l0,0c0.037,2.451,0.15,4.471,0.262,6.332l0,0h0.643c-0.027-1.885-0.098-3.914-0.131-6.344
				l0,0c-0.018-1.441-0.012-4.129-0.01-7.463l0,0c0.006-4.395,0.01-9.906-0.035-15.16l0,0c-0.213-9.223-0.129-17.574-0.074-17.574
				l0,0c-0.441-0.027,1.236-14.967,2.295-26.859l0,0c0.295-4.994,0.586-9.384,0.797-11.74l0,0c0.01-0.562,0.008-1.049-0.01-1.444
				l0,0c0.086-3.783-0.5-6.551-0.707-9.26l0,0h-0.443c0.012,0.511,0.027,1.016,0.033,1.516l0,0c0.127,2.325,0.34,4.67,0.344,7.764
				l0,0c0.146,3.173-0.711,12.519-1.568,21.379l0,0c-0.795,8.188-1.588,15.962-1.588,18.061l0,0
				C53.336,23.431,53.36,23.623,53.408,23.631z"/>
		</defs>
		<clipPath id="SVGID_28_">
			<use xlink:href="#SVGID_27_"  overflow="visible"/>
		</clipPath>
		<g clip-path="url(#SVGID_28_)">
			
				<linearGradient id="SVGID_29_" gradientUnits="userSpaceOnUse" x1="56.2815" y1="40.9197" x2="56.2815" y2="36.9744" gradientTransform="matrix(-4.371139e-08 -1 -1 4.371139e-08 94.2559 78.561)">
				<stop  offset="0" style="stop-color:#DDB070"/>
				<stop  offset="1" style="stop-color:#D2944C"/>
			</linearGradient>
			<path fill="url(#SVGID_29_)" d="M53.336,23.076c0-2.099,0.793-9.873,1.588-18.061c0.857-8.86,1.715-18.206,1.568-21.379
				c-0.004-3.094-0.217-5.438-0.344-7.764c-0.02-1.008-0.01-0.503-0.033-1.515h0.443c0.141,1.378,0.635,6.208,0.662,6.597
				c0.061,0.886,0.029,1.775,0.045,2.662c0.018,0.396,0.02,0.883,0.01,1.444c-0.211,2.356-0.502,6.746-0.797,11.74
				C55.42,8.693,53.742,23.633,54.184,23.66c-0.055,0-0.139,8.352,0.074,17.574c0.045,5.254,0.041,10.766,0.035,15.16
				c-0.002,3.334-0.008,6.021,0.01,7.463c0.033,2.43,0.104,4.459,0.131,6.344h-0.643c-0.111-1.861-0.225-3.881-0.262-6.332
				c-0.021-1.504-0.02-4.357-0.016-7.881c0.004-4.328,0.008-9.662-0.035-14.736c-0.211-9.205-0.125-17.625-0.07-17.621
				C53.36,23.623,53.336,23.431,53.336,23.076z"/>
		</g>
	</g>
	<g>
		<defs>
			<path id="SVGID_30_" d="M49.463,70.201h0.58c0.02-1.504,0.045-3.129,0.131-4.98l0,0c0.15-3.375,0.281-13.562,0.547-22.861l0,0
				c0.301-9.305,0.92-17.744,0.908-17.744l0,0c0.389-0.01,0.359-13.537,0.328-25.205l0,0c-0.018-6.809-0.035-12.984,0.029-15.473
				l0,0c0.078-3.11,0.16-5.568,0.092-7.902l0,0c-0.008-0.562-0.045-1.122-0.084-1.679l0,0h-0.387
				c0.008,0.571,0.016,1.133-0.004,1.686l0,0c-0.039,2.31-0.18,4.74-0.262,7.875l0,0c-0.072,2.542-0.053,8.895-0.035,15.842l0,0
				c0.031,11.588,0.062,24.829-0.32,24.792l0,0c0.012,0-0.611,8.451-0.916,17.775l0,0c-0.266,9.334-0.396,19.482-0.541,22.867l0,0
				c-0.059,1.281-0.076,2.447-0.076,3.537l0,0C49.453,69.236,49.457,69.726,49.463,70.201z"/>
		</defs>
		<clipPath id="SVGID_31_">
			<use xlink:href="#SVGID_30_"  overflow="visible"/>
		</clipPath>
		<g clip-path="url(#SVGID_31_)">
			
				<linearGradient id="SVGID_32_" gradientUnits="userSpaceOnUse" x1="56.2815" y1="44.8025" x2="56.2815" y2="42.1521" gradientTransform="matrix(-4.371139e-08 -1 -1 4.371139e-08 94.2559 78.561)">
				<stop  offset="0" style="stop-color:#DDB070"/>
				<stop  offset="1" style="stop-color:#D2944C"/>
			</linearGradient>
			<path fill="url(#SVGID_32_)" d="M49.453,68.73c0-1.09,0.018-2.256,0.076-3.537c0.145-3.385,0.275-13.533,0.541-22.867
				c0.305-9.324,0.928-17.775,0.916-17.775c0.383,0.037,0.352-13.204,0.32-24.792c-0.018-6.947-0.037-13.3,0.035-15.842
				c0.082-3.135,0.223-5.565,0.262-7.875c0.016-1.118,0.014-0.557,0.004-1.685h0.387c0.072,1.116,0.045,0.557,0.084,1.678
				c0.068,2.334-0.014,4.792-0.092,7.902c-0.064,2.488-0.047,8.664-0.029,15.473c0.031,11.668,0.061,25.195-0.328,25.205
				c0.012,0-0.607,8.439-0.908,17.744c-0.266,9.299-0.396,19.486-0.547,22.861c-0.086,1.852-0.111,3.477-0.131,4.98h-0.58
				C49.457,69.726,49.453,69.236,49.453,68.73z"/>
		</g>
	</g>
	<g>
		<defs>
			<path id="SVGID_33_" d="M41.276,67c0.066,1.148,0.131,2.207,0.188,3.201l0,0h0.621c-0.043-1.012-0.099-2.09-0.165-3.258l0,0
				c-0.853-4.049-0.605-17.723-0.36-28.33l0,0c0.174-7.459,0.348-13.4,0.139-13.418l0,0c0.031,0-0.017-1.311-0.064-3.473l0,0
				c-0.075-3.414-0.15-8.946,0.084-14.786l0,0c0.303-9.525,1.774-19.947,1.142-23.49l0,0c-0.187-3.653-0.471-6.418-0.453-9.089l0,0
				h-0.425c-0.154,2.702,0.051,5.53,0.234,9.142l0,0c0.623,3.45-0.839,13.772-1.147,23.395l0,0
				c-0.232,5.873-0.156,11.41-0.081,14.827l0,0c0.05,2.176,0.097,3.495,0.065,3.491l0,0c0.209-0.02,0.034,5.898-0.14,13.35l0,0
				c-0.117,5.025-0.234,10.75-0.235,15.816l0,0C40.677,60.023,40.824,64.853,41.276,67z"/>
		</defs>
		<clipPath id="SVGID_34_">
			<use xlink:href="#SVGID_33_"  overflow="visible"/>
		</clipPath>
		<g clip-path="url(#SVGID_34_)">
			
				<linearGradient id="SVGID_35_" gradientUnits="userSpaceOnUse" x1="56.2815" y1="53.5779" x2="56.2815" y2="51.241" gradientTransform="matrix(-4.371139e-08 -1 -1 4.371139e-08 94.2559 78.561)">
				<stop  offset="0" style="stop-color:#DDB070"/>
				<stop  offset="1" style="stop-color:#D2944C"/>
			</linearGradient>
			<path fill="url(#SVGID_35_)" d="M40.677,54.377c0.001-5.066,0.118-10.791,0.235-15.816c0.174-7.451,0.349-13.369,0.14-13.35
				c0.031,0.004-0.016-1.314-0.065-3.491c-0.075-3.417-0.151-8.954,0.081-14.827c0.309-9.622,1.771-19.944,1.147-23.395
				c-0.135-2.543-0.249-4.396-0.289-7.082c-0.01-0.686,0.036-1.373,0.055-2.059h0.425c0.014,3.034,0.274,6.06,0.452,9.088
				c0.634,3.543-0.838,13.965-1.141,23.49c-0.234,5.84-0.159,11.372-0.084,14.786c0.048,2.163,0.096,3.473,0.064,3.473
				c0.209,0.018,0.035,5.959-0.139,13.418c-0.245,10.607-0.492,24.281,0.36,28.33c0.066,1.168,0.122,2.246,0.165,3.258h-0.621
				c-0.057-0.994-0.121-2.053-0.188-3.201C40.824,64.853,40.677,60.023,40.677,54.377z"/>
		</g>
	</g>
	<g>
		<defs>
			<path id="SVGID_36_" d="M47.118,65.816c0.041,1.617,0.088,3.055,0.133,4.385l0,0h0.396c-0.022-1.338-0.058-2.777-0.098-4.398l0,0
				c-0.226-3.395,0.245-13.615,0.292-23.006l0,0c0.18-9.379,0.136-17.926,0.128-17.922l0,0c0.005,0,0-0.631-0.005-1.738l0,0
				c-0.014-2.963-0.027-9.338,0.14-16.164l0,0c0.119-9.373,1.403-19.516,1.377-22.951l0,0c0.135-3.152,0.074-5.619,0.164-7.944l0,0
				c0.016-0.576,0.035-1.147,0.047-1.721l0,0h-0.258c-0.033,0.566-0.07,1.13-0.104,1.7l0,0c-0.164,2.34-0.143,4.81-0.279,7.938l0,0
				c0.023,3.4-1.26,13.55-1.38,22.962l0,0c-0.166,6.812-0.152,13.178-0.137,16.157l0,0c0.005,1.125,0.01,1.768,0.005,1.768l0,0
				c0.006,0.002,0.05,8.518-0.131,17.906l0,0c-0.039,7.561-0.353,15.68-0.353,20.334l0,0C47.055,64.238,47.074,65.154,47.118,65.816
				z"/>
		</defs>
		<clipPath id="SVGID_37_">
			<use xlink:href="#SVGID_36_"  overflow="visible"/>
		</clipPath>
		<g clip-path="url(#SVGID_37_)">
			
				<linearGradient id="SVGID_38_" gradientUnits="userSpaceOnUse" x1="56.2815" y1="47.2009" x2="56.2815" y2="44.5642" gradientTransform="matrix(-4.371139e-08 -1 -1 4.371139e-08 94.2559 78.561)">
				<stop  offset="0" style="stop-color:#DDB070"/>
				<stop  offset="1" style="stop-color:#D2944C"/>
			</linearGradient>
			<path fill="url(#SVGID_38_)" d="M47.055,63.121c0-4.654,0.313-12.773,0.353-20.334c0.181-9.389,0.137-17.904,0.131-17.906
				c0.005,0,0-0.643-0.005-1.768c-0.016-2.979-0.029-9.345,0.137-16.157c0.12-9.412,1.404-19.562,1.38-22.962
				c0.137-3.128,0.115-5.598,0.279-7.938c0.068-1.134,0.035-0.568,0.104-1.699h0.258c-0.029,1.146-0.014,0.572-0.047,1.72
				c-0.09,2.325-0.029,4.792-0.164,7.944c0.025,3.436-1.258,13.578-1.377,22.951c-0.167,6.825-0.153,13.2-0.14,16.164
				c0.005,1.107,0.01,1.738,0.005,1.738c0.008-0.004,0.052,8.543-0.128,17.922c-0.047,9.391-0.518,19.611-0.293,23.006
				c0.041,1.621,0.076,3.061,0.099,4.398h-0.396c-0.045-1.33-0.092-2.768-0.133-4.385C47.074,65.154,47.055,64.238,47.055,63.121z"
				/>
		</g>
	</g>
	<g>
		<defs>
			<path id="SVGID_39_" d="M43.889,66.41c0.059,1.377,0.07,2.625,0.063,3.791l0,0h0.404c0.023-1.166,0.019-2.422-0.039-3.811l0,0
				c-0.194-3.408-0.169-13.656-0.06-23.059l0,0c0.121-9.396,0.609-17.928,0.562-17.934l0,0c0.144,0.006,0.735-34.207,0.466-41.039
				l0,0c-0.042-3.153-0.069-5.612,0.091-7.933l0,0c0.034-0.696,0.109-1.383,0.196-2.07l0,0h-0.246
				c-0.11,0.669-0.208,1.339-0.266,2.03l0,0c-0.233,2.34-0.246,4.83-0.207,7.979l0,0c0.265,6.828-0.321,41.018-0.463,41.008l0,0
				c0.046-0.004-0.444,8.535-0.567,17.949l0,0c-0.053,4.381-0.084,8.953-0.084,12.932l0,0C43.741,60.812,43.783,64.59,43.889,66.41z
				"/>
		</defs>
		<clipPath id="SVGID_40_">
			<use xlink:href="#SVGID_39_"  overflow="visible"/>
		</clipPath>
		<g clip-path="url(#SVGID_40_)">
			
				<linearGradient id="SVGID_41_" gradientUnits="userSpaceOnUse" x1="56.2815" y1="50.5154" x2="56.2815" y2="48.6814" gradientTransform="matrix(-4.371139e-08 -1 -1 4.371139e-08 94.2559 78.561)">
				<stop  offset="0" style="stop-color:#DDB070"/>
				<stop  offset="1" style="stop-color:#D2944C"/>
			</linearGradient>
			<path fill="url(#SVGID_41_)" d="M43.741,56.256c0-3.979,0.031-8.551,0.084-12.932c0.123-9.414,0.613-17.953,0.567-17.949
				c0.142,0.01,0.728-34.18,0.463-41.008c-0.039-3.149-0.026-5.64,0.207-7.979c0.149-1.36,0.062-0.685,0.266-2.029h0.246
				c-0.157,1.376-0.093,0.686-0.196,2.069c-0.16,2.32-0.133,4.779-0.091,7.933c0.27,6.832-0.322,41.044-0.466,41.039
				c0.047,0.006-0.441,8.537-0.562,17.934c-0.109,9.402-0.135,19.65,0.06,23.059c0.058,1.389,0.062,2.645,0.039,3.811h-0.404
				c0.007-1.166-0.005-2.414-0.063-3.791C43.783,64.59,43.741,60.812,43.741,56.256z"/>
		</g>
	</g>
	<g>
		<defs>
			<rect id="SVGID_42_" x="25.643" y="-25.642" width="44.558" height="95.843"/>
		</defs>
		<clipPath id="SVGID_43_">
			<use xlink:href="#SVGID_42_"  overflow="visible"/>
		</clipPath>
		<g clip-path="url(#SVGID_43_)">
			<path fill="#E8C180" d="M31.285,40.924c-0.163-9.838-0.479-18.747-0.45-18.749c0.021,0-0.285-8.927-0.226-18.731
				c0.022-2.449,0.08-4.955,0.212-7.377c0.161-2.4,0.393-4.803,0.414-6.984c0.096-4.368-0.059-7.945-0.128-9.73
				c-0.088-1.859-0.184-3.49-0.293-4.994h-0.576c0.074,1.518,0.15,3.16,0.236,5.035c0.066,1.775,0.219,5.336,0.123,9.668
				c-0.022,2.174-0.246,4.487-0.412,6.951c-0.134,2.447-0.19,4.965-0.213,7.424c-0.058,9.836,0.25,18.76,0.23,18.762
				c-0.028-0.002,0.283,8.933,0.444,18.732c-0.003,9.801-0.411,20.51-0.445,24.078c-0.03,1.939-0.036,3.635-0.027,5.193h0.57
				c0.028-1.557,0.057-3.246,0.09-5.176C30.875,61.461,31.284,50.765,31.285,40.924"/>
			<path fill="#E8C180" d="M63.313,63.226c-0.045-1.67-0.395-4.977-0.867-8.961c-0.416-3.967-0.758-8.752-1.395-13.24
				c-1.27-8.986-2.303-17.139-2.227-17.152c0.043,0.004-0.303-2.058-0.354-5.209c-0.059-3.172,0.537-7.442,1.52-11.817
				c0.967-4.377,2.092-8.981,2.475-13.039c0.369-4.022,0.678-7.291,0.84-8.94c0.564-4.287,0.375-7.334,0.531-10.51H63.53
				c-0.361,3.151-0.285,6.178-0.854,10.422c-0.162,1.631-0.477,4.938-0.842,8.932c-0.375,3.975-1.486,8.533-2.459,12.934
				c-0.988,4.398-1.6,8.764-1.537,12.023c0.053,3.267,0.402,5.29,0.357,5.301c-0.076,0.012,0.961,8.223,2.227,17.18
				c0.635,4.486,0.969,9.189,1.393,13.223c0.475,4,0.82,7.262,0.865,8.9c0.168,2.664-0.01,4.867-0.135,6.93h0.5
				C63.254,68.172,63.473,65.976,63.313,63.226"/>
			<path fill="#E8C587" d="M58.227,54.924c0.635-4.08-0.002-8.938-0.365-13.449c-0.891-9.094-1.67-17.338-1.625-17.344
				c0.006-0.006-0.207-2.063-0.244-5.261c-0.053-3.201,0.225-7.543,0.562-12.1c0.494-9.168,1.086-19.051,1.422-22.373
				c0.299-4.092,0.449-7.016,0.465-10.039h-0.34c-0.201,2.998-0.451,5.889-0.756,9.967c-0.021,0.217-0.045,0.463-0.07,0.736
				c-0.045,2.629-0.369,6.934-0.797,11.74c-0.189,3.18-0.381,6.602-0.559,9.902c-0.338,4.552-0.617,8.928-0.562,12.177
				c0.039,3.247,0.254,5.327,0.25,5.321c-0.047,0.008,0.732,8.287,1.621,17.359c0.365,4.555,0.99,9.289,0.367,13.254
				c-0.561,3.963-0.838,7.367-0.727,9.045c0.068,2.451,0.158,4.471,0.254,6.342h0.521c-0.025-1.883-0.078-3.914-0.145-6.367
				C57.399,62.183,57.66,58.949,58.227,54.924"/>
			<path fill="#E8C180" d="M34.274,55.371c0.114-4.178,0.041-9.109-0.006-13.809c-0.063-9.395,0.527-17.924,0.505-17.924
				c-0.073-0.016,0.621-8.501,1.076-17.934c0.206-4.71-0.134-9.712-0.664-13.812c-0.438-4.129-0.724-7.527-0.841-9.228
				c-0.235-3.306-0.407-5.86-0.551-8.308h-0.446c0.026,2.469,0.135,5.047,0.367,8.379c0.114,1.705,0.398,5.115,0.838,9.258
				c0.534,4.139,0.862,8.98,0.661,13.682c-0.45,9.357-1.147,17.91-1.073,17.908c0.025,0-0.572,8.549-0.509,17.984
				c0.047,4.713,0.12,9.619,0.005,13.781c-0.023,4.303,0.965,7.584,1.084,9.258c0.188,2.109,0.317,3.916,0.407,5.594h0.552
				c-0.041-1.701-0.144-3.547-0.335-5.719C35.217,62.763,34.243,59.453,34.274,55.371"/>
			<path fill="#E9C689" d="M38.121,66.586c0.08-3.531-1.07-13.967-0.972-23.572c0.07-9.609,0.265-18.377,0.228-18.375
				c0.017,0-0.004-2.179,0.184-5.554c0.172-3.375,0.589-7.939,0.85-12.758c0.518-9.676-0.441-20.166,0.145-23.596
				c0.263-3.195,0.527-5.719,0.587-8.129c0.003-0.082,0.004-0.164,0.006-0.244h-0.454c-0.005,0.068-0.008,0.139-0.016,0.209
				c-0.166,2.375-0.483,4.865-0.752,8.09c-0.597,3.525,0.364,14.062-0.153,23.619c-0.256,4.789-0.672,9.363-0.844,12.758
				c-0.188,3.396-0.167,5.601-0.184,5.599c0.036,0.004-0.161,8.734-0.231,18.381c-0.1,9.672,1.051,20.121,0.974,23.596
				c0.041,1.291,0.055,2.477,0.058,3.592h0.601C38.162,69.09,38.16,67.896,38.121,66.586"/>
			<path fill="#E6C893" d="M52.821,41.22c-0.23-9.23-0.139-17.59-0.078-17.588c-0.709-0.059,3.676-33.177,3.342-40.031
				c0.09-3.766-0.527-6.539-0.729-9.244h-0.354c0.016,0.504,0.039,1.004,0.049,1.496c0.154,2.319,0.395,4.67,0.4,7.764
				c0.334,6.629-4.049,39.9-3.342,39.988c-0.061-0.002-0.154,8.416,0.074,17.629c0.086,9.209,0.002,19.277,0.055,22.631
				c0.041,2.451,0.156,4.471,0.266,6.336h0.525c-0.041-1.883-0.121-3.916-0.158-6.346C52.824,60.511,52.908,50.457,52.821,41.22"/>
			<path fill="#E6C893" d="M49.567,42.357c0.328-9.309,1-17.744,0.988-17.744c0.664-0.016,0.191-33.937,0.385-40.691
				c0.088-3.109,0.178-5.57,0.109-7.906c-0.008-0.556-0.047-1.108-0.086-1.658h-0.381c0.008,0.564,0.02,1.121,0.004,1.666
				c-0.039,2.308-0.186,4.74-0.279,7.878c-0.203,6.782,0.279,40.708-0.383,40.641c0.012,0.004-0.664,8.451-0.992,17.779
				c-0.291,9.336-0.434,19.486-0.589,22.873c-0.092,1.873-0.095,3.502-0.075,5.006h0.569c0.02-1.504,0.045-3.127,0.139-4.979
				C49.137,61.847,49.28,51.656,49.567,42.357"/>
			<path fill="#E9C78A" d="M40.635,25.181c0.086,0-0.395-8.726,0.021-18.265c0.331-9.526,1.924-19.94,1.238-23.489
				c-0.205-3.64-0.506-6.405-0.48-9.069h-0.417c-0.159,2.698,0.065,5.528,0.266,9.125c0.679,3.452-0.905,13.762-1.241,23.389
				c-0.418,9.616,0.068,18.33-0.02,18.328c0.548-0.053-1.344,34.873,0.243,41.799c0.072,1.152,0.14,2.207,0.203,3.205h0.607
				c-0.048-1.016-0.107-2.094-0.18-3.264C39.3,60.047,41.183,25.222,40.635,25.181"/>
			<path fill="#E6C893" d="M46.38,42.793c0.194-9.371,0.153-17.934,0.14-17.924c0.033-0.004-0.145-8.534,0.146-17.9
				c0.128-9.365,1.518-19.492,1.492-22.939c0.145-3.162,0.072-5.627,0.156-7.947c0.014-0.576,0.029-1.15,0.038-1.725h-0.377
				c-0.042,0.561-0.086,1.121-0.125,1.691c-0.19,2.342-0.175,4.816-0.325,7.936c0.025,3.392-1.366,13.531-1.497,22.959
				c-0.288,9.391-0.108,17.933-0.142,17.929c0.014,0.01,0.051,8.518-0.145,17.906C45.69,52.15,45.179,62.39,45.429,65.82
				c0.045,1.619,0.097,3.053,0.148,4.381h0.585c-0.022-1.34-0.06-2.785-0.102-4.404C45.817,62.41,46.328,52.191,46.38,42.793"/>
			<path fill="#E6C893" d="M43.079,66.388c-0.224-3.408-0.185-13.648-0.068-23.057c0.119-9.391,0.675-17.92,0.625-17.93
				c0.142,0.002,0.779-34.221,0.489-41.054c-0.046-3.154-0.083-5.606,0.077-7.919c0.031-0.696,0.109-1.382,0.197-2.071h-0.361
				c-0.123,0.657-0.232,1.321-0.297,2.007c-0.271,2.344-0.291,4.846-0.249,7.995c0.278,6.828-0.348,41.017-0.489,41.007
				c0.053-0.006-0.508,8.529-0.629,17.951c-0.117,9.4-0.155,19.689,0.071,23.098c0.068,1.373,0.084,2.619,0.078,3.785h0.599
				C43.147,69.033,43.142,67.779,43.079,66.388"/>
		</g>
	</g>
</g>
</svg>
