<?xml version="1.0" encoding="UTF-8"?>
<!DOCTYPE svg PUBLIC "-//W3C//DTD SVG 1.1//EN" "http://www.w3.org/Graphics/SVG/1.1/DTD/svg11.dtd">
<svg version="1.1" xmlns="http://www.w3.org/2000/svg" xmlns:xlink="http://www.w3.org/1999/xlink" x="0" y="0" width="95.844" height="44.558" viewBox="0, 0, 95.844, 44.558">
  <defs>
    <linearGradient id="Gradient_1" gradientUnits="userSpaceOnUse" x1="47.922" y1="0" x2="47.922" y2="4.174">
      <stop offset="0" stop-color="#896332"/>
      <stop offset="1" stop-color="#B88344"/>
    </linearGradient>
    <clipPath id="Clip_1">
      <path d="M30.477,0.001 C28.599,0.206 25.304,0.124 22.961,0.243 L22.961,0.243 L23.116,0.087 C21.904,0.276 18.658,0.077 17.606,0.304 L17.606,0.304 L17.428,0.24 L15.035,0.447 L14.974,0.449 C13.934,0.426 14.291,0.198 14.205,0.262 L14.205,0.262 C11.806,0.303 9.926,0.316 8.383,0.236 L8.383,0.236 C8.045,0.418 6.074,0.483 4.244,0.514 L4.244,0.514 C3.896,0.517 3.549,0.519 3.205,0.523 L3.205,0.523 C2.145,0.509 1.075,0.499 -0,0.493 L-0,0.493 L-0,1.289 L-0,1.598 L-0,3.197 L2.828,3.197 C4.662,3.197 10.164,3.103 13.834,3.103 L13.834,3.103 C17.502,3.103 21.17,3.197 25.758,3.854 L25.758,3.854 C30.344,4.511 34.928,4.043 39.629,3.477 L39.629,3.477 C44.33,2.915 51.094,3.384 55.108,3.384 L55.108,3.384 C59.119,3.384 65.426,3.76 69.553,3.76 L69.553,3.76 C73.68,3.76 77.463,4.136 80.215,4.136 L80.215,4.136 C82.967,4.136 95.845,3.384 95.845,3.384 L95.845,3.384 L95.845,0.61 C94.863,0.641 93.522,0.627 92.144,0.615 L92.144,0.615 C90.64,0.601 89.093,0.587 87.92,0.628 L87.92,0.628 C87.383,0.636 86.758,0.613 86.01,0.589 L86.01,0.589 C85.29,0.566 84.456,0.544 83.473,0.548 L83.473,0.548 L83.604,0.629 C81.986,0.548 75.967,0.496 74.46,0.31 L74.46,0.31 C72.94,0.372 74.618,0.327 74.585,0.39 L74.585,0.39 C71.619,0.474 71.412,0.347 69.858,0.3 L69.858,0.3 C68.032,0.34 71.255,0.33 70.272,0.392 L70.272,0.392 C68.845,0.361 68.282,0.387 67.614,0.413 L67.614,0.413 C66.974,0.438 66.236,0.463 64.545,0.437 L64.545,0.437 C64.202,0.392 65.436,0.406 65.794,0.375 L65.794,0.375 C64.174,0.431 61.623,0.426 59.031,0.423 L59.031,0.423 C57.736,0.421 56.43,0.418 55.225,0.424 L55.225,0.424 C56.081,0.39 56.84,0.362 57.286,0.327 L57.286,0.327 L54.104,0.399 C54.297,0.294 51.952,0.22 53.631,0.119 L53.631,0.119 C50.461,0.022 46.629,0.139 43.59,0.224 L43.59,0.224 C43.965,0.255 44.436,0.274 44.488,0.324 L44.488,0.324 C44.015,0.319 43.543,0.314 43.079,0.31 L43.079,0.31 C42.949,0.277 42.9,0.235 42.764,0.202 L42.764,0.202 C42.401,0.226 42.164,0.258 41.989,0.297 L41.989,0.297 C41.353,0.29 40.73,0.281 40.129,0.272 L40.129,0.272 L40.039,0.301 C38.861,0.258 37.624,0.264 36.33,0.269 L36.33,0.269 C35.521,0.272 34.69,0.275 33.835,0.266 L33.835,0.266 C33.773,0.265 33.705,0.264 33.633,0.263 L33.633,0.263 L33.646,0.264 C33.598,0.263 33.548,0.263 33.5,0.263 L33.5,0.263 L33.744,0.272 C33.942,0.288 34.141,0.3 34.269,0.317 L34.269,0.317 C33.709,0.331 33.234,0.336 32.773,0.337 L32.773,0.337 C32.467,0.301 32.156,0.269 31.502,0.303 L31.502,0.303 L32.572,0.102 C31.498,0.11 29.922,0.171 30.477,0.001 z"/>
    </clipPath>
    <clipPath id="Clip_2">
      <path d="M-0,-0 L95.844,-0 L95.844,44.558 L-0,44.558 z"/>
    </clipPath>
    <linearGradient id="Gradient_2" gradientUnits="userSpaceOnUse" x1="47.922" y1="40.093" x2="47.922" y2="44.558">
      <stop offset="0" stop-color="#B88344"/>
      <stop offset="1" stop-color="#896332"/>
    </linearGradient>
    <clipPath id="Clip_3">
      <path d="M74.483,40.656 C74.483,40.656 72.419,40.749 70.7,40.749 L70.7,40.749 C68.979,40.749 67.948,40.562 66.802,40.562 L66.802,40.562 C65.655,40.562 60.725,40.937 59.578,40.937 L59.578,40.937 L52.928,40.937 L33.094,40.937 C30.801,40.937 30.457,40.656 27.248,40.656 L27.248,40.656 C24.037,40.656 22.088,41.313 18.536,40.843 L18.536,40.843 C14.98,40.375 11.31,40.375 7.987,40.937 L7.987,40.937 C4.662,41.502 -0,40.937 -0,40.937 L-0,40.937 L-0,42.452 L-0,42.534 L-0,43.74 C0.977,43.559 2.66,43.6 4.399,43.642 L4.399,43.642 C5.898,43.678 7.439,43.713 8.609,43.606 L8.609,43.606 C9.142,43.587 9.761,43.648 10.502,43.708 L10.502,43.708 C11.226,43.768 12.066,43.827 13.056,43.812 L13.056,43.812 L12.926,43.603 C14.543,43.816 20.562,43.95 22.071,44.434 L22.071,44.434 C23.59,44.272 21.911,44.39 21.944,44.224 L21.944,44.224 C24.91,44.007 25.117,44.336 26.671,44.458 L26.671,44.458 C28.498,44.355 25.276,44.379 26.258,44.222 L26.258,44.222 C27.68,44.303 28.243,44.235 28.908,44.167 L28.908,44.167 C29.551,44.101 30.288,44.035 31.986,44.103 L31.986,44.103 C32.328,44.221 31.094,44.185 30.736,44.262 L30.736,44.262 C32.351,44.121 34.893,44.13 37.479,44.14 L37.479,44.14 C38.785,44.146 40.102,44.15 41.316,44.136 L41.316,44.136 C45.455,44.284 51.565,44.343 56.401,44.531 L56.401,44.531 L56.49,44.454 C57.661,44.569 58.891,44.554 60.177,44.54 L60.177,44.54 C61.098,44.53 62.049,44.52 63.03,44.556 L63.03,44.556 L61.881,44.445 C63.417,44.312 64.278,44.396 65.729,44.339 L65.729,44.339 L66.54,44.558 C68.112,44.486 67.234,44.373 68.376,44.259 L68.376,44.259 C69.322,44.351 70.957,44.327 72.158,44.302 L72.158,44.302 C72.778,44.29 73.282,44.277 73.514,44.28 L73.514,44.28 C73.984,44.382 72.926,44.419 72.696,44.481 L72.696,44.481 C74.54,44.408 74.408,44.199 76.7,44.195 L76.7,44.195 L76.737,44.256 C82.208,43.942 89.143,44.025 95.227,43.827 L95.227,43.827 C94.815,43.816 94.919,43.77 94.76,43.726 L94.76,43.726 C95.117,43.722 95.481,43.718 95.845,43.715 L95.845,43.715 L95.845,42.587 C95.768,42.59 95.686,42.591 95.606,42.593 L95.606,42.593 L95.845,40.937 L88.928,40.937 C86.635,40.937 82.737,40.093 80.674,40.093 L80.674,40.093 C78.61,40.093 74.483,40.656 74.483,40.656 z"/>
    </clipPath>
    <linearGradient id="Gradient_3" gradientUnits="userSpaceOnUse" x1="50.064" y1="34.96" x2="50.064" y2="40.289">
      <stop offset="0" stop-color="#D2944C"/>
      <stop offset="0.831" stop-color="#D4A358"/>
      <stop offset="1" stop-color="#D4A358"/>
    </linearGradient>
    <clipPath id="Clip_4">
      <path d="M-0,-0 L95.844,-0 L95.844,44.558 L-0,44.558 z"/>
    </clipPath>
    <linearGradient id="Gradient_4" gradientUnits="userSpaceOnUse" x1="47.922" y1="6.262" x2="47.922" y2="7.757">
      <stop offset="0" stop-color="#D2944C"/>
      <stop offset="0.831" stop-color="#D4A358"/>
      <stop offset="1" stop-color="#D4A358"/>
    </linearGradient>
    <clipPath id="Clip_5">
      <path d="M53.149,6.373 C49.997,6.432 47.996,6.492 47.996,6.482 L47.996,6.482 C47.998,6.456 39.063,6.744 29.268,6.892 L29.268,6.892 C19.474,6.889 8.763,6.512 5.197,6.481 L5.197,6.481 C3.252,6.454 1.561,6.453 -0,6.469 L-0,6.469 L-0,7.246 C1.559,7.281 3.245,7.31 5.172,7.341 L5.172,7.341 C8.734,7.38 19.43,7.756 29.275,7.757 L29.275,7.757 C39.115,7.607 48.021,7.317 48.026,7.342 L48.026,7.342 C48.024,7.351 49.999,7.294 53.111,7.236 L53.111,7.236 C56.614,7.171 61.559,7.106 66.749,7.136 L66.749,7.136 C71.666,7.068 76.698,7.583 81.11,7.712 L81.11,7.712 C85.485,7.8 89.061,7.656 90.846,7.593 L90.846,7.593 C92.707,7.512 94.338,7.419 95.845,7.31 L95.845,7.31 L95.845,6.528 C94.323,6.588 92.677,6.654 90.797,6.734 L90.797,6.734 C89.023,6.792 85.463,6.934 81.137,6.846 L81.137,6.846 C76.854,6.721 71.676,6.201 66.76,6.269 L66.76,6.269 C65.92,6.265 65.086,6.263 64.265,6.263 L64.265,6.263 C60.019,6.263 56.085,6.318 53.149,6.373 z"/>
    </clipPath>
    <linearGradient id="Gradient_5" gradientUnits="userSpaceOnUse" x1="47.922" y1="33.349" x2="47.922" y2="39.09">
      <stop offset="0" stop-color="#DDB070"/>
      <stop offset="1" stop-color="#D2944C"/>
    </linearGradient>
    <clipPath id="Clip_6">
      <path d="M51.506,33.354 C48.233,33.406 46.215,33.727 46.202,33.686 L46.202,33.686 C46.192,33.617 37.973,34.573 29.016,35.74 L29.016,35.74 C24.525,36.326 19.838,36.631 15.799,37.023 L15.799,37.023 C11.799,37.462 8.545,37.778 6.912,37.82 L6.912,37.82 C4.262,37.976 2.065,37.822 -0,37.724 L-0,37.724 L-0,38.404 C2.021,38.615 4.211,38.827 6.969,38.679 L6.969,38.679 C8.639,38.64 11.949,38.318 15.932,37.882 L15.932,37.882 C19.889,37.499 24.678,37.184 29.17,36.598 L29.17,36.598 C38.165,35.425 46.309,34.472 46.32,34.541 L46.32,34.541 C46.315,34.582 48.383,34.263 51.514,34.216 L51.514,34.216 C54.669,34.161 58.924,34.701 63.313,35.611 L63.313,35.611 C67.702,36.506 72.33,37.548 76.395,37.902 L76.395,37.902 C80.419,38.239 83.68,38.524 85.331,38.673 L85.331,38.673 C89.626,39.193 92.665,38.992 95.845,39.091 L95.845,39.091 L95.845,38.673 C92.698,38.294 89.682,38.341 85.441,37.817 L85.441,37.817 C83.813,37.668 80.504,37.375 76.516,37.04 L76.516,37.04 C72.555,36.697 67.987,35.671 63.565,34.77 L63.565,34.77 C59.359,33.899 55.19,33.35 51.982,33.35 L51.982,33.35 C51.821,33.35 51.662,33.351 51.506,33.354 z"/>
    </clipPath>
    <linearGradient id="Gradient_6" gradientUnits="userSpaceOnUse" x1="47.922" y1="31.022" x2="47.922" y2="34.134">
      <stop offset="0" stop-color="#DDB070"/>
      <stop offset="1" stop-color="#D2944C"/>
    </linearGradient>
    <clipPath id="Clip_7">
      <path d="M46,31.234 C45.995,31.192 37.709,31.91 28.633,32.73 L28.633,32.73 C24.07,33.067 19.354,33.641 15.396,33.068 L15.396,33.068 C11.434,32.55 8.014,32.295 6.336,32.398 L6.336,32.398 C3.887,32.462 1.867,32.551 -0,32.652 L-0,32.652 L-0,33.328 C1.883,33.316 3.912,33.275 6.363,33.214 L6.363,33.214 C8.012,33.121 11.227,33.36 15.266,33.884 L15.266,33.884 C19.359,34.472 24.224,33.884 28.736,33.548 L28.736,33.548 C37.836,32.725 46.082,32.007 46.088,32.048 L46.088,32.048 C46.098,31.943 54.307,31.511 63.428,32.343 L63.428,32.343 C72.604,32.799 82.473,33.344 85.801,33.654 L85.801,33.654 C89.895,33.927 92.821,34.048 95.845,34.028 L95.845,34.028 L95.845,33.59 C92.85,33.368 89.963,33.121 85.887,32.839 L85.887,32.839 C82.614,32.525 72.584,31.972 63.508,31.522 L63.508,31.522 C59.3,31.137 55.227,31.023 52.071,31.023 L52.071,31.023 C48.408,31.023 45.979,31.176 46,31.234 z"/>
    </clipPath>
    <linearGradient id="Gradient_7" gradientUnits="userSpaceOnUse" x1="47.922" y1="9.402" x2="47.922" y2="11.967">
      <stop offset="0" stop-color="#DDB070"/>
      <stop offset="1" stop-color="#D2944C"/>
    </linearGradient>
    <clipPath id="Clip_8">
      <path d="M87.464,9.706 C85.757,9.81 82.342,10.074 78.196,10.479 L78.196,10.479 C74.048,10.971 69.223,11.271 64.528,11.088 L64.528,11.088 C55.176,10.673 46.617,10.03 46.619,10.1 L46.619,10.1 C46.619,10.111 44.611,9.986 41.467,9.863 L41.467,9.863 C38.125,9.732 33.499,9.6 28.637,9.629 L28.637,9.629 C23.924,9.672 19.021,9.74 14.865,9.634 L14.865,9.634 C10.545,9.611 7.248,10.525 5.58,10.634 L5.58,10.634 C3.479,10.808 1.674,10.931 -0,11.025 L-0,11.025 L-0,11.737 C1.701,11.708 3.551,11.619 5.727,11.443 L5.727,11.443 C7.455,11.325 10.783,10.425 14.838,10.457 L14.838,10.457 C19.015,10.564 23.949,10.496 28.644,10.453 L28.644,10.453 C33.495,10.422 38.118,10.552 41.452,10.683 L41.452,10.683 C44.568,10.804 46.559,10.926 46.559,10.916 L46.559,10.916 C46.572,10.848 55.055,11.489 64.49,11.91 L64.49,11.91 C69.202,12.101 74.215,11.786 78.317,11.298 L78.317,11.298 C82.45,10.892 85.846,10.628 87.546,10.521 L87.546,10.521 C90.851,10.303 93.401,10.133 95.845,9.979 L95.845,9.979 L95.845,9.402 C93.376,9.404 90.796,9.493 87.464,9.706 z"/>
    </clipPath>
    <linearGradient id="Gradient_8" gradientUnits="userSpaceOnUse" x1="47.922" y1="12.19" x2="47.922" y2="14.791">
      <stop offset="0" stop-color="#DDB070"/>
      <stop offset="1" stop-color="#D2944C"/>
    </linearGradient>
    <clipPath id="Clip_9">
      <path d="M12.942,12.645 C8.743,12.888 5.314,13.13 3.597,13.096 L3.597,13.096 C2.305,13.134 1.117,13.146 -0,13.153 L-0,13.153 L-0,13.89 C1.115,13.906 2.31,13.906 3.623,13.871 L3.623,13.871 C5.375,13.908 8.824,13.665 13.027,13.423 L13.027,13.423 C17.301,13.177 22.352,12.93 27.192,12.976 L27.192,12.976 C36.795,13.039 45.561,13.218 45.559,13.183 L45.559,13.183 C45.566,13.079 54.238,13.482 63.868,14.136 L63.868,14.136 C68.608,14.371 73.542,14.279 77.744,14.188 L77.744,14.188 C82.121,14.091 85.705,13.995 87.454,14.268 L87.454,14.268 C90.649,14.51 93.176,14.745 95.588,14.785 L95.588,14.785 C95.674,14.789 95.76,14.79 95.845,14.79 L95.845,14.79 L95.845,14.236 L95.628,14.218 C93.254,14.048 90.764,13.747 87.538,13.497 L87.538,13.497 C85.724,13.216 82.069,13.313 77.65,13.408 L77.65,13.408 C73.455,13.5 68.572,13.591 63.923,13.359 L63.923,13.359 C59.137,13.122 54.561,12.738 51.164,12.579 L51.164,12.579 C47.769,12.406 45.563,12.425 45.564,12.408 L45.564,12.408 C45.563,12.443 36.834,12.262 27.192,12.196 L27.192,12.196 C26.793,12.192 26.394,12.19 25.994,12.19 L25.994,12.19 C21.485,12.19 16.876,12.418 12.942,12.645 z"/>
    </clipPath>
    <linearGradient id="Gradient_9" gradientUnits="userSpaceOnUse" x1="47.922" y1="27.692" x2="47.922" y2="31.637">
      <stop offset="0" stop-color="#DDB070"/>
      <stop offset="1" stop-color="#D2944C"/>
    </linearGradient>
    <clipPath id="Clip_10">
      <path d="M46.572,27.765 C46.574,27.711 38.156,27.624 28.949,27.835 L28.949,27.835 C23.876,27.878 18.542,27.875 14.214,27.871 L14.214,27.871 C10.691,27.867 7.836,27.865 6.332,27.886 L6.332,27.886 C3.881,27.924 1.863,28.037 -0,28.147 L-0,28.147 L-0,28.79 C1.885,28.762 3.914,28.693 6.344,28.66 L6.344,28.66 C7.785,28.642 10.474,28.647 13.807,28.65 L13.807,28.65 C18.201,28.655 23.714,28.66 28.967,28.615 L28.967,28.615 C38.191,28.402 46.541,28.486 46.541,28.54 L46.541,28.54 C46.57,28.099 61.509,29.776 73.401,30.836 L73.401,30.836 C78.395,31.131 82.784,31.422 85.141,31.633 L85.141,31.633 C85.702,31.642 86.19,31.64 86.585,31.622 L86.585,31.622 C90.368,31.709 93.136,31.123 95.845,30.916 L95.845,30.916 L95.845,30.472 C95.334,30.484 94.829,30.499 94.329,30.505 L94.329,30.505 C92.004,30.632 89.659,30.845 86.566,30.848 L86.566,30.848 C83.393,30.995 74.047,30.137 65.187,29.28 L65.187,29.28 C56.998,28.486 49.225,27.693 47.125,27.693 L47.125,27.693 C46.771,27.693 46.578,27.716 46.572,27.765 z"/>
    </clipPath>
    <linearGradient id="Gradient_10" gradientUnits="userSpaceOnUse" x1="47.922" y1="23.808" x2="47.922" y2="26.459">
      <stop offset="0" stop-color="#DDB070"/>
      <stop offset="1" stop-color="#D2944C"/>
    </linearGradient>
    <clipPath id="Clip_11">
      <path d="M-0,23.819 L-0,24.4 C1.504,24.42 3.129,24.444 4.982,24.531 L4.982,24.531 C8.357,24.68 18.544,24.812 27.842,25.078 L27.842,25.078 C37.147,25.378 45.586,25.998 45.586,25.986 L45.586,25.986 C45.597,26.375 59.123,26.345 70.791,26.314 L70.791,26.314 C77.6,26.296 83.776,26.278 86.264,26.343 L86.264,26.343 C89.374,26.421 91.832,26.503 94.166,26.435 L94.166,26.435 C94.729,26.428 95.288,26.39 95.845,26.351 L95.845,26.351 L95.845,25.964 C95.274,25.971 94.712,25.98 94.159,25.961 L94.159,25.961 C91.85,25.922 89.419,25.781 86.284,25.698 L86.284,25.698 C83.742,25.627 77.39,25.645 70.443,25.664 L70.443,25.664 C58.855,25.694 45.614,25.725 45.651,25.343 L45.651,25.343 C45.651,25.355 37.199,24.732 27.875,24.428 L27.875,24.428 C18.541,24.161 8.393,24.03 5.008,23.886 L5.008,23.886 C3.727,23.828 2.561,23.809 1.471,23.809 L1.471,23.809 C0.966,23.809 0.476,23.813 -0,23.819 z"/>
    </clipPath>
    <linearGradient id="Gradient_11" gradientUnits="userSpaceOnUse" x1="47.922" y1="15.034" x2="47.922" y2="17.373">
      <stop offset="0" stop-color="#DDB070"/>
      <stop offset="1" stop-color="#D2944C"/>
    </linearGradient>
    <clipPath id="Clip_12">
      <path d="M3.201,15.633 C2.053,15.699 0.995,15.763 -0,15.82 L-0,15.82 L-0,16.441 C1.013,16.398 2.09,16.343 3.258,16.276 L3.258,16.276 C7.308,15.424 20.982,15.671 31.589,15.916 L31.589,15.916 C39.047,16.09 44.989,16.263 45.006,16.054 L45.006,16.054 C45.006,16.086 46.318,16.038 48.48,15.99 L48.48,15.99 C51.894,15.915 57.426,15.84 63.266,16.074 L63.266,16.074 C72.791,16.377 83.213,17.848 86.756,17.216 L86.756,17.216 C90.409,17.029 93.174,16.745 95.845,16.762 L95.845,16.762 L95.845,16.338 C93.143,16.183 90.315,16.388 86.703,16.572 L86.703,16.572 C83.253,17.195 72.931,15.733 63.309,15.425 L63.309,15.425 C57.436,15.192 51.899,15.268 48.482,15.344 L48.482,15.344 C46.306,15.393 44.988,15.44 44.99,15.409 L44.99,15.409 C45.01,15.618 39.092,15.443 31.641,15.269 L31.641,15.269 C26.616,15.152 20.891,15.035 15.824,15.034 L15.824,15.034 C10.178,15.034 5.348,15.18 3.201,15.633 z"/>
    </clipPath>
    <linearGradient id="Gradient_12" gradientUnits="userSpaceOnUse" x1="47.922" y1="21.412" x2="47.922" y2="24.048">
      <stop offset="0" stop-color="#DDB070"/>
      <stop offset="1" stop-color="#D2944C"/>
    </linearGradient>
    <clipPath id="Clip_13">
      <path d="M4.385,21.474 C2.768,21.515 1.33,21.562 -0,21.607 L-0,21.607 L-0,22.003 C1.338,21.98 2.779,21.945 4.4,21.905 L4.4,21.905 C7.793,21.679 18.015,22.15 27.406,22.197 L27.406,22.197 C36.783,22.377 45.33,22.333 45.326,22.325 L45.326,22.325 C45.326,22.33 45.958,22.325 47.066,22.32 L47.066,22.32 C50.029,22.306 56.404,22.293 63.229,22.46 L63.229,22.46 C72.602,22.579 82.744,23.862 86.18,23.838 L86.18,23.838 C89.332,23.972 91.799,23.911 94.124,24.001 L94.124,24.001 C94.7,24.017 95.272,24.036 95.845,24.048 L95.845,24.048 L95.845,23.791 C95.279,23.757 94.715,23.72 94.145,23.687 L94.145,23.687 C91.805,23.523 89.335,23.544 86.207,23.408 L86.207,23.408 C82.807,23.431 72.657,22.147 63.245,22.027 L63.245,22.027 C56.434,21.861 50.068,21.875 47.089,21.89 L47.089,21.89 C45.964,21.895 45.321,21.9 45.322,21.895 L45.322,21.895 C45.319,21.901 36.803,21.945 27.414,21.764 L27.414,21.764 C19.855,21.725 11.735,21.412 7.081,21.412 L7.081,21.412 C5.964,21.412 5.047,21.43 4.385,21.474 z"/>
    </clipPath>
    <linearGradient id="Gradient_13" gradientUnits="userSpaceOnUse" x1="47.922" y1="18.096" x2="47.922" y2="19.929">
      <stop offset="0" stop-color="#DDB070"/>
      <stop offset="1" stop-color="#D2944C"/>
    </linearGradient>
    <clipPath id="Clip_14">
      <path d="M3.791,18.246 C2.414,18.304 1.166,18.316 -0,18.309 L-0,18.309 L-0,18.714 C1.166,18.737 2.422,18.732 3.811,18.675 L3.811,18.675 C7.219,18.48 17.467,18.506 26.87,18.615 L26.87,18.615 C36.266,18.736 44.797,19.224 44.803,19.178 L44.803,19.178 C44.798,19.321 79.01,19.913 85.842,19.643 L85.842,19.643 C88.995,19.601 91.454,19.574 93.775,19.734 L93.775,19.734 C94.471,19.768 95.157,19.844 95.845,19.93 L95.845,19.93 L95.845,19.684 C95.176,19.574 94.506,19.476 93.815,19.419 L93.815,19.419 C91.475,19.185 88.985,19.173 85.835,19.212 L85.835,19.212 C79.007,19.476 44.818,18.89 44.826,18.749 L44.826,18.749 C44.83,18.795 36.291,18.304 26.878,18.181 L26.878,18.181 C22.496,18.129 17.925,18.097 13.947,18.097 L13.947,18.097 C9.389,18.097 5.612,18.139 3.791,18.246 z"/>
    </clipPath>
    <clipPath id="Clip_15">
      <path d="M-0,-0 L95.844,-0 L95.844,44.558 L-0,44.558 z"/>
    </clipPath>
  </defs>
  <g id="Layer_1">
    <path d="M-0,42.596 L95.845,42.596 L95.845,1.289 L-0,1.289 z" fill="#DEB170"/>
    <path d="M33.789,0.107 C34.271,0.026 34.967,0.06 35.469,0.005 L33.502,0.083 z" fill="#896332"/>
    <g clip-path="url(#Clip_1)">
      <path d="M30.477,0.001 C29.922,0.171 31.498,0.11 32.572,0.102 L31.502,0.303 C32.156,0.269 32.467,0.301 32.773,0.337 C33.234,0.336 33.709,0.331 34.269,0.317 C34.141,0.3 33.942,0.288 33.744,0.272 L33.5,0.263 C33.548,0.263 33.598,0.263 33.646,0.264 L33.633,0.263 C33.705,0.264 33.773,0.265 33.835,0.266 C34.69,0.275 35.521,0.272 36.33,0.269 C37.624,0.264 38.861,0.258 40.039,0.301 L40.129,0.272 C40.73,0.281 41.353,0.29 41.989,0.297 C42.164,0.258 42.401,0.226 42.764,0.202 C42.9,0.235 42.949,0.277 43.079,0.31 C43.543,0.314 44.015,0.319 44.488,0.324 C44.436,0.274 43.965,0.255 43.59,0.224 C46.629,0.139 50.461,0.022 53.631,0.119 C51.952,0.22 54.297,0.294 54.104,0.399 L57.286,0.327 C56.84,0.362 56.081,0.39 55.225,0.424 C56.43,0.418 57.736,0.421 59.031,0.423 C61.623,0.426 64.174,0.431 65.794,0.375 C65.436,0.406 64.202,0.392 64.545,0.437 C66.236,0.463 66.974,0.438 67.614,0.413 C68.282,0.387 68.845,0.361 70.272,0.392 C71.255,0.33 68.032,0.34 69.858,0.3 C71.412,0.347 71.619,0.474 74.585,0.39 C74.618,0.327 72.94,0.372 74.46,0.31 C75.967,0.496 81.986,0.548 83.604,0.629 L83.473,0.548 C84.456,0.544 85.29,0.566 86.01,0.589 C86.758,0.613 87.383,0.636 87.92,0.628 C89.093,0.587 90.64,0.601 92.144,0.615 C94.71,0.632 93.477,0.635 95.844,0.61 L95.844,3.384 C90.636,3.627 85.43,4.066 80.215,4.135 C77.463,4.136 73.68,3.76 69.553,3.76 C65.426,3.76 59.119,3.384 55.108,3.384 C51.094,3.384 44.33,2.915 39.629,3.477 C34.928,4.043 30.344,4.511 25.758,3.854 C21.17,3.197 17.502,3.103 13.834,3.103 C10.164,3.103 4.662,3.197 2.828,3.197 L-0,3.197 L-0,0.493 C1.075,0.499 2.145,0.509 3.205,0.523 C3.549,0.519 3.896,0.517 4.244,0.514 C6.074,0.483 8.045,0.418 8.383,0.236 C9.926,0.316 11.806,0.303 14.205,0.262 C14.291,0.198 13.934,0.426 14.974,0.449 L15.035,0.447 L17.428,0.24 L17.606,0.304 C18.658,0.077 21.904,0.276 23.116,0.087 L22.961,0.243 C25.304,0.124 28.599,0.206 30.477,0.001 z" fill="url(#Gradient_1)"/>
    </g>
    <g clip-path="url(#Clip_2)">
      <path d="M76.049,39.529 C74.754,38.665 72.244,38.846 70.617,38.653 C69.061,38.467 67.596,38.264 66.111,37.76 C62.682,36.597 59.438,35.645 55.662,35.335 C50.752,34.932 45.871,35.944 41.043,36.446 C36.632,36.905 32.271,37.62 27.898,38.075 C26.922,38.176 25.402,38.133 24.634,38.575 C25.894,39.411 29.549,39.18 31.207,39.275 C33.199,39.39 35.205,39.51 37.207,39.591 C41.574,39.769 45.961,39.608 50.367,39.781 C54.35,39.936 58.215,39.196 62.141,39.278 C66.125,39.362 70.102,39.216 74.045,39.48 C74.789,39.53 75.563,39.786 75.973,39.278 z" fill="#D19E5A"/>
      <path d="M12.922,32.863 C18.986,32.987 24.287,33.229 30.352,32.278 C42.918,30.311 56.053,31.973 68.665,32.206 C74.106,32.307 79.454,32.825 84.803,33.149 C87.456,33.311 90.022,33.417 92.622,33.781 C93.659,33.926 94.762,34.092 95.844,34.137 L95.844,9.729 C95.725,9.813 95.631,9.946 95.579,10.143 L95.692,9.675 C95.739,9.677 95.79,9.688 95.844,9.702 L95.844,9.676 C90.331,9.512 84.368,10.557 78.952,11.174 C73.878,11.751 67.932,11.95 62.756,11.531 C59.647,11.278 56.532,10.767 53.397,10.522 C49.489,10.216 45.604,10.469 41.66,10.141 C36.172,9.684 30.684,9.965 25.213,9.857 C20.262,9.76 14.961,9.797 10.164,10.613 C7.348,11.092 4.545,11.12 1.678,11.359 C1.242,11.395 0.627,11.389 -0,11.401 L-0,32.936 C3.6,32.308 11.242,32.829 12.922,32.863" fill="#E6BD78"/>
      <path d="M33.789,42.001 C34.271,41.907 34.967,41.946 35.469,41.882 L33.502,41.973 z" fill="#896332"/>
    </g>
    <g clip-path="url(#Clip_3)">
      <path d="M80.674,40.093 C82.737,40.093 86.635,40.937 88.928,40.937 L95.844,40.937 L95.844,40.942 L95.606,42.593 C95.766,42.589 95.686,42.591 95.844,42.587 L95.844,43.715 C95.12,43.721 95.481,43.718 94.76,43.726 C94.919,43.77 94.815,43.816 95.227,43.827 C89.143,44.025 82.208,43.942 76.737,44.256 L76.7,44.195 C74.408,44.199 74.54,44.408 72.696,44.481 C72.926,44.419 73.984,44.382 73.514,44.28 C73.282,44.277 72.778,44.29 72.158,44.302 C70.957,44.327 69.322,44.351 68.376,44.259 C67.234,44.373 68.112,44.486 66.54,44.558 L65.729,44.339 C64.278,44.396 63.417,44.312 61.881,44.445 L63.03,44.556 C62.049,44.52 61.098,44.53 60.177,44.54 C58.891,44.554 57.661,44.569 56.49,44.454 L56.401,44.531 C51.565,44.343 45.455,44.284 41.316,44.136 C40.102,44.15 38.785,44.146 37.479,44.14 C34.893,44.13 32.351,44.121 30.736,44.262 C31.094,44.185 32.328,44.221 31.986,44.103 C30.288,44.035 29.551,44.101 28.908,44.167 C28.243,44.235 27.68,44.303 26.258,44.222 C25.276,44.379 28.498,44.355 26.671,44.458 C25.117,44.336 24.91,44.007 21.944,44.224 C21.911,44.39 23.59,44.272 22.071,44.434 C20.562,43.95 14.543,43.816 12.926,43.603 L13.056,43.812 C12.066,43.827 11.226,43.768 10.502,43.708 C9.761,43.648 9.142,43.587 8.609,43.606 C7.439,43.713 5.898,43.678 4.399,43.642 C2.66,43.6 0.977,43.559 -0,43.74 L-0,40.937 C-0,40.937 4.662,41.502 7.987,40.937 C11.31,40.375 14.98,40.375 18.536,40.843 C22.088,41.313 24.037,40.656 27.248,40.656 C30.457,40.656 30.801,40.937 33.094,40.937 L59.578,40.937 C60.725,40.937 65.655,40.562 66.802,40.562 C67.948,40.562 68.979,40.749 70.7,40.749 C72.419,40.749 74.483,40.656 74.483,40.656 C74.483,40.656 78.61,40.093 80.674,40.093 z" fill="url(#Gradient_2)"/>
    </g>
    <path d="M30.353,37.411 C28.119,37.686 25.934,37.938 23.91,38.128 L23.91,38.128 L23.533,38.163 L23.346,38.181 L23.323,38.183 L23.311,38.184 C23.292,38.274 23.3,38.229 23.307,38.184 L23.307,38.184 C23.32,38.102 23.333,38.02 23.191,38.753 L23.191,38.753 L23.238,38.767 L23.33,38.794 C23.35,38.8 23.371,38.805 23.391,38.811 L23.391,38.811 C23.387,38.837 23.388,38.829 23.393,38.811 L23.393,38.811 C23.617,38.878 23.842,38.939 24.062,38.987 L24.062,38.987 C24.547,39.101 25.022,39.183 25.483,39.257 L25.483,39.257 C26.404,39.403 27.274,39.5 28.07,39.581 L28.07,39.581 C31.266,39.876 33.332,39.935 33.33,39.943 L33.33,39.943 C33.326,39.986 41.595,40.257 50.655,40.285 L50.655,40.285 C54.392,40.324 58.25,40.138 61.721,39.953 L61.721,39.953 C66.73,39.685 70.937,39.418 72.836,39.821 L72.836,39.821 C73.6,39.873 74.325,39.91 75.029,39.913 L75.029,39.913 C75.385,39.91 75.727,39.91 76.09,39.87 L76.09,39.87 C76.264,39.855 76.458,39.821 76.667,39.761 L76.667,39.761 L76.85,39.673 L76.893,39.649 L76.915,39.638 L76.924,39.631 L76.928,39.629 C76.921,39.563 76.926,39.595 76.93,39.628 L76.93,39.628 C76.939,39.686 76.948,39.745 76.885,39.212 L76.885,39.212 L76.817,39.185 L76.541,39.081 C75.235,38.763 74.108,38.703 72.973,38.587 L72.973,38.587 C70.748,38.352 68.598,38.373 66.154,37.941 L66.154,37.941 C61.969,36.003 58.461,35.058 52.407,34.975 L52.407,34.975 C52.224,34.965 52.023,34.961 51.805,34.961 L51.805,34.961 C47.954,34.961 38.806,36.376 30.353,37.411 z M50.67,39.689 C41.59,39.663 33.381,39.395 33.383,39.351 L33.383,39.351 C33.385,39.344 31.324,39.285 28.175,38.992 L28.175,38.992 C27.392,38.912 26.541,38.816 25.65,38.676 L25.65,38.676 C25.504,38.653 25.356,38.626 25.207,38.6 L25.207,38.6 C26.9,38.428 28.676,38.222 30.485,38 L30.485,38 C39.43,36.902 49.161,35.391 52.407,35.568 L52.407,35.568 C58.405,35.648 61.807,36.361 66.343,38.027 L66.343,38.027 C66.286,38.001 66.227,37.974 66.171,37.947 L66.171,37.947 C68.555,38.561 70.704,38.689 72.887,39.017 L72.887,39.017 C73.589,39.117 74.338,39.207 75.069,39.333 L75.069,39.333 L75.038,39.333 C74.372,39.323 73.661,39.282 72.909,39.232 L72.909,39.232 C70.932,38.821 66.667,39.09 61.653,39.358 L61.653,39.358 C58.506,39.526 55.064,39.695 51.708,39.695 L51.708,39.695 C51.361,39.695 51.015,39.693 50.67,39.689 z" fill="url(#Gradient_3)"/>
    <g clip-path="url(#Clip_4)">
      <path d="M32.83,24.444 C39.775,25.297 46.611,25.071 53.686,25.071 C62.194,25.07 70.522,25.822 79.038,25.822 C84.784,25.822 90.248,25.938 95.844,26.026 L95.844,16.454 C89.631,16.555 83.618,16.684 77.356,16.684 C70.817,16.684 64.598,15.817 58.1,15.682 C50.686,15.53 43.051,15.381 35.65,15.711 C28.379,16.034 21.142,15.145 13.754,15.3 C9.133,15.397 4.633,15.946 0,16.161 L0,23.848 C3.137,24.11 6.371,23.988 9.512,24.069 C17.055,24.264 25.393,23.532 32.83,24.444" fill="#E6C380"/>
    </g>
    <g clip-path="url(#Clip_5)">
      <path d="M64.265,6.262 C65.086,6.263 65.92,6.265 66.76,6.268 C71.676,6.201 76.854,6.721 81.137,6.845 C85.463,6.934 89.023,6.792 90.797,6.734 C94.251,6.59 92.569,6.659 95.844,6.527 L95.844,7.31 C92.602,7.518 94.268,7.422 90.846,7.592 C89.061,7.656 85.485,7.8 81.11,7.711 C76.698,7.583 71.666,7.068 66.749,7.135 C61.559,7.106 56.614,7.171 53.111,7.235 C49.999,7.294 48.024,7.351 48.026,7.342 C48.021,7.317 39.115,7.607 29.275,7.756 C19.43,7.756 8.734,7.38 5.172,7.341 C3.245,7.31 1.559,7.281 -0,7.246 L-0,6.469 C1.561,6.453 3.252,6.454 5.197,6.481 C8.763,6.512 19.474,6.889 29.268,6.891 C39.063,6.744 47.998,6.456 47.996,6.482 C47.996,6.492 49.997,6.432 53.149,6.372 C56.085,6.318 60.019,6.263 64.265,6.262 z" fill="url(#Gradient_4)"/>
    </g>
    <g clip-path="url(#Clip_6)">
      <path d="M51.982,33.35 C55.19,33.35 59.359,33.899 63.565,34.77 C67.987,35.671 72.555,36.697 76.516,37.04 C80.504,37.375 83.813,37.668 85.441,37.817 C88.898,38.229 92.379,38.349 95.844,38.673 L95.844,39.091 C92.331,39.083 88.827,39.039 85.331,38.673 C83.68,38.524 80.419,38.239 76.395,37.902 C72.33,37.548 67.702,36.506 63.313,35.611 C58.924,34.701 54.669,34.161 51.514,34.216 C48.383,34.263 46.315,34.582 46.32,34.541 C46.309,34.472 38.165,35.425 29.17,36.598 C24.678,37.184 19.889,37.499 15.932,37.882 C11.949,38.318 8.639,38.64 6.969,38.679 C4.211,38.827 2.021,38.615 -0,38.404 L-0,37.724 C2.065,37.822 4.262,37.976 6.912,37.82 C8.545,37.778 11.799,37.462 15.799,37.022 C19.838,36.631 24.525,36.326 29.016,35.74 C37.973,34.573 46.192,33.617 46.202,33.686 C46.215,33.727 48.233,33.406 51.506,33.354 C51.662,33.351 51.821,33.35 51.982,33.35 z" fill="url(#Gradient_5)"/>
    </g>
    <g clip-path="url(#Clip_7)">
      <path d="M52.071,31.023 C55.227,31.023 59.3,31.137 63.508,31.522 C72.584,31.972 82.614,32.525 85.887,32.839 C89.208,33.068 92.525,33.336 95.844,33.59 L95.844,34.028 C92.492,34.064 89.145,33.859 85.801,33.654 C82.473,33.344 72.604,32.799 63.428,32.343 C54.307,31.511 46.098,31.943 46.088,32.048 C46.082,32.007 37.836,32.725 28.736,33.548 C24.224,33.884 19.359,34.472 15.266,33.884 C11.227,33.36 8.012,33.121 6.363,33.214 C3.912,33.275 1.883,33.316 -0,33.328 L-0,32.652 C1.867,32.551 3.887,32.462 6.336,32.397 C8.014,32.295 11.434,32.55 15.396,33.068 C19.354,33.641 24.07,33.067 28.633,32.73 C37.709,31.91 45.995,31.192 46,31.234 C45.979,31.176 48.408,31.023 52.071,31.023 z" fill="url(#Gradient_6)"/>
    </g>
    <g clip-path="url(#Clip_8)">
      <path d="M95.844,9.402 L95.844,9.979 C93.078,10.153 90.312,10.338 87.546,10.521 C85.846,10.628 82.45,10.892 78.317,11.298 C74.215,11.786 69.202,12.101 64.49,11.91 C55.055,11.489 46.572,10.848 46.559,10.916 C46.559,10.926 44.568,10.804 41.452,10.683 C38.118,10.552 33.495,10.422 28.644,10.453 C23.949,10.496 19.015,10.564 14.838,10.457 C10.783,10.425 7.455,11.325 5.727,11.443 C3.551,11.619 1.701,11.708 -0,11.737 L-0,11.025 C1.674,10.931 3.479,10.808 5.58,10.634 C7.248,10.525 10.545,9.611 14.865,9.634 C19.021,9.74 23.924,9.672 28.637,9.628 C33.499,9.6 38.125,9.732 41.467,9.863 C44.611,9.986 46.619,10.111 46.619,10.1 C46.617,10.03 55.176,10.673 64.528,11.088 C69.223,11.271 74.048,10.971 78.196,10.479 C82.342,10.074 85.757,9.81 87.464,9.706 C90.253,9.511 93.049,9.429 95.844,9.402 z" fill="url(#Gradient_7)"/>
    </g>
    <g clip-path="url(#Clip_9)">
      <path d="M25.994,12.189 C26.394,12.19 26.793,12.192 27.192,12.196 C36.834,12.262 45.563,12.443 45.564,12.408 C45.563,12.425 47.769,12.406 51.164,12.579 C54.561,12.738 59.137,13.122 63.923,13.359 C68.572,13.591 73.455,13.5 77.65,13.408 C82.069,13.313 85.724,13.216 87.538,13.497 C90.764,13.747 93.254,14.048 95.628,14.218 L95.844,14.236 L95.844,14.79 C95.674,14.788 95.759,14.79 95.588,14.785 C93.176,14.745 90.649,14.51 87.454,14.268 C85.705,13.995 82.121,14.091 77.744,14.188 C73.542,14.279 68.608,14.371 63.868,14.136 C54.238,13.482 45.566,13.079 45.559,13.183 C45.561,13.218 36.795,13.039 27.192,12.976 C22.352,12.93 17.301,13.177 13.027,13.423 C8.824,13.665 5.375,13.908 3.623,13.871 C2.31,13.906 1.115,13.906 -0,13.89 L-0,13.153 C1.117,13.146 2.305,13.134 3.597,13.096 C5.314,13.13 8.743,12.888 12.942,12.645 C16.876,12.418 21.485,12.19 25.994,12.189 z" fill="url(#Gradient_8)"/>
    </g>
    <g clip-path="url(#Clip_10)">
      <path d="M47.125,27.693 C49.225,27.693 56.998,28.486 65.187,29.28 C74.047,30.137 83.393,30.995 86.566,30.848 C89.659,30.845 92.004,30.632 94.329,30.505 C95.337,30.485 94.832,30.496 95.844,30.472 L95.844,30.916 C94.466,31.056 89.636,31.55 89.247,31.577 C88.362,31.638 87.472,31.607 86.585,31.622 C86.19,31.64 85.702,31.642 85.141,31.633 C82.784,31.422 78.395,31.131 73.401,30.836 C61.509,29.776 46.57,28.099 46.541,28.54 C46.541,28.486 38.191,28.402 28.967,28.615 C23.714,28.66 18.201,28.655 13.807,28.65 C10.474,28.647 7.785,28.642 6.344,28.66 C3.914,28.693 1.885,28.762 -0,28.79 L-0,28.147 C1.863,28.037 3.881,27.924 6.332,27.886 C7.836,27.865 10.691,27.867 14.214,27.871 C18.542,27.875 23.876,27.878 28.949,27.835 C38.156,27.624 46.574,27.711 46.572,27.765 C46.578,27.716 46.771,27.693 47.125,27.693 z" fill="url(#Gradient_9)"/>
    </g>
    <g clip-path="url(#Clip_11)">
      <path d="M1.471,23.809 C2.561,23.809 3.727,23.828 5.008,23.886 C8.393,24.03 18.541,24.161 27.875,24.428 C37.199,24.732 45.651,25.355 45.651,25.343 C45.614,25.725 58.855,25.694 70.443,25.664 C77.39,25.645 83.742,25.627 86.284,25.698 C89.419,25.781 91.85,25.922 94.159,25.961 C95.278,25.976 94.716,25.974 95.844,25.964 L95.844,26.351 C94.728,26.423 95.287,26.395 94.166,26.435 C91.832,26.503 89.374,26.421 86.264,26.343 C83.776,26.278 77.6,26.296 70.791,26.314 C59.123,26.345 45.597,26.375 45.586,25.986 C45.586,25.998 37.147,25.378 27.842,25.078 C18.544,24.812 8.357,24.68 4.982,24.531 C3.129,24.444 1.504,24.42 -0,24.4 L-0,23.819 C0.476,23.813 0.966,23.809 1.471,23.809 z" fill="url(#Gradient_10)"/>
    </g>
    <g clip-path="url(#Clip_12)">
      <path d="M15.824,15.034 C20.891,15.035 26.616,15.152 31.641,15.269 C39.092,15.443 45.01,15.618 44.99,15.409 C44.988,15.44 46.306,15.393 48.482,15.344 C51.899,15.268 57.436,15.192 63.309,15.425 C72.931,15.733 83.253,17.195 86.703,16.572 C89.246,16.437 91.099,16.323 93.785,16.283 C94.471,16.273 95.158,16.319 95.844,16.338 L95.844,16.762 C92.81,16.776 89.784,17.037 86.756,17.215 C83.213,17.848 72.791,16.377 63.266,16.074 C57.426,15.84 51.894,15.915 48.48,15.99 C46.318,16.038 45.006,16.086 45.006,16.054 C44.989,16.263 39.047,16.09 31.589,15.916 C20.982,15.671 7.308,15.424 3.258,16.276 C2.09,16.343 1.013,16.398 -0,16.441 L-0,15.82 C0.995,15.763 2.053,15.699 3.201,15.633 C5.348,15.18 10.178,15.034 15.824,15.034 z" fill="url(#Gradient_11)"/>
    </g>
    <g clip-path="url(#Clip_13)">
      <path d="M7.081,21.412 C11.735,21.412 19.855,21.725 27.414,21.764 C36.803,21.945 45.319,21.901 45.322,21.895 C45.321,21.9 45.964,21.895 47.089,21.89 C50.068,21.875 56.434,21.861 63.245,22.027 C72.657,22.147 82.807,23.431 86.207,23.408 C89.335,23.544 91.805,23.523 94.145,23.687 C95.279,23.755 94.713,23.721 95.844,23.791 L95.844,24.048 C94.698,24.018 95.272,24.034 94.124,24.001 C91.799,23.911 89.332,23.972 86.18,23.838 C82.744,23.862 72.602,22.579 63.229,22.46 C56.404,22.293 50.029,22.306 47.066,22.32 C45.958,22.325 45.326,22.33 45.326,22.325 C45.33,22.333 36.783,22.377 27.406,22.197 C18.015,22.15 7.793,21.679 4.4,21.904 C2.779,21.945 1.338,21.98 -0,22.003 L-0,21.607 C1.33,21.562 2.768,21.515 4.385,21.474 C5.047,21.43 5.964,21.412 7.081,21.412 z" fill="url(#Gradient_12)"/>
    </g>
    <g clip-path="url(#Clip_14)">
      <path d="M13.947,18.097 C17.925,18.097 22.496,18.129 26.878,18.181 C36.291,18.304 44.83,18.795 44.826,18.749 C44.818,18.89 79.007,19.476 85.835,19.212 C88.985,19.173 91.475,19.185 93.815,19.419 C95.175,19.568 94.499,19.48 95.844,19.684 L95.844,19.93 C94.468,19.773 95.158,19.838 93.775,19.734 C91.454,19.574 88.995,19.601 85.842,19.643 C79.01,19.913 44.798,19.321 44.803,19.178 C44.797,19.224 36.266,18.736 26.87,18.615 C17.467,18.506 7.219,18.48 3.811,18.675 C2.422,18.732 1.166,18.737 -0,18.714 L-0,18.309 C1.166,18.316 2.414,18.304 3.791,18.246 C5.612,18.139 9.389,18.097 13.947,18.097 z" fill="url(#Gradient_13)"/>
    </g>
    <g clip-path="url(#Clip_15)">
      <path d="M29.279,5.641 C39.115,5.478 48.025,5.163 48.027,5.191 C48.027,5.212 56.953,4.906 66.758,4.966 C69.207,4.988 71.713,5.046 74.135,5.178 C76.535,5.339 78.938,5.57 81.119,5.592 C85.488,5.687 89.065,5.533 90.85,5.464 C92.709,5.376 94.34,5.28 95.844,5.171 L95.844,4.595 C94.326,4.669 92.684,4.745 90.809,4.831 C89.033,4.897 85.473,5.05 81.141,4.954 C78.967,4.931 76.654,4.708 74.19,4.542 C71.742,4.408 69.225,4.351 66.766,4.329 C56.93,4.271 48.006,4.579 48.004,4.559 C48.006,4.531 39.072,4.843 29.273,5.004 C19.472,5.001 8.763,4.593 5.195,4.558 C3.254,4.528 1.56,4.522 0,4.531 L0,5.101 C1.558,5.13 3.246,5.158 5.177,5.191 C8.74,5.231 19.437,5.64 29.279,5.641" fill="#E8C180"/>
      <path d="M6.975,37.669 C8.645,37.624 11.952,37.274 15.936,36.802 C19.903,36.386 24.688,36.044 29.176,35.407 C38.162,34.137 46.315,33.105 46.329,33.18 C46.325,33.224 48.387,32.878 51.538,32.828 C54.71,32.769 58.981,33.364 63.356,34.347 C67.733,35.314 72.337,36.439 76.395,36.822 C80.417,37.19 83.686,37.5 85.335,37.661 C89.622,38.226 92.669,38.036 95.845,38.192 L95.845,37.886 C92.694,37.524 89.667,37.601 85.423,37.032 C83.792,36.87 80.485,36.555 76.491,36.19 C72.517,35.815 67.958,34.704 63.558,33.731 C59.159,32.743 54.794,32.132 51.534,32.194 C48.268,32.247 46.245,32.596 46.233,32.552 C46.221,32.476 38.01,33.513 29.053,34.778 C24.567,35.413 19.864,35.748 15.83,36.171 C11.83,36.646 8.569,36.991 6.93,37.036 C4.266,37.204 2.063,37.027 -0,36.901 L-0,37.401 C2.03,37.611 4.225,37.829 6.975,37.669" fill="#E8C180"/>
      <path d="M15.279,32.583 C19.359,33.218 24.215,32.581 28.728,32.219 C37.822,31.327 46.066,30.548 46.072,30.594 C46.076,30.598 48.134,30.386 51.332,30.349 C54.533,30.296 58.875,30.573 63.432,30.911 C72.6,31.405 82.483,31.997 85.805,32.333 C89.897,32.632 92.821,32.782 95.844,32.798 L95.844,32.458 C92.846,32.257 89.955,32.007 85.877,31.703 C85.66,31.681 85.414,31.657 85.141,31.633 C82.512,31.588 78.207,31.263 73.401,30.835 C70.221,30.646 66.799,30.454 63.498,30.276 C58.947,29.939 54.571,29.66 51.322,29.715 C48.074,29.753 45.994,29.969 46,29.964 C45.992,29.917 37.713,30.697 28.642,31.585 C24.086,31.95 19.353,32.575 15.388,31.952 C11.424,31.391 8.021,31.114 6.343,31.225 C3.892,31.294 1.871,31.384 0,31.479 L0,32.002 C1.883,31.976 3.914,31.923 6.367,31.856 C8.019,31.755 11.252,32.017 15.279,32.583" fill="#E8C587"/>
      <path d="M14.83,8.631 C19.008,8.745 23.941,8.672 28.639,8.625 C38.033,8.561 46.564,9.152 46.564,9.13 C46.578,9.056 55.065,9.751 64.497,10.206 C69.207,10.412 74.209,10.072 78.309,9.542 C82.438,9.103 85.836,8.818 87.536,8.701 C90.842,8.466 93.397,8.294 95.844,8.15 L95.844,7.704 C93.375,7.73 90.797,7.839 87.465,8.071 C85.76,8.185 82.35,8.47 78.207,8.909 C74.069,9.443 69.227,9.771 64.526,9.57 C55.168,9.12 46.615,8.423 46.617,8.497 C46.617,8.522 38.07,7.925 28.633,7.988 C23.92,8.035 19.014,8.108 14.853,7.993 C10.549,7.97 7.268,8.958 5.594,9.077 C3.486,9.265 1.678,9.394 0,9.484 L0,10.036 C1.701,9.995 3.547,9.892 5.719,9.701 C7.439,9.573 10.748,8.599 14.83,8.631" fill="#E8C180"/>
      <path d="M3.615,12.477 C7.148,12.557 17.582,11.407 27.189,11.506 C36.797,11.576 45.566,11.77 45.564,11.733 C45.564,11.75 47.742,11.729 51.117,11.917 C54.492,12.089 59.057,12.506 63.875,12.766 C73.551,13.284 84.041,12.325 87.471,12.911 C90.666,13.174 93.19,13.438 95.6,13.498 C95.682,13.501 95.764,13.502 95.844,13.504 L95.844,13.05 C95.776,13.045 95.705,13.042 95.635,13.034 C93.26,12.868 90.77,12.551 87.545,12.282 C84.02,11.685 73.483,12.646 63.926,12.129 C59.137,11.873 54.563,11.457 51.168,11.285 C47.773,11.096 45.568,11.118 45.57,11.101 C45.566,11.137 36.834,10.94 27.189,10.87 C17.517,10.77 7.068,11.921 3.592,11.844 C2.301,11.885 1.115,11.898 0,11.901 L0,12.502 C1.113,12.518 2.306,12.516 3.615,12.477" fill="#E9C689"/>
      <path d="M28.982,27.177 C38.212,26.947 46.572,27.039 46.57,27.098 C46.628,26.39 79.746,30.775 86.6,30.441 C90.365,30.531 93.139,29.914 95.844,29.713 L95.844,29.359 C95.34,29.375 94.84,29.397 94.348,29.407 C92.029,29.562 89.678,29.803 86.584,29.808 C79.955,30.142 46.685,25.759 46.597,26.466 C46.599,26.406 38.181,26.311 28.968,26.54 C19.759,26.626 9.691,26.543 6.337,26.595 C3.886,26.636 1.865,26.752 0,26.861 L0,27.386 C1.884,27.345 3.916,27.265 6.347,27.228 C9.691,27.181 19.744,27.265 28.982,27.177" fill="#E6C893"/>
      <path d="M27.844,23.924 C37.153,24.251 45.588,24.923 45.588,24.911 C45.604,25.575 79.526,25.103 86.28,25.297 C89.389,25.384 91.85,25.474 94.186,25.405 C94.741,25.398 95.294,25.359 95.844,25.32 L95.844,24.939 C95.28,24.947 94.723,24.958 94.178,24.942 C91.87,24.903 89.438,24.757 86.3,24.664 C79.518,24.46 45.592,24.942 45.658,24.28 C45.656,24.292 37.207,23.616 27.879,23.288 C18.543,22.997 8.393,22.855 5.006,22.699 C3.133,22.607 1.504,22.604 -0,22.624 L-0,23.193 C1.504,23.212 3.127,23.237 4.979,23.332 C8.354,23.493 18.545,23.636 27.844,23.924" fill="#E6C893"/>
      <path d="M45.02,14.991 C45.02,15.077 53.746,14.596 63.285,15.012 C72.812,15.344 83.226,16.936 86.775,16.251 C90.414,16.046 93.18,15.745 95.844,15.77 L95.844,15.353 C93.146,15.194 90.316,15.419 86.719,15.619 C83.267,16.298 72.957,14.714 63.33,14.378 C53.714,13.96 45,14.446 45.003,14.358 C45.056,14.906 10.13,13.014 3.203,14.601 C2.052,14.674 0.996,14.741 -0.001,14.804 L-0.001,15.412 C1.015,15.364 2.093,15.304 3.263,15.232 C10.156,13.656 44.979,15.54 45.02,14.991" fill="#E9C78A"/>
      <path d="M27.408,20.736 C36.781,20.93 45.342,20.889 45.332,20.876 C45.336,20.909 53.866,20.731 63.233,21.022 C72.598,21.15 82.725,22.54 86.172,22.514 C89.334,22.659 91.799,22.587 94.119,22.671 C94.696,22.684 95.27,22.7 95.844,22.709 L95.844,22.332 C95.283,22.29 94.723,22.246 94.153,22.207 C91.811,22.016 89.336,22.032 86.217,21.882 C82.825,21.907 72.686,20.515 63.258,20.385 C53.867,20.096 45.324,20.276 45.328,20.243 C45.32,20.257 36.812,20.294 27.422,20.098 C18.051,20.047 7.812,19.536 4.381,19.786 C2.763,19.831 1.328,19.883 0,19.934 L0,20.519 C1.34,20.497 2.785,20.46 4.406,20.418 C7.791,20.174 18.01,20.684 27.408,20.736" fill="#E6C893"/>
      <path d="M3.814,17.435 C7.222,17.212 17.462,17.251 26.869,17.367 C36.261,17.486 44.79,18.042 44.799,17.992 C44.797,18.134 79.021,18.771 85.854,18.481 C89.008,18.435 91.46,18.398 93.773,18.558 C94.469,18.59 95.155,18.668 95.844,18.756 L95.844,18.394 C95.187,18.271 94.523,18.162 93.837,18.097 C91.493,17.826 88.991,17.806 85.842,17.848 C79.014,18.127 44.825,17.501 44.835,17.359 C44.841,17.412 36.305,16.851 26.884,16.73 C17.483,16.613 7.195,16.575 3.785,16.802 C2.412,16.87 1.166,16.886 0,16.88 L0,17.478 C1.168,17.504 2.423,17.499 3.814,17.435" fill="#E6C893"/>
    </g>
  </g>
</svg>
