<?xml version="1.0" encoding="UTF-8"?>
<!DOCTYPE svg PUBLIC "-//W3C//DTD SVG 1.1//EN" "http://www.w3.org/Graphics/SVG/1.1/DTD/svg11.dtd">
<svg version="1.1" xmlns="http://www.w3.org/2000/svg" xmlns:xlink="http://www.w3.org/1999/xlink" x="0" y="0" width="106.047" height="179.566" viewBox="0, 0, 106.047, 179.566">
  <defs>
    <clipPath id="Clip_1">
      <path d="M53.376,95.413 L63.254,95.413 L63.254,96.674 L53.376,96.674 z"/>
    </clipPath>
    <clipPath id="Clip_2">
      <path d="M44.714,96.629 L53.017,96.629 L53.017,98.482 L44.714,98.482 z"/>
    </clipPath>
    <clipPath id="Clip_3">
      <path d="M50.384,32.45 L53.199,32.45 L53.199,40.274 L50.384,40.274 z"/>
    </clipPath>
    <clipPath id="Clip_4">
      <path d="M49.682,33.85 L50.323,33.85 L50.323,35.398 L49.682,35.398 z"/>
    </clipPath>
    <clipPath id="Clip_5">
      <path d="M48.634,38.043 L49.182,38.043 L49.182,42.475 L48.634,42.475 z"/>
    </clipPath>
    <clipPath id="Clip_6">
      <path d="M73.448,95.5 L76.057,95.5 L76.057,95.828 L73.448,95.828 z"/>
    </clipPath>
    <clipPath id="Clip_7">
      <path d="M55.471,39.343 L57.477,39.343 L57.477,41.437 L55.471,41.437 z"/>
    </clipPath>
    <clipPath id="Clip_8">
      <path d="M0,0 L106.047,0 L106.047,179.566 L0,179.566 z"/>
    </clipPath>
  </defs>
  <g id="Layer_1">
    <g clip-path="url(#Clip_8)">
      <g clip-path="url(#Clip_1)" opacity="0">
        <path d="M63.254,95.511 C63.246,95.478 63.236,95.445 63.229,95.412 C59.904,95.606 56.622,96.001 53.376,96.568 L53.376,96.674 C55.154,96.372 56.919,96.106 58.652,95.907 C60.211,95.727 61.74,95.606 63.254,95.511" fill="#AB8048"/>
      </g>
      <path d="M63.254,95.511 C63.246,95.478 63.236,95.445 63.229,95.412 C59.904,95.606 56.622,96.001 53.376,96.568 L53.376,96.674 C55.154,96.372 56.919,96.106 58.652,95.907 C60.211,95.727 61.74,95.606 63.254,95.511 z" fill-opacity="0" stroke="#FFFEE6" stroke-width="0.378"/>
      <g clip-path="url(#Clip_2)" opacity="0">
        <path d="M44.714,98.482 C47.519,97.78 50.288,97.206 53.017,96.734 L53.017,96.629 C50.225,97.128 47.459,97.75 44.714,98.482" fill="#AB8048"/>
      </g>
      <path d="M44.714,98.482 C47.519,97.78 50.288,97.206 53.017,96.734 L53.017,96.629 C50.225,97.128 47.459,97.75 44.714,98.482 z" fill-opacity="0" stroke="#FFFFFF" stroke-width="0.378"/>
      <g clip-path="url(#Clip_3)" opacity="0">
        <path d="M51.688,36.073 C52.041,37.363 52.407,38.978 52.958,40.219 C53.009,40.336 53.095,40.261 53.199,40.078 C52.913,38.856 52.577,37.656 52.158,36.497 C51.953,35.929 51.751,35.395 51.563,34.908 C51.362,34.394 51.176,33.935 51.013,33.558 C50.698,32.826 50.474,32.399 50.418,32.455 C50.361,32.512 50.379,32.868 50.454,33.395 C50.472,33.52 50.493,33.657 50.517,33.8 C50.521,33.826 50.526,33.854 50.53,33.881 C51.01,33.871 51.343,34.814 51.688,36.073" fill="#AB8048"/>
      </g>
      <path d="M51.688,36.073 C52.041,37.363 52.407,38.978 52.958,40.219 C53.009,40.336 53.095,40.261 53.199,40.078 C52.913,38.856 52.577,37.656 52.158,36.497 C51.953,35.929 51.751,35.395 51.563,34.908 C51.362,34.394 51.176,33.935 51.013,33.558 C50.698,32.826 50.474,32.399 50.418,32.455 C50.361,32.512 50.379,32.868 50.454,33.395 C50.472,33.52 50.493,33.657 50.517,33.8 C50.521,33.826 50.526,33.854 50.53,33.881 C51.01,33.871 51.343,34.814 51.688,36.073 z" fill-opacity="0" stroke="#FFFFFF" stroke-width="0.378"/>
      <g clip-path="url(#Clip_4)" opacity="0">
        <path d="M50.253,33.872 C50.194,33.825 50.135,33.853 50.073,33.969 C50.06,33.992 50.047,34.012 50.034,34.043 C49.937,34.272 49.824,34.715 49.682,35.398 C49.873,34.661 50.086,34.151 50.323,33.961 C50.3,33.92 50.276,33.891 50.253,33.872" fill="#AB8048"/>
      </g>
      <path d="M50.253,33.872 C50.194,33.825 50.135,33.853 50.073,33.969 C50.06,33.992 50.047,34.012 50.034,34.043 C49.937,34.272 49.824,34.715 49.682,35.398 C49.873,34.661 50.086,34.151 50.323,33.961 C50.3,33.92 50.276,33.891 50.253,33.872 z" fill-opacity="0" stroke="#FFFFFF" stroke-width="0.678"/>
      <g clip-path="url(#Clip_5)" opacity="0">
        <path d="M48.634,42.475 C48.84,42.353 48.89,42.131 48.886,41.806 C48.882,41.419 48.815,40.896 48.891,40.253 C48.982,39.481 49.079,38.739 49.182,38.043 C48.984,39.212 48.804,40.623 48.671,42.04 C48.657,42.186 48.647,42.329 48.634,42.475" fill="#AB8048"/>
      </g>
      <path d="M48.634,42.475 C48.84,42.353 48.89,42.131 48.886,41.806 C48.882,41.419 48.815,40.896 48.891,40.253 C48.982,39.481 49.079,38.739 49.182,38.043 C48.984,39.212 48.804,40.623 48.671,42.04 C48.657,42.186 48.647,42.329 48.634,42.475 z" fill-opacity="0" stroke="#FFFFFF" stroke-width="0.678"/>
      <g clip-path="url(#Clip_6)" opacity="0">
        <path d="M76.057,95.828 C75.191,95.696 74.322,95.583 73.449,95.5 C73.46,95.521 73.472,95.542 73.483,95.562 C74.354,95.633 75.211,95.722 76.057,95.828" fill="#AB8048"/>
      </g>
      <path d="M76.057,95.828 C75.191,95.696 74.322,95.583 73.449,95.5 C73.46,95.521 73.472,95.542 73.483,95.562 C74.354,95.633 75.211,95.722 76.057,95.828 z" fill-opacity="0" stroke="#FFFFFF" stroke-width="0.589"/>
      <g clip-path="url(#Clip_7)" opacity="0">
        <path d="M55.471,41.342 C55.6,41.43 55.759,41.467 55.975,41.408 C56.341,41.306 56.829,40.639 57.223,39.998 C57.314,39.851 57.399,39.706 57.477,39.57 L57.477,39.343 L57.096,39.846 L56.713,40.348 C56.297,40.897 55.87,41.208 55.471,41.342" fill="#AB8048"/>
      </g>
      <path d="M55.471,41.342 C55.6,41.43 55.759,41.467 55.975,41.408 C56.341,41.306 56.829,40.639 57.223,39.998 C57.314,39.851 57.399,39.706 57.477,39.57 L57.477,39.343 L57.096,39.846 L56.713,40.348 C56.297,40.897 55.87,41.208 55.471,41.342 z" fill-opacity="0" stroke="#FFFFFF" stroke-width="0.589"/>
      <path d="M47.167,12.434 C47.929,13.531 48.6,14.577 49.048,15.389 C50.311,17.679 51.507,20.777 52.5,24.202 C52.521,24.274 52.54,24.35 52.561,24.422 C52.464,25.058 52.353,25.847 52.24,26.679 C51.99,28.544 51.749,30.566 51.709,31.274 C51.398,30.312 51.09,29.314 50.79,28.276 C49.483,23.787 48.286,18.641 47.318,13.257 C47.265,12.965 47.216,12.702 47.167,12.434 M60.74,43.675 C60.785,43.615 60.826,43.553 60.869,43.492 C60.843,43.532 60.819,43.57 60.793,43.609 C60.776,43.632 60.758,43.652 60.74,43.675 M104.814,117.602 C103.402,111.837 100.794,105.985 97.088,100.443 C96.116,98.989 95.123,97.679 93.816,96.176 C92.509,94.674 90.891,92.981 88.663,90.757 C83.205,85.308 78.861,80.425 75.025,75.295 C71.189,70.166 67.861,64.792 64.431,58.36 C62.738,55.182 61.892,53.606 61.812,51.997 C61.732,50.389 62.418,48.748 63.791,45.445 C64.705,43.243 65.243,41.796 65.452,40.9 C65.66,40.004 65.54,39.659 65.136,39.659 C64.984,39.659 64.798,39.718 64.6,39.802 C64.277,39.82 63.84,40.133 63.34,40.624 C63.273,40.68 63.208,40.726 63.142,40.785 C62.715,41.162 62.281,41.615 61.875,42.101 C62.891,40.799 64.104,39.571 65.352,38.564 C66.953,37.272 68.595,36.34 69.9,36.079 C70.227,36.014 70.722,35.979 71.261,35.976 C71.802,35.972 72.383,35.999 72.878,36.059 C73.605,36.148 73.898,36.163 73.679,36.07 C73.461,35.977 72.73,35.777 71.411,35.436 C69.879,35.041 68.662,34.836 67.605,34.836 C67.361,34.836 67.129,34.848 66.902,34.869 C65.684,34.986 64.655,35.415 63.533,36.186 C62.892,36.625 62.342,37.134 61.84,37.772 C62.34,36.554 62.766,35.465 62.959,34.837 C63.083,34.44 63.204,33.877 63.312,33.336 C63.418,32.796 63.514,32.279 63.584,31.972 C63.747,31.276 63.881,30.122 63.962,29.139 C63.986,28.862 64.005,28.602 64.02,28.366 C64.811,26.742 65.632,25.119 66.448,23.596 C68.204,20.314 69.826,17.613 71.525,15.188 C73.225,12.765 75.003,10.618 77.073,8.445 C78.188,7.274 79.102,6.388 79.941,5.68 C80.784,4.969 81.552,4.437 82.374,3.973 C82.945,3.652 83.299,3.435 83.477,3.288 C83.657,3.144 83.659,3.07 83.525,3.032 C83.523,3.031 83.518,3.03 83.513,3.03 C83.375,3.03 82.681,3.387 81.832,3.871 C80.951,4.373 79.905,5.013 79.143,5.533 C74.429,8.748 70.239,12.496 66.732,16.592 C64.425,19.287 62.42,22.132 60.75,25.073 C60.833,24.267 60.938,23.469 61.069,22.637 C61.426,20.351 61.988,17.798 62.896,14.069 C63.578,11.266 63.939,9.676 64.021,8.885 C64.068,8.425 64.023,8.237 63.89,8.237 C63.795,8.237 63.658,8.333 63.476,8.498 C62.974,8.957 62.125,10.111 61.298,11.388 C60.472,12.663 59.672,14.061 59.264,15.005 C58.971,15.69 58.659,16.598 58.386,17.523 C58.113,18.448 57.882,19.391 57.752,20.146 C57.661,20.686 57.613,21.035 57.604,21.358 C57.596,21.68 57.626,21.977 57.695,22.412 C57.806,23.134 57.828,25.51 57.787,27.882 C57.763,29.362 57.714,30.839 57.648,31.912 C57.55,32.215 57.454,32.52 57.355,32.848 C57.326,32.334 57.286,31.892 57.235,31.579 C56.529,27.275 55.148,23.165 53.111,19.284 C51.426,16.076 49.286,13.026 46.715,10.146 C46.431,8.833 46.215,8.155 46.057,8.115 C46.05,8.114 46.045,8.113 46.042,8.113 C45.929,8.113 45.846,8.463 45.785,9.132 C45.538,8.871 45.294,8.607 45.042,8.349 C44.389,7.684 43.618,6.974 42.993,6.445 C42.416,5.955 41.964,5.62 41.85,5.62 C41.84,5.62 41.833,5.622 41.829,5.626 C41.794,5.657 41.821,5.727 42.062,6.023 C42.305,6.319 42.757,6.84 43.579,7.778 C44.243,8.536 44.981,9.459 45.708,10.421 C45.682,11.086 45.665,11.878 45.654,12.832 C45.639,14.415 45.68,15.536 45.841,16.662 C46.006,17.787 46.294,18.919 46.777,20.531 C47.209,21.981 47.66,23.889 48.049,25.84 C47.28,23.086 46.276,20.34 45.034,17.638 C42.78,12.739 39.774,7.987 36.122,3.604 C35.53,2.896 34.7,1.995 33.99,1.271 C33.28,0.545 32.693,-0.001 32.59,-0.001 C32.453,-0.001 32.436,0.072 32.565,0.26 C32.698,0.45 32.979,0.754 33.438,1.218 C34.104,1.892 34.7,2.614 35.312,3.526 C35.929,4.439 36.563,5.539 37.315,6.971 C38.711,9.626 39.834,12.179 40.807,14.975 C41.778,17.772 42.6,20.814 43.391,24.452 C44,27.251 44.562,30.321 45,33.175 C45.115,33.92 45.222,34.649 45.318,35.356 C45.208,35.202 45.098,35.047 44.976,34.899 C44.11,33.849 43.24,33.152 42.099,32.704 C40.959,32.256 39.55,32.058 37.608,32.005 C36.797,31.984 36.201,31.972 35.799,31.972 C35.528,31.972 35.348,31.978 35.252,31.989 C35.017,32.018 35.304,32.085 36.026,32.201 C36.518,32.28 37.084,32.413 37.604,32.565 C38.12,32.717 38.589,32.888 38.883,33.039 C40.065,33.652 41.389,34.998 42.569,36.682 C43.16,37.52 43.712,38.443 44.197,39.398 C44.176,39.387 44.152,39.371 44.132,39.36 C43.716,39.121 43.418,38.98 43.314,38.98 C43.299,38.98 43.288,38.983 43.28,38.99 C43.229,39.04 43.305,39.36 43.465,39.83 C43.625,40.304 43.871,40.927 44.167,41.592 C44.608,42.598 44.868,43.371 44.99,44.306 C45.112,45.241 45.1,46.338 45.004,47.991 C44.898,49.804 44.778,50.925 44.356,52.239 C43.938,53.55 43.217,55.054 41.917,57.627 C39.038,63.33 35.663,68.786 31.668,74.168 C27.674,79.551 23.061,84.861 17.696,90.267 C12.6,95.406 8.812,100.142 6.033,105.004 C3.252,109.866 1.479,114.856 0.412,120.499 C-0.005,122.707 -0.091,125.985 0.09,129.219 C0.273,132.455 0.725,135.649 1.381,137.692 C3.649,144.739 8.464,150.811 15.595,155.746 C22.726,160.682 32.168,164.481 43.691,166.982 C45.257,167.321 47.382,167.647 49.188,167.891 C49.299,167.906 49.408,167.92 49.517,167.935 C49.397,168.188 49.277,168.468 49.163,168.788 C48.983,169.289 48.729,169.84 48.458,170.323 C48.188,170.805 47.905,171.221 47.675,171.452 C47.327,171.798 47.143,172.009 47.108,172.13 C47.076,172.252 47.189,172.286 47.44,172.283 C47.965,172.276 48.841,171.951 49.661,171.52 C49.833,171.43 49.997,171.334 50.16,171.238 C50.036,171.552 49.971,171.896 49.971,172.276 C49.971,172.607 49.93,172.985 49.862,173.328 C49.795,173.668 49.704,173.977 49.604,174.165 C49.37,174.602 49.341,174.818 49.556,174.815 C49.767,174.811 50.221,174.587 50.944,174.146 C51.467,173.827 51.757,173.612 51.916,173.28 C51.918,173.271 51.92,173.26 51.924,173.251 C51.972,174.583 51.801,175.989 51.398,177.316 C51.252,177.795 51.122,178.271 51.024,178.651 C50.931,179.03 50.871,179.315 50.872,179.413 C50.872,179.51 50.893,179.56 50.931,179.566 L50.946,179.566 C51.146,179.538 51.714,178.571 52.332,177.313 C53.092,175.762 53.929,173.773 54.244,172.557 C54.273,172.634 54.299,172.717 54.329,172.792 C54.788,173.946 55.346,174.889 55.875,175.417 L55.875,175.417 C56.126,175.67 56.386,175.899 56.604,176.066 C56.819,176.232 56.992,176.335 57.066,176.335 C57.142,176.335 57.154,176.124 57.115,175.788 C57.075,175.449 56.982,174.985 56.846,174.472 C56.708,173.959 56.583,173.19 56.494,172.363 C56.415,171.642 56.368,170.895 56.354,170.219 C56.474,170.315 56.604,170.412 56.756,170.514 C57.189,170.805 57.618,171.006 58.101,171.138 C58.583,171.266 59.121,171.323 59.771,171.321 L60.676,171.319 L61.583,171.317 L60.656,170.786 L59.729,170.253 C59.217,169.96 58.743,169.621 58.343,169.265 C57.947,168.906 57.631,168.534 57.441,168.176 C57.418,168.101 57.375,168.036 57.336,167.966 C58.191,167.823 59.161,167.645 60.265,167.42 C73.482,164.741 83.896,160.6 91.438,155.049 C98.977,149.501 103.645,142.543 105.369,134.227 C105.811,132.1 106.035,129.891 106.047,127.625 L106.047,127.206 C106.03,124.081 105.614,120.856 104.814,117.602" fill="#AB8048"/>
      <path d="M50.764,174.695 L50.764,174.693" fill-opacity="0" stroke="#AB8048" stroke-width="0.5" stroke-linecap="round" stroke-linejoin="round"/>
      <path d="M50.764,174.695 L50.761,174.7 C50.76,174.702 50.759,174.706 50.757,174.708 L50.762,174.705 L50.766,174.701 C50.765,174.701 50.765,174.7 50.764,174.698 z" fill="#AB8048"/>
    </g>
  </g>
</svg>
