<?xml version="1.0" encoding="UTF-8"?>
<!DOCTYPE svg PUBLIC "-//W3C//DTD SVG 1.1//EN" "http://www.w3.org/Graphics/SVG/1.1/DTD/svg11.dtd">
<svg version="1.1" xmlns="http://www.w3.org/2000/svg" xmlns:xlink="http://www.w3.org/1999/xlink" x="0" y="0" width="106.047" height="179.566" viewBox="0, 0, 106.047, 179.566">
  <defs>
    <linearGradient id="Gradient_1" gradientUnits="userSpaceOnUse" x1="35.172" y1="38.322" x2="47.161" y2="38.322">
      <stop offset="0" stop-color="#BBFF00"/>
      <stop offset="1" stop-color="#496300" stop-opacity="0.7"/>
    </linearGradient>
    <linearGradient id="Gradient_2" gradientUnits="userSpaceOnUse" x1="45.651" y1="25.597" x2="55.647" y2="25.597">
      <stop offset="0" stop-color="#BBFF00"/>
      <stop offset="0.553" stop-color="#8CBF00"/>
      <stop offset="1" stop-color="#496300"/>
    </linearGradient>
    <linearGradient id="Gradient_3" gradientUnits="userSpaceOnUse" x1="41.817" y1="24.385" x2="57.414" y2="24.385">
      <stop offset="0" stop-color="#BBFF00"/>
      <stop offset="0.437" stop-color="#BBFF00"/>
      <stop offset="1" stop-color="#496300" stop-opacity="0.7"/>
    </linearGradient>
    <linearGradient id="Gradient_4" gradientUnits="userSpaceOnUse" x1="53.123" y1="38.311" x2="53.123" y2="17.276">
      <stop offset="0" stop-color="#496300"/>
      <stop offset="0.654" stop-color="#BBFF00"/>
      <stop offset="1" stop-color="#BBFF00"/>
    </linearGradient>
    <linearGradient id="Gradient_5" gradientUnits="userSpaceOnUse" x1="32.477" y1="22.82" x2="49.616" y2="22.82">
      <stop offset="0" stop-color="#BBFF00"/>
      <stop offset="0.241" stop-color="#BBFF00"/>
      <stop offset="0.727" stop-color="#8CBF00"/>
      <stop offset="1" stop-color="#496300" stop-opacity="0.7"/>
    </linearGradient>
    <linearGradient id="Gradient_6" gradientUnits="userSpaceOnUse" x1="72.011" y1="42.18" x2="60.487" y2="38.876">
      <stop offset="0" stop-color="#BBFF00"/>
      <stop offset="1" stop-color="#496300" stop-opacity="0.9"/>
    </linearGradient>
    <linearGradient id="Gradient_7" gradientUnits="userSpaceOnUse" x1="58.855" y1="41.685" x2="66.734" y2="22.182">
      <stop offset="0" stop-color="#496300"/>
      <stop offset="0.654" stop-color="#BBFF00"/>
      <stop offset="1" stop-color="#BBFF00"/>
    </linearGradient>
    <linearGradient id="Gradient_8" gradientUnits="userSpaceOnUse" x1="57.328" y1="24.385" x2="64.04" y2="24.385">
      <stop offset="0" stop-color="#496300" stop-opacity="0.7"/>
      <stop offset="0.39" stop-color="#8CBF00"/>
      <stop offset="0.837" stop-color="#BBFF00"/>
      <stop offset="1" stop-color="#BBFF00"/>
    </linearGradient>
    <linearGradient id="Gradient_9" gradientUnits="userSpaceOnUse" x1="77.391" y1="25.013" x2="60.907" y2="20.324">
      <stop offset="0" stop-color="#BBFF00"/>
      <stop offset="0.241" stop-color="#BBFF00"/>
      <stop offset="0.744" stop-color="#8CBF00"/>
      <stop offset="1" stop-color="#586005" stop-opacity="0.8"/>
    </linearGradient>
    <linearGradient id="Gradient_10" gradientUnits="userSpaceOnUse" x1="17.278" y1="156.922" x2="74.898" y2="57.123">
      <stop offset="0" stop-color="#FCA439" stop-opacity="0.6"/>
      <stop offset="1" stop-color="#F9EBBB"/>
    </linearGradient>
    <linearGradient id="Gradient_11" gradientUnits="userSpaceOnUse" x1="38.49" y1="160.1" x2="99.516" y2="54.399">
      <stop offset="0" stop-color="#FCA439" stop-opacity="0.6"/>
      <stop offset="1" stop-color="#F9EBBB"/>
    </linearGradient>
    <linearGradient id="Gradient_12" gradientUnits="userSpaceOnUse" x1="47.103" y1="169.677" x2="51.912" y2="169.677">
      <stop offset="0" stop-color="#91522C"/>
      <stop offset="1" stop-color="#7A3827"/>
    </linearGradient>
    <linearGradient id="Gradient_13" gradientUnits="userSpaceOnUse" x1="49.41" y1="172.284" x2="52.099" y2="172.284">
      <stop offset="0" stop-color="#91522C"/>
      <stop offset="1" stop-color="#7A3827"/>
    </linearGradient>
    <linearGradient id="Gradient_14" gradientUnits="userSpaceOnUse" x1="53.318" y1="171.772" x2="57.137" y2="171.772">
      <stop offset="0" stop-color="#91522C"/>
      <stop offset="1" stop-color="#7A3827"/>
    </linearGradient>
    <linearGradient id="Gradient_15" gradientUnits="userSpaceOnUse" x1="55.431" y1="169.274" x2="61.583" y2="169.274">
      <stop offset="0" stop-color="#91522C"/>
      <stop offset="1" stop-color="#7A3827"/>
    </linearGradient>
    <linearGradient id="Gradient_16" gradientUnits="userSpaceOnUse" x1="50.263" y1="173.352" x2="54.555" y2="173.352">
      <stop offset="0" stop-color="#91522C"/>
      <stop offset="1" stop-color="#7A3827"/>
    </linearGradient>
    <linearGradient id="Gradient_17" gradientUnits="userSpaceOnUse" x1="0.743" y1="-131.057" x2="104.376" y2="-131.057" gradientTransform="matrix(1, 0, 0, -1, 0, 0)">
      <stop offset="0" stop-color="#F9EBBB"/>
      <stop offset="1" stop-color="#FCA439" stop-opacity="0.7"/>
    </linearGradient>
    <clipPath id="Clip_1">
      <path d="M53.846,166.77 C62.999,166.636 72.143,164.882 80.535,160.737 C88.925,156.591 96.564,150.054 102.702,140.354 C104.022,133.336 104.667,127.378 104.251,122.116 C103.835,116.853 102.357,112.286 99.428,108.045 C92.037,97.339 76.688,93.832 58.653,95.907 C40.617,97.981 19.895,105.637 1.753,117.26 C-1.658,132.352 3.853,144.84 13.973,153.5 C24.092,162.159 38.821,166.99 53.846,166.77 z"/>
    </clipPath>
    <clipPath id="Clip_2">
      <path d="M70.242,96.551 L77.258,96.551 L77.258,104.683 L70.242,104.683 z"/>
    </clipPath>
    <linearGradient id="Gradient_18" gradientUnits="userSpaceOnUse" x1="35.876" y1="-136.201" x2="86.936" y2="-47.763" gradientTransform="matrix(1, 0, 0, -1, 0, 0)">
      <stop offset="0" stop-color="#F9EBBB"/>
      <stop offset="1" stop-color="#FCA439"/>
    </linearGradient>
    <clipPath id="Clip_3">
      <path d="M2.176,116.744 C3.258,116.667 4.223,115.894 5.124,115.35 C6.644,114.394 8.169,113.307 8.169,113.307 C18.332,108.277 28.47,103.556 38.862,100.208 C49.254,96.859 59.9,94.881 71.075,95.338 C74.187,95.465 77.337,95.933 80.313,96.665 C83.289,97.397 86.089,98.394 88.503,99.58 C89.964,100.297 91.417,101.034 92.767,101.869 C94.119,102.704 95.369,103.636 96.427,104.746 C97.531,105.809 98.159,106.693 98.559,107.278 C98.96,107.863 99.134,108.149 99.332,108.016 C99.781,107.713 99.036,106.201 97.406,103.74 C95.776,101.279 93.261,97.87 90.171,93.777 C88.635,91.741 86.285,89.574 83.898,87.327 C81.512,85.08 79.091,82.753 77.416,80.397 C75.187,77.265 70.907,72.362 67.323,66.903 C63.739,61.444 60.851,55.429 61.409,50.073 C61.521,48.991 62.7,47.029 63.708,45.062 C64.718,43.095 65.559,41.125 64.998,40.026 C64.567,39.183 63.191,40.67 61.864,42.286 C60.536,43.902 59.255,45.649 59.016,45.325 C58.819,45.059 58.722,44.567 58.661,44.048 C58.598,43.529 58.57,42.984 58.507,42.611 C58.892,42.397 59.3,41.626 59.606,40.416 C59.912,39.206 60.117,37.557 60.096,35.587 C60.083,34.407 59.909,33.37 59.768,32.713 C59.668,32.283 59.706,32.434 59.662,32.258 L59.646,32.122 C59.559,31.888 59.58,31.929 59.662,32.258 C59.796,33.272 59.546,34.318 59.372,35.315 C59.074,36.762 58.582,38.249 57.921,38.74 C57.921,38.74 57.619,39.356 57.223,39.998 C56.829,40.639 56.341,41.306 55.974,41.408 C54.941,41.693 55,40.111 55.234,38.376 C55.467,36.64 55.875,34.753 55.537,34.427 C55.281,34.182 54.722,35.825 54.184,37.431 C53.647,39.038 53.13,40.609 52.958,40.219 C52.407,38.978 52.041,37.363 51.688,36.073 C51.335,34.783 50.995,33.817 50.496,33.876 C50.141,33.917 49.839,34.668 49.577,35.83 C49.314,36.992 49.09,38.566 48.891,40.253 C48.815,40.896 48.882,41.419 48.886,41.805 C48.891,42.192 48.833,42.442 48.51,42.539 C47.995,42.693 47.471,42.227 46.838,41.588 C46.206,40.951 45.464,40.141 44.513,39.609 C47.21,44.366 46.137,50.266 43.475,56.294 C40.812,62.321 36.56,68.475 32.897,73.74 C29.333,78.862 25.194,83.482 21.209,87.765 C17.225,92.048 13.396,95.995 10.456,99.768 C9.627,99.993 7.592,103.159 5.74,106.792 C3.887,110.423 2.217,114.522 2.117,116.609 L2.176,116.744 z"/>
    </clipPath>
    <linearGradient id="Gradient_19" gradientUnits="userSpaceOnUse" x1="66.838" y1="-112.381" x2="102.136" y2="-112.381" gradientTransform="matrix(1, 0, 0, -1, 0, 0)">
      <stop offset="0" stop-color="#FFFFD9"/>
      <stop offset="1" stop-color="#F9EBBB" stop-opacity="0.7"/>
    </linearGradient>
    <clipPath id="Clip_4">
      <path d="M88.999,150.128 C93.859,148.005 96.464,142.588 98.686,138.086 C102.409,129.718 104.236,118.3 98.31,108.131 C95.576,103.556 88.109,94.317 81.127,86.694 C74.146,79.07 67.65,73.062 66.858,74.949 C66.64,75.466 68.287,77.737 70.542,81.506 C72.797,85.275 75.662,90.543 77.882,97.053 C83.906,114.22 88.661,123.229 90.757,130.026 C92.855,136.823 92.294,141.408 87.687,149.729 C88.289,150.231 87.889,150.01 88.999,150.128 z"/>
    </clipPath>
  </defs>
  <g id="Layer_1">
    <path d="M35.253,31.989 C35.017,32.018 35.303,32.086 36.026,32.201 L36.026,32.201 C36.518,32.28 37.085,32.413 37.603,32.565 L37.603,32.565 C38.12,32.718 38.589,32.888 38.884,33.04 L38.884,33.04 C40.066,33.652 41.388,34.999 42.57,36.682 L42.57,36.682 C43.753,38.366 44.794,40.386 45.414,42.341 L45.414,42.341 C45.537,42.732 45.689,43.137 45.834,43.474 L45.834,43.474 C45.979,43.812 46.118,44.083 46.215,44.205 L46.215,44.205 C46.627,44.724 46.895,44.82 47.037,44.45 L47.037,44.45 C47.179,44.08 47.195,43.243 47.103,41.893 L47.103,41.893 C46.982,40.133 46.778,38.783 46.442,37.674 L46.442,37.674 C46.104,36.564 45.633,35.696 44.976,34.899 L44.976,34.899 C44.11,33.849 43.24,33.152 42.099,32.704 L42.099,32.704 C40.96,32.257 39.551,32.058 37.609,32.006 L37.609,32.006 C36.797,31.984 36.2,31.972 35.8,31.972 L35.8,31.972 C35.529,31.972 35.348,31.978 35.253,31.989 z" fill="url(#Gradient_1)"/>
    <path d="M45.655,12.833 C45.639,14.416 45.679,15.536 45.842,16.662 L45.842,16.662 C46.006,17.787 46.295,18.92 46.777,20.531 L46.777,20.531 C47.341,22.419 47.932,25.082 48.384,27.604 L48.384,27.604 C48.837,30.126 49.151,32.51 49.163,33.84 L49.163,33.84 C49.168,34.381 49.188,34.68 49.249,34.772 L49.249,34.772 C49.309,34.866 49.41,34.753 49.575,34.473 L49.575,34.473 C49.685,34.284 49.852,34.114 50.032,33.99 L50.032,33.99 C50.213,33.866 50.406,33.789 50.57,33.789 L50.57,33.789 C50.895,33.789 51.488,34.66 52.142,35.985 L52.142,35.985 C52.797,37.31 53.513,39.089 54.086,40.91 L54.086,40.91 C54.474,42.137 54.757,42.825 54.992,43.022 L54.992,43.022 C55.225,43.219 55.409,42.923 55.598,42.178 L55.598,42.178 C55.678,41.856 55.661,41.456 55.544,40.983 L55.544,40.983 C55.428,40.51 55.214,39.964 54.903,39.351 L54.903,39.351 C53.506,36.597 52.093,32.765 50.789,28.276 L50.789,28.276 C49.484,23.787 48.286,18.641 47.318,13.258 L47.318,13.258 C46.712,9.889 46.312,8.18 46.057,8.115 L46.057,8.115 C46.051,8.114 46.046,8.113 46.041,8.113 L46.041,8.113 C45.796,8.113 45.687,9.691 45.655,12.833 z" fill="url(#Gradient_2)"/>
    <path d="M41.829,5.627 C41.795,5.657 41.822,5.727 42.063,6.023 L42.063,6.023 C42.304,6.319 42.758,6.841 43.579,7.778 L43.579,7.778 C44.519,8.851 45.609,10.25 46.602,11.632 L46.602,11.632 C47.596,13.014 48.492,14.38 49.048,15.389 L49.048,15.389 C50.31,17.679 51.507,20.777 52.501,24.202 L52.501,24.202 C53.496,27.627 54.286,31.378 54.733,34.973 L54.733,34.973 C54.835,35.797 54.95,37.224 55.041,38.649 L55.041,38.649 C55.132,40.075 55.199,41.498 55.201,42.315 L55.201,42.315 C55.202,42.793 55.246,43.057 55.368,43.13 L55.368,43.13 C55.49,43.202 55.69,43.083 56.006,42.795 L56.006,42.795 C56.229,42.591 56.442,42.213 56.638,41.675 L56.638,41.675 C56.835,41.137 57.017,40.44 57.177,39.598 L57.177,39.598 C57.321,38.842 57.402,37.241 57.413,35.626 L57.413,35.626 C57.424,34.013 57.367,32.385 57.235,31.579 L57.235,31.579 C56.529,27.275 55.148,23.166 53.111,19.284 L53.111,19.284 C51.072,15.401 48.377,11.746 45.041,8.349 L45.041,8.349 C44.388,7.684 43.617,6.974 42.993,6.445 L42.993,6.445 C42.415,5.955 41.964,5.62 41.85,5.62 L41.85,5.62 C41.841,5.62 41.834,5.622 41.829,5.627 z" fill="url(#Gradient_3)"/>
    <path d="M52.24,26.679 C51.987,28.575 51.739,30.639 51.707,31.315 L51.707,31.315 C51.691,31.637 51.694,32.038 51.71,32.424 L51.71,32.424 C51.728,32.811 51.759,33.183 51.8,33.447 L51.8,33.447 C51.88,33.955 52.196,35.07 52.606,36.345 L52.606,36.345 C53.014,37.619 53.517,39.054 53.968,40.199 L53.968,40.199 L54.236,40.88 L54.503,41.56 L54.523,41.027 L54.543,40.494 C54.568,39.819 54.52,37.762 54.444,35.624 L54.444,35.624 C54.369,33.485 54.266,31.266 54.181,30.27 L54.181,30.27 C54.146,29.856 54.095,29.352 54.04,28.875 L54.04,28.875 C53.984,28.397 53.925,27.945 53.877,27.634 L53.877,27.634 C53.765,26.929 53.526,25.784 53.301,24.815 L53.301,24.815 C53.077,23.847 52.866,23.055 52.814,23.055 L52.814,23.055 C52.756,23.055 52.495,24.783 52.24,26.679 z" fill="url(#Gradient_4)"/>
    <path d="M32.59,0 C32.453,0 32.435,0.072 32.566,0.261 L32.566,0.261 C32.698,0.45 32.979,0.755 33.439,1.219 L33.439,1.219 C34.105,1.892 34.699,2.614 35.313,3.526 L35.313,3.526 C35.928,4.439 36.564,5.54 37.316,6.971 L37.316,6.971 C38.712,9.627 39.835,12.179 40.807,14.975 L40.807,14.975 C41.779,17.772 42.6,20.814 43.391,24.452 L43.391,24.452 C44,27.252 44.562,30.321 45.001,33.176 L45.001,33.176 C45.44,36.03 45.756,38.67 45.877,40.614 L45.877,40.614 C45.915,41.247 45.958,41.881 45.995,42.393 L45.995,42.393 C46.032,42.905 46.064,43.293 46.082,43.436 L46.082,43.436 C46.12,43.75 46.273,44.069 46.529,44.381 L46.529,44.381 C46.786,44.691 47.146,44.994 47.598,45.274 L47.598,45.274 C47.776,45.384 47.96,45.48 48.115,45.546 L48.115,45.546 C48.269,45.613 48.393,45.649 48.449,45.638 L48.449,45.638 C48.567,45.617 48.667,45.441 48.793,44.922 L48.793,44.922 C48.919,44.403 49.072,43.542 49.298,42.149 L49.298,42.149 C49.428,41.353 49.506,40.74 49.552,40.001 L49.552,40.001 C49.599,39.261 49.613,38.397 49.616,37.096 L49.616,37.096 C49.617,36.163 49.6,35.237 49.568,34.44 L49.568,34.44 C49.537,33.644 49.491,32.975 49.436,32.556 L49.436,32.556 C48.788,27.584 47.287,22.538 45.033,17.638 L45.033,17.638 C42.781,12.739 39.775,7.987 36.122,3.604 L36.122,3.604 C35.531,2.896 34.699,1.995 33.99,1.271 L33.99,1.271 C33.281,0.546 32.693,0 32.59,0 z" fill="url(#Gradient_5)"/>
    <path d="M66.902,34.869 C65.683,34.986 64.654,35.416 63.532,36.186 L63.532,36.186 C62.681,36.771 61.988,37.476 61.357,38.45 L61.357,38.45 C60.728,39.423 60.161,40.665 59.559,42.323 L59.559,42.323 C59.098,43.595 58.883,44.404 58.918,44.799 L58.918,44.799 C58.952,45.194 59.236,45.175 59.775,44.789 L59.775,44.789 C59.902,44.699 60.11,44.478 60.342,44.193 L60.342,44.193 C60.575,43.909 60.833,43.562 61.059,43.221 L61.059,43.221 C62.195,41.511 63.751,39.856 65.352,38.564 L65.352,38.564 C66.953,37.272 68.595,36.341 69.901,36.079 L69.901,36.079 C70.226,36.014 70.722,35.979 71.262,35.976 L71.262,35.976 C71.802,35.972 72.384,36 72.878,36.059 L72.878,36.059 C73.605,36.148 73.898,36.163 73.679,36.07 L73.679,36.07 C73.461,35.977 72.73,35.777 71.411,35.436 L71.411,35.436 C69.879,35.042 68.662,34.837 67.605,34.837 L67.605,34.837 C67.362,34.837 67.129,34.848 66.902,34.869 z" fill="url(#Gradient_6)"/>
    <path d="M62.294,30.602 C61.426,32.333 60.502,34.223 60.218,34.838 L60.218,34.838 C60.083,35.13 59.971,35.486 59.877,35.833 L59.877,35.833 C59.783,36.182 59.709,36.521 59.648,36.782 L59.648,36.782 C59.532,37.281 59.295,38.383 59.083,39.666 L59.083,39.666 C58.872,40.951 58.687,42.417 58.676,43.648 L58.676,43.648 L58.669,44.38 L58.663,45.111 L58.881,44.625 L59.098,44.138 C59.375,43.522 60.192,41.674 61.016,39.743 L61.016,39.743 C61.837,37.811 62.665,35.794 62.96,34.838 L62.96,34.838 C63.084,34.44 63.204,33.878 63.312,33.337 L63.312,33.337 C63.419,32.797 63.514,32.279 63.585,31.972 L63.585,31.972 C63.747,31.276 63.881,30.123 63.963,29.139 L63.963,29.139 C64.047,28.155 64.076,27.34 64.028,27.321 L64.028,27.321 C64.027,27.321 64.027,27.321 64.027,27.321 L64.027,27.321 C63.962,27.321 63.158,28.883 62.294,30.602 z" fill="url(#Gradient_7)"/>
    <path d="M63.477,8.499 C62.974,8.958 62.124,10.111 61.298,11.388 L61.298,11.388 C60.473,12.664 59.672,14.061 59.264,15.006 L59.264,15.006 C58.97,15.69 58.658,16.598 58.386,17.523 L58.386,17.523 C58.113,18.448 57.883,19.391 57.753,20.146 L57.753,20.146 C57.661,20.686 57.613,21.035 57.604,21.358 L57.604,21.358 C57.596,21.68 57.627,21.977 57.695,22.412 L57.695,22.412 C57.806,23.135 57.828,25.511 57.787,27.883 L57.787,27.883 C57.748,30.253 57.647,32.619 57.512,33.319 L57.512,33.319 C57.39,33.958 57.327,34.414 57.327,34.767 L57.327,34.767 C57.327,35.121 57.389,35.37 57.509,35.594 L57.509,35.594 C57.59,35.745 57.635,35.916 57.651,36.262 L57.651,36.262 C57.667,36.606 57.654,37.126 57.62,37.974 L57.62,37.974 C57.59,38.687 57.579,39.212 57.59,39.582 L57.59,39.582 C57.6,39.953 57.631,40.168 57.681,40.263 L57.681,40.263 C57.721,40.338 57.769,40.405 57.816,40.454 L57.816,40.454 C57.863,40.503 57.907,40.533 57.938,40.533 L57.938,40.533 C58.036,40.533 58.373,40.234 58.714,39.881 L58.714,39.881 C59.054,39.526 59.4,39.117 59.515,38.893 L59.515,38.893 C59.792,38.358 59.961,37.794 60.092,36.486 L60.092,36.486 C60.224,35.178 60.32,33.127 60.45,29.618 L60.45,29.618 C60.55,26.945 60.709,24.923 61.068,22.637 L61.068,22.637 C61.427,20.351 61.988,17.799 62.896,14.069 L62.896,14.069 C63.578,11.266 63.939,9.677 64.021,8.886 L64.021,8.886 C64.069,8.426 64.023,8.237 63.891,8.237 L63.891,8.237 C63.796,8.237 63.657,8.334 63.477,8.499 z" fill="url(#Gradient_8)"/>
    <path d="M81.832,3.872 C80.951,4.374 79.905,5.013 79.143,5.533 L79.143,5.533 C74.429,8.749 70.239,12.497 66.732,16.593 L66.732,16.593 C63.224,20.689 60.399,25.132 58.415,29.737 L58.415,29.737 C58.248,30.126 58.021,30.756 57.773,31.514 L57.773,31.514 C57.525,32.272 57.254,33.158 57.001,34.056 L57.001,34.056 C56.648,35.307 56.426,36.143 56.267,36.867 L56.267,36.867 C56.109,37.59 56.017,38.202 55.923,39.002 L55.923,39.002 C55.76,40.404 55.671,41.275 55.652,41.808 L55.652,41.808 C55.632,42.342 55.679,42.538 55.786,42.591 L55.786,42.591 C55.838,42.617 55.967,42.616 56.133,42.594 L56.133,42.594 C56.299,42.573 56.504,42.531 56.704,42.474 L56.704,42.474 C57.217,42.328 57.645,42.135 57.976,41.906 L57.976,41.906 C58.308,41.677 58.542,41.412 58.666,41.121 L58.666,41.121 C58.722,40.989 58.859,40.622 59.035,40.142 L59.035,40.142 C59.21,39.659 59.424,39.061 59.635,38.462 L59.635,38.462 C60.283,36.626 61.309,34.173 62.512,31.547 L62.512,31.547 C63.715,28.921 65.095,26.122 66.447,23.596 L66.447,23.596 C68.204,20.314 69.826,17.613 71.525,15.188 L71.525,15.188 C73.225,12.765 75.003,10.618 77.072,8.445 L77.072,8.445 C78.187,7.274 79.101,6.388 79.942,5.68 L79.942,5.68 C80.783,4.97 81.552,4.437 82.375,3.973 L82.375,3.973 C82.946,3.652 83.299,3.435 83.477,3.289 L83.477,3.289 C83.656,3.144 83.658,3.07 83.526,3.032 L83.526,3.032 C83.523,3.031 83.518,3.03 83.513,3.03 L83.513,3.03 C83.376,3.03 82.681,3.387 81.832,3.872 z" fill="url(#Gradient_9)"/>
    <g>
      <path d="M53.011,159.006 C53.102,156.609 53.189,149.234 53.254,139.286 C53.319,129.338 53.364,116.815 53.371,104.118 L53.386,81.034 L53.402,57.949 L54.476,62.089 L55.549,66.229 C56.14,68.507 57.077,72.027 58.115,75.864 C59.151,79.701 60.284,83.854 61.267,87.399 C64.284,98.292 66.239,106.268 67.438,113.072 C68.638,119.877 69.082,125.51 69.08,131.719 C69.078,137.314 68.654,141.902 67.687,145.982 C66.721,150.062 65.212,153.637 63.042,157.208 C62.064,158.82 60.281,161.021 58.49,162.952 C56.7,164.885 54.903,166.548 53.892,167.083 L53.418,167.273 L52.945,167.46 L52.978,163.234 z" fill="#FFEEAA"/>
      <path d="M53.011,159.006 C53.102,156.609 53.189,149.234 53.254,139.286 C53.319,129.338 53.364,116.815 53.371,104.118 L53.386,81.034 L53.402,57.949 L54.476,62.089 L55.549,66.229 C56.14,68.507 57.077,72.027 58.115,75.864 C59.151,79.701 60.284,83.854 61.267,87.399 C64.284,98.292 66.239,106.268 67.438,113.072 C68.638,119.877 69.082,125.51 69.08,131.719 C69.078,137.314 68.654,141.902 67.687,145.982 C66.721,150.062 65.212,153.637 63.042,157.208 C62.064,158.82 60.281,161.021 58.49,162.952 C56.7,164.885 54.903,166.548 53.892,167.083 L53.418,167.273 L52.945,167.46 L52.978,163.234 L53.011,159.006 z" fill-opacity="0" stroke="#FFFFE0" stroke-width="0.378"/>
      <path d="M49.164,163.762 C44.937,159.736 41.957,155.352 40.038,150.105 C38.119,144.858 37.261,138.748 37.279,131.268 C37.294,125.049 37.815,119.197 39.177,111.938 C40.538,104.679 42.738,96.014 46.109,84.172 C47.078,80.77 48.148,76.943 49.092,73.518 C50.036,70.093 50.853,67.07 51.316,65.276 L52.159,62.013 L53.002,58.751 L53.013,85.788 L53.023,112.825 C53.029,127.696 53.064,141.537 53.078,151.66 C53.091,161.784 53.082,168.191 53.002,168.191 C52.921,168.191 52.414,167.515 51.701,166.623 C50.988,165.732 50.069,164.624 49.164,163.762" fill="#FFE4AA"/>
      <path d="M49.164,163.762 C44.937,159.736 41.957,155.352 40.038,150.105 C38.119,144.858 37.261,138.748 37.279,131.268 C37.294,125.049 37.815,119.197 39.177,111.938 C40.538,104.679 42.738,96.014 46.109,84.172 C47.078,80.77 48.148,76.943 49.092,73.518 C50.036,70.093 50.853,67.07 51.316,65.276 L52.159,62.013 L53.002,58.751 L53.013,85.788 L53.023,112.825 C53.029,127.696 53.064,141.537 53.078,151.66 C53.091,161.784 53.082,168.191 53.002,168.191 C52.921,168.191 52.414,167.515 51.701,166.623 C50.988,165.732 50.069,164.624 49.164,163.762 z" fill-opacity="0" stroke="#FFFFFF" stroke-width="0.378"/>
      <path d="M42.692,162.224 C31.206,154.808 24.244,147.318 21.501,138.805 C18.758,130.293 20.234,120.76 25.625,109.257 C26.156,108.122 27.361,105.803 28.874,102.981 C30.387,100.159 32.208,96.832 33.971,93.686 C39.17,84.409 42.837,77.315 45.444,71.316 C48.052,65.316 49.601,60.411 50.564,55.51 C51.077,52.902 51.37,48.865 51.421,44.98 C51.471,41.096 51.28,37.364 50.828,35.368 C50.659,34.623 50.528,33.923 50.454,33.395 C50.379,32.868 50.361,32.512 50.418,32.455 C50.474,32.399 50.698,32.826 51.013,33.558 C51.329,34.291 51.735,35.329 52.158,36.497 C53.184,39.334 53.813,42.366 54.043,45.563 C54.271,48.76 54.1,52.122 53.527,55.619 C53.019,58.722 52.448,61.528 51.372,65.786 C50.296,70.045 48.716,75.755 46.189,84.667 C43.921,92.664 42.151,99.409 40.798,105.246 C39.445,111.082 38.51,116.012 37.912,120.378 C37.339,124.558 37.268,129.881 37.53,134.866 C37.792,139.852 38.386,144.499 39.144,147.329 C39.857,149.991 41.071,152.631 42.47,155.051 C43.87,157.471 45.454,159.67 46.909,161.448 C47.558,162.241 49.081,163.927 50.442,165.414 C51.803,166.902 53.002,168.191 53.002,168.191 C52.891,168.157 50.967,167.087 48.744,165.815 C46.521,164.542 43.999,163.068 42.692,162.224" fill="#FFE096"/>
      <path d="M42.692,162.224 C31.206,154.808 24.244,147.318 21.501,138.805 C18.758,130.293 20.234,120.76 25.625,109.257 C26.156,108.122 27.361,105.803 28.874,102.981 C30.387,100.159 32.208,96.832 33.971,93.686 C39.17,84.409 42.837,77.315 45.444,71.316 C48.052,65.316 49.601,60.411 50.564,55.51 C51.077,52.902 51.37,48.865 51.421,44.98 C51.471,41.096 51.28,37.364 50.828,35.368 C50.659,34.623 50.528,33.923 50.454,33.395 C50.379,32.868 50.361,32.512 50.418,32.455 C50.474,32.399 50.698,32.826 51.013,33.558 C51.329,34.291 51.735,35.329 52.158,36.497 C53.184,39.334 53.813,42.366 54.043,45.563 C54.271,48.76 54.1,52.122 53.527,55.619 C53.019,58.722 52.448,61.528 51.372,65.786 C50.296,70.045 48.716,75.755 46.189,84.667 C43.921,92.664 42.151,99.409 40.798,105.246 C39.445,111.082 38.51,116.012 37.912,120.378 C37.339,124.558 37.268,129.881 37.53,134.866 C37.792,139.852 38.386,144.499 39.144,147.329 C39.857,149.991 41.071,152.631 42.47,155.051 C43.87,157.471 45.454,159.67 46.909,161.448 C47.558,162.241 49.081,163.927 50.442,165.414 C51.803,166.902 53.002,168.191 53.002,168.191 C52.891,168.157 50.967,167.087 48.744,165.815 C46.521,164.542 43.999,163.068 42.692,162.224 z" fill-opacity="0" stroke="#FFFFFF" stroke-width="0.378"/>
      <path d="M36.519,160.804 C30.171,157.491 25.048,154.19 21.081,150.844 C17.114,147.498 14.304,144.108 12.581,140.615 C9.891,135.16 9.187,130.09 10.904,123.817 C12.622,117.542 16.759,110.067 23.75,99.802 C29.589,91.231 33.152,85.933 35.648,82.002 C38.145,78.073 39.576,75.511 41.151,72.413 C43.735,67.331 45.555,62.908 46.727,58.72 C47.901,54.532 48.427,50.579 48.426,46.438 C48.426,45.242 48.519,43.647 48.671,42.04 C48.822,40.434 49.031,38.816 49.261,37.574 C49.636,35.549 49.857,34.458 50.034,34.043 C50.211,33.628 50.346,33.888 50.547,34.563 C50.671,34.977 50.815,36.087 50.947,37.542 C51.079,38.998 51.199,40.798 51.276,42.592 C51.586,49.893 50.838,56.152 48.147,63.918 C45.457,71.683 40.824,80.955 33.367,94.282 C29.9,100.477 27.407,105.198 25.548,109.166 C23.69,113.136 22.467,116.354 21.54,119.543 C20.225,124.073 19.684,128.023 19.948,131.825 C20.211,135.625 21.279,139.278 23.181,143.21 C24.191,145.299 24.924,146.646 25.959,148.021 C26.996,149.396 28.334,150.8 30.558,153.005 C31.953,154.387 33.672,155.949 35.319,157.35 C36.966,158.752 38.541,159.993 39.645,160.737 C42.059,162.363 45.573,164.258 48.365,165.744 C51.156,167.232 53.225,168.311 52.749,168.304 C52.55,168.301 49.405,166.903 45.854,165.266 C42.302,163.63 38.345,161.756 36.519,160.804" fill="#FFDC81"/>
      <path d="M36.519,160.804 C30.171,157.491 25.048,154.19 21.081,150.844 C17.114,147.498 14.304,144.108 12.581,140.615 C9.891,135.16 9.187,130.09 10.904,123.817 C12.622,117.542 16.759,110.067 23.75,99.802 C29.589,91.231 33.152,85.933 35.648,82.002 C38.145,78.073 39.576,75.511 41.151,72.413 C43.735,67.331 45.555,62.908 46.727,58.72 C47.901,54.532 48.427,50.579 48.426,46.438 C48.426,45.242 48.519,43.647 48.671,42.04 C48.822,40.434 49.031,38.816 49.261,37.574 C49.636,35.549 49.857,34.458 50.034,34.043 C50.211,33.628 50.346,33.888 50.547,34.563 C50.671,34.977 50.815,36.087 50.947,37.542 C51.079,38.998 51.199,40.798 51.276,42.592 C51.586,49.893 50.838,56.152 48.147,63.918 C45.457,71.683 40.824,80.955 33.367,94.282 C29.9,100.477 27.407,105.198 25.548,109.166 C23.69,113.136 22.467,116.354 21.54,119.543 C20.225,124.073 19.684,128.023 19.948,131.825 C20.211,135.625 21.279,139.278 23.181,143.21 C24.191,145.299 24.924,146.646 25.959,148.021 C26.996,149.396 28.334,150.8 30.558,153.005 C31.953,154.387 33.672,155.949 35.319,157.35 C36.966,158.752 38.541,159.993 39.645,160.737 C42.059,162.363 45.573,164.258 48.365,165.744 C51.156,167.232 53.225,168.311 52.749,168.304 C52.55,168.301 49.405,166.903 45.854,165.266 C42.302,163.63 38.345,161.756 36.519,160.804 z" fill-opacity="0" stroke="#FFFFFF" stroke-width="0.678"/>
    </g>
    <path d="M43.281,38.99 C43.23,39.041 43.304,39.36 43.465,39.831 L43.465,39.831 C43.625,40.304 43.871,40.928 44.166,41.593 L44.166,41.593 C44.609,42.598 44.867,43.371 44.99,44.306 L44.99,44.306 C45.113,45.241 45.1,46.339 45.005,47.991 L45.005,47.991 C44.899,49.804 44.778,50.926 44.357,52.239 L44.357,52.239 C43.937,53.551 43.218,55.054 41.917,57.628 L41.917,57.628 C39.038,63.33 35.663,68.786 31.669,74.169 L31.669,74.169 C27.675,79.552 23.061,84.861 17.697,90.267 L17.697,90.267 C12.6,95.406 8.813,100.142 6.033,105.005 L6.033,105.005 C3.253,109.866 1.48,114.856 0.412,120.5 L0.412,120.5 C-0.005,122.708 -0.091,125.985 0.091,129.22 L0.091,129.22 C0.274,132.455 0.725,135.649 1.382,137.692 L1.382,137.692 C3.65,144.739 8.465,150.811 15.595,155.747 L15.595,155.747 C22.725,160.682 32.169,164.481 43.692,166.982 L43.692,166.982 C45.257,167.321 47.383,167.647 49.187,167.891 L49.187,167.891 C50.991,168.134 52.474,168.295 52.75,168.304 L52.75,168.304 C53.026,168.313 52.007,168.011 50.505,167.525 L50.505,167.525 C49.003,167.039 47.018,166.368 45.36,165.642 L45.36,165.642 C35.394,161.274 27.576,156.737 21.853,151.989 L21.853,151.989 C16.13,147.241 12.503,142.282 10.92,137.07 L10.92,137.07 C9.854,133.563 9.708,129.732 10.482,125.58 L10.482,125.58 C11.255,121.431 12.948,116.957 15.56,112.168 L15.56,112.168 C16.134,111.113 17.423,109.025 19.038,106.511 L19.038,106.511 C20.653,103.997 22.593,101.057 24.468,98.297 L24.468,98.297 C29.847,90.38 32.849,85.94 34.88,82.818 L34.88,82.818 C36.91,79.695 37.968,77.89 39.459,75.243 L39.459,75.243 C42.351,70.105 44.527,65.225 45.997,60.568 L45.997,60.568 C47.467,55.911 48.23,51.48 48.298,47.241 L48.298,47.241 L48.337,44.725 L48.378,42.211 L47.149,41.359 L45.922,40.509 C45.246,40.04 44.611,39.635 44.132,39.36 L44.132,39.36 C43.717,39.121 43.419,38.98 43.315,38.98 L43.315,38.98 C43.299,38.98 43.288,38.983 43.281,38.99 z" fill="url(#Gradient_10)"/>
    <g>
      <path d="M57.603,166.186 C57.707,166.114 58.191,165.811 58.889,165.379 C59.587,164.948 60.498,164.387 61.453,163.804 C70.474,158.293 77.01,152.555 81.118,146.503 C85.225,140.452 86.904,134.087 86.21,127.325 C85.818,123.493 84.82,119.59 82.988,115.048 C81.155,110.507 78.487,105.327 74.754,98.938 C73.927,97.524 72.814,95.617 71.686,93.684 C70.558,91.75 69.415,89.792 68.529,88.274 C64.91,82.071 62.117,76.776 59.962,71.978 C57.809,67.18 56.296,62.879 55.24,58.665 C54.514,55.771 53.999,52.87 53.705,50.057 C53.41,47.244 53.336,44.519 53.493,41.979 C53.55,41.047 53.612,40.313 53.666,39.881 C53.72,39.45 53.765,39.319 53.79,39.595 C53.88,40.644 54.286,41.261 54.831,41.401 C55.376,41.541 56.062,41.206 56.713,40.348 L57.095,39.846 L57.477,39.344 L57.477,42.041 L57.477,44.739 C57.477,47.687 57.517,49.49 57.729,51.218 C57.94,52.946 58.323,54.598 59.007,57.247 C59.528,59.26 60.175,61.266 60.977,63.339 C61.779,65.412 62.736,67.551 63.875,69.832 C65.726,73.531 67.234,76.28 69.713,80.108 C72.194,83.936 75.646,88.845 81.388,96.866 C82.981,99.09 84.664,101.487 86.091,103.556 C87.518,105.625 88.691,107.368 89.264,108.283 C91.286,111.51 92.966,114.637 94.257,117.547 C95.547,120.457 96.447,123.151 96.905,125.516 C97.144,126.752 97.263,128.509 97.261,130.217 C97.26,131.926 97.138,133.584 96.898,134.624 C95.771,139.483 93.108,143.955 88.699,148.245 C84.29,152.536 78.134,156.643 70.024,160.773 C67.259,162.18 62.544,164.337 58.719,166.005 C54.894,167.673 51.957,168.852 52.749,168.304 L55.176,167.245 z" fill="#FFEE92"/>
      <path d="M57.603,166.186 C57.707,166.114 58.191,165.811 58.889,165.379 C59.587,164.948 60.498,164.387 61.453,163.804 C70.474,158.293 77.01,152.555 81.118,146.503 C85.225,140.452 86.904,134.087 86.21,127.325 C85.818,123.493 84.82,119.59 82.988,115.048 C81.155,110.507 78.487,105.327 74.754,98.938 C73.927,97.524 72.814,95.617 71.686,93.684 C70.558,91.75 69.415,89.792 68.529,88.274 C64.91,82.071 62.117,76.776 59.962,71.978 C57.809,67.18 56.296,62.879 55.24,58.665 C54.514,55.771 53.999,52.87 53.705,50.057 C53.41,47.244 53.336,44.519 53.493,41.979 C53.55,41.047 53.612,40.313 53.666,39.881 C53.72,39.45 53.765,39.319 53.79,39.595 C53.88,40.644 54.286,41.261 54.831,41.401 C55.376,41.541 56.062,41.206 56.713,40.348 L57.095,39.846 L57.477,39.344 L57.477,42.041 L57.477,44.739 C57.477,47.687 57.517,49.49 57.729,51.218 C57.94,52.946 58.323,54.598 59.007,57.247 C59.528,59.26 60.175,61.266 60.977,63.339 C61.779,65.412 62.736,67.551 63.875,69.832 C65.726,73.531 67.234,76.28 69.713,80.108 C72.194,83.936 75.646,88.845 81.388,96.866 C82.981,99.09 84.664,101.487 86.091,103.556 C87.518,105.625 88.691,107.368 89.264,108.283 C91.286,111.51 92.966,114.637 94.257,117.547 C95.547,120.457 96.447,123.151 96.905,125.516 C97.144,126.752 97.263,128.509 97.261,130.217 C97.26,131.926 97.138,133.584 96.898,134.624 C95.771,139.483 93.108,143.955 88.699,148.245 C84.29,152.536 78.134,156.643 70.024,160.773 C67.259,162.18 62.544,164.337 58.719,166.005 C54.894,167.673 51.957,168.852 52.749,168.304 L55.176,167.245 L57.603,166.186 z" fill-opacity="0" stroke="#FFFFFF" stroke-width="0.589"/>
    </g>
    <path d="M59.185,31.169 C58.984,31.171 58.904,31.43 59.033,31.942 L59.033,31.942 C59.089,32.163 59.055,32.622 58.957,33.186 L58.957,33.186 C58.86,33.748 58.698,34.414 58.495,35.048 L58.495,35.048 C57.717,37.472 57.326,40.944 57.324,44.625 L57.324,44.625 C57.321,48.305 57.704,52.192 58.478,55.449 L58.478,55.449 C59.775,60.915 61.57,65.739 64.863,71.738 L64.863,71.738 C68.156,77.736 72.947,84.909 80.231,95.074 L80.231,95.074 C84.573,101.131 87.62,105.584 89.887,109.262 L89.887,109.262 C92.152,112.939 93.634,115.841 94.846,118.798 L94.846,118.798 C96.307,122.362 97.084,125.987 97.169,129.462 L97.169,129.462 C97.254,132.937 96.65,136.263 95.351,139.228 L95.351,139.228 C94.036,142.227 91.7,145.379 88.561,148.466 L88.561,148.466 C85.424,151.552 81.483,154.573 76.964,157.311 L76.964,157.311 C74.888,158.569 71.406,160.405 67.814,162.179 L67.814,162.179 C64.222,163.954 60.52,165.666 58.003,166.678 L58.003,166.678 C56.966,167.096 56.553,167.157 56.201,167.21 L56.201,167.21 C55.848,167.261 55.556,167.304 54.761,167.683 L54.761,167.683 L53.755,167.994 L52.75,168.304 C52.75,168.436 53.349,168.475 54.59,168.351 L54.59,168.351 C55.829,168.227 57.707,167.94 60.265,167.421 L60.265,167.421 C73.483,164.741 83.896,160.6 91.437,155.05 L91.437,155.05 C98.977,149.502 103.644,142.544 105.369,134.227 L105.369,134.227 C105.81,132.1 106.034,129.891 106.047,127.626 L106.047,127.626 L106.047,127.207 C106.029,124.082 105.613,120.856 104.815,117.602 L104.815,117.602 C103.402,111.838 100.794,105.985 97.088,100.443 L97.088,100.443 C96.115,98.989 95.123,97.679 93.816,96.177 L93.816,96.177 C92.51,94.675 90.89,92.981 88.663,90.758 L88.663,90.758 C83.205,85.308 78.861,80.426 75.025,75.296 L75.025,75.296 C71.189,70.167 67.861,64.793 64.432,58.36 L64.432,58.36 C62.738,55.182 61.892,53.606 61.812,51.997 L61.812,51.997 C61.732,50.389 62.419,48.749 63.79,45.445 L63.79,45.445 C64.705,43.243 65.243,41.797 65.452,40.9 L65.452,40.9 C65.66,40.005 65.54,39.659 65.137,39.659 L65.137,39.659 C64.66,39.659 63.915,40.104 63.142,40.785 L63.142,40.785 C62.37,41.466 61.568,42.383 60.974,43.327 L60.974,43.327 C59.982,44.906 59.432,45.572 59.27,45.205 L59.27,45.205 C59.109,44.838 59.337,43.437 59.902,40.882 L59.902,40.882 C60.335,38.922 60.57,36.96 60.6,35.351 L60.6,35.351 C60.629,33.741 60.455,32.483 60.067,31.93 L60.067,31.93 C59.711,31.421 59.389,31.169 59.187,31.169 L59.187,31.169 C59.186,31.169 59.186,31.169 59.185,31.169 z" fill="url(#Gradient_11)"/>
    <g>
      <path d="M63.839,162.444 C75.325,155.028 82.287,147.538 85.03,139.026 C87.773,130.514 86.296,120.98 80.906,109.477 C80.374,108.342 79.17,106.023 77.657,103.201 C76.144,100.379 74.323,97.053 72.56,93.906 C67.36,84.629 63.694,77.535 61.087,71.536 C58.48,65.536 56.931,60.631 55.967,55.73 C55.454,53.122 55.161,49.085 55.11,45.2 C55.06,41.316 55.251,37.584 55.703,35.588 C55.872,34.843 56.003,34.143 56.077,33.615 C56.152,33.088 56.169,32.732 56.113,32.675 C56.058,32.619 55.833,33.046 55.518,33.779 C55.202,34.511 54.796,35.55 54.373,36.717 C53.347,39.554 52.718,42.586 52.489,45.783 C52.26,48.98 52.431,52.342 53.004,55.839 C53.513,58.942 54.084,61.748 55.16,66.006 C56.235,70.265 57.816,75.975 60.343,84.887 C62.61,92.884 64.38,99.63 65.733,105.465 C67.086,111.303 68.022,116.232 68.62,120.598 C69.193,124.778 69.228,130.134 68.93,135.154 C68.633,140.173 68.003,144.855 67.244,147.685 C66.53,150.346 65.441,153.034 64.164,155.502 C62.888,157.968 61.427,160.215 59.972,161.992 C59.323,162.786 57.523,164.335 55.913,165.686 C54.304,167.038 52.886,168.191 53.001,168.191 C53.116,168.191 55.172,167.176 57.526,165.95 C59.88,164.724 62.532,163.288 63.839,162.444" fill="#FFEE96"/>
      <path d="M63.839,162.444 C75.325,155.028 82.287,147.538 85.03,139.026 C87.773,130.514 86.296,120.98 80.906,109.477 C80.374,108.342 79.17,106.023 77.657,103.201 C76.144,100.379 74.323,97.053 72.56,93.906 C67.36,84.629 63.694,77.535 61.087,71.536 C58.48,65.536 56.931,60.631 55.967,55.73 C55.454,53.122 55.161,49.085 55.11,45.2 C55.06,41.316 55.251,37.584 55.703,35.588 C55.872,34.843 56.003,34.143 56.077,33.615 C56.152,33.088 56.169,32.732 56.113,32.675 C56.058,32.619 55.833,33.046 55.518,33.779 C55.202,34.511 54.796,35.55 54.373,36.717 C53.347,39.554 52.718,42.586 52.489,45.783 C52.26,48.98 52.431,52.342 53.004,55.839 C53.513,58.942 54.084,61.748 55.16,66.006 C56.235,70.265 57.816,75.975 60.343,84.887 C62.61,92.884 64.38,99.63 65.733,105.465 C67.086,111.303 68.022,116.232 68.62,120.598 C69.193,124.778 69.228,130.134 68.93,135.154 C68.633,140.173 68.003,144.855 67.244,147.685 C66.53,150.346 65.441,153.034 64.164,155.502 C62.888,157.968 61.427,160.215 59.972,161.992 C59.323,162.786 57.523,164.335 55.913,165.686 C54.304,167.038 52.886,168.191 53.001,168.191 C53.116,168.191 55.172,167.176 57.526,165.95 C59.88,164.724 62.532,163.288 63.839,162.444 z" fill-opacity="0" stroke="#FFFFFF" stroke-width="0.378"/>
    </g>
    <path d="M49.717,167.533 C49.54,167.843 49.341,168.288 49.163,168.789 L49.163,168.789 C48.984,169.29 48.728,169.841 48.459,170.323 L48.459,170.323 C48.189,170.805 47.906,171.221 47.676,171.452 L47.676,171.452 C47.327,171.799 47.143,172.01 47.109,172.131 L47.109,172.131 C47.075,172.253 47.19,172.286 47.441,172.283 L47.441,172.283 C47.965,172.276 48.842,171.951 49.661,171.52 L49.661,171.52 C50.48,171.091 51.242,170.556 51.54,170.131 L51.54,170.131 C51.809,169.748 51.94,169.528 51.907,169.278 L51.907,169.278 C51.873,169.029 51.676,168.751 51.29,168.249 L51.29,168.249 C51.065,167.957 50.823,167.678 50.614,167.466 L50.614,167.466 C50.405,167.252 50.231,167.106 50.14,167.075 L50.14,167.075 C50.133,167.073 50.126,167.072 50.119,167.072 L50.119,167.072 C50.026,167.072 49.881,167.246 49.717,167.533 z" fill="url(#Gradient_12)"/>
    <path d="M50.794,170.298 C50.52,170.555 50.314,170.85 50.176,171.181 L50.176,171.181 C50.039,171.51 49.97,171.875 49.97,172.276 L49.97,172.276 C49.97,172.607 49.929,172.985 49.863,173.328 L49.863,173.328 C49.796,173.669 49.704,173.977 49.603,174.166 L49.603,174.166 C49.37,174.602 49.342,174.818 49.555,174.815 L49.555,174.815 C49.767,174.811 50.22,174.588 50.945,174.146 L50.945,174.146 C51.468,173.827 51.757,173.612 51.915,173.28 L51.915,173.28 C52.072,172.95 52.099,172.503 52.099,171.723 L52.099,171.723 C52.099,170.656 52.035,170.053 51.841,169.841 L51.841,169.841 C51.786,169.781 51.721,169.752 51.644,169.752 L51.644,169.752 C51.447,169.752 51.172,169.943 50.794,170.298 z" fill="url(#Gradient_13)"/>
    <path d="M55.853,167.297 L55.364,167.388 C54.988,167.458 54.649,167.433 54.358,167.408 L54.358,167.408 C54.125,167.388 53.924,167.368 53.762,167.397 L53.762,167.397 C53.401,167.464 53.238,167.778 53.357,168.898 L53.357,168.898 C53.503,170.274 53.869,171.639 54.329,172.793 L54.329,172.793 C54.788,173.946 55.346,174.889 55.875,175.418 L55.875,175.418 L55.874,175.418 C56.127,175.671 56.386,175.899 56.603,176.066 L56.603,176.066 C56.819,176.232 56.991,176.336 57.066,176.336 L57.066,176.336 C57.142,176.336 57.154,176.125 57.115,175.788 L57.115,175.788 C57.074,175.449 56.982,174.985 56.845,174.472 L56.845,174.472 C56.708,173.96 56.584,173.19 56.494,172.363 L56.494,172.363 C56.403,171.535 56.345,170.651 56.344,169.908 L56.344,169.908 L56.343,168.557 L56.34,167.207 z" fill="url(#Gradient_14)"/>
    <path d="M55.44,168.385 C55.484,168.906 55.574,169.278 55.773,169.6 L55.773,169.6 C55.972,169.923 56.279,170.194 56.756,170.514 L56.756,170.514 C57.189,170.805 57.618,171.007 58.101,171.138 L58.101,171.138 C58.584,171.266 59.121,171.323 59.771,171.321 L59.771,171.321 L60.677,171.319 L61.583,171.317 L60.656,170.786 L59.728,170.254 C59.218,169.961 58.742,169.621 58.344,169.265 L58.344,169.265 C57.947,168.906 57.631,168.534 57.441,168.177 L57.441,168.177 C57.285,167.648 56.748,167.263 56.268,167.229 L56.268,167.229 C56.245,167.227 56.223,167.226 56.201,167.226 L56.201,167.226 C55.75,167.226 55.371,167.553 55.44,168.385 z" fill="url(#Gradient_15)"/>
    <path d="M50.263,167.149 C50.264,167.178 50.336,167.512 50.47,167.961 L50.47,167.961 C50.604,168.409 50.799,168.969 51.042,169.449 L51.042,169.449 C51.566,170.481 51.862,171.764 51.925,173.131 L51.925,173.131 C51.986,174.499 51.814,175.949 51.399,177.316 L51.399,177.316 C51.253,177.796 51.122,178.271 51.025,178.651 L51.025,178.651 C50.93,179.03 50.871,179.315 50.872,179.413 L50.872,179.413 C50.872,179.511 50.893,179.56 50.93,179.566 L50.93,179.566 L50.947,179.566 C51.145,179.538 51.714,178.571 52.331,177.313 L52.331,177.313 C53.098,175.752 53.941,173.744 54.252,172.531 L54.252,172.531 C54.544,171.391 54.626,170.481 54.494,169.781 L54.494,169.781 C54.361,169.082 54.015,168.594 53.453,168.303 L53.453,168.303 C53.171,168.158 52.662,167.885 52.159,167.65 L52.159,167.65 C51.655,167.414 51.156,167.218 50.898,167.227 L50.898,167.227 L50.71,167.188 L50.523,167.148 C50.486,167.149 50.422,167.143 50.366,167.141 L50.366,167.141 C50.346,167.139 50.327,167.138 50.311,167.138 L50.311,167.138 C50.283,167.138 50.263,167.141 50.263,167.149 M50.434,171.345 C50.432,171.346 50.428,171.346 50.425,171.347 L50.425,171.347 C50.423,171.348 50.419,171.349 50.415,171.352 L50.415,171.352 C50.418,171.351 50.421,171.351 50.423,171.351 L50.423,171.351 C50.426,171.351 50.43,171.35 50.433,171.349 L50.433,171.349 C50.433,171.348 50.434,171.348 50.434,171.346 L50.434,171.346 C50.434,171.346 50.434,171.345 50.435,171.345 L50.435,171.345 z M50.764,174.693 C50.764,174.694 50.764,174.694 50.764,174.695 L50.764,174.695 L50.764,174.693 z M50.761,174.7 C50.76,174.702 50.759,174.706 50.757,174.708 L50.757,174.708 L50.762,174.705 C50.764,174.703 50.764,174.703 50.766,174.701 L50.766,174.701 C50.765,174.701 50.765,174.7 50.764,174.698 L50.764,174.698 C50.764,174.697 50.764,174.696 50.764,174.695 L50.764,174.695 z" fill="url(#Gradient_16)"/>
    <g>
      <g clip-path="url(#Clip_1)" opacity="0.608">
        <path d="M53.846,166.77 C62.999,166.636 72.143,164.882 80.535,160.737 C88.925,156.591 96.564,150.054 102.702,140.354 C104.022,133.336 104.667,127.378 104.251,122.116 C103.835,116.853 102.357,112.286 99.428,108.045 C92.037,97.339 76.688,93.832 58.653,95.907 C40.617,97.981 19.895,105.637 1.753,117.26 C-1.658,132.352 3.853,144.84 13.973,153.5 C24.092,162.159 38.821,166.99 53.846,166.77 z" fill="url(#Gradient_17)"/>
      </g>
      <g clip-path="url(#Clip_2)" opacity="0.405">
        <path d="M77.229,96.551 L77.244,96.554 L77.258,96.557 L73.75,100.619 L70.242,104.683 L73.736,100.617 z" fill="#FFCC00"/>
      </g>
      <g clip-path="url(#Clip_3)" opacity="0.508">
        <path d="M2.176,116.744 C3.258,116.667 4.223,115.894 5.124,115.35 C6.644,114.394 8.169,113.307 8.169,113.307 C18.332,108.277 28.47,103.556 38.862,100.208 C49.254,96.859 59.9,94.881 71.075,95.338 C74.187,95.465 77.337,95.933 80.313,96.665 C83.289,97.397 86.089,98.394 88.503,99.58 C89.964,100.297 91.417,101.034 92.767,101.869 C94.119,102.704 95.369,103.636 96.427,104.746 C97.531,105.809 98.159,106.693 98.559,107.278 C98.96,107.863 99.134,108.149 99.332,108.016 C99.781,107.713 99.036,106.201 97.406,103.74 C95.776,101.279 93.261,97.87 90.171,93.777 C88.635,91.741 86.285,89.574 83.898,87.327 C81.512,85.08 79.091,82.753 77.416,80.397 C75.187,77.265 70.907,72.362 67.323,66.903 C63.739,61.444 60.851,55.429 61.409,50.073 C61.521,48.991 62.7,47.029 63.708,45.062 C64.718,43.095 65.559,41.125 64.998,40.026 C64.567,39.183 63.191,40.67 61.864,42.286 C60.536,43.902 59.255,45.649 59.016,45.325 C58.819,45.059 58.722,44.567 58.661,44.048 C58.598,43.529 58.57,42.984 58.507,42.611 C58.892,42.397 59.3,41.626 59.606,40.416 C59.912,39.206 60.117,37.557 60.096,35.587 C60.083,34.407 59.909,33.37 59.768,32.713 C59.668,32.283 59.706,32.434 59.662,32.258 L59.646,32.122 C59.559,31.888 59.58,31.929 59.662,32.258 C59.796,33.272 59.546,34.318 59.372,35.315 C59.074,36.762 58.582,38.249 57.921,38.74 C57.921,38.74 57.619,39.356 57.223,39.998 C56.829,40.639 56.341,41.306 55.974,41.408 C54.941,41.693 55,40.111 55.234,38.376 C55.467,36.64 55.875,34.753 55.537,34.427 C55.281,34.182 54.722,35.825 54.184,37.431 C53.647,39.038 53.13,40.609 52.958,40.219 C52.407,38.978 52.041,37.363 51.688,36.073 C51.335,34.783 50.995,33.817 50.496,33.876 C50.141,33.917 49.839,34.668 49.577,35.83 C49.314,36.992 49.09,38.566 48.891,40.253 C48.815,40.896 48.882,41.419 48.886,41.805 C48.891,42.192 48.833,42.442 48.51,42.539 C47.995,42.693 47.471,42.227 46.838,41.588 C46.206,40.951 45.464,40.141 44.513,39.609 C47.21,44.366 46.137,50.266 43.475,56.294 C40.812,62.321 36.56,68.475 32.897,73.74 C29.333,78.862 25.194,83.482 21.209,87.765 C17.225,92.048 13.396,95.995 10.456,99.768 C9.627,99.993 7.592,103.159 5.74,106.792 C3.887,110.423 2.217,114.522 2.117,116.609 L2.176,116.744 z" fill="url(#Gradient_18)"/>
      </g>
      <g clip-path="url(#Clip_4)" opacity="0.698">
        <path d="M88.999,150.128 C93.859,148.005 96.464,142.588 98.686,138.086 C102.409,129.718 104.236,118.3 98.31,108.131 C95.576,103.556 88.109,94.317 81.127,86.694 C74.146,79.07 67.65,73.062 66.858,74.949 C66.64,75.466 68.287,77.737 70.542,81.506 C72.797,85.275 75.662,90.543 77.882,97.053 C83.906,114.22 88.661,123.229 90.757,130.026 C92.855,136.823 92.294,141.408 87.687,149.729 C88.289,150.231 87.889,150.01 88.999,150.128 z" fill="url(#Gradient_19)"/>
      </g>
      <path d="M100.107,127.471 L100.27,124.778 L100.433,122.083 C100.494,121.086 100.281,119.276 99.975,117.437 C99.67,115.599 99.273,113.733 98.962,112.628 C98.309,110.301 96.507,107.86 94.911,105.96 C93.313,104.061 91.919,102.703 92.082,102.54 C92.484,101.6 95.925,105.744 98.547,111.167 C101.17,116.591 102.975,123.293 100.107,127.471" fill="#FFFFFF"/>
    </g>
  </g>
</svg>
