<?xml version="1.0" encoding="UTF-8"?>
<!DOCTYPE svg PUBLIC "-//W3C//DTD SVG 1.1//EN" "http://www.w3.org/Graphics/SVG/1.1/DTD/svg11.dtd">
<svg version="1.1" xmlns="http://www.w3.org/2000/svg" xmlns:xlink="http://www.w3.org/1999/xlink" x="0" y="0" width="153.865" height="41.152" viewBox="0, 0, 153.865, 41.152">
  <g id="Layer_1">
    <g>
      <path d="M9.656,6.611 C9.52,6.611 9.412,6.636 9.317,6.691 C9.071,6.831 8.853,7.086 8.669,7.446 C8.434,7.905 8.246,8.469 8.108,9.124 C7.963,9.817 7.86,10.565 7.803,11.349 C7.745,12.143 7.709,12.959 7.698,13.775 C7.686,14.564 7.697,15.31 7.732,15.996 C7.768,16.682 7.803,17.276 7.839,17.775 C7.878,18.316 7.895,18.664 7.895,18.819 C7.895,19.05 7.914,19.52 7.949,20.227 C7.984,20.949 8.043,21.775 8.126,22.709 C8.207,23.63 8.331,24.61 8.495,25.625 C8.654,26.616 8.861,27.52 9.109,28.31 C9.339,29.039 9.62,29.629 9.945,30.063 C10.149,30.334 10.273,30.334 10.319,30.334 L10.421,30.322 C10.825,30.262 11.184,30.044 11.518,29.653 C11.935,29.164 12.297,28.543 12.592,27.806 C12.903,27.029 13.158,26.154 13.35,25.209 C13.549,24.226 13.708,23.263 13.823,22.347 C13.94,21.424 14.023,20.557 14.069,19.768 C14.117,18.954 14.153,18.319 14.177,17.865 C14.199,16.935 14.194,15.975 14.158,15.04 C14.124,14.111 14.064,13.229 13.982,12.422 C13.902,11.627 13.792,10.9 13.657,10.259 C13.532,9.664 13.397,9.17 13.254,8.789 C13.048,8.737 12.817,8.656 12.55,8.542 L12.422,8.487 L12.314,8.4 C11.933,8.09 11.578,7.806 11.245,7.544 L10.4,6.911 C10.124,6.704 10.02,6.657 10.016,6.656 C9.925,6.633 9.781,6.611 9.656,6.611 M10.705,35.199 C9.687,35.199 8.697,35.016 7.76,34.656 C6.712,34.252 5.766,33.673 4.948,32.934 C4.135,32.203 3.451,31.324 2.917,30.323 C2.384,29.323 2.032,28.236 1.874,27.092 L1.42,23.071 C1.262,21.69 1.145,20.276 1.073,18.87 C1.024,17.977 1,16.947 1,15.813 C1,14.661 1.062,13.476 1.186,12.289 C1.31,11.08 1.531,9.886 1.845,8.744 C2.173,7.552 2.654,6.475 3.273,5.54 C3.915,4.568 4.743,3.774 5.735,3.182 C6.752,2.575 7.99,2.267 9.416,2.267 C10.293,2.267 11.067,2.497 11.717,2.951 C11.964,3.115 12.161,3.243 12.294,3.32 C12.381,3.37 12.435,3.39 12.465,3.399 C12.564,3.426 12.679,3.445 12.815,3.463 C13.024,3.488 13.324,3.54 13.716,3.617 L13.787,3.632 L13.856,3.656 C14.69,3.953 15.413,4.327 16.006,4.768 C16.592,5.204 17.134,5.739 17.619,6.358 C18.07,6.922 18.454,7.675 18.754,8.589 C19.036,9.449 19.255,10.415 19.406,11.458 C19.552,12.479 19.653,13.591 19.703,14.761 C19.752,15.918 19.763,17.108 19.739,18.299 C19.715,19.269 19.679,20.33 19.631,21.488 C19.58,22.675 19.468,23.873 19.297,25.048 C19.123,26.241 18.864,27.421 18.528,28.553 C18.178,29.733 17.688,30.805 17.071,31.737 C16.435,32.698 15.631,33.502 14.681,34.127 C13.689,34.778 12.488,35.135 11.11,35.189 C10.98,35.196 10.842,35.199 10.705,35.199" fill="#F7F4E2"/>
      <path d="M10.568,29.192 C10.376,28.869 10.21,28.476 10.063,28.009 C9.829,27.266 9.634,26.41 9.482,25.466 C9.322,24.475 9.201,23.517 9.122,22.62 C9.038,21.673 8.981,20.876 8.947,20.18 C8.904,19.303 8.895,18.956 8.895,18.818 C8.895,18.682 8.888,18.431 8.837,17.703 C8.801,17.21 8.767,16.622 8.73,15.94 C8.697,15.282 8.686,14.557 8.698,13.791 C8.709,12.993 8.743,12.196 8.8,11.422 C8.854,10.683 8.951,9.979 9.087,9.33 C9.206,8.761 9.365,8.281 9.558,7.903 C9.616,7.791 9.671,7.708 9.717,7.65 C9.742,7.668 9.77,7.688 9.8,7.711 L10.24,8.041 L10.665,8.359 C10.955,8.588 11.307,8.871 11.684,9.176 L11.9,9.351 L12.156,9.461 C12.262,9.506 12.364,9.547 12.463,9.585 C12.528,9.811 12.602,10.1 12.678,10.463 C12.806,11.071 12.91,11.763 12.987,12.522 C13.067,13.309 13.125,14.169 13.159,15.078 C13.193,15.983 13.199,16.912 13.177,17.84 C13.152,18.291 13.118,18.914 13.07,19.707 C13.026,20.476 12.945,21.321 12.831,22.221 C12.719,23.114 12.564,24.051 12.37,25.01 C12.19,25.897 11.952,26.713 11.663,27.435 C11.409,28.069 11.104,28.597 10.757,29.004 C10.688,29.086 10.624,29.146 10.568,29.192 M9.416,1.267 C7.807,1.267 6.397,1.622 5.222,2.323 C4.101,2.993 3.164,3.89 2.437,4.99 C1.761,6.01 1.237,7.185 0.881,8.477 C0.552,9.674 0.32,10.923 0.191,12.189 C0.064,13.407 0,14.627 0,15.813 C0,16.965 0.025,18.013 0.074,18.926 C0.148,20.348 0.266,21.783 0.426,23.185 C0.582,24.551 0.732,25.881 0.876,27.176 L0.879,27.204 L0.883,27.23 C1.058,28.491 1.446,29.69 2.035,30.794 C2.624,31.897 3.379,32.868 4.28,33.678 C5.187,34.498 6.238,35.14 7.401,35.588 C8.452,35.994 9.564,36.199 10.705,36.199 C10.857,36.199 11.011,36.195 11.166,36.188 C12.711,36.128 14.084,35.715 15.23,34.963 C16.294,34.262 17.194,33.363 17.905,32.287 C18.576,31.274 19.109,30.113 19.487,28.836 C19.836,27.66 20.105,26.433 20.286,25.192 C20.463,23.983 20.578,22.752 20.63,21.531 C20.678,20.365 20.714,19.298 20.738,18.327 C20.764,17.108 20.752,15.897 20.702,14.72 C20.651,13.515 20.547,12.37 20.395,11.316 C20.236,10.215 20.004,9.192 19.704,8.277 C19.362,7.235 18.933,6.4 18.394,5.726 C17.866,5.052 17.26,4.455 16.605,3.967 C15.93,3.465 15.119,3.045 14.191,2.714 L14.054,2.665 L13.911,2.637 C13.5,2.555 13.183,2.501 12.94,2.47 C12.864,2.461 12.813,2.452 12.781,2.446 C12.65,2.368 12.478,2.256 12.251,2.106 C11.468,1.558 10.502,1.267 9.416,1.267 M10.319,31.334 C10.4,31.334 10.483,31.326 10.567,31.311 C11.215,31.215 11.786,30.879 12.278,30.302 C12.769,29.727 13.183,29.018 13.52,28.178 C13.856,27.338 14.126,26.415 14.33,25.407 C14.534,24.399 14.696,23.421 14.815,22.472 C14.935,21.524 15.019,20.643 15.067,19.826 C15.116,19.011 15.151,18.375 15.175,17.919 C15.2,16.935 15.194,15.963 15.158,15.003 C15.122,14.043 15.061,13.149 14.977,12.32 C14.893,11.492 14.78,10.736 14.635,10.052 C14.492,9.368 14.335,8.811 14.168,8.379 C14.047,8.043 13.897,7.869 13.717,7.857 C13.538,7.845 13.28,7.767 12.944,7.623 C12.559,7.311 12.2,7.023 11.864,6.758 C11.576,6.543 11.288,6.326 11,6.11 C10.712,5.895 10.496,5.763 10.352,5.714 C10.105,5.646 9.873,5.611 9.656,5.611 C9.346,5.611 9.068,5.681 8.821,5.822 C8.401,6.063 8.053,6.452 7.778,6.992 C7.502,7.532 7.286,8.175 7.13,8.919 C6.973,9.663 6.866,10.448 6.805,11.276 C6.745,12.105 6.71,12.933 6.698,13.76 C6.685,14.588 6.698,15.351 6.733,16.046 C6.77,16.743 6.805,17.342 6.841,17.846 C6.878,18.351 6.895,18.674 6.895,18.818 C6.895,19.059 6.914,19.545 6.95,20.276 C6.985,21.008 7.046,21.848 7.13,22.796 C7.214,23.745 7.339,24.741 7.507,25.784 C7.675,26.829 7.891,27.77 8.155,28.61 C8.42,29.451 8.75,30.135 9.145,30.663 C9.481,31.109 9.872,31.334 10.319,31.334 M9.416,3.267 C10.087,3.267 10.663,3.435 11.143,3.771 C11.432,3.963 11.647,4.101 11.792,4.185 C11.936,4.269 12.073,4.329 12.206,4.364 C12.337,4.4 12.499,4.431 12.692,4.455 C12.883,4.479 13.16,4.526 13.52,4.598 C14.263,4.863 14.893,5.187 15.41,5.57 C15.925,5.955 16.399,6.422 16.832,6.975 C17.215,7.455 17.54,8.097 17.803,8.9 C18.067,9.705 18.272,10.605 18.416,11.601 C18.559,12.597 18.655,13.665 18.704,14.804 C18.752,15.944 18.763,17.103 18.739,18.278 C18.715,19.239 18.679,20.295 18.631,21.446 C18.583,22.598 18.475,23.751 18.307,24.903 C18.139,26.054 17.893,27.176 17.569,28.268 C17.246,29.361 16.801,30.333 16.237,31.184 C15.673,32.037 14.971,32.739 14.131,33.291 C13.292,33.842 12.272,34.143 11.071,34.19 C10.948,34.196 10.826,34.199 10.705,34.199 C9.806,34.199 8.944,34.04 8.12,33.722 C7.184,33.362 6.349,32.852 5.618,32.192 C4.885,31.533 4.28,30.753 3.799,29.852 C3.319,28.952 3.007,27.987 2.864,26.955 C2.719,25.659 2.569,24.327 2.414,22.959 C2.257,21.59 2.143,20.211 2.071,18.818 C2.023,17.931 2,16.928 2,15.813 C2,14.696 2.059,13.557 2.18,12.393 C2.299,11.229 2.509,10.101 2.809,9.008 C3.11,7.917 3.542,6.944 4.106,6.092 C4.669,5.241 5.383,4.557 6.248,4.041 C7.112,3.525 8.168,3.267 9.416,3.267" fill="#8E693F"/>
      <path d="M26.7,39.501 C26.365,39.42 26.07,39.277 25.817,39.073 C25.337,38.689 25.083,38.146 25.083,37.502 L25.089,37.321 C25.138,36.862 25.331,36.469 25.646,36.186 C25.867,35.982 26.148,35.814 26.478,35.688 C26.725,35.591 27.017,35.5 27.35,35.417 C27.59,35.356 27.826,35.278 28.076,35.174 C28.096,35.167 28.188,35.118 28.342,34.985 C28.482,34.861 28.621,34.715 28.752,34.546 C28.865,34.399 28.96,34.239 29.036,34.062 C29.102,33.91 29.143,33.76 29.156,33.625 C29.18,33.425 29.196,33.253 29.209,33.089 C29.219,32.94 29.223,32.777 29.223,32.605 C29.223,31.742 29.103,30.964 28.867,30.293 C28.601,29.545 28.326,28.849 28.05,28.224 L27.925,27.977 C27.576,27.212 27.191,26.535 26.762,25.931 C26.318,25.306 25.829,24.662 25.307,24.021 C24.779,23.372 24.237,22.705 23.685,22.02 C23.121,21.322 22.536,20.531 21.947,19.671 C21.483,19.002 21.064,18.251 20.705,17.44 C20.35,16.643 20.048,15.789 19.808,14.903 C19.572,14.034 19.382,13.129 19.244,12.217 C19.106,11.305 19.036,10.388 19.036,9.494 L19.036,8.702 C19.036,8.378 19.065,8.052 19.123,7.732 C19.219,6.901 19.426,6.044 19.731,5.249 C20.045,4.427 20.473,3.698 21.005,3.081 C21.556,2.444 22.235,1.94 23.023,1.582 C23.81,1.224 24.719,1.042 25.723,1.042 C26.364,1.042 27.075,1.122 27.834,1.278 C29.107,1.562 30.029,1.971 30.668,2.533 C31.405,3.183 31.762,3.823 31.762,4.49 C31.762,5.283 31.246,6.21 29.792,6.21 C29.202,6.21 28.578,6.048 27.884,5.716 C27.653,5.601 27.45,5.525 27.265,5.483 C27.075,5.44 26.907,5.418 26.767,5.418 C26.277,5.418 25.975,5.612 25.727,6.087 C25.368,6.774 25.132,7.641 25.026,8.662 C24.999,8.817 24.995,8.882 24.995,8.954 L24.995,9.386 C24.995,9.967 25.05,10.561 25.158,11.149 C25.274,11.767 25.417,12.369 25.585,12.937 C25.753,13.509 25.944,14.038 26.152,14.507 C26.357,14.97 26.565,15.362 26.771,15.671 C27.362,16.594 27.985,17.469 28.632,18.288 C29.303,19.14 29.968,19.978 30.626,20.804 C31.306,21.657 31.946,22.526 32.528,23.388 C33.13,24.28 33.664,25.215 34.115,26.165 C34.777,27.568 35.111,29.165 35.111,30.914 C35.111,32.042 34.951,33.145 34.636,34.19 C34.339,35.163 33.894,36.052 33.312,36.839 C32.699,37.666 31.899,38.314 30.936,38.767 C30.58,38.972 30.107,39.188 29.596,39.376 C29.074,39.569 28.52,39.708 27.951,39.788 L26.632,39.975 z" fill="#F7F4E2"/>
      <path d="M25.724,0.042 C24.576,0.042 23.528,0.254 22.61,0.671 C21.69,1.09 20.896,1.68 20.251,2.425 C19.641,3.133 19.153,3.962 18.797,4.892 C18.47,5.747 18.245,6.664 18.128,7.618 C18.067,7.977 18.037,8.34 18.037,8.703 L18.037,9.495 C18.037,10.438 18.111,11.405 18.256,12.368 C18.399,13.316 18.597,14.259 18.844,15.167 C19.097,16.101 19.416,17.003 19.794,17.851 C20.176,18.713 20.625,19.521 21.128,20.247 C21.727,21.118 22.328,21.931 22.908,22.649 C23.46,23.334 24.003,24.003 24.533,24.653 C25.04,25.277 25.516,25.902 25.946,26.508 C26.339,27.062 26.693,27.684 26.999,28.357 L27.014,28.392 L27.031,28.424 L27.154,28.671 C27.415,29.263 27.674,29.92 27.925,30.628 C28.123,31.19 28.224,31.855 28.224,32.605 C28.224,32.755 28.22,32.896 28.211,33.035 C28.201,33.164 28.186,33.319 28.166,33.479 C28.161,33.536 28.154,33.583 28.115,33.676 C28.076,33.765 28.022,33.855 27.956,33.942 C27.872,34.049 27.778,34.149 27.684,34.231 C27.665,34.249 27.647,34.264 27.629,34.278 C27.463,34.345 27.288,34.402 27.116,34.444 C26.727,34.542 26.401,34.645 26.109,34.758 C25.672,34.928 25.286,35.16 24.971,35.447 C24.476,35.896 24.172,36.507 24.095,37.215 L24.083,37.321 L24.083,37.431 L24.083,37.502 C24.083,38.446 24.478,39.283 25.194,39.855 C25.322,39.959 25.458,40.051 25.6,40.133 L25.454,41.152 L28.092,40.778 C28.731,40.688 29.354,40.532 29.944,40.313 C30.478,40.118 30.978,39.89 31.431,39.639 C32.515,39.117 33.418,38.375 34.116,37.435 C34.766,36.556 35.263,35.564 35.592,34.486 C35.937,33.34 36.112,32.139 36.112,30.914 C36.112,29.017 35.745,27.277 35.021,25.741 C34.547,24.741 33.988,23.764 33.357,22.829 C32.761,21.944 32.105,21.056 31.409,20.181 C30.751,19.357 30.088,18.521 29.42,17.671 C28.79,16.875 28.187,16.027 27.624,15.148 C27.429,14.856 27.248,14.514 27.066,14.103 C26.876,13.672 26.701,13.186 26.545,12.658 C26.387,12.12 26.251,11.55 26.141,10.964 C26.045,10.439 25.995,9.906 25.995,9.386 L25.995,8.955 L26.015,8.859 L26.021,8.766 C26.114,7.871 26.314,7.125 26.614,6.55 C26.653,6.477 26.683,6.438 26.698,6.419 C26.7,6.419 26.702,6.42 26.704,6.42 C26.716,6.42 26.738,6.418 26.768,6.418 C26.798,6.418 26.885,6.422 27.047,6.459 C27.117,6.476 27.243,6.514 27.421,6.603 C28.273,7.011 29.06,7.21 29.792,7.21 C31.833,7.21 32.763,5.8 32.763,4.49 C32.763,3.533 32.281,2.622 31.33,1.784 C30.561,1.106 29.494,0.623 28.066,0.306 C27.211,0.128 26.432,0.042 25.724,0.042 M25.724,2.042 C26.3,2.042 26.935,2.114 27.632,2.258 C28.712,2.498 29.503,2.84 30.007,3.284 C30.511,3.728 30.763,4.13 30.763,4.49 C30.763,4.97 30.44,5.21 29.792,5.21 C29.36,5.21 28.868,5.078 28.316,4.814 C28.028,4.67 27.751,4.569 27.488,4.509 C27.224,4.448 26.984,4.418 26.768,4.418 C25.904,4.418 25.261,4.82 24.841,5.624 C24.421,6.428 24.152,7.406 24.032,8.559 C24.007,8.679 23.995,8.811 23.995,8.955 L23.995,9.386 C23.995,10.035 24.056,10.682 24.175,11.33 C24.296,11.978 24.446,12.608 24.626,13.22 C24.806,13.832 25.009,14.396 25.238,14.912 C25.466,15.429 25.7,15.866 25.94,16.226 C26.539,17.163 27.175,18.056 27.848,18.909 C28.519,19.76 29.185,20.601 29.845,21.428 C30.505,22.257 31.124,23.097 31.7,23.948 C32.276,24.802 32.78,25.682 33.212,26.594 C33.812,27.866 34.112,29.307 34.112,30.914 C34.112,31.947 33.968,32.943 33.679,33.903 C33.415,34.766 33.026,35.546 32.509,36.243 C31.994,36.938 31.328,37.479 30.511,37.861 C30.128,38.078 29.707,38.271 29.251,38.438 C28.796,38.605 28.316,38.728 27.812,38.799 L27.848,38.547 C27.751,38.569 27.608,38.583 27.415,38.583 C27.007,38.583 26.683,38.486 26.444,38.294 C26.203,38.103 26.083,37.839 26.083,37.502 L26.083,37.431 C26.107,37.215 26.185,37.047 26.318,36.926 C26.45,36.806 26.624,36.703 26.839,36.62 C27.056,36.535 27.308,36.458 27.595,36.387 C27.884,36.314 28.171,36.218 28.46,36.098 C28.627,36.026 28.808,35.905 28.999,35.738 C29.192,35.57 29.371,35.378 29.54,35.162 C29.707,34.945 29.845,34.713 29.954,34.46 C30.062,34.208 30.128,33.963 30.152,33.722 C30.175,33.53 30.193,33.345 30.206,33.165 C30.218,32.985 30.224,32.799 30.224,32.605 C30.224,31.622 30.085,30.74 29.81,29.961 C29.534,29.181 29.251,28.466 28.964,27.819 L28.82,27.529 C28.46,26.739 28.046,26.013 27.578,25.352 C27.11,24.691 26.611,24.038 26.083,23.39 C25.556,22.743 25.015,22.076 24.464,21.393 C23.912,20.708 23.348,19.947 22.772,19.107 C22.339,18.483 21.955,17.792 21.62,17.036 C21.284,16.281 21.001,15.483 20.774,14.642 C20.545,13.802 20.366,12.944 20.234,12.068 C20.101,11.193 20.037,10.335 20.037,9.495 L20.037,8.703 C20.037,8.438 20.06,8.174 20.108,7.911 C20.203,7.095 20.39,6.326 20.665,5.606 C20.941,4.886 21.308,4.262 21.763,3.734 C22.22,3.206 22.777,2.792 23.438,2.492 C24.097,2.192 24.86,2.042 25.724,2.042" fill="#8E693F"/>
      <path d="M38.8,36.163 C38.031,36.163 37.288,35.961 36.591,35.562 C35.822,35.127 35.289,34.446 35.052,33.596 C34.982,33.362 34.871,32.858 34.803,31.431 C34.755,30.441 34.713,29.3 34.677,28.009 C34.64,26.72 34.616,25.35 34.605,23.903 C34.593,22.46 34.587,21.113 34.587,19.863 C34.587,18.729 34.593,17.741 34.606,16.895 C34.617,16.064 34.624,15.481 34.624,15.147 C34.624,12.437 34.66,9.655 34.732,6.877 L34.732,5.859 C34.732,5.27 34.815,4.722 34.979,4.229 C35.104,3.848 35.549,2.951 36.945,2.951 C37.519,2.951 38.154,3.108 38.885,3.433 C39.489,3.684 39.97,4.133 40.255,4.721 C40.472,5.176 40.643,5.716 40.779,6.376 C40.868,6.908 40.907,7.644 40.907,8.667 C40.907,9.588 40.89,10.637 40.853,11.812 C40.818,12.965 40.8,14.053 40.8,15.075 L40.8,18.819 C40.8,20.04 40.806,21.321 40.818,22.662 C40.829,23.996 40.858,25.301 40.907,26.574 C40.954,27.85 41.013,29.041 41.085,30.148 C41.154,31.222 41.258,32.118 41.393,32.812 C41.421,32.954 41.442,33.082 41.457,33.195 C41.475,33.342 41.484,33.478 41.484,33.614 C41.484,34.357 41.276,34.953 40.866,35.384 C40.49,35.778 40.027,36.022 39.488,36.109 C39.315,36.147 39.104,36.163 38.8,36.163" fill="#F7F4E2"/>
      <path d="M36.944,1.95 C35.522,1.95 34.432,2.687 34.027,3.921 C33.832,4.508 33.731,5.162 33.731,5.858 L33.731,6.876 C33.66,9.655 33.624,12.437 33.624,15.146 C33.624,15.477 33.617,16.056 33.605,16.882 C33.592,17.729 33.587,18.722 33.587,19.862 C33.587,21.115 33.592,22.465 33.604,23.911 C33.616,25.389 33.641,26.778 33.677,28.038 C33.712,29.314 33.755,30.473 33.804,31.48 C33.876,32.991 33.995,33.555 34.101,33.907 C34.398,34.974 35.094,35.863 36.1,36.434 C36.944,36.916 37.855,37.162 38.799,37.162 C39.164,37.162 39.434,37.141 39.673,37.092 C40.412,36.967 41.073,36.616 41.59,36.073 C41.998,35.644 42.483,34.869 42.483,33.614 C42.483,33.437 42.472,33.26 42.451,33.083 C42.431,32.933 42.406,32.783 42.374,32.619 C42.247,31.968 42.149,31.115 42.082,30.083 C42.012,29 41.953,27.808 41.905,26.537 C41.859,25.3 41.829,23.993 41.817,22.653 C41.805,21.315 41.799,20.037 41.799,18.818 L41.799,15.074 C41.799,14.057 41.817,12.97 41.852,11.842 C41.888,10.674 41.907,9.605 41.907,8.666 C41.907,7.574 41.864,6.806 41.773,6.253 L41.766,6.213 L41.758,6.174 C41.605,5.433 41.409,4.819 41.159,4.295 C40.762,3.473 40.103,2.856 39.248,2.5 C38.428,2.136 37.661,1.95 36.944,1.95 M36.944,3.95 C37.373,3.95 37.884,4.082 38.479,4.346 C38.883,4.514 39.174,4.784 39.354,5.156 C39.532,5.529 39.68,6.002 39.799,6.578 C39.871,7.01 39.907,7.706 39.907,8.666 C39.907,9.578 39.889,10.617 39.853,11.78 C39.817,12.945 39.799,14.043 39.799,15.074 L39.799,18.818 C39.799,20.042 39.805,21.326 39.817,22.67 C39.829,24.014 39.858,25.328 39.907,26.612 C39.955,27.897 40.014,29.096 40.087,30.212 C40.159,31.328 40.266,32.258 40.411,33.002 C40.434,33.122 40.453,33.231 40.465,33.326 C40.477,33.422 40.483,33.518 40.483,33.614 C40.483,34.094 40.369,34.454 40.141,34.694 C39.913,34.934 39.632,35.078 39.299,35.126 C39.204,35.151 39.038,35.162 38.799,35.162 C38.204,35.162 37.633,35.006 37.087,34.694 C36.539,34.383 36.182,33.926 36.015,33.326 C35.921,33.014 35.848,32.367 35.801,31.382 C35.754,30.399 35.712,29.264 35.676,27.981 C35.639,26.697 35.616,25.334 35.604,23.895 C35.592,22.454 35.587,21.11 35.587,19.862 C35.587,18.734 35.592,17.751 35.605,16.91 C35.617,16.071 35.624,15.483 35.624,15.146 C35.624,12.459 35.659,9.71 35.731,6.902 L35.731,5.858 C35.731,5.378 35.796,4.94 35.927,4.544 C36.057,4.148 36.397,3.95 36.944,3.95" fill="#8E693F"/>
      <path d="M68.022,33.37 C66.876,33.371 65.776,33.151 64.752,32.718 C63.048,31.998 61.562,30.864 60.333,29.349 C58.925,27.583 57.923,25.549 57.352,23.295 C56.787,21.078 56.589,18.795 56.765,16.51 C56.94,14.23 57.48,11.995 58.369,9.866 C59.269,7.712 60.498,5.848 62.023,4.324 C62.744,3.603 63.647,2.966 64.709,2.429 C65.753,1.9 66.871,1.508 68.032,1.262 C68.857,1.088 69.688,1 70.501,1 C70.846,1 71.189,1.016 71.532,1.047 C72.761,1.159 73.869,1.558 74.827,2.233 C75.381,2.616 75.756,3.073 75.934,3.587 C76.032,3.873 76.259,4.857 75.08,5.619 C74.829,5.801 74.48,5.908 74.087,5.908 C73.964,5.908 73.83,5.896 73.689,5.873 C73.386,5.822 73.036,5.753 72.643,5.664 C72.314,5.59 71.924,5.53 71.486,5.486 C71.392,5.476 71.297,5.472 71.198,5.472 C70.916,5.472 70.611,5.511 70.293,5.588 C69.858,5.695 69.368,5.915 68.834,6.243 C68.294,6.575 67.714,7.083 67.108,7.753 C66.117,8.834 65.342,10.121 64.802,11.586 C64.243,13.106 63.855,14.72 63.651,16.384 C63.445,18.118 63.445,19.867 63.651,21.578 C63.85,23.24 64.33,24.764 65.079,26.107 C65.615,27.059 66.263,27.71 67.004,28.037 C67.457,28.238 67.891,28.34 68.299,28.34 C68.544,28.34 68.789,28.303 69.026,28.23 L69.169,28.186 L69.244,28.186 C69.628,28.062 69.938,27.884 70.188,27.641 C70.496,27.343 70.753,26.979 70.954,26.56 C71.17,26.107 71.339,25.605 71.455,25.068 C71.576,24.506 71.66,23.916 71.705,23.317 C71.774,22.5 71.804,21.711 71.792,20.958 C71.786,20.562 71.778,20.187 71.771,19.834 C71.443,19.912 71.111,19.984 70.774,20.051 C70.354,20.136 69.9,20.179 69.426,20.179 C68.884,20.179 68.291,20.042 67.665,19.774 C66.889,19.43 66.43,18.824 66.36,18.063 C66.319,17.606 66.415,16.745 67.508,16.089 C67.911,15.868 68.371,15.726 68.947,15.635 C69.427,15.559 69.937,15.502 70.47,15.463 C70.99,15.426 71.49,15.402 71.974,15.389 C72.399,15.378 72.75,15.352 73.018,15.31 C73.78,15.209 74.386,15.141 74.856,15.104 C74.974,15.095 75.089,15.09 75.198,15.09 C75.695,15.09 76.132,15.186 76.495,15.376 C76.849,15.561 77.323,15.942 77.576,16.705 C77.722,17.143 77.821,17.73 77.876,18.496 C77.9,18.962 77.93,19.409 77.965,19.856 C78,20.287 78.038,20.662 78.084,20.979 C78.286,22.349 78.331,23.672 78.216,24.906 C78.096,26.199 77.742,27.394 77.162,28.459 C76.576,29.537 75.725,30.478 74.634,31.26 C73.569,32.023 72.203,32.622 70.573,33.036 C69.698,33.258 68.84,33.37 68.022,33.37" fill="#F7F4E2"/>
      <path d="M70.501,0 C69.619,0 68.719,0.095 67.827,0.283 C66.58,0.547 65.379,0.968 64.258,1.536 C63.102,2.121 62.112,2.82 61.317,3.616 C59.699,5.232 58.397,7.205 57.447,9.479 C56.517,11.708 55.952,14.046 55.769,16.433 C55.584,18.827 55.792,21.218 56.383,23.542 C56.99,25.933 58.055,28.094 59.547,29.965 C60.889,31.622 62.507,32.854 64.364,33.638 C65.51,34.124 66.742,34.37 68.022,34.37 C68.923,34.37 69.864,34.248 70.818,34.005 C72.571,33.559 74.051,32.909 75.219,32.071 C76.432,31.203 77.382,30.148 78.041,28.937 C78.686,27.752 79.079,26.427 79.212,24.999 C79.334,23.685 79.288,22.283 79.073,20.831 C79.033,20.554 78.997,20.208 78.963,19.777 C78.928,19.339 78.898,18.901 78.876,18.464 C78.814,17.574 78.698,16.905 78.522,16.381 C78.168,15.31 77.476,14.76 76.959,14.49 C76.451,14.224 75.859,14.09 75.198,14.09 C75.063,14.09 74.923,14.095 74.776,14.107 C74.291,14.145 73.679,14.213 72.907,14.316 C72.71,14.346 72.426,14.377 71.951,14.389 C71.438,14.403 70.917,14.429 70.399,14.465 C69.835,14.506 69.294,14.567 68.789,14.647 C68.1,14.756 67.535,14.934 67.063,15.191 L67.028,15.21 L66.994,15.231 C65.376,16.202 65.315,17.595 65.364,18.149 C65.467,19.276 66.153,20.197 67.248,20.683 C68.023,21.015 68.748,21.178 69.427,21.178 C69.9,21.178 70.359,21.14 70.793,21.065 C70.801,21.757 70.773,22.481 70.709,23.218 C70.667,23.796 70.589,24.34 70.478,24.858 C70.378,25.318 70.234,25.746 70.052,26.128 C69.901,26.444 69.718,26.704 69.494,26.92 C69.382,27.03 69.243,27.117 69.071,27.186 L69.021,27.186 L68.734,27.274 C68.59,27.318 68.447,27.339 68.299,27.339 C68.032,27.339 67.734,27.267 67.413,27.124 C66.87,26.884 66.378,26.376 65.949,25.614 C65.268,24.391 64.828,22.992 64.645,21.46 C64.448,19.825 64.448,18.156 64.645,16.498 C64.839,14.918 65.208,13.379 65.741,11.931 C66.235,10.589 66.941,9.413 67.839,8.435 C68.392,7.824 68.9,7.376 69.359,7.093 C69.802,6.821 70.198,6.641 70.533,6.559 C70.771,6.501 70.996,6.471 71.198,6.471 C71.263,6.471 71.326,6.474 71.389,6.48 C71.785,6.521 72.134,6.574 72.424,6.639 C72.836,6.733 73.206,6.806 73.526,6.859 C73.715,6.891 73.905,6.907 74.088,6.907 C74.666,6.907 75.207,6.745 75.656,6.437 C77.047,5.519 77.202,4.198 76.88,3.263 C76.629,2.54 76.127,1.916 75.388,1.405 C74.3,0.638 73.029,0.179 71.624,0.051 C71.252,0.017 70.875,0 70.501,0 M70.501,2 C70.816,2 71.129,2.014 71.442,2.042 C72.499,2.139 73.435,2.475 74.251,3.05 C74.634,3.315 74.881,3.603 74.989,3.915 C75.097,4.227 74.946,4.515 74.538,4.778 C74.418,4.864 74.269,4.907 74.088,4.907 C74.015,4.907 73.938,4.9 73.855,4.886 C73.567,4.838 73.236,4.773 72.864,4.688 C72.492,4.604 72.066,4.539 71.587,4.49 C71.459,4.478 71.33,4.471 71.198,4.471 C70.834,4.471 70.453,4.52 70.057,4.616 C69.517,4.749 68.935,5.007 68.311,5.39 C67.687,5.774 67.038,6.339 66.366,7.083 C65.286,8.259 64.452,9.645 63.864,11.24 C63.276,12.837 62.874,14.511 62.659,16.262 C62.442,18.086 62.442,19.898 62.659,21.698 C62.874,23.499 63.391,25.131 64.206,26.594 C64.855,27.747 65.652,28.533 66.601,28.952 C67.182,29.21 67.748,29.339 68.299,29.339 C68.645,29.339 68.985,29.289 69.319,29.186 L69.391,29.186 C69.99,29.018 70.489,28.743 70.885,28.358 C71.28,27.975 71.605,27.518 71.856,26.991 C72.108,26.463 72.3,25.893 72.433,25.28 C72.564,24.668 72.654,24.039 72.702,23.39 C72.774,22.551 72.805,21.735 72.792,20.942 C72.78,20.15 72.763,19.443 72.739,18.818 C72.562,18.785 72.388,18.769 72.218,18.769 C72.021,18.769 71.828,18.791 71.641,18.836 C71.292,18.921 70.938,18.999 70.579,19.07 C70.219,19.143 69.835,19.178 69.427,19.178 C69.019,19.178 68.563,19.07 68.059,18.854 C67.626,18.663 67.393,18.368 67.356,17.972 C67.321,17.576 67.542,17.234 68.022,16.946 C68.286,16.802 68.647,16.694 69.103,16.623 C69.558,16.55 70.038,16.497 70.542,16.46 C71.047,16.424 71.532,16.401 72.001,16.388 C72.469,16.376 72.858,16.347 73.171,16.298 C73.891,16.203 74.479,16.136 74.935,16.101 C75.026,16.093 75.114,16.09 75.198,16.09 C75.534,16.09 75.812,16.147 76.032,16.262 C76.308,16.406 76.507,16.658 76.626,17.019 C76.747,17.378 76.831,17.895 76.879,18.566 C76.902,19.022 76.933,19.479 76.969,19.935 C77.005,20.391 77.046,20.787 77.095,21.123 C77.286,22.418 77.329,23.649 77.221,24.813 C77.112,25.977 76.8,27.033 76.284,27.981 C75.769,28.928 75.024,29.75 74.053,30.446 C73.081,31.143 71.839,31.682 70.327,32.067 C69.529,32.269 68.761,32.37 68.022,32.37 C67.006,32.37 66.046,32.179 65.143,31.796 C63.583,31.137 62.238,30.11 61.11,28.718 C59.79,27.063 58.86,25.172 58.321,23.048 C57.78,20.924 57.595,18.771 57.763,16.586 C57.931,14.403 58.44,12.291 59.292,10.25 C60.145,8.211 61.29,6.47 62.73,5.03 C63.379,4.382 64.189,3.813 65.161,3.32 C66.133,2.829 67.159,2.469 68.239,2.24 C69,2.08 69.753,2 70.501,2" fill="#8E693F"/>
      <path d="M92.555,35.727 C92.368,35.727 92.165,35.713 91.947,35.686 C90.598,35.503 89.677,35.068 89.121,34.356 C88.59,33.673 88.355,32.682 88.406,31.326 L87.868,23.531 C87.846,23.33 87.83,22.981 87.83,22.526 L87.83,21.266 C87.83,20.858 87.82,20.484 87.797,20.144 C87.787,20.001 87.779,19.888 87.765,19.805 C87.73,19.759 87.655,19.668 87.51,19.524 C87.246,19.261 87.044,19.032 86.895,18.829 C86.71,18.614 86.537,18.387 86.378,18.147 C86.248,17.954 86.106,17.757 85.952,17.56 C85.647,17.118 85.405,16.751 85.194,16.417 C84.986,16.086 84.784,15.755 84.587,15.423 C84.392,15.095 83.949,14.332 83.91,14.269 C83.898,14.759 83.891,15.263 83.891,15.776 C83.891,16.76 83.914,17.78 83.961,18.809 L84.178,23.415 C84.248,24.915 84.391,26.422 84.601,27.892 C84.648,28.248 84.723,28.682 84.826,29.21 C84.956,29.878 84.977,30.504 84.886,31.072 C84.732,32.115 84.181,32.554 83.746,32.737 C83.44,32.864 83.116,32.927 82.777,32.927 C82.589,32.927 82.394,32.908 82.191,32.867 C81.721,32.774 81.271,32.597 80.856,32.343 C80.384,32.052 80.08,31.766 79.897,31.443 C79.742,31.17 79.625,30.757 79.535,29.549 C79.474,28.721 79.426,27.71 79.389,26.517 C79.353,25.337 79.323,24.061 79.298,22.688 L79.227,18.729 C79.202,17.606 79.179,16.581 79.155,15.659 C79.13,14.733 79.096,14.042 79.05,13.547 L78.939,9.848 C78.939,9.368 78.907,8.921 78.842,8.489 C78.759,7.936 78.739,7.424 78.782,6.97 C78.837,6.389 79.044,5.888 79.395,5.478 C79.797,5.008 80.439,4.752 81.301,4.715 L81.43,4.711 C81.947,4.711 82.461,4.888 82.96,5.237 C83.378,5.529 83.793,5.896 84.231,6.36 C84.451,6.581 84.731,6.94 85.07,7.439 C85.372,7.89 85.705,8.392 86.068,8.947 C86.432,9.505 86.806,10.091 87.194,10.708 L87.839,11.741 C87.821,11.464 87.6,8.506 87.6,8.506 C87.537,7.674 87.518,6.857 87.544,6.078 C87.543,5.827 87.549,5.562 87.563,5.317 C87.582,4.935 87.681,4.585 87.856,4.281 C88.033,3.971 88.291,3.707 88.623,3.499 C88.921,3.313 89.284,3.177 89.738,3.081 C89.906,3.052 90.028,3.041 90.15,3.041 C90.537,3.041 90.919,3.142 91.286,3.34 C91.624,3.524 92.041,3.803 92.563,4.194 L92.64,4.252 L92.705,4.324 C93.049,4.704 93.332,5.278 93.57,6.078 C93.772,6.759 93.946,7.566 94.085,8.478 C94.218,9.351 94.33,10.311 94.417,11.335 C94.501,12.344 94.569,13.321 94.618,14.267 C94.665,15.21 94.701,16.076 94.726,16.861 C94.749,17.631 94.774,18.228 94.797,18.654 L95.194,30.593 C95.218,31.25 95.231,31.857 95.231,32.409 C95.231,33.064 95.144,33.633 94.971,34.103 C94.757,34.685 94.377,35.142 93.871,35.424 C93.515,35.624 93.071,35.727 92.555,35.727" fill="#F7F4E2"/>
      <path d="M90.149,2.041 C89.972,2.041 89.794,2.056 89.618,2.085 L89.573,2.093 L89.528,2.102 C88.961,2.224 88.493,2.402 88.098,2.647 C87.619,2.948 87.247,3.33 86.986,3.786 C86.734,4.225 86.59,4.725 86.563,5.27 C86.549,5.514 86.543,5.786 86.543,6.077 C86.524,6.659 86.53,7.26 86.558,7.873 C86.325,7.518 86.105,7.188 85.9,6.884 C85.526,6.332 85.222,5.942 84.941,5.656 C84.462,5.151 84.002,4.746 83.534,4.417 C82.863,3.948 82.155,3.711 81.429,3.711 C81.364,3.711 81.298,3.713 81.234,3.717 C80.095,3.77 79.221,4.143 78.635,4.827 C78.154,5.388 77.861,6.095 77.785,6.871 C77.734,7.411 77.757,8.004 77.853,8.64 C77.909,9.019 77.938,9.417 77.938,9.818 L77.938,9.848 L77.939,9.877 L78.046,13.513 L78.048,13.576 L78.054,13.638 C78.097,14.105 78.131,14.793 78.154,15.685 C78.179,16.606 78.202,17.629 78.227,18.753 L78.23,18.953 L78.298,22.705 C78.322,24.083 78.353,25.365 78.389,26.549 C78.427,27.786 78.476,28.792 78.538,29.622 C78.629,30.861 78.758,31.469 79.031,31.943 C79.295,32.411 79.709,32.812 80.327,33.191 C80.849,33.513 81.409,33.731 81.999,33.848 C82.256,33.899 82.52,33.927 82.776,33.927 C83.247,33.927 83.699,33.839 84.123,33.663 C84.682,33.427 85.64,32.802 85.877,31.208 C85.982,30.545 85.96,29.802 85.807,29.021 C85.707,28.505 85.634,28.087 85.592,27.771 C85.384,26.312 85.245,24.837 85.176,23.368 L85.049,20.677 L84.96,18.76 C84.945,18.449 84.933,18.139 84.923,17.83 C84.979,17.911 85.036,17.995 85.094,18.08 L85.127,18.127 L85.162,18.172 C85.3,18.351 85.429,18.529 85.548,18.707 C85.718,18.962 85.909,19.215 86.112,19.453 C86.288,19.688 86.514,19.942 86.8,20.229 C86.82,20.535 86.83,20.885 86.83,21.266 L86.83,22.525 C86.83,22.981 86.844,23.345 86.873,23.634 L87.403,31.344 C87.353,32.917 87.658,34.104 88.333,34.971 C89.057,35.898 90.191,36.457 91.8,36.675 C92.077,36.71 92.324,36.728 92.554,36.728 C93.244,36.728 93.853,36.582 94.364,36.294 C95.076,35.897 95.612,35.258 95.91,34.446 C96.126,33.858 96.23,33.191 96.23,32.409 C96.23,31.856 96.217,31.25 96.193,30.554 L95.797,18.644 C95.771,18.178 95.748,17.59 95.725,16.832 C95.701,16.038 95.664,15.166 95.615,14.216 C95.567,13.283 95.5,12.287 95.414,11.254 C95.324,10.204 95.21,9.221 95.074,8.328 C94.924,7.356 94.746,6.527 94.527,5.792 C94.243,4.833 93.899,4.153 93.446,3.652 L93.316,3.509 L93.162,3.393 C92.601,2.973 92.144,2.669 91.766,2.463 C91.247,2.182 90.705,2.041 90.149,2.041 M90.149,4.041 C90.37,4.041 90.589,4.101 90.81,4.22 C91.098,4.376 91.482,4.634 91.962,4.994 C92.202,5.258 92.418,5.714 92.61,6.362 C92.802,7.01 92.963,7.766 93.096,8.63 C93.228,9.494 93.336,10.424 93.42,11.42 C93.503,12.416 93.57,13.382 93.618,14.318 C93.666,15.254 93.702,16.112 93.726,16.892 C93.75,17.672 93.774,18.278 93.798,18.71 L94.194,30.626 C94.217,31.274 94.23,31.868 94.23,32.409 C94.23,32.947 94.164,33.398 94.032,33.758 C93.9,34.118 93.684,34.383 93.384,34.55 C93.174,34.668 92.898,34.728 92.554,34.728 C92.406,34.728 92.244,34.715 92.07,34.694 C91.013,34.55 90.294,34.232 89.91,33.741 C89.526,33.249 89.358,32.438 89.406,31.311 L88.866,23.462 C88.842,23.247 88.83,22.934 88.83,22.525 L88.83,21.266 C88.83,20.834 88.818,20.438 88.795,20.078 C88.77,19.719 88.734,19.49 88.686,19.394 C88.614,19.25 88.458,19.059 88.218,18.818 C87.978,18.578 87.797,18.375 87.678,18.206 C87.51,18.014 87.354,17.81 87.211,17.594 C87.066,17.378 86.91,17.163 86.742,16.946 C86.478,16.562 86.244,16.208 86.04,15.884 C85.836,15.56 85.638,15.236 85.446,14.912 C85.253,14.588 85.068,14.27 84.888,13.958 C84.708,13.646 84.498,13.322 84.258,12.986 C84.114,12.77 83.91,12.47 83.646,12.086 C83.381,11.702 83.178,11.414 83.034,11.222 C82.986,11.294 82.967,11.486 82.98,11.798 C82.992,12.11 82.986,12.482 82.962,12.914 C82.914,13.826 82.89,14.78 82.89,15.776 C82.89,16.772 82.914,17.799 82.962,18.854 C83.034,20.39 83.106,21.927 83.178,23.462 C83.251,24.998 83.394,26.521 83.61,28.033 C83.658,28.396 83.736,28.851 83.844,29.403 C83.952,29.955 83.97,30.459 83.898,30.914 C83.827,31.396 83.646,31.693 83.358,31.814 C83.178,31.889 82.984,31.927 82.776,31.927 C82.651,31.927 82.521,31.913 82.386,31.886 C82.026,31.814 81.69,31.682 81.378,31.49 C81.066,31.299 80.862,31.118 80.766,30.949 C80.67,30.782 80.592,30.29 80.532,29.476 C80.471,28.658 80.424,27.663 80.388,26.486 C80.352,25.311 80.322,24.038 80.297,22.67 C80.274,21.302 80.25,19.983 80.226,18.71 C80.202,17.582 80.178,16.556 80.154,15.632 C80.129,14.708 80.094,13.982 80.045,13.454 L79.938,9.818 C79.938,9.314 79.902,8.822 79.831,8.342 C79.758,7.862 79.741,7.436 79.776,7.064 C79.812,6.692 79.938,6.38 80.154,6.128 C80.37,5.876 80.766,5.738 81.342,5.714 C81.371,5.712 81.4,5.711 81.429,5.711 C81.738,5.711 82.057,5.825 82.386,6.056 C82.747,6.308 83.118,6.638 83.503,7.046 C83.694,7.238 83.94,7.556 84.241,8 C84.54,8.444 84.87,8.942 85.23,9.494 C85.59,10.046 85.962,10.628 86.346,11.24 C86.73,11.852 87.089,12.428 87.426,12.968 C87.762,13.508 88.062,13.982 88.326,14.39 C88.589,14.798 88.782,15.074 88.902,15.218 C88.95,14.57 88.956,13.874 88.92,13.13 C88.884,12.386 88.836,11.618 88.776,10.826 C88.715,10.034 88.656,9.236 88.596,8.432 C88.536,7.628 88.518,6.854 88.543,6.11 C88.543,5.846 88.547,5.6 88.56,5.372 C88.572,5.144 88.626,4.946 88.722,4.778 C88.818,4.61 88.962,4.466 89.154,4.346 C89.346,4.226 89.61,4.13 89.946,4.058 C90.013,4.047 90.082,4.041 90.149,4.041" fill="#8E693F"/>
      <path d="M99.638,36.163 C98.869,36.163 98.126,35.961 97.429,35.562 C96.659,35.126 96.127,34.445 95.891,33.596 C95.814,33.344 95.71,32.849 95.641,31.432 C95.593,30.442 95.552,29.301 95.515,28.01 C95.479,26.719 95.455,25.35 95.444,23.903 C95.432,22.46 95.426,21.113 95.426,19.863 C95.426,18.729 95.432,17.742 95.444,16.896 C95.455,16.064 95.462,15.481 95.462,15.147 C95.462,12.476 95.498,9.693 95.57,6.877 L95.57,5.859 C95.57,5.274 95.653,4.726 95.817,4.231 C95.944,3.846 96.39,2.951 97.784,2.951 C98.357,2.951 98.992,3.108 99.723,3.432 C100.329,3.684 100.811,4.134 101.094,4.723 C101.308,5.172 101.484,5.727 101.618,6.376 C101.707,6.908 101.746,7.644 101.746,8.667 C101.746,9.588 101.728,10.637 101.692,11.812 C101.656,12.965 101.638,14.053 101.638,15.075 L101.638,18.819 C101.638,20.04 101.644,21.321 101.656,22.662 C101.668,23.995 101.698,25.301 101.745,26.574 C101.793,27.85 101.852,29.041 101.924,30.148 C101.993,31.222 102.097,32.118 102.232,32.812 C102.259,32.954 102.281,33.082 102.295,33.195 C102.313,33.342 102.322,33.478 102.322,33.614 C102.322,34.357 102.114,34.953 101.704,35.384 C101.328,35.779 100.866,36.023 100.326,36.109 C100.154,36.147 99.943,36.163 99.638,36.163" fill="#F7F4E2"/>
      <path d="M97.783,1.95 C96.364,1.95 95.273,2.685 94.866,3.917 C94.669,4.513 94.569,5.167 94.569,5.858 L94.569,6.877 C94.498,9.693 94.462,12.475 94.462,15.146 C94.462,15.477 94.455,16.056 94.443,16.882 C94.431,17.731 94.426,18.723 94.426,19.862 C94.426,21.115 94.431,22.465 94.443,23.911 C94.455,25.373 94.479,26.762 94.515,28.037 C94.554,29.381 94.595,30.507 94.641,31.48 C94.716,32.996 94.834,33.558 94.939,33.907 C95.236,34.973 95.93,35.862 96.937,36.433 C97.783,36.916 98.693,37.162 99.637,37.162 C100.003,37.162 100.272,37.141 100.512,37.092 C101.25,36.967 101.912,36.616 102.429,36.073 C102.836,35.644 103.321,34.869 103.321,33.614 C103.321,33.437 103.31,33.26 103.289,33.083 C103.268,32.932 103.245,32.783 103.213,32.619 C103.087,31.968 102.988,31.115 102.922,30.083 C102.851,29 102.792,27.808 102.745,26.537 C102.698,25.312 102.668,24.004 102.655,22.652 C102.643,21.315 102.637,20.037 102.637,18.818 L102.637,15.074 C102.637,14.057 102.655,12.97 102.69,11.842 C102.727,10.653 102.746,9.584 102.746,8.666 C102.746,7.574 102.703,6.806 102.612,6.253 L102.605,6.213 L102.597,6.174 C102.444,5.435 102.248,4.821 101.997,4.295 C101.603,3.475 100.944,2.857 100.088,2.5 C99.265,2.136 98.499,1.95 97.783,1.95 M97.783,3.95 C98.212,3.95 98.722,4.082 99.318,4.346 C99.722,4.514 100.013,4.784 100.192,5.156 C100.37,5.529 100.519,6.002 100.638,6.578 C100.71,7.01 100.746,7.706 100.746,8.666 C100.746,9.578 100.727,10.617 100.691,11.78 C100.655,12.945 100.637,14.043 100.637,15.074 L100.637,18.818 C100.637,20.042 100.643,21.326 100.655,22.67 C100.668,24.014 100.697,25.328 100.746,26.612 C100.794,27.897 100.853,29.096 100.926,30.212 C100.998,31.328 101.105,32.258 101.25,33.002 C101.273,33.122 101.291,33.231 101.304,33.326 C101.315,33.422 101.321,33.518 101.321,33.614 C101.321,34.094 101.207,34.454 100.979,34.694 C100.751,34.934 100.471,35.078 100.138,35.126 C100.043,35.151 99.876,35.162 99.637,35.162 C99.043,35.162 98.471,35.006 97.925,34.694 C97.378,34.383 97.02,33.926 96.853,33.326 C96.759,33.014 96.687,32.367 96.639,31.382 C96.592,30.399 96.551,29.264 96.514,27.981 C96.478,26.697 96.455,25.334 96.443,23.895 C96.431,22.454 96.426,21.11 96.426,19.862 C96.426,18.734 96.431,17.751 96.443,16.91 C96.455,16.071 96.462,15.483 96.462,15.146 C96.462,12.459 96.498,9.71 96.569,6.902 L96.569,5.858 C96.569,5.378 96.635,4.94 96.765,4.544 C96.896,4.148 97.235,3.95 97.783,3.95" fill="#8E693F"/>
      <path d="M125.837,34.182 C125.445,34.182 125.187,34.165 124.996,34.128 C123.052,33.927 121.347,33.205 120.017,31.996 C118.743,30.841 117.723,29.414 116.985,27.756 C116.268,26.146 115.758,24.37 115.471,22.479 C115.189,20.628 115.045,18.815 115.045,17.09 C115.045,15.573 115.12,14.176 115.268,12.94 C115.419,11.812 115.638,10.684 115.922,9.571 C116.216,8.422 116.624,7.334 117.136,6.338 C117.668,5.299 118.377,4.374 119.243,3.588 C120.127,2.785 121.228,2.174 122.516,1.772 C122.932,1.644 123.404,1.582 123.965,1.582 C124.935,1.582 125.894,1.778 126.816,2.163 C127.808,2.578 128.509,3.093 128.96,3.737 C129.35,4.302 129.537,4.806 129.537,5.282 C129.537,6.167 128.889,6.786 127.961,6.786 C127.697,6.786 127.418,6.739 127.112,6.642 L126.875,6.642 L126.725,6.514 C126.481,6.435 126.195,6.353 125.869,6.267 C125.546,6.182 125.233,6.138 124.938,6.138 C124.753,6.138 124.685,6.165 124.684,6.165 C124.135,6.413 123.665,6.848 123.265,7.487 C122.811,8.212 122.441,9.044 122.169,9.959 C121.885,10.915 121.679,11.908 121.556,12.91 C121.43,13.929 121.365,14.862 121.365,15.686 C121.365,15.932 121.37,16.161 121.382,16.373 C121.392,16.574 121.408,16.759 121.43,16.928 C121.529,19.429 121.712,21.444 121.981,23.004 C122.242,24.534 122.566,25.769 122.945,26.679 C123.195,27.305 123.465,27.786 123.752,28.12 C124.038,28.454 124.322,28.704 124.595,28.863 C124.858,29.015 125.12,29.111 125.392,29.151 C125.738,29.204 126.093,29.231 126.449,29.231 C126.693,29.231 126.921,29.226 127.132,29.214 C127.381,29.201 127.62,29.194 127.854,29.194 C128.329,29.194 128.797,29.245 129.243,29.345 C129.816,29.475 130.322,29.775 130.748,30.237 L131.057,30.572 L131.007,31.025 C130.933,31.694 130.655,32.262 130.184,32.715 C129.796,33.085 129.342,33.386 128.832,33.611 C128.348,33.826 127.821,33.978 127.268,34.063 C126.756,34.142 126.274,34.182 125.837,34.182" fill="#F7F4E2"/>
      <path d="M123.965,0.583 C123.304,0.583 122.735,0.659 122.227,0.815 C120.79,1.264 119.563,1.947 118.57,2.849 C117.615,3.715 116.833,4.736 116.245,5.883 C115.7,6.945 115.266,8.103 114.953,9.323 C114.659,10.475 114.433,11.642 114.278,12.794 C114.122,14.098 114.045,15.534 114.045,17.091 C114.045,18.866 114.193,20.73 114.482,22.631 C114.782,24.609 115.319,26.473 116.073,28.165 C116.866,29.949 117.968,31.488 119.346,32.738 C120.819,34.078 122.694,34.884 124.914,35.129 C125.152,35.166 125.436,35.183 125.837,35.183 C126.325,35.183 126.859,35.139 127.421,35.052 C128.061,34.953 128.672,34.775 129.238,34.525 C129.852,34.255 130.402,33.891 130.872,33.441 C131.513,32.826 131.902,32.03 132.001,31.136 L132.101,30.229 L131.484,29.56 C130.917,28.945 130.238,28.546 129.465,28.371 C128.944,28.254 128.403,28.194 127.854,28.194 C127.604,28.194 127.348,28.202 127.085,28.216 C126.883,28.227 126.673,28.231 126.449,28.231 C126.144,28.231 125.84,28.209 125.546,28.164 C125.396,28.141 125.248,28.086 125.091,27.995 C124.977,27.929 124.777,27.78 124.511,27.47 C124.363,27.298 124.133,26.958 123.879,26.321 C123.519,25.455 123.216,24.292 122.967,22.837 C122.705,21.317 122.527,19.347 122.437,16.978 L122.433,16.89 L122.422,16.802 C122.403,16.656 122.389,16.496 122.38,16.322 C122.37,16.126 122.365,15.915 122.365,15.687 C122.365,14.904 122.427,14.012 122.548,13.036 C122.665,12.085 122.86,11.147 123.128,10.245 C123.374,9.416 123.705,8.667 124.111,8.019 C124.368,7.61 124.651,7.322 124.972,7.141 C125.194,7.145 125.399,7.177 125.614,7.234 C125.95,7.323 126.245,7.409 126.492,7.49 C126.571,7.522 126.653,7.55 126.735,7.572 C127.168,7.716 127.57,7.787 127.961,7.787 C129.454,7.787 130.537,6.733 130.537,5.283 C130.537,4.597 130.292,3.908 129.787,3.176 C129.217,2.36 128.374,1.731 127.202,1.242 C126.156,0.805 125.068,0.583 123.965,0.583 M123.965,2.583 C124.805,2.583 125.627,2.751 126.431,3.087 C127.236,3.423 127.805,3.831 128.141,4.311 C128.405,4.695 128.537,5.019 128.537,5.283 C128.537,5.619 128.345,5.787 127.961,5.787 C127.769,5.787 127.541,5.739 127.278,5.643 C127.253,5.643 127.236,5.637 127.223,5.625 C127.211,5.613 127.193,5.607 127.169,5.607 C126.881,5.511 126.533,5.409 126.125,5.301 C125.717,5.193 125.32,5.139 124.938,5.139 C124.673,5.139 124.457,5.175 124.289,5.247 C123.545,5.583 122.921,6.153 122.417,6.957 C121.913,7.761 121.511,8.667 121.211,9.675 C120.911,10.683 120.694,11.721 120.564,12.789 C120.431,13.857 120.365,14.823 120.365,15.687 C120.365,15.951 120.371,16.197 120.383,16.425 C120.395,16.653 120.413,16.863 120.438,17.055 C120.532,19.527 120.719,21.567 120.995,23.175 C121.271,24.783 121.612,26.079 122.022,27.063 C122.309,27.782 122.633,28.353 122.993,28.772 C123.354,29.192 123.719,29.511 124.091,29.728 C124.463,29.942 124.847,30.081 125.243,30.141 C125.639,30.201 126.041,30.231 126.449,30.231 C126.713,30.231 126.959,30.226 127.188,30.213 C127.415,30.201 127.637,30.194 127.854,30.194 C128.261,30.194 128.651,30.237 129.024,30.321 C129.395,30.405 129.725,30.603 130.013,30.915 C129.965,31.347 129.791,31.707 129.491,31.995 C129.191,32.282 128.837,32.517 128.429,32.696 C128.021,32.877 127.583,33.003 127.115,33.075 C126.648,33.147 126.221,33.183 125.837,33.183 C125.525,33.183 125.309,33.171 125.19,33.147 C123.365,32.955 121.864,32.325 120.69,31.257 C119.513,30.189 118.583,28.888 117.9,27.351 C117.215,25.815 116.735,24.142 116.459,22.329 C116.183,20.517 116.045,18.771 116.045,17.091 C116.045,15.603 116.117,14.259 116.261,13.059 C116.405,11.979 116.615,10.899 116.891,9.819 C117.167,8.739 117.545,7.731 118.026,6.795 C118.505,5.859 119.135,5.037 119.915,4.329 C120.694,3.621 121.661,3.087 122.814,2.727 C123.125,2.631 123.509,2.583 123.965,2.583" fill="#8E693F"/>
      <path d="M134.701,36.163 C133.932,36.163 133.189,35.961 132.492,35.562 C131.722,35.126 131.19,34.445 130.954,33.596 C130.877,33.344 130.773,32.849 130.704,31.432 C130.656,30.442 130.615,29.301 130.578,28.01 C130.542,26.719 130.518,25.35 130.507,23.903 C130.495,22.46 130.489,21.113 130.489,19.863 C130.489,18.729 130.495,17.742 130.507,16.896 C130.518,16.064 130.525,15.481 130.525,15.147 C130.525,12.476 130.561,9.693 130.633,6.877 L130.633,5.859 C130.633,5.274 130.716,4.726 130.88,4.231 C131.007,3.846 131.453,2.951 132.847,2.951 C133.42,2.951 134.055,3.108 134.786,3.432 C135.392,3.684 135.874,4.134 136.157,4.723 C136.371,5.172 136.547,5.727 136.681,6.376 C136.77,6.908 136.809,7.644 136.809,8.667 C136.809,9.588 136.791,10.637 136.755,11.812 C136.719,12.965 136.701,14.053 136.701,15.075 L136.701,18.819 C136.701,20.04 136.707,21.321 136.719,22.662 C136.731,23.995 136.761,25.301 136.808,26.574 C136.856,27.85 136.915,29.041 136.987,30.148 C137.056,31.222 137.16,32.118 137.295,32.812 C137.322,32.954 137.344,33.082 137.358,33.195 C137.376,33.342 137.385,33.478 137.385,33.614 C137.385,34.357 137.177,34.953 136.767,35.384 C136.391,35.779 135.929,36.023 135.389,36.109 C135.217,36.147 135.006,36.163 134.701,36.163" fill="#F7F4E2"/>
      <path d="M132.847,1.95 C131.428,1.95 130.337,2.685 129.93,3.917 C129.733,4.513 129.633,5.167 129.633,5.858 L129.633,6.877 C129.562,9.693 129.526,12.475 129.526,15.146 C129.526,15.477 129.519,16.056 129.507,16.882 C129.495,17.731 129.49,18.723 129.49,19.862 C129.49,21.115 129.495,22.465 129.507,23.911 C129.519,25.373 129.543,26.762 129.579,28.037 C129.618,29.381 129.659,30.507 129.705,31.48 C129.78,32.996 129.898,33.558 130.003,33.907 C130.3,34.973 130.994,35.862 132.001,36.433 C132.847,36.916 133.757,37.162 134.701,37.162 C135.066,37.162 135.336,37.141 135.576,37.092 C136.314,36.967 136.976,36.616 137.493,36.073 C137.9,35.644 138.385,34.869 138.385,33.614 C138.385,33.437 138.374,33.26 138.353,33.083 C138.332,32.932 138.309,32.783 138.277,32.619 C138.151,31.968 138.052,31.115 137.986,30.083 C137.915,29 137.856,27.808 137.809,26.537 C137.762,25.312 137.732,24.004 137.719,22.652 C137.707,21.315 137.701,20.037 137.701,18.818 L137.701,15.074 C137.701,14.057 137.719,12.97 137.754,11.842 C137.791,10.653 137.81,9.584 137.81,8.666 C137.81,7.574 137.767,6.806 137.676,6.253 L137.669,6.213 L137.661,6.174 C137.508,5.435 137.312,4.821 137.061,4.295 C136.667,3.475 136.008,2.857 135.152,2.5 C134.329,2.136 133.563,1.95 132.847,1.95 M132.847,3.95 C133.276,3.95 133.786,4.082 134.382,4.346 C134.786,4.514 135.077,4.784 135.256,5.156 C135.434,5.529 135.583,6.002 135.702,6.578 C135.774,7.01 135.81,7.706 135.81,8.666 C135.81,9.578 135.791,10.617 135.755,11.78 C135.719,12.945 135.701,14.043 135.701,15.074 L135.701,18.818 C135.701,20.042 135.707,21.326 135.719,22.67 C135.732,24.014 135.761,25.328 135.81,26.612 C135.858,27.897 135.917,29.096 135.99,30.212 C136.062,31.328 136.169,32.258 136.314,33.002 C136.337,33.122 136.355,33.231 136.368,33.326 C136.379,33.422 136.385,33.518 136.385,33.614 C136.385,34.094 136.271,34.454 136.043,34.694 C135.815,34.934 135.535,35.078 135.202,35.126 C135.107,35.151 134.94,35.162 134.701,35.162 C134.107,35.162 133.535,35.006 132.989,34.694 C132.442,34.383 132.084,33.926 131.917,33.326 C131.823,33.014 131.751,32.367 131.703,31.382 C131.656,30.399 131.615,29.264 131.578,27.981 C131.542,26.697 131.519,25.334 131.507,23.895 C131.495,22.454 131.49,21.11 131.49,19.862 C131.49,18.734 131.495,17.751 131.507,16.91 C131.519,16.071 131.526,15.483 131.526,15.146 C131.526,12.459 131.562,9.71 131.633,6.902 L131.633,5.858 C131.633,5.378 131.699,4.94 131.829,4.544 C131.96,4.148 132.299,3.95 132.847,3.95" fill="#8E693F"/>
      <path d="M144.949,7.095 C144.91,7.138 144.865,7.195 144.813,7.267 C144.54,7.652 144.277,8.175 144.034,8.821 C143.773,9.513 143.531,10.316 143.314,11.207 C143.095,12.105 142.907,13.047 142.754,14.008 C142.6,14.977 142.47,15.928 142.364,16.862 C142.308,17.348 142.268,17.809 142.242,18.241 C142.704,18.219 143.211,18.187 143.762,18.146 C144.408,18.098 145.03,18.05 145.629,18.002 C145.777,17.99 145.906,17.979 146.018,17.968 C146.042,17.621 146.063,17.149 146.077,16.51 C146.1,15.442 146.076,14.276 146.007,13.043 C145.958,12.24 145.887,11.423 145.796,10.616 C145.704,9.819 145.583,9.093 145.436,8.46 C145.303,7.887 145.138,7.426 144.949,7.095 M150.077,36.347 C149.93,36.347 149.779,36.338 149.623,36.315 C148.907,36.218 148.275,36.034 147.746,35.769 C147.187,35.491 146.794,34.914 146.545,34.006 C146.362,33.342 146.219,32.545 146.118,31.637 C146.019,30.741 145.957,29.767 145.932,28.742 C145.908,27.726 145.896,26.735 145.896,25.766 L145.896,22.321 C145.266,22.357 144.634,22.398 143.998,22.443 C143.321,22.493 142.663,22.531 142.031,22.557 C142.029,22.71 142.028,22.873 142.028,23.049 C142.028,23.689 142.022,24.397 142.011,25.171 L141.974,27.51 C141.962,28.309 141.944,29.037 141.92,29.691 C141.895,30.137 141.878,30.497 141.866,30.792 C141.85,31.158 141.813,31.469 141.753,31.744 C141.667,32.13 141.503,32.46 141.263,32.722 C141.02,32.989 140.687,33.187 140.272,33.312 C139.973,33.424 139.651,33.487 139.344,33.487 C138.883,33.487 138.467,33.338 138.141,33.056 C137.716,32.69 137.426,32.183 137.282,31.552 C137.167,31.053 137.116,30.503 137.131,29.917 C137.142,29.424 137.148,29 137.148,28.647 C137.148,28.5 137.203,25.264 137.203,25.264 L137.238,22.747 C137.251,21.884 137.269,21.159 137.294,20.576 C137.316,19.561 137.378,18.416 137.475,17.191 C137.573,15.968 137.721,14.713 137.916,13.463 C138.114,12.19 138.403,10.916 138.774,9.676 C139.156,8.406 139.658,7.221 140.268,6.155 C140.587,5.597 140.968,5.056 141.4,4.546 C141.834,4.033 142.317,3.563 142.837,3.15 C143.369,2.727 143.938,2.38 144.53,2.118 C145.173,1.834 145.823,1.691 146.465,1.691 L146.568,1.689 C147.511,1.689 148.353,2 149.074,2.613 C149.738,3.179 150.31,3.93 150.776,4.848 C151.215,5.712 151.58,6.721 151.862,7.847 C152.135,8.938 152.347,10.066 152.496,11.201 C152.667,12.396 152.773,13.785 152.81,15.321 C152.846,16.829 152.865,18.378 152.865,19.97 C152.865,21.037 152.846,22.151 152.81,23.313 C152.774,24.459 152.751,25.616 152.738,26.785 L152.703,30.276 C152.69,31.418 152.696,32.498 152.72,33.519 C152.785,34.034 152.777,34.361 152.686,34.634 C152.591,34.926 152.386,35.192 151.929,35.611 C151.458,36.083 150.806,36.347 150.077,36.347" fill="#F7F4E2"/>
      <path d="M143.336,17.173 C143.343,17.108 143.351,17.042 143.358,16.975 C143.462,16.06 143.591,15.114 143.742,14.164 C143.891,13.23 144.073,12.315 144.286,11.444 C144.415,10.911 144.554,10.413 144.7,9.954 C144.737,10.203 144.772,10.463 144.802,10.731 C144.892,11.517 144.961,12.317 145.009,13.106 C145.076,14.306 145.1,15.446 145.077,16.489 C145.073,16.692 145.067,16.876 145.063,17.043 C144.616,17.078 144.159,17.113 143.69,17.148 C143.569,17.156 143.452,17.165 143.336,17.173 M146.568,0.689 C146.524,0.689 146.479,0.689 146.434,0.69 C145.662,0.694 144.887,0.867 144.127,1.202 C143.456,1.499 142.813,1.891 142.214,2.367 C141.644,2.82 141.113,3.337 140.636,3.901 C140.165,4.456 139.749,5.048 139.4,5.657 C138.753,6.791 138.22,8.045 137.817,9.387 C137.432,10.673 137.133,11.991 136.928,13.308 C136.73,14.584 136.578,15.863 136.48,17.111 C136.38,18.355 136.317,19.519 136.294,20.572 C136.27,21.123 136.252,21.857 136.238,22.73 L136.203,25.251 C136.19,26.074 136.179,26.805 136.167,27.44 C136.154,28.094 136.149,28.497 136.149,28.647 C136.149,28.993 136.143,29.409 136.132,29.895 C136.114,30.561 136.174,31.195 136.308,31.777 C136.499,32.617 136.899,33.306 137.493,33.817 C137.996,34.253 138.639,34.486 139.344,34.486 C139.748,34.486 140.178,34.407 140.619,34.25 C141.184,34.071 141.649,33.783 142.003,33.395 C142.361,33.002 142.606,32.518 142.73,31.956 C142.803,31.627 142.848,31.259 142.865,30.836 C142.877,30.54 142.895,30.186 142.918,29.768 C142.943,29.067 142.962,28.332 142.975,27.527 L143.011,25.188 C143.02,24.588 143.025,24.027 143.027,23.508 C143.37,23.488 143.718,23.466 144.071,23.441 C144.347,23.42 144.622,23.402 144.897,23.384 L144.897,25.766 C144.897,26.751 144.909,27.761 144.934,28.767 C144.958,29.819 145.023,30.821 145.124,31.746 C145.231,32.706 145.384,33.555 145.58,34.27 C145.701,34.711 146.069,36.051 147.301,36.664 C147.927,36.977 148.663,37.193 149.487,37.306 C149.687,37.333 149.885,37.347 150.077,37.347 C151.062,37.347 151.943,36.993 152.632,36.322 C153.11,35.881 153.464,35.474 153.639,34.939 C153.79,34.485 153.784,34.011 153.718,33.406 C153.696,32.427 153.691,31.378 153.703,30.288 L153.738,26.793 C153.751,25.607 153.775,24.445 153.81,23.344 C153.847,22.167 153.865,21.031 153.865,19.97 C153.865,18.391 153.847,16.819 153.81,15.296 C153.773,13.722 153.663,12.292 153.484,11.048 C153.334,9.898 153.114,8.732 152.833,7.606 C152.532,6.405 152.141,5.326 151.668,4.395 C151.142,3.359 150.488,2.504 149.725,1.852 C148.828,1.09 147.737,0.689 146.568,0.689 M141.209,19.286 C141.257,19.286 141.545,19.274 142.073,19.25 C142.601,19.226 143.189,19.191 143.837,19.142 C144.484,19.094 145.108,19.047 145.709,18.998 C146.309,18.95 146.717,18.902 146.933,18.854 C147.005,18.399 147.053,17.624 147.077,16.532 C147.101,15.44 147.077,14.258 147.005,12.986 C146.956,12.171 146.885,11.342 146.789,10.502 C146.692,9.662 146.566,8.906 146.411,8.234 C146.254,7.563 146.057,7.016 145.816,6.596 C145.576,6.176 145.301,5.966 144.988,5.966 C144.652,5.99 144.323,6.231 143.999,6.686 C143.675,7.142 143.374,7.736 143.099,8.468 C142.822,9.2 142.57,10.034 142.343,10.97 C142.114,11.906 141.923,12.866 141.767,13.85 C141.61,14.835 141.479,15.8 141.371,16.748 C141.263,17.696 141.209,18.543 141.209,19.286 M146.568,2.689 C147.269,2.689 147.889,2.917 148.427,3.374 C148.99,3.855 149.477,4.496 149.885,5.3 C150.293,6.105 150.628,7.034 150.893,8.09 C151.156,9.147 151.36,10.226 151.505,11.33 C151.673,12.506 151.774,13.844 151.811,15.344 C151.847,16.844 151.865,18.386 151.865,19.97 C151.865,21.027 151.847,22.13 151.811,23.281 C151.774,24.434 151.751,25.598 151.738,26.774 C151.727,27.95 151.715,29.113 151.703,30.266 C151.69,31.418 151.696,32.51 151.721,33.542 C151.769,33.95 151.774,34.208 151.738,34.317 C151.703,34.424 151.541,34.61 151.253,34.874 C150.938,35.19 150.546,35.347 150.077,35.347 C149.975,35.347 149.868,35.339 149.759,35.324 C149.147,35.24 148.625,35.09 148.192,34.874 C147.904,34.731 147.677,34.352 147.509,33.74 C147.341,33.128 147.208,32.39 147.112,31.526 C147.017,30.662 146.956,29.727 146.933,28.718 C146.908,27.71 146.897,26.727 146.897,25.766 L146.897,23.12 L146.897,21.266 C145.912,21.315 144.923,21.374 143.927,21.445 C142.931,21.518 141.977,21.567 141.065,21.59 C141.041,21.926 141.028,22.412 141.028,23.048 C141.028,23.684 141.023,24.387 141.011,25.154 C140.998,25.922 140.986,26.701 140.975,27.494 C140.962,28.285 140.944,29.006 140.921,29.654 C140.897,30.086 140.879,30.452 140.867,30.752 C140.855,31.053 140.824,31.311 140.776,31.526 C140.729,31.742 140.645,31.916 140.524,32.048 C140.404,32.18 140.225,32.281 139.984,32.354 C139.743,32.442 139.529,32.486 139.344,32.486 C139.122,32.486 138.94,32.424 138.797,32.3 C138.532,32.072 138.353,31.748 138.257,31.328 C138.16,30.908 138.118,30.445 138.131,29.942 C138.143,29.438 138.149,29.006 138.149,28.647 C138.149,28.502 138.154,28.112 138.167,27.477 C138.179,26.84 138.19,26.108 138.203,25.279 C138.215,24.451 138.227,23.612 138.238,22.76 C138.251,21.908 138.269,21.194 138.293,20.618 C138.316,19.587 138.377,18.47 138.473,17.27 C138.568,16.07 138.712,14.852 138.904,13.616 C139.097,12.38 139.373,11.162 139.732,9.962 C140.093,8.762 140.561,7.658 141.137,6.65 C141.425,6.146 141.767,5.66 142.163,5.192 C142.559,4.724 142.991,4.304 143.459,3.932 C143.927,3.56 144.418,3.26 144.935,3.032 C145.45,2.804 145.961,2.69 146.465,2.69 C146.499,2.689 146.534,2.689 146.568,2.689" fill="#8E693F"/>
      <path d="M49.048,7.094 C49.009,7.137 48.963,7.194 48.912,7.266 C48.639,7.65 48.377,8.173 48.132,8.822 C47.872,9.513 47.63,10.316 47.412,11.208 C47.193,12.105 47.005,13.047 46.852,14.008 C46.698,14.977 46.569,15.929 46.463,16.863 C46.407,17.347 46.366,17.808 46.34,18.241 C46.803,18.219 47.31,18.187 47.861,18.146 C48.507,18.098 50.005,17.979 50.116,17.969 C50.14,17.62 50.161,17.149 50.175,16.511 C50.198,15.442 50.174,14.276 50.104,13.043 C50.058,12.257 49.987,11.44 49.893,10.616 C49.8,9.811 49.68,9.085 49.535,8.461 C49.402,7.889 49.238,7.429 49.048,7.094 M58.55,39.48 C58.012,39.456 57.497,39.392 57.016,39.294 C56.035,39.167 55.077,38.791 54.24,38.19 C53.447,37.617 52.754,36.905 52.177,36.072 C51.555,35.165 51.069,34.163 50.727,33.09 C50.693,32.982 50.666,32.875 50.641,32.766 L50.609,32.636 C50.552,32.494 50.443,32.17 50.383,31.774 L50.357,31.701 L50.356,31.597 C50.3,31.269 50.263,30.981 50.233,30.692 C50.154,30.177 50.048,29.478 50.031,28.742 C50.007,27.726 49.995,26.735 49.995,25.766 L49.995,22.321 C49.364,22.357 48.732,22.398 48.096,22.443 C47.42,22.493 46.761,22.531 46.13,22.557 C46.128,22.71 46.127,22.873 46.127,23.049 C46.127,23.689 46.12,24.397 46.109,25.171 L46.073,27.51 C46.06,28.309 46.042,29.037 46.018,29.691 C45.994,30.135 45.976,30.496 45.964,30.792 C45.948,31.162 45.912,31.472 45.851,31.744 C45.766,32.13 45.601,32.46 45.362,32.722 C45.119,32.989 44.786,33.187 44.371,33.312 C44.071,33.424 43.749,33.487 43.442,33.487 C42.981,33.487 42.566,33.338 42.241,33.056 C41.815,32.691 41.524,32.184 41.38,31.552 C41.265,31.047 41.214,30.496 41.23,29.915 C41.241,29.424 41.247,29 41.247,28.647 C41.247,28.501 41.337,22.747 41.337,22.747 C41.349,21.884 41.367,21.158 41.393,20.574 C41.416,19.544 41.477,18.398 41.575,17.191 C41.672,15.968 41.82,14.713 42.015,13.463 C42.212,12.191 42.501,10.916 42.874,9.675 C43.253,8.41 43.755,7.225 44.367,6.155 C44.683,5.599 45.064,5.058 45.498,4.546 C45.936,4.029 46.42,3.559 46.936,3.15 C47.464,2.729 48.033,2.381 48.627,2.118 C49.272,1.834 49.923,1.691 50.564,1.691 L50.667,1.689 C51.61,1.689 52.453,2 53.173,2.614 C53.836,3.178 54.409,3.93 54.875,4.848 C55.315,5.717 55.68,6.725 55.962,7.847 C56.234,8.941 56.447,10.069 56.594,11.202 C56.766,12.401 56.872,13.791 56.909,15.321 C56.944,16.829 56.963,18.379 56.963,19.97 C56.963,21.037 56.944,22.15 56.909,23.312 C56.873,24.459 56.849,25.616 56.837,26.784 L56.801,30.276 C56.792,31.144 56.796,31.967 56.808,32.763 L56.85,32.914 C56.901,33.073 56.956,33.228 57.015,33.378 C57.075,33.531 57.141,33.683 57.213,33.839 C57.279,33.992 57.362,34.12 57.473,34.248 C57.596,34.389 57.737,34.516 57.894,34.625 C58.067,34.743 58.237,34.838 58.409,34.912 C58.602,34.996 58.701,35.011 58.735,35.015 C58.877,35.027 59.026,35.034 59.173,35.034 C59.278,35.034 59.383,35.031 59.487,35.024 C59.678,35.012 59.854,35.008 60.018,35.008 C60.152,35.008 60.279,35.011 60.4,35.018 C60.753,35.039 61.071,35.114 61.347,35.24 C61.613,35.361 61.983,35.619 62.221,36.152 L62.262,36.26 C62.477,36.937 62.399,37.532 62.059,38.045 C61.88,38.313 61.643,38.539 61.349,38.718 L61.559,39.149 L60.242,39.373 C59.79,39.449 59.336,39.488 58.892,39.488 C58.777,39.488 58.664,39.485 58.55,39.48" fill="#F7F4E2"/>
      <path d="M47.434,17.173 C47.441,17.108 47.448,17.042 47.456,16.975 C47.563,16.04 47.692,15.093 47.839,14.164 C47.988,13.23 48.171,12.315 48.383,11.444 C48.513,10.912 48.652,10.414 48.798,9.955 C48.835,10.203 48.869,10.462 48.9,10.731 C48.991,11.534 49.061,12.334 49.106,13.103 C49.174,14.306 49.198,15.446 49.175,16.489 C49.171,16.692 49.166,16.876 49.16,17.043 C48.715,17.078 48.258,17.113 47.788,17.148 C47.667,17.156 47.55,17.165 47.434,17.173 M50.667,0.689 L50.667,0.689 C50.622,0.689 50.577,0.689 50.532,0.69 C49.762,0.694 48.986,0.867 48.226,1.201 C47.55,1.501 46.907,1.893 46.311,2.368 C45.747,2.816 45.216,3.332 44.735,3.899 C44.261,4.458 43.845,5.05 43.497,5.66 C42.849,6.795 42.316,8.049 41.915,9.388 C41.53,10.672 41.23,11.992 41.026,13.31 C40.828,14.584 40.677,15.863 40.578,17.111 C40.479,18.337 40.416,19.502 40.392,20.572 C40.368,21.11 40.35,21.829 40.337,22.733 L40.316,24.225 L40.301,25.251 C40.288,26.074 40.277,26.805 40.265,27.44 C40.253,28.096 40.247,28.497 40.247,28.647 C40.247,28.993 40.241,29.409 40.23,29.895 C40.212,30.552 40.271,31.186 40.404,31.773 C40.598,32.619 40.998,33.308 41.594,33.819 C42.095,34.253 42.737,34.486 43.441,34.486 C43.852,34.486 44.27,34.409 44.718,34.251 C45.282,34.071 45.747,33.783 46.101,33.395 C46.459,33.002 46.704,32.518 46.828,31.956 C46.9,31.631 46.945,31.263 46.963,30.836 C46.975,30.538 46.993,30.183 47.016,29.763 C47.041,29.067 47.06,28.332 47.073,27.527 L47.108,25.185 C47.117,24.587 47.123,24.027 47.126,23.508 C47.468,23.488 47.816,23.466 48.169,23.441 C48.445,23.42 48.72,23.402 48.995,23.384 L48.995,25.766 C48.995,26.737 49.007,27.746 49.031,28.765 C49.049,29.544 49.155,30.261 49.243,30.843 C49.276,31.152 49.312,31.417 49.355,31.666 L49.355,31.868 L49.412,32.026 C49.465,32.336 49.545,32.635 49.658,32.956 L49.667,32.994 C49.699,33.128 49.732,33.262 49.776,33.398 C50.145,34.559 50.675,35.649 51.349,36.632 C51.996,37.568 52.769,38.36 53.652,38.998 C54.609,39.686 55.695,40.118 56.883,40.286 C57.395,40.388 57.939,40.452 58.502,40.479 C58.634,40.485 58.762,40.487 58.891,40.487 C59.392,40.487 59.902,40.444 60.409,40.358 L63.043,39.912 L62.59,38.983 C62.7,38.862 62.801,38.734 62.892,38.597 C63.398,37.834 63.52,36.92 63.235,36.023 L63.216,35.959 L63.181,35.849 L63.134,35.744 C62.845,35.096 62.369,34.606 61.759,34.328 C61.374,34.152 60.935,34.048 60.459,34.02 C60.319,34.011 60.173,34.007 60.018,34.007 C59.835,34.007 59.64,34.013 59.431,34.026 C59.342,34.03 59.257,34.033 59.172,34.033 C59.076,34.033 58.977,34.029 58.878,34.023 C58.856,34.015 58.834,34.006 58.81,33.995 C58.691,33.944 58.578,33.88 58.455,33.797 C58.374,33.74 58.298,33.672 58.231,33.595 C58.167,33.521 58.148,33.481 58.144,33.473 L58.133,33.445 L58.12,33.418 C58.057,33.282 57.999,33.149 57.949,33.019 C57.895,32.885 57.849,32.754 57.806,32.619 C57.794,31.809 57.792,31.043 57.801,30.287 L57.816,28.777 L57.837,26.793 C57.848,25.652 57.872,24.491 57.908,23.344 C57.944,22.154 57.963,21.02 57.963,19.97 C57.963,18.406 57.945,16.834 57.909,15.297 C57.871,13.727 57.761,12.298 57.582,11.048 C57.434,9.902 57.213,8.735 56.932,7.606 C56.632,6.409 56.24,5.331 55.768,4.397 C55.24,3.358 54.585,2.502 53.821,1.851 C52.928,1.09 51.837,0.689 50.667,0.689 M45.308,19.286 C45.354,19.286 45.642,19.274 46.171,19.25 C46.698,19.226 47.287,19.191 47.934,19.142 C48.583,19.094 49.206,19.047 49.808,18.998 C50.407,18.95 50.815,18.902 51.03,18.854 C51.102,18.399 51.151,17.624 51.175,16.532 C51.198,15.44 51.175,14.258 51.102,12.986 C51.055,12.171 50.982,11.342 50.887,10.502 C50.79,9.662 50.665,8.906 50.509,8.234 C50.352,7.563 50.154,7.016 49.915,6.596 C49.675,6.176 49.398,5.966 49.087,5.966 C48.751,5.99 48.421,6.231 48.097,6.686 C47.772,7.142 47.473,7.736 47.196,8.468 C46.921,9.2 46.669,10.034 46.44,10.97 C46.212,11.906 46.02,12.866 45.864,13.85 C45.708,14.835 45.577,15.8 45.469,16.748 C45.36,17.696 45.308,18.543 45.308,19.286 M50.667,2.689 C51.368,2.689 51.987,2.917 52.524,3.374 C53.089,3.855 53.575,4.496 53.983,5.3 C54.391,6.105 54.726,7.034 54.991,8.09 C55.255,9.147 55.459,10.226 55.602,11.33 C55.77,12.506 55.873,13.844 55.909,15.344 C55.944,16.844 55.963,18.386 55.963,19.97 C55.963,21.027 55.944,22.13 55.909,23.281 C55.873,24.434 55.849,25.598 55.837,26.774 C55.825,27.95 55.812,29.113 55.801,30.266 C55.791,31.188 55.796,32.06 55.809,32.904 C55.84,33.01 55.863,33.112 55.897,33.219 C55.956,33.401 56.018,33.576 56.085,33.744 C56.15,33.912 56.225,34.084 56.306,34.259 C56.4,34.481 56.538,34.695 56.718,34.902 C56.897,35.11 57.101,35.291 57.325,35.446 C57.552,35.602 57.78,35.73 58.015,35.83 C58.249,35.932 58.457,35.992 58.638,36.01 C58.819,36.026 58.997,36.033 59.172,36.033 C59.299,36.033 59.425,36.029 59.55,36.022 C59.716,36.012 59.872,36.007 60.018,36.007 C60.132,36.007 60.239,36.01 60.341,36.016 C60.571,36.029 60.768,36.074 60.931,36.149 C61.094,36.223 61.219,36.36 61.308,36.559 L61.329,36.627 C61.431,36.947 61.395,37.235 61.226,37.49 C61.056,37.746 60.776,37.936 60.387,38.061 C60.204,38.119 60.062,38.151 59.964,38.157 L60.075,38.386 C59.675,38.453 59.28,38.487 58.891,38.487 C58.792,38.487 58.693,38.485 58.595,38.481 C58.108,38.458 57.649,38.402 57.218,38.314 C56.325,38.195 55.526,37.882 54.823,37.377 C54.12,36.869 53.513,36.244 52.999,35.502 C52.433,34.675 51.993,33.77 51.68,32.785 C51.635,32.646 51.611,32.51 51.573,32.371 C51.479,32.118 51.399,31.852 51.362,31.555 C51.361,31.546 51.358,31.537 51.357,31.528 C51.356,31.526 51.355,31.524 51.355,31.521 C51.351,31.484 51.345,31.444 51.341,31.407 C51.29,31.131 51.256,30.86 51.227,30.588 C51.138,29.994 51.046,29.374 51.03,28.718 C51.007,27.71 50.995,26.727 50.995,25.766 L50.995,23.12 L50.995,21.266 C50.011,21.315 49.02,21.374 48.024,21.445 C47.028,21.518 46.075,21.567 45.163,21.59 C45.139,21.926 45.127,22.412 45.127,23.048 C45.127,23.684 45.12,24.387 45.108,25.154 C45.097,25.922 45.085,26.701 45.073,27.494 C45.06,28.285 45.042,29.006 45.018,29.654 C44.995,30.086 44.976,30.452 44.965,30.752 C44.952,31.053 44.923,31.311 44.875,31.526 C44.827,31.742 44.743,31.916 44.623,32.048 C44.503,32.18 44.323,32.281 44.083,32.354 C43.841,32.443 43.628,32.486 43.441,32.486 C43.221,32.486 43.038,32.424 42.895,32.3 C42.63,32.072 42.45,31.748 42.354,31.328 C42.259,30.908 42.216,30.445 42.229,29.942 C42.241,29.438 42.247,29.006 42.247,28.647 C42.247,28.502 42.253,28.112 42.265,27.477 C42.276,26.84 42.288,26.108 42.301,25.279 C42.312,24.451 42.325,23.612 42.337,22.76 C42.349,21.908 42.366,21.194 42.392,20.618 C42.415,19.587 42.475,18.47 42.571,17.27 C42.667,16.07 42.81,14.852 43.003,13.616 C43.194,12.38 43.471,11.162 43.831,9.962 C44.19,8.762 44.659,7.658 45.235,6.65 C45.522,6.146 45.864,5.66 46.261,5.192 C46.657,4.724 47.089,4.304 47.558,3.932 C48.024,3.56 48.517,3.26 49.032,3.032 C49.549,2.804 50.059,2.69 50.563,2.69 C50.598,2.689 50.633,2.689 50.667,2.689" fill="#8E693F"/>
      <path d="M119.112,39.717 C118.884,39.717 118.665,39.696 118.441,39.673 C118.315,39.659 118.188,39.646 118.056,39.64 C117.501,39.614 116.987,39.516 116.508,39.417 C115.466,39.28 114.725,38.882 113.955,38.328 C113.154,37.749 112.512,37.092 111.934,36.257 L111.843,36.124 C111.292,35.319 110.77,34.559 110.428,33.486 C110.363,33.28 110.303,33.066 110.249,32.839 C110.18,32.837 110.112,32.834 110.045,32.831 C109.785,32.821 109.552,32.815 109.349,32.815 L108.593,32.815 C108.174,32.815 107.844,32.824 107.602,32.846 C107.352,32.869 107.133,32.892 106.95,32.914 C106.791,32.935 106.637,32.961 106.494,32.99 C106.258,33.041 105.989,33.067 105.677,33.067 C105.079,33.067 104.65,32.967 104.331,32.754 C104.198,32.666 104.018,32.554 103.795,32.42 C103.161,32.052 102.738,31.634 102.517,31.15 C102.327,30.734 102.229,30.326 102.229,29.942 C102.229,29.647 102.26,29.4 102.326,29.185 C102.347,29.114 102.368,29.051 102.387,28.995 C102.428,28.45 102.46,27.861 102.482,27.226 C102.505,26.53 102.517,25.779 102.517,24.975 C102.517,24.259 102.51,23.514 102.499,22.739 C102.487,21.964 102.468,21.171 102.445,20.359 C102.397,19.164 102.361,17.951 102.337,16.732 C102.313,15.517 102.295,14.331 102.283,13.176 L102.247,9.919 C102.235,8.896 102.229,7.974 102.229,7.154 C102.229,6.244 102.266,5.92 102.299,5.738 C102.331,5.554 102.411,5.103 102.763,4.802 C102.769,4.754 102.769,4.715 102.769,4.67 C102.769,4.484 102.782,4.335 102.8,4.222 C102.853,3.896 103.034,3.638 103.166,3.472 C103.578,3.005 104.207,2.767 105.304,2.634 C106.135,2.533 107.084,2.482 108.125,2.482 C108.358,2.482 108.593,2.489 108.828,2.502 C109.027,2.513 109.223,2.518 109.421,2.518 C110.477,2.57 111.419,2.652 112.27,2.764 C113.209,2.888 113.848,3.032 114.282,3.22 C114.539,3.325 114.791,3.522 115.057,3.834 C115.369,4.196 115.533,4.629 115.533,5.086 C115.533,5.253 115.499,5.423 115.411,5.69 L115.392,5.746 L115.368,5.799 C115.136,6.296 114.621,6.933 113.472,7.146 C112.83,7.265 112.108,7.326 111.329,7.326 C110.979,7.326 110.642,7.32 110.318,7.307 C110.018,7.296 109.707,7.29 109.385,7.29 L108.557,7.29 C108.362,7.29 108.181,7.295 108.013,7.303 C108.018,7.569 108.029,7.882 108.044,8.244 C108.068,8.795 108.102,9.389 108.15,10.025 C108.22,10.6 108.276,11.218 108.313,11.838 C108.349,12.432 108.385,12.966 108.42,13.442 L108.492,14.383 C108.75,14.381 109.027,14.364 109.321,14.335 C109.715,14.296 110.119,14.276 110.537,14.276 C110.793,14.276 111.042,14.291 111.283,14.319 C111.529,14.348 111.768,14.391 112.001,14.448 C112.693,14.664 113.117,14.955 113.356,15.355 C113.558,15.69 113.661,16.051 113.661,16.426 L113.661,16.57 C113.661,16.997 113.561,17.403 113.366,17.774 C113.104,18.269 112.599,18.604 111.823,18.799 C111.473,18.879 111.109,18.949 110.714,19.013 C110.321,19.076 109.936,19.127 109.556,19.165 C109.231,19.197 108.919,19.22 108.621,19.235 L108.621,20.865 C108.621,21.316 108.633,21.772 108.656,22.235 C108.657,22.731 108.663,23.165 108.674,23.588 C108.687,24.028 108.693,24.481 108.693,24.946 C108.693,25.41 108.687,25.863 108.674,26.304 C108.663,26.725 108.657,27.158 108.657,27.604 L108.657,28.107 C109.024,28.103 109.375,28.088 109.708,28.064 C110.209,28.025 110.716,28.006 111.221,28.006 C111.741,28.006 112.252,28.039 112.74,28.105 C113.253,28.175 113.785,28.306 114.323,28.493 C114.694,28.631 115.002,28.796 115.246,28.988 L116.037,28.637 L115.962,30.212 L115.965,30.486 L115.943,30.563 C115.936,30.691 115.93,30.793 115.927,30.901 C115.905,31.612 116.027,32.39 116.289,33.215 C116.34,33.371 116.394,33.527 116.453,33.676 C116.513,33.829 116.579,33.982 116.651,34.137 C116.716,34.29 116.8,34.418 116.911,34.546 C117.034,34.688 117.175,34.815 117.332,34.923 C117.506,35.041 117.675,35.136 117.847,35.21 C118.04,35.294 118.139,35.31 118.173,35.314 C118.315,35.325 118.464,35.332 118.611,35.332 C118.716,35.332 118.822,35.329 118.925,35.322 C119.116,35.311 119.292,35.306 119.457,35.306 C119.591,35.306 119.717,35.31 119.838,35.317 C120.191,35.337 120.509,35.412 120.785,35.538 C121.051,35.659 121.422,35.917 121.659,36.45 L121.7,36.558 C121.915,37.236 121.838,37.83 121.497,38.343 C121.318,38.612 121.081,38.837 120.787,39.016 L120.998,39.447 L119.68,39.671 C119.484,39.704 119.297,39.717 119.113,39.717 z" fill="#F7F4E2"/>
      <path d="M108.125,1.482 C107.044,1.482 106.056,1.535 105.185,1.641 C104.224,1.757 103.148,1.982 102.453,2.767 L102.417,2.808 L102.383,2.851 C102.067,3.248 101.881,3.643 101.813,4.06 C101.796,4.168 101.783,4.283 101.776,4.406 C101.55,4.717 101.396,5.104 101.313,5.563 C101.272,5.799 101.229,6.172 101.229,7.154 C101.229,7.977 101.235,8.903 101.247,9.931 L101.273,12.313 L101.283,13.188 C101.295,14.344 101.313,15.533 101.337,16.751 C101.363,18.019 101.399,19.25 101.447,20.411 C101.47,21.194 101.487,21.983 101.499,22.755 C101.511,23.524 101.518,24.264 101.518,24.976 C101.518,25.747 101.506,26.493 101.482,27.194 C101.463,27.762 101.436,28.3 101.399,28.796 C101.389,28.83 101.378,28.865 101.366,28.903 C101.275,29.205 101.229,29.547 101.229,29.941 C101.229,30.472 101.357,31.021 101.61,31.569 C101.918,32.244 102.474,32.811 103.306,33.292 C103.488,33.403 103.656,33.507 103.781,33.59 C104.422,34.017 105.171,34.066 105.678,34.066 C106.062,34.066 106.398,34.035 106.71,33.967 C106.817,33.944 106.944,33.924 107.081,33.906 C107.247,33.887 107.455,33.863 107.697,33.841 C107.831,33.829 108.102,33.815 108.594,33.815 L109.35,33.815 C109.394,33.815 109.438,33.815 109.484,33.815 C109.87,35.014 110.454,35.866 111.019,36.69 L111.106,36.816 C111.757,37.757 112.474,38.492 113.367,39.138 C114.13,39.686 115.019,40.215 116.371,40.41 C116.871,40.513 117.408,40.611 118.009,40.639 C118.124,40.645 118.231,40.656 118.338,40.667 C118.551,40.69 118.816,40.717 119.112,40.717 C119.367,40.717 119.607,40.697 119.848,40.656 L122.481,40.211 L122.029,39.281 C122.139,39.161 122.239,39.033 122.33,38.896 C122.837,38.133 122.959,37.22 122.674,36.321 L122.654,36.258 L122.619,36.148 L122.572,36.043 C122.283,35.396 121.808,34.904 121.197,34.627 C120.813,34.451 120.374,34.347 119.897,34.319 C119.758,34.311 119.611,34.306 119.457,34.306 C119.273,34.306 119.078,34.312 118.87,34.325 C118.78,34.329 118.696,34.333 118.611,34.333 C118.514,34.333 118.416,34.328 118.316,34.321 C118.295,34.314 118.272,34.306 118.248,34.294 C118.13,34.243 118.017,34.18 117.895,34.097 C117.813,34.04 117.736,33.972 117.67,33.895 C117.605,33.819 117.586,33.779 117.583,33.772 L117.571,33.744 L117.559,33.717 C117.496,33.582 117.438,33.447 117.387,33.318 C117.332,33.18 117.284,33.043 117.239,32.903 C117.015,32.195 116.908,31.528 116.927,30.932 C116.93,30.838 116.935,30.75 116.939,30.66 C116.956,30.554 116.965,30.446 116.965,30.338 L116.965,30.17 L117.119,26.937 L115.285,27.827 C115.106,27.733 114.908,27.644 114.689,27.563 C114.052,27.34 113.455,27.192 112.878,27.115 C112.341,27.042 111.785,27.007 111.222,27.007 C110.695,27.007 110.17,27.025 109.66,27.066 C109.663,26.816 109.668,26.57 109.674,26.33 C109.687,25.885 109.693,25.421 109.693,24.945 C109.693,24.47 109.687,24.007 109.674,23.557 C109.663,23.147 109.657,22.722 109.657,22.285 L109.657,22.234 L109.654,22.184 C109.633,21.746 109.621,21.302 109.621,20.865 L109.621,20.163 C109.633,20.163 109.646,20.161 109.657,20.16 C110.055,20.121 110.464,20.066 110.874,20 C111.287,19.934 111.677,19.858 112.03,19.778 C113.119,19.505 113.854,18.991 114.25,18.24 C114.522,17.724 114.661,17.163 114.661,16.569 L114.661,16.427 C114.661,15.867 114.511,15.332 114.213,14.837 C113.843,14.221 113.236,13.786 112.36,13.511 L112.301,13.492 L112.24,13.478 C111.966,13.41 111.683,13.359 111.399,13.326 C111.118,13.293 110.828,13.276 110.537,13.276 C110.157,13.276 109.78,13.292 109.414,13.322 C109.381,12.865 109.347,12.349 109.312,11.777 C109.274,11.151 109.218,10.523 109.145,9.906 C109.102,9.333 109.07,8.794 109.047,8.29 L109.386,8.29 C109.693,8.29 109.992,8.295 110.279,8.307 C110.616,8.32 110.966,8.326 111.329,8.326 C112.17,8.326 112.953,8.259 113.657,8.128 C115.305,7.823 116.005,6.802 116.274,6.22 L116.324,6.114 L116.36,6.002 C116.45,5.73 116.533,5.431 116.533,5.086 C116.533,4.387 116.285,3.729 115.816,3.182 C115.448,2.752 115.064,2.459 114.645,2.287 C114.158,2.077 113.434,1.909 112.4,1.773 C111.523,1.657 110.554,1.572 109.52,1.521 L109.471,1.518 L109.421,1.518 C109.243,1.518 109.064,1.513 108.887,1.503 C108.63,1.489 108.377,1.482 108.125,1.482 M108.125,3.482 C108.341,3.482 108.558,3.488 108.773,3.5 C108.989,3.512 109.205,3.518 109.421,3.518 C110.405,3.567 111.312,3.646 112.14,3.755 C112.967,3.864 113.549,3.992 113.886,4.138 C114.005,4.187 114.143,4.302 114.299,4.484 C114.455,4.667 114.533,4.867 114.533,5.086 C114.533,5.134 114.509,5.232 114.461,5.378 C114.269,5.792 113.879,6.053 113.291,6.162 C112.703,6.272 112.049,6.326 111.329,6.326 C110.993,6.326 110.669,6.32 110.357,6.308 C110.045,6.296 109.721,6.29 109.386,6.29 L108.558,6.29 C108.221,6.29 107.921,6.302 107.657,6.326 C107.393,6.35 107.177,6.41 107.01,6.505 L107.01,6.937 C107.01,7.273 107.021,7.722 107.045,8.285 C107.069,8.848 107.104,9.453 107.153,10.1 C107.226,10.7 107.279,11.299 107.315,11.898 C107.352,12.497 107.388,13.035 107.423,13.516 C107.459,13.994 107.501,14.545 107.549,15.168 C107.669,15.312 107.957,15.383 108.413,15.383 C108.725,15.383 109.062,15.366 109.421,15.33 C109.781,15.294 110.153,15.276 110.537,15.276 C110.753,15.276 110.963,15.288 111.167,15.312 C111.371,15.336 111.569,15.372 111.762,15.42 C112.145,15.54 112.392,15.69 112.499,15.869 C112.607,16.049 112.661,16.234 112.661,16.427 L112.661,16.569 C112.661,16.834 112.602,17.08 112.481,17.307 C112.361,17.535 112.062,17.708 111.581,17.828 C111.27,17.9 110.927,17.966 110.556,18.025 C110.183,18.087 109.817,18.133 109.457,18.17 C109.098,18.206 108.755,18.23 108.432,18.241 C108.107,18.253 107.837,18.26 107.621,18.26 L107.621,19.445 L107.621,20.865 C107.621,21.333 107.633,21.806 107.657,22.285 C107.657,22.74 107.663,23.184 107.675,23.615 C107.688,24.047 107.693,24.49 107.693,24.945 C107.693,25.4 107.688,25.844 107.675,26.274 C107.663,26.706 107.657,27.149 107.657,27.604 L107.657,28.396 C107.657,28.658 107.688,28.84 107.747,28.935 C107.807,29.031 107.969,29.09 108.233,29.113 C108.785,29.113 109.301,29.097 109.781,29.062 C110.261,29.024 110.741,29.007 111.222,29.007 C111.701,29.007 112.163,29.036 112.607,29.097 C113.051,29.156 113.513,29.271 113.993,29.438 C114.566,29.65 114.871,29.913 114.937,30.219 C114.945,30.215 114.953,30.213 114.961,30.209 C114.959,30.24 114.958,30.272 114.956,30.302 C114.957,30.316 114.965,30.326 114.965,30.338 C114.965,30.359 114.953,30.382 114.951,30.401 C114.942,30.556 114.933,30.708 114.928,30.871 C114.902,31.698 115.038,32.579 115.336,33.519 C115.395,33.7 115.457,33.875 115.523,34.043 C115.589,34.211 115.663,34.383 115.744,34.558 C115.839,34.779 115.977,34.994 116.156,35.201 C116.336,35.41 116.539,35.59 116.764,35.745 C116.99,35.901 117.219,36.028 117.453,36.13 C117.688,36.231 117.896,36.292 118.076,36.309 C118.258,36.325 118.436,36.333 118.611,36.333 C118.738,36.333 118.863,36.328 118.988,36.32 C119.154,36.312 119.311,36.306 119.457,36.306 C119.57,36.306 119.678,36.309 119.779,36.315 C120.01,36.328 120.207,36.374 120.369,36.447 C120.532,36.522 120.657,36.659 120.746,36.857 L120.768,36.926 C120.869,37.246 120.834,37.534 120.664,37.79 C120.494,38.045 120.215,38.235 119.825,38.36 C119.643,38.418 119.501,38.45 119.402,38.457 L119.514,38.686 C119.375,38.708 119.242,38.717 119.112,38.717 C118.771,38.717 118.451,38.656 118.101,38.641 C117.614,38.618 117.142,38.527 116.71,38.438 C115.817,38.319 115.241,38.021 114.538,37.516 C113.835,37.008 113.271,36.431 112.757,35.688 C112.19,34.86 111.695,34.167 111.382,33.182 C111.239,32.736 111.142,32.288 111.066,31.845 C111.022,31.847 110.978,31.851 110.934,31.851 C110.646,31.851 110.363,31.844 110.087,31.833 C109.812,31.82 109.565,31.816 109.35,31.816 L108.594,31.816 C108.137,31.816 107.777,31.826 107.514,31.851 C107.249,31.875 107.021,31.899 106.829,31.922 C106.637,31.946 106.457,31.977 106.289,32.013 C106.121,32.049 105.917,32.066 105.678,32.066 C105.293,32.066 105.029,32.019 104.886,31.922 C104.741,31.826 104.549,31.706 104.31,31.563 C103.854,31.299 103.559,31.022 103.428,30.734 C103.295,30.445 103.229,30.182 103.229,29.941 C103.229,29.75 103.247,29.594 103.283,29.476 C103.319,29.354 103.349,29.271 103.373,29.222 C103.421,28.622 103.457,27.969 103.481,27.26 C103.505,26.553 103.518,25.79 103.518,24.976 C103.518,24.254 103.511,23.504 103.499,22.726 C103.487,21.944 103.469,21.147 103.445,20.33 C103.396,19.13 103.361,17.924 103.337,16.712 C103.313,15.501 103.295,14.318 103.283,13.167 C103.271,12.014 103.259,10.928 103.247,9.908 C103.235,8.888 103.229,7.97 103.229,7.154 C103.229,6.53 103.247,6.116 103.283,5.912 C103.319,5.709 103.367,5.588 103.428,5.552 C103.487,5.516 103.541,5.492 103.589,5.48 C103.637,5.468 103.685,5.33 103.733,5.066 C103.757,4.97 103.77,4.838 103.77,4.67 C103.77,4.55 103.775,4.454 103.787,4.382 C103.799,4.31 103.854,4.214 103.949,4.094 C104.141,3.878 104.633,3.722 105.425,3.626 C106.217,3.53 107.117,3.482 108.125,3.482" fill="#8E693F"/>
    </g>
  </g>
</svg>
