<?xml version="1.0" encoding="UTF-8"?>
<!DOCTYPE svg PUBLIC "-//W3C//DTD SVG 1.1//EN" "http://www.w3.org/Graphics/SVG/1.1/DTD/svg11.dtd">
<svg version="1.1" xmlns="http://www.w3.org/2000/svg" xmlns:xlink="http://www.w3.org/1999/xlink" x="0" y="0" width="45.892" height="11.269" viewBox="0, 0, 45.892, 11.269">
  <defs>
    <linearGradient id="Gradient_1" gradientUnits="userSpaceOnUse" x1="0.331" y1="8.858" x2="4.643" y2="1.39">
      <stop offset="0" stop-color="#7A3827"/>
      <stop offset="1" stop-color="#91522C"/>
    </linearGradient>
    <linearGradient id="Gradient_2" gradientUnits="userSpaceOnUse" x1="5.208" y1="9.804" x2="10.134" y2="1.272">
      <stop offset="0" stop-color="#7A3827"/>
      <stop offset="1" stop-color="#91522C"/>
    </linearGradient>
    <linearGradient id="Gradient_3" gradientUnits="userSpaceOnUse" x1="8.965" y1="8.984" x2="13.098" y2="1.826">
      <stop offset="0" stop-color="#7A3827"/>
      <stop offset="1" stop-color="#91522C"/>
    </linearGradient>
    <linearGradient id="Gradient_4" gradientUnits="userSpaceOnUse" x1="18.231" y1="8.514" x2="22.756" y2="0.677">
      <stop offset="0" stop-color="#7A3827"/>
      <stop offset="1" stop-color="#91522C"/>
    </linearGradient>
    <clipPath id="Clip_1">
      <path d="M20.976,-0 C20.748,-0 20.516,0.025 20.283,0.074 L20.283,0.074 C19.953,0.144 19.639,0.255 19.341,0.405 L19.341,0.405 C19.043,0.556 18.796,0.73 18.597,0.928 L18.597,0.928 C18.156,1.37 17.806,1.903 17.544,2.526 L17.544,2.526 C17.284,3.152 17.127,3.798 17.076,4.467 L17.076,4.467 C17.024,5.136 17.081,5.795 17.247,6.446 L17.247,6.446 C17.411,7.096 17.697,7.675 18.101,8.182 L18.101,8.182 C18.446,8.609 18.858,8.924 19.336,9.124 L19.336,9.124 C19.612,9.241 19.906,9.301 20.218,9.301 L20.218,9.301 C20.443,9.301 20.678,9.27 20.923,9.207 L20.923,9.207 C21.386,9.09 21.766,8.925 22.064,8.711 L22.064,8.711 C22.361,8.499 22.59,8.247 22.747,7.956 L22.747,7.956 C22.905,7.666 23.001,7.343 23.035,6.987 L23.035,6.987 C23.067,6.63 23.054,6.252 22.996,5.856 L22.996,5.856 C22.981,5.754 22.968,5.632 22.957,5.493 L22.957,5.493 C22.946,5.353 22.937,5.213 22.929,5.073 L22.929,5.073 C22.915,4.867 22.889,4.71 22.852,4.6 L22.852,4.6 C22.815,4.488 22.755,4.412 22.67,4.368 L22.67,4.368 C22.603,4.333 22.518,4.315 22.415,4.315 L22.415,4.315 C22.389,4.315 22.361,4.316 22.334,4.319 L22.334,4.319 C22.194,4.329 22.015,4.35 21.794,4.379 L21.794,4.379 C21.698,4.394 21.579,4.403 21.435,4.406 L21.435,4.406 C21.292,4.411 21.144,4.417 20.989,4.428 L20.989,4.428 C20.834,4.44 20.687,4.455 20.548,4.478 L20.548,4.478 C20.408,4.5 20.299,4.533 20.218,4.578 L20.218,4.578 C20.07,4.666 20.003,4.77 20.013,4.892 L20.013,4.892 C20.025,5.013 20.096,5.103 20.228,5.162 L20.228,5.162 C20.383,5.228 20.523,5.261 20.648,5.261 L20.648,5.261 C20.773,5.261 20.89,5.251 21.001,5.228 L21.001,5.228 C21.11,5.206 21.218,5.182 21.326,5.155 L21.326,5.155 C21.383,5.142 21.442,5.136 21.502,5.136 L21.502,5.136 C21.554,5.136 21.607,5.14 21.661,5.151 L21.661,5.151 C21.669,5.343 21.675,5.559 21.677,5.802 L21.677,5.802 C21.682,6.044 21.672,6.294 21.65,6.55 L21.65,6.55 C21.636,6.749 21.608,6.942 21.568,7.129 L21.568,7.129 C21.527,7.317 21.469,7.492 21.391,7.654 L21.391,7.654 C21.315,7.815 21.215,7.954 21.093,8.071 L21.093,8.071 C20.973,8.19 20.82,8.274 20.637,8.326 L20.637,8.326 L20.615,8.326 C20.512,8.357 20.408,8.373 20.302,8.373 L20.302,8.373 C20.133,8.373 19.96,8.332 19.782,8.253 L19.782,8.253 C19.491,8.125 19.247,7.884 19.049,7.531 L19.049,7.531 C18.799,7.083 18.641,6.584 18.575,6.033 L18.575,6.033 C18.508,5.481 18.508,4.926 18.575,4.368 L18.575,4.368 C18.641,3.831 18.764,3.318 18.944,2.83 L18.944,2.83 C19.124,2.341 19.38,1.917 19.71,1.557 L19.71,1.557 C19.916,1.329 20.115,1.157 20.306,1.039 L20.306,1.039 C20.497,0.922 20.676,0.843 20.84,0.801 L20.84,0.801 C20.962,0.772 21.078,0.757 21.19,0.757 L21.19,0.757 C21.23,0.757 21.27,0.759 21.309,0.763 L21.309,0.763 C21.456,0.778 21.586,0.798 21.7,0.824 L21.7,0.824 C21.814,0.85 21.915,0.869 22.003,0.884 L22.003,0.884 C22.028,0.888 22.053,0.891 22.074,0.891 L22.074,0.891 C22.13,0.891 22.176,0.878 22.213,0.851 L22.213,0.851 C22.337,0.771 22.384,0.683 22.351,0.588 L22.351,0.588 C22.317,0.492 22.243,0.404 22.125,0.321 L22.125,0.321 C21.875,0.146 21.588,0.043 21.264,0.013 L21.264,0.013 C21.169,0.005 21.073,-0 20.976,-0 z"/>
    </clipPath>
    <linearGradient id="Gradient_5" gradientUnits="userSpaceOnUse" x1="24.088" y1="8.904" x2="28.426" y2="1.39">
      <stop offset="0" stop-color="#7A3827"/>
      <stop offset="1" stop-color="#91522C"/>
    </linearGradient>
    <linearGradient id="Gradient_6" gradientUnits="userSpaceOnUse" x1="27.594" y1="8.984" x2="31.727" y2="1.826">
      <stop offset="0" stop-color="#7A3827"/>
      <stop offset="1" stop-color="#91522C"/>
    </linearGradient>
    <linearGradient id="Gradient_7" gradientUnits="userSpaceOnUse" x1="35.46" y1="8.504" x2="39.667" y2="1.217">
      <stop offset="0" stop-color="#7A3827"/>
      <stop offset="1" stop-color="#91522C"/>
    </linearGradient>
    <linearGradient id="Gradient_8" gradientUnits="userSpaceOnUse" x1="38.331" y1="8.984" x2="42.464" y2="1.826">
      <stop offset="0" stop-color="#7A3827"/>
      <stop offset="1" stop-color="#91522C"/>
    </linearGradient>
    <linearGradient id="Gradient_9" gradientUnits="userSpaceOnUse" x1="42.076" y1="9.392" x2="46.659" y2="1.455">
      <stop offset="0" stop-color="#7A3827"/>
      <stop offset="1" stop-color="#91522C"/>
    </linearGradient>
    <clipPath id="Clip_2">
      <path d="M44.239,0.212 C44.084,0.212 43.928,0.247 43.77,0.317 L43.77,0.317 C43.611,0.386 43.461,0.478 43.319,0.592 L43.319,0.592 C43.174,0.707 43.042,0.834 42.921,0.978 L42.921,0.978 C42.799,1.121 42.695,1.27 42.608,1.424 L42.608,1.424 C42.43,1.733 42.287,2.072 42.176,2.439 L42.176,2.439 C42.066,2.806 41.982,3.179 41.923,3.558 L41.923,3.558 C41.863,3.936 41.82,4.309 41.791,4.677 L41.791,4.677 C41.762,5.044 41.742,5.387 41.737,5.702 L41.737,5.702 C41.729,5.878 41.723,6.097 41.719,6.358 L41.719,6.358 C41.716,6.619 41.712,6.875 41.708,7.129 L41.708,7.129 C41.704,7.384 41.702,7.607 41.697,7.802 L41.697,7.802 C41.693,7.997 41.692,8.115 41.692,8.16 L41.692,8.16 C41.692,8.27 41.69,8.402 41.685,8.557 L41.685,8.557 C41.682,8.711 41.695,8.853 41.725,8.981 L41.725,8.981 C41.754,9.11 41.809,9.21 41.891,9.279 L41.891,9.279 C41.934,9.317 41.99,9.337 42.058,9.337 L42.058,9.337 C42.114,9.337 42.179,9.322 42.254,9.295 L42.254,9.295 C42.328,9.273 42.382,9.242 42.419,9.202 L42.419,9.202 C42.456,9.161 42.483,9.108 42.496,9.042 L42.496,9.042 C42.511,8.976 42.52,8.897 42.523,8.805 L42.523,8.805 C42.528,8.713 42.533,8.601 42.541,8.469 L42.541,8.469 C42.548,8.27 42.553,8.05 42.557,7.807 L42.557,7.807 C42.56,7.564 42.565,7.325 42.568,7.091 L42.568,7.091 C42.571,6.856 42.574,6.641 42.574,6.446 L42.574,6.446 C42.574,6.251 42.577,6.102 42.584,5.999 L42.584,5.999 C42.863,5.992 43.156,5.977 43.461,5.955 L43.461,5.955 C43.765,5.933 44.068,5.916 44.371,5.9 L44.371,5.9 L44.371,6.468 L44.371,7.278 C44.371,7.573 44.374,7.873 44.381,8.182 L44.381,8.182 C44.389,8.492 44.407,8.778 44.437,9.042 L44.437,9.042 C44.465,9.307 44.506,9.533 44.557,9.72 L44.557,9.72 C44.609,9.907 44.679,10.024 44.768,10.067 L44.768,10.067 C44.899,10.133 45.059,10.179 45.246,10.204 L45.246,10.204 C45.28,10.21 45.312,10.212 45.344,10.212 L45.344,10.212 C45.489,10.212 45.607,10.164 45.704,10.067 L45.704,10.067 C45.793,9.986 45.842,9.929 45.852,9.897 L45.852,9.897 C45.863,9.863 45.862,9.785 45.848,9.66 L45.848,9.66 C45.84,9.343 45.838,9.009 45.842,8.656 L45.842,8.656 C45.846,8.304 45.85,7.947 45.852,7.587 L45.852,7.587 C45.858,7.227 45.863,6.871 45.875,6.517 L45.875,6.517 C45.887,6.164 45.892,5.827 45.892,5.504 L45.892,5.504 C45.892,5.018 45.887,4.546 45.875,4.086 L45.875,4.086 C45.863,3.627 45.833,3.218 45.781,2.858 L45.781,2.858 C45.737,2.52 45.674,2.189 45.594,1.866 L45.594,1.866 C45.513,1.543 45.41,1.257 45.285,1.011 L45.285,1.011 C45.16,0.765 45.012,0.569 44.839,0.421 L44.839,0.421 C44.674,0.281 44.484,0.212 44.269,0.212 L44.269,0.212 C44.26,0.212 44.248,0.212 44.239,0.212 z M42.678,4.517 C42.711,4.226 42.752,3.931 42.799,3.63 L42.799,3.63 C42.848,3.327 42.907,3.034 42.976,2.748 L42.976,2.748 C43.045,2.461 43.123,2.205 43.207,1.981 L43.207,1.981 C43.291,1.757 43.384,1.576 43.483,1.436 L43.483,1.436 C43.582,1.296 43.682,1.222 43.785,1.215 L43.785,1.215 C43.882,1.215 43.966,1.279 44.039,1.408 L44.039,1.408 C44.113,1.536 44.174,1.705 44.221,1.91 L44.221,1.91 C44.269,2.116 44.308,2.347 44.338,2.604 L44.338,2.604 C44.367,2.861 44.389,3.115 44.403,3.364 L44.403,3.364 C44.426,3.754 44.433,4.117 44.426,4.451 L44.426,4.451 C44.418,4.785 44.403,5.022 44.381,5.162 L44.381,5.162 C44.315,5.176 44.19,5.191 44.006,5.206 L44.006,5.206 C43.822,5.22 43.631,5.234 43.434,5.25 L43.434,5.25 C43.234,5.265 43.055,5.276 42.892,5.283 L42.892,5.283 C42.731,5.29 42.643,5.293 42.628,5.293 L42.628,5.293 C42.628,5.066 42.645,4.807 42.678,4.517 z"/>
    </clipPath>
    <linearGradient id="Gradient_10" gradientUnits="userSpaceOnUse" x1="13.54" y1="9.87" x2="18.122" y2="1.933">
      <stop offset="0" stop-color="#7A3827"/>
      <stop offset="1" stop-color="#91522C"/>
    </linearGradient>
    <linearGradient id="Gradient_11" gradientUnits="userSpaceOnUse" x1="31.744" y1="9.321" x2="36.127" y2="1.73">
      <stop offset="0" stop-color="#7A3827"/>
      <stop offset="1" stop-color="#91522C"/>
    </linearGradient>
  </defs>
  <g id="Layer_1">
    <path d="M1.301,0.626 C1.036,0.784 0.817,0.993 0.645,1.254 L0.645,1.254 C0.473,1.514 0.34,1.812 0.247,2.146 L0.247,2.146 C0.156,2.481 0.091,2.827 0.055,3.183 L0.055,3.183 C0.018,3.54 0,3.888 0,4.23 L0,4.23 C0,4.572 0.007,4.879 0.022,5.151 L0.022,5.151 C0.044,5.576 0.078,5.999 0.127,6.418 L0.127,6.418 C0.175,6.837 0.221,7.246 0.265,7.642 L0.265,7.642 C0.308,7.959 0.404,8.253 0.551,8.529 L0.551,8.529 C0.698,8.805 0.883,9.044 1.108,9.246 L1.108,9.246 C1.332,9.447 1.588,9.604 1.874,9.715 L1.874,9.715 C2.127,9.812 2.39,9.861 2.666,9.861 L2.666,9.861 C2.703,9.861 2.74,9.86 2.777,9.858 L2.777,9.858 C3.145,9.843 3.458,9.752 3.715,9.582 L3.715,9.582 C3.973,9.413 4.187,9.199 4.36,8.937 L4.36,8.937 C4.532,8.676 4.668,8.379 4.767,8.044 L4.767,8.044 C4.866,7.71 4.943,7.367 4.994,7.014 L4.994,7.014 C5.044,6.661 5.078,6.308 5.093,5.955 L5.093,5.955 C5.107,5.603 5.118,5.279 5.126,4.985 L5.126,4.985 C5.134,4.625 5.13,4.271 5.116,3.921 L5.116,3.921 C5.1,3.573 5.071,3.246 5.027,2.941 L5.027,2.941 C4.983,2.635 4.92,2.36 4.839,2.113 L4.839,2.113 C4.759,1.868 4.659,1.671 4.542,1.524 L4.542,1.524 C4.409,1.355 4.264,1.212 4.107,1.095 L4.107,1.095 C3.948,0.976 3.756,0.878 3.528,0.797 L3.528,0.797 C3.417,0.774 3.333,0.759 3.274,0.753 L3.274,0.753 C3.215,0.745 3.165,0.735 3.126,0.724 L3.126,0.724 C3.084,0.713 3.043,0.696 2.999,0.67 L2.999,0.67 C2.954,0.644 2.888,0.601 2.8,0.543 L2.8,0.543 C2.653,0.44 2.477,0.388 2.271,0.388 L2.271,0.388 C1.889,0.388 1.565,0.467 1.301,0.626 z M2.188,8.778 C2.067,8.616 1.966,8.407 1.885,8.149 L1.885,8.149 C1.805,7.892 1.738,7.604 1.687,7.284 L1.687,7.284 C1.634,6.964 1.597,6.659 1.57,6.369 L1.57,6.369 C1.545,6.079 1.526,5.82 1.516,5.597 L1.516,5.597 C1.505,5.373 1.499,5.224 1.499,5.151 L1.499,5.151 C1.499,5.106 1.494,5.008 1.482,4.853 L1.482,4.853 C1.471,4.699 1.461,4.515 1.449,4.301 L1.449,4.301 C1.438,4.09 1.435,3.855 1.438,3.601 L1.438,3.601 C1.443,3.348 1.454,3.095 1.471,2.841 L1.471,2.841 C1.49,2.588 1.523,2.347 1.57,2.12 L1.57,2.12 C1.619,1.891 1.685,1.695 1.769,1.529 L1.769,1.529 C1.853,1.364 1.96,1.245 2.089,1.171 L2.089,1.171 C2.165,1.128 2.249,1.106 2.344,1.106 L2.344,1.106 C2.411,1.106 2.482,1.117 2.558,1.138 L2.558,1.138 C2.602,1.153 2.668,1.193 2.756,1.259 L2.756,1.259 C2.844,1.326 2.932,1.392 3.02,1.457 L3.02,1.457 C3.124,1.538 3.234,1.626 3.351,1.722 L3.351,1.722 C3.454,1.767 3.533,1.79 3.588,1.795 L3.588,1.795 C3.643,1.797 3.689,1.851 3.726,1.954 L3.726,1.954 C3.777,2.086 3.825,2.256 3.869,2.466 L3.869,2.466 C3.913,2.675 3.948,2.907 3.973,3.161 L3.973,3.161 C4,3.415 4.018,3.688 4.029,3.982 L4.029,3.982 C4.04,4.276 4.042,4.574 4.034,4.875 L4.034,4.875 C4.027,5.015 4.017,5.209 4.001,5.46 L4.001,5.46 C3.987,5.71 3.961,5.979 3.924,6.27 L3.924,6.27 C3.888,6.56 3.839,6.86 3.775,7.169 L3.775,7.169 C3.713,7.477 3.631,7.759 3.528,8.017 L3.528,8.017 C3.424,8.274 3.298,8.492 3.147,8.667 L3.147,8.667 C2.997,8.844 2.822,8.947 2.624,8.976 L2.624,8.976 C2.597,8.981 2.572,8.983 2.547,8.983 L2.547,8.983 C2.41,8.983 2.291,8.915 2.188,8.778 z" fill="url(#Gradient_1)"/>
    <path d="M6.565,0.15 C6.362,0.242 6.192,0.37 6.052,0.532 L6.052,0.532 C5.913,0.693 5.801,0.884 5.716,1.105 L5.716,1.105 C5.631,1.326 5.575,1.561 5.545,1.811 L5.545,1.811 C5.531,1.891 5.523,1.972 5.523,2.053 L5.523,2.053 L5.523,2.295 C5.523,2.553 5.543,2.816 5.584,3.083 L5.584,3.083 C5.624,3.352 5.679,3.615 5.749,3.872 L5.749,3.872 C5.818,4.129 5.905,4.373 6.008,4.604 L6.008,4.604 C6.111,4.837 6.228,5.048 6.361,5.239 L6.361,5.239 C6.537,5.496 6.71,5.729 6.879,5.939 L6.879,5.939 C7.048,6.148 7.214,6.352 7.375,6.55 L7.375,6.55 C7.536,6.749 7.689,6.949 7.833,7.152 L7.833,7.152 C7.976,7.354 8.103,7.575 8.212,7.817 L8.212,7.817 L8.257,7.907 C8.345,8.105 8.431,8.323 8.516,8.563 L8.516,8.563 C8.6,8.801 8.643,9.072 8.643,9.373 L8.643,9.373 C8.643,9.432 8.641,9.489 8.637,9.544 L8.637,9.544 C8.634,9.6 8.628,9.655 8.62,9.715 L8.62,9.715 C8.613,9.789 8.593,9.863 8.56,9.94 L8.56,9.94 C8.527,10.018 8.484,10.089 8.433,10.156 L8.433,10.156 C8.382,10.221 8.327,10.281 8.267,10.331 L8.267,10.331 C8.209,10.383 8.154,10.42 8.103,10.442 L8.103,10.442 C8.014,10.479 7.926,10.509 7.838,10.531 L7.838,10.531 C7.75,10.553 7.673,10.576 7.606,10.602 L7.606,10.602 C7.54,10.627 7.487,10.659 7.447,10.696 L7.447,10.696 C7.406,10.733 7.382,10.784 7.375,10.85 L7.375,10.85 L7.375,10.871 C7.375,10.975 7.411,11.056 7.485,11.115 L7.485,11.115 C7.558,11.174 7.658,11.202 7.782,11.202 L7.782,11.202 C7.842,11.202 7.885,11.199 7.915,11.192 L7.915,11.192 L7.905,11.269 C8.059,11.247 8.205,11.21 8.345,11.158 L8.345,11.158 C8.484,11.108 8.613,11.048 8.731,10.982 L8.731,10.982 C8.981,10.865 9.184,10.699 9.342,10.487 L9.342,10.487 C9.501,10.273 9.62,10.034 9.701,9.77 L9.701,9.77 C9.789,9.476 9.833,9.171 9.833,8.855 L9.833,8.855 C9.833,8.363 9.742,7.921 9.558,7.531 L9.558,7.531 C9.426,7.252 9.271,6.983 9.094,6.721 L9.094,6.721 C8.918,6.461 8.729,6.204 8.527,5.95 L8.527,5.95 C8.325,5.697 8.121,5.439 7.915,5.178 L7.915,5.178 C7.709,4.918 7.514,4.644 7.331,4.357 L7.331,4.357 C7.258,4.246 7.186,4.113 7.115,3.955 L7.115,3.955 C7.046,3.796 6.984,3.623 6.929,3.436 L6.929,3.436 C6.873,3.249 6.827,3.057 6.79,2.858 L6.79,2.858 C6.754,2.66 6.736,2.462 6.736,2.262 L6.736,2.262 L6.736,2.13 C6.736,2.086 6.739,2.047 6.746,2.009 L6.746,2.009 C6.783,1.656 6.866,1.356 6.994,1.11 L6.994,1.11 C7.123,0.864 7.32,0.741 7.584,0.741 L7.584,0.741 C7.65,0.741 7.724,0.751 7.805,0.769 L7.805,0.769 C7.885,0.788 7.97,0.818 8.059,0.863 L8.059,0.863 C8.228,0.942 8.378,0.984 8.51,0.984 L8.51,0.984 C8.709,0.984 8.808,0.91 8.808,0.763 L8.808,0.763 C8.808,0.653 8.731,0.529 8.576,0.394 L8.576,0.394 C8.422,0.257 8.18,0.153 7.849,0.079 L7.849,0.079 C7.636,0.035 7.441,0.013 7.265,0.013 L7.265,0.013 C7,0.013 6.766,0.059 6.565,0.15 z" fill="url(#Gradient_2)"/>
    <path d="M10.39,0.779 C10.349,0.901 10.329,1.034 10.329,1.182 L10.329,1.182 L10.329,1.501 C10.307,2.362 10.296,3.203 10.296,4.026 L10.296,4.026 C10.296,4.129 10.294,4.309 10.291,4.566 L10.291,4.566 C10.287,4.824 10.285,5.125 10.285,5.47 L10.285,5.47 C10.285,5.852 10.287,6.264 10.29,6.705 L10.29,6.705 C10.294,7.146 10.301,7.563 10.312,7.956 L10.312,7.956 C10.323,8.349 10.336,8.697 10.351,8.997 L10.351,8.997 C10.365,9.299 10.387,9.498 10.416,9.593 L10.416,9.593 C10.467,9.777 10.577,9.916 10.744,10.013 L10.744,10.013 C10.912,10.108 11.086,10.156 11.269,10.156 L11.269,10.156 C11.342,10.156 11.392,10.152 11.422,10.144 L11.422,10.144 C11.524,10.13 11.61,10.085 11.679,10.013 L11.679,10.013 C11.749,9.939 11.785,9.829 11.785,9.681 L11.785,9.681 C11.785,9.652 11.782,9.623 11.779,9.593 L11.779,9.593 C11.775,9.563 11.769,9.531 11.762,9.493 L11.762,9.493 C11.718,9.266 11.685,8.981 11.663,8.639 L11.663,8.639 C11.641,8.298 11.623,7.931 11.608,7.538 L11.608,7.538 C11.593,7.144 11.584,6.742 11.58,6.33 L11.58,6.33 C11.577,5.919 11.575,5.525 11.575,5.151 L11.575,5.151 L11.575,4.004 C11.575,3.688 11.58,3.352 11.591,2.995 L11.591,2.995 C11.603,2.639 11.608,2.321 11.608,2.041 L11.608,2.041 C11.608,1.748 11.596,1.535 11.575,1.403 L11.575,1.403 C11.539,1.226 11.493,1.082 11.438,0.968 L11.438,0.968 C11.383,0.853 11.294,0.771 11.171,0.719 L11.171,0.719 C10.988,0.638 10.832,0.597 10.701,0.597 L10.701,0.597 C10.534,0.597 10.429,0.659 10.39,0.779 z" fill="url(#Gradient_3)"/>
    <g clip-path="url(#Clip_1)">
      <path d="M20.993,-0 C21.169,0.004 21.078,0 21.264,0.012 C21.588,0.043 21.875,0.146 22.125,0.32 C22.243,0.404 22.317,0.492 22.351,0.587 C22.384,0.683 22.337,0.771 22.213,0.85 C22.176,0.878 22.13,0.891 22.074,0.89 C22.053,0.891 22.028,0.888 22.003,0.883 C21.915,0.869 21.814,0.85 21.7,0.823 C21.586,0.798 21.456,0.778 21.309,0.762 C21.27,0.759 21.23,0.757 21.19,0.756 C21.078,0.757 20.962,0.772 20.84,0.8 C20.676,0.843 20.497,0.922 20.306,1.038 C20.115,1.157 19.916,1.329 19.71,1.556 C19.38,1.917 19.124,2.341 18.944,2.829 C18.764,3.318 18.641,3.831 18.575,4.367 C18.508,4.926 18.508,5.481 18.575,6.032 C18.641,6.584 18.799,7.083 19.049,7.531 C19.247,7.884 19.491,8.125 19.782,8.252 C19.96,8.332 20.133,8.373 20.302,8.373 C20.408,8.373 20.512,8.357 20.615,8.326 L20.637,8.326 C20.82,8.274 20.973,8.19 21.093,8.071 C21.215,7.954 21.315,7.815 21.391,7.654 C21.469,7.492 21.527,7.317 21.568,7.129 C21.608,6.942 21.636,6.749 21.65,6.549 C21.672,6.294 21.682,6.044 21.677,5.801 C21.675,5.559 21.669,5.343 21.661,5.15 C21.607,5.14 21.554,5.136 21.502,5.135 C21.442,5.136 21.383,5.142 21.326,5.155 C21.218,5.182 21.11,5.206 21.001,5.227 C20.89,5.251 20.773,5.261 20.648,5.26 C20.523,5.261 20.383,5.228 20.228,5.161 C20.096,5.103 20.025,5.013 20.013,4.891 C20.003,4.77 20.07,4.666 20.218,4.577 C20.299,4.533 20.408,4.5 20.548,4.477 C20.687,4.455 20.834,4.44 20.989,4.427 C21.144,4.417 21.292,4.411 21.435,4.405 C21.579,4.403 21.698,4.394 21.794,4.378 C22.015,4.35 22.194,4.329 22.334,4.319 C22.361,4.316 22.389,4.315 22.415,4.314 C22.518,4.315 22.603,4.333 22.67,4.367 C22.755,4.412 22.815,4.488 22.852,4.6 C22.889,4.71 22.915,4.867 22.929,5.072 C22.937,5.213 22.946,5.353 22.957,5.492 C22.968,5.632 22.981,5.754 22.996,5.855 C23.054,6.252 23.067,6.63 23.035,6.986 C23.001,7.343 22.905,7.666 22.747,7.956 C22.59,8.247 22.361,8.499 22.064,8.711 C21.766,8.925 21.386,9.09 20.923,9.207 C20.678,9.27 20.443,9.301 20.218,9.301 C19.906,9.301 19.612,9.241 19.336,9.124 C18.858,8.924 18.446,8.609 18.101,8.182 C17.697,7.675 17.411,7.096 17.247,6.445 C17.081,5.795 17.024,5.136 17.076,4.466 C17.127,3.798 17.284,3.152 17.544,2.526 C17.806,1.903 18.156,1.37 18.597,0.927 C18.796,0.73 19.043,0.556 19.341,0.404 C19.639,0.255 19.953,0.144 20.283,0.073 C20.743,0.001 20.514,0.025 20.969,-0 L20.993,-0 z" fill="url(#Gradient_4)"/>
    </g>
    <path d="M26.932,0.63 C26.828,0.653 26.748,0.682 26.688,0.719 L26.688,0.719 C26.629,0.755 26.586,0.8 26.556,0.851 L26.556,0.851 C26.527,0.903 26.51,0.963 26.506,1.032 L26.506,1.032 C26.502,1.103 26.501,1.178 26.501,1.259 L26.501,1.259 C26.494,1.487 26.499,1.725 26.518,1.97 L26.518,1.97 C26.536,2.216 26.554,2.461 26.572,2.704 L26.572,2.704 C26.59,2.946 26.606,3.181 26.618,3.408 L26.618,3.408 C26.628,3.636 26.626,3.85 26.611,4.048 L26.611,4.048 C26.574,4.004 26.516,3.92 26.436,3.794 L26.436,3.794 C26.354,3.669 26.262,3.524 26.159,3.359 L26.159,3.359 C26.057,3.194 25.945,3.017 25.828,2.83 L25.828,2.83 C25.711,2.642 25.597,2.464 25.486,2.295 L25.486,2.295 C25.377,2.127 25.276,1.974 25.184,1.837 L25.184,1.837 C25.092,1.702 25.016,1.605 24.958,1.545 L24.958,1.545 C24.84,1.421 24.727,1.32 24.616,1.243 L24.616,1.243 C24.515,1.171 24.417,1.137 24.322,1.137 L24.322,1.137 C24.314,1.137 24.305,1.137 24.296,1.138 L24.296,1.138 C24.12,1.145 23.999,1.187 23.932,1.264 L23.932,1.264 C23.866,1.341 23.827,1.437 23.817,1.551 L23.817,1.551 C23.806,1.665 23.811,1.796 23.834,1.943 L23.834,1.943 C23.855,2.089 23.866,2.241 23.866,2.395 L23.866,2.395 L23.899,3.508 C23.914,3.669 23.925,3.892 23.932,4.175 L23.932,4.175 C23.94,4.459 23.947,4.772 23.954,5.117 L23.954,5.117 C23.962,5.507 23.969,5.91 23.976,6.33 L23.976,6.33 C23.983,6.749 23.993,7.139 24.004,7.499 L24.004,7.499 C24.015,7.859 24.03,8.163 24.048,8.414 L24.048,8.414 C24.066,8.664 24.09,8.814 24.12,8.866 L24.12,8.866 C24.15,8.917 24.212,8.972 24.307,9.031 L24.307,9.031 C24.403,9.09 24.506,9.131 24.616,9.152 L24.616,9.152 C24.657,9.16 24.697,9.165 24.736,9.165 L24.736,9.165 C24.799,9.165 24.858,9.154 24.914,9.131 L24.914,9.131 C25.002,9.093 25.057,9.003 25.079,8.855 L25.079,8.855 C25.101,8.716 25.096,8.561 25.062,8.392 L25.062,8.392 C25.029,8.223 25.006,8.084 24.99,7.972 L24.99,7.972 C24.925,7.509 24.88,7.043 24.858,6.573 L24.858,6.573 C24.836,6.102 24.815,5.632 24.792,5.162 L24.792,5.162 C24.777,4.839 24.77,4.524 24.77,4.219 L24.77,4.219 C24.77,3.913 24.777,3.622 24.792,3.342 L24.792,3.342 C24.799,3.21 24.801,3.096 24.798,3.001 L24.798,3.001 C24.794,2.905 24.799,2.846 24.815,2.824 L24.815,2.824 C24.858,2.884 24.92,2.971 25.002,3.089 L25.002,3.089 C25.082,3.207 25.144,3.299 25.189,3.364 L25.189,3.364 C25.263,3.467 25.326,3.567 25.382,3.662 L25.382,3.662 C25.438,3.759 25.494,3.855 25.553,3.955 L25.553,3.955 C25.611,4.055 25.672,4.153 25.735,4.252 L25.735,4.252 C25.797,4.351 25.869,4.46 25.949,4.578 L25.949,4.578 C26.001,4.644 26.049,4.71 26.094,4.776 L26.094,4.776 C26.137,4.842 26.186,4.905 26.236,4.964 L26.236,4.964 C26.274,5.015 26.328,5.077 26.402,5.151 L26.402,5.151 C26.474,5.224 26.523,5.283 26.545,5.326 L26.545,5.326 C26.56,5.356 26.571,5.426 26.578,5.537 L26.578,5.537 C26.586,5.647 26.59,5.768 26.59,5.9 L26.59,5.9 L26.59,6.286 C26.59,6.411 26.593,6.506 26.6,6.573 L26.6,6.573 L26.766,8.976 C26.751,9.321 26.803,9.57 26.92,9.72 L26.92,9.72 C27.037,9.87 27.257,9.968 27.581,10.013 L27.581,10.013 C27.635,10.018 27.684,10.022 27.73,10.022 L27.73,10.022 C27.834,10.022 27.92,10.005 27.984,9.968 L27.984,9.968 C28.076,9.916 28.141,9.835 28.182,9.725 L28.182,9.725 C28.223,9.616 28.242,9.477 28.242,9.312 L28.242,9.312 C28.242,9.147 28.238,8.965 28.232,8.766 L28.232,8.766 L28.111,5.117 C28.103,4.985 28.095,4.799 28.088,4.561 L28.088,4.561 C28.081,4.322 28.07,4.059 28.055,3.773 L28.055,3.773 C28.041,3.486 28.02,3.19 27.995,2.886 L27.995,2.886 C27.968,2.58 27.935,2.295 27.896,2.031 L27.896,2.031 C27.854,1.766 27.805,1.535 27.746,1.337 L27.746,1.337 C27.688,1.138 27.621,0.998 27.549,0.917 L27.549,0.917 C27.4,0.807 27.283,0.728 27.195,0.68 L27.195,0.68 C27.128,0.644 27.06,0.626 26.993,0.626 L26.993,0.626 C26.973,0.626 26.951,0.627 26.932,0.63 z" fill="url(#Gradient_5)"/>
    <path d="M29.02,0.779 C28.978,0.901 28.959,1.034 28.959,1.182 L28.959,1.182 L28.959,1.501 C28.938,2.362 28.926,3.203 28.926,4.026 L28.926,4.026 C28.926,4.129 28.924,4.309 28.92,4.566 L28.92,4.566 C28.916,4.824 28.915,5.125 28.915,5.47 L28.915,5.47 C28.915,5.852 28.916,6.264 28.92,6.705 L28.92,6.705 C28.924,7.146 28.931,7.563 28.942,7.956 L28.942,7.956 C28.953,8.349 28.966,8.697 28.981,8.997 L28.981,8.997 C28.995,9.299 29.018,9.498 29.046,9.593 L29.046,9.593 C29.098,9.777 29.207,9.916 29.374,10.013 L29.374,10.013 C29.541,10.108 29.717,10.156 29.898,10.156 L29.898,10.156 C29.972,10.156 30.023,10.152 30.052,10.144 L30.052,10.144 C30.154,10.13 30.24,10.085 30.309,10.013 L30.309,10.013 C30.379,9.939 30.414,9.829 30.414,9.681 L30.414,9.681 C30.414,9.652 30.412,9.623 30.408,9.593 L30.408,9.593 C30.405,9.563 30.399,9.531 30.393,9.493 L30.393,9.493 C30.348,9.266 30.316,8.981 30.293,8.639 L30.293,8.639 C30.271,8.298 30.253,7.931 30.238,7.538 L30.238,7.538 C30.223,7.144 30.215,6.742 30.211,6.33 L30.211,6.33 C30.207,5.919 30.205,5.525 30.205,5.151 L30.205,5.151 L30.205,4.004 C30.205,3.688 30.211,3.352 30.221,2.995 L30.221,2.995 C30.233,2.639 30.238,2.321 30.238,2.041 L30.238,2.041 C30.238,1.748 30.227,1.535 30.205,1.403 L30.205,1.403 C30.168,1.226 30.123,1.082 30.068,0.968 L30.068,0.968 C30.014,0.853 29.924,0.771 29.801,0.719 L29.801,0.719 C29.618,0.638 29.462,0.597 29.33,0.597 L29.33,0.597 C29.163,0.597 29.058,0.659 29.02,0.779 z" fill="url(#Gradient_6)"/>
    <path d="M36.996,0.223 C36.643,0.333 36.346,0.497 36.107,0.713 L36.107,0.713 C35.87,0.93 35.676,1.182 35.529,1.469 L35.529,1.469 C35.383,1.755 35.266,2.064 35.182,2.395 L35.182,2.395 C35.097,2.726 35.033,3.057 34.988,3.387 L34.988,3.387 C34.945,3.754 34.923,4.166 34.923,4.622 L34.923,4.622 C34.923,5.136 34.965,5.671 35.05,6.226 L35.05,6.226 C35.135,6.781 35.281,7.294 35.491,7.764 L35.491,7.764 C35.7,8.234 35.985,8.632 36.346,8.96 L36.346,8.96 C36.705,9.286 37.164,9.48 37.723,9.538 L37.723,9.538 C37.76,9.546 37.826,9.549 37.921,9.549 L37.921,9.549 C38.039,9.549 38.17,9.538 38.312,9.516 L38.312,9.516 C38.456,9.494 38.59,9.455 38.714,9.4 L38.714,9.4 C38.84,9.345 38.948,9.274 39.041,9.186 L39.041,9.186 C39.133,9.097 39.185,8.988 39.2,8.855 L39.2,8.855 C39.112,8.759 39.011,8.699 38.897,8.673 L38.897,8.673 C38.783,8.647 38.664,8.634 38.539,8.634 L38.539,8.634 C38.472,8.634 38.404,8.636 38.335,8.64 L38.335,8.64 C38.265,8.644 38.19,8.646 38.11,8.646 L38.11,8.646 C37.984,8.646 37.861,8.636 37.741,8.618 L37.741,8.618 C37.618,8.599 37.5,8.557 37.387,8.492 L37.387,8.492 C37.273,8.425 37.161,8.328 37.051,8.199 L37.051,8.199 C36.941,8.07 36.842,7.896 36.754,7.675 L36.754,7.675 C36.628,7.375 36.524,6.977 36.439,6.485 L36.439,6.485 C36.355,5.992 36.297,5.368 36.267,4.611 L36.267,4.611 C36.261,4.552 36.255,4.488 36.252,4.417 L36.252,4.417 C36.248,4.348 36.246,4.273 36.246,4.192 L36.246,4.192 C36.246,3.927 36.266,3.632 36.307,3.304 L36.307,3.304 C36.346,2.977 36.413,2.66 36.505,2.351 L36.505,2.351 C36.597,2.042 36.72,1.764 36.874,1.518 L36.874,1.518 C37.029,1.272 37.219,1.097 37.447,0.995 L37.447,0.995 C37.499,0.972 37.564,0.962 37.646,0.962 L37.646,0.962 C37.763,0.962 37.885,0.978 38.01,1.011 L38.01,1.011 C38.135,1.044 38.241,1.076 38.329,1.105 L38.329,1.105 C38.335,1.105 38.342,1.107 38.345,1.111 L38.345,1.111 C38.35,1.114 38.355,1.117 38.363,1.117 L38.363,1.117 C38.443,1.146 38.513,1.159 38.572,1.159 L38.572,1.159 C38.689,1.159 38.748,1.109 38.748,1.005 L38.748,1.005 C38.748,0.925 38.708,0.825 38.627,0.708 L38.627,0.708 C38.525,0.561 38.35,0.436 38.103,0.333 L38.103,0.333 C37.858,0.23 37.606,0.179 37.347,0.179 L37.347,0.179 C37.209,0.179 37.091,0.194 36.996,0.223 z" fill="url(#Gradient_7)"/>
    <path d="M39.756,0.779 C39.717,0.901 39.696,1.034 39.696,1.182 L39.696,1.182 L39.696,1.501 C39.674,2.362 39.664,3.203 39.664,4.026 L39.664,4.026 C39.664,4.129 39.661,4.309 39.659,4.566 L39.659,4.566 C39.654,4.824 39.652,5.125 39.652,5.47 L39.652,5.47 C39.652,5.852 39.654,6.264 39.659,6.705 L39.659,6.705 C39.661,7.146 39.668,7.563 39.68,7.956 L39.68,7.956 C39.692,8.349 39.704,8.697 39.718,8.997 L39.718,8.997 C39.732,9.299 39.754,9.498 39.784,9.593 L39.784,9.593 C39.834,9.777 39.945,9.916 40.111,10.013 L40.111,10.013 C40.279,10.108 40.453,10.156 40.636,10.156 L40.636,10.156 C40.709,10.156 40.76,10.152 40.789,10.144 L40.789,10.144 C40.891,10.13 40.977,10.085 41.047,10.013 L41.047,10.013 C41.117,9.939 41.152,9.829 41.152,9.681 L41.152,9.681 C41.152,9.652 41.15,9.623 41.146,9.593 L41.146,9.593 C41.143,9.563 41.136,9.531 41.129,9.493 L41.129,9.493 C41.086,9.266 41.053,8.981 41.031,8.639 L41.031,8.639 C41.008,8.298 40.99,7.931 40.974,7.538 L40.974,7.538 C40.961,7.144 40.951,6.742 40.947,6.33 L40.947,6.33 C40.944,5.919 40.941,5.525 40.941,5.151 L40.941,5.151 L40.941,4.004 C40.941,3.688 40.947,3.352 40.959,2.995 L40.959,2.995 C40.97,2.639 40.974,2.321 40.974,2.041 L40.974,2.041 C40.974,1.748 40.964,1.535 40.943,1.403 L40.943,1.403 C40.906,1.226 40.86,1.082 40.806,0.968 L40.806,0.968 C40.751,0.853 40.662,0.771 40.538,0.719 L40.538,0.719 C40.355,0.638 40.199,0.597 40.068,0.597 L40.068,0.597 C39.901,0.597 39.797,0.659 39.756,0.779 z" fill="url(#Gradient_8)"/>
    <g clip-path="url(#Clip_2)">
      <path d="M44.269,0.211 C44.484,0.212 44.674,0.281 44.839,0.42 C45.012,0.569 45.16,0.765 45.285,1.01 C45.41,1.257 45.513,1.543 45.594,1.865 C45.674,2.189 45.737,2.52 45.781,2.857 C45.833,3.218 45.863,3.627 45.875,4.085 C45.892,5 45.887,4.552 45.892,5.432 L45.892,5.553 C45.887,6.171 45.892,5.85 45.875,6.516 C45.863,6.871 45.858,7.227 45.852,7.586 C45.85,7.947 45.846,8.304 45.842,8.656 C45.838,9.009 45.84,9.343 45.848,9.66 C45.862,9.785 45.863,9.863 45.852,9.897 C45.842,9.929 45.793,9.986 45.704,10.067 C45.607,10.164 45.489,10.212 45.344,10.212 C45.312,10.212 45.28,10.21 45.246,10.204 C45.059,10.179 44.899,10.133 44.768,10.067 C44.679,10.024 44.609,9.907 44.557,9.72 C44.506,9.533 44.465,9.307 44.437,9.042 C44.407,8.778 44.389,8.492 44.381,8.182 C44.374,7.873 44.371,7.573 44.371,7.278 L44.371,5.899 C44.068,5.916 43.765,5.933 43.461,5.954 C43.156,5.977 42.863,5.992 42.584,5.998 C42.577,6.102 42.574,6.251 42.574,6.445 C42.574,6.641 42.571,6.856 42.568,7.091 C42.565,7.325 42.56,7.564 42.557,7.807 C42.553,8.05 42.548,8.27 42.541,8.469 C42.533,8.601 42.528,8.713 42.523,8.804 C42.52,8.897 42.511,8.976 42.496,9.042 C42.483,9.108 42.456,9.161 42.419,9.201 C42.382,9.242 42.328,9.273 42.254,9.294 C42.179,9.322 42.114,9.337 42.058,9.337 C41.99,9.337 41.934,9.317 41.891,9.278 C41.809,9.21 41.754,9.11 41.725,8.981 C41.695,8.853 41.682,8.711 41.685,8.557 C41.69,8.402 41.692,8.27 41.692,8.16 C41.692,8.115 41.693,7.997 41.697,7.801 C41.702,7.607 41.704,7.384 41.708,7.129 C41.712,6.875 41.716,6.619 41.719,6.357 C41.723,6.097 41.729,5.878 41.737,5.701 C41.742,5.387 41.762,5.044 41.791,4.676 C41.82,4.309 41.863,3.936 41.923,3.557 C41.982,3.179 42.066,2.806 42.176,2.438 C42.287,2.072 42.43,1.733 42.608,1.423 C42.695,1.27 42.799,1.121 42.921,0.977 C43.042,0.834 43.174,0.707 43.319,0.591 C43.461,0.478 43.611,0.386 43.77,0.316 C43.928,0.247 44.084,0.212 44.239,0.211 L44.269,0.211 z M43.785,1.214 C43.682,1.222 43.582,1.296 43.483,1.435 C43.384,1.576 43.291,1.757 43.207,1.98 C43.123,2.205 43.045,2.461 42.976,2.747 C42.907,3.034 42.848,3.327 42.799,3.629 C42.752,3.931 42.711,4.226 42.678,4.516 C42.645,4.807 42.628,5.066 42.628,5.292 C42.643,5.293 42.731,5.29 42.892,5.282 C43.055,5.276 43.234,5.265 43.434,5.249 C43.631,5.234 43.822,5.22 44.006,5.205 C44.19,5.191 44.315,5.176 44.381,5.161 C44.403,5.022 44.418,4.785 44.426,4.45 C44.433,4.117 44.426,3.754 44.403,3.363 C44.389,3.115 44.367,2.861 44.338,2.603 C44.308,2.347 44.269,2.116 44.221,1.909 C44.174,1.705 44.113,1.536 44.039,1.407 C43.966,1.279 43.882,1.215 43.785,1.214 z" fill="url(#Gradient_9)"/>
    </g>
    <path d="M14.871,0.212 C14.717,0.212 14.56,0.247 14.403,0.317 L14.403,0.317 C14.244,0.386 14.093,0.478 13.951,0.592 L13.951,0.592 C13.807,0.707 13.675,0.834 13.554,0.978 L13.554,0.978 C13.432,1.121 13.327,1.27 13.239,1.424 L13.239,1.424 C13.063,1.733 12.919,2.072 12.81,2.439 L12.81,2.439 C12.699,2.806 12.614,3.179 12.556,3.558 L12.556,3.558 C12.497,3.936 12.453,4.309 12.424,4.677 L12.424,4.677 C12.395,5.044 12.376,5.387 12.369,5.702 L12.369,5.702 C12.361,5.878 12.356,6.097 12.352,6.358 L12.352,6.358 C12.349,6.619 12.344,6.875 12.341,7.129 L12.341,7.129 C12.337,7.384 12.334,7.607 12.33,7.802 L12.33,7.802 C12.326,7.997 12.325,8.115 12.325,8.16 L12.325,8.16 C12.325,8.27 12.323,8.402 12.319,8.557 L12.319,8.557 C12.315,8.711 12.328,8.853 12.357,8.981 L12.357,8.981 C12.387,9.11 12.442,9.21 12.523,9.279 L12.523,9.279 C12.567,9.317 12.622,9.337 12.69,9.337 L12.69,9.337 C12.748,9.337 12.812,9.322 12.887,9.295 L12.887,9.295 C12.96,9.273 13.015,9.242 13.052,9.202 L13.052,9.202 C13.089,9.161 13.115,9.108 13.129,9.042 L13.129,9.042 C13.144,8.976 13.153,8.897 13.157,8.805 L13.157,8.805 C13.16,8.713 13.166,8.601 13.173,8.469 L13.173,8.469 C13.18,8.27 13.186,8.05 13.189,7.807 L13.189,7.807 C13.193,7.564 13.198,7.325 13.2,7.091 L13.2,7.091 C13.204,6.856 13.207,6.641 13.207,6.446 L13.207,6.446 C13.207,6.251 13.21,6.102 13.217,5.999 L13.217,5.999 C13.496,5.992 13.789,5.977 14.093,5.955 L14.093,5.955 C14.398,5.933 14.702,5.916 15.003,5.9 L15.003,5.9 L15.003,6.468 L15.003,7.278 C15.003,7.573 15.007,7.873 15.014,8.182 L15.014,8.182 C15.019,8.384 15.047,8.573 15.074,8.754 L15.074,8.754 C15.083,8.838 15.094,8.921 15.109,9.005 L15.109,9.005 C15.11,9.017 15.112,9.029 15.114,9.041 L15.114,9.041 C15.114,9.042 15.114,9.042 15.115,9.042 L15.115,9.042 C15.115,9.045 15.115,9.049 15.115,9.051 L15.115,9.051 C15.127,9.142 15.152,9.223 15.18,9.301 L15.18,9.301 C15.192,9.343 15.199,9.385 15.213,9.428 L15.213,9.428 C15.309,9.729 15.444,10.006 15.617,10.259 L15.617,10.259 C15.774,10.487 15.961,10.679 16.176,10.833 L16.176,10.833 C16.391,10.988 16.636,11.085 16.908,11.121 L16.908,11.121 C17.041,11.147 17.182,11.165 17.33,11.171 L17.33,11.171 C17.36,11.174 17.391,11.174 17.421,11.174 L17.421,11.174 C17.54,11.174 17.661,11.164 17.784,11.142 L17.784,11.142 L17.75,11.073 C17.779,11.071 17.824,11.061 17.879,11.043 L17.879,11.043 C17.998,11.005 18.084,10.947 18.136,10.869 L18.136,10.869 C18.188,10.79 18.199,10.702 18.168,10.604 L18.168,10.604 L18.161,10.583 C18.134,10.522 18.095,10.48 18.046,10.457 L18.046,10.457 C17.996,10.435 17.935,10.421 17.865,10.418 L17.865,10.418 C17.834,10.415 17.801,10.413 17.766,10.413 L17.766,10.413 C17.722,10.413 17.674,10.416 17.623,10.419 L17.623,10.419 C17.584,10.421 17.546,10.422 17.508,10.422 L17.508,10.422 C17.454,10.422 17.399,10.42 17.344,10.415 L17.344,10.415 C17.288,10.41 17.224,10.391 17.153,10.36 L17.153,10.36 C17.081,10.329 17.011,10.291 16.942,10.243 L16.942,10.243 C16.873,10.194 16.81,10.139 16.756,10.076 L16.756,10.076 C16.7,10.013 16.658,9.947 16.63,9.878 L16.63,9.878 C16.605,9.825 16.582,9.773 16.562,9.721 L16.562,9.721 C16.541,9.67 16.522,9.617 16.504,9.56 L16.504,9.56 C16.494,9.527 16.487,9.497 16.477,9.464 L16.477,9.464 C16.474,9.205 16.472,8.939 16.475,8.656 L16.475,8.656 C16.478,8.304 16.483,7.947 16.486,7.587 L16.486,7.587 C16.49,7.227 16.497,6.871 16.509,6.517 L16.509,6.517 C16.519,6.164 16.524,5.827 16.524,5.504 L16.524,5.504 C16.524,5.018 16.519,4.546 16.509,4.086 L16.509,4.086 C16.497,3.627 16.465,3.218 16.414,2.858 L16.414,2.858 C16.37,2.52 16.308,2.189 16.227,1.866 L16.227,1.866 C16.146,1.543 16.043,1.257 15.918,1.011 L15.918,1.011 C15.793,0.765 15.645,0.569 15.472,0.421 L15.472,0.421 C15.307,0.281 15.117,0.212 14.903,0.212 L14.903,0.212 C14.892,0.212 14.882,0.212 14.871,0.212 z M13.311,4.517 C13.344,4.226 13.384,3.931 13.432,3.63 L13.432,3.63 C13.48,3.327 13.539,3.034 13.608,2.748 L13.608,2.748 C13.679,2.461 13.756,2.205 13.84,1.981 L13.84,1.981 C13.925,1.757 14.016,1.576 14.116,1.436 L14.116,1.436 C14.215,1.296 14.316,1.222 14.419,1.215 L14.419,1.215 C14.514,1.215 14.599,1.279 14.673,1.408 L14.673,1.408 C14.746,1.536 14.807,1.705 14.855,1.91 L14.855,1.91 C14.902,2.116 14.94,2.347 14.971,2.604 L14.971,2.604 C14.999,2.861 15.022,3.115 15.036,3.364 L15.036,3.364 C15.058,3.754 15.065,4.117 15.058,4.451 L15.058,4.451 C15.051,4.785 15.036,5.022 15.014,5.162 L15.014,5.162 C14.948,5.176 14.823,5.191 14.639,5.206 L14.639,5.206 C14.456,5.22 14.265,5.234 14.066,5.25 L14.066,5.25 C13.868,5.265 13.687,5.276 13.526,5.283 L13.526,5.283 C13.364,5.29 13.276,5.293 13.262,5.293 L13.262,5.293 C13.262,5.066 13.278,4.807 13.311,4.517 z" fill="url(#Gradient_10)"/>
    <path d="M31.671,0.499 C31.428,0.527 31.278,0.575 31.218,0.642 L31.218,0.642 C31.189,0.678 31.173,0.708 31.17,0.73 L31.17,0.73 C31.166,0.752 31.164,0.781 31.164,0.818 L31.164,0.818 C31.164,0.869 31.16,0.91 31.153,0.939 L31.153,0.939 C31.137,1.02 31.123,1.062 31.109,1.066 L31.109,1.066 C31.094,1.07 31.078,1.077 31.06,1.088 L31.06,1.088 C31.041,1.099 31.026,1.136 31.016,1.199 L31.016,1.199 C31.004,1.261 30.998,1.388 30.998,1.579 L30.998,1.579 C30.998,1.829 31,2.11 31.004,2.422 L31.004,2.422 C31.008,2.733 31.011,3.067 31.016,3.42 L31.016,3.42 C31.018,3.773 31.025,4.134 31.031,4.505 L31.031,4.505 C31.039,4.876 31.049,5.245 31.064,5.613 L31.064,5.613 C31.072,5.864 31.078,6.108 31.081,6.347 L31.081,6.347 C31.084,6.585 31.087,6.815 31.087,7.036 L31.087,7.036 C31.087,7.286 31.083,7.519 31.076,7.736 L31.076,7.736 C31.068,7.953 31.056,8.153 31.043,8.337 L31.043,8.337 C31.036,8.351 31.026,8.377 31.016,8.414 L31.016,8.414 C31.004,8.45 30.998,8.499 30.998,8.557 L30.998,8.557 C30.998,8.63 31.018,8.711 31.06,8.799 L31.06,8.799 C31.1,8.889 31.189,8.972 31.329,9.053 L31.329,9.053 C31.402,9.097 31.461,9.134 31.506,9.164 L31.506,9.164 C31.549,9.193 31.63,9.207 31.748,9.207 L31.748,9.207 C31.821,9.207 31.883,9.202 31.936,9.191 L31.936,9.191 C31.986,9.18 32.042,9.17 32.1,9.164 L32.1,9.164 C32.159,9.157 32.23,9.149 32.311,9.142 L32.311,9.142 C32.391,9.134 32.502,9.131 32.641,9.131 L32.641,9.131 L32.873,9.131 C32.939,9.131 33.014,9.132 33.098,9.136 L33.098,9.136 C33.183,9.139 33.269,9.142 33.358,9.142 L33.358,9.142 C33.371,9.142 33.385,9.141 33.398,9.139 L33.398,9.139 C33.421,9.275 33.451,9.412 33.495,9.549 L33.495,9.549 C33.591,9.851 33.742,10.063 33.916,10.317 L33.916,10.317 C34.073,10.544 34.246,10.72 34.461,10.877 L34.461,10.877 C34.677,11.031 34.853,11.122 35.127,11.158 L35.127,11.158 C35.258,11.186 35.403,11.213 35.553,11.221 L35.553,11.221 C35.66,11.225 35.758,11.244 35.862,11.244 L35.862,11.244 C35.902,11.244 35.942,11.242 35.986,11.235 L35.986,11.235 L35.951,11.165 C35.981,11.163 36.025,11.153 36.08,11.134 L36.08,11.134 C36.199,11.096 36.285,11.039 36.337,10.96 L36.337,10.96 C36.39,10.881 36.4,10.794 36.369,10.696 L36.369,10.696 L36.363,10.674 C36.336,10.614 36.297,10.572 36.247,10.549 L36.247,10.549 C36.197,10.527 36.137,10.512 36.067,10.509 L36.067,10.509 C36.035,10.507 36.002,10.505 35.968,10.505 L35.968,10.505 C35.924,10.505 35.875,10.508 35.824,10.51 L35.824,10.51 C35.785,10.512 35.748,10.514 35.709,10.514 L35.709,10.514 C35.655,10.514 35.6,10.511 35.545,10.507 L35.545,10.507 C35.491,10.501 35.426,10.483 35.354,10.452 L35.354,10.452 C35.284,10.42 35.212,10.382 35.142,10.334 L35.142,10.334 C35.074,10.286 35.012,10.231 34.957,10.167 L34.957,10.167 C34.902,10.104 34.86,10.039 34.83,9.97 L34.83,9.97 C34.807,9.916 34.783,9.864 34.762,9.813 L34.762,9.813 C34.742,9.761 34.725,9.708 34.705,9.653 L34.705,9.653 C34.615,9.365 34.573,9.096 34.581,8.842 L34.581,8.842 C34.582,8.791 34.586,8.745 34.588,8.698 L34.588,8.698 C34.588,8.692 34.592,8.685 34.592,8.678 L34.592,8.678 C34.592,8.674 34.59,8.672 34.59,8.667 L34.59,8.667 C34.59,8.658 34.59,8.648 34.591,8.638 L34.591,8.638 C34.588,8.64 34.586,8.64 34.584,8.642 L34.584,8.642 C34.564,8.548 34.47,8.467 34.294,8.402 L34.294,8.402 C34.148,8.351 34.006,8.316 33.87,8.298 L33.87,8.298 C33.735,8.28 33.592,8.271 33.445,8.271 L33.445,8.271 C33.299,8.271 33.152,8.276 33.004,8.287 L33.004,8.287 C32.857,8.298 32.699,8.304 32.531,8.304 L32.531,8.304 C32.45,8.296 32.4,8.277 32.382,8.249 L32.382,8.249 C32.363,8.219 32.354,8.163 32.354,8.084 L32.354,8.084 L32.354,7.841 C32.354,7.701 32.357,7.565 32.359,7.434 L32.359,7.434 C32.363,7.302 32.365,7.167 32.365,7.026 L32.365,7.026 C32.365,6.887 32.363,6.751 32.359,6.62 L32.359,6.62 C32.357,6.488 32.354,6.351 32.354,6.213 L32.354,6.213 C32.347,6.066 32.343,5.92 32.343,5.778 L32.343,5.778 L32.343,5.343 L32.343,4.98 C32.409,4.98 32.492,4.977 32.592,4.974 L32.592,4.974 C32.691,4.97 32.796,4.964 32.906,4.952 L32.906,4.952 C33.016,4.941 33.128,4.926 33.242,4.908 L33.242,4.908 C33.356,4.889 33.461,4.87 33.557,4.848 L33.557,4.848 C33.703,4.811 33.795,4.757 33.832,4.688 L33.832,4.688 C33.869,4.619 33.887,4.542 33.887,4.462 L33.887,4.462 L33.887,4.418 C33.887,4.359 33.87,4.302 33.837,4.247 L33.837,4.247 C33.805,4.193 33.728,4.147 33.611,4.109 L33.611,4.109 C33.553,4.095 33.493,4.084 33.43,4.076 L33.43,4.076 C33.368,4.07 33.303,4.066 33.236,4.066 L33.236,4.066 C33.119,4.066 33.004,4.072 32.894,4.083 L32.894,4.083 C32.784,4.093 32.682,4.098 32.586,4.098 L32.586,4.098 C32.446,4.098 32.358,4.076 32.322,4.033 L32.322,4.033 C32.306,3.842 32.294,3.673 32.283,3.527 L32.283,3.527 C32.271,3.38 32.261,3.215 32.25,3.031 L32.25,3.031 C32.238,2.848 32.223,2.664 32.2,2.481 L32.2,2.481 C32.186,2.283 32.174,2.097 32.167,1.925 L32.167,1.925 C32.159,1.752 32.156,1.616 32.156,1.512 L32.156,1.512 L32.156,1.381 C32.207,1.351 32.273,1.332 32.354,1.326 L32.354,1.326 C32.435,1.318 32.527,1.314 32.63,1.314 L32.63,1.314 L32.884,1.314 C32.986,1.314 33.086,1.316 33.181,1.32 L33.181,1.32 C33.277,1.324 33.376,1.326 33.478,1.326 L33.478,1.326 C33.7,1.326 33.899,1.309 34.08,1.274 L34.08,1.274 C34.259,1.242 34.379,1.162 34.438,1.034 L34.438,1.034 C34.453,0.991 34.46,0.96 34.46,0.946 L34.46,0.946 C34.46,0.878 34.436,0.817 34.389,0.761 L34.389,0.761 C34.34,0.706 34.299,0.671 34.262,0.655 L34.262,0.655 C34.159,0.611 33.98,0.572 33.727,0.537 L33.727,0.537 C33.474,0.504 33.196,0.48 32.894,0.465 L32.894,0.465 C32.828,0.465 32.762,0.464 32.695,0.459 L32.695,0.459 C32.63,0.456 32.565,0.455 32.498,0.455 L32.498,0.455 C32.189,0.455 31.913,0.469 31.671,0.499 z" fill="url(#Gradient_11)"/>
  </g>
</svg>
