<?xml version="1.0" encoding="utf-8"?>
<!-- Generator: Adobe Illustrator 16.0.0, SVG Export Plug-In . SVG Version: 6.00 Build 0)  -->
<!DOCTYPE svg PUBLIC "-//W3C//DTD SVG 1.1//EN" "http://www.w3.org/Graphics/SVG/1.1/DTD/svg11.dtd">
<svg version="1.1" id="Layer_1" xmlns="http://www.w3.org/2000/svg" xmlns:xlink="http://www.w3.org/1999/xlink" x="0px" y="0px"
	 width="170.66px" height="171.6px" viewBox="0 0 170.66 171.6" enable-background="new 0 0 170.66 171.6" xml:space="preserve">
<radialGradient id="SVGID_1_" cx="85.3301" cy="85.8003" r="85.5653" gradientUnits="userSpaceOnUse">
	<stop  offset="0" style="stop-color:#FFFFFF"/>
	<stop  offset="0.8587" style="stop-color:#FFFFFF;stop-opacity:0.1413"/>
	<stop  offset="1" style="stop-color:#FFFFFF;stop-opacity:0"/>
</radialGradient>
<path fill="url(#SVGID_1_)" d="M85.33,0v85.801L67.492,1.875L85.33,0z M34.897,16.386L85.33,85.801L50.433,7.417L34.897,16.386z
	 M11.025,42.899L85.33,85.801L21.568,28.388L11.025,42.899z M0,76.831l85.33,8.97L3.729,59.285L0,76.831z M3.729,112.314
	L85.33,85.801L0,94.768L3.729,112.314z M21.567,143.212L85.33,85.801L11.025,128.7L21.567,143.212z M50.432,164.182L85.33,85.801
	l-50.433,69.414L50.432,164.182z M85.33,171.6V85.801l-17.838,83.924L85.33,171.6z M120.229,164.182L85.33,85.801l17.838,83.924
	L120.229,164.182z M149.093,143.212L85.33,85.801l50.433,69.414L149.093,143.212z M166.932,112.314L85.33,85.801l74.305,42.899
	L166.932,112.314z M170.66,76.831l-85.33,8.97l85.33,8.968V76.831z M159.636,42.899L85.33,85.801l81.602-26.514L159.636,42.899z
	 M135.763,16.386L85.33,85.801l63.762-57.412L135.763,16.386z M103.168,1.875L85.33,85.801l34.899-78.383L103.168,1.875z"/>
</svg>
