<?xml version="1.0" encoding="UTF-8"?>
<!DOCTYPE svg PUBLIC "-//W3C//DTD SVG 1.1//EN" "http://www.w3.org/Graphics/SVG/1.1/DTD/svg11.dtd">
<svg version="1.1" xmlns="http://www.w3.org/2000/svg" xmlns:xlink="http://www.w3.org/1999/xlink" x="0" y="0" width="36.172" height="45.551" viewBox="0, 0, 36.172, 45.551">
  <defs>
    <clipPath id="Clip_1">
      <path d="M-0,0 L36.172,0 L36.172,45.551 L-0,45.551 z"/>
    </clipPath>
  </defs>
  <g id="Layer_1">
    <g clip-path="url(#Clip_1)">
      <path d="M18.982,34.07 C16.269,34.32 13.867,32.324 13.615,29.613 C13.363,26.9 15.355,24.496 18.068,24.24 C20.78,23.985 23.186,25.976 23.444,28.689 L23.445,28.708 C23.693,31.42 21.695,33.821 18.982,34.07 M35.788,39.471 L35.199,39.471 C33.855,35.484 33.547,28.722 33.65,26.957 L33.713,26.957 C33.862,26.957 33.983,26.836 33.983,26.687 C33.983,26.538 33.863,26.417 33.713,26.417 L27.704,26.601 C27.555,26.601 27.406,26.599 27.406,26.748 C27.406,26.897 27.03,26.957 27.178,26.957 L27.247,26.957 C27.352,28.085 27.002,26.953 26.516,30.321 C24.808,22.705 24.652,17.505 24.82,14.612 L24.942,14.612 C25.23,14.612 25.463,14.379 25.463,14.091 C25.463,13.803 25.23,13.569 24.942,13.569 L12.327,13.569 C12.04,13.569 11.806,13.803 11.806,14.091 C11.806,14.379 12.04,14.612 12.327,14.612 L12.459,14.612 C12.687,17.056 12.462,22.62 11.203,29.763 C10.764,26.18 10.606,25.396 10.681,24.121 L10.757,24.121 C10.938,24.121 11.085,23.974 11.085,23.793 C11.085,23.612 10.938,23.466 10.757,23.466 L2.828,23.466 C2.646,23.466 2.5,23.612 2.5,23.793 C2.5,23.974 2.646,24.121 2.828,24.121 L2.91,24.121 C3.099,26.155 2.73,34.529 1.114,39.308 L0.465,39.308 C0.209,39.308 0,39.516 0,39.773 C0,40.031 0.209,40.239 0.465,40.239 L8.43,40.239 C8.475,40.248 8.522,40.253 8.57,40.253 L28.947,40.253 C28.995,40.253 29.041,40.248 29.086,40.239 L35.787,40.239 C36,40.239 36.171,40.067 36.171,39.855 C36.171,39.643 36,39.471 35.788,39.471" fill="#9A6E38"/>
      <path d="M11.747,8.83 C12.523,11.777 18.961,12.475 18.961,12.475 C18.25,11.311 16.35,10.67 16.557,9.14 C15.629,7.043 13.376,8.817 14.617,4.951 C20.088,3.057 6.614,-2.078 6.163,0.918 C4.66,2.257 12.653,5.742 11.747,8.83" fill="#9A6E38"/>
      <path d="M18.555,32.677 C18.577,32.667 18.603,32.657 18.629,32.646 C18.644,32.644 18.659,32.644 18.674,32.642 C18.67,32.644 18.666,32.646 18.662,32.647 C18.591,32.676 18.586,32.667 18.555,32.677 M18.206,32.642 C18.223,32.644 18.241,32.644 18.257,32.646 C18.276,32.654 18.291,32.661 18.307,32.668 C18.306,32.669 18.303,32.672 18.301,32.675 C18.271,32.665 18.239,32.654 18.206,32.642 M18.182,25.804 C18.215,25.852 18.245,25.899 18.265,25.935 C18.323,26.038 18.376,26.179 18.421,26.335 C18.408,26.427 18.386,26.594 18.383,26.64 C18.31,26.411 18.242,26.134 18.189,25.839 C18.186,25.827 18.184,25.816 18.182,25.804 M18.521,26.83 C18.516,26.843 18.511,26.855 18.506,26.868 C18.504,26.802 18.5,26.728 18.498,26.671 C18.505,26.716 18.512,26.759 18.517,26.804 C18.519,26.812 18.52,26.82 18.521,26.83 M18.519,32.681 L18.513,32.681 C18.532,32.671 18.553,32.659 18.576,32.648 L18.595,32.648 z M18.323,32.65 C18.341,32.659 18.358,32.669 18.372,32.677 C18.369,32.676 18.367,32.675 18.363,32.674 C18.349,32.666 18.332,32.657 18.316,32.648 C18.318,32.648 18.321,32.65 18.323,32.65 M18.33,26.751 C18.33,26.752 18.33,26.754 18.331,26.755 L18.329,26.755 C18.326,26.755 18.325,26.756 18.322,26.759 C18.321,26.757 18.321,26.755 18.319,26.755 C18.323,26.753 18.326,26.751 18.33,26.751 M18.465,26.995 C18.459,27.011 18.453,27.023 18.45,27.031 C18.437,26.976 18.422,26.923 18.403,26.87 C18.394,26.846 18.385,26.823 18.377,26.8 C18.403,26.845 18.436,26.916 18.465,26.995 M18.721,27.259 C18.719,27.258 18.718,27.255 18.718,27.251 C18.723,27.249 18.731,27.246 18.742,27.24 C18.742,27.238 18.745,27.236 18.748,27.233 C18.737,27.245 18.728,27.255 18.721,27.259 M18.784,27.19 C18.786,27.187 18.787,27.184 18.789,27.181 L18.786,27.187 z M18.48,32.679 C18.468,32.679 18.46,32.684 18.457,32.698 C18.451,32.703 18.447,32.707 18.444,32.71 C18.443,32.71 18.443,32.709 18.441,32.708 C18.442,32.704 18.443,32.694 18.443,32.681 L18.481,32.665 C18.487,32.661 18.494,32.656 18.503,32.65 L18.514,32.65 C18.501,32.661 18.49,32.67 18.48,32.679 M18.387,32.651 C18.402,32.669 18.414,32.685 18.423,32.696 C18.413,32.685 18.399,32.669 18.382,32.651 z M18.441,29.544 L18.441,29.539 C18.447,29.538 18.452,29.537 18.457,29.536 L18.457,29.54 C18.452,29.542 18.447,29.542 18.441,29.544 M18.288,26.781 L18.288,26.781 C18.294,26.772 18.302,26.764 18.311,26.759 C18.306,26.767 18.301,26.788 18.293,26.822 L18.29,26.836 C18.29,26.818 18.288,26.798 18.288,26.781 M20.397,29.708 C20.31,29.579 20.221,29.476 20.023,29.279 C19.538,28.795 19.252,28.411 18.948,27.841 C18.797,27.56 18.797,27.562 18.919,27.268 C19,27.073 19.015,27.011 18.979,27.011 C18.972,27.011 18.964,27.014 18.955,27.018 C18.941,27.019 18.921,27.032 18.899,27.054 C18.876,27.073 18.852,27.098 18.829,27.125 C18.933,26.991 19.086,26.873 19.191,26.853 C19.219,26.847 19.279,26.847 19.323,26.851 C19.387,26.859 19.374,26.855 19.257,26.823 C19.091,26.781 19.007,26.788 18.908,26.857 C18.879,26.876 18.855,26.9 18.833,26.927 C18.855,26.873 18.873,26.825 18.882,26.797 C18.894,26.762 18.904,26.698 18.91,26.67 C18.919,26.63 18.926,26.558 18.929,26.51 C18.964,26.439 19.001,26.366 19.037,26.298 C19.193,26.007 19.325,25.82 19.508,25.626 C19.607,25.523 19.671,25.469 19.743,25.428 C19.794,25.4 19.806,25.39 19.795,25.386 C19.786,25.384 19.668,25.45 19.6,25.497 C19.253,25.734 18.971,26.035 18.784,26.365 C18.798,26.23 18.825,26.102 18.879,25.876 C18.94,25.628 18.944,25.594 18.906,25.629 C18.861,25.669 18.755,25.833 18.718,25.917 C18.692,25.979 18.662,26.079 18.651,26.146 C18.643,26.194 18.643,26.208 18.649,26.246 C18.657,26.298 18.654,26.544 18.647,26.667 C18.643,26.681 18.638,26.695 18.634,26.708 C18.633,26.687 18.63,26.667 18.628,26.653 C18.571,26.304 18.413,25.984 18.161,25.702 C18.139,25.599 18.127,25.585 18.12,25.656 C18.11,25.646 18.099,25.634 18.087,25.622 C18.029,25.564 17.951,25.496 17.945,25.501 C17.942,25.503 17.95,25.514 18.023,25.597 C18.051,25.63 18.084,25.671 18.117,25.714 C18.116,25.743 18.115,25.779 18.115,25.822 C18.113,25.962 18.122,26.019 18.164,26.163 C18.184,26.228 18.203,26.312 18.221,26.399 C18.124,26.054 17.943,25.713 17.692,25.411 C17.639,25.349 17.544,25.251 17.534,25.251 C17.523,25.251 17.532,25.265 17.573,25.306 C17.631,25.365 17.677,25.435 17.744,25.561 C17.868,25.796 17.944,26.014 18.014,26.336 C18.048,26.493 18.078,26.669 18.1,26.821 C18.095,26.814 18.089,26.807 18.084,26.8 C18.008,26.706 17.929,26.677 17.757,26.671 C17.637,26.668 17.622,26.67 17.687,26.68 C17.731,26.687 17.787,26.704 17.814,26.718 C17.893,26.758 17.985,26.872 18.049,26.999 C18.027,26.987 18.011,26.98 18.009,26.982 C18.004,26.986 18.023,27.038 18.048,27.097 C18.087,27.187 18.094,27.235 18.085,27.381 C18.076,27.542 18.064,27.579 17.949,27.808 C17.693,28.315 17.35,28.777 16.874,29.257 C16.421,29.712 16.201,30.097 16.107,30.598 C16.07,30.794 16.092,31.18 16.15,31.361 C16.352,31.987 17.004,32.439 18.027,32.661 C18.101,32.677 18.202,32.692 18.285,32.702 C18.28,32.714 18.275,32.727 18.27,32.741 C18.254,32.784 18.224,32.838 18.203,32.859 C18.173,32.89 18.171,32.896 18.194,32.896 C18.222,32.896 18.272,32.874 18.314,32.849 C18.309,32.863 18.306,32.878 18.306,32.896 C18.306,32.925 18.298,32.962 18.289,32.98 C18.269,33.018 18.284,33.017 18.349,32.978 C18.372,32.964 18.385,32.954 18.393,32.939 C18.394,32.997 18.387,33.06 18.369,33.119 C18.356,33.161 18.346,33.203 18.346,33.212 C18.346,33.263 18.467,33.017 18.494,32.907 C18.516,32.964 18.543,33.009 18.568,33.034 C18.59,33.057 18.614,33.075 18.62,33.075 C18.627,33.075 18.622,33.038 18.611,32.993 C18.599,32.95 18.59,32.868 18.589,32.804 C18.594,32.808 18.6,32.812 18.607,32.818 C18.645,32.843 18.683,32.853 18.741,32.853 L18.821,32.853 L18.739,32.806 C18.693,32.78 18.654,32.745 18.637,32.713 C18.636,32.71 18.634,32.707 18.633,32.704 C18.67,32.698 18.713,32.69 18.763,32.68 C19.936,32.442 20.611,31.945 20.764,31.207 C20.86,30.747 20.726,30.2 20.397,29.708" fill="#9A6E38"/>
      <path d="M18.341,33.003 z" fill="#9A6E38"/>
      <path d="M18.341,33.003 z" fill="#9A6E38"/>
      <path d="M29.088,21.61 C29.044,23.271 28.781,24.876 27.892,26.314 C27.45,27.031 26.918,27.663 25.838,27.95 C26.712,25.508 26.882,23.202 26.773,20.871 C26.743,20.186 27.017,20.035 27.625,20.06 C29.214,20.126 29.139,19.718 29.088,21.61 M8.279,26.314 C7.39,24.876 7.127,23.271 7.083,21.61 C7.033,19.718 6.958,20.126 8.548,20.06 C9.155,20.035 9.43,20.186 9.399,20.871 C9.288,23.202 9.46,25.508 10.333,27.95 C9.253,27.663 8.722,27.031 8.279,26.314 M30.698,17.764 C29.635,17.71 28.562,17.752 27.497,17.72 C27.264,17.713 27.006,17.672 26.944,17.49 C26.815,17.112 26.833,16.467 26.841,15.879 C26.853,15.165 27.462,15.41 27.913,15.299 C27.913,15.033 27.912,14.713 27.913,14.392 C27.913,13.177 27.913,13.176 26.739,13.176 C23.892,13.175 21.045,13.176 18.201,13.176 L18.085,13.176 L17.972,13.176 C15.125,13.176 12.277,13.175 9.433,13.176 C8.259,13.176 8.259,13.177 8.259,14.392 C8.26,14.713 8.259,15.033 8.259,15.299 C8.709,15.41 9.319,15.165 9.33,15.879 C9.34,16.467 9.356,17.112 9.228,17.49 C9.165,17.672 8.908,17.713 8.676,17.72 C7.609,17.752 6.537,17.71 5.472,17.764 C5.246,17.776 4.85,18.089 4.855,18.253 C4.909,20.329 4.893,22.419 5.165,24.47 C5.402,26.256 6.259,27.853 7.629,29.101 C8.56,29.948 9.635,30.395 10.923,30.324 C11.18,30.308 11.551,30.491 11.695,30.701 C12.759,32.244 14.059,33.494 15.769,34.31 C15.995,34.418 16.212,34.782 16.233,35.045 C16.297,35.781 16.269,36.523 16.248,37.263 C16.24,37.467 16.198,37.76 16.062,37.858 C14.759,38.795 14.037,40.057 13.93,41.733 C13.339,41.733 12.821,41.746 12.306,41.728 C11.846,41.711 11.671,41.91 11.688,42.367 C11.709,43.024 11.727,43.683 11.68,44.338 C11.63,44.998 11.887,45.18 12.527,45.175 C14.38,45.164 16.233,45.162 18.085,45.16 C19.94,45.162 21.792,45.164 23.645,45.175 C24.285,45.18 24.542,44.998 24.492,44.338 C24.443,43.683 24.462,43.024 24.485,42.367 C24.501,41.91 24.324,41.711 23.865,41.728 C23.351,41.746 22.833,41.733 22.24,41.733 C22.134,40.057 21.414,38.795 20.109,37.858 C19.975,37.76 19.932,37.467 19.925,37.263 C19.903,36.523 19.875,35.781 19.939,35.045 C19.961,34.782 20.175,34.418 20.402,34.31 C22.113,33.494 23.412,32.244 24.477,30.701 C24.621,30.491 24.993,30.308 25.248,30.324 C26.537,30.395 27.611,29.948 28.541,29.101 C29.914,27.853 30.77,26.256 31.007,24.47 C31.279,22.419 31.261,20.329 31.318,18.253 C31.322,18.089 30.923,17.776 30.698,17.764" fill="#9A6E38"/>
      <path d="M29.088,21.61 C29.044,23.271 28.781,24.876 27.892,26.314 C27.45,27.031 26.918,27.663 25.838,27.95 C26.712,25.508 26.882,23.202 26.773,20.871 C26.743,20.186 27.017,20.035 27.625,20.06 C29.214,20.126 29.139,19.718 29.088,21.61 z M8.279,26.314 C7.39,24.876 7.127,23.271 7.083,21.61 C7.033,19.718 6.958,20.126 8.548,20.06 C9.155,20.035 9.43,20.186 9.399,20.871 C9.288,23.202 9.46,25.508 10.333,27.95 C9.253,27.663 8.722,27.031 8.279,26.314 z M30.698,17.764 C29.635,17.71 28.562,17.752 27.497,17.72 C27.264,17.713 27.006,17.672 26.944,17.49 C26.815,17.112 26.833,16.467 26.841,15.879 C26.853,15.165 27.462,15.41 27.913,15.299 C27.913,15.033 27.912,14.713 27.913,14.392 C27.913,13.177 27.913,13.176 26.739,13.176 C23.892,13.175 21.045,13.176 18.201,13.176 L18.085,13.176 L17.972,13.176 C15.125,13.176 12.277,13.175 9.433,13.176 C8.259,13.176 8.259,13.177 8.259,14.392 C8.26,14.713 8.259,15.033 8.259,15.299 C8.709,15.41 9.319,15.165 9.33,15.879 C9.34,16.467 9.356,17.112 9.228,17.49 C9.165,17.672 8.908,17.713 8.676,17.72 C7.609,17.752 6.537,17.71 5.472,17.764 C5.246,17.776 4.85,18.089 4.855,18.253 C4.909,20.329 4.893,22.419 5.165,24.47 C5.402,26.256 6.259,27.853 7.629,29.101 C8.56,29.948 9.635,30.395 10.923,30.324 C11.18,30.308 11.551,30.491 11.695,30.701 C12.759,32.244 14.059,33.494 15.769,34.31 C15.995,34.418 16.212,34.782 16.233,35.045 C16.297,35.781 16.269,36.523 16.248,37.263 C16.24,37.467 16.198,37.76 16.062,37.858 C14.759,38.795 14.037,40.057 13.93,41.733 C13.339,41.733 12.821,41.746 12.306,41.728 C11.846,41.711 11.671,41.91 11.688,42.367 C11.709,43.024 11.727,43.683 11.68,44.338 C11.63,44.998 11.887,45.18 12.527,45.175 C14.38,45.164 16.233,45.162 18.085,45.16 C19.94,45.162 21.792,45.164 23.645,45.175 C24.285,45.18 24.542,44.998 24.492,44.338 C24.443,43.683 24.462,43.024 24.485,42.367 C24.501,41.91 24.324,41.711 23.865,41.728 C23.351,41.746 22.833,41.733 22.24,41.733 C22.134,40.057 21.414,38.795 20.109,37.858 C19.975,37.76 19.932,37.467 19.925,37.263 C19.903,36.523 19.875,35.781 19.939,35.045 C19.961,34.782 20.175,34.418 20.402,34.31 C22.113,33.494 23.412,32.244 24.477,30.701 C24.621,30.491 24.993,30.308 25.248,30.324 C26.537,30.395 27.611,29.948 28.541,29.101 C29.914,27.853 30.77,26.256 31.007,24.47 C31.279,22.419 31.261,20.329 31.318,18.253 C31.322,18.089 30.923,17.776 30.698,17.764 z" fill-opacity="0" stroke="#FDF5E0" stroke-width="0.75"/>
    </g>
    <text transform="matrix(1, 0, -0, 1, 18.084, 23.791)">
      <tspan x="-0.898" y="2.5" font-family="Love*Monster" font-size="12.383" kerning="0" fill="#FDF5E0">1</tspan>
    </text>
  </g>
</svg>
