<?xml version="1.0" encoding="UTF-8"?>
<!DOCTYPE svg PUBLIC "-//W3C//DTD SVG 1.1//EN" "http://www.w3.org/Graphics/SVG/1.1/DTD/svg11.dtd">
<svg version="1.1" xmlns="http://www.w3.org/2000/svg" xmlns:xlink="http://www.w3.org/1999/xlink" x="0" y="0" width="36.172" height="45.551" viewBox="0, 0, 36.172, 45.551">
  <defs>
    <clipPath id="Clip_1">
      <path d="M-0,0 L36.172,0 L36.172,45.551 L-0,45.551 z"/>
    </clipPath>
  </defs>
  <g id="Layer_1">
    <g clip-path="url(#Clip_1)">
      <path d="M18.982,34.071 C16.269,34.32 13.867,32.325 13.615,29.612 C13.363,26.899 15.355,24.495 18.068,24.241 C20.78,23.985 23.186,25.976 23.444,28.688 L23.445,28.708 C23.693,31.421 21.695,33.821 18.982,34.071 M35.788,39.471 L35.199,39.471 C33.855,35.483 33.547,28.722 33.65,26.958 L33.713,26.958 C33.862,26.958 33.983,26.837 33.983,26.686 C33.983,26.538 33.863,26.417 33.713,26.417 L27.704,26.602 C27.555,26.602 27.406,26.598 27.406,26.748 C27.406,26.897 27.03,26.958 27.178,26.958 L27.247,26.958 C27.352,28.085 27.002,26.952 26.516,30.321 C24.808,22.705 24.652,17.505 24.82,14.612 L24.942,14.612 C25.23,14.612 25.463,14.379 25.463,14.091 C25.463,13.803 25.23,13.569 24.942,13.569 L12.327,13.569 C12.04,13.569 11.806,13.803 11.806,14.091 C11.806,14.379 12.04,14.612 12.327,14.612 L12.459,14.612 C12.687,17.056 12.462,22.62 11.203,29.763 C10.764,26.18 10.606,25.397 10.681,24.121 L10.757,24.121 C10.938,24.121 11.085,23.973 11.085,23.794 C11.085,23.612 10.938,23.466 10.757,23.466 L2.828,23.466 C2.646,23.466 2.5,23.612 2.5,23.794 C2.5,23.973 2.646,24.121 2.828,24.121 L2.91,24.121 C3.099,26.155 2.73,34.53 1.114,39.307 L0.465,39.307 C0.209,39.307 0,39.516 0,39.773 C0,40.03 0.209,40.239 0.465,40.239 L8.43,40.239 C8.475,40.248 8.522,40.253 8.57,40.253 L28.947,40.253 C28.995,40.253 29.041,40.248 29.086,40.239 L35.787,40.239 C36,40.239 36.171,40.067 36.171,39.856 C36.171,39.643 36,39.471 35.788,39.471" fill="#9A6E38"/>
      <path d="M11.747,8.83 C12.523,11.777 18.961,12.475 18.961,12.475 C18.25,11.311 16.35,10.67 16.557,9.14 C15.629,7.043 13.376,8.817 14.617,4.951 C20.088,3.057 6.614,-2.078 6.163,0.918 C4.66,2.257 12.653,5.742 11.747,8.83" fill="#9A6E38"/>
      <path d="M18.555,32.676 C18.577,32.666 18.603,32.656 18.629,32.646 C18.644,32.645 18.659,32.643 18.674,32.643 C18.67,32.644 18.666,32.646 18.662,32.647 C18.591,32.676 18.586,32.666 18.555,32.676 M18.206,32.643 C18.223,32.643 18.241,32.645 18.257,32.646 C18.276,32.654 18.291,32.661 18.307,32.668 C18.306,32.67 18.303,32.672 18.301,32.675 C18.271,32.665 18.239,32.655 18.206,32.643 M18.182,25.803 C18.215,25.852 18.245,25.899 18.265,25.934 C18.323,26.038 18.376,26.18 18.421,26.335 C18.408,26.426 18.386,26.594 18.383,26.639 C18.31,26.412 18.242,26.134 18.189,25.84 C18.186,25.826 18.184,25.815 18.182,25.803 M18.521,26.83 C18.516,26.842 18.511,26.856 18.506,26.869 C18.504,26.801 18.5,26.729 18.498,26.671 C18.505,26.715 18.512,26.76 18.517,26.803 C18.519,26.811 18.52,26.821 18.521,26.83 M18.519,32.68 L18.513,32.68 C18.532,32.67 18.553,32.66 18.576,32.648 C18.582,32.648 18.589,32.647 18.595,32.647 z M18.323,32.649 C18.341,32.659 18.358,32.669 18.372,32.678 C18.369,32.676 18.367,32.675 18.363,32.674 C18.349,32.666 18.332,32.658 18.316,32.649 z M18.33,26.751 C18.33,26.752 18.33,26.754 18.331,26.755 C18.33,26.755 18.33,26.754 18.329,26.754 C18.326,26.755 18.325,26.756 18.322,26.758 C18.321,26.756 18.321,26.755 18.319,26.754 C18.323,26.752 18.326,26.752 18.33,26.751 M18.465,26.995 C18.459,27.01 18.453,27.023 18.45,27.03 C18.437,26.976 18.422,26.922 18.403,26.871 C18.394,26.846 18.385,26.822 18.377,26.801 C18.403,26.846 18.436,26.916 18.465,26.995 M18.721,27.26 C18.719,27.258 18.718,27.255 18.718,27.251 C18.723,27.25 18.731,27.246 18.742,27.239 C18.742,27.239 18.745,27.235 18.748,27.233 C18.737,27.244 18.728,27.254 18.721,27.26 M18.784,27.19 C18.786,27.187 18.787,27.184 18.789,27.182 C18.788,27.184 18.787,27.186 18.786,27.187 z M18.48,32.678 C18.468,32.679 18.46,32.684 18.457,32.697 C18.451,32.703 18.447,32.707 18.444,32.71 C18.443,32.71 18.443,32.709 18.441,32.709 C18.442,32.703 18.443,32.694 18.443,32.68 L18.481,32.664 C18.487,32.661 18.494,32.656 18.503,32.651 L18.514,32.651 C18.501,32.66 18.49,32.67 18.48,32.678 M18.387,32.651 C18.402,32.668 18.414,32.684 18.423,32.696 C18.413,32.684 18.399,32.669 18.382,32.651 z M18.441,29.543 L18.441,29.539 C18.447,29.537 18.452,29.537 18.457,29.536 L18.457,29.541 C18.452,29.541 18.447,29.542 18.441,29.543 M18.288,26.781 L18.288,26.781 C18.294,26.772 18.302,26.764 18.311,26.759 C18.306,26.768 18.301,26.787 18.293,26.822 L18.29,26.836 C18.29,26.817 18.288,26.799 18.288,26.781 M20.397,29.708 C20.31,29.579 20.221,29.476 20.023,29.279 C19.538,28.795 19.252,28.412 18.948,27.842 C18.797,27.559 18.797,27.561 18.919,27.268 C19,27.072 19.015,27.012 18.979,27.012 C18.972,27.012 18.964,27.014 18.955,27.018 C18.941,27.019 18.921,27.032 18.899,27.054 C18.876,27.072 18.852,27.098 18.829,27.125 C18.933,26.99 19.086,26.873 19.191,26.853 C19.219,26.846 19.279,26.846 19.323,26.852 C19.387,26.86 19.374,26.854 19.257,26.824 C19.091,26.781 19.007,26.789 18.908,26.858 C18.879,26.877 18.855,26.899 18.833,26.928 C18.855,26.873 18.873,26.824 18.882,26.797 C18.894,26.762 18.904,26.697 18.91,26.67 C18.919,26.63 18.926,26.557 18.929,26.51 C18.964,26.438 19.001,26.365 19.037,26.299 C19.193,26.007 19.325,25.819 19.508,25.626 C19.607,25.522 19.671,25.469 19.743,25.428 C19.794,25.4 19.806,25.389 19.795,25.386 C19.786,25.384 19.668,25.451 19.6,25.497 C19.253,25.734 18.971,26.035 18.784,26.364 C18.798,26.23 18.825,26.102 18.879,25.876 C18.94,25.627 18.944,25.594 18.906,25.629 C18.861,25.67 18.755,25.834 18.718,25.918 C18.692,25.979 18.662,26.078 18.651,26.145 C18.643,26.194 18.643,26.207 18.649,26.246 C18.657,26.298 18.654,26.543 18.647,26.667 C18.643,26.681 18.638,26.695 18.634,26.709 C18.633,26.686 18.63,26.666 18.628,26.653 C18.571,26.304 18.413,25.985 18.161,25.701 C18.139,25.6 18.127,25.584 18.12,25.656 C18.11,25.645 18.099,25.633 18.087,25.621 C18.029,25.563 17.951,25.496 17.945,25.501 C17.942,25.504 17.95,25.514 18.023,25.596 C18.051,25.63 18.084,25.671 18.117,25.714 C18.116,25.743 18.115,25.779 18.115,25.821 C18.113,25.961 18.122,26.02 18.164,26.162 C18.184,26.227 18.203,26.312 18.221,26.399 C18.124,26.054 17.943,25.713 17.692,25.411 C17.639,25.348 17.544,25.252 17.534,25.252 C17.523,25.252 17.532,25.264 17.573,25.305 C17.631,25.365 17.677,25.434 17.744,25.561 C17.868,25.797 17.944,26.014 18.014,26.336 C18.048,26.492 18.078,26.668 18.1,26.821 C18.095,26.813 18.089,26.807 18.084,26.8 C18.008,26.707 17.929,26.676 17.757,26.672 C17.637,26.668 17.622,26.67 17.687,26.68 C17.731,26.688 17.787,26.704 17.814,26.717 C17.893,26.758 17.985,26.872 18.049,27 C18.027,26.987 18.011,26.979 18.009,26.981 C18.004,26.986 18.023,27.037 18.048,27.098 C18.087,27.186 18.094,27.235 18.085,27.381 C18.076,27.541 18.064,27.58 17.949,27.809 C17.693,28.315 17.35,28.778 16.874,29.257 C16.421,29.713 16.201,30.098 16.107,30.598 C16.07,30.793 16.092,31.18 16.15,31.362 C16.352,31.987 17.004,32.438 18.027,32.66 C18.101,32.676 18.202,32.692 18.285,32.703 C18.28,32.714 18.275,32.727 18.27,32.74 C18.254,32.785 18.224,32.838 18.203,32.86 C18.173,32.89 18.171,32.896 18.194,32.896 C18.222,32.895 18.272,32.874 18.314,32.85 C18.309,32.863 18.306,32.879 18.306,32.895 C18.306,32.925 18.298,32.963 18.289,32.979 C18.269,33.018 18.284,33.018 18.349,32.979 C18.372,32.963 18.385,32.954 18.393,32.938 C18.394,32.998 18.387,33.06 18.369,33.119 C18.356,33.161 18.346,33.203 18.346,33.212 C18.346,33.262 18.467,33.016 18.494,32.907 C18.516,32.963 18.543,33.01 18.568,33.035 C18.59,33.057 18.614,33.075 18.62,33.075 C18.627,33.075 18.622,33.038 18.611,32.992 C18.599,32.949 18.59,32.868 18.589,32.804 C18.594,32.808 18.6,32.813 18.607,32.817 C18.645,32.842 18.683,32.854 18.741,32.853 L18.821,32.853 L18.739,32.806 C18.693,32.78 18.654,32.745 18.637,32.713 C18.636,32.71 18.634,32.707 18.633,32.703 C18.67,32.697 18.713,32.69 18.763,32.68 C19.936,32.442 20.611,31.946 20.764,31.207 C20.86,30.746 20.726,30.199 20.397,29.708" fill="#9A6E38"/>
      <path d="M18.341,33.003 L18.341,33.002 z" fill="#9A6E38"/>
      <path d="M18.341,33.003 z" fill="#9A6E38"/>
      <path d="M29.088,21.61 C29.044,23.27 28.781,24.876 27.892,26.313 C27.45,27.03 26.918,27.663 25.838,27.95 C26.712,25.508 26.882,23.202 26.773,20.871 C26.743,20.186 27.017,20.035 27.625,20.06 C29.214,20.126 29.139,19.718 29.088,21.61 M8.279,26.313 C7.39,24.876 7.127,23.27 7.083,21.61 C7.033,19.718 6.958,20.126 8.548,20.06 C9.155,20.035 9.43,20.186 9.399,20.871 C9.288,23.202 9.46,25.508 10.333,27.95 C9.253,27.663 8.722,27.03 8.279,26.313 M30.698,17.764 C29.635,17.71 28.562,17.752 27.497,17.72 C27.264,17.713 27.006,17.672 26.944,17.49 C26.815,17.112 26.833,16.467 26.841,15.879 C26.853,15.165 27.462,15.41 27.913,15.299 C27.913,15.033 27.912,14.713 27.913,14.392 C27.913,13.177 27.913,13.176 26.739,13.176 C23.892,13.175 21.045,13.176 18.201,13.176 L18.085,13.176 L17.972,13.176 C15.125,13.176 12.277,13.175 9.433,13.176 C8.259,13.176 8.259,13.177 8.259,14.392 C8.26,14.713 8.259,15.033 8.259,15.299 C8.709,15.41 9.319,15.165 9.33,15.879 C9.34,16.467 9.356,17.112 9.228,17.49 C9.165,17.672 8.908,17.713 8.676,17.72 C7.609,17.752 6.537,17.71 5.472,17.764 C5.246,17.776 4.85,18.089 4.855,18.253 C4.909,20.329 4.893,22.419 5.165,24.471 C5.402,26.256 6.259,27.852 7.629,29.101 C8.56,29.948 9.635,30.395 10.923,30.323 C11.18,30.308 11.551,30.491 11.695,30.702 C12.759,32.244 14.059,33.495 15.769,34.31 C15.995,34.419 16.212,34.782 16.233,35.045 C16.297,35.78 16.269,36.522 16.248,37.263 C16.24,37.467 16.198,37.76 16.062,37.858 C14.759,38.796 14.037,40.057 13.93,41.733 C13.339,41.733 12.821,41.745 12.306,41.728 C11.846,41.712 11.671,41.911 11.688,42.366 C11.709,43.024 11.727,43.684 11.68,44.338 C11.63,44.997 11.887,45.18 12.527,45.176 C14.38,45.164 16.233,45.161 18.085,45.161 C19.94,45.161 21.792,45.164 23.645,45.176 C24.285,45.18 24.542,44.997 24.492,44.338 C24.443,43.684 24.462,43.024 24.485,42.366 C24.501,41.911 24.324,41.712 23.865,41.728 C23.351,41.745 22.833,41.733 22.24,41.733 C22.134,40.057 21.414,38.796 20.109,37.858 C19.975,37.76 19.932,37.467 19.925,37.263 C19.903,36.522 19.875,35.78 19.939,35.045 C19.961,34.782 20.175,34.419 20.402,34.31 C22.113,33.495 23.412,32.244 24.477,30.702 C24.621,30.491 24.993,30.308 25.248,30.323 C26.537,30.395 27.611,29.948 28.541,29.101 C29.914,27.852 30.77,26.256 31.007,24.471 C31.279,22.419 31.261,20.329 31.318,18.253 C31.322,18.089 30.923,17.776 30.698,17.764" fill="#9A6E38"/>
      <path d="M29.088,21.61 C29.044,23.27 28.781,24.876 27.892,26.313 C27.45,27.03 26.918,27.663 25.838,27.95 C26.712,25.508 26.882,23.202 26.773,20.871 C26.743,20.186 27.017,20.035 27.625,20.06 C29.214,20.126 29.139,19.718 29.088,21.61 z M8.279,26.313 C7.39,24.876 7.127,23.27 7.083,21.61 C7.033,19.718 6.958,20.126 8.548,20.06 C9.155,20.035 9.43,20.186 9.399,20.871 C9.288,23.202 9.46,25.508 10.333,27.95 C9.253,27.663 8.722,27.03 8.279,26.313 z M30.698,17.764 C29.635,17.71 28.562,17.752 27.497,17.72 C27.264,17.713 27.006,17.672 26.944,17.49 C26.815,17.112 26.833,16.467 26.841,15.879 C26.853,15.165 27.462,15.41 27.913,15.299 C27.913,15.033 27.912,14.713 27.913,14.392 C27.913,13.177 27.913,13.176 26.739,13.176 C23.892,13.175 21.045,13.176 18.201,13.176 L18.085,13.176 L17.972,13.176 C15.125,13.176 12.277,13.175 9.433,13.176 C8.259,13.176 8.259,13.177 8.259,14.392 C8.26,14.713 8.259,15.033 8.259,15.299 C8.709,15.41 9.319,15.165 9.33,15.879 C9.34,16.467 9.356,17.112 9.228,17.49 C9.165,17.672 8.908,17.713 8.676,17.72 C7.609,17.752 6.537,17.71 5.472,17.764 C5.246,17.776 4.85,18.089 4.855,18.253 C4.909,20.329 4.893,22.419 5.165,24.471 C5.402,26.256 6.259,27.852 7.629,29.101 C8.56,29.948 9.635,30.395 10.923,30.323 C11.18,30.308 11.551,30.491 11.695,30.702 C12.759,32.244 14.059,33.495 15.769,34.31 C15.995,34.419 16.212,34.782 16.233,35.045 C16.297,35.78 16.269,36.522 16.248,37.263 C16.24,37.467 16.198,37.76 16.062,37.858 C14.759,38.796 14.037,40.057 13.93,41.733 C13.339,41.733 12.821,41.745 12.306,41.728 C11.846,41.712 11.671,41.911 11.688,42.366 C11.709,43.024 11.727,43.684 11.68,44.338 C11.63,44.997 11.887,45.18 12.527,45.176 C14.38,45.164 16.233,45.161 18.085,45.161 C19.94,45.161 21.792,45.164 23.645,45.176 C24.285,45.18 24.542,44.997 24.492,44.338 C24.443,43.684 24.462,43.024 24.485,42.366 C24.501,41.911 24.324,41.712 23.865,41.728 C23.351,41.745 22.833,41.733 22.24,41.733 C22.134,40.057 21.414,38.796 20.109,37.858 C19.975,37.76 19.932,37.467 19.925,37.263 C19.903,36.522 19.875,35.78 19.939,35.045 C19.961,34.782 20.175,34.419 20.402,34.31 C22.113,33.495 23.412,32.244 24.477,30.702 C24.621,30.491 24.993,30.308 25.248,30.323 C26.537,30.395 27.611,29.948 28.541,29.101 C29.914,27.852 30.77,26.256 31.007,24.471 C31.279,22.419 31.261,20.329 31.318,18.253 C31.322,18.089 30.923,17.776 30.698,17.764 z" fill-opacity="0" stroke="#FDF5E0" stroke-width="0.75"/>
    </g>
    <text transform="matrix(1, 0, -0, 1, 18.155, 23.791)">
      <tspan x="-3.313" y="2.5" font-family="Love*Monster" font-size="12.383" kerning="-0.074" fill="#FDF5E0">1</tspan>
      <tspan x="-1.591" y="2.5" font-family="Love*Monster" font-size="12.383" kerning="0" fill="#FDF5E0">0</tspan>
    </text>
  </g>
</svg>
