<?xml version="1.0" encoding="UTF-8"?>
<!DOCTYPE svg PUBLIC "-//W3C//DTD SVG 1.1//EN" "http://www.w3.org/Graphics/SVG/1.1/DTD/svg11.dtd">
<svg version="1.1" xmlns="http://www.w3.org/2000/svg" xmlns:xlink="http://www.w3.org/1999/xlink" x="0" y="0" width="54.671" height="46.72" viewBox="0, 0, 54.671, 46.72">
  <defs>
    <linearGradient id="Gradient_1" gradientUnits="userSpaceOnUse" x1="8.711" y1="35.907" x2="26.538" y2="5.03">
      <stop offset="0" stop-color="#7A3827"/>
      <stop offset="1" stop-color="#91522C"/>
    </linearGradient>
    <linearGradient id="Gradient_2" gradientUnits="userSpaceOnUse" x1="28.918" y1="29.832" x2="36.071" y2="17.443">
      <stop offset="0" stop-color="#7A3827"/>
      <stop offset="1" stop-color="#91522C"/>
    </linearGradient>
    <linearGradient id="Gradient_3" gradientUnits="userSpaceOnUse" x1="29.586" y1="36.065" x2="43.478" y2="12.005">
      <stop offset="0" stop-color="#7A3827"/>
      <stop offset="1" stop-color="#91522C"/>
    </linearGradient>
    <linearGradient id="Gradient_4" gradientUnits="userSpaceOnUse" x1="30.285" y1="42.274" x2="50.886" y2="6.591">
      <stop offset="0" stop-color="#7A3827"/>
      <stop offset="1" stop-color="#91522C"/>
    </linearGradient>
    <clipPath id="Clip_1">
      <path d="M38.54,-0 C37.97,-0 37.477,0.208 37.062,0.626 L37.062,0.626 C36.644,1.041 36.436,1.535 36.436,2.103 L36.436,2.103 C36.436,2.892 36.864,3.538 37.718,4.042 L37.718,4.042 C37.873,4.129 38.117,4.245 38.456,4.387 L38.456,4.387 C38.796,4.529 39.043,4.644 39.197,4.73 L39.197,4.73 C40.204,5.279 41.103,5.837 41.891,6.406 L41.891,6.406 C44.585,8.4 46.688,10.886 48.2,13.865 L48.2,13.865 C49.711,16.843 50.467,20.008 50.467,23.36 L50.467,23.36 C50.467,26.712 49.711,29.876 48.2,32.855 L48.2,32.855 C46.689,35.835 44.585,38.321 41.891,40.314 L41.891,40.314 C41.103,40.883 40.204,41.441 39.197,41.99 L39.197,41.99 C39.043,42.076 38.796,42.19 38.456,42.333 L38.456,42.333 C38.117,42.475 37.873,42.59 37.718,42.678 L37.718,42.678 C36.864,43.182 36.436,43.828 36.436,44.617 L36.436,44.617 C36.436,45.185 36.644,45.679 37.062,46.095 L37.062,46.095 C37.476,46.511 37.97,46.72 38.54,46.72 L38.54,46.72 C38.823,46.72 39.109,46.665 39.393,46.555 L39.393,46.555 C44.015,44.563 47.716,41.456 50.498,37.24 L50.498,37.24 C53.281,33.024 54.671,28.397 54.671,23.36 L54.671,23.36 C54.671,18.321 53.281,13.695 50.498,9.479 L50.498,9.479 C47.716,5.263 44.015,2.157 39.393,0.164 L39.393,0.164 C39.109,0.055 38.823,-0 38.54,-0 z"/>
    </clipPath>
  </defs>
  <g id="Layer_1">
    <path d="M21.652,4.008 L10.711,14.949 L2.103,14.949 C1.534,14.949 1.04,15.159 0.624,15.574 L0.624,15.574 C0.208,15.99 0,16.483 0,17.052 L0,17.052 L0,29.668 C0,30.237 0.208,30.731 0.624,31.146 L0.624,31.146 C1.041,31.563 1.534,31.771 2.103,31.771 L2.103,31.771 L10.711,31.771 L21.651,42.712 C22.068,43.128 22.56,43.336 23.13,43.336 L23.13,43.336 C23.701,43.336 24.193,43.128 24.609,42.712 L24.609,42.712 C25.025,42.296 25.233,41.803 25.233,41.234 L25.233,41.234 L25.233,5.486 C25.233,4.919 25.025,4.424 24.609,4.008 L24.609,4.008 C24.193,3.592 23.701,3.384 23.13,3.384 L23.13,3.384 C22.561,3.384 22.068,3.592 21.652,4.008 z" fill="url(#Gradient_1)"/>
    <path d="M30.457,16.081 C30.041,16.486 29.831,16.985 29.831,17.575 L29.831,17.575 C29.831,18.036 29.964,18.425 30.227,18.743 L30.227,18.743 C30.489,19.061 30.807,19.334 31.18,19.563 L31.18,19.563 C31.552,19.794 31.924,20.046 32.297,20.319 L32.297,20.319 C32.669,20.594 32.988,20.983 33.25,21.486 L33.25,21.486 C33.512,21.991 33.644,22.614 33.644,23.36 L33.644,23.36 C33.644,24.104 33.513,24.728 33.25,25.232 L33.25,25.232 C32.988,25.736 32.669,26.124 32.297,26.4 L32.297,26.4 C31.924,26.673 31.552,26.924 31.18,27.155 L31.18,27.155 C30.807,27.384 30.489,27.659 30.227,27.975 L30.227,27.975 C29.965,28.294 29.831,28.683 29.831,29.142 L29.831,29.142 C29.831,29.734 30.04,30.233 30.457,30.637 L30.457,30.637 C30.873,31.042 31.366,31.245 31.935,31.245 L31.935,31.245 C32.263,31.245 32.538,31.191 32.756,31.083 L32.756,31.083 C34.291,30.468 35.522,29.444 36.453,28.008 L36.453,28.008 C37.384,26.574 37.85,25.025 37.85,23.36 L37.85,23.36 C37.85,21.695 37.384,20.139 36.453,18.693 L36.453,18.693 C35.521,17.248 34.291,16.229 32.756,15.637 L32.756,15.637 C32.538,15.529 32.263,15.473 31.935,15.473 L31.935,15.473 C31.367,15.473 30.873,15.676 30.457,16.081 z" fill="url(#Gradient_2)"/>
    <path d="M33.743,8.344 C33.328,8.761 33.119,9.253 33.119,9.823 L33.119,9.823 C33.119,10.677 33.547,11.324 34.4,11.762 L34.4,11.762 C35.626,12.397 36.458,12.879 36.896,13.208 L36.896,13.208 C38.518,14.39 39.783,15.873 40.691,17.658 L40.691,17.658 C41.601,19.445 42.055,21.345 42.055,23.36 L42.055,23.36 C42.055,25.376 41.601,27.275 40.691,29.06 L40.691,29.06 C39.783,30.845 38.517,32.328 36.896,33.511 L36.896,33.511 C36.458,33.84 35.626,34.322 34.4,34.957 L34.4,34.957 C33.547,35.396 33.119,36.042 33.119,36.896 L33.119,36.896 C33.119,37.465 33.328,37.958 33.743,38.374 L33.743,38.374 C34.159,38.791 34.662,38.999 35.253,38.999 L35.253,38.999 C35.517,38.999 35.79,38.945 36.076,38.835 L36.076,38.835 C39.141,37.543 41.607,35.478 43.468,32.641 L43.468,32.641 C45.329,29.805 46.261,26.711 46.261,23.36 L46.261,23.36 C46.261,20.008 45.329,16.915 43.468,14.077 L43.468,14.077 C41.607,11.24 39.141,9.176 36.076,7.884 L36.076,7.884 C35.79,7.774 35.505,7.72 35.222,7.72 L35.222,7.72 C34.652,7.72 34.16,7.928 33.743,8.344 z" fill="url(#Gradient_3)"/>
    <g clip-path="url(#Clip_1)">
      <path d="M38.542,0 C39.113,0.055 38.83,0.002 39.393,0.164 C44.015,2.157 47.716,5.263 50.498,9.479 C53.281,13.695 54.671,18.321 54.671,23.36 C54.671,28.397 53.281,33.024 50.498,37.24 C47.716,41.456 44.015,44.563 39.393,46.555 C39.109,46.665 38.823,46.72 38.54,46.72 C37.97,46.72 37.476,46.511 37.062,46.095 C36.644,45.679 36.436,45.185 36.436,44.617 C36.436,43.828 36.864,43.182 37.718,42.678 C37.873,42.59 38.117,42.475 38.456,42.333 C38.796,42.19 39.043,42.076 39.197,41.99 C40.204,41.441 41.103,40.883 41.891,40.314 C44.585,38.321 46.689,35.835 48.2,32.855 C49.711,29.876 50.467,26.712 50.467,23.36 C50.467,20.008 49.711,16.843 48.2,13.865 C46.688,10.886 44.585,8.4 41.891,6.406 C41.103,5.837 40.204,5.279 39.197,4.73 C39.043,4.644 38.796,4.529 38.456,4.387 C38.117,4.245 37.873,4.129 37.718,4.042 C36.864,3.538 36.436,2.892 36.436,2.103 C36.436,1.535 36.644,1.041 37.062,0.626 C37.965,0.002 37.472,0.209 38.539,0 L38.542,0 z" fill="url(#Gradient_4)"/>
    </g>
  </g>
</svg>
