<?xml version="1.0" encoding="UTF-8"?>
<!DOCTYPE svg PUBLIC "-//W3C//DTD SVG 1.1//EN" "http://www.w3.org/Graphics/SVG/1.1/DTD/svg11.dtd">
<svg version="1.1" xmlns="http://www.w3.org/2000/svg" xmlns:xlink="http://www.w3.org/1999/xlink" x="0" y="0" width="25.233" height="39.952" viewBox="0, 0, 25.233, 39.952">
  <defs>
    <linearGradient id="Gradient_1" gradientUnits="userSpaceOnUse" x1="8.711" y1="32.523" x2="26.538" y2="1.646">
      <stop offset="0" stop-color="#7A3827"/>
      <stop offset="1" stop-color="#91522C"/>
    </linearGradient>
    <clipPath id="Clip_1">
      <path d="M23.13,0 C22.561,0 22.068,0.208 21.652,0.624 L21.652,0.624 L10.711,11.565 L2.103,11.565 C1.534,11.565 1.04,11.774 0.624,12.19 L0.624,12.19 C0.208,12.606 0,13.099 0,13.667 L0,13.667 L0,26.283 C0,26.853 0.208,27.347 0.624,27.762 L0.624,27.762 C1.041,28.178 1.534,28.387 2.103,28.387 L2.103,28.387 L10.711,28.387 L21.651,39.328 C22.068,39.744 22.56,39.952 23.13,39.952 L23.13,39.952 C23.701,39.952 24.193,39.744 24.609,39.328 L24.609,39.328 C25.025,38.912 25.233,38.418 25.233,37.85 L25.233,37.85 L25.233,2.102 C25.233,1.534 25.025,1.04 24.609,0.624 L24.609,0.624 C24.193,0.208 23.701,0 23.13,0 z"/>
    </clipPath>
  </defs>
  <g id="Layer_1">
    <g clip-path="url(#Clip_1)">
      <path d="M23.13,0 C23.701,0 24.193,0.208 24.609,0.624 C25.23,1.529 25.024,1.036 25.233,2.102 L25.233,37.851 C25.024,38.917 25.23,38.423 24.609,39.328 C24.193,39.744 23.701,39.952 23.13,39.952 C22.56,39.952 22.068,39.744 21.651,39.328 L10.711,28.387 L2.103,28.387 C1.534,28.387 1.041,28.178 0.624,27.762 C0.208,27.347 -0,26.853 -0,26.283 L-0,13.667 C-0,13.099 0.208,12.606 0.624,12.19 C1.04,11.774 1.534,11.565 2.103,11.565 L10.711,11.565 L21.652,0.624 C22.068,0.208 22.561,0 23.13,0 z" fill="url(#Gradient_1)"/>
    </g>
  </g>
</svg>
