<?xml version="1.0" encoding="UTF-8"?>
<!DOCTYPE svg PUBLIC "-//W3C//DTD SVG 1.1//EN" "http://www.w3.org/Graphics/SVG/1.1/DTD/svg11.dtd">
<svg version="1.1" xmlns="http://www.w3.org/2000/svg" xmlns:xlink="http://www.w3.org/1999/xlink" x="0" y="0" width="151.064" height="34.125" viewBox="0, 0, 151.064, 34.125">
  <defs>
    <linearGradient id="Gradient_1" gradientUnits="userSpaceOnUse" x1="-0.387" y1="30.044" x2="14.377" y2="4.472">
      <stop offset="0" stop-color="#7A3827"/>
      <stop offset="1" stop-color="#91522C"/>
    </linearGradient>
    <linearGradient id="Gradient_2" gradientUnits="userSpaceOnUse" x1="14.98" y1="27.154" x2="30.488" y2="0.294">
      <stop offset="0" stop-color="#7A3827"/>
      <stop offset="1" stop-color="#91522C"/>
    </linearGradient>
    <linearGradient id="Gradient_3" gradientUnits="userSpaceOnUse" x1="35.281" y1="31.153" x2="49.795" y2="6.014">
      <stop offset="0" stop-color="#7A3827"/>
      <stop offset="1" stop-color="#91522C"/>
    </linearGradient>
    <linearGradient id="Gradient_4" gradientUnits="userSpaceOnUse" x1="49.035" y1="27.153" x2="64.543" y2="0.293">
      <stop offset="0" stop-color="#7A3827"/>
      <stop offset="1" stop-color="#91522C"/>
    </linearGradient>
    <linearGradient id="Gradient_5" gradientUnits="userSpaceOnUse" x1="66.155" y1="27.36" x2="80.341" y2="2.79">
      <stop offset="0" stop-color="#7A3827"/>
      <stop offset="1" stop-color="#91522C"/>
    </linearGradient>
    <linearGradient id="Gradient_6" gradientUnits="userSpaceOnUse" x1="81.403" y1="30.044" x2="96.167" y2="4.472">
      <stop offset="0" stop-color="#7A3827"/>
      <stop offset="1" stop-color="#91522C"/>
    </linearGradient>
    <linearGradient id="Gradient_7" gradientUnits="userSpaceOnUse" x1="96.769" y1="27.154" x2="112.277" y2="0.294">
      <stop offset="0" stop-color="#7A3827"/>
      <stop offset="1" stop-color="#91522C"/>
    </linearGradient>
    <linearGradient id="Gradient_8" gradientUnits="userSpaceOnUse" x1="113.889" y1="27.36" x2="128.075" y2="2.79">
      <stop offset="0" stop-color="#7A3827"/>
      <stop offset="1" stop-color="#91522C"/>
    </linearGradient>
    <linearGradient id="Gradient_9" gradientUnits="userSpaceOnUse" x1="129.869" y1="31.167" x2="146.05" y2="3.14">
      <stop offset="0" stop-color="#7A3827"/>
      <stop offset="1" stop-color="#91522C"/>
    </linearGradient>
    <linearGradient id="Gradient_10" gradientUnits="userSpaceOnUse" x1="142.694" y1="27.186" x2="155.585" y2="4.858">
      <stop offset="0" stop-color="#7A3827"/>
      <stop offset="1" stop-color="#91522C"/>
    </linearGradient>
  </defs>
  <g id="Layer_1">
    <path d="M5.268,0.54 C3.733,0.661 2.508,1.314 1.597,2.502 L1.597,2.502 C0.684,3.691 0.157,5.185 0.013,6.984 L0.013,6.984 C-0.084,8.688 0.384,10.488 1.417,12.384 L1.417,12.384 C1.68,12.864 2.071,13.398 2.587,13.986 L2.587,13.986 C3.102,14.574 3.564,15.06 3.973,15.445 L3.973,15.445 C5.053,16.428 6.007,17.322 6.835,18.126 L6.835,18.126 C7.663,18.93 8.329,19.776 8.833,20.664 L8.833,20.664 C9.337,21.552 9.655,22.536 9.787,23.617 L9.787,23.617 C9.919,24.697 9.829,26.017 9.516,27.577 L9.516,27.577 C9.396,28.2 9.198,28.728 8.923,29.161 L8.923,29.161 C8.647,29.592 8.329,29.94 7.969,30.204 L7.969,30.204 C7.608,30.467 7.225,30.648 6.817,30.744 L6.817,30.744 C6.409,30.841 6.024,30.864 5.665,30.816 L5.665,30.816 C5.233,30.769 4.848,30.636 4.513,30.42 L4.513,30.42 C4.176,30.204 3.936,29.916 3.793,29.556 L3.793,29.556 C3.577,29.1 3.312,28.657 3.001,28.224 L3.001,28.224 C2.688,27.792 2.268,27.636 1.741,27.756 L1.741,27.756 C0.972,27.972 0.612,28.32 0.661,28.8 L0.661,28.8 C0.708,29.28 1.116,29.952 1.885,30.816 L1.885,30.816 C2.461,31.488 3.055,32.011 3.667,32.382 L3.667,32.382 C4.279,32.755 4.968,33 5.737,33.12 L5.737,33.12 C7.537,33.456 9.192,33.288 10.705,32.617 L10.705,32.617 C11.785,32.136 12.672,31.398 13.369,30.402 L13.369,30.402 C14.065,29.406 14.436,28.152 14.485,26.64 L14.485,26.64 C14.508,25.08 14.346,23.743 13.999,22.626 L13.999,22.626 C13.651,21.511 13.159,20.502 12.522,19.603 L12.522,19.603 C11.886,18.702 11.13,17.85 10.255,17.046 L10.255,17.046 C9.378,16.242 8.436,15.36 7.429,14.4 L7.429,14.4 C7.069,14.04 6.709,13.59 6.348,13.05 L6.348,13.05 C5.989,12.511 5.67,11.916 5.395,11.269 L5.395,11.269 C5.117,10.62 4.903,9.942 4.747,9.234 L4.747,9.234 C4.59,8.526 4.524,7.824 4.549,7.128 L4.549,7.128 C4.596,6.433 4.758,5.761 5.035,5.113 L5.035,5.113 C5.31,4.464 5.701,3.9 6.205,3.42 L6.205,3.42 C6.684,2.916 7.123,2.706 7.518,2.79 L7.518,2.79 C7.915,2.874 8.28,3.084 8.617,3.42 L8.617,3.42 C8.951,3.757 9.265,4.145 9.553,4.59 L9.553,4.59 C9.841,5.034 10.116,5.376 10.381,5.617 L10.381,5.617 C10.548,5.784 10.728,5.851 10.921,5.814 L10.921,5.814 C11.111,5.779 11.281,5.689 11.425,5.544 L11.425,5.544 C11.569,5.4 11.682,5.232 11.766,5.04 L11.766,5.04 C11.85,4.849 11.88,4.681 11.856,4.536 L11.856,4.536 C11.808,4.105 11.641,3.691 11.352,3.294 L11.352,3.294 C11.065,2.898 10.723,2.544 10.327,2.232 L10.327,2.232 C9.931,1.921 9.516,1.65 9.085,1.422 L9.085,1.422 C8.653,1.194 8.257,1.02 7.897,0.9 L7.897,0.9 C7.155,0.647 6.436,0.52 5.742,0.52 L5.742,0.52 C5.582,0.52 5.424,0.526 5.268,0.54 z" fill="url(#Gradient_1)"/>
    <path d="M23.305,-0 C22.728,-0 22.188,0.012 21.684,0.036 L21.684,0.036 C21.181,0.06 20.73,0.078 20.335,0.09 L20.335,0.09 C19.938,0.102 19.62,0.12 19.38,0.144 L19.38,0.144 C18.899,0.192 18.51,0.228 18.21,0.252 L18.21,0.252 C17.91,0.276 17.555,0.349 17.148,0.468 L17.148,0.468 C16.452,0.636 15.997,0.828 15.78,1.044 L15.78,1.044 C15.564,1.261 15.493,1.488 15.564,1.728 L15.564,1.728 C15.66,2.04 15.809,2.292 16.015,2.484 L16.015,2.484 C16.217,2.677 16.608,2.808 17.184,2.88 L17.184,2.88 C17.879,2.976 18.635,3.018 19.452,3.006 L19.452,3.006 C20.268,2.994 21.012,2.952 21.684,2.88 L21.684,2.88 C21.707,3.601 21.738,4.452 21.774,5.437 L21.774,5.437 C21.81,6.421 21.847,7.494 21.882,8.659 L21.882,8.659 C21.919,9.822 21.954,11.035 21.99,12.294 L21.99,12.294 C22.026,13.554 22.067,14.808 22.116,16.056 L22.116,16.056 C22.139,17.496 22.171,18.913 22.206,20.304 L22.206,20.304 C22.243,21.696 22.261,23.011 22.261,24.246 L22.261,24.246 C22.261,25.482 22.248,26.598 22.224,27.595 L22.224,27.595 C22.199,28.591 22.152,29.4 22.081,30.025 L22.081,30.025 C22.032,30.312 22.085,30.594 22.243,30.87 L22.243,30.87 C22.398,31.145 22.608,31.398 22.872,31.626 L22.872,31.626 C23.135,31.854 23.436,32.051 23.772,32.22 L23.772,32.22 C24.108,32.388 24.444,32.496 24.78,32.544 L24.78,32.544 C25.331,32.617 25.83,32.491 26.274,32.166 L26.274,32.166 C26.717,31.842 26.94,31.224 26.94,30.312 L26.94,30.312 C26.94,27.913 26.916,25.572 26.868,23.292 L26.868,23.292 C26.82,21.013 26.735,18.661 26.616,16.236 L26.616,16.236 C26.544,14.724 26.473,13.248 26.4,11.808 L26.4,11.808 C26.329,10.369 26.257,9.073 26.184,7.92 L26.184,7.92 C26.112,6.769 26.051,5.832 26.005,5.113 L26.005,5.113 C25.956,4.392 25.919,4.009 25.896,3.96 L25.896,3.96 C25.871,3.936 25.86,3.919 25.86,3.907 L25.86,3.907 C25.86,3.894 25.848,3.876 25.824,3.853 L25.824,3.853 C25.704,3.636 25.602,3.498 25.518,3.439 L25.518,3.439 C25.434,3.378 25.362,3.33 25.302,3.294 L25.302,3.294 C25.241,3.258 25.188,3.215 25.14,3.168 L25.14,3.168 C25.092,3.12 25.043,3.025 24.997,2.88 L24.997,2.88 C25.572,2.88 26.213,2.868 26.923,2.845 L26.923,2.845 C27.629,2.82 28.272,2.845 28.848,2.916 L28.848,2.916 L31.548,3.025 C31.739,3.001 31.883,2.976 31.98,2.952 L31.98,2.952 C32.076,2.928 32.153,2.898 32.214,2.863 L32.214,2.863 C32.274,2.827 32.334,2.778 32.394,2.718 L32.394,2.718 C32.454,2.658 32.543,2.592 32.665,2.521 L32.665,2.521 L32.628,1.909 C32.58,1.596 32.328,1.326 31.872,1.099 L31.872,1.099 C31.416,0.87 30.833,0.685 30.126,0.54 L30.126,0.54 C29.418,0.396 28.625,0.288 27.751,0.216 L27.751,0.216 C26.873,0.144 25.992,0.085 25.104,0.036 L25.104,0.036 C24.479,0.012 23.88,-0 23.305,-0 z" fill="url(#Gradient_2)"/>
    <path d="M39.053,2.556 C38.129,3.084 37.247,3.841 36.408,4.825 L36.408,4.825 C35.927,5.4 35.513,6.072 35.166,6.84 L35.166,6.84 C34.816,7.608 34.541,8.407 34.339,9.234 L34.339,9.234 C34.133,10.062 33.996,10.895 33.925,11.736 L33.925,11.736 C33.852,12.576 33.839,13.345 33.887,14.04 L33.887,14.04 C33.91,14.496 33.936,15.131 33.96,15.949 L33.96,15.949 C33.983,16.765 34.007,17.677 34.032,18.685 L34.032,18.685 C34.055,19.693 34.086,20.749 34.122,21.853 L34.122,21.853 C34.158,22.956 34.2,24.013 34.248,25.021 L34.248,25.021 C34.32,26.436 34.402,27.666 34.5,28.71 L34.5,28.71 C34.595,29.754 34.716,30.408 34.86,30.672 L34.86,30.672 C34.956,30.841 35.118,31.009 35.347,31.177 L35.347,31.177 C35.572,31.345 35.807,31.447 36.048,31.482 L36.048,31.482 C36.288,31.519 36.503,31.458 36.696,31.302 L36.696,31.302 C36.887,31.145 36.995,30.841 37.02,30.384 L37.02,30.384 L37.02,28.818 C37.02,28.134 37.007,27.414 36.984,26.659 L36.984,26.659 C36.959,25.902 36.942,25.194 36.931,24.535 L36.931,24.535 C36.917,23.874 36.899,23.376 36.876,23.04 L36.876,23.04 C36.827,22.585 36.786,22.164 36.75,21.781 L36.75,21.781 C36.714,21.396 36.719,20.976 36.768,20.521 L36.768,20.521 C37.944,20.689 39.059,20.796 40.116,20.845 L40.116,20.845 C41.171,20.892 42.335,20.916 43.608,20.916 L43.608,20.916 C43.583,21.108 43.583,21.3 43.608,21.493 L43.608,21.493 C43.631,21.684 43.631,22.009 43.608,22.464 L43.608,22.464 L44.188,32.4 C44.237,32.665 44.279,32.832 44.315,32.904 L44.315,32.904 C44.351,32.976 44.442,33.108 44.588,33.3 L44.588,33.3 C44.878,33.684 45.216,33.923 45.604,34.021 L45.604,34.021 C45.991,34.116 46.359,34.146 46.709,34.111 L46.709,34.111 C47.06,34.075 47.369,33.989 47.635,33.859 L47.635,33.859 C47.901,33.725 48.058,33.624 48.106,33.552 L48.106,33.552 C48.154,33.36 48.198,33.228 48.233,33.157 L48.233,33.157 C48.269,33.084 48.264,32.917 48.216,32.652 L48.216,32.652 C48.167,32.124 48.137,31.782 48.126,31.626 L48.126,31.626 C48.114,31.47 48.108,31.357 48.108,31.285 L48.108,31.285 C48.108,31.212 48.114,31.098 48.126,30.943 L48.126,30.943 C48.137,30.786 48.143,30.42 48.143,29.845 L48.143,29.845 L48.108,20.412 C48.108,20.1 48.102,19.579 48.091,18.847 L48.091,18.847 C48.077,18.114 48.059,17.346 48.036,16.542 L48.036,16.542 C48.011,15.738 47.993,14.988 47.981,14.292 L47.981,14.292 C47.969,13.597 47.964,13.128 47.964,12.888 L47.964,12.888 C47.939,12.144 47.885,11.352 47.799,10.513 L47.799,10.513 C47.715,9.673 47.577,8.838 47.383,8.011 L47.383,8.011 C47.189,7.183 46.904,6.378 46.53,5.599 L46.53,5.599 C46.155,4.818 45.664,4.116 45.059,3.493 L45.059,3.493 C44.648,3.084 44.255,2.79 43.881,2.611 L43.881,2.611 C43.506,2.431 43.032,2.28 42.456,2.161 L42.456,2.161 C42.007,2.072 41.582,2.028 41.181,2.028 L41.181,2.028 C40.378,2.028 39.669,2.204 39.053,2.556 z M37.542,18.595 C37.002,18.486 36.66,18.252 36.516,17.892 L36.516,17.892 C36.491,17.82 36.473,17.574 36.462,17.154 L36.462,17.154 C36.45,16.734 36.444,16.212 36.444,15.588 L36.444,15.588 C36.444,14.964 36.45,14.298 36.462,13.59 L36.462,13.59 C36.473,12.881 36.498,12.204 36.534,11.556 L36.534,11.556 C36.57,10.909 36.617,10.339 36.679,9.847 L36.679,9.847 C36.737,9.354 36.803,9.024 36.876,8.857 L36.876,8.857 C37.02,8.112 37.278,7.435 37.65,6.823 L37.65,6.823 C38.022,6.21 38.436,5.717 38.891,5.347 L38.891,5.347 C39.347,4.974 39.828,4.747 40.332,4.662 L40.332,4.662 C40.836,4.578 41.303,4.681 41.736,4.968 L41.736,4.968 C42.168,5.256 42.534,5.755 42.834,6.462 L42.834,6.462 C43.133,7.171 43.307,8.124 43.356,9.325 L43.356,9.325 C43.379,9.661 43.41,10.062 43.446,10.531 L43.446,10.531 C43.481,10.998 43.524,11.437 43.572,11.845 L43.572,11.845 C43.643,12.684 43.662,13.56 43.626,14.472 L43.626,14.472 C43.591,15.383 43.595,16.296 43.643,17.208 L43.643,17.208 C43.667,17.544 43.673,17.808 43.662,18 L43.662,18 C43.649,18.192 43.608,18.33 43.536,18.414 L43.536,18.414 C43.464,18.499 43.339,18.546 43.158,18.558 L43.158,18.558 C42.977,18.57 42.731,18.577 42.42,18.577 L42.42,18.577 C42.18,18.577 41.766,18.606 41.179,18.666 L41.179,18.666 C40.589,18.726 39.971,18.756 39.324,18.756 L39.324,18.756 C38.677,18.756 38.082,18.702 37.542,18.595 z" fill="url(#Gradient_3)"/>
    <path d="M57.36,-0 C56.784,-0 56.244,0.012 55.74,0.036 L55.74,0.036 C55.236,0.06 54.786,0.078 54.389,0.09 L54.389,0.09 C53.994,0.102 53.675,0.12 53.436,0.144 L53.436,0.144 C52.956,0.192 52.564,0.228 52.266,0.252 L52.266,0.252 C51.965,0.276 51.611,0.349 51.204,0.468 L51.204,0.468 C50.507,0.636 50.052,0.828 49.836,1.044 L49.836,1.044 C49.62,1.261 49.548,1.488 49.62,1.728 L49.62,1.728 C49.715,2.04 49.865,2.292 50.07,2.484 L50.07,2.484 C50.274,2.677 50.664,2.808 51.24,2.88 L51.24,2.88 C51.936,2.976 52.692,3.018 53.509,3.006 L53.509,3.006 C54.323,2.994 55.066,2.952 55.74,2.88 L55.74,2.88 C55.763,3.601 55.794,4.452 55.83,5.437 L55.83,5.437 C55.866,6.421 55.902,7.494 55.938,8.659 L55.938,8.659 C55.973,9.822 56.011,11.035 56.046,12.294 L56.046,12.294 C56.082,13.554 56.123,14.808 56.173,16.056 L56.173,16.056 C56.196,17.496 56.225,18.913 56.263,20.304 L56.263,20.304 C56.298,21.696 56.315,23.011 56.315,24.246 L56.315,24.246 C56.315,25.482 56.303,26.598 56.28,27.595 L56.28,27.595 C56.255,28.591 56.208,29.4 56.136,30.025 L56.136,30.025 C56.087,30.312 56.141,30.594 56.298,30.87 L56.298,30.87 C56.453,31.145 56.662,31.398 56.929,31.626 L56.929,31.626 C57.192,31.854 57.491,32.051 57.828,32.22 L57.828,32.22 C58.163,32.388 58.498,32.496 58.836,32.544 L58.836,32.544 C59.387,32.617 59.885,32.491 60.33,32.166 L60.33,32.166 C60.774,31.842 60.996,31.224 60.996,30.312 L60.996,30.312 C60.996,27.913 60.971,25.572 60.925,23.292 L60.925,23.292 C60.875,21.013 60.791,18.661 60.673,16.236 L60.673,16.236 C60.6,14.724 60.528,13.248 60.456,11.808 L60.456,11.808 C60.384,10.369 60.311,9.073 60.24,7.92 L60.24,7.92 C60.168,6.769 60.108,5.832 60.059,5.113 L60.059,5.113 C60.011,4.392 59.975,4.009 59.952,3.96 L59.952,3.96 C59.927,3.936 59.916,3.919 59.916,3.907 L59.916,3.907 C59.916,3.894 59.903,3.876 59.88,3.853 L59.88,3.853 C59.759,3.636 59.656,3.498 59.574,3.439 L59.574,3.439 C59.489,3.378 59.417,3.33 59.358,3.294 L59.358,3.294 C59.297,3.258 59.243,3.215 59.196,3.168 L59.196,3.168 C59.147,3.12 59.1,3.025 59.052,2.88 L59.052,2.88 C59.628,2.88 60.27,2.868 60.977,2.845 L60.977,2.845 C61.685,2.82 62.328,2.845 62.904,2.916 L62.904,2.916 L65.604,3.025 C65.795,3.001 65.94,2.976 66.036,2.952 L66.036,2.952 C66.131,2.928 66.209,2.898 66.27,2.863 L66.27,2.863 C66.328,2.827 66.389,2.778 66.45,2.718 L66.45,2.718 C66.509,2.658 66.599,2.592 66.719,2.521 L66.719,2.521 L66.684,1.909 C66.635,1.596 66.383,1.326 65.929,1.099 L65.929,1.099 C65.471,0.87 64.889,0.685 64.182,0.54 L64.182,0.54 C63.473,0.396 62.682,0.288 61.805,0.216 L61.805,0.216 C60.929,0.144 60.047,0.085 59.16,0.036 L59.16,0.036 C58.536,0.012 57.936,-0 57.36,-0 z" fill="url(#Gradient_4)"/>
    <path d="M76.943,3.025 C76.583,3.744 76.221,4.585 75.86,5.544 L75.86,5.544 C75.497,6.505 75.141,7.476 74.791,8.46 L74.791,8.46 C74.44,9.444 74.119,10.417 73.829,11.376 L73.829,11.376 C73.537,12.337 73.283,13.177 73.065,13.896 L73.065,13.896 C73.017,13.872 72.962,13.764 72.903,13.573 L72.903,13.573 C72.842,13.38 72.776,13.128 72.703,12.816 L72.703,12.816 C72.629,12.505 72.552,12.168 72.466,11.808 L72.466,11.808 C72.382,11.449 72.292,11.1 72.193,10.765 L72.193,10.765 C72.146,10.62 72.078,10.38 71.995,10.044 L71.995,10.044 C71.91,9.708 71.813,9.33 71.706,8.911 L71.706,8.911 C71.596,8.49 71.471,8.046 71.327,7.578 L71.327,7.578 C71.182,7.111 71.04,6.661 70.895,6.228 L70.895,6.228 C70.799,5.941 70.684,5.628 70.553,5.292 L70.553,5.292 C70.421,4.956 70.264,4.644 70.085,4.357 L70.085,4.357 C69.905,4.068 69.689,3.829 69.437,3.636 L69.437,3.636 C69.185,3.444 68.903,3.349 68.59,3.349 L68.59,3.349 C68.35,3.349 68.087,3.42 67.8,3.564 L67.8,3.564 C67.51,3.853 67.367,4.128 67.367,4.392 L67.367,4.392 C67.367,4.585 67.421,4.794 67.529,5.023 L67.529,5.023 C67.637,5.251 67.738,5.544 67.835,5.904 L67.835,5.904 C67.93,6.24 68.057,6.679 68.214,7.218 L68.214,7.218 C68.368,7.758 68.542,8.353 68.735,9 L68.735,9 C68.926,9.648 69.124,10.32 69.329,11.017 L69.329,11.017 C69.531,11.712 69.731,12.384 69.923,13.033 L69.923,13.033 C70.115,13.681 70.288,14.275 70.445,14.814 L70.445,14.814 C70.6,15.355 70.727,15.78 70.823,16.092 L70.823,16.092 C70.943,16.428 71.092,16.722 71.273,16.974 L71.273,16.974 C71.453,17.226 71.626,17.471 71.796,17.712 L71.796,17.712 C71.796,18 71.8,18.492 71.813,19.189 L71.813,19.189 C71.825,19.883 71.836,20.677 71.85,21.564 L71.85,21.564 C71.861,22.452 71.873,23.376 71.886,24.336 L71.886,24.336 C71.898,25.296 71.923,26.191 71.958,27.019 L71.958,27.019 C71.995,27.847 72.031,28.554 72.067,29.142 L72.067,29.142 C72.103,29.73 72.146,30.084 72.193,30.204 L72.193,30.204 C72.364,30.612 72.617,30.96 72.958,31.248 L72.958,31.248 C73.295,31.536 73.769,31.74 74.373,31.861 L74.373,31.861 C74.615,31.908 74.796,31.933 74.919,31.933 L74.919,31.933 C75.523,31.933 75.922,31.675 76.114,31.159 L76.114,31.159 C76.307,30.642 76.415,30.036 76.439,29.34 L76.439,29.34 L76.439,29.124 C76.439,28.596 76.415,27.965 76.367,27.234 L76.367,27.234 C76.319,26.503 76.264,25.734 76.206,24.931 L76.206,24.931 C76.145,24.126 76.09,23.298 76.044,22.447 L76.044,22.447 C75.994,21.594 75.971,20.773 75.971,19.98 L75.971,19.98 C75.971,19.068 76.012,18.228 76.096,17.46 L76.096,17.46 C76.18,16.692 76.342,16.056 76.583,15.552 L76.583,15.552 C76.846,14.976 77.057,14.437 77.214,13.933 L77.214,13.933 C77.368,13.429 77.566,12.829 77.807,12.132 L77.807,12.132 C78.215,10.956 78.647,9.775 79.103,8.586 L79.103,8.586 C79.559,7.398 79.954,6.3 80.292,5.292 L80.292,5.292 C80.339,5.124 80.382,4.974 80.417,4.842 L80.417,4.842 C80.453,4.71 80.471,4.573 80.471,4.429 L80.471,4.429 C80.471,4.093 80.411,3.792 80.292,3.529 L80.292,3.529 C80.17,3.265 80.026,3.001 79.859,2.736 L79.859,2.736 C79.499,2.232 79.067,1.98 78.563,1.98 L78.563,1.98 C77.915,1.98 77.376,2.328 76.943,3.025 z" fill="url(#Gradient_5)"/>
    <path d="M87.059,0.54 C85.522,0.661 84.299,1.314 83.387,2.502 L83.387,2.502 C82.474,3.691 81.947,5.185 81.803,6.984 L81.803,6.984 C81.706,8.688 82.174,10.488 83.207,12.384 L83.207,12.384 C83.471,12.864 83.86,13.398 84.377,13.986 L84.377,13.986 C84.893,14.574 85.354,15.06 85.762,15.445 L85.762,15.445 C86.842,16.428 87.797,17.322 88.625,18.126 L88.625,18.126 C89.453,18.93 90.119,19.776 90.623,20.664 L90.623,20.664 C91.127,21.552 91.444,22.536 91.577,23.617 L91.577,23.617 C91.707,24.697 91.617,26.017 91.307,27.577 L91.307,27.577 C91.186,28.2 90.989,28.728 90.713,29.161 L90.713,29.161 C90.436,29.592 90.119,29.94 89.758,30.204 L89.758,30.204 C89.399,30.467 89.014,30.648 88.606,30.744 L88.606,30.744 C88.198,30.841 87.815,30.864 87.455,30.816 L87.455,30.816 C87.022,30.769 86.639,30.636 86.303,30.42 L86.303,30.42 C85.966,30.204 85.727,29.916 85.583,29.556 L85.583,29.556 C85.367,29.1 85.102,28.657 84.791,28.224 L84.791,28.224 C84.479,27.792 84.058,27.636 83.531,27.756 L83.531,27.756 C82.762,27.972 82.403,28.32 82.451,28.8 L82.451,28.8 C82.499,29.28 82.907,29.952 83.674,30.816 L83.674,30.816 C84.251,31.488 84.844,32.011 85.457,32.382 L85.457,32.382 C86.069,32.755 86.758,33 87.526,33.12 L87.526,33.12 C89.327,33.456 90.983,33.288 92.495,32.617 L92.495,32.617 C93.575,32.136 94.461,31.398 95.159,30.402 L95.159,30.402 C95.854,29.406 96.227,28.152 96.274,26.64 L96.274,26.64 C96.297,25.08 96.137,23.743 95.79,22.626 L95.79,22.626 C95.44,21.511 94.948,20.502 94.313,19.603 L94.313,19.603 C93.676,18.702 92.921,17.85 92.046,17.046 L92.046,17.046 C91.168,16.242 90.227,15.36 89.219,14.4 L89.219,14.4 C88.858,14.04 88.499,13.59 88.139,13.05 L88.139,13.05 C87.779,12.511 87.46,11.916 87.184,11.269 L87.184,11.269 C86.909,10.62 86.692,9.942 86.537,9.234 L86.537,9.234 C86.38,8.526 86.314,7.824 86.339,7.128 L86.339,7.128 C86.387,6.433 86.549,5.761 86.825,5.113 L86.825,5.113 C87.1,4.464 87.491,3.9 87.995,3.42 L87.995,3.42 C88.475,2.916 88.913,2.706 89.309,2.79 L89.309,2.79 C89.705,2.874 90.071,3.084 90.407,3.42 L90.407,3.42 C90.743,3.757 91.055,4.145 91.342,4.59 L91.342,4.59 C91.631,5.034 91.907,5.376 92.171,5.617 L92.171,5.617 C92.338,5.784 92.518,5.851 92.712,5.814 L92.712,5.814 C92.902,5.779 93.071,5.689 93.216,5.544 L93.216,5.544 C93.358,5.4 93.473,5.232 93.557,5.04 L93.557,5.04 C93.641,4.849 93.67,4.681 93.647,4.536 L93.647,4.536 C93.598,4.105 93.43,3.691 93.143,3.294 L93.143,3.294 C92.854,2.898 92.512,2.544 92.116,2.232 L92.116,2.232 C91.721,1.921 91.307,1.65 90.875,1.422 L90.875,1.422 C90.442,1.194 90.047,1.02 89.686,0.9 L89.686,0.9 C88.944,0.647 88.226,0.52 87.532,0.52 L87.532,0.52 C87.373,0.52 87.215,0.526 87.059,0.54 z" fill="url(#Gradient_6)"/>
    <path d="M105.093,-0 C104.517,-0 103.977,0.012 103.473,0.036 L103.473,0.036 C102.969,0.06 102.519,0.078 102.124,0.09 L102.124,0.09 C101.727,0.102 101.408,0.12 101.169,0.144 L101.169,0.144 C100.689,0.192 100.3,0.228 100,0.252 L100,0.252 C99.698,0.276 99.346,0.349 98.938,0.468 L98.938,0.468 C98.24,0.636 97.786,0.828 97.57,1.044 L97.57,1.044 C97.354,1.261 97.282,1.488 97.354,1.728 L97.354,1.728 C97.448,2.04 97.599,2.292 97.803,2.484 L97.803,2.484 C98.007,2.677 98.398,2.808 98.973,2.88 L98.973,2.88 C99.67,2.976 100.426,3.018 101.242,3.006 L101.242,3.006 C102.057,2.994 102.802,2.952 103.473,2.88 L103.473,2.88 C103.497,3.601 103.528,4.452 103.564,5.437 L103.564,5.437 C103.599,6.421 103.635,7.494 103.671,8.659 L103.671,8.659 C103.708,9.822 103.744,11.035 103.78,12.294 L103.78,12.294 C103.816,13.554 103.857,14.808 103.906,16.056 L103.906,16.056 C103.929,17.496 103.96,18.913 103.996,20.304 L103.996,20.304 C104.032,21.696 104.049,23.011 104.049,24.246 L104.049,24.246 C104.049,25.482 104.037,26.598 104.013,27.595 L104.013,27.595 C103.99,28.591 103.942,29.4 103.87,30.025 L103.87,30.025 C103.82,30.312 103.875,30.594 104.032,30.87 L104.032,30.87 C104.187,31.145 104.397,31.398 104.662,31.626 L104.662,31.626 C104.926,31.854 105.225,32.051 105.561,32.22 L105.561,32.22 C105.897,32.388 106.233,32.496 106.57,32.544 L106.57,32.544 C107.122,32.617 107.619,32.491 108.064,32.166 L108.064,32.166 C108.508,31.842 108.73,31.224 108.73,30.312 L108.73,30.312 C108.73,27.913 108.706,25.572 108.658,23.292 L108.658,23.292 C108.609,21.013 108.525,18.661 108.406,16.236 L108.406,16.236 C108.334,14.724 108.261,13.248 108.19,11.808 L108.19,11.808 C108.118,10.369 108.045,9.073 107.973,7.92 L107.973,7.92 C107.902,6.769 107.842,5.832 107.794,5.113 L107.794,5.113 C107.745,4.392 107.709,4.009 107.685,3.96 L107.685,3.96 C107.662,3.936 107.65,3.919 107.65,3.907 L107.65,3.907 C107.65,3.894 107.637,3.876 107.614,3.853 L107.614,3.853 C107.492,3.636 107.391,3.498 107.307,3.439 L107.307,3.439 C107.223,3.378 107.151,3.33 107.091,3.294 L107.091,3.294 C107.032,3.258 106.977,3.215 106.929,3.168 L106.929,3.168 C106.881,3.12 106.834,3.025 106.786,2.88 L106.786,2.88 C107.362,2.88 108.004,2.868 108.711,2.845 L108.711,2.845 C109.419,2.82 110.061,2.845 110.637,2.916 L110.637,2.916 L113.337,3.025 C113.53,3.001 113.674,2.976 113.769,2.952 L113.769,2.952 C113.864,2.928 113.943,2.898 114.003,2.863 L114.003,2.863 C114.063,2.827 114.124,2.778 114.183,2.718 L114.183,2.718 C114.242,2.658 114.333,2.592 114.454,2.521 L114.454,2.521 L114.418,1.909 C114.369,1.596 114.116,1.326 113.662,1.099 L113.662,1.099 C113.206,0.87 112.623,0.685 111.916,0.54 L111.916,0.54 C111.208,0.396 110.416,0.288 109.54,0.216 L109.54,0.216 C108.663,0.144 107.78,0.085 106.893,0.036 L106.893,0.036 C106.269,0.012 105.669,-0 105.093,-0 z" fill="url(#Gradient_7)"/>
    <path d="M124.677,3.025 C124.318,3.744 123.956,4.585 123.595,5.544 L123.595,5.544 C123.232,6.505 122.876,7.476 122.526,8.46 L122.526,8.46 C122.174,9.444 121.853,10.417 121.563,11.376 L121.563,11.376 C121.272,12.337 121.019,13.177 120.801,13.896 L120.801,13.896 C120.752,13.872 120.698,13.764 120.637,13.573 L120.637,13.573 C120.577,13.38 120.51,13.128 120.438,12.816 L120.438,12.816 C120.365,12.505 120.286,12.168 120.201,11.808 L120.201,11.808 C120.117,11.449 120.026,11.1 119.93,10.765 L119.93,10.765 C119.88,10.62 119.814,10.38 119.729,10.044 L119.729,10.044 C119.644,9.708 119.547,9.33 119.44,8.911 L119.44,8.911 C119.332,8.49 119.206,8.046 119.062,7.578 L119.062,7.578 C118.918,7.111 118.774,6.661 118.629,6.228 L118.629,6.228 C118.534,5.941 118.419,5.628 118.288,5.292 L118.288,5.292 C118.156,4.956 118,4.644 117.82,4.357 L117.82,4.357 C117.64,4.068 117.423,3.829 117.171,3.636 L117.171,3.636 C116.919,3.444 116.637,3.349 116.326,3.349 L116.326,3.349 C116.086,3.349 115.822,3.42 115.534,3.564 L115.534,3.564 C115.246,3.853 115.102,4.128 115.102,4.392 L115.102,4.392 C115.102,4.585 115.156,4.794 115.264,5.023 L115.264,5.023 C115.372,5.251 115.473,5.544 115.57,5.904 L115.57,5.904 C115.665,6.24 115.791,6.679 115.948,7.218 L115.948,7.218 C116.103,7.758 116.277,8.353 116.469,9 L116.469,9 C116.662,9.648 116.86,10.32 117.064,11.017 L117.064,11.017 C117.267,11.712 117.465,12.384 117.658,13.033 L117.658,13.033 C117.849,13.681 118.023,14.275 118.18,14.814 L118.18,14.814 C118.336,15.355 118.462,15.78 118.558,16.092 L118.558,16.092 C118.678,16.428 118.828,16.722 119.007,16.974 L119.007,16.974 C119.188,17.226 119.362,17.471 119.53,17.712 L119.53,17.712 C119.53,18 119.535,18.492 119.547,19.189 L119.547,19.189 C119.561,19.883 119.572,20.677 119.585,21.564 L119.585,21.564 C119.596,22.452 119.608,23.376 119.621,24.336 L119.621,24.336 C119.633,25.296 119.657,26.191 119.693,27.019 L119.693,27.019 C119.729,27.847 119.765,28.554 119.803,29.142 L119.803,29.142 C119.839,29.73 119.88,30.084 119.93,30.204 L119.93,30.204 C120.098,30.612 120.353,30.96 120.692,31.248 L120.692,31.248 C121.031,31.536 121.504,31.74 122.107,31.861 L122.107,31.861 C122.351,31.908 122.531,31.933 122.653,31.933 L122.653,31.933 C123.259,31.933 123.656,31.675 123.849,31.159 L123.849,31.159 C124.042,30.642 124.15,30.036 124.173,29.34 L124.173,29.34 L124.173,29.124 C124.173,28.596 124.15,27.965 124.102,27.234 L124.102,27.234 C124.053,26.503 123.999,25.734 123.94,24.931 L123.94,24.931 C123.88,24.126 123.826,23.298 123.778,22.447 L123.778,22.447 C123.729,21.594 123.706,20.773 123.706,19.98 L123.706,19.98 C123.706,19.068 123.747,18.228 123.832,17.46 L123.832,17.46 C123.916,16.692 124.078,16.056 124.318,15.552 L124.318,15.552 C124.582,14.976 124.791,14.437 124.948,13.933 L124.948,13.933 C125.103,13.429 125.302,12.829 125.542,12.132 L125.542,12.132 C125.95,10.956 126.382,9.775 126.837,8.586 L126.837,8.586 C127.293,7.398 127.689,6.3 128.026,5.292 L128.026,5.292 C128.074,5.124 128.116,4.974 128.152,4.842 L128.152,4.842 C128.188,4.71 128.206,4.573 128.206,4.429 L128.206,4.429 C128.206,4.093 128.146,3.792 128.026,3.529 L128.026,3.529 C127.906,3.265 127.761,3.001 127.593,2.736 L127.593,2.736 C127.234,2.232 126.801,1.98 126.297,1.98 L126.297,1.98 C125.65,1.98 125.11,2.328 124.677,3.025 z" fill="url(#Gradient_8)"/>
    <path d="M130.257,2.124 C130.137,2.364 130.054,2.646 130.005,2.97 L130.005,2.97 C129.957,3.294 129.921,3.624 129.898,3.96 L129.898,3.96 C129.874,4.296 129.862,4.614 129.862,4.914 L129.862,4.914 L129.862,5.617 C129.813,5.88 129.79,6.409 129.79,7.201 L129.79,7.201 L129.79,9.972 C129.79,10.98 129.795,12.048 129.807,13.177 L129.807,13.177 C129.819,14.303 129.831,15.383 129.843,16.416 L129.843,16.416 C129.855,17.448 129.866,18.361 129.879,19.152 L129.879,19.152 C129.891,19.945 129.91,20.521 129.933,20.88 L129.933,20.88 L129.933,21.204 C129.957,21.612 129.988,22.128 130.024,22.752 L130.024,22.752 C130.059,23.376 130.095,24.042 130.131,24.75 L130.131,24.75 C130.168,25.458 130.216,26.172 130.276,26.892 L130.276,26.892 C130.335,27.613 130.395,28.284 130.456,28.909 L130.456,28.909 C130.515,29.532 130.576,30.066 130.635,30.511 L130.635,30.511 C130.694,30.954 130.761,31.248 130.834,31.392 L130.834,31.392 C130.906,31.56 131.049,31.734 131.265,31.914 L131.265,31.914 C131.482,32.095 131.734,32.256 132.021,32.4 L132.021,32.4 C132.309,32.544 132.621,32.665 132.958,32.761 L132.958,32.761 C133.294,32.856 133.606,32.904 133.893,32.904 L133.893,32.904 C134.277,32.904 134.601,32.802 134.866,32.599 L134.866,32.599 C135.13,32.394 135.261,32.051 135.261,31.573 L135.261,31.573 L135.261,31.285 C135.213,30.876 135.154,30.246 135.082,29.394 L135.082,29.394 C135.009,28.542 134.925,27.613 134.83,26.605 L134.83,26.605 C134.733,25.404 134.654,24.24 134.595,23.113 L134.595,23.113 C134.536,21.984 134.505,21.108 134.505,20.484 L134.505,20.484 C134.505,20.076 134.517,19.848 134.542,19.8 L134.542,19.8 C134.733,19.895 135.123,20.214 135.711,20.754 L135.711,20.754 C136.3,21.294 136.954,21.912 137.673,22.609 L137.673,22.609 C138.2,23.113 138.64,23.652 138.988,24.228 L138.988,24.228 C139.335,24.804 139.654,25.368 139.942,25.92 L139.942,25.92 C140.229,26.471 140.505,27.012 140.769,27.54 L140.769,27.54 C141.034,28.068 141.357,28.548 141.742,28.98 L141.742,28.98 L143.542,31.033 C143.902,31.416 144.382,31.609 144.982,31.609 L144.982,31.609 C145.509,31.609 145.941,31.452 146.278,31.14 L146.278,31.14 C146.278,30.924 146.181,30.601 145.99,30.168 L145.99,30.168 C145.652,29.568 145.179,28.824 144.568,27.937 L144.568,27.937 C143.956,27.048 143.313,26.16 142.641,25.273 L142.641,25.273 C141.97,24.383 141.321,23.568 140.698,22.825 L140.698,22.825 C140.072,22.081 139.605,21.552 139.294,21.241 L139.294,21.241 C138.838,20.832 138.393,20.425 137.961,20.017 L137.961,20.017 C137.53,19.608 137.139,19.243 136.792,18.918 L136.792,18.918 C136.443,18.595 136.162,18.325 135.946,18.109 L135.946,18.109 C135.729,17.892 135.622,17.773 135.622,17.748 L135.622,17.748 L135.622,17.64 C135.622,17.448 135.789,17.148 136.126,16.741 L136.126,16.741 C136.605,16.164 137.152,15.48 137.763,14.689 L137.763,14.689 C138.376,13.896 139.005,13.068 139.654,12.204 L139.654,12.204 C139.749,12.06 139.942,11.778 140.229,11.359 L140.229,11.359 C140.517,10.938 140.841,10.452 141.202,9.9 L141.202,9.9 C141.561,9.349 141.94,8.748 142.335,8.101 L142.335,8.101 C142.732,7.452 143.097,6.816 143.433,6.193 L143.433,6.193 C143.842,5.472 144.177,4.806 144.442,4.195 L144.442,4.195 C144.706,3.582 144.837,3.108 144.837,2.773 L144.837,2.773 C144.837,2.677 144.813,2.58 144.765,2.484 L144.765,2.484 C144.549,2.292 144.328,2.135 144.099,2.017 L144.099,2.017 C143.871,1.895 143.626,1.836 143.362,1.836 L143.362,1.836 C142.906,1.836 142.546,2.052 142.282,2.484 L142.282,2.484 C141.873,3.18 141.49,3.858 141.129,4.519 L141.129,4.519 C140.769,5.178 140.41,5.851 140.049,6.535 L140.049,6.535 C139.69,7.218 139.311,7.915 138.916,8.622 L138.916,8.622 C138.519,9.33 138.07,10.056 137.566,10.8 L137.566,10.8 C137.085,11.521 136.616,12.21 136.162,12.87 L136.162,12.87 C135.706,13.53 135.202,14.208 134.65,14.904 L134.65,14.904 C134.481,14.88 134.379,14.605 134.343,14.077 L134.343,14.077 C134.307,13.548 134.29,12.876 134.29,12.06 L134.29,12.06 L134.29,10.224 C134.29,9.337 134.265,8.424 134.217,7.488 L134.217,7.488 C134.169,6.552 134.061,5.682 133.893,4.878 L133.893,4.878 C133.725,4.074 133.479,3.372 133.156,2.773 L133.156,2.773 C132.832,2.173 132.393,1.765 131.841,1.548 L131.841,1.548 C131.626,1.476 131.422,1.441 131.229,1.441 L131.229,1.441 C130.773,1.441 130.45,1.669 130.257,2.124 z" fill="url(#Gradient_9)"/>
    <path d="M147.464,1.369 C147.464,1.56 147.458,1.759 147.446,1.962 L147.446,1.962 C147.434,2.166 147.428,2.364 147.428,2.556 L147.428,2.556 C147.332,4.308 147.261,6.096 147.212,7.92 L147.212,7.92 C147.14,10.945 147.104,13.999 147.104,17.082 L147.104,17.082 C147.104,20.166 147.068,23.161 146.997,26.064 L146.997,26.064 L146.997,27.109 C146.997,27.492 147.014,27.865 147.05,28.224 L147.05,28.224 C147.086,28.584 147.146,28.914 147.23,29.214 L147.23,29.214 C147.314,29.514 147.44,29.749 147.608,29.916 L147.608,29.916 C147.896,30.132 148.232,30.36 148.616,30.601 L148.616,30.601 C148.999,30.841 149.373,30.996 149.732,31.068 L149.732,31.068 C150.092,31.14 150.398,31.074 150.65,30.87 L150.65,30.87 C150.902,30.667 151.028,30.227 151.028,29.556 L151.028,29.556 C151.005,28.572 150.993,27.606 150.993,26.659 L150.993,26.659 L150.993,23.796 C150.969,22.548 150.962,21.312 150.974,20.088 L150.974,20.088 C150.986,18.865 151.005,17.628 151.028,16.38 L151.028,16.38 C151.052,14.196 151.064,12.042 151.064,9.918 L151.064,9.918 C151.064,7.794 151.028,5.64 150.956,3.456 L150.956,3.456 C150.956,3.12 150.848,2.778 150.632,2.431 L150.632,2.431 C150.416,2.083 150.146,1.788 149.822,1.548 L149.822,1.548 C149.498,1.308 149.126,1.158 148.706,1.099 L148.706,1.099 C148.622,1.087 148.538,1.08 148.454,1.08 L148.454,1.08 C148.12,1.08 147.79,1.177 147.464,1.369 z" fill="url(#Gradient_10)"/>
  </g>
</svg>
