<?xml version="1.0" encoding="UTF-8"?>
<!DOCTYPE svg PUBLIC "-//W3C//DTD SVG 1.1//EN" "http://www.w3.org/Graphics/SVG/1.1/DTD/svg11.dtd">
<svg version="1.1" xmlns="http://www.w3.org/2000/svg" xmlns:xlink="http://www.w3.org/1999/xlink" x="0" y="0" width="155.062" height="38.125" viewBox="0, 0, 155.062, 38.125">
  <defs>
    <clipPath id="Clip_1">
      <path d="M0,-0.001 L155.062,-0.001 L155.062,38.125 L0,38.125 z"/>
    </clipPath>
  </defs>
  <g id="Layer_1">
    <g clip-path="url(#Clip_1)">
      <path d="M9.485,36.288 C8.859,36.288 8.207,36.226 7.55,36.103 C6.684,35.968 5.865,35.675 5.144,35.236 C4.444,34.811 3.764,34.216 3.122,33.466 C2.201,32.432 1.734,31.611 1.663,30.899 C1.616,30.433 1.697,29.291 3.467,28.793 C3.703,28.738 3.888,28.717 4.066,28.717 C4.76,28.717 5.379,29.044 5.808,29.639 C6.156,30.121 6.453,30.621 6.693,31.128 C6.784,31.351 6.89,31.476 7.05,31.578 C7.257,31.712 7.492,31.791 7.772,31.822 C7.872,31.835 7.95,31.84 8.031,31.84 C8.203,31.84 8.389,31.817 8.584,31.771 C8.863,31.705 9.121,31.583 9.375,31.397 C9.632,31.209 9.868,30.948 10.077,30.621 C10.283,30.299 10.436,29.884 10.532,29.386 C10.822,27.932 10.909,26.706 10.791,25.737 C10.675,24.794 10.396,23.926 9.96,23.158 C9.505,22.356 8.891,21.578 8.135,20.843 C7.314,20.046 6.368,19.16 5.296,18.183 C4.855,17.769 4.379,17.269 3.832,16.645 C3.262,15.997 2.839,15.414 2.537,14.865 C1.418,12.809 0.905,10.813 1.011,8.928 C1.172,6.916 1.774,5.23 2.801,3.892 C3.887,2.477 5.363,1.686 7.188,1.543 C7.366,1.528 7.553,1.52 7.741,1.52 C8.541,1.52 9.374,1.666 10.217,1.954 C10.621,2.089 11.071,2.286 11.548,2.537 C12.032,2.793 12.501,3.099 12.942,3.446 C13.41,3.815 13.818,4.238 14.158,4.705 C14.548,5.241 14.78,5.819 14.847,6.425 C14.896,6.71 14.842,7.07 14.68,7.441 C14.546,7.746 14.361,8.018 14.131,8.25 C13.845,8.535 13.49,8.724 13.103,8.797 C13.006,8.815 12.911,8.824 12.817,8.824 C12.522,8.824 12.084,8.737 11.671,8.323 C11.374,8.056 11.048,7.656 10.711,7.133 C10.464,6.753 10.193,6.413 9.906,6.126 C9.713,5.933 9.519,5.816 9.318,5.77 C9.328,5.781 9.185,5.838 8.926,6.11 C8.483,6.534 8.175,6.978 7.952,7.503 C7.721,8.046 7.583,8.616 7.543,9.197 C7.524,9.772 7.583,10.396 7.72,11.018 C7.862,11.663 8.061,12.288 8.312,12.876 C8.562,13.464 8.853,14.008 9.178,14.495 C9.5,14.979 9.821,15.381 10.132,15.692 C11.119,16.632 12.056,17.509 12.928,18.309 C13.853,19.159 14.663,20.072 15.336,21.025 C16.029,22.006 16.572,23.118 16.95,24.328 C17.328,25.541 17.507,26.997 17.482,28.655 C17.426,30.375 16.991,31.823 16.186,32.975 C15.387,34.118 14.352,34.977 13.108,35.53 C11.975,36.033 10.756,36.288 9.485,36.288" fill="#F7F4E2"/>
      <path d="M7.741,0.52 C7.524,0.52 7.309,0.529 7.095,0.547 C5.02,0.71 3.256,1.657 2.007,3.284 C0.861,4.776 0.191,6.641 0.016,8.824 C-0.104,10.945 0.449,13.122 1.658,15.34 C1.998,15.96 2.463,16.602 3.081,17.306 C3.649,17.953 4.147,18.476 4.602,18.903 C5.677,19.883 6.625,20.771 7.439,21.561 C8.127,22.229 8.682,22.932 9.091,23.651 C9.466,24.313 9.698,25.036 9.799,25.859 C9.904,26.722 9.821,27.841 9.553,29.185 C9.478,29.569 9.372,29.868 9.234,30.084 C9.093,30.305 8.941,30.476 8.784,30.591 C8.641,30.696 8.501,30.763 8.357,30.797 C8.235,30.826 8.126,30.84 8.031,30.84 C7.996,30.84 7.962,30.838 7.928,30.834 C7.756,30.814 7.668,30.78 7.624,30.757 L7.624,30.756 L7.597,30.7 C7.331,30.139 7.003,29.585 6.62,29.055 C5.997,28.191 5.091,27.717 4.066,27.717 C3.814,27.717 3.554,27.747 3.296,27.806 L3.245,27.817 L3.196,27.831 C1.155,28.405 0.552,29.845 0.668,31 C0.762,31.943 1.292,32.914 2.388,34.145 C3.074,34.947 3.835,35.611 4.626,36.091 C5.449,36.593 6.382,36.929 7.395,37.091 C8.103,37.222 8.806,37.288 9.485,37.288 C10.897,37.288 12.252,37.004 13.513,36.444 C14.927,35.816 16.101,34.842 17.006,33.547 C17.924,32.234 18.42,30.604 18.481,28.704 C18.509,26.906 18.315,25.345 17.906,24.031 C17.496,22.72 16.907,21.515 16.153,20.448 C15.439,19.437 14.581,18.47 13.605,17.573 C12.737,16.776 11.795,15.895 10.806,14.952 C10.575,14.721 10.296,14.369 10.011,13.941 C9.72,13.505 9.458,13.016 9.232,12.484 C9.005,11.953 8.825,11.388 8.697,10.805 C8.58,10.275 8.529,9.747 8.543,9.231 C8.579,8.769 8.686,8.331 8.872,7.896 C9.007,7.579 9.181,7.301 9.403,7.052 C9.566,7.239 9.723,7.449 9.872,7.679 C10.247,8.258 10.618,8.714 11.004,9.07 C11.509,9.556 12.151,9.824 12.817,9.824 C12.973,9.824 13.132,9.809 13.287,9.779 C13.874,9.669 14.409,9.385 14.836,8.958 C15.157,8.636 15.411,8.262 15.595,7.844 C15.828,7.312 15.909,6.784 15.837,6.272 C15.743,5.507 15.451,4.783 14.967,4.117 C14.574,3.576 14.101,3.086 13.563,2.662 C13.072,2.276 12.553,1.937 12.017,1.654 C11.49,1.376 10.99,1.158 10.53,1.003 C9.594,0.684 8.652,0.52 7.741,0.52 M7.741,2.52 C8.435,2.52 9.152,2.646 9.894,2.9 C10.254,3.02 10.65,3.194 11.082,3.422 C11.514,3.65 11.928,3.92 12.324,4.232 C12.72,4.544 13.062,4.898 13.35,5.294 C13.638,5.69 13.805,6.104 13.854,6.536 C13.878,6.68 13.848,6.848 13.764,7.04 C13.679,7.232 13.566,7.4 13.422,7.544 C13.278,7.688 13.11,7.778 12.918,7.814 C12.884,7.82 12.85,7.824 12.817,7.824 C12.662,7.824 12.516,7.754 12.378,7.616 C12.114,7.376 11.838,7.034 11.55,6.59 C11.262,6.146 10.949,5.756 10.614,5.42 C10.278,5.084 9.912,4.874 9.516,4.79 C9.459,4.778 9.402,4.772 9.344,4.772 C8.994,4.772 8.614,4.988 8.202,5.42 C7.698,5.9 7.307,6.464 7.032,7.112 C6.756,7.76 6.594,8.432 6.546,9.128 C6.522,9.824 6.588,10.526 6.744,11.234 C6.9,11.942 7.116,12.62 7.392,13.268 C7.668,13.916 7.986,14.51 8.346,15.05 C8.706,15.59 9.066,16.04 9.426,16.4 C10.434,17.36 11.376,18.242 12.252,19.046 C13.128,19.851 13.884,20.702 14.52,21.602 C15.156,22.502 15.648,23.51 15.996,24.626 C16.344,25.742 16.506,27.08 16.482,28.64 C16.433,30.152 16.062,31.406 15.366,32.402 C14.67,33.398 13.782,34.136 12.702,34.616 C11.694,35.064 10.621,35.288 9.485,35.288 C8.917,35.288 8.333,35.232 7.734,35.12 C6.966,35 6.276,34.754 5.664,34.382 C5.052,34.01 4.458,33.488 3.882,32.816 C3.114,31.952 2.706,31.28 2.658,30.8 C2.61,30.32 2.97,29.972 3.738,29.756 C3.852,29.73 3.962,29.717 4.066,29.717 C4.443,29.717 4.754,29.886 4.998,30.224 C5.309,30.656 5.574,31.101 5.79,31.556 C5.934,31.916 6.174,32.204 6.51,32.42 C6.845,32.636 7.23,32.768 7.662,32.816 C7.782,32.832 7.906,32.84 8.031,32.84 C8.281,32.84 8.542,32.808 8.814,32.744 C9.222,32.648 9.606,32.468 9.966,32.204 C10.326,31.94 10.644,31.592 10.92,31.16 C11.196,30.728 11.393,30.2 11.514,29.576 C11.825,28.016 11.915,26.696 11.784,25.616 C11.652,24.536 11.334,23.552 10.83,22.664 C10.326,21.776 9.66,20.93 8.832,20.126 C8.004,19.322 7.05,18.428 5.97,17.444 C5.561,17.061 5.1,16.574 4.584,15.986 C4.068,15.398 3.678,14.864 3.414,14.384 C2.382,12.488 1.914,10.688 2.01,8.984 C2.154,7.184 2.681,5.69 3.594,4.502 C4.506,3.314 5.73,2.661 7.266,2.54 C7.423,2.526 7.581,2.52 7.741,2.52" fill="#8E693F"/>
      <path d="M27.073,35.563 C26.933,35.563 26.791,35.555 26.647,35.535 C26.195,35.472 25.753,35.331 25.322,35.115 C24.912,34.91 24.539,34.664 24.214,34.382 C23.867,34.083 23.581,33.74 23.368,33.361 C23.101,32.891 23.005,32.372 23.091,31.858 C23.151,31.321 23.198,30.534 23.221,29.569 C23.244,28.583 23.257,27.474 23.257,26.247 C23.257,25.019 23.239,23.712 23.203,22.33 C23.167,20.936 23.136,19.516 23.113,18.073 C23.065,16.844 23.023,15.587 22.987,14.323 L22.879,10.69 C22.844,9.527 22.807,8.456 22.771,7.473 C22.751,6.929 22.733,6.425 22.717,5.962 C22.317,5.985 21.898,6 21.463,6.006 L21.169,6.008 C20.419,6.008 19.704,5.962 19.044,5.871 C18.245,5.772 17.695,5.562 17.324,5.211 C16.995,4.902 16.752,4.501 16.605,4.022 C16.426,3.424 16.595,2.813 17.069,2.338 C17.432,1.975 18,1.716 18.91,1.497 C19.339,1.369 19.752,1.286 20.126,1.256 C20.423,1.232 20.805,1.197 21.277,1.149 C21.535,1.124 21.876,1.105 22.299,1.091 C22.692,1.079 23.136,1.062 23.634,1.038 C24.152,1.013 24.708,1.001 25.301,1.001 C25.889,1.001 26.501,1.013 27.139,1.038 C28.052,1.087 28.943,1.147 29.828,1.22 C30.741,1.295 31.58,1.41 32.322,1.561 C33.124,1.724 33.777,1.935 34.316,2.204 C35.263,2.678 35.544,3.31 35.613,3.755 L35.695,5.069 L35.172,5.38 C35.138,5.4 35.109,5.418 35.087,5.437 C34.981,5.543 34.855,5.642 34.724,5.72 C34.579,5.808 34.413,5.875 34.219,5.923 C34.095,5.954 33.911,5.987 33.666,6.017 L33.586,6.027 L30.805,5.916 C30.332,5.86 29.9,5.836 29.437,5.836 C29.28,5.836 28.912,5.846 28.891,5.846 C28.925,6.044 28.954,6.379 28.998,7.045 C29.047,7.767 29.107,8.705 29.179,9.858 C29.251,11.014 29.323,12.314 29.395,13.759 C29.468,15.199 29.54,16.676 29.612,18.189 C29.731,20.61 29.817,22.993 29.865,25.271 C29.912,27.548 29.937,29.917 29.937,32.312 C29.937,33.556 29.574,34.451 28.861,34.973 C28.324,35.366 27.722,35.563 27.073,35.563" fill="#F7F4E2"/>
      <path d="M25.301,0 C24.699,0 24.122,0.013 23.586,0.039 C23.095,0.062 22.657,0.079 22.272,0.091 C21.822,0.105 21.468,0.125 21.182,0.153 C20.714,0.201 20.339,0.235 20.051,0.258 C19.615,0.293 19.151,0.384 18.628,0.536 C17.555,0.799 16.856,1.137 16.364,1.628 C15.631,2.363 15.363,3.361 15.645,4.302 C15.847,4.963 16.182,5.51 16.643,5.943 C17.171,6.441 17.9,6.736 18.934,6.865 C19.613,6.958 20.374,7.008 21.169,7.008 L21.48,7.006 C21.572,7.004 21.663,7.002 21.754,7 C21.759,7.166 21.766,7.335 21.772,7.509 C21.808,8.49 21.844,9.56 21.88,10.719 C21.916,11.883 21.952,13.093 21.988,14.351 C22.024,15.619 22.066,16.88 22.114,18.134 C22.137,19.535 22.167,20.958 22.203,22.356 C22.238,23.712 22.257,25.021 22.257,26.246 C22.257,27.447 22.245,28.558 22.221,29.547 C22.199,30.458 22.156,31.202 22.094,31.758 C21.988,32.479 22.128,33.203 22.5,33.858 C22.768,34.332 23.127,34.766 23.565,35.143 C23.947,35.474 24.39,35.768 24.875,36.01 C25.402,36.273 25.947,36.446 26.495,36.524 C26.703,36.551 26.89,36.563 27.073,36.563 C27.926,36.563 28.748,36.293 29.449,35.782 C30.437,35.061 30.937,33.894 30.937,32.312 C30.937,29.91 30.912,27.534 30.864,25.25 C30.816,22.963 30.731,20.57 30.611,18.137 C30.538,16.627 30.467,15.149 30.394,13.708 C30.322,12.259 30.249,10.955 30.177,9.795 C30.105,8.64 30.044,7.701 29.996,6.979 C29.993,6.935 29.99,6.891 29.988,6.849 C30.202,6.859 30.406,6.877 30.598,6.901 L30.681,6.911 L30.765,6.915 L33.465,7.022 L33.627,7.029 L33.787,7.009 C34.059,6.976 34.279,6.938 34.46,6.893 C34.749,6.821 35.011,6.714 35.241,6.576 C35.404,6.479 35.563,6.359 35.711,6.223 L36.718,5.623 L36.657,4.402 L36.621,3.79 L36.615,3.696 L36.601,3.602 C36.496,2.923 36.092,1.974 34.764,1.31 C34.144,1 33.411,0.761 32.522,0.58 C31.741,0.421 30.863,0.301 29.911,0.223 C29.031,0.15 28.122,0.089 27.21,0.039 C26.526,0.013 25.895,0 25.301,0 M25.301,2 C25.877,2 26.476,2.012 27.101,2.036 C27.989,2.084 28.87,2.144 29.747,2.216 C30.623,2.288 31.415,2.396 32.123,2.54 C32.83,2.684 33.413,2.87 33.869,3.098 C34.324,3.326 34.576,3.596 34.625,3.908 L34.661,4.52 C34.54,4.592 34.45,4.658 34.391,4.718 C34.331,4.778 34.27,4.826 34.211,4.862 C34.151,4.898 34.072,4.928 33.977,4.952 C33.881,4.976 33.737,5 33.545,5.024 L30.845,4.916 C30.413,4.862 29.943,4.835 29.437,4.835 C29.268,4.835 29.095,4.838 28.919,4.844 C28.211,4.868 27.569,4.88 26.993,4.88 C27.041,5.024 27.089,5.12 27.137,5.168 C27.185,5.216 27.238,5.258 27.299,5.294 C27.359,5.33 27.43,5.378 27.515,5.438 C27.598,5.498 27.7,5.636 27.821,5.852 C27.844,5.876 27.857,5.894 27.857,5.906 C27.857,5.918 27.868,5.937 27.893,5.96 C27.916,6.008 27.952,6.392 28.001,7.112 C28.049,7.832 28.109,8.768 28.181,9.92 C28.253,11.072 28.325,12.368 28.397,13.808 C28.469,15.248 28.541,16.724 28.613,18.236 C28.733,20.661 28.817,23.012 28.865,25.292 C28.913,27.572 28.937,29.913 28.937,32.312 C28.937,33.225 28.715,33.842 28.271,34.166 C27.907,34.431 27.508,34.563 27.073,34.563 C26.976,34.563 26.877,34.557 26.777,34.544 C26.44,34.496 26.105,34.388 25.769,34.22 C25.432,34.052 25.133,33.854 24.869,33.626 C24.604,33.398 24.395,33.146 24.239,32.87 C24.082,32.594 24.029,32.312 24.077,32.024 C24.149,31.4 24.197,30.59 24.221,29.594 C24.244,28.599 24.257,27.482 24.257,26.246 C24.257,25.01 24.239,23.696 24.203,22.304 C24.167,20.913 24.136,19.496 24.113,18.056 C24.064,16.809 24.023,15.554 23.987,14.294 C23.951,13.034 23.915,11.822 23.879,10.658 C23.843,9.494 23.807,8.42 23.771,7.436 C23.735,6.452 23.704,5.6 23.681,4.88 C23.009,4.952 22.264,4.994 21.449,5.006 C21.355,5.007 21.261,5.008 21.169,5.008 C20.459,5.008 19.797,4.965 19.181,4.88 C18.605,4.808 18.215,4.676 18.011,4.484 C17.806,4.292 17.656,4.04 17.561,3.728 C17.489,3.488 17.561,3.26 17.777,3.044 C17.993,2.828 18.448,2.636 19.145,2.468 C19.552,2.348 19.906,2.276 20.207,2.252 C20.507,2.229 20.896,2.192 21.377,2.144 C21.616,2.121 21.935,2.103 22.331,2.09 C22.727,2.078 23.177,2.06 23.681,2.036 C24.185,2.012 24.725,2 25.301,2" fill="#8E693F"/>
      <path d="M39.475,19.544 C39.51,19.55 39.591,19.585 39.735,19.613 C40.207,19.708 40.741,19.755 41.321,19.755 C41.933,19.755 42.523,19.727 43.073,19.671 C43.713,19.606 44.14,19.576 44.416,19.576 C44.503,19.576 44.584,19.575 44.66,19.574 C44.656,19.483 44.651,19.385 44.643,19.278 C44.593,18.33 44.586,17.378 44.623,16.433 C44.658,15.567 44.641,14.725 44.572,13.929 C44.526,13.54 44.482,13.088 44.446,12.605 L44.355,11.395 C44.31,10.29 44.161,9.445 43.91,8.851 C43.691,8.337 43.438,7.973 43.178,7.8 C43.008,7.686 42.844,7.633 42.664,7.633 C42.608,7.633 42.551,7.638 42.493,7.648 C42.16,7.704 41.842,7.858 41.521,8.12 C41.155,8.419 40.812,8.83 40.502,9.341 C40.193,9.848 39.975,10.421 39.854,11.045 L39.834,11.15 L39.792,11.248 C39.792,11.248 39.735,11.405 39.667,11.966 C39.61,12.44 39.564,12.988 39.529,13.611 C39.494,14.247 39.47,14.913 39.458,15.606 C39.446,16.309 39.441,16.969 39.441,17.587 C39.441,18.2 39.446,18.712 39.458,19.124 C39.463,19.302 39.468,19.442 39.475,19.544 M48.416,37.124 C48.075,37.124 47.719,37.079 47.36,36.99 C46.747,36.838 46.218,36.472 45.787,35.903 C45.585,35.636 45.465,35.446 45.415,35.346 C45.334,35.186 45.272,34.968 45.201,34.579 L45.19,34.519 L44.603,24.466 L44.606,24.411 C44.617,24.193 44.621,24.03 44.622,23.911 C43.705,23.901 42.849,23.878 42.067,23.843 C41.325,23.809 40.545,23.746 39.739,23.653 C39.74,23.665 39.819,24.483 39.867,24.934 C39.895,25.317 39.914,25.832 39.927,26.515 C39.938,27.171 39.956,27.875 39.98,28.626 C40.004,29.394 40.017,30.124 40.017,30.817 L40.017,32.383 C39.975,33.194 39.749,33.731 39.324,34.077 C38.99,34.349 38.594,34.492 38.178,34.492 C38.085,34.492 37.991,34.485 37.895,34.47 C37.493,34.41 37.107,34.245 36.749,33.981 C36.403,33.726 36.153,33.459 35.986,33.164 C35.823,32.865 35.644,32.361 35.501,30.801 C35.405,29.76 35.319,28.505 35.246,27.07 C35.197,26.055 35.155,24.994 35.119,23.884 C35.083,22.777 35.053,21.718 35.029,20.707 C35.005,19.702 34.981,18.792 34.957,17.977 C34.933,17.17 34.909,16.542 34.886,16.091 C34.835,15.366 34.848,14.539 34.925,13.65 C35,12.76 35.148,11.866 35.364,10.994 C35.581,10.112 35.88,9.248 36.251,8.427 C36.635,7.58 37.101,6.825 37.637,6.183 C38.556,5.106 39.535,4.27 40.555,3.688 C41.32,3.25 42.203,3.028 43.179,3.028 C43.642,3.028 44.136,3.078 44.645,3.178 C45.317,3.318 45.858,3.491 46.31,3.708 C46.791,3.94 47.266,4.291 47.761,4.782 C48.452,5.494 49.008,6.291 49.428,7.164 C49.833,8.009 50.144,8.889 50.353,9.782 C50.557,10.652 50.704,11.537 50.792,12.412 C50.878,13.27 50.935,14.092 50.96,14.854 C50.961,15.125 50.966,15.587 50.978,16.274 C50.991,16.966 51.008,17.712 51.032,18.511 C51.056,19.321 51.074,20.093 51.087,20.829 C51.099,21.57 51.104,22.097 51.104,22.412 L51.141,31.84 C51.141,32.461 51.133,32.853 51.12,33.02 C51.11,33.14 51.104,33.228 51.104,33.284 C51.104,33.339 51.11,33.427 51.12,33.547 C51.131,33.702 51.161,34.04 51.208,34.56 C51.265,34.849 51.303,35.246 51.124,35.603 C51.117,35.626 51.031,35.965 51.031,35.965 L50.933,36.11 C50.774,36.346 50.534,36.526 50.076,36.753 C49.702,36.939 49.275,37.057 48.808,37.104 C48.68,37.118 48.549,37.124 48.416,37.124" fill="#F7F4E2"/>
      <path d="M40.74,11.575 L40.796,11.445 L40.836,11.237 C40.935,10.722 41.105,10.273 41.355,9.863 C41.607,9.447 41.875,9.123 42.153,8.896 C42.324,8.756 42.48,8.672 42.629,8.64 C42.683,8.689 42.82,8.844 42.99,9.243 C43.129,9.573 43.306,10.218 43.354,11.405 L43.355,11.436 L43.357,11.467 C43.382,11.806 43.412,12.212 43.448,12.684 C43.485,13.167 43.529,13.621 43.578,14.046 C43.641,14.791 43.656,15.581 43.624,16.393 C43.595,17.136 43.592,17.881 43.614,18.617 C43.426,18.633 43.213,18.652 42.973,18.677 C42.455,18.729 41.899,18.756 41.321,18.756 C41.012,18.756 40.72,18.742 40.449,18.712 C40.443,18.386 40.441,18.012 40.441,17.588 C40.441,16.975 40.446,16.321 40.458,15.625 C40.469,14.941 40.493,14.283 40.528,13.668 C40.561,13.064 40.606,12.533 40.66,12.089 C40.697,11.783 40.727,11.633 40.74,11.575 M43.178,2.029 C42.027,2.029 40.977,2.295 40.058,2.82 C38.939,3.459 37.87,4.37 36.884,5.526 C36.276,6.254 35.761,7.086 35.341,8.015 C34.944,8.891 34.624,9.814 34.393,10.756 C34.165,11.678 34.009,12.624 33.928,13.566 C33.847,14.505 33.834,15.385 33.889,16.179 C33.91,16.589 33.934,17.21 33.957,18.007 C33.981,18.82 34.005,19.729 34.029,20.733 C34.053,21.745 34.083,22.808 34.119,23.918 C34.156,25.033 34.198,26.098 34.247,27.116 C34.321,28.57 34.407,29.839 34.505,30.894 C34.655,32.534 34.852,33.175 35.101,33.631 C35.353,34.077 35.695,34.447 36.158,34.788 C36.646,35.148 37.181,35.375 37.747,35.46 C37.893,35.482 38.036,35.492 38.177,35.492 C38.826,35.492 39.44,35.272 39.953,34.855 C40.603,34.326 40.959,33.531 41.013,32.489 L41.016,32.436 L41.016,32.384 L41.016,30.818 C41.016,30.127 41.004,29.38 40.98,28.596 C40.956,27.848 40.938,27.15 40.926,26.499 C40.913,25.797 40.894,25.274 40.867,24.899 L40.865,24.864 L40.861,24.829 C40.859,24.809 40.857,24.788 40.855,24.768 C41.252,24.801 41.642,24.825 42.022,24.843 C42.528,24.866 43.063,24.884 43.626,24.896 L44.188,34.517 L44.196,34.639 L44.218,34.76 C44.307,35.252 44.395,35.547 44.531,35.813 C44.617,35.989 44.749,36.19 44.99,36.508 C45.554,37.253 46.29,37.756 47.118,37.961 C47.557,38.07 47.993,38.125 48.416,38.125 C48.583,38.125 48.748,38.117 48.911,38.1 C49.496,38.04 50.038,37.889 50.519,37.65 C50.973,37.426 51.438,37.151 51.762,36.67 L51.958,36.379 L52.043,36.04 C52.052,36.005 52.06,35.974 52.067,35.947 C52.307,35.402 52.275,34.861 52.197,34.39 C52.154,33.921 52.128,33.615 52.116,33.471 C52.11,33.387 52.105,33.322 52.104,33.278 C52.105,33.246 52.11,33.182 52.116,33.097 C52.128,32.946 52.14,32.678 52.14,31.845 L52.104,22.405 C52.104,22.095 52.098,21.562 52.086,20.815 C52.073,20.073 52.055,19.297 52.032,18.484 C52.008,17.687 51.99,16.946 51.978,16.257 C51.966,15.579 51.961,15.123 51.961,14.888 L51.961,14.855 L51.96,14.822 C51.933,14.037 51.875,13.193 51.786,12.312 C51.695,11.396 51.54,10.468 51.327,9.555 C51.101,8.591 50.766,7.642 50.33,6.733 C49.863,5.762 49.244,4.876 48.492,4.1 C47.889,3.502 47.327,3.088 46.746,2.808 C46.217,2.554 45.601,2.357 44.861,2.202 C44.265,2.085 43.707,2.029 43.178,2.029 M41.321,20.756 C41.969,20.756 42.586,20.726 43.175,20.666 C43.762,20.607 44.177,20.576 44.416,20.576 C44.728,20.576 44.974,20.571 45.155,20.558 C45.335,20.547 45.461,20.499 45.532,20.414 C45.604,20.33 45.646,20.193 45.658,20 C45.67,19.808 45.664,19.545 45.64,19.208 C45.592,18.297 45.587,17.385 45.622,16.472 C45.658,15.56 45.64,14.685 45.569,13.845 C45.52,13.436 45.478,12.998 45.443,12.53 C45.407,12.062 45.376,11.661 45.352,11.325 C45.304,10.124 45.13,9.171 44.83,8.462 C44.53,7.755 44.164,7.256 43.733,6.969 C43.398,6.745 43.042,6.634 42.664,6.634 C42.554,6.634 42.442,6.643 42.328,6.662 C41.824,6.747 41.344,6.974 40.888,7.346 C40.432,7.719 40.018,8.21 39.647,8.823 C39.274,9.434 39.016,10.113 38.872,10.856 C38.801,11.025 38.734,11.355 38.675,11.846 C38.615,12.339 38.567,12.908 38.531,13.556 C38.494,14.204 38.47,14.883 38.458,15.59 C38.446,16.299 38.441,16.965 38.441,17.588 C38.441,18.213 38.446,18.735 38.458,19.154 C38.47,19.575 38.489,19.82 38.512,19.892 C38.657,20.252 38.998,20.486 39.538,20.595 C40.078,20.702 40.673,20.756 41.321,20.756 M43.178,4.029 C43.58,4.029 44.004,4.073 44.452,4.16 C45.029,4.281 45.503,4.43 45.878,4.61 C46.252,4.79 46.645,5.084 47.056,5.492 C47.661,6.117 48.152,6.819 48.527,7.598 C48.901,8.379 49.186,9.182 49.38,10.011 C49.573,10.838 49.713,11.673 49.797,12.512 C49.881,13.353 49.936,14.145 49.961,14.888 C49.961,15.129 49.966,15.596 49.978,16.292 C49.99,16.989 50.008,17.739 50.032,18.542 C50.056,19.346 50.074,20.115 50.087,20.846 C50.098,21.579 50.104,22.101 50.104,22.412 L50.14,31.845 C50.14,32.42 50.135,32.786 50.122,32.942 C50.11,33.099 50.104,33.212 50.104,33.284 C50.104,33.356 50.11,33.471 50.122,33.626 C50.135,33.783 50.164,34.125 50.213,34.652 C50.261,34.917 50.266,35.084 50.23,35.157 C50.194,35.228 50.152,35.36 50.103,35.553 C50.055,35.624 49.898,35.726 49.632,35.858 C49.365,35.99 49.057,36.075 48.707,36.11 C48.611,36.12 48.514,36.125 48.416,36.125 C48.154,36.125 47.882,36.09 47.6,36.02 C47.213,35.924 46.875,35.684 46.584,35.3 C46.439,35.109 46.348,34.976 46.312,34.904 C46.276,34.832 46.233,34.665 46.185,34.4 L45.604,24.464 C45.628,24.009 45.628,23.685 45.604,23.492 C45.58,23.301 45.58,23.109 45.604,22.916 C44.332,22.916 43.168,22.893 42.113,22.845 C41.056,22.797 39.94,22.688 38.764,22.52 C38.716,22.976 38.711,23.397 38.746,23.78 C38.782,24.164 38.824,24.585 38.872,25.04 C38.896,25.377 38.914,25.874 38.927,26.534 C38.938,27.195 38.956,27.902 38.981,28.658 C39.004,29.414 39.016,30.134 39.016,30.818 L39.016,32.384 C38.992,32.841 38.885,33.146 38.693,33.303 C38.536,33.429 38.365,33.492 38.177,33.492 C38.134,33.492 38.09,33.489 38.045,33.482 C37.804,33.446 37.57,33.345 37.343,33.177 C37.114,33.009 36.952,32.841 36.857,32.672 C36.713,32.408 36.592,31.754 36.496,30.71 C36.4,29.666 36.317,28.437 36.244,27.02 C36.196,26.013 36.155,24.956 36.118,23.852 C36.082,22.749 36.052,21.692 36.029,20.684 C36.004,19.677 35.98,18.764 35.956,17.949 C35.932,17.133 35.908,16.496 35.885,16.04 C35.836,15.345 35.848,14.576 35.921,13.736 C35.992,12.896 36.13,12.062 36.335,11.234 C36.538,10.407 36.814,9.609 37.162,8.84 C37.51,8.073 37.924,7.4 38.405,6.825 C39.244,5.841 40.126,5.084 41.051,4.556 C41.666,4.204 42.376,4.029 43.178,4.029" fill="#8E693F"/>
      <path d="M61.129,35.563 C60.989,35.563 60.847,35.555 60.703,35.535 C60.251,35.472 59.809,35.331 59.378,35.115 C58.968,34.91 58.595,34.664 58.27,34.382 C57.923,34.083 57.637,33.74 57.424,33.361 C57.157,32.891 57.061,32.372 57.147,31.858 C57.207,31.321 57.254,30.534 57.277,29.569 C57.3,28.583 57.313,27.474 57.313,26.247 C57.313,25.019 57.295,23.712 57.259,22.33 C57.223,20.936 57.192,19.516 57.169,18.073 C57.121,16.844 57.079,15.587 57.043,14.323 L56.935,10.69 C56.9,9.527 56.863,8.456 56.827,7.473 C56.807,6.929 56.789,6.425 56.773,5.962 C56.373,5.985 55.954,6 55.519,6.006 L55.225,6.008 C54.475,6.008 53.76,5.962 53.1,5.871 C52.301,5.772 51.751,5.562 51.38,5.211 C51.051,4.902 50.808,4.501 50.661,4.022 C50.482,3.424 50.651,2.813 51.125,2.338 C51.488,1.975 52.056,1.716 52.966,1.497 C53.395,1.369 53.808,1.286 54.182,1.256 C54.479,1.232 54.861,1.197 55.333,1.149 C55.591,1.124 55.932,1.105 56.355,1.091 C56.748,1.079 57.192,1.062 57.69,1.038 C58.208,1.013 58.764,1.001 59.357,1.001 C59.945,1.001 60.557,1.013 61.195,1.038 C62.108,1.087 62.999,1.147 63.884,1.22 C64.797,1.295 65.636,1.41 66.378,1.561 C67.18,1.724 67.832,1.934 68.372,2.204 C69.32,2.679 69.601,3.311 69.669,3.757 L69.751,5.067 L69.23,5.379 C69.194,5.4 69.164,5.419 69.141,5.438 C69.039,5.541 68.913,5.641 68.78,5.72 C68.632,5.809 68.467,5.875 68.275,5.923 C68.152,5.954 67.968,5.987 67.722,6.017 L67.642,6.027 L64.86,5.916 C64.388,5.86 63.956,5.836 63.493,5.836 C63.336,5.836 62.968,5.846 62.947,5.846 C62.981,6.044 63.01,6.379 63.054,7.045 C63.103,7.767 63.163,8.705 63.235,9.858 C63.307,11.014 63.379,12.314 63.451,13.759 C63.524,15.199 63.596,16.676 63.668,18.189 C63.788,20.61 63.873,22.993 63.921,25.271 C63.968,27.533 63.992,29.902 63.992,32.312 C63.992,33.556 63.63,34.452 62.917,34.973 C62.38,35.366 61.778,35.563 61.129,35.563" fill="#F7F4E2"/>
      <path d="M59.357,0 C58.755,0 58.178,0.013 57.642,0.039 C57.151,0.062 56.713,0.079 56.328,0.091 C55.878,0.105 55.524,0.125 55.238,0.153 C54.77,0.201 54.396,0.235 54.107,0.258 C53.671,0.293 53.207,0.384 52.684,0.536 C51.611,0.799 50.912,1.137 50.42,1.628 C49.687,2.363 49.419,3.361 49.701,4.302 C49.903,4.963 50.238,5.51 50.699,5.943 C51.227,6.441 51.956,6.736 52.99,6.865 C53.669,6.958 54.43,7.008 55.225,7.008 L55.536,7.006 C55.628,7.004 55.719,7.002 55.81,7 C55.815,7.166 55.822,7.335 55.828,7.509 C55.864,8.49 55.9,9.56 55.936,10.719 C55.972,11.883 56.008,13.093 56.044,14.351 C56.08,15.619 56.122,16.88 56.17,18.134 C56.193,19.535 56.223,20.958 56.259,22.356 C56.294,23.712 56.313,25.021 56.313,26.246 C56.313,27.447 56.301,28.558 56.277,29.547 C56.255,30.458 56.212,31.202 56.15,31.758 C56.044,32.479 56.184,33.203 56.556,33.858 C56.824,34.332 57.183,34.766 57.621,35.143 C58.003,35.474 58.446,35.768 58.931,36.01 C59.458,36.273 60.003,36.446 60.551,36.524 C60.759,36.551 60.946,36.563 61.129,36.563 C61.982,36.563 62.804,36.293 63.505,35.782 C64.492,35.061 64.992,33.894 64.992,32.312 C64.992,29.894 64.968,27.518 64.92,25.25 C64.873,22.963 64.787,20.57 64.667,18.137 C64.594,16.627 64.523,15.149 64.45,13.708 C64.378,12.259 64.305,10.955 64.233,9.795 C64.161,8.64 64.1,7.701 64.052,6.979 C64.049,6.935 64.046,6.891 64.044,6.849 C64.258,6.859 64.462,6.877 64.653,6.901 L64.736,6.911 L64.82,6.915 L67.521,7.022 L67.682,7.029 L67.842,7.009 C68.115,6.976 68.336,6.938 68.518,6.893 C68.802,6.821 69.063,6.716 69.292,6.579 C69.46,6.479 69.618,6.359 69.767,6.223 L70.771,5.623 L70.713,4.402 L70.677,3.79 L70.672,3.697 L70.658,3.605 C70.553,2.926 70.15,1.976 68.821,1.31 C68.2,1 67.466,0.761 66.578,0.58 C65.797,0.421 64.919,0.301 63.967,0.223 C63.086,0.15 62.177,0.089 61.266,0.039 C60.582,0.013 59.951,0 59.357,0 M59.357,2 C59.933,2 60.532,2.012 61.157,2.036 C62.045,2.084 62.926,2.144 63.803,2.216 C64.679,2.288 65.471,2.396 66.179,2.54 C66.887,2.684 67.469,2.87 67.925,3.098 C68.38,3.326 68.633,3.596 68.681,3.908 L68.717,4.52 C68.597,4.592 68.506,4.658 68.446,4.718 C68.387,4.778 68.326,4.826 68.267,4.862 C68.206,4.898 68.128,4.928 68.032,4.952 C67.937,4.976 67.793,5 67.601,5.024 L64.9,4.916 C64.468,4.862 64,4.835 63.493,4.835 C63.324,4.835 63.151,4.838 62.975,4.844 C62.267,4.868 61.625,4.88 61.049,4.88 C61.097,5.024 61.145,5.12 61.193,5.168 C61.241,5.216 61.294,5.258 61.355,5.294 C61.415,5.33 61.486,5.378 61.571,5.438 C61.654,5.498 61.756,5.636 61.877,5.852 C61.9,5.876 61.913,5.894 61.913,5.906 C61.913,5.918 61.924,5.937 61.949,5.96 C61.972,6.008 62.008,6.392 62.057,7.112 C62.105,7.832 62.165,8.768 62.237,9.92 C62.309,11.072 62.381,12.368 62.453,13.808 C62.525,15.248 62.597,16.724 62.669,18.236 C62.789,20.661 62.873,23.012 62.921,25.292 C62.969,27.572 62.992,29.913 62.992,32.312 C62.992,33.225 62.771,33.842 62.327,34.166 C61.963,34.431 61.564,34.563 61.129,34.563 C61.032,34.563 60.933,34.557 60.833,34.544 C60.496,34.496 60.161,34.388 59.825,34.22 C59.488,34.052 59.189,33.854 58.925,33.626 C58.66,33.398 58.451,33.146 58.295,32.87 C58.138,32.594 58.085,32.312 58.133,32.024 C58.205,31.4 58.253,30.59 58.277,29.594 C58.3,28.599 58.313,27.482 58.313,26.246 C58.313,25.01 58.295,23.696 58.259,22.304 C58.223,20.913 58.192,19.496 58.169,18.056 C58.12,16.809 58.079,15.554 58.043,14.294 C58.007,13.034 57.971,11.822 57.935,10.658 C57.899,9.494 57.863,8.42 57.827,7.436 C57.791,6.452 57.76,5.6 57.737,4.88 C57.065,4.952 56.32,4.994 55.505,5.006 C55.411,5.007 55.317,5.008 55.225,5.008 C54.515,5.008 53.853,4.965 53.237,4.88 C52.661,4.808 52.271,4.676 52.067,4.484 C51.862,4.292 51.712,4.04 51.617,3.728 C51.545,3.488 51.617,3.26 51.833,3.044 C52.049,2.828 52.504,2.636 53.201,2.468 C53.608,2.348 53.962,2.276 54.263,2.252 C54.563,2.229 54.952,2.192 55.433,2.144 C55.672,2.121 55.991,2.103 56.387,2.09 C56.783,2.078 57.233,2.06 57.737,2.036 C58.241,2.012 58.781,2 59.357,2" fill="#8E693F"/>
      <path d="M76.915,34.932 C76.723,34.932 76.487,34.903 76.174,34.84 C75.404,34.688 74.775,34.409 74.306,34.01 C73.846,33.619 73.496,33.14 73.268,32.586 C73.18,32.371 73.12,32.078 73.066,31.203 C73.029,30.612 72.993,29.897 72.956,29.061 C72.919,28.224 72.894,27.32 72.883,26.348 L72.847,23.577 C72.847,23.577 72.796,20.323 72.793,20.032 L72.457,19.557 C72.221,19.226 72.027,18.846 71.877,18.426 C71.767,18.072 71.639,17.639 71.481,17.09 C71.481,17.09 69.405,10.036 69.249,9.495 L68.87,8.177 C68.785,7.861 68.703,7.62 68.622,7.447 C68.452,7.091 68.364,6.734 68.364,6.392 C68.364,5.854 68.608,5.337 69.089,4.857 L69.204,4.742 L69.349,4.669 C69.775,4.456 70.192,4.348 70.588,4.348 C71.122,4.348 71.61,4.514 72.04,4.841 C72.39,5.108 72.689,5.439 72.931,5.827 C73.143,6.167 73.328,6.536 73.48,6.927 C73.62,7.281 73.74,7.609 73.841,7.912 C73.987,8.35 74.133,8.807 74.28,9.283 C74.428,9.767 74.559,10.226 74.67,10.66 L74.96,11.799 C75.018,12.024 75.064,12.2 75.103,12.329 C75.332,11.603 75.582,10.864 75.846,10.123 C76.199,9.135 76.557,8.157 76.922,7.191 C77.291,6.208 77.669,5.329 78.045,4.578 C78.869,3.243 79.863,2.98 80.56,2.98 C81.14,2.98 81.977,3.184 82.67,4.155 C82.894,4.505 83.061,4.812 83.198,5.113 C83.377,5.508 83.468,5.95 83.468,6.428 C83.468,6.662 83.437,6.891 83.378,7.107 L83.25,7.567 C82.892,8.64 82.487,9.762 82.033,10.944 C81.581,12.122 81.153,13.294 80.748,14.46 C80.513,15.142 80.318,15.731 80.166,16.226 C79.997,16.77 79.769,17.356 79.489,17.968 C79.292,18.382 79.159,18.916 79.088,19.569 C79.008,20.298 78.968,21.109 78.968,21.98 C78.968,22.761 78.991,23.571 79.038,24.389 C79.086,25.236 79.14,26.057 79.199,26.855 C79.259,27.663 79.313,28.433 79.362,29.167 C79.412,29.926 79.436,30.578 79.436,31.124 L79.436,31.34 C79.408,32.173 79.278,32.891 79.048,33.507 C78.711,34.413 77.934,34.932 76.915,34.932" fill="#F7F4E2"/>
      <path d="M80.56,1.98 C79.783,1.98 78.317,2.238 77.242,3.968 L77.192,4.047 L77.15,4.131 C76.76,4.913 76.369,5.824 75.986,6.839 C75.727,7.527 75.47,8.222 75.216,8.923 C75.073,8.461 74.931,8.019 74.789,7.594 C74.684,7.279 74.558,6.934 74.413,6.563 C74.237,6.115 74.024,5.689 73.779,5.297 C73.474,4.808 73.093,4.387 72.648,4.047 C72.047,3.589 71.336,3.348 70.588,3.348 C70.036,3.348 69.469,3.492 68.902,3.775 L68.612,3.92 L68.382,4.15 C67.541,4.991 67.365,5.834 67.365,6.392 C67.365,6.884 67.485,7.386 67.721,7.882 C67.748,7.94 67.815,8.102 67.901,8.423 C68.005,8.79 68.132,9.23 68.289,9.774 C68.445,10.316 68.621,10.916 68.814,11.569 C69.006,12.215 69.204,12.885 69.408,13.579 C69.611,14.275 69.81,14.95 70.003,15.601 C70.193,16.244 70.366,16.835 70.522,17.373 C70.681,17.924 70.811,18.363 70.911,18.685 L70.922,18.722 L70.935,18.759 C71.116,19.268 71.353,19.731 71.642,20.135 C71.694,20.209 71.746,20.282 71.797,20.354 C71.8,20.597 71.805,20.886 71.81,21.222 C71.823,21.918 71.834,22.708 71.847,23.593 L71.864,24.87 L71.883,26.362 C71.895,27.326 71.92,28.25 71.957,29.105 C71.994,29.949 72.031,30.669 72.069,31.268 C72.125,32.181 72.191,32.592 72.339,32.957 C72.634,33.67 73.077,34.276 73.659,34.772 C74.26,35.282 75.041,35.636 75.982,35.822 C76.358,35.897 76.656,35.932 76.915,35.932 C78.354,35.932 79.501,35.156 79.986,33.857 C80.253,33.139 80.405,32.315 80.435,31.407 L80.436,31.374 L80.436,31.34 L80.436,31.124 C80.436,30.551 80.411,29.871 80.361,29.104 C80.311,28.365 80.257,27.592 80.197,26.782 C80.137,25.988 80.084,25.173 80.038,24.334 C79.992,23.533 79.968,22.742 79.968,21.98 C79.968,21.145 80.006,20.37 80.082,19.677 C80.156,19.004 80.289,18.618 80.386,18.413 C80.697,17.733 80.94,17.107 81.121,16.524 C81.272,16.035 81.463,15.456 81.695,14.784 C82.098,13.623 82.527,12.45 82.967,11.303 C83.426,10.107 83.836,8.971 84.185,7.926 L84.2,7.884 L84.211,7.841 C84.262,7.666 84.306,7.508 84.344,7.369 C84.426,7.07 84.468,6.752 84.468,6.428 C84.468,5.807 84.348,5.226 84.11,4.701 C83.953,4.355 83.762,4.008 83.544,3.664 L83.516,3.619 L83.484,3.575 C82.75,2.546 81.712,1.98 80.56,1.98 M80.56,3.98 C81.064,3.98 81.497,4.232 81.856,4.736 C82.024,5.001 82.168,5.264 82.289,5.528 C82.409,5.793 82.468,6.092 82.468,6.428 C82.468,6.572 82.451,6.71 82.414,6.842 C82.378,6.974 82.336,7.125 82.289,7.292 C81.952,8.3 81.556,9.398 81.1,10.586 C80.644,11.774 80.212,12.957 79.804,14.132 C79.564,14.829 79.366,15.428 79.21,15.932 C79.054,16.436 78.844,16.976 78.581,17.552 C78.34,18.056 78.178,18.692 78.094,19.46 C78.01,20.229 77.968,21.068 77.968,21.98 C77.968,22.772 77.992,23.594 78.04,24.446 C78.088,25.298 78.142,26.126 78.203,26.93 C78.262,27.734 78.316,28.502 78.365,29.234 C78.413,29.966 78.436,30.596 78.436,31.124 L78.436,31.34 C78.413,32.037 78.304,32.642 78.112,33.158 C77.919,33.674 77.521,33.932 76.915,33.932 C76.793,33.932 76.613,33.908 76.371,33.86 C75.766,33.74 75.293,33.536 74.955,33.248 C74.616,32.96 74.361,32.612 74.192,32.204 C74.143,32.084 74.101,31.73 74.065,31.142 C74.028,30.554 73.992,29.846 73.956,29.018 C73.919,28.19 73.895,27.296 73.883,26.336 C73.871,25.376 73.859,24.452 73.847,23.564 C73.834,22.676 73.823,21.884 73.81,21.188 C73.798,20.492 73.792,20 73.792,19.712 C73.624,19.472 73.451,19.226 73.27,18.974 C73.09,18.722 72.94,18.428 72.821,18.092 C72.724,17.78 72.598,17.354 72.443,16.814 C72.286,16.274 72.112,15.68 71.92,15.032 C71.728,14.384 71.53,13.712 71.327,13.016 C71.122,12.32 70.924,11.648 70.732,11 C70.539,10.352 70.366,9.758 70.21,9.218 C70.054,8.678 69.928,8.24 69.832,7.904 C69.736,7.544 69.634,7.251 69.527,7.022 C69.418,6.794 69.365,6.584 69.365,6.392 C69.365,6.128 69.508,5.852 69.796,5.564 C70.084,5.42 70.348,5.348 70.588,5.348 C70.9,5.348 71.182,5.444 71.434,5.636 C71.686,5.829 71.903,6.068 72.082,6.356 C72.262,6.644 72.418,6.956 72.55,7.292 C72.682,7.628 72.796,7.94 72.892,8.228 C73.037,8.66 73.18,9.11 73.325,9.578 C73.468,10.046 73.594,10.49 73.703,10.91 C73.81,11.33 73.907,11.708 73.992,12.044 C74.077,12.38 74.143,12.62 74.192,12.764 C74.289,13.101 74.379,13.448 74.464,13.808 C74.548,14.168 74.627,14.504 74.701,14.816 C74.773,15.128 74.839,15.38 74.9,15.572 C74.96,15.764 75.015,15.873 75.063,15.896 C75.281,15.176 75.535,14.336 75.826,13.376 C76.116,12.417 76.437,11.444 76.789,10.46 C77.139,9.476 77.496,8.504 77.858,7.544 C78.219,6.584 78.581,5.744 78.94,5.024 C79.373,4.328 79.913,3.98 80.56,3.98" fill="#8E693F"/>
      <path d="M91.274,36.288 C90.648,36.288 89.997,36.226 89.339,36.103 C88.473,35.968 87.654,35.675 86.933,35.236 C86.236,34.812 85.555,34.217 84.912,33.467 C83.991,32.431 83.523,31.611 83.452,30.899 C83.405,30.432 83.488,29.291 85.255,28.793 C85.493,28.738 85.677,28.717 85.856,28.717 C86.549,28.717 87.169,29.044 87.598,29.638 C87.943,30.116 88.24,30.617 88.483,31.126 C88.575,31.351 88.679,31.476 88.838,31.578 C89.046,31.711 89.283,31.791 89.562,31.822 C89.662,31.835 89.741,31.84 89.821,31.84 C89.993,31.84 90.178,31.817 90.374,31.771 C90.653,31.705 90.911,31.583 91.165,31.397 C91.421,31.208 91.659,30.947 91.868,30.621 C92.073,30.299 92.226,29.883 92.321,29.387 C92.612,27.932 92.699,26.706 92.581,25.737 C92.465,24.793 92.186,23.925 91.75,23.158 C91.295,22.356 90.68,21.578 89.924,20.843 C89.104,20.046 88.157,19.16 87.086,18.183 C86.647,17.771 86.158,17.257 85.622,16.645 C85.061,16.008 84.626,15.409 84.327,14.865 C83.207,12.808 82.694,10.811 82.801,8.927 C82.961,6.917 83.562,5.231 84.59,3.893 C85.677,2.477 87.153,1.686 88.977,1.543 C89.156,1.528 89.342,1.52 89.531,1.52 C90.331,1.52 91.164,1.666 92.006,1.954 C92.409,2.088 92.859,2.285 93.337,2.537 C93.823,2.794 94.292,3.1 94.732,3.446 C95.199,3.814 95.608,4.238 95.948,4.705 C96.338,5.242 96.57,5.821 96.637,6.426 C96.685,6.713 96.631,7.072 96.469,7.441 C96.336,7.745 96.152,8.017 95.92,8.25 C95.629,8.539 95.285,8.723 94.893,8.796 C94.795,8.815 94.701,8.824 94.607,8.824 C94.31,8.824 93.871,8.736 93.459,8.321 C93.166,8.058 92.84,7.658 92.501,7.134 C92.253,6.753 91.982,6.413 91.695,6.126 C91.502,5.933 91.309,5.816 91.107,5.77 C91.118,5.781 90.974,5.838 90.714,6.11 C90.273,6.533 89.965,6.978 89.741,7.504 C89.51,8.046 89.373,8.616 89.334,9.197 C89.313,9.773 89.373,10.397 89.509,11.018 C89.652,11.664 89.851,12.289 90.101,12.876 C90.351,13.464 90.642,14.008 90.967,14.495 C91.291,14.98 91.612,15.383 91.922,15.692 C92.908,16.632 93.844,17.509 94.717,18.309 C95.643,19.159 96.454,20.073 97.126,21.025 C97.819,22.006 98.362,23.117 98.74,24.328 C99.118,25.539 99.295,26.995 99.271,28.655 C99.216,30.374 98.781,31.822 97.974,32.975 C97.176,34.118 96.14,34.977 94.897,35.53 C93.764,36.033 92.545,36.288 91.274,36.288" fill="#F7F4E2"/>
      <path d="M89.531,0.52 C89.314,0.52 89.098,0.529 88.885,0.547 C86.81,0.71 85.047,1.657 83.798,3.284 C82.65,4.778 81.98,6.643 81.805,8.825 C81.685,10.944 82.238,13.121 83.447,15.34 C83.789,15.962 84.254,16.603 84.872,17.307 C85.435,17.949 85.932,18.472 86.39,18.902 C87.471,19.888 88.42,20.775 89.229,21.561 C89.916,22.228 90.471,22.933 90.882,23.653 C91.256,24.313 91.487,25.035 91.588,25.858 C91.693,26.722 91.61,27.841 91.343,29.185 C91.268,29.569 91.162,29.868 91.023,30.085 C90.884,30.304 90.731,30.476 90.572,30.592 C90.43,30.696 90.291,30.763 90.147,30.797 C90.024,30.826 89.916,30.84 89.821,30.84 C89.786,30.84 89.752,30.838 89.718,30.834 C89.551,30.815 89.466,30.784 89.415,30.757 L89.414,30.755 L89.385,30.697 C89.117,30.133 88.789,29.58 88.41,29.055 C87.786,28.191 86.88,27.717 85.856,27.717 C85.603,27.717 85.344,27.747 85.086,27.805 L85.035,27.817 L84.984,27.831 C82.945,28.406 82.342,29.844 82.457,30.999 C82.551,31.943 83.082,32.914 84.177,34.145 C84.865,34.948 85.627,35.612 86.416,36.092 C87.238,36.592 88.17,36.929 89.184,37.091 C89.892,37.222 90.595,37.288 91.274,37.288 C92.686,37.288 94.042,37.004 95.302,36.444 C96.716,35.816 97.89,34.842 98.795,33.547 C99.714,32.233 100.21,30.603 100.27,28.704 C100.298,26.903 100.104,25.343 99.695,24.031 C99.285,22.719 98.696,21.514 97.943,20.448 C97.229,19.438 96.372,18.471 95.394,17.573 C94.542,16.791 93.601,15.91 92.595,14.952 C92.366,14.722 92.087,14.37 91.8,13.94 C91.509,13.505 91.248,13.016 91.022,12.486 C90.795,11.954 90.615,11.388 90.486,10.803 C90.37,10.276 90.318,9.748 90.334,9.232 C90.369,8.769 90.476,8.331 90.662,7.894 C90.797,7.578 90.971,7.301 91.192,7.052 C91.355,7.239 91.513,7.449 91.662,7.679 C92.038,8.259 92.409,8.714 92.793,9.068 C93.298,9.556 93.939,9.824 94.607,9.824 C94.763,9.824 94.922,9.809 95.077,9.779 C95.663,9.669 96.197,9.386 96.624,8.96 C96.948,8.635 97.204,8.259 97.386,7.84 C97.617,7.314 97.698,6.788 97.627,6.275 C97.535,5.51 97.242,4.784 96.757,4.117 C96.363,3.576 95.889,3.086 95.351,2.661 C94.863,2.277 94.344,1.938 93.807,1.654 C93.269,1.372 92.784,1.159 92.318,1.003 C91.383,0.684 90.441,0.52 89.531,0.52 M89.531,2.52 C90.224,2.52 90.942,2.646 91.683,2.9 C92.044,3.02 92.439,3.194 92.872,3.422 C93.303,3.65 93.718,3.92 94.113,4.232 C94.51,4.544 94.851,4.898 95.139,5.294 C95.427,5.69 95.595,6.104 95.643,6.536 C95.667,6.68 95.637,6.848 95.553,7.04 C95.469,7.232 95.355,7.4 95.212,7.544 C95.067,7.688 94.899,7.778 94.708,7.814 C94.674,7.82 94.64,7.824 94.607,7.824 C94.452,7.824 94.305,7.754 94.168,7.616 C93.903,7.376 93.628,7.034 93.34,6.59 C93.052,6.146 92.739,5.756 92.403,5.42 C92.067,5.084 91.702,4.874 91.305,4.79 C91.249,4.778 91.191,4.772 91.134,4.772 C90.784,4.772 90.403,4.988 89.991,5.42 C89.487,5.9 89.097,6.464 88.821,7.112 C88.546,7.76 88.384,8.432 88.336,9.128 C88.311,9.824 88.377,10.526 88.533,11.234 C88.689,11.942 88.905,12.62 89.181,13.268 C89.457,13.916 89.775,14.51 90.135,15.05 C90.496,15.59 90.855,16.04 91.216,16.4 C92.223,17.36 93.165,18.242 94.042,19.046 C94.918,19.851 95.674,20.702 96.309,21.602 C96.945,22.502 97.437,23.51 97.786,24.626 C98.134,25.742 98.295,27.08 98.271,28.64 C98.223,30.152 97.851,31.406 97.155,32.402 C96.459,33.398 95.571,34.136 94.491,34.616 C93.483,35.064 92.411,35.288 91.274,35.288 C90.707,35.288 90.123,35.232 89.523,35.12 C88.755,35 88.065,34.754 87.454,34.382 C86.842,34.01 86.248,33.488 85.672,32.816 C84.903,31.952 84.495,31.28 84.447,30.8 C84.399,30.32 84.76,29.972 85.527,29.756 C85.641,29.73 85.752,29.717 85.856,29.717 C86.233,29.717 86.543,29.886 86.788,30.224 C87.099,30.656 87.363,31.101 87.58,31.556 C87.723,31.916 87.963,32.204 88.3,32.42 C88.635,32.636 89.019,32.768 89.452,32.816 C89.572,32.832 89.695,32.84 89.821,32.84 C90.071,32.84 90.332,32.808 90.603,32.744 C91.011,32.648 91.395,32.468 91.756,32.204 C92.115,31.94 92.433,31.592 92.71,31.16 C92.985,30.728 93.183,30.2 93.303,29.576 C93.615,28.016 93.705,26.696 93.573,25.616 C93.441,24.536 93.124,23.552 92.62,22.664 C92.115,21.776 91.449,20.93 90.622,20.126 C89.794,19.322 88.84,18.428 87.76,17.444 C87.351,17.061 86.889,16.574 86.374,15.986 C85.857,15.398 85.468,14.864 85.204,14.384 C84.172,12.488 83.703,10.688 83.8,8.984 C83.943,7.184 84.471,5.69 85.384,4.502 C86.296,3.314 87.519,2.661 89.055,2.54 C89.213,2.526 89.371,2.52 89.531,2.52" fill="#8E693F"/>
      <path d="M108.864,35.563 C108.724,35.563 108.582,35.555 108.437,35.535 C107.985,35.472 107.542,35.331 107.111,35.115 C106.701,34.91 106.329,34.664 106.004,34.382 C105.656,34.083 105.37,33.737 105.158,33.361 C104.89,32.889 104.795,32.368 104.881,31.857 C104.942,31.319 104.988,30.531 105.01,29.571 C105.035,28.582 105.047,27.474 105.047,26.247 C105.047,25.019 105.029,23.712 104.993,22.33 C104.957,20.936 104.926,19.516 104.903,18.073 C104.855,16.844 104.814,15.587 104.777,14.323 L104.669,10.69 C104.634,9.527 104.597,8.455 104.562,7.472 L104.509,5.962 C104.108,5.985 103.689,6 103.254,6.006 L102.959,6.008 C102.21,6.008 101.495,5.962 100.834,5.871 C100.036,5.772 99.485,5.562 99.115,5.212 C98.783,4.9 98.54,4.498 98.394,4.019 C98.216,3.425 98.385,2.814 98.859,2.338 C99.222,1.976 99.79,1.716 100.701,1.497 C101.129,1.369 101.542,1.286 101.916,1.256 C102.213,1.232 102.595,1.197 103.066,1.149 C103.325,1.124 103.665,1.105 104.089,1.091 C104.481,1.079 104.926,1.062 105.423,1.038 C105.942,1.013 106.498,1.001 107.091,1.001 C107.679,1.001 108.292,1.013 108.928,1.038 C109.842,1.087 110.733,1.147 111.619,1.22 C112.532,1.295 113.37,1.41 114.112,1.561 C114.914,1.724 115.566,1.934 116.106,2.204 C117.054,2.679 117.335,3.311 117.403,3.757 L117.485,5.067 L116.964,5.379 C116.928,5.4 116.897,5.419 116.875,5.438 C116.773,5.541 116.646,5.641 116.514,5.72 C116.366,5.809 116.201,5.875 116.009,5.923 C115.886,5.954 115.703,5.987 115.456,6.017 L115.376,6.027 L112.594,5.916 C112.122,5.86 111.69,5.836 111.227,5.836 C111.069,5.836 110.702,5.846 110.682,5.846 C110.716,6.046 110.745,6.383 110.789,7.046 C110.837,7.768 110.897,8.705 110.968,9.859 C111.041,11.014 111.113,12.314 111.186,13.758 L111.402,18.189 C111.521,20.61 111.606,22.993 111.655,25.271 C111.703,27.564 111.727,29.931 111.727,32.312 C111.727,33.556 111.365,34.451 110.651,34.973 C110.114,35.366 109.513,35.563 108.864,35.563" fill="#F7F4E2"/>
      <path d="M107.091,0 C106.489,0 105.912,0.013 105.376,0.039 C104.885,0.062 104.447,0.079 104.062,0.091 C103.612,0.105 103.258,0.125 102.972,0.153 C102.505,0.201 102.13,0.235 101.841,0.258 C101.405,0.293 100.942,0.384 100.418,0.536 C99.346,0.799 98.646,1.138 98.153,1.63 C97.42,2.364 97.153,3.364 97.437,4.305 C97.635,4.958 97.969,5.507 98.431,5.941 C98.962,6.442 99.692,6.736 100.723,6.864 C101.404,6.958 102.164,7.008 102.959,7.008 L103.271,7.006 C103.362,7.004 103.453,7.002 103.544,7 C103.551,7.166 103.557,7.335 103.563,7.509 C103.598,8.489 103.634,9.56 103.67,10.72 C103.706,11.883 103.742,13.093 103.778,14.351 C103.815,15.619 103.856,16.88 103.905,18.134 C103.927,19.535 103.958,20.958 103.994,22.356 C104.029,23.712 104.047,25.021 104.047,26.246 C104.047,27.474 104.035,28.583 104.012,29.545 C103.99,30.457 103.947,31.2 103.885,31.756 C103.778,32.475 103.917,33.199 104.289,33.856 C104.556,34.33 104.916,34.765 105.356,35.143 C105.737,35.474 106.18,35.767 106.664,36.009 C107.192,36.273 107.737,36.446 108.286,36.524 C108.493,36.551 108.681,36.563 108.863,36.563 C109.718,36.563 110.539,36.293 111.24,35.782 C112.228,35.06 112.728,33.893 112.728,32.312 C112.728,29.925 112.703,27.549 112.655,25.25 C112.606,22.962 112.521,20.57 112.402,18.138 C112.329,16.627 112.257,15.15 112.186,13.709 C112.112,12.259 112.039,10.955 111.967,9.795 C111.896,8.641 111.835,7.702 111.787,6.979 C111.783,6.935 111.78,6.891 111.778,6.849 C111.992,6.859 112.196,6.877 112.388,6.901 L112.471,6.911 L112.555,6.915 L115.255,7.022 L115.416,7.029 L115.577,7.009 C115.85,6.976 116.07,6.938 116.252,6.893 C116.536,6.821 116.797,6.716 117.027,6.579 C117.194,6.479 117.353,6.359 117.501,6.223 L118.505,5.623 L118.447,4.402 L118.411,3.79 L118.406,3.697 L118.392,3.605 C118.288,2.926 117.885,1.976 116.555,1.31 C115.935,1 115.201,0.761 114.312,0.58 C113.531,0.421 112.653,0.301 111.701,0.223 C110.823,0.15 109.915,0.089 108.999,0.039 C108.317,0.013 107.686,0 107.091,0 M107.091,2 C107.667,2 108.267,2.012 108.891,2.036 C109.779,2.084 110.661,2.144 111.537,2.216 C112.413,2.288 113.205,2.396 113.913,2.54 C114.621,2.684 115.203,2.87 115.659,3.098 C116.114,3.326 116.367,3.596 116.415,3.908 L116.451,4.52 C116.331,4.592 116.24,4.658 116.181,4.718 C116.121,4.778 116.061,4.826 116.001,4.862 C115.941,4.898 115.862,4.928 115.767,4.952 C115.671,4.976 115.528,5 115.335,5.024 L112.635,4.916 C112.203,4.862 111.734,4.835 111.228,4.835 C111.059,4.835 110.886,4.838 110.709,4.844 C110.001,4.868 109.36,4.88 108.783,4.88 C108.831,5.024 108.879,5.12 108.927,5.168 C108.975,5.216 109.029,5.258 109.089,5.294 C109.149,5.33 109.221,5.378 109.305,5.438 C109.389,5.498 109.49,5.636 109.612,5.852 C109.635,5.876 109.648,5.894 109.648,5.906 C109.648,5.918 109.659,5.937 109.683,5.96 C109.707,6.008 109.743,6.392 109.791,7.112 C109.839,7.832 109.9,8.768 109.971,9.92 C110.043,11.072 110.115,12.368 110.188,13.808 C110.259,15.248 110.331,16.724 110.404,18.236 C110.523,20.661 110.607,23.012 110.655,25.292 C110.703,27.572 110.728,29.913 110.728,32.312 C110.728,33.225 110.505,33.842 110.062,34.166 C109.698,34.431 109.299,34.563 108.863,34.563 C108.767,34.563 108.668,34.557 108.568,34.544 C108.231,34.496 107.895,34.388 107.559,34.22 C107.223,34.052 106.923,33.854 106.659,33.626 C106.395,33.398 106.185,33.146 106.029,32.87 C105.873,32.594 105.819,32.312 105.867,32.024 C105.94,31.4 105.987,30.59 106.011,29.594 C106.035,28.599 106.047,27.482 106.047,26.246 C106.047,25.01 106.029,23.696 105.993,22.304 C105.957,20.913 105.927,19.496 105.904,18.056 C105.855,16.809 105.814,15.554 105.778,14.294 C105.741,13.034 105.705,11.822 105.669,10.658 C105.633,9.494 105.597,8.42 105.562,7.436 C105.526,6.452 105.495,5.6 105.471,4.88 C104.799,4.952 104.055,4.994 103.239,5.006 C103.146,5.007 103.052,5.008 102.959,5.008 C102.249,5.008 101.587,4.965 100.971,4.88 C100.396,4.808 100.005,4.676 99.801,4.484 C99.597,4.292 99.446,4.04 99.352,3.728 C99.279,3.488 99.352,3.26 99.568,3.044 C99.783,2.828 100.238,2.636 100.936,2.468 C101.343,2.348 101.696,2.276 101.997,2.252 C102.297,2.229 102.687,2.192 103.167,2.144 C103.406,2.121 103.725,2.103 104.121,2.09 C104.517,2.078 104.967,2.06 105.471,2.036 C105.975,2.012 106.515,2 107.091,2" fill="#8E693F"/>
      <path d="M124.649,34.932 C124.457,34.932 124.221,34.903 123.909,34.84 C123.138,34.688 122.509,34.409 122.041,34.01 C121.58,33.619 121.23,33.14 121.002,32.586 C120.914,32.371 120.854,32.078 120.8,31.203 C120.763,30.612 120.726,29.897 120.69,29.061 C120.654,28.224 120.628,27.32 120.617,26.348 L120.581,23.577 C120.581,23.577 120.53,20.323 120.528,20.032 L120.191,19.557 C119.955,19.226 119.76,18.846 119.612,18.426 C119.501,18.072 119.373,17.639 119.215,17.09 C119.215,17.09 117.139,10.036 116.983,9.495 L116.604,8.177 C116.519,7.861 116.437,7.62 116.355,7.447 C116.185,7.091 116.098,6.734 116.098,6.392 C116.098,5.854 116.342,5.337 116.823,4.857 L116.937,4.742 L117.083,4.669 C117.509,4.456 117.926,4.348 118.322,4.348 C118.856,4.348 119.344,4.514 119.773,4.841 C120.124,5.108 120.422,5.439 120.665,5.827 C120.877,6.167 121.062,6.536 121.214,6.927 C121.354,7.281 121.474,7.609 121.575,7.912 C121.721,8.35 121.867,8.807 122.013,9.283 C122.163,9.767 122.293,10.226 122.404,10.66 L122.695,11.799 C122.752,12.024 122.798,12.2 122.837,12.329 C123.067,11.603 123.316,10.864 123.581,10.123 C123.933,9.135 124.292,8.157 124.656,7.191 C125.026,6.208 125.404,5.329 125.779,4.578 C126.603,3.243 127.597,2.98 128.294,2.98 C128.874,2.98 129.711,3.184 130.404,4.155 C130.628,4.505 130.795,4.812 130.932,5.113 C131.111,5.508 131.202,5.95 131.202,6.428 C131.202,6.662 131.171,6.891 131.112,7.107 L130.984,7.567 C130.626,8.64 130.221,9.762 129.767,10.944 C129.315,12.122 128.887,13.294 128.482,14.46 C128.247,15.142 128.052,15.731 127.9,16.226 C127.731,16.77 127.503,17.356 127.223,17.968 C127.026,18.382 126.893,18.916 126.822,19.569 C126.742,20.298 126.702,21.109 126.702,21.98 C126.702,22.761 126.725,23.571 126.772,24.389 C126.82,25.236 126.874,26.057 126.933,26.855 C126.993,27.663 127.047,28.433 127.096,29.167 C127.146,29.926 127.17,30.578 127.17,31.124 L127.17,31.34 C127.142,32.173 127.012,32.891 126.782,33.507 C126.445,34.413 125.668,34.932 124.649,34.932" fill="#F7F4E2"/>
      <path d="M128.294,1.98 C127.517,1.98 126.051,2.238 124.976,3.968 L124.926,4.047 L124.884,4.131 C124.494,4.913 124.103,5.824 123.72,6.839 C123.46,7.527 123.203,8.222 122.949,8.923 C122.807,8.461 122.665,8.019 122.523,7.594 C122.418,7.279 122.292,6.934 122.147,6.563 C121.971,6.115 121.758,5.689 121.514,5.297 C121.208,4.808 120.827,4.387 120.382,4.047 C119.781,3.589 119.069,3.348 118.322,3.348 C117.77,3.348 117.202,3.492 116.636,3.775 L116.346,3.92 L116.116,4.15 C115.275,4.991 115.099,5.834 115.099,6.392 C115.099,6.884 115.219,7.386 115.455,7.882 C115.482,7.94 115.549,8.102 115.635,8.423 C115.739,8.79 115.866,9.23 116.023,9.774 C116.179,10.316 116.355,10.916 116.549,11.569 C116.74,12.215 116.938,12.885 117.142,13.579 C117.345,14.275 117.544,14.95 117.737,15.601 C117.927,16.244 118.1,16.835 118.257,17.373 C118.415,17.924 118.545,18.363 118.645,18.685 L118.656,18.722 L118.669,18.759 C118.85,19.268 119.087,19.731 119.376,20.135 C119.429,20.209 119.481,20.282 119.531,20.354 C119.534,20.597 119.539,20.886 119.544,21.222 C119.557,21.918 119.568,22.708 119.581,23.593 L119.598,24.87 L119.617,26.362 C119.629,27.326 119.654,28.25 119.691,29.105 C119.729,29.949 119.765,30.669 119.803,31.268 C119.858,32.181 119.925,32.592 120.073,32.957 C120.368,33.67 120.811,34.276 121.393,34.772 C121.993,35.282 122.775,35.636 123.716,35.822 C124.092,35.897 124.39,35.932 124.649,35.932 C126.088,35.932 127.235,35.156 127.72,33.857 C127.987,33.139 128.139,32.315 128.169,31.407 L128.17,31.374 L128.17,31.34 L128.17,31.124 C128.17,30.551 128.145,29.871 128.095,29.104 C128.045,28.365 127.991,27.592 127.931,26.782 C127.871,25.988 127.818,25.173 127.772,24.334 C127.726,23.533 127.702,22.742 127.702,21.98 C127.702,21.145 127.74,20.37 127.816,19.677 C127.89,19.004 128.023,18.618 128.12,18.413 C128.431,17.733 128.674,17.107 128.855,16.524 C129.006,16.035 129.197,15.456 129.429,14.784 C129.832,13.623 130.261,12.45 130.701,11.303 C131.16,10.107 131.57,8.971 131.919,7.926 L131.934,7.884 L131.945,7.841 C131.996,7.666 132.04,7.508 132.078,7.369 C132.16,7.07 132.202,6.752 132.202,6.428 C132.202,5.807 132.082,5.226 131.844,4.701 C131.687,4.355 131.496,4.008 131.278,3.664 L131.25,3.619 L131.218,3.575 C130.484,2.546 129.446,1.98 128.294,1.98 M128.294,3.98 C128.798,3.98 129.231,4.232 129.59,4.736 C129.758,5.001 129.902,5.264 130.023,5.528 C130.143,5.793 130.202,6.092 130.202,6.428 C130.202,6.572 130.185,6.71 130.148,6.842 C130.112,6.974 130.07,7.125 130.023,7.292 C129.686,8.3 129.29,9.398 128.834,10.586 C128.378,11.774 127.946,12.957 127.538,14.132 C127.298,14.829 127.1,15.428 126.944,15.932 C126.788,16.436 126.578,16.976 126.315,17.552 C126.074,18.056 125.912,18.692 125.828,19.46 C125.744,20.229 125.702,21.068 125.702,21.98 C125.702,22.772 125.726,23.594 125.774,24.446 C125.822,25.298 125.876,26.126 125.937,26.93 C125.996,27.734 126.05,28.502 126.099,29.234 C126.147,29.966 126.17,30.596 126.17,31.124 L126.17,31.34 C126.147,32.037 126.038,32.642 125.846,33.158 C125.653,33.674 125.255,33.932 124.649,33.932 C124.527,33.932 124.347,33.908 124.105,33.86 C123.5,33.74 123.027,33.536 122.689,33.248 C122.35,32.96 122.095,32.612 121.926,32.204 C121.877,32.084 121.835,31.73 121.799,31.142 C121.762,30.554 121.726,29.846 121.69,29.018 C121.653,28.19 121.629,27.296 121.617,26.336 C121.605,25.376 121.593,24.452 121.581,23.564 C121.568,22.676 121.557,21.884 121.544,21.188 C121.532,20.492 121.526,20 121.526,19.712 C121.358,19.472 121.185,19.226 121.004,18.974 C120.824,18.722 120.674,18.428 120.555,18.092 C120.458,17.78 120.332,17.354 120.177,16.814 C120.02,16.274 119.846,15.68 119.654,15.032 C119.462,14.384 119.264,13.712 119.061,13.016 C118.856,12.32 118.658,11.648 118.466,11 C118.273,10.352 118.1,9.758 117.944,9.218 C117.788,8.678 117.662,8.24 117.566,7.904 C117.47,7.544 117.368,7.251 117.261,7.022 C117.152,6.794 117.099,6.584 117.099,6.392 C117.099,6.128 117.242,5.852 117.53,5.564 C117.818,5.42 118.082,5.348 118.322,5.348 C118.634,5.348 118.916,5.444 119.168,5.636 C119.42,5.829 119.637,6.068 119.816,6.356 C119.996,6.644 120.152,6.956 120.284,7.292 C120.416,7.628 120.53,7.94 120.626,8.228 C120.771,8.66 120.914,9.11 121.059,9.578 C121.202,10.046 121.328,10.49 121.437,10.91 C121.544,11.33 121.641,11.708 121.726,12.044 C121.811,12.38 121.877,12.62 121.926,12.764 C122.023,13.101 122.113,13.448 122.198,13.808 C122.282,14.168 122.361,14.504 122.435,14.816 C122.507,15.128 122.573,15.38 122.634,15.572 C122.694,15.764 122.749,15.873 122.797,15.896 C123.015,15.176 123.269,14.336 123.56,13.376 C123.85,12.417 124.171,11.444 124.523,10.46 C124.873,9.476 125.23,8.504 125.592,7.544 C125.953,6.584 126.315,5.744 126.674,5.024 C127.107,4.328 127.647,3.98 128.294,3.98" fill="#8E693F"/>
      <path d="M135.89,35.904 C135.509,35.904 135.101,35.842 134.679,35.722 C134.288,35.611 133.914,35.467 133.571,35.295 C133.214,35.116 132.896,34.91 132.623,34.683 C132.281,34.397 132.048,34.105 131.911,33.787 C131.807,33.583 131.719,33.225 131.641,32.643 C131.58,32.189 131.518,31.642 131.457,31.004 C131.396,30.377 131.336,29.699 131.276,28.975 C131.215,28.245 131.166,27.52 131.129,26.801 C131.093,26.095 131.058,25.431 131.023,24.808 L130.932,23.264 L130.93,22.88 C130.908,22.575 130.888,21.982 130.876,21.167 C130.864,20.375 130.804,15.187 130.804,15.187 C130.792,14.055 130.786,12.984 130.786,11.972 L130.786,9.2 C130.786,8.213 130.823,7.779 130.859,7.534 L130.859,6.914 C130.859,6.592 130.871,6.25 130.898,5.888 C130.922,5.529 130.961,5.173 131.013,4.824 C131.077,4.397 131.193,4.011 131.36,3.677 C131.681,2.912 132.37,2.44 133.226,2.44 C133.525,2.44 133.836,2.494 134.154,2.599 C134.979,2.921 135.594,3.486 136.033,4.297 C136.401,4.981 136.682,5.78 136.869,6.674 C137.047,7.527 137.162,8.457 137.213,9.437 C137.262,10.392 137.286,11.33 137.286,12.224 C137.286,12.224 137.286,14.27 137.287,14.372 C137.304,14.348 137.32,14.325 137.335,14.302 C137.787,13.647 138.253,12.961 138.731,12.245 C139.215,11.531 139.654,10.823 140.04,10.133 C140.431,9.435 140.806,8.746 141.161,8.07 C141.524,7.38 141.886,6.704 142.248,6.039 C142.614,5.371 143.002,4.684 143.416,3.978 C143.869,3.236 144.556,2.836 145.359,2.836 C145.786,2.836 146.191,2.936 146.563,3.132 C146.86,3.288 147.151,3.492 147.426,3.737 L147.572,3.865 L147.658,4.039 C147.775,4.275 147.834,4.522 147.834,4.772 C147.834,5.257 147.683,5.835 147.357,6.59 C147.078,7.236 146.722,7.94 146.3,8.685 C145.966,9.306 145.592,9.958 145.185,10.622 C144.785,11.278 144.401,11.886 144.036,12.446 C143.671,13.007 143.342,13.499 143.05,13.925 C142.768,14.337 142.578,14.615 142.484,14.758 C141.799,15.673 141.166,16.504 140.551,17.3 C139.932,18.102 139.377,18.796 138.891,19.38 C138.846,19.434 138.808,19.483 138.776,19.526 C138.965,19.713 139.196,19.932 139.469,20.185 C139.82,20.512 140.211,20.88 140.645,21.289 C141.071,21.692 141.508,22.093 141.957,22.495 C142.329,22.865 142.807,23.404 143.46,24.181 C144.099,24.944 144.763,25.78 145.435,26.669 C146.116,27.568 146.773,28.476 147.388,29.368 C148.012,30.275 148.506,31.052 148.859,31.678 C149.16,32.347 149.275,32.772 149.275,33.14 L149.275,33.577 L148.954,33.874 C148.428,34.361 147.764,34.608 146.979,34.608 C146.107,34.608 145.357,34.3 144.809,33.717 L142.987,31.639 C142.552,31.152 142.175,30.594 141.871,29.988 C141.61,29.464 141.336,28.929 141.051,28.382 C140.774,27.849 140.465,27.303 140.128,26.745 C139.828,26.249 139.442,25.773 138.98,25.331 C138.464,24.833 137.984,24.376 137.538,23.96 C137.552,24.295 137.57,24.661 137.591,25.059 C137.65,26.179 137.727,27.334 137.824,28.524 C137.918,29.521 138.002,30.455 138.075,31.31 C138.146,32.147 138.204,32.767 138.251,33.168 L138.258,33.226 L138.258,33.572 C138.258,34.574 137.831,35.113 137.474,35.39 C137.032,35.731 136.498,35.904 135.89,35.904" fill="#F7F4E2"/>
      <path d="M133.226,1.44 C131.99,1.44 130.952,2.128 130.438,3.285 C130.239,3.701 130.099,4.169 130.024,4.678 C129.968,5.055 129.926,5.439 129.9,5.821 C129.872,6.193 129.859,6.563 129.859,6.914 L129.859,7.464 C129.82,7.765 129.787,8.249 129.787,9.2 L129.787,11.972 C129.787,12.986 129.792,14.062 129.804,15.197 L129.832,17.766 L129.84,18.439 C129.852,19.475 129.864,20.389 129.876,21.184 C129.888,21.946 129.906,22.538 129.93,22.942 L129.93,23.204 L129.93,23.264 L129.934,23.324 L130.024,24.868 C130.059,25.486 130.095,26.148 130.131,26.852 C130.168,27.588 130.218,28.331 130.28,29.06 C130.34,29.787 130.401,30.469 130.462,31.102 C130.524,31.752 130.587,32.312 130.65,32.776 C130.739,33.438 130.849,33.878 131.015,34.231 C131.216,34.676 131.533,35.075 131.981,35.449 C132.316,35.728 132.699,35.976 133.122,36.188 C133.523,36.389 133.955,36.555 134.407,36.684 C134.915,36.83 135.415,36.904 135.89,36.904 C136.713,36.904 137.472,36.654 138.084,36.182 C138.621,35.768 139.258,34.98 139.258,33.572 L139.258,33.284 L139.258,33.168 L139.245,33.051 C139.199,32.657 139.141,32.048 139.072,31.225 C138.998,30.367 138.914,29.43 138.818,28.415 C138.765,27.761 138.717,27.104 138.675,26.456 C138.907,26.718 139.107,26.987 139.274,27.263 C139.6,27.804 139.9,28.337 140.166,28.846 C140.447,29.385 140.718,29.916 140.977,30.434 C141.321,31.12 141.747,31.751 142.245,32.31 L144.035,34.351 L144.057,34.377 L144.08,34.401 C144.822,35.19 145.824,35.608 146.979,35.608 C148.009,35.608 148.927,35.262 149.634,34.607 L150.275,34.014 L150.275,33.14 C150.275,32.625 150.133,32.075 149.816,31.358 L149.777,31.271 L149.73,31.189 C149.364,30.535 148.853,29.732 148.212,28.802 C147.587,27.896 146.922,26.976 146.233,26.065 C145.55,25.164 144.876,24.314 144.228,23.54 C143.554,22.738 143.057,22.179 142.705,21.827 L142.666,21.788 L142.624,21.75 C142.182,21.354 141.751,20.959 141.332,20.563 C140.897,20.151 140.503,19.782 140.153,19.455 C140.147,19.45 140.141,19.445 140.136,19.44 C140.511,18.976 140.916,18.463 141.343,17.91 C141.96,17.112 142.596,16.276 143.25,15.405 L143.285,15.359 L143.317,15.311 C143.41,15.17 143.598,14.896 143.877,14.486 C144.17,14.059 144.503,13.56 144.874,12.992 C145.244,12.424 145.633,11.808 146.039,11.142 C146.449,10.474 146.836,9.799 147.192,9.139 C147.61,8.402 147.982,7.665 148.275,6.987 C148.657,6.101 148.834,5.398 148.834,4.772 C148.834,4.365 148.74,3.969 148.553,3.593 L148.38,3.247 L148.091,2.989 C147.755,2.69 147.397,2.44 147.027,2.246 C146.512,1.975 145.951,1.836 145.359,1.836 C144.211,1.836 143.195,2.421 142.572,3.441 C142.143,4.172 141.746,4.875 141.372,5.559 C141.006,6.229 140.642,6.909 140.277,7.602 C139.924,8.273 139.553,8.954 139.166,9.646 C138.896,10.13 138.597,10.625 138.275,11.123 C138.263,10.554 138.242,9.973 138.211,9.386 C138.159,8.355 138.037,7.373 137.848,6.469 C137.641,5.481 137.327,4.591 136.914,3.824 C136.367,2.811 135.556,2.073 134.569,1.686 L134.519,1.667 L134.469,1.65 C134.05,1.511 133.632,1.44 133.226,1.44 M133.226,3.44 C133.418,3.44 133.622,3.476 133.838,3.548 C134.39,3.764 134.829,4.172 135.153,4.772 C135.476,5.372 135.722,6.074 135.89,6.878 C136.058,7.683 136.166,8.552 136.214,9.488 C136.262,10.424 136.287,11.336 136.287,12.224 L136.287,14.06 C136.287,14.876 136.304,15.548 136.34,16.076 C136.376,16.604 136.478,16.88 136.647,16.904 C137.199,16.208 137.703,15.53 138.159,14.87 C138.614,14.211 139.082,13.52 139.563,12.8 C140.067,12.057 140.516,11.33 140.913,10.622 C141.308,9.915 141.687,9.218 142.046,8.534 C142.407,7.85 142.766,7.178 143.126,6.518 C143.487,5.858 143.871,5.18 144.279,4.484 C144.542,4.052 144.903,3.836 145.359,3.836 C145.622,3.836 145.869,3.896 146.096,4.016 C146.325,4.136 146.546,4.292 146.762,4.484 C146.81,4.58 146.834,4.676 146.834,4.772 C146.834,5.108 146.703,5.582 146.439,6.194 C146.174,6.806 145.838,7.472 145.43,8.192 C145.094,8.816 144.729,9.452 144.332,10.1 C143.937,10.748 143.558,11.348 143.199,11.9 C142.838,12.453 142.514,12.939 142.226,13.358 C141.939,13.778 141.747,14.06 141.651,14.204 C141.002,15.068 140.372,15.896 139.76,16.688 C139.149,17.48 138.602,18.164 138.122,18.74 C137.787,19.148 137.619,19.448 137.619,19.64 L137.619,19.748 C137.619,19.772 137.726,19.892 137.943,20.108 C138.159,20.324 138.44,20.594 138.788,20.918 C139.136,21.242 139.527,21.608 139.958,22.016 C140.39,22.424 140.834,22.832 141.29,23.24 C141.602,23.552 142.07,24.081 142.695,24.824 C143.318,25.568 143.966,26.384 144.638,27.272 C145.31,28.16 145.953,29.048 146.565,29.936 C147.176,30.824 147.65,31.568 147.987,32.168 C148.178,32.6 148.275,32.924 148.275,33.14 C147.938,33.452 147.506,33.608 146.979,33.608 C146.378,33.608 145.899,33.416 145.539,33.032 L143.739,30.98 C143.354,30.548 143.031,30.068 142.766,29.54 C142.502,29.012 142.226,28.472 141.939,27.92 C141.651,27.368 141.332,26.804 140.985,26.228 C140.636,25.652 140.198,25.112 139.67,24.608 C138.951,23.912 138.296,23.294 137.708,22.754 C137.121,22.214 136.73,21.896 136.539,21.8 C136.514,21.849 136.502,22.076 136.502,22.484 C136.502,23.108 136.533,23.984 136.592,25.112 C136.652,26.24 136.73,27.404 136.827,28.604 C136.922,29.612 137.006,30.543 137.079,31.394 C137.151,32.246 137.21,32.876 137.258,33.284 L137.258,33.572 C137.258,34.052 137.126,34.395 136.863,34.598 C136.598,34.802 136.274,34.904 135.89,34.904 C135.603,34.904 135.29,34.857 134.955,34.76 C134.619,34.665 134.306,34.544 134.018,34.4 C133.731,34.256 133.479,34.094 133.262,33.914 C133.046,33.734 132.903,33.56 132.83,33.392 C132.758,33.248 132.692,32.955 132.632,32.51 C132.573,32.066 132.512,31.532 132.453,30.908 C132.392,30.284 132.332,29.612 132.273,28.892 C132.212,28.172 132.164,27.458 132.128,26.75 C132.092,26.043 132.056,25.377 132.021,24.752 C131.985,24.128 131.955,23.612 131.93,23.204 L131.93,22.88 C131.907,22.52 131.888,21.944 131.876,21.152 C131.864,20.36 131.852,19.448 131.84,18.416 C131.829,17.384 131.816,16.304 131.804,15.176 C131.792,14.048 131.787,12.98 131.787,11.972 L131.787,9.2 C131.787,8.408 131.81,7.88 131.859,7.616 L131.859,6.914 C131.859,6.614 131.871,6.296 131.895,5.96 C131.918,5.624 131.955,5.294 132.002,4.97 C132.05,4.646 132.134,4.364 132.254,4.124 C132.447,3.669 132.77,3.44 133.226,3.44" fill="#8E693F"/>
      <path d="M152.001,34.096 C151.852,34.096 151.695,34.081 151.533,34.048 C151.055,33.953 150.566,33.751 150.083,33.448 C149.673,33.192 149.314,32.947 149.006,32.716 L148.949,32.674 L148.899,32.624 C148.608,32.334 148.396,31.95 148.265,31.483 C148.166,31.132 148.095,30.742 148.053,30.324 C148.014,29.932 147.994,29.526 147.994,29.108 L147.994,28.064 C148.065,25.144 148.102,22.131 148.102,19.082 C148.102,16.004 148.138,12.913 148.21,9.896 C148.259,8.046 148.332,6.232 148.428,4.501 C148.426,4.346 148.433,4.128 148.445,3.905 C148.456,3.721 148.462,3.542 148.462,3.368 L148.462,2.796 L148.954,2.506 C149.435,2.223 149.939,2.08 150.453,2.08 C150.583,2.08 150.714,2.089 150.844,2.108 C151.43,2.192 151.957,2.406 152.414,2.744 C152.84,3.059 153.197,3.449 153.48,3.903 C153.795,4.411 153.954,4.933 153.954,5.456 C154.025,7.618 154.062,9.803 154.062,11.918 C154.062,14.046 154.05,16.203 154.025,18.391 C154.002,19.644 153.983,20.877 153.972,22.097 C153.959,23.312 153.966,24.539 153.99,25.776 L153.99,28.658 C153.99,29.598 154.002,30.556 154.025,31.532 C154.025,32.556 153.78,33.24 153.276,33.648 C152.914,33.941 152.473,34.096 152.001,34.096" fill="#F7F4E2"/>
      <path d="M150.453,1.08 L150.453,1.08 C149.758,1.08 149.083,1.27 148.447,1.644 L147.462,2.225 L147.462,3.368 C147.462,3.523 147.456,3.683 147.446,3.847 C147.433,4.07 147.427,4.288 147.426,4.498 C147.331,6.223 147.259,8.029 147.211,9.868 C147.139,12.897 147.101,15.996 147.101,19.082 C147.101,22.123 147.065,25.128 146.995,28.015 L146.994,29.108 C146.994,29.56 147.015,30.003 147.057,30.424 C147.105,30.899 147.187,31.346 147.302,31.753 C147.479,32.388 147.779,32.919 148.193,33.332 L148.293,33.432 L148.406,33.517 C148.742,33.768 149.128,34.03 149.554,34.296 C150.14,34.663 150.74,34.91 151.338,35.029 C151.559,35.074 151.783,35.096 152.001,35.096 C152.705,35.096 153.363,34.864 153.906,34.424 C155.025,33.52 155.025,32.042 155.025,31.556 C155.002,30.545 154.99,29.586 154.99,28.658 L154.99,25.796 C154.966,24.513 154.959,23.286 154.972,22.108 C154.983,20.89 155.002,19.66 155.025,18.417 C155.049,16.25 155.061,14.068 155.061,11.918 C155.061,9.801 155.025,7.613 154.954,5.417 C154.946,4.719 154.736,4.032 154.33,3.376 C153.98,2.813 153.537,2.331 153.01,1.941 C152.418,1.502 151.737,1.226 150.988,1.118 C150.808,1.093 150.63,1.08 150.453,1.08 M150.453,3.08 C150.537,3.08 150.62,3.086 150.704,3.098 C151.123,3.158 151.496,3.309 151.819,3.548 C152.143,3.788 152.414,4.082 152.63,4.43 C152.846,4.778 152.954,5.12 152.954,5.456 C153.025,7.64 153.061,9.794 153.061,11.918 C153.061,14.042 153.05,16.196 153.025,18.38 C153.002,19.628 152.983,20.864 152.972,22.088 C152.959,23.312 152.966,24.548 152.99,25.796 L152.99,28.658 C152.99,29.606 153.002,30.572 153.025,31.556 C153.025,32.228 152.899,32.666 152.647,32.87 C152.461,33.021 152.246,33.096 152.001,33.096 C151.914,33.096 151.823,33.087 151.729,33.068 C151.37,32.996 150.997,32.84 150.613,32.6 C150.229,32.36 149.893,32.132 149.605,31.916 C149.437,31.748 149.311,31.514 149.227,31.214 C149.143,30.914 149.084,30.584 149.048,30.224 C149.012,29.864 148.994,29.492 148.994,29.108 L148.994,28.064 C149.065,25.161 149.101,22.166 149.101,19.082 C149.101,15.998 149.138,12.944 149.21,9.92 C149.258,8.096 149.329,6.308 149.426,4.556 C149.426,4.364 149.432,4.166 149.443,3.962 C149.455,3.758 149.462,3.56 149.462,3.368 C149.788,3.176 150.118,3.08 150.453,3.08" fill="#8E693F"/>
    </g>
  </g>
</svg>
