<?xml version="1.0" encoding="UTF-8"?>
<!DOCTYPE svg PUBLIC "-//W3C//DTD SVG 1.1//EN" "http://www.w3.org/Graphics/SVG/1.1/DTD/svg11.dtd">
<svg version="1.1" xmlns="http://www.w3.org/2000/svg" xmlns:xlink="http://www.w3.org/1999/xlink" x="0" y="0" width="145.271" height="41.848" viewBox="0, 0, 145.271, 41.848">
  <defs>
    <clipPath id="Clip_1">
      <path d="M0,0 L145.271,0 L145.271,41.848 L0,41.848 z"/>
    </clipPath>
  </defs>
  <g id="Layer_1">
    <g clip-path="url(#Clip_1)">
      <path d="M9.484,36.915 C8.858,36.915 8.207,36.853 7.55,36.729 C6.682,36.593 5.864,36.3 5.144,35.862 C4.445,35.437 3.765,34.842 3.123,34.092 C2.202,33.058 1.734,32.237 1.663,31.524 C1.616,31.059 1.697,29.917 3.466,29.418 C3.703,29.363 3.887,29.342 4.065,29.342 C4.759,29.342 5.379,29.67 5.808,30.264 C6.154,30.743 6.452,31.244 6.693,31.753 C6.785,31.977 6.89,32.101 7.048,32.202 C7.257,32.337 7.492,32.417 7.772,32.447 C7.873,32.461 7.951,32.466 8.03,32.466 C8.202,32.466 8.388,32.443 8.583,32.396 C8.863,32.33 9.122,32.208 9.376,32.023 C9.631,31.837 9.868,31.574 10.077,31.247 C10.283,30.925 10.436,30.509 10.532,30.012 C10.822,28.558 10.909,27.332 10.791,26.363 C10.675,25.42 10.396,24.552 9.96,23.782 C9.505,22.981 8.89,22.202 8.135,21.469 C7.314,20.672 6.368,19.785 5.296,18.809 C4.855,18.394 4.379,17.894 3.832,17.271 C3.262,16.622 2.838,16.04 2.537,15.49 C1.418,13.435 0.905,11.438 1.011,9.553 C1.172,7.541 1.774,5.855 2.801,4.518 C3.887,3.102 5.363,2.312 7.188,2.168 C7.366,2.153 7.553,2.145 7.741,2.145 C8.541,2.145 9.374,2.291 10.217,2.579 C10.621,2.715 11.071,2.912 11.547,3.163 C12.032,3.419 12.501,3.724 12.942,4.071 C13.41,4.44 13.818,4.864 14.158,5.331 C14.548,5.867 14.78,6.445 14.847,7.05 C14.896,7.335 14.842,7.695 14.68,8.066 C14.546,8.372 14.361,8.644 14.13,8.875 C13.845,9.161 13.49,9.349 13.103,9.422 C13.006,9.44 12.911,9.449 12.817,9.449 C12.522,9.449 12.084,9.362 11.671,8.949 C11.374,8.682 11.048,8.281 10.711,7.759 C10.463,7.378 10.192,7.039 9.906,6.751 C9.713,6.558 9.519,6.441 9.317,6.396 C9.328,6.407 9.185,6.463 8.926,6.735 C8.483,7.16 8.175,7.604 7.952,8.128 C7.721,8.672 7.583,9.241 7.543,9.822 C7.524,10.397 7.583,11.022 7.72,11.643 C7.862,12.289 8.061,12.914 8.312,13.501 C8.562,14.089 8.853,14.634 9.178,15.121 C9.5,15.604 9.821,16.007 10.132,16.318 C11.119,17.257 12.056,18.135 12.928,18.935 C13.853,19.785 14.663,20.698 15.336,21.65 C16.029,22.632 16.572,23.742 16.95,24.955 C17.328,26.167 17.507,27.622 17.482,29.281 C17.426,31 16.991,32.447 16.186,33.6 C15.387,34.743 14.351,35.603 13.108,36.156 C11.974,36.66 10.755,36.915 9.484,36.915" fill="#F7F4E2"/>
      <path d="M7.741,1.146 C7.524,1.146 7.309,1.155 7.095,1.173 C5.02,1.336 3.256,2.283 2.007,3.91 C0.861,5.402 0.191,7.267 0.016,9.45 C-0.104,11.571 0.449,13.748 1.658,15.966 C1.998,16.586 2.463,17.228 3.081,17.932 C3.649,18.579 4.147,19.102 4.602,19.529 C5.677,20.509 6.625,21.397 7.439,22.187 C8.126,22.854 8.682,23.558 9.091,24.278 C9.466,24.939 9.698,25.662 9.799,26.486 C9.904,27.348 9.821,28.466 9.553,29.81 C9.478,30.195 9.372,30.494 9.235,30.708 C9.092,30.931 8.941,31.103 8.784,31.217 C8.642,31.321 8.502,31.388 8.357,31.422 C8.233,31.452 8.124,31.466 8.031,31.466 C7.996,31.466 7.963,31.464 7.931,31.46 C7.755,31.44 7.667,31.405 7.624,31.382 L7.623,31.38 L7.597,31.325 C7.329,30.761 7.001,30.208 6.619,29.679 C5.996,28.817 5.089,28.342 4.065,28.342 C3.814,28.342 3.555,28.373 3.297,28.43 L3.246,28.442 L3.195,28.457 C1.155,29.032 0.552,30.471 0.668,31.626 C0.762,32.571 1.293,33.542 2.388,34.772 C3.074,35.573 3.835,36.237 4.625,36.717 C5.449,37.218 6.38,37.554 7.394,37.717 C8.102,37.848 8.805,37.915 9.484,37.915 C10.896,37.915 12.251,37.63 13.513,37.071 C14.927,36.442 16.101,35.467 17.005,34.173 C17.924,32.859 18.42,31.229 18.481,29.33 C18.509,27.532 18.315,25.97 17.905,24.657 C17.496,23.345 16.907,22.14 16.153,21.074 C15.439,20.063 14.581,19.096 13.605,18.199 C12.737,17.402 11.795,16.521 10.806,15.578 C10.575,15.347 10.296,14.996 10.011,14.567 C9.72,14.131 9.458,13.641 9.232,13.11 C9.005,12.579 8.825,12.014 8.697,11.43 C8.58,10.901 8.529,10.373 8.543,9.858 C8.579,9.395 8.686,8.957 8.872,8.522 C9.007,8.205 9.181,7.927 9.403,7.678 C9.566,7.865 9.723,8.075 9.872,8.305 C10.247,8.884 10.618,9.34 11.003,9.695 C11.509,10.182 12.151,10.45 12.817,10.45 C12.973,10.45 13.132,10.435 13.287,10.406 C13.874,10.295 14.409,10.011 14.836,9.584 C15.157,9.262 15.411,8.888 15.595,8.47 C15.828,7.938 15.909,7.41 15.836,6.897 C15.743,6.133 15.451,5.409 14.967,4.743 C14.574,4.202 14.101,3.712 13.563,3.288 C13.072,2.902 12.553,2.563 12.017,2.28 C11.49,2.002 10.99,1.784 10.53,1.629 C9.594,1.31 8.652,1.146 7.741,1.146 M7.741,3.146 C8.435,3.146 9.152,3.272 9.894,3.526 C10.254,3.646 10.65,3.82 11.082,4.048 C11.514,4.276 11.928,4.546 12.324,4.858 C12.72,5.17 13.062,5.524 13.35,5.92 C13.638,6.316 13.805,6.73 13.854,7.162 C13.878,7.306 13.848,7.474 13.764,7.666 C13.679,7.858 13.566,8.026 13.422,8.17 C13.278,8.314 13.11,8.404 12.918,8.44 C12.884,8.446 12.85,8.45 12.817,8.45 C12.662,8.45 12.516,8.38 12.378,8.242 C12.114,8.002 11.838,7.66 11.55,7.216 C11.262,6.772 10.949,6.382 10.614,6.046 C10.278,5.71 9.912,5.5 9.516,5.416 C9.459,5.404 9.402,5.398 9.344,5.398 C8.994,5.398 8.614,5.614 8.202,6.046 C7.698,6.526 7.307,7.09 7.032,7.738 C6.756,8.386 6.594,9.058 6.546,9.754 C6.522,10.45 6.588,11.152 6.744,11.86 C6.9,12.568 7.116,13.246 7.392,13.894 C7.668,14.542 7.986,15.136 8.346,15.676 C8.706,16.216 9.066,16.666 9.426,17.026 C10.434,17.986 11.376,18.868 12.252,19.672 C13.128,20.477 13.884,21.328 14.52,22.228 C15.156,23.127 15.648,24.136 15.996,25.252 C16.344,26.368 16.506,27.706 16.482,29.266 C16.433,30.778 16.062,32.032 15.366,33.028 C14.67,34.024 13.782,34.762 12.702,35.243 C11.694,35.69 10.621,35.915 9.484,35.915 C8.917,35.915 8.333,35.859 7.734,35.747 C6.966,35.625 6.276,35.38 5.664,35.008 C5.052,34.636 4.458,34.114 3.882,33.442 C3.114,32.579 2.706,31.907 2.658,31.426 C2.61,30.946 2.97,30.598 3.738,30.381 C3.852,30.356 3.961,30.342 4.065,30.342 C4.442,30.342 4.753,30.512 4.998,30.85 C5.309,31.282 5.574,31.727 5.79,32.182 C5.934,32.542 6.174,32.831 6.51,33.045 C6.845,33.262 7.23,33.394 7.662,33.442 C7.782,33.459 7.905,33.466 8.031,33.466 C8.281,33.466 8.542,33.434 8.814,33.37 C9.222,33.274 9.606,33.094 9.966,32.831 C10.326,32.567 10.644,32.217 10.92,31.786 C11.196,31.354 11.393,30.827 11.514,30.202 C11.825,28.642 11.915,27.322 11.784,26.243 C11.652,25.163 11.334,24.178 10.83,23.29 C10.326,22.403 9.66,21.556 8.832,20.752 C8.004,19.948 7.05,19.054 5.97,18.07 C5.561,17.687 5.1,17.2 4.584,16.612 C4.068,16.024 3.678,15.49 3.414,15.01 C2.382,13.114 1.914,11.314 2.01,9.61 C2.154,7.81 2.681,6.316 3.594,5.128 C4.506,3.94 5.73,3.287 7.266,3.166 C7.423,3.153 7.581,3.146 7.741,3.146" fill="#8E693F"/>
      <path d="M25.337,37.538 C24.608,37.538 23.905,37.28 23.248,36.77 C22.757,36.39 22.154,35.665 22.071,34.371 C22,33.224 21.916,32.079 21.82,30.934 C21.724,29.776 21.634,28.584 21.549,27.354 C21.465,26.129 21.381,24.837 21.297,23.478 C21.212,22.119 21.134,20.655 21.062,19.088 C21.013,17.925 20.977,16.79 20.953,15.68 C20.929,14.569 20.917,13.482 20.917,12.418 C20.917,11.111 20.935,9.877 20.972,8.715 C20.996,7.943 21.039,7.196 21.1,6.483 C21.078,6.484 21.057,6.486 21.035,6.487 C20.803,6.5 20.58,6.506 20.369,6.506 C19.782,6.506 19.297,6.445 18.886,6.318 C18.196,6.147 17.623,5.868 17.186,5.48 C16.652,5.011 16.381,4.486 16.381,3.922 C16.381,3.489 16.555,2.448 18.17,2.147 C19.263,1.994 20.287,1.888 21.26,1.827 C22.199,1.767 23.191,1.69 24.238,1.594 L25.482,1.503 C26.008,1.465 26.56,1.446 27.137,1.446 C27.763,1.446 28.381,1.478 28.972,1.542 C29.708,1.622 30.265,1.807 30.677,2.105 C31.574,2.67 31.773,3.428 31.773,3.958 C31.773,4.496 31.56,5.48 30.131,6.041 C29.689,6.218 29.219,6.331 28.741,6.376 C28.328,6.415 27.901,6.434 27.461,6.434 L26.886,6.434 C27.098,10.674 27.275,14.851 27.417,18.9 C27.464,20.976 27.572,23.132 27.738,25.321 C27.907,27.562 27.993,29.798 27.993,31.966 C27.993,33.086 27.956,34.187 27.883,35.24 C27.782,36.186 27.349,36.705 27.003,36.979 C26.536,37.35 25.976,37.538 25.337,37.538" fill="#F7F4E2"/>
      <path d="M27.137,0.446 C26.54,0.446 25.959,0.466 25.41,0.506 L24.179,0.595 C23.113,0.693 22.12,0.77 21.197,0.828 C20.199,0.892 19.149,1 18.076,1.149 L18.032,1.155 L17.987,1.164 C16.065,1.522 15.381,2.823 15.381,3.922 C15.381,4.515 15.579,5.398 16.527,6.233 C17.064,6.71 17.779,7.067 18.647,7.29 C19.054,7.409 19.507,7.479 20.024,7.499 C20.002,7.887 19.984,8.282 19.972,8.684 C19.935,9.851 19.917,11.107 19.917,12.418 C19.917,13.499 19.929,14.604 19.953,15.703 C19.977,16.806 20.013,17.958 20.063,19.126 C20.136,20.72 20.215,22.203 20.299,23.541 C20.383,24.9 20.467,26.195 20.552,27.423 C20.636,28.657 20.727,29.855 20.824,31.016 C20.92,32.175 21.004,33.324 21.073,34.43 C21.18,36.1 21.982,37.054 22.636,37.561 C23.471,38.209 24.381,38.538 25.337,38.538 C26.195,38.538 26.986,38.269 27.625,37.761 C28.119,37.37 28.739,36.637 28.874,35.384 L28.878,35.346 L28.88,35.309 C28.955,34.234 28.993,33.109 28.993,31.966 C28.993,29.772 28.906,27.511 28.735,25.246 C28.571,23.074 28.463,20.935 28.416,18.888 C28.285,15.133 28.124,11.29 27.937,7.427 C28.242,7.418 28.543,7.399 28.836,7.371 C29.407,7.318 29.97,7.182 30.508,6.967 C32.551,6.165 32.773,4.595 32.773,3.958 C32.773,3.326 32.568,2.141 31.206,1.255 C30.659,0.876 29.963,0.644 29.081,0.548 C28.452,0.48 27.799,0.446 27.137,0.446 M27.137,2.446 C27.737,2.446 28.312,2.477 28.865,2.536 C29.417,2.596 29.825,2.722 30.089,2.914 C30.544,3.202 30.773,3.55 30.773,3.958 C30.773,4.462 30.436,4.846 29.765,5.11 C29.405,5.254 29.033,5.344 28.649,5.38 C28.264,5.416 27.868,5.434 27.461,5.434 L26.561,5.434 L26.111,5.434 C25.954,5.434 25.817,5.446 25.697,5.47 C25.72,5.686 25.751,5.812 25.787,5.848 C25.823,5.884 25.853,6.023 25.877,6.262 C26.093,10.582 26.273,14.806 26.417,18.934 C26.465,21.022 26.573,23.176 26.741,25.396 C26.908,27.616 26.993,29.806 26.993,31.966 C26.993,33.071 26.957,34.138 26.885,35.171 C26.836,35.626 26.669,35.967 26.381,36.196 C26.093,36.425 25.744,36.538 25.337,36.538 C24.833,36.538 24.341,36.352 23.861,35.98 C23.381,35.608 23.116,35.05 23.069,34.306 C22.997,33.154 22.912,32.003 22.817,30.85 C22.72,29.698 22.631,28.51 22.547,27.286 C22.463,26.062 22.379,24.772 22.295,23.417 C22.21,22.061 22.133,20.603 22.061,19.042 C22.012,17.89 21.976,16.762 21.953,15.658 C21.929,14.554 21.917,13.475 21.917,12.418 C21.917,11.122 21.935,9.898 21.971,8.746 C22.007,7.594 22.084,6.514 22.205,5.506 C22.109,5.506 22.019,5.501 21.935,5.488 C21.85,5.476 21.749,5.47 21.629,5.47 C21.413,5.47 21.197,5.476 20.981,5.488 C20.765,5.501 20.561,5.506 20.369,5.506 C19.888,5.506 19.492,5.458 19.181,5.362 C18.605,5.218 18.16,5.008 17.849,4.732 C17.536,4.457 17.381,4.187 17.381,3.922 C17.381,3.514 17.705,3.251 18.353,3.13 C19.385,2.986 20.374,2.884 21.323,2.824 C22.271,2.764 23.272,2.686 24.329,2.59 C24.64,2.567 25.049,2.536 25.553,2.5 C26.057,2.464 26.584,2.446 27.137,2.446" fill="#8E693F"/>
      <path d="M38.197,7.848 C38.233,8.53 38.275,9.284 38.323,10.11 C38.371,10.942 38.413,11.738 38.45,12.496 C38.484,13.228 38.519,13.88 38.554,14.452 C38.593,14.425 38.631,14.396 38.668,14.365 C39.047,14.053 39.378,13.642 39.653,13.142 C39.942,12.616 40.163,12.02 40.309,11.37 C40.458,10.707 40.529,10.047 40.518,9.41 C40.509,8.79 40.42,8.205 40.257,7.671 C40.118,7.224 39.92,6.89 39.651,6.652 C39.343,6.401 38.876,6.136 38.287,5.888 C38.221,5.86 38.155,5.834 38.09,5.809 C38.095,5.903 38.197,7.848 38.197,7.848 M35.976,40.848 C35.347,40.848 34.806,40.675 34.368,40.331 C33.844,39.922 33.441,39.369 33.173,38.686 C32.938,38.093 32.777,37.446 32.696,36.765 C32.621,36.14 32.571,35.602 32.546,35.153 C32.475,34.177 32.413,33.038 32.365,31.751 L32.221,27.863 C32.173,26.534 32.142,25.217 32.131,23.911 C32.118,22.621 32.1,21.461 32.077,20.433 C32.052,19.393 32.041,18.533 32.041,17.854 L32.041,16.666 C32.016,15.581 31.998,14.497 31.987,13.437 L31.951,10.487 C31.938,9.571 31.933,8.739 31.933,7.991 L31.933,5.524 C31.933,5.343 31.942,5.185 31.96,5.052 C31.98,4.887 32.023,4.713 32.087,4.543 C32.091,4.53 32.096,4.517 32.101,4.505 C31.895,4.124 31.781,3.766 31.756,3.421 C31.697,2.676 31.995,2.186 32.256,1.908 C32.575,1.567 33.025,1.33 33.593,1.201 C34.023,1.104 34.523,1.042 35.081,1.015 C35.293,1.005 35.508,1 35.726,1 C36.586,1 37.497,1.082 38.432,1.245 C39.628,1.453 40.758,1.824 41.79,2.346 C42.845,2.88 43.774,3.593 44.551,4.462 C45.375,5.387 45.893,6.524 46.09,7.843 C46.301,9.295 46.245,10.641 45.923,11.848 C45.604,13.043 45.109,14.106 44.449,15.007 C43.802,15.891 43.043,16.651 42.193,17.262 C41.683,17.628 41.167,17.945 40.649,18.208 C41.601,20.196 42.591,22.204 43.598,24.187 C44.746,26.447 45.905,28.784 47.044,31.134 L47.087,31.237 C47.226,31.631 47.399,32.074 47.607,32.57 C47.837,33.119 48.033,33.68 48.188,34.236 C48.352,34.823 48.443,35.394 48.458,35.933 C48.483,36.88 48.089,37.441 47.754,37.746 C47.279,38.182 46.761,38.405 46.217,38.405 L46.067,38.399 C45.564,38.36 45.093,38.18 44.667,37.864 C44.311,37.601 43.99,37.272 43.714,36.889 C43.478,36.562 43.283,36.269 43.127,36.008 C42.539,34.963 41.96,33.674 41.392,32.155 C40.838,30.674 40.289,29.168 39.748,27.638 C39.444,26.781 39.148,25.956 38.86,25.163 L38.864,25.264 C38.888,25.82 38.906,26.318 38.918,26.754 C38.93,27.201 38.937,27.487 38.937,27.61 C38.913,28.615 38.925,29.769 38.972,31.066 C39.02,32.392 39.056,33.681 39.081,34.934 C39.081,35.357 39.103,35.798 39.148,36.263 C39.202,36.838 39.196,37.402 39.127,37.942 C39.049,38.548 38.864,39.096 38.578,39.573 C38.218,40.174 37.629,40.57 36.826,40.753 C36.516,40.818 36.237,40.848 35.976,40.848" fill="#F7F4E2"/>
      <path d="M39.373,10.968 C39.356,10.668 39.339,10.363 39.321,10.053 C39.273,9.228 39.232,8.475 39.196,7.795 L39.19,7.681 C39.231,7.764 39.269,7.86 39.302,7.968 C39.437,8.408 39.51,8.901 39.519,9.427 C39.527,9.926 39.478,10.444 39.373,10.968 M35.726,-0 C35.492,-0 35.26,0.006 35.032,0.017 C34.418,0.046 33.861,0.116 33.376,0.225 C32.606,0.399 31.986,0.734 31.529,1.221 C30.963,1.826 30.691,2.635 30.759,3.503 C30.786,3.858 30.875,4.217 31.03,4.583 C31.002,4.701 30.98,4.82 30.966,4.939 C30.945,5.1 30.933,5.298 30.933,5.524 L30.933,6.118 L30.933,7.99 C30.933,8.743 30.938,9.58 30.951,10.502 L30.987,13.449 C30.998,14.512 31.017,15.599 31.041,16.711 L31.041,17.854 C31.041,18.539 31.053,19.407 31.078,20.458 C31.101,21.48 31.119,22.635 31.131,23.921 C31.143,25.235 31.173,26.574 31.222,27.9 C31.27,29.219 31.318,30.517 31.366,31.79 C31.414,33.063 31.476,34.225 31.55,35.244 C31.573,35.673 31.624,36.221 31.703,36.884 C31.795,37.65 31.977,38.381 32.243,39.055 C32.578,39.904 33.086,40.599 33.754,41.121 C34.361,41.595 35.13,41.848 35.977,41.848 C36.305,41.848 36.653,41.81 37.011,41.736 C38.393,41.423 39.089,40.667 39.436,40.086 C39.793,39.491 40.023,38.813 40.119,38.071 C40.197,37.456 40.205,36.816 40.144,36.169 C40.102,35.734 40.081,35.326 40.081,34.954 C40.057,33.718 40.023,32.485 39.978,31.22 C40.138,31.652 40.297,32.081 40.456,32.506 C41.042,34.072 41.643,35.408 42.241,36.474 L42.255,36.498 L42.269,36.521 C42.44,36.808 42.647,37.12 42.903,37.474 C43.239,37.941 43.634,38.343 44.075,38.669 C44.651,39.096 45.296,39.342 45.988,39.396 C46.065,39.402 46.141,39.405 46.217,39.405 C46.769,39.405 47.602,39.244 48.434,38.479 C48.917,38.04 49.492,37.231 49.458,35.91 C49.441,35.285 49.337,34.632 49.15,33.965 C48.985,33.371 48.776,32.77 48.529,32.182 C48.329,31.705 48.161,31.274 48.03,30.904 L47.993,30.799 L47.944,30.698 C46.803,28.343 45.641,26 44.49,23.735 C43.628,22.038 42.78,20.324 41.957,18.62 C42.232,18.451 42.505,18.269 42.776,18.074 C43.713,17.401 44.548,16.567 45.257,15.596 C45.989,14.595 46.539,13.421 46.89,12.106 C47.247,10.767 47.31,9.285 47.08,7.702 C46.853,6.18 46.253,4.868 45.297,3.797 C44.436,2.833 43.409,2.045 42.243,1.454 C41.121,0.886 39.897,0.485 38.604,0.26 C37.612,0.088 36.644,-0 35.726,-0 M37.649,15.766 C38.273,15.742 38.825,15.532 39.305,15.136 C39.785,14.74 40.192,14.236 40.529,13.624 C40.865,13.012 41.117,12.334 41.285,11.59 C41.452,10.846 41.53,10.114 41.519,9.394 C41.507,8.674 41.404,8.003 41.213,7.378 C41.02,6.755 40.721,6.262 40.312,5.902 C39.904,5.567 39.359,5.254 38.675,4.966 C37.991,4.678 37.301,4.51 36.605,4.462 C36.725,4.631 36.827,4.775 36.911,4.894 C36.995,5.014 37.049,5.206 37.073,5.47 C37.073,5.494 37.085,5.735 37.109,6.19 C37.133,6.646 37.163,7.216 37.199,7.9 C37.235,8.584 37.276,9.34 37.325,10.168 C37.373,10.996 37.415,11.788 37.451,12.544 C37.487,13.3 37.523,13.972 37.559,14.56 C37.595,15.149 37.625,15.55 37.649,15.766 M35.726,2 C36.533,2 37.377,2.077 38.261,2.23 C39.365,2.423 40.391,2.759 41.339,3.238 C42.287,3.718 43.108,4.348 43.805,5.128 C44.501,5.908 44.933,6.863 45.101,7.99 C45.293,9.31 45.245,10.51 44.957,11.59 C44.669,12.67 44.23,13.613 43.643,14.416 C43.055,15.22 42.377,15.898 41.609,16.45 C40.841,17.003 40.072,17.422 39.305,17.71 C40.408,20.038 41.543,22.348 42.707,24.64 C43.871,26.932 45.017,29.243 46.144,31.57 C46.289,31.979 46.469,32.44 46.685,32.956 C46.901,33.472 47.081,33.989 47.225,34.505 C47.369,35.02 47.446,35.507 47.459,35.962 C47.471,36.418 47.345,36.766 47.081,37.007 C46.793,37.271 46.505,37.405 46.217,37.405 C46.193,37.405 46.169,37.404 46.144,37.402 C45.833,37.378 45.538,37.264 45.263,37.06 C44.986,36.856 44.741,36.604 44.525,36.304 C44.309,36.004 44.129,35.735 43.985,35.495 C43.433,34.51 42.881,33.28 42.329,31.804 C41.776,30.329 41.23,28.829 40.691,27.304 C40.15,25.78 39.635,24.358 39.143,23.038 C38.651,21.718 38.201,20.722 37.793,20.05 L37.829,19.906 C37.781,19.955 37.751,20.158 37.739,20.518 C37.727,20.878 37.727,21.322 37.739,21.85 C37.751,22.379 37.769,22.948 37.793,23.56 C37.816,24.173 37.841,24.755 37.865,25.306 C37.889,25.858 37.907,26.35 37.919,26.782 C37.931,27.214 37.937,27.491 37.937,27.61 C37.913,28.618 37.925,29.782 37.973,31.102 C38.021,32.423 38.057,33.707 38.081,34.954 C38.081,35.386 38.104,35.854 38.153,36.358 C38.201,36.862 38.194,37.348 38.135,37.816 C38.075,38.284 37.937,38.698 37.721,39.058 C37.505,39.419 37.133,39.658 36.605,39.778 C36.379,39.825 36.169,39.848 35.977,39.848 C35.575,39.848 35.244,39.747 34.985,39.544 C34.601,39.244 34.307,38.837 34.103,38.32 C33.899,37.803 33.761,37.246 33.689,36.646 C33.617,36.046 33.568,35.53 33.545,35.098 C33.473,34.114 33.413,32.987 33.365,31.714 C33.316,30.442 33.269,29.146 33.221,27.827 C33.172,26.507 33.143,25.198 33.131,23.902 C33.119,22.606 33.101,21.443 33.077,20.41 C33.053,19.379 33.041,18.527 33.041,17.854 L33.041,16.666 C33.017,15.563 32.998,14.483 32.987,13.426 C32.975,12.37 32.963,11.386 32.951,10.474 C32.938,9.562 32.933,8.735 32.933,7.99 L32.933,6.118 L32.933,5.524 C32.933,5.393 32.938,5.279 32.951,5.182 C32.963,5.087 32.987,4.99 33.023,4.894 C33.059,4.799 33.137,4.655 33.257,4.462 C32.945,4.03 32.776,3.658 32.753,3.346 C32.728,3.034 32.807,2.782 32.987,2.59 C33.167,2.398 33.442,2.26 33.815,2.176 C34.186,2.093 34.625,2.038 35.129,2.014 C35.326,2.005 35.525,2 35.726,2" fill="#8E693F"/>
      <path d="M56.696,37.202 C56.055,37.202 55.356,37.081 54.62,36.842 C53.714,36.551 52.927,36.046 52.283,35.342 C51.696,34.702 51.171,33.923 50.722,33.026 C50.154,31.866 49.721,30.549 49.43,29.103 C49.148,27.705 48.937,26.296 48.803,24.916 C48.67,23.552 48.583,22.245 48.547,21.035 C48.511,19.834 48.492,18.858 48.492,18.106 C48.468,16.872 48.456,15.599 48.456,14.308 C48.456,13.017 48.468,11.798 48.492,10.651 C48.516,9.51 48.541,8.47 48.565,7.533 C48.589,6.582 48.626,5.799 48.676,5.206 C48.717,4.505 49.05,3.911 49.612,3.56 C49.937,3.356 50.298,3.253 50.681,3.253 C50.936,3.253 51.199,3.3 51.463,3.393 C52.032,3.596 52.543,4.008 53.028,4.654 C53.488,5.267 53.806,6.087 54.004,7.161 C54.275,8.539 54.45,10.201 54.524,12.091 C54.596,13.94 54.645,15.863 54.668,17.806 C54.668,18.824 54.674,19.936 54.687,21.156 C54.698,22.359 54.74,23.603 54.811,24.854 C54.882,26.098 55.011,27.323 55.196,28.499 C55.376,29.642 55.657,30.68 56.032,31.582 C56.144,31.892 56.248,32.113 56.361,32.286 C56.404,32.352 56.438,32.39 56.46,32.409 C56.471,32.38 56.566,32.313 56.713,32.153 C56.746,32.115 56.867,31.951 57.004,31.543 C57.132,31.158 57.256,30.687 57.37,30.14 C57.55,29.17 57.691,28.002 57.783,26.694 C57.878,25.351 57.944,24.027 57.979,22.758 C58.015,21.469 58.038,20.292 58.051,19.229 C58.063,18.142 58.081,17.366 58.106,16.901 C58.128,15.714 58.147,14.512 58.158,13.327 L58.195,9.994 C58.206,8.968 58.212,8.041 58.212,7.216 L58.212,4.939 L58.356,4.701 C58.549,4.383 58.809,4.068 59.152,3.74 C59.488,3.418 59.86,3.143 60.257,2.922 C60.685,2.685 61.126,2.531 61.568,2.465 C61.683,2.448 61.795,2.44 61.904,2.44 C62.374,2.44 62.817,2.595 63.185,2.889 C63.638,3.219 63.952,3.839 64.137,4.816 C64.276,5.551 64.373,6.42 64.424,7.398 C64.495,8.336 64.532,9.367 64.532,10.438 C64.532,11.503 64.52,12.519 64.496,13.487 C64.472,14.456 64.442,15.321 64.405,16.084 C64.37,16.818 64.353,17.348 64.353,17.674 L64.207,21.154 C64.159,22.311 64.072,23.483 63.951,24.637 C63.829,25.791 63.662,26.96 63.455,28.111 C63.244,29.279 62.948,30.45 62.575,31.593 C62.294,32.437 61.958,33.233 61.573,33.963 C61.156,34.756 60.63,35.429 60.01,35.963 C59.358,36.527 58.572,36.91 57.676,37.101 C57.364,37.169 57.034,37.202 56.696,37.202" fill="#F7F4E2"/>
      <path d="M61.904,1.44 C61.745,1.44 61.583,1.452 61.422,1.476 C60.86,1.56 60.305,1.752 59.773,2.046 C59.299,2.31 58.858,2.636 58.46,3.017 C58.052,3.407 57.739,3.789 57.5,4.184 L57.212,4.661 L57.212,5.218 L57.212,7.216 C57.212,8.037 57.206,8.961 57.195,9.983 C57.182,11.015 57.17,12.127 57.158,13.316 C57.147,14.487 57.129,15.676 57.106,16.883 C57.081,17.366 57.063,18.131 57.051,19.218 C57.039,20.275 57.015,21.446 56.98,22.73 C56.945,23.985 56.879,25.295 56.785,26.624 C56.706,27.743 56.592,28.752 56.444,29.631 C56.342,29.222 56.255,28.792 56.184,28.343 C56.004,27.201 55.878,26.007 55.809,24.797 C55.739,23.562 55.698,22.334 55.687,21.147 C55.674,19.929 55.668,18.82 55.668,17.818 C55.645,15.842 55.596,13.91 55.523,12.052 C55.447,10.11 55.266,8.397 54.984,6.957 C54.761,5.751 54.383,4.794 53.83,4.056 C53.229,3.256 52.548,2.718 51.803,2.452 C51.424,2.319 51.049,2.252 50.681,2.252 C50.115,2.252 49.562,2.412 49.08,2.712 C48.245,3.233 47.747,4.096 47.678,5.144 C47.627,5.761 47.59,6.535 47.565,7.508 C47.541,8.445 47.516,9.487 47.493,10.631 C47.468,11.763 47.456,13.001 47.456,14.308 C47.456,15.616 47.468,16.907 47.493,18.145 C47.492,18.855 47.51,19.822 47.547,21.063 C47.585,22.297 47.673,23.627 47.809,25.015 C47.945,26.426 48.16,27.87 48.45,29.301 C48.758,30.83 49.218,32.228 49.82,33.458 C50.318,34.453 50.896,35.309 51.547,36.018 C52.308,36.85 53.24,37.448 54.317,37.794 C55.147,38.064 55.95,38.202 56.696,38.202 C57.105,38.202 57.504,38.161 57.884,38.08 C58.948,37.852 59.883,37.394 60.665,36.718 C61.378,36.103 61.982,35.333 62.458,34.429 C62.868,33.651 63.226,32.804 63.522,31.913 C63.913,30.717 64.22,29.502 64.439,28.29 C64.651,27.113 64.821,25.919 64.945,24.741 C65.069,23.567 65.157,22.374 65.206,21.196 L65.245,20.266 L65.351,17.758 L65.353,17.716 L65.353,17.674 C65.353,17.461 65.362,17.021 65.404,16.132 C65.441,15.361 65.472,14.489 65.496,13.511 C65.52,12.513 65.532,11.479 65.532,10.438 C65.532,9.341 65.494,8.285 65.419,7.298 C65.369,6.323 65.267,5.409 65.119,4.63 C64.973,3.859 64.675,2.762 63.778,2.083 C63.237,1.662 62.59,1.44 61.904,1.44 M61.904,3.44 C62.15,3.44 62.368,3.517 62.561,3.67 C62.824,3.862 63.023,4.306 63.154,5.002 C63.286,5.698 63.376,6.514 63.425,7.45 C63.496,8.386 63.532,9.382 63.532,10.438 C63.532,11.494 63.52,12.503 63.496,13.462 C63.473,14.422 63.443,15.28 63.406,16.036 C63.37,16.792 63.353,17.338 63.353,17.674 C63.304,18.826 63.256,19.972 63.208,21.112 C63.16,22.252 63.076,23.393 62.956,24.532 C62.836,25.672 62.674,26.806 62.471,27.934 C62.267,29.063 61.985,30.178 61.624,31.282 C61.361,32.075 61.049,32.812 60.689,33.497 C60.328,34.18 59.884,34.751 59.357,35.206 C58.828,35.663 58.198,35.967 57.467,36.124 C57.223,36.175 56.966,36.202 56.696,36.202 C56.157,36.202 55.568,36.098 54.929,35.89 C54.185,35.651 53.548,35.243 53.021,34.667 C52.492,34.09 52.025,33.394 51.616,32.579 C51.088,31.499 50.686,30.274 50.41,28.906 C50.134,27.538 49.93,26.176 49.799,24.82 C49.666,23.464 49.582,22.192 49.546,21.004 C49.511,19.816 49.492,18.85 49.492,18.106 C49.468,16.858 49.456,15.592 49.456,14.308 C49.456,13.024 49.468,11.812 49.492,10.672 C49.516,9.532 49.54,8.494 49.565,7.558 C49.588,6.622 49.624,5.866 49.673,5.29 C49.696,4.882 49.853,4.588 50.141,4.408 C50.307,4.304 50.487,4.253 50.681,4.253 C50.823,4.253 50.973,4.28 51.131,4.336 C51.502,4.468 51.868,4.774 52.229,5.254 C52.588,5.734 52.853,6.43 53.021,7.342 C53.284,8.687 53.452,10.282 53.525,12.13 C53.597,13.979 53.645,15.874 53.668,17.818 C53.668,18.826 53.674,19.942 53.687,21.166 C53.698,22.39 53.74,23.638 53.813,24.911 C53.885,26.182 54.016,27.43 54.208,28.654 C54.401,29.877 54.7,30.983 55.109,31.965 C55.229,32.302 55.366,32.59 55.523,32.831 C55.678,33.071 55.859,33.239 56.063,33.335 C56.178,33.389 56.299,33.417 56.423,33.417 C56.516,33.417 56.612,33.401 56.71,33.37 C56.939,33.297 57.184,33.118 57.448,32.831 C57.641,32.614 57.809,32.29 57.952,31.858 C58.097,31.426 58.228,30.922 58.349,30.346 C58.54,29.315 58.685,28.12 58.78,26.764 C58.876,25.409 58.943,24.083 58.979,22.786 C59.015,21.49 59.038,20.308 59.051,19.24 C59.063,18.172 59.08,17.41 59.105,16.954 C59.128,15.73 59.147,14.524 59.158,13.336 C59.17,12.148 59.182,11.038 59.195,10.006 C59.206,8.975 59.212,8.044 59.212,7.216 L59.212,5.218 C59.357,4.979 59.567,4.727 59.843,4.462 C60.118,4.198 60.418,3.976 60.742,3.796 C61.067,3.616 61.391,3.503 61.715,3.454 C61.779,3.444 61.842,3.44 61.904,3.44" fill="#8E693F"/>
      <path d="M69.688,38.079 C69.469,38.079 69.268,38.057 69.09,38.014 C68.438,37.89 67.885,37.734 67.446,37.55 C66.904,37.322 66.477,36.998 66.179,36.587 C65.75,36.027 65.518,35.321 65.501,34.506 C65.489,33.909 65.472,33.179 65.448,32.317 C65.399,30.042 65.309,27.617 65.179,25.106 C65.047,22.56 64.92,19.978 64.8,17.36 L64.656,12.92 C64.608,11.495 64.584,10.042 64.584,8.602 C64.584,7.924 64.59,7.258 64.601,6.604 C64.614,5.948 64.632,5.306 64.657,4.675 L64.656,4.498 C64.656,4.194 64.67,3.916 64.698,3.666 C64.737,3.312 64.836,2.996 64.993,2.73 C65.171,2.422 65.451,2.168 65.82,1.984 C66.158,1.816 66.576,1.734 67.095,1.734 C67.39,1.734 67.701,1.812 68.042,1.973 C68.286,2.088 68.528,2.224 68.771,2.379 C69.021,2.541 69.246,2.714 69.444,2.896 C69.66,3.096 69.812,3.263 69.91,3.392 C70.148,3.7 70.35,4.13 70.521,4.698 C70.665,5.189 70.794,5.745 70.905,6.353 C71.017,6.958 71.115,7.613 71.202,8.318 C71.288,9.019 71.355,9.714 71.405,10.402 C71.457,11.018 71.499,11.615 71.533,12.189 C71.942,11.149 72.348,10.109 72.751,9.07 L74.879,3.566 L74.879,3.274 C74.879,2.486 75.11,1.894 75.564,1.516 C75.957,1.188 76.439,1.015 76.959,1.015 C77.388,1.015 77.805,1.105 78.201,1.283 C78.582,1.458 78.865,1.641 79.071,1.848 C79.37,2.193 79.544,2.545 79.642,2.951 C79.72,3.282 79.759,3.656 79.759,4.066 C79.759,4.707 79.674,5.442 79.504,6.251 C79.341,7.027 79.121,7.849 78.847,8.694 C78.758,8.935 78.635,9.247 78.465,9.676 C78.292,10.106 78.084,10.598 77.837,11.151 L76.254,14.729 L75.267,14.488 L76.201,14.849 C76.165,14.939 76.128,15.019 76.094,15.09 C75.706,15.959 75.363,16.759 75.078,17.457 C74.993,17.667 74.925,17.838 74.871,17.976 C75.452,18.443 76.065,19.074 76.727,19.887 C77.58,20.935 78.433,22.084 79.262,23.304 L79.305,23.365 C79.305,23.365 79.484,23.745 79.704,24.222 C79.924,24.697 80.179,25.284 80.473,25.979 C80.762,26.667 81.074,27.419 81.412,28.236 C81.751,29.06 82.065,29.848 82.356,30.597 C82.652,31.362 82.899,32.054 83.096,32.671 C83.328,33.394 83.431,33.877 83.431,34.234 C83.431,34.923 83.167,35.502 82.667,35.909 C82.223,36.272 81.671,36.458 81.028,36.458 C80.292,36.458 79.555,36.204 78.835,35.702 C78.477,35.464 78.156,35.046 77.842,34.4 C77.604,33.914 77.356,33.336 77.106,32.685 C76.861,32.048 76.616,31.361 76.371,30.626 C76.129,29.903 75.9,29.204 75.683,28.528 C75.472,27.872 75.267,27.273 75.068,26.733 C74.845,26.134 74.692,25.839 74.604,25.698 C74.197,25.054 73.799,24.435 73.407,23.84 C73.024,23.262 72.657,22.743 72.315,22.298 C72.251,22.216 72.189,22.136 72.128,22.059 C72.127,22.108 72.127,22.159 72.127,22.21 C72.127,23.096 72.157,24.176 72.216,25.421 C72.276,26.684 72.331,27.967 72.379,29.266 C72.4,29.59 72.448,30.104 72.519,30.783 C72.593,31.515 72.632,32.288 72.632,33.083 C72.632,33.646 72.599,34.196 72.535,34.718 C72.463,35.275 72.342,35.787 72.172,36.241 C71.917,36.793 71.633,37.19 71.295,37.496 C70.869,37.879 70.314,38.079 69.688,38.079" fill="#F7F4E2"/>
      <path d="M76.96,0.014 C76.203,0.014 75.498,0.268 74.923,0.749 C74.448,1.144 73.88,1.904 73.88,3.274 L73.88,3.379 L72.464,7.038 L72.151,7.848 C72.073,7.253 71.985,6.69 71.889,6.17 C71.772,5.53 71.635,4.94 71.481,4.419 C71.273,3.723 71.016,3.186 70.694,2.77 C70.562,2.594 70.378,2.397 70.131,2.167 C69.88,1.938 69.611,1.732 69.319,1.542 C69.035,1.36 68.753,1.202 68.474,1.07 C67.989,0.843 67.541,0.734 67.096,0.734 C66.417,0.734 65.855,0.849 65.377,1.087 C64.826,1.363 64.405,1.749 64.123,2.237 C63.902,2.611 63.758,3.061 63.704,3.562 C63.672,3.844 63.656,4.153 63.656,4.498 L63.656,4.675 C63.632,5.3 63.615,5.935 63.602,6.583 C63.59,7.245 63.584,7.918 63.584,8.602 C63.584,10.053 63.609,11.517 63.657,12.954 C63.705,14.391 63.753,15.867 63.801,17.377 C63.922,20.026 64.048,22.61 64.181,25.158 C64.31,27.659 64.4,30.073 64.449,32.332 C64.472,33.203 64.49,33.932 64.502,34.528 C64.522,35.548 64.819,36.447 65.385,37.195 C65.792,37.746 66.355,38.175 67.06,38.471 C67.555,38.679 68.162,38.852 68.914,38.998 C69.153,39.051 69.414,39.078 69.689,39.078 C70.566,39.078 71.352,38.789 71.96,38.243 C72.403,37.841 72.767,37.337 73.047,36.739 L73.082,36.666 L73.109,36.59 C73.306,36.065 73.446,35.477 73.526,34.844 C73.597,34.278 73.632,33.687 73.632,33.082 C73.632,32.253 73.592,31.446 73.514,30.682 C73.447,30.035 73.4,29.541 73.377,29.2 C73.33,27.909 73.275,26.635 73.216,25.379 C73.395,25.658 73.574,25.94 73.756,26.228 C73.782,26.269 73.909,26.483 74.13,27.08 C74.322,27.6 74.524,28.19 74.731,28.833 C74.949,29.512 75.181,30.216 75.423,30.943 C75.667,31.678 75.92,32.385 76.173,33.044 C76.434,33.721 76.693,34.327 76.946,34.842 C77.338,35.65 77.769,36.193 78.301,36.546 C79.154,37.143 80.085,37.457 81.028,37.457 C81.897,37.457 82.683,37.189 83.304,36.68 C84.029,36.089 84.432,35.219 84.432,34.234 C84.432,33.762 84.317,33.202 84.048,32.364 C83.847,31.732 83.591,31.015 83.289,30.236 C82.996,29.479 82.68,28.686 82.338,27.857 C81.998,27.034 81.685,26.28 81.396,25.592 C81.097,24.883 80.835,24.286 80.612,23.802 C80.389,23.318 80.264,23.05 80.239,23 L80.175,22.865 L80.09,22.74 C79.244,21.497 78.374,20.326 77.504,19.256 C77.004,18.643 76.526,18.123 76.064,17.69 C76.331,17.04 76.648,16.302 77.01,15.493 C77.051,15.408 77.092,15.314 77.133,15.21 L77.156,15.162 L77.171,15.131 C77.434,14.533 77.703,13.922 77.98,13.3 C78.255,12.676 78.512,12.095 78.751,11.557 C79.003,10.991 79.217,10.487 79.394,10.047 C79.568,9.609 79.693,9.29 79.769,9.089 L79.785,9.046 L79.8,9.001 C80.084,8.122 80.314,7.266 80.483,6.457 C80.67,5.566 80.76,4.785 80.76,4.066 C80.76,3.578 80.712,3.126 80.616,2.724 C80.48,2.156 80.234,1.663 79.885,1.255 L79.834,1.195 L79.778,1.14 C79.487,0.848 79.108,0.598 78.62,0.375 C78.088,0.134 77.531,0.014 76.96,0.014 M76.96,2.014 C77.248,2.014 77.523,2.074 77.788,2.194 C78.052,2.314 78.244,2.434 78.364,2.554 C78.508,2.722 78.609,2.932 78.67,3.184 C78.73,3.436 78.76,3.73 78.76,4.066 C78.76,4.642 78.682,5.302 78.526,6.046 C78.37,6.79 78.16,7.57 77.897,8.386 C77.824,8.578 77.704,8.884 77.536,9.304 C77.368,9.724 77.164,10.204 76.924,10.744 C76.684,11.284 76.426,11.866 76.15,12.49 C75.874,13.114 75.604,13.726 75.34,14.326 C75.315,14.374 75.292,14.428 75.268,14.488 C75.244,14.548 75.22,14.602 75.196,14.65 C74.788,15.562 74.44,16.372 74.152,17.08 C73.864,17.788 73.708,18.214 73.684,18.358 C74.356,18.766 75.111,19.486 75.952,20.518 C76.792,21.55 77.62,22.666 78.437,23.866 C78.46,23.914 78.58,24.172 78.796,24.64 C79.012,25.108 79.264,25.684 79.552,26.368 C79.84,27.052 80.151,27.802 80.488,28.618 C80.824,29.434 81.136,30.214 81.424,30.957 C81.712,31.701 81.952,32.374 82.144,32.974 C82.336,33.575 82.432,33.994 82.432,34.234 C82.432,34.618 82.3,34.918 82.036,35.133 C81.772,35.35 81.436,35.457 81.028,35.457 C80.5,35.457 79.96,35.266 79.408,34.881 C79.192,34.738 78.97,34.432 78.742,33.963 C78.514,33.496 78.279,32.95 78.04,32.327 C77.8,31.701 77.56,31.03 77.32,30.31 C77.08,29.59 76.852,28.894 76.636,28.222 C76.42,27.55 76.21,26.938 76.006,26.386 C75.802,25.834 75.615,25.426 75.448,25.162 C75.04,24.514 74.638,23.89 74.242,23.289 C73.846,22.69 73.468,22.156 73.108,21.688 C72.748,21.22 72.418,20.836 72.118,20.536 C71.817,20.236 71.56,20.062 71.344,20.014 C71.248,20.182 71.188,20.452 71.164,20.824 C71.14,21.196 71.128,21.658 71.128,22.209 C71.128,23.122 71.158,24.207 71.218,25.467 C71.277,26.728 71.332,28.006 71.38,29.302 C71.403,29.662 71.452,30.19 71.524,30.886 C71.596,31.582 71.632,32.314 71.632,33.082 C71.632,33.61 71.602,34.114 71.542,34.594 C71.481,35.075 71.38,35.506 71.236,35.89 C71.067,36.25 70.863,36.537 70.624,36.754 C70.384,36.97 70.071,37.078 69.689,37.078 C69.544,37.078 69.424,37.065 69.328,37.041 C68.704,36.921 68.206,36.784 67.834,36.627 C67.462,36.471 67.18,36.262 66.988,35.998 C66.676,35.59 66.514,35.086 66.502,34.486 C66.489,33.886 66.472,33.154 66.448,32.289 C66.399,30.01 66.31,27.598 66.178,25.054 C66.046,22.51 65.92,19.93 65.8,17.314 C65.752,15.802 65.704,14.326 65.656,12.886 C65.607,11.446 65.584,10.018 65.584,8.602 C65.584,7.93 65.59,7.27 65.602,6.622 C65.614,5.974 65.632,5.338 65.656,4.714 L65.656,4.498 C65.656,4.234 65.668,3.994 65.692,3.778 C65.716,3.562 65.77,3.382 65.855,3.238 C65.938,3.094 66.075,2.974 66.268,2.878 C66.46,2.782 66.736,2.734 67.096,2.734 C67.24,2.734 67.414,2.782 67.618,2.878 C67.821,2.974 68.025,3.088 68.231,3.22 C68.434,3.352 68.613,3.49 68.771,3.634 C68.926,3.778 69.04,3.898 69.112,3.994 C69.279,4.21 69.43,4.54 69.563,4.984 C69.693,5.428 69.814,5.944 69.922,6.532 C70.03,7.12 70.126,7.756 70.21,8.44 C70.294,9.124 70.359,9.802 70.408,10.474 C70.481,11.338 70.534,12.154 70.57,12.922 C70.606,13.69 70.636,14.314 70.66,14.794 C70.66,15.034 70.672,15.208 70.696,15.316 C70.72,15.424 70.75,15.496 70.786,15.532 C70.822,15.568 70.858,15.586 70.894,15.586 C70.93,15.586 70.972,15.598 71.021,15.622 C71.212,15.502 71.308,15.406 71.308,15.334 C71.308,15.262 71.392,15.094 71.56,14.83 C72.28,13.03 72.987,11.23 73.684,9.43 C74.38,7.63 75.075,5.83 75.773,4.03 C75.82,3.958 75.85,3.91 75.862,3.886 C75.874,3.862 75.88,3.814 75.88,3.742 L75.88,3.526 L75.88,3.274 C75.88,2.794 75.988,2.464 76.204,2.284 C76.42,2.104 76.672,2.014 76.96,2.014" fill="#8E693F"/>
      <path d="M90.604,37.538 C89.874,37.538 89.171,37.28 88.514,36.77 C87.8,36.218 87.405,35.41 87.338,34.371 C87.265,33.224 87.182,32.079 87.088,30.934 C86.991,29.777 86.9,28.584 86.815,27.354 C86.731,26.129 86.647,24.837 86.563,23.478 C86.479,22.118 86.4,20.654 86.329,19.088 C86.28,17.926 86.243,16.791 86.219,15.68 C86.195,14.569 86.183,13.482 86.183,12.418 C86.183,11.111 86.201,9.877 86.237,8.715 C86.261,7.944 86.304,7.197 86.368,6.483 C86.345,6.484 86.324,6.486 86.301,6.487 C86.069,6.5 85.845,6.506 85.635,6.506 C85.049,6.506 84.563,6.445 84.152,6.318 C83.463,6.147 82.89,5.869 82.453,5.481 C81.917,5.009 81.647,4.484 81.647,3.922 C81.647,3.489 81.822,2.448 83.438,2.147 C84.528,1.994 85.552,1.888 86.526,1.827 C87.465,1.767 88.457,1.69 89.505,1.594 L90.748,1.503 C91.274,1.465 91.826,1.446 92.403,1.446 C93.029,1.446 93.647,1.478 94.24,1.542 C94.973,1.622 95.53,1.806 95.942,2.105 C96.84,2.67 97.04,3.428 97.04,3.958 C97.04,4.496 96.826,5.48 95.396,6.041 C94.955,6.218 94.486,6.331 94.008,6.376 C93.594,6.415 93.167,6.434 92.728,6.434 L92.152,6.434 C92.368,10.736 92.543,14.912 92.682,18.9 C92.73,20.967 92.839,23.123 93.005,25.321 C93.174,27.568 93.259,29.804 93.259,31.966 C93.259,33.088 93.222,34.19 93.149,35.241 C93.049,36.184 92.617,36.704 92.269,36.979 C91.801,37.351 91.242,37.538 90.604,37.538" fill="#F7F4E2"/>
      <path d="M92.403,0.446 C91.806,0.446 91.225,0.466 90.676,0.506 L89.445,0.595 C88.381,0.692 87.387,0.77 86.463,0.828 C85.465,0.892 84.415,1 83.343,1.149 L83.299,1.155 L83.254,1.164 C81.332,1.521 80.647,2.823 80.647,3.922 C80.647,4.514 80.845,5.395 81.791,6.231 C82.333,6.71 83.047,7.067 83.913,7.29 C84.32,7.409 84.773,7.479 85.291,7.499 C85.268,7.887 85.251,8.282 85.238,8.684 C85.202,9.841 85.183,11.097 85.183,12.418 C85.183,13.499 85.196,14.604 85.22,15.703 C85.244,16.813 85.28,17.966 85.33,19.127 C85.4,20.678 85.479,22.161 85.565,23.541 C85.649,24.9 85.734,26.195 85.818,27.423 C85.903,28.658 85.993,29.855 86.091,31.017 C86.185,32.151 86.268,33.3 86.34,34.431 C86.447,36.101 87.249,37.055 87.903,37.561 C88.737,38.209 89.646,38.538 90.603,38.538 C91.461,38.538 92.251,38.27 92.89,37.762 C93.387,37.368 94.008,36.634 94.14,35.38 L94.144,35.345 L94.146,35.31 C94.221,34.236 94.259,33.111 94.259,31.966 C94.259,29.779 94.173,27.518 94.002,25.246 C93.837,23.065 93.729,20.926 93.682,18.888 C93.554,15.186 93.393,11.342 93.203,7.427 C93.508,7.418 93.809,7.399 94.103,7.371 C94.674,7.318 95.238,7.182 95.775,6.967 C97.818,6.165 98.04,4.595 98.04,3.958 C98.04,3.326 97.835,2.14 96.472,1.255 C95.924,0.875 95.228,0.644 94.348,0.548 C93.718,0.48 93.065,0.446 92.403,0.446 M92.403,2.446 C93.003,2.446 93.579,2.477 94.132,2.536 C94.683,2.596 95.091,2.722 95.355,2.914 C95.811,3.202 96.04,3.55 96.04,3.958 C96.04,4.462 95.703,4.846 95.031,5.11 C94.672,5.254 94.299,5.344 93.916,5.38 C93.531,5.416 93.135,5.434 92.727,5.434 L91.828,5.434 L91.378,5.434 C91.221,5.434 91.083,5.446 90.964,5.47 C90.987,5.686 91.017,5.812 91.053,5.848 C91.09,5.884 91.119,6.023 91.143,6.262 C91.359,10.582 91.54,14.806 91.683,18.934 C91.731,21.022 91.84,23.176 92.007,25.396 C92.174,27.616 92.259,29.806 92.259,31.966 C92.259,33.071 92.223,34.138 92.151,35.171 C92.103,35.626 91.935,35.967 91.647,36.196 C91.359,36.425 91.011,36.538 90.603,36.538 C90.099,36.538 89.607,36.352 89.128,35.98 C88.647,35.608 88.383,35.05 88.336,34.306 C88.263,33.154 88.179,32.003 88.084,30.85 C87.987,29.698 87.897,28.51 87.813,27.286 C87.729,26.062 87.645,24.772 87.561,23.417 C87.477,22.061 87.399,20.603 87.328,19.042 C87.279,17.89 87.243,16.762 87.219,15.658 C87.195,14.554 87.183,13.475 87.183,12.418 C87.183,11.122 87.201,9.898 87.237,8.746 C87.273,7.594 87.351,6.514 87.471,5.506 C87.375,5.506 87.285,5.501 87.201,5.488 C87.117,5.476 87.015,5.47 86.895,5.47 C86.679,5.47 86.464,5.476 86.248,5.488 C86.031,5.501 85.827,5.506 85.635,5.506 C85.155,5.506 84.758,5.458 84.447,5.362 C83.872,5.218 83.427,5.008 83.115,4.732 C82.803,4.457 82.647,4.187 82.647,3.922 C82.647,3.514 82.971,3.251 83.62,3.13 C84.651,2.986 85.641,2.884 86.59,2.824 C87.537,2.764 88.539,2.686 89.595,2.59 C89.907,2.567 90.315,2.536 90.819,2.5 C91.323,2.464 91.851,2.446 92.403,2.446" fill="#8E693F"/>
      <path d="M104.646,37.202 C104.005,37.202 103.307,37.081 102.571,36.842 C101.665,36.551 100.877,36.046 100.234,35.342 C99.647,34.702 99.122,33.923 98.672,33.026 C98.105,31.866 97.671,30.549 97.38,29.103 C97.098,27.705 96.887,26.296 96.754,24.916 C96.621,23.552 96.535,22.245 96.497,21.035 C96.461,19.834 96.443,18.858 96.443,18.106 C96.418,16.872 96.407,15.599 96.407,14.308 C96.407,13.017 96.418,11.798 96.443,10.651 C96.466,9.51 96.491,8.47 96.515,7.533 C96.54,6.582 96.577,5.799 96.627,5.206 C96.667,4.505 97,3.911 97.562,3.56 C97.888,3.356 98.248,3.253 98.632,3.253 C98.886,3.253 99.15,3.3 99.414,3.393 C99.983,3.596 100.494,4.008 100.979,4.654 C101.438,5.267 101.757,6.087 101.955,7.161 C102.225,8.539 102.401,10.201 102.474,12.091 C102.546,13.94 102.595,15.863 102.619,17.806 C102.619,18.824 102.625,19.936 102.637,21.156 C102.649,22.359 102.691,23.603 102.761,24.854 C102.833,26.098 102.961,27.323 103.147,28.499 C103.327,29.642 103.608,30.68 103.983,31.582 C104.094,31.892 104.199,32.113 104.312,32.286 C104.355,32.352 104.389,32.39 104.411,32.409 C104.421,32.38 104.516,32.313 104.664,32.153 C104.697,32.115 104.818,31.951 104.954,31.543 C105.083,31.158 105.206,30.687 105.321,30.14 C105.5,29.17 105.641,28.002 105.734,26.694 C105.829,25.351 105.894,24.027 105.929,22.758 C105.965,21.469 105.989,20.292 106.001,19.229 C106.013,18.142 106.032,17.366 106.056,16.901 C106.079,15.714 106.097,14.512 106.109,13.327 L106.146,9.994 C106.157,8.968 106.163,8.041 106.163,7.216 L106.163,4.939 L106.307,4.701 C106.5,4.383 106.759,4.068 107.102,3.74 C107.438,3.418 107.81,3.143 108.208,2.922 C108.635,2.685 109.077,2.531 109.518,2.465 C109.633,2.448 109.746,2.44 109.854,2.44 C110.326,2.44 110.768,2.595 111.135,2.889 C111.588,3.219 111.903,3.839 112.087,4.816 C112.227,5.551 112.323,6.42 112.375,7.398 C112.446,8.336 112.483,9.367 112.483,10.438 C112.483,11.503 112.47,12.519 112.447,13.487 C112.422,14.456 112.392,15.321 112.356,16.084 C112.321,16.818 112.303,17.348 112.303,17.674 L112.158,21.154 C112.109,22.311 112.023,23.483 111.901,24.637 C111.78,25.791 111.613,26.96 111.406,28.111 C111.195,29.279 110.898,30.45 110.525,31.593 C110.245,32.437 109.908,33.233 109.524,33.963 C109.106,34.756 108.581,35.429 107.96,35.963 C107.309,36.527 106.523,36.91 105.626,37.101 C105.315,37.169 104.985,37.202 104.646,37.202" fill="#F7F4E2"/>
      <path d="M109.854,1.44 C109.696,1.44 109.535,1.452 109.373,1.476 C108.81,1.56 108.255,1.752 107.723,2.046 C107.25,2.31 106.808,2.636 106.411,3.017 C106.003,3.407 105.689,3.789 105.451,4.184 L105.163,4.661 L105.163,5.218 L105.163,7.216 C105.163,8.037 105.157,8.961 105.146,9.983 C105.132,11.015 105.121,12.127 105.109,13.316 C105.097,14.487 105.08,15.676 105.056,16.883 C105.032,17.366 105.013,18.131 105.001,19.218 C104.989,20.275 104.965,21.446 104.93,22.73 C104.896,23.985 104.83,25.295 104.736,26.624 C104.657,27.743 104.542,28.752 104.396,29.631 C104.292,29.222 104.205,28.792 104.134,28.343 C103.955,27.201 103.829,26.007 103.76,24.797 C103.69,23.562 103.649,22.334 103.637,21.147 C103.625,19.929 103.619,18.82 103.619,17.818 C103.595,15.842 103.546,13.91 103.473,12.052 C103.398,10.11 103.216,8.397 102.934,6.957 C102.711,5.751 102.333,4.794 101.781,4.056 C101.18,3.256 100.499,2.718 99.753,2.452 C99.375,2.319 99,2.252 98.632,2.252 C98.066,2.252 97.512,2.412 97.031,2.712 C96.196,3.233 95.698,4.096 95.628,5.144 C95.577,5.761 95.541,6.535 95.516,7.508 C95.493,8.445 95.467,9.487 95.443,10.631 C95.419,11.763 95.407,13.001 95.407,14.308 C95.407,15.616 95.419,16.907 95.443,18.145 C95.443,18.855 95.46,19.822 95.498,21.063 C95.535,22.297 95.623,23.627 95.759,25.015 C95.896,26.426 96.111,27.87 96.401,29.301 C96.708,30.83 97.168,32.228 97.771,33.458 C98.269,34.453 98.847,35.309 99.498,36.018 C100.258,36.85 101.191,37.448 102.267,37.794 C103.098,38.064 103.9,38.202 104.646,38.202 C105.055,38.202 105.455,38.161 105.834,38.08 C106.899,37.852 107.834,37.394 108.616,36.718 C109.329,36.103 109.932,35.333 110.41,34.429 C110.818,33.651 111.176,32.804 111.472,31.913 C111.863,30.717 112.17,29.502 112.389,28.29 C112.601,27.113 112.772,25.919 112.896,24.741 C113.021,23.567 113.108,22.374 113.157,21.196 L113.196,20.266 L113.301,17.758 L113.303,17.716 L113.303,17.674 C113.303,17.461 113.312,17.021 113.355,16.132 C113.391,15.361 113.422,14.489 113.446,13.511 C113.47,12.513 113.483,11.479 113.483,10.438 C113.483,9.341 113.445,8.285 113.37,7.298 C113.32,6.323 113.217,5.409 113.07,4.63 C112.924,3.859 112.626,2.762 111.729,2.083 C111.188,1.662 110.541,1.44 109.854,1.44 M109.854,3.44 C110.1,3.44 110.319,3.517 110.511,3.67 C110.775,3.862 110.973,4.306 111.105,5.002 C111.237,5.698 111.327,6.514 111.375,7.45 C111.447,8.386 111.483,9.382 111.483,10.438 C111.483,11.494 111.47,12.503 111.447,13.462 C111.424,14.422 111.393,15.28 111.357,16.036 C111.321,16.792 111.303,17.338 111.303,17.674 C111.254,18.826 111.207,19.972 111.16,21.112 C111.111,22.252 111.027,23.393 110.907,24.532 C110.787,25.672 110.625,26.806 110.421,27.934 C110.217,29.063 109.935,30.178 109.576,31.282 C109.312,32.075 109,32.812 108.639,33.497 C108.279,34.18 107.834,34.751 107.307,35.206 C106.779,35.663 106.149,35.967 105.417,36.124 C105.174,36.175 104.917,36.202 104.646,36.202 C104.108,36.202 103.518,36.098 102.879,35.89 C102.135,35.651 101.499,35.243 100.971,34.667 C100.443,34.09 99.975,33.394 99.567,32.579 C99.039,31.499 98.636,30.274 98.361,28.906 C98.084,27.538 97.88,26.176 97.75,24.82 C97.618,23.464 97.533,22.192 97.497,21.004 C97.461,19.816 97.443,18.85 97.443,18.106 C97.418,16.858 97.407,15.592 97.407,14.308 C97.407,13.024 97.418,11.812 97.443,10.672 C97.466,9.532 97.491,8.494 97.515,7.558 C97.539,6.622 97.576,5.866 97.624,5.29 C97.647,4.882 97.803,4.588 98.091,4.408 C98.257,4.304 98.438,4.253 98.632,4.253 C98.774,4.253 98.924,4.28 99.082,4.336 C99.453,4.468 99.819,4.774 100.179,5.254 C100.539,5.734 100.803,6.43 100.971,7.342 C101.235,8.687 101.403,10.282 101.475,12.13 C101.547,13.979 101.595,15.874 101.619,17.818 C101.619,18.826 101.625,19.942 101.637,21.166 C101.649,22.39 101.691,23.638 101.763,24.911 C101.835,26.182 101.966,27.43 102.16,28.654 C102.351,29.877 102.651,30.983 103.059,31.965 C103.179,32.302 103.317,32.59 103.473,32.831 C103.628,33.071 103.809,33.239 104.013,33.335 C104.128,33.389 104.25,33.417 104.374,33.417 C104.467,33.417 104.563,33.401 104.661,33.37 C104.889,33.297 105.134,33.118 105.399,32.831 C105.591,32.614 105.759,32.29 105.903,31.858 C106.047,31.426 106.178,30.922 106.299,30.346 C106.491,29.315 106.635,28.12 106.731,26.764 C106.827,25.409 106.893,24.083 106.929,22.786 C106.965,21.49 106.989,20.308 107.001,19.24 C107.013,18.172 107.031,17.41 107.055,16.954 C107.079,15.73 107.097,14.524 107.109,13.336 C107.121,12.148 107.132,11.038 107.146,10.006 C107.157,8.975 107.163,8.044 107.163,7.216 L107.163,5.218 C107.307,4.979 107.517,4.727 107.793,4.462 C108.069,4.198 108.369,3.976 108.693,3.796 C109.017,3.616 109.341,3.503 109.666,3.454 C109.73,3.444 109.793,3.44 109.854,3.44" fill="#8E693F"/>
      <path d="M119.521,7.847 C119.556,8.529 119.597,9.283 119.646,10.109 C119.695,10.942 119.737,11.737 119.773,12.496 C119.808,13.227 119.841,13.879 119.876,14.452 C119.916,14.425 119.954,14.395 119.993,14.365 C120.37,14.053 120.701,13.641 120.977,13.141 C121.265,12.616 121.486,12.019 121.632,11.369 C121.783,10.706 121.853,10.047 121.841,9.41 C121.832,8.79 121.744,8.205 121.58,7.671 C121.442,7.223 121.243,6.889 120.973,6.651 C120.667,6.4 120.2,6.135 119.61,5.888 C119.544,5.86 119.479,5.834 119.414,5.809 C119.418,5.903 119.521,7.847 119.521,7.847 M117.299,40.848 C116.669,40.848 116.128,40.673 115.69,40.329 C115.167,39.922 114.765,39.369 114.496,38.687 C114.261,38.094 114.102,37.448 114.019,36.766 C113.944,36.138 113.894,35.602 113.87,35.153 C113.798,34.176 113.737,33.037 113.689,31.75 L113.544,27.863 C113.496,26.534 113.465,25.215 113.454,23.91 C113.441,22.62 113.424,21.461 113.4,20.432 C113.375,19.392 113.364,18.533 113.364,17.854 L113.364,16.666 C113.34,15.581 113.322,14.497 113.311,13.437 L113.274,10.487 C113.261,9.571 113.256,8.739 113.256,7.99 L113.256,5.524 C113.256,5.342 113.265,5.184 113.284,5.051 C113.302,4.892 113.344,4.721 113.407,4.551 C113.412,4.535 113.417,4.52 113.424,4.504 C113.218,4.124 113.104,3.766 113.079,3.421 C113.021,2.673 113.32,2.183 113.582,1.905 C113.898,1.567 114.348,1.329 114.917,1.201 C115.346,1.104 115.846,1.042 116.404,1.015 C116.617,1.005 116.831,1 117.049,1 C117.91,1 118.82,1.082 119.755,1.244 C120.952,1.453 122.082,1.824 123.113,2.345 C124.168,2.88 125.096,3.592 125.874,4.462 C126.699,5.386 127.216,6.524 127.413,7.843 C127.624,9.294 127.568,10.64 127.246,11.847 C126.927,13.042 126.431,14.105 125.772,15.006 C125.125,15.891 124.368,16.65 123.516,17.262 C123.007,17.628 122.491,17.945 121.972,18.207 C122.924,20.196 123.914,22.203 124.922,24.187 C126.069,26.447 127.229,28.784 128.367,31.133 L128.411,31.237 C128.549,31.63 128.723,32.074 128.93,32.57 C129.16,33.118 129.356,33.679 129.51,34.236 C129.675,34.823 129.766,35.394 129.783,35.933 C129.805,36.879 129.412,37.441 129.078,37.745 C128.602,38.182 128.085,38.405 127.541,38.405 L127.389,38.399 C126.887,38.36 126.417,38.179 125.991,37.864 C125.634,37.601 125.313,37.272 125.037,36.888 C124.801,36.562 124.606,36.269 124.451,36.007 C123.862,34.962 123.285,33.673 122.715,32.155 C122.161,30.673 121.613,29.167 121.072,27.637 C120.769,26.781 120.471,25.955 120.183,25.162 C120.185,25.196 120.229,26.317 120.243,26.752 C120.253,27.201 120.259,27.487 120.259,27.61 C120.236,28.621 120.248,29.777 120.294,31.066 C120.343,32.392 120.38,33.681 120.404,34.934 C120.404,35.359 120.426,35.798 120.471,36.261 C120.526,36.835 120.519,37.401 120.451,37.942 C120.373,38.544 120.188,39.092 119.901,39.572 C119.542,40.173 118.952,40.571 118.149,40.753 C117.839,40.818 117.56,40.848 117.299,40.848" fill="#F7F4E2"/>
      <path d="M120.696,10.966 C120.679,10.667 120.663,10.362 120.645,10.052 C120.596,9.226 120.555,8.474 120.519,7.794 L120.513,7.681 C120.554,7.764 120.592,7.86 120.625,7.967 C120.759,8.408 120.834,8.9 120.842,9.426 C120.85,9.925 120.8,10.442 120.696,10.966 M117.049,0 C116.815,0 116.584,0.005 116.355,0.016 C115.741,0.045 115.183,0.115 114.699,0.224 C113.928,0.399 113.307,0.735 112.85,1.222 C112.288,1.822 112.014,2.632 112.082,3.502 C112.109,3.858 112.199,4.217 112.353,4.584 C112.325,4.703 112.303,4.821 112.289,4.939 C112.267,5.103 112.256,5.3 112.256,5.524 L112.256,6.118 L112.256,7.99 C112.256,8.742 112.261,9.579 112.274,10.502 L112.306,13.073 L112.31,13.449 C112.322,14.511 112.34,15.599 112.365,16.71 L112.364,17.854 C112.364,18.538 112.376,19.406 112.401,20.457 C112.424,21.48 112.441,22.635 112.454,23.921 C112.466,25.216 112.496,26.555 112.545,27.899 C112.592,29.22 112.64,30.517 112.689,31.79 C112.738,33.086 112.8,34.248 112.873,35.244 C112.896,35.669 112.947,36.217 113.025,36.881 C113.118,37.653 113.3,38.382 113.565,39.055 C113.901,39.904 114.411,40.6 115.079,41.121 C115.682,41.595 116.452,41.848 117.299,41.848 C117.628,41.848 117.975,41.81 118.334,41.736 C119.716,41.422 120.412,40.666 120.759,40.085 C121.118,39.487 121.347,38.808 121.442,38.069 C121.52,37.453 121.529,36.815 121.467,36.168 C121.425,35.734 121.404,35.326 121.404,34.953 C121.381,33.718 121.346,32.484 121.301,31.219 C121.461,31.651 121.62,32.08 121.779,32.505 C122.365,34.071 122.966,35.407 123.564,36.474 L123.578,36.497 L123.592,36.521 C123.763,36.808 123.97,37.119 124.226,37.474 C124.562,37.941 124.957,38.343 125.397,38.668 C125.974,39.096 126.619,39.341 127.311,39.396 C127.387,39.402 127.464,39.404 127.541,39.404 C128.092,39.404 128.925,39.243 129.758,38.479 C130.24,38.039 130.815,37.231 130.781,35.909 C130.763,35.284 130.66,34.631 130.473,33.964 C130.308,33.37 130.098,32.77 129.851,32.182 C129.652,31.704 129.484,31.274 129.353,30.903 L129.316,30.798 L129.267,30.697 C128.126,28.342 126.964,25.999 125.813,23.735 C124.952,22.037 124.103,20.324 123.28,18.619 C123.554,18.451 123.828,18.269 124.099,18.074 C125.037,17.4 125.871,16.567 126.58,15.596 C127.312,14.595 127.862,13.42 128.213,12.105 C128.569,10.766 128.633,9.285 128.403,7.701 C128.176,6.18 127.577,4.868 126.62,3.796 C125.759,2.832 124.732,2.044 123.566,1.453 C122.444,0.886 121.22,0.485 119.927,0.259 C118.935,0.087 117.967,0 117.049,0 M118.972,15.766 C119.595,15.742 120.147,15.532 120.628,15.136 C121.108,14.74 121.515,14.236 121.852,13.624 C122.188,13.012 122.44,12.334 122.608,11.59 C122.775,10.846 122.853,10.113 122.842,9.394 C122.83,8.674 122.727,8.002 122.536,7.378 C122.343,6.754 122.044,6.262 121.635,5.902 C121.227,5.566 120.682,5.254 119.998,4.966 C119.314,4.678 118.624,4.51 117.927,4.462 C118.048,4.63 118.149,4.774 118.234,4.894 C118.318,5.014 118.372,5.206 118.396,5.47 C118.396,5.494 118.408,5.734 118.432,6.19 C118.456,6.646 118.486,7.216 118.522,7.9 C118.558,8.584 118.599,9.34 118.648,10.168 C118.696,10.996 118.738,11.788 118.774,12.544 C118.81,13.299 118.845,13.972 118.882,14.56 C118.918,15.148 118.948,15.549 118.972,15.766 M117.049,2 C117.855,2 118.701,2.076 119.584,2.23 C120.687,2.422 121.714,2.758 122.662,3.237 C123.61,3.718 124.431,4.348 125.128,5.128 C125.824,5.908 126.256,6.862 126.424,7.99 C126.616,9.31 126.568,10.509 126.28,11.59 C125.992,12.67 125.553,13.612 124.966,14.416 C124.378,15.22 123.7,15.898 122.932,16.45 C122.164,17.002 121.396,17.422 120.628,17.71 C121.731,20.038 122.866,22.348 124.03,24.64 C125.194,26.932 126.34,29.242 127.467,31.57 C127.612,31.979 127.792,32.44 128.008,32.955 C128.224,33.472 128.404,33.988 128.548,34.504 C128.692,35.02 128.769,35.506 128.782,35.961 C128.794,36.417 128.668,36.766 128.404,37.006 C128.116,37.271 127.829,37.404 127.541,37.404 C127.516,37.404 127.492,37.403 127.467,37.402 C127.156,37.377 126.861,37.264 126.586,37.06 C126.309,36.856 126.064,36.604 125.848,36.304 C125.632,36.003 125.452,35.735 125.308,35.494 C124.756,34.51 124.204,33.279 123.652,31.804 C123.099,30.328 122.553,28.828 122.014,27.304 C121.474,25.779 120.958,24.358 120.466,23.037 C119.973,21.718 119.524,20.722 119.116,20.049 L119.152,19.905 C119.103,19.954 119.074,20.158 119.062,20.518 C119.05,20.878 119.05,21.322 119.062,21.85 C119.074,22.378 119.092,22.947 119.116,23.56 C119.139,24.172 119.164,24.754 119.188,25.306 C119.212,25.858 119.229,26.35 119.242,26.781 C119.254,27.213 119.259,27.49 119.259,27.61 C119.236,28.617 119.248,29.781 119.296,31.102 C119.343,32.422 119.38,33.706 119.404,34.953 C119.404,35.386 119.427,35.854 119.476,36.358 C119.524,36.862 119.517,37.348 119.458,37.816 C119.398,38.283 119.259,38.697 119.044,39.058 C118.828,39.418 118.456,39.657 117.927,39.778 C117.702,39.824 117.492,39.848 117.299,39.848 C116.897,39.848 116.567,39.746 116.308,39.543 C115.924,39.243 115.63,38.836 115.425,38.32 C115.221,37.803 115.084,37.245 115.011,36.646 C114.94,36.045 114.891,35.529 114.868,35.098 C114.796,34.113 114.736,32.987 114.688,31.713 C114.639,30.442 114.592,29.146 114.544,27.826 C114.496,26.506 114.466,25.197 114.454,23.902 C114.441,22.606 114.424,21.442 114.4,20.41 C114.376,19.378 114.364,18.526 114.364,17.854 L114.364,16.666 C114.34,15.562 114.322,14.482 114.31,13.425 C114.298,12.37 114.286,11.386 114.274,10.474 C114.261,9.562 114.256,8.734 114.256,7.99 L114.256,6.118 L114.256,5.524 C114.256,5.392 114.261,5.278 114.274,5.182 C114.286,5.086 114.31,4.99 114.345,4.894 C114.382,4.798 114.46,4.654 114.58,4.462 C114.267,4.029 114.099,3.658 114.076,3.346 C114.051,3.034 114.13,2.782 114.31,2.59 C114.49,2.398 114.765,2.26 115.138,2.175 C115.509,2.092 115.948,2.038 116.452,2.014 C116.648,2.004 116.847,2 117.049,2" fill="#8E693F"/>
      <path d="M137.719,35.558 C137.528,35.558 137.3,35.53 136.981,35.467 C136.205,35.313 135.576,35.033 135.109,34.634 C134.651,34.246 134.301,33.767 134.072,33.213 C133.984,32.995 133.924,32.703 133.87,31.829 C133.833,31.238 133.796,30.523 133.76,29.688 C133.724,28.85 133.698,27.946 133.687,26.973 L133.651,24.204 C133.651,24.204 133.6,20.949 133.598,20.658 L133.261,20.183 C133.025,19.852 132.83,19.472 132.682,19.052 C132.571,18.698 132.443,18.265 132.285,17.716 C132.285,17.716 130.209,10.662 130.053,10.121 L129.674,8.803 C129.589,8.487 129.507,8.246 129.425,8.073 C129.255,7.717 129.168,7.36 129.168,7.018 C129.168,6.48 129.412,5.963 129.893,5.483 L130.007,5.368 L130.153,5.295 C130.579,5.082 130.996,4.974 131.392,4.974 C131.926,4.974 132.414,5.14 132.843,5.467 C133.194,5.734 133.492,6.065 133.735,6.453 C133.947,6.793 134.132,7.162 134.284,7.553 C134.424,7.907 134.544,8.235 134.645,8.538 C134.791,8.976 134.937,9.433 135.083,9.909 C135.233,10.393 135.363,10.852 135.474,11.286 L135.765,12.425 C135.822,12.65 135.868,12.826 135.907,12.955 C136.137,12.229 136.386,11.49 136.651,10.749 C137.003,9.761 137.362,8.783 137.726,7.817 C138.096,6.834 138.474,5.955 138.849,5.204 C139.673,3.869 140.667,3.606 141.364,3.606 C141.944,3.606 142.781,3.81 143.474,4.781 C143.698,5.131 143.865,5.438 144.002,5.739 C144.181,6.134 144.272,6.576 144.272,7.054 C144.272,7.288 144.241,7.517 144.182,7.733 L144.054,8.193 C143.696,9.266 143.291,10.388 142.837,11.57 C142.385,12.748 141.957,13.92 141.552,15.086 C141.317,15.768 141.122,16.357 140.97,16.852 C140.801,17.396 140.573,17.982 140.293,18.594 C140.096,19.008 139.963,19.542 139.892,20.195 C139.812,20.924 139.772,21.735 139.772,22.606 C139.772,23.387 139.795,24.197 139.842,25.014 C139.89,25.862 139.944,26.683 140.003,27.481 C140.063,28.288 140.117,29.059 140.166,29.793 C140.216,30.552 140.24,31.204 140.24,31.75 L140.24,31.965 C140.212,32.799 140.082,33.518 139.852,34.133 C139.515,35.038 138.738,35.558 137.719,35.558" fill="#F7F4E2"/>
      <path d="M141.363,2.606 C140.586,2.606 139.12,2.864 138.045,4.594 L137.995,4.673 L137.953,4.757 C137.563,5.539 137.172,6.45 136.789,7.465 C136.529,8.153 136.272,8.848 136.018,9.549 C135.876,9.087 135.734,8.645 135.592,8.22 C135.487,7.905 135.361,7.56 135.216,7.188 C135.04,6.741 134.827,6.315 134.583,5.923 C134.277,5.434 133.896,5.013 133.451,4.672 C132.85,4.215 132.138,3.974 131.391,3.974 C130.839,3.974 130.271,4.118 129.705,4.401 L129.415,4.546 L129.185,4.776 C128.344,5.617 128.168,6.46 128.168,7.018 C128.168,7.51 128.288,8.012 128.524,8.508 C128.551,8.566 128.618,8.728 128.704,9.049 C128.808,9.416 128.935,9.856 129.092,10.4 C129.248,10.942 129.424,11.542 129.618,12.195 C129.809,12.841 130.007,13.511 130.211,14.205 C130.414,14.901 130.613,15.576 130.806,16.227 C130.996,16.87 131.169,17.461 131.326,17.999 C131.484,18.55 131.614,18.989 131.714,19.311 L131.725,19.348 L131.738,19.385 C131.919,19.894 132.156,20.357 132.445,20.761 C132.498,20.835 132.55,20.908 132.6,20.98 C132.603,21.223 132.607,21.512 132.613,21.848 C132.626,22.544 132.637,23.334 132.65,24.218 L132.667,25.477 L132.686,26.988 C132.698,27.952 132.723,28.876 132.76,29.731 C132.798,30.575 132.834,31.295 132.872,31.894 C132.927,32.793 132.995,33.218 133.14,33.579 C133.437,34.298 133.881,34.905 134.465,35.4 C135.058,35.906 135.841,36.26 136.784,36.448 C137.172,36.524 137.46,36.558 137.718,36.558 C139.157,36.558 140.304,35.782 140.789,34.482 C141.056,33.766 141.208,32.941 141.238,32.033 L141.239,31.999 L141.239,31.965 L141.239,31.751 C141.239,31.176 141.214,30.497 141.164,29.729 C141.114,28.991 141.06,28.217 141,27.409 C140.94,26.615 140.887,25.799 140.841,24.96 C140.795,24.159 140.771,23.368 140.771,22.606 C140.771,21.771 140.809,20.996 140.885,20.303 C140.959,19.63 141.092,19.244 141.189,19.039 C141.5,18.359 141.743,17.733 141.924,17.15 C142.075,16.661 142.266,16.082 142.498,15.41 C142.901,14.249 143.33,13.076 143.77,11.929 C144.229,10.733 144.639,9.597 144.988,8.552 L145.003,8.51 L145.014,8.467 C145.065,8.292 145.109,8.134 145.147,7.995 C145.229,7.696 145.271,7.378 145.271,7.054 C145.271,6.432 145.15,5.851 144.913,5.327 C144.756,4.981 144.565,4.633 144.347,4.29 L144.318,4.245 L144.287,4.201 C143.553,3.172 142.515,2.606 141.363,2.606 M141.363,4.606 C141.867,4.606 142.3,4.858 142.659,5.362 C142.827,5.627 142.971,5.89 143.092,6.154 C143.212,6.419 143.271,6.718 143.271,7.054 C143.271,7.198 143.254,7.336 143.217,7.468 C143.181,7.6 143.139,7.751 143.092,7.918 C142.755,8.926 142.359,10.024 141.903,11.212 C141.447,12.4 141.015,13.583 140.607,14.758 C140.367,15.455 140.169,16.054 140.013,16.558 C139.857,17.062 139.647,17.602 139.384,18.178 C139.143,18.682 138.981,19.318 138.897,20.086 C138.813,20.855 138.771,21.694 138.771,22.606 C138.771,23.398 138.795,24.22 138.843,25.072 C138.891,25.924 138.945,26.752 139.006,27.556 C139.065,28.36 139.119,29.128 139.168,29.86 C139.216,30.592 139.239,31.222 139.239,31.751 L139.239,31.965 C139.216,32.663 139.107,33.268 138.915,33.784 C138.722,34.3 138.324,34.558 137.718,34.558 C137.596,34.558 137.416,34.534 137.174,34.486 C136.569,34.366 136.096,34.163 135.758,33.874 C135.419,33.586 135.164,33.239 134.995,32.831 C134.946,32.71 134.904,32.356 134.868,31.768 C134.831,31.18 134.795,30.472 134.759,29.644 C134.722,28.816 134.698,27.922 134.686,26.961 C134.674,26.002 134.662,25.079 134.65,24.19 C134.637,23.302 134.626,22.51 134.613,21.814 C134.601,21.118 134.595,20.626 134.595,20.338 C134.427,20.098 134.254,19.852 134.073,19.6 C133.893,19.348 133.743,19.054 133.624,18.718 C133.527,18.406 133.401,17.98 133.246,17.44 C133.089,16.9 132.915,16.306 132.723,15.658 C132.531,15.01 132.333,14.338 132.13,13.642 C131.925,12.946 131.727,12.274 131.535,11.626 C131.342,10.978 131.169,10.384 131.013,9.844 C130.857,9.304 130.731,8.866 130.635,8.53 C130.539,8.17 130.437,7.877 130.33,7.648 C130.221,7.42 130.168,7.21 130.168,7.018 C130.168,6.754 130.311,6.478 130.599,6.19 C130.887,6.046 131.151,5.974 131.391,5.974 C131.703,5.974 131.985,6.07 132.237,6.262 C132.489,6.455 132.706,6.694 132.885,6.982 C133.065,7.27 133.221,7.582 133.353,7.918 C133.485,8.254 133.599,8.566 133.695,8.854 C133.84,9.286 133.983,9.736 134.128,10.204 C134.271,10.672 134.397,11.116 134.506,11.536 C134.613,11.956 134.71,12.334 134.795,12.67 C134.88,13.006 134.946,13.246 134.995,13.39 C135.092,13.727 135.182,14.074 135.267,14.434 C135.351,14.794 135.43,15.13 135.504,15.442 C135.576,15.754 135.642,16.006 135.703,16.198 C135.763,16.39 135.818,16.499 135.866,16.522 C136.084,15.802 136.338,14.962 136.629,14.002 C136.919,13.043 137.24,12.07 137.592,11.086 C137.942,10.102 138.299,9.13 138.661,8.17 C139.022,7.21 139.384,6.37 139.743,5.65 C140.176,4.954 140.716,4.606 141.363,4.606" fill="#8E693F"/>
    </g>
  </g>
</svg>
