<?xml version="1.0" encoding="UTF-8"?>
<!DOCTYPE svg PUBLIC "-//W3C//DTD SVG 1.1//EN" "http://www.w3.org/Graphics/SVG/1.1/DTD/svg11.dtd">
<svg version="1.1" xmlns="http://www.w3.org/2000/svg" xmlns:xlink="http://www.w3.org/1999/xlink" x="0" y="0" width="37.257" height="68.325" viewBox="0, 0, 37.257, 68.325">
  <defs>
    <clipPath id="Clip_1">
      <path d="M0.77,66.622 L36.071,66.622 L36.071,-0 L0.77,-0 z"/>
    </clipPath>
  </defs>
  <g id="Layer_1">
    <path d="M18.173,12.908 L18.174,12.908 z" fill="#9A6E38"/>
    <g clip-path="url(#Clip_1)">
      <path d="M18.035,12.7 L18.035,17.359 L18.808,17.359 L18.808,12.657 C18.819,12.657 18.798,12.657 18.808,12.657 L18.811,12.616 L18.808,12.562 C18.799,12.556 18.817,12.568 18.808,12.562 L18.808,12.384 C18.831,12.379 18.852,12.375 18.876,12.37 C20.829,11.973 21.954,11.146 22.208,9.918 C22.368,9.151 22.143,8.24 21.597,7.422 C21.452,7.207 21.304,7.034 20.974,6.706 C20.168,5.9 19.69,5.263 19.184,4.312 C18.934,3.843 18.934,3.846 19.137,3.357 C19.272,3.032 19.296,2.93 19.235,2.93 C19.224,2.93 19.211,2.934 19.196,2.94 C19.173,2.942 19.139,2.965 19.104,3.001 C19.065,3.034 19.024,3.074 18.988,3.12 C19.159,2.896 19.414,2.7 19.588,2.666 C19.636,2.656 19.735,2.655 19.807,2.664 C19.915,2.678 19.894,2.669 19.7,2.618 C19.421,2.547 19.283,2.56 19.117,2.674 C19.069,2.706 19.029,2.743 18.993,2.791 C19.029,2.701 19.06,2.621 19.075,2.574 C19.093,2.515 19.11,2.408 19.121,2.362 C19.137,2.296 19.149,2.175 19.153,2.095 C19.212,1.975 19.272,1.855 19.333,1.743 C19.593,1.259 19.811,0.945 20.118,0.624 C20.282,0.451 20.388,0.362 20.51,0.293 C20.595,0.246 20.614,0.229 20.595,0.224 C20.58,0.22 20.384,0.332 20.27,0.409 C19.693,0.803 19.223,1.304 18.911,1.852 C18.934,1.63 18.979,1.415 19.07,1.039 C19.171,0.625 19.177,0.57 19.112,0.628 C19.039,0.695 18.862,0.97 18.802,1.108 C18.759,1.21 18.709,1.377 18.69,1.488 C18.677,1.568 18.676,1.591 18.685,1.656 C18.699,1.743 18.694,2.15 18.682,2.357 C18.675,2.38 18.668,2.402 18.661,2.427 C18.659,2.388 18.655,2.356 18.651,2.334 C18.556,1.753 18.294,1.22 17.874,0.75 C17.837,0.579 17.816,0.554 17.806,0.675 C17.788,0.655 17.769,0.636 17.751,0.617 C17.654,0.518 17.522,0.407 17.514,0.416 C17.509,0.42 17.521,0.435 17.642,0.574 C17.692,0.631 17.746,0.699 17.8,0.769 C17.798,0.819 17.796,0.878 17.796,0.948 C17.794,1.182 17.807,1.279 17.879,1.516 C17.911,1.624 17.944,1.765 17.973,1.909 C17.813,1.337 17.511,0.768 17.092,0.265 C17.005,0.162 16.847,0 16.831,0 C16.81,0 16.825,0.021 16.893,0.09 C16.992,0.189 17.069,0.304 17.181,0.514 C17.387,0.908 17.513,1.269 17.629,1.806 C17.686,2.067 17.737,2.36 17.771,2.612 C17.763,2.601 17.755,2.59 17.746,2.579 C17.618,2.423 17.489,2.372 17.202,2.365 C17.001,2.359 16.977,2.362 17.085,2.38 C17.157,2.39 17.253,2.419 17.296,2.441 C17.427,2.509 17.581,2.698 17.688,2.911 C17.651,2.889 17.625,2.877 17.621,2.881 C17.613,2.888 17.643,2.974 17.686,3.073 C17.752,3.221 17.763,3.302 17.748,3.546 C17.732,3.813 17.712,3.878 17.52,4.258 C17.095,5.1 16.522,5.87 15.731,6.67 C14.977,7.429 14.611,8.069 14.454,8.903 C14.391,9.23 14.429,9.872 14.525,10.174 C14.86,11.215 15.948,11.969 17.651,12.338 C17.761,12.361 17.906,12.384 18.035,12.402 L18.035,12.521 M18.086,2.548 L18.086,2.547 C18.095,2.532 18.108,2.519 18.123,2.51 C18.114,2.524 18.106,2.558 18.095,2.615 C18.093,2.623 18.091,2.631 18.088,2.638 C18.087,2.607 18.087,2.576 18.086,2.548 M18.136,2.503 C18.143,2.5 18.149,2.498 18.155,2.497 C18.155,2.499 18.156,2.502 18.157,2.504 C18.155,2.504 18.155,2.503 18.154,2.503 C18.149,2.504 18.145,2.506 18.141,2.51 C18.139,2.506 18.138,2.504 18.136,2.503 M18.341,7.147 L18.341,7.139 C18.348,7.138 18.358,7.137 18.366,7.136 L18.366,7.143 C18.358,7.144 18.349,7.146 18.341,7.147 M18.468,2.584 C18.469,2.597 18.47,2.612 18.472,2.629 C18.464,2.649 18.456,2.671 18.448,2.693 C18.444,2.581 18.439,2.459 18.434,2.364 C18.447,2.437 18.458,2.512 18.468,2.584 M18.354,2.961 C18.333,2.871 18.307,2.782 18.276,2.697 C18.262,2.655 18.247,2.615 18.233,2.579 C18.277,2.654 18.331,2.772 18.379,2.904 C18.37,2.929 18.36,2.949 18.354,2.961 M17.919,0.979 C17.915,0.958 17.912,0.938 17.908,0.919 C17.964,1 18.014,1.077 18.047,1.137 C18.142,1.309 18.232,1.545 18.306,1.804 C18.283,1.956 18.247,2.235 18.243,2.31 C18.121,1.932 18.007,1.469 17.919,0.979 M18.806,3.344 C18.803,3.341 18.802,3.336 18.8,3.33 C18.809,3.328 18.823,3.321 18.84,3.309 C18.843,3.307 18.847,3.303 18.85,3.299 C18.833,3.32 18.817,3.335 18.806,3.344 M18.915,3.222 C18.913,3.224 18.911,3.226 18.911,3.227 C18.914,3.222 18.917,3.219 18.921,3.214 L18.915,3.222" fill="#9A6E38"/>
      <path d="M29.571,35.254 L29.571,26.371 L18.422,16.362 C18.422,16.362 7.317,26.485 7.27,26.371 L7.27,35.254 C3.872,39.26 1.818,42.828 0.77,47.457 L0.77,48.752 L0.77,66.598 L7.27,66.598 L14.579,66.598 L14.579,54.871 C17.089,52.668 21.133,53.254 22.79,54.871 L22.79,66.621 L22.913,66.621 L22.913,66.598 L29.571,66.598 L36.071,66.598 L36.071,48.752 L36.071,47.457 C35.024,42.828 32.969,39.26 29.571,35.254 M18.431,22.285 C20.962,22.285 23.073,24.397 23.073,26.927 C23.073,29.458 20.962,31.569 18.431,31.569 C15.901,31.569 13.79,29.458 13.79,26.927 C13.79,24.397 15.901,22.285 18.431,22.285 M7.725,61.275 L3.536,61.275 L3.536,49.525 C4.815,47.324 6.88,47.908 7.725,49.525 z M15.444,50.176 L12.967,50.176 L12.967,40.885 C13.725,39.143 14.944,39.606 15.444,40.885 z M20.589,48.274 L16.398,48.274 L16.398,36.524 C17.678,34.321 19.743,34.906 20.589,36.524 z M23.967,50.19 L21.491,50.19 L21.491,40.899 C22.248,39.156 23.467,39.617 23.967,40.899 z M33.327,61.229 L29.137,61.229 L29.137,49.479 C30.419,47.275 32.482,47.861 33.327,49.479 z" fill="#9A6E38"/>
    </g>
    <g>
      <path d="M33.703,35.538 C33.642,37.812 33.282,40.011 32.062,41.983 C31.457,42.964 30.731,43.831 29.251,44.224 C30.446,40.88 30.68,37.718 30.531,34.525 C30.488,33.585 30.861,33.379 31.697,33.414 C33.874,33.503 33.771,32.945 33.703,35.538 M5.193,41.983 C3.974,40.011 3.615,37.812 3.554,35.538 C3.484,32.945 3.381,33.503 5.558,33.414 C6.394,33.379 6.767,33.585 6.724,34.525 C6.576,37.718 6.81,40.88 8.006,44.224 C6.525,43.831 5.799,42.964 5.193,41.983 M35.909,30.269 C34.45,30.194 32.981,30.25 31.521,30.207 C31.2,30.197 30.849,30.142 30.765,29.892 C30.588,29.374 30.611,28.492 30.623,27.686 C30.637,26.707 31.474,27.044 32.092,26.892 C32.092,26.527 32.09,26.087 32.092,25.648 C32.092,23.984 32.092,23.982 30.483,23.982 C26.585,23.981 22.684,23.982 18.785,23.982 L18.627,23.982 L18.471,23.982 C14.571,23.982 10.672,23.981 6.773,23.982 C5.164,23.982 5.164,23.984 5.164,25.648 C5.166,26.087 5.164,26.527 5.164,26.892 C5.78,27.044 6.618,26.707 6.633,27.686 C6.644,28.492 6.668,29.374 6.491,29.892 C6.406,30.142 6.056,30.197 5.736,30.207 C4.273,30.25 2.805,30.194 1.346,30.269 C1.039,30.285 0.493,30.713 0.5,30.938 C0.577,33.783 0.553,36.646 0.927,39.458 C1.252,41.903 2.423,44.091 4.303,45.801 C5.577,46.961 7.05,47.574 8.814,47.475 C9.164,47.456 9.675,47.704 9.873,47.993 C11.33,50.106 13.109,51.821 15.453,52.937 C15.764,53.085 16.059,53.585 16.09,53.944 C16.177,54.95 16.137,55.97 16.109,56.983 C16.099,57.263 16.043,57.665 15.855,57.799 C14.068,59.083 13.08,60.811 12.936,63.106 C12.124,63.106 11.415,63.126 10.709,63.1 C10.08,63.079 9.84,63.35 9.86,63.975 C9.891,64.875 9.916,65.78 9.851,66.676 C9.783,67.579 10.133,67.83 11.012,67.825 C13.549,67.808 16.089,67.805 18.627,67.804 C21.168,67.805 23.706,67.808 26.244,67.825 C27.122,67.83 27.473,67.579 27.406,66.676 C27.341,65.78 27.365,64.875 27.396,63.975 C27.418,63.35 27.177,63.079 26.547,63.1 C25.842,63.126 25.134,63.106 24.32,63.106 C24.175,60.811 23.187,59.083 21.4,57.799 C21.215,57.665 21.157,57.263 21.148,56.983 C21.118,55.97 21.079,54.95 21.165,53.944 C21.196,53.585 21.491,53.085 21.803,52.937 C24.147,51.821 25.926,50.106 27.385,47.993 C27.581,47.704 28.092,47.456 28.442,47.475 C30.206,47.574 31.68,46.961 32.954,45.801 C34.832,44.091 36.005,41.903 36.332,39.458 C36.704,36.646 36.68,33.783 36.757,30.938 C36.762,30.713 36.219,30.285 35.909,30.269" fill="#9A6E38"/>
      <path d="M33.703,35.538 C33.642,37.812 33.282,40.011 32.062,41.983 C31.457,42.964 30.731,43.831 29.251,44.224 C30.446,40.88 30.68,37.718 30.531,34.525 C30.488,33.585 30.861,33.379 31.697,33.414 C33.874,33.503 33.771,32.945 33.703,35.538 z M5.193,41.983 C3.974,40.011 3.615,37.812 3.554,35.538 C3.484,32.945 3.381,33.503 5.558,33.414 C6.394,33.379 6.767,33.585 6.724,34.525 C6.576,37.718 6.81,40.88 8.006,44.224 C6.525,43.831 5.799,42.964 5.193,41.983 z M35.909,30.269 C34.45,30.194 32.981,30.25 31.521,30.207 C31.2,30.197 30.849,30.142 30.765,29.892 C30.588,29.374 30.611,28.492 30.623,27.686 C30.637,26.707 31.474,27.044 32.092,26.892 C32.092,26.527 32.09,26.087 32.092,25.648 C32.092,23.984 32.092,23.982 30.483,23.982 C26.585,23.981 22.684,23.982 18.785,23.982 L18.627,23.982 L18.471,23.982 C14.571,23.982 10.672,23.981 6.773,23.982 C5.164,23.982 5.164,23.984 5.164,25.648 C5.166,26.087 5.164,26.527 5.164,26.892 C5.78,27.044 6.618,26.707 6.633,27.686 C6.644,28.492 6.668,29.374 6.491,29.892 C6.406,30.142 6.056,30.197 5.736,30.207 C4.273,30.25 2.805,30.194 1.346,30.269 C1.039,30.285 0.493,30.713 0.5,30.938 C0.577,33.783 0.553,36.646 0.927,39.458 C1.252,41.903 2.423,44.091 4.303,45.801 C5.577,46.961 7.05,47.574 8.814,47.475 C9.164,47.456 9.675,47.704 9.873,47.993 C11.33,50.106 13.109,51.821 15.453,52.937 C15.764,53.085 16.059,53.585 16.09,53.944 C16.177,54.95 16.137,55.97 16.109,56.983 C16.099,57.263 16.043,57.665 15.855,57.799 C14.068,59.083 13.08,60.811 12.936,63.106 C12.124,63.106 11.415,63.126 10.709,63.1 C10.08,63.079 9.84,63.35 9.86,63.975 C9.891,64.875 9.916,65.78 9.851,66.676 C9.783,67.579 10.133,67.83 11.012,67.825 C13.549,67.808 16.089,67.805 18.627,67.804 C21.168,67.805 23.706,67.808 26.244,67.825 C27.122,67.83 27.473,67.579 27.406,66.676 C27.341,65.78 27.365,64.875 27.396,63.975 C27.418,63.35 27.177,63.079 26.547,63.1 C25.842,63.126 25.134,63.106 24.32,63.106 C24.175,60.811 23.187,59.083 21.4,57.799 C21.215,57.665 21.157,57.263 21.148,56.983 C21.118,55.97 21.079,54.95 21.165,53.944 C21.196,53.585 21.491,53.085 21.803,52.937 C24.147,51.821 25.926,50.106 27.385,47.993 C27.581,47.704 28.092,47.456 28.442,47.475 C30.206,47.574 31.68,46.961 32.954,45.801 C34.832,44.091 36.005,41.903 36.332,39.458 C36.704,36.646 36.68,33.783 36.757,30.938 C36.762,30.713 36.219,30.285 35.909,30.269 z" fill-opacity="0" stroke="#FDF5E0" stroke-width="1"/>
    </g>
    <text transform="matrix(1, 0, -0, 1, 18.683, 37.95)">
      <tspan x="-4.538" y="4" font-family="Love*Monster" font-size="16.966" kerning="-0.102" fill="#FDF5E0">1</tspan>
      <tspan x="-2.18" y="4" font-family="Love*Monster" font-size="16.966" kerning="0" fill="#FDF5E0">0</tspan>
    </text>
  </g>
</svg>
