<?xml version="1.0" encoding="UTF-8"?>
<!DOCTYPE svg PUBLIC "-//W3C//DTD SVG 1.1//EN" "http://www.w3.org/Graphics/SVG/1.1/DTD/svg11.dtd">
<svg version="1.1" xmlns="http://www.w3.org/2000/svg" xmlns:xlink="http://www.w3.org/1999/xlink" x="0" y="0" width="141.733" height="41.115" viewBox="0, 0, 141.733, 41.115">
  <defs>
    <clipPath id="Clip_1">
      <path d="M-0,0 L141.733,0 L141.733,41.115 L-0,41.115 z"/>
    </clipPath>
  </defs>
  <g id="Layer_1">
    <g clip-path="url(#Clip_1)">
      <path d="M12.747,36.087 C12.149,36.087 11.501,36.012 10.823,35.863 C9.8,35.641 8.658,35.19 7.428,34.524 C5.931,33.736 4.738,32.708 3.893,31.473 C3.08,30.287 2.46,28.975 2.049,27.571 C1.647,26.203 1.386,24.74 1.273,23.225 C1.164,21.764 1.073,20.323 1.002,18.899 L1,17.408 C1,16.678 1.018,15.815 1.054,14.817 C1.09,13.827 1.138,12.766 1.198,11.632 C1.259,10.478 1.351,9.367 1.472,8.329 C1.542,7.609 1.627,6.915 1.726,6.262 C1.83,5.571 1.949,4.99 2.091,4.483 C2.248,3.924 2.429,3.479 2.644,3.122 C3.113,2.341 3.718,2.225 4.037,2.225 C4.497,2.225 4.827,2.248 5.075,2.298 C5.392,2.362 5.757,2.54 6.297,2.89 C6.899,3.283 7.3,3.784 7.49,4.378 C7.634,4.828 7.722,5.317 7.751,5.833 C7.752,6.828 7.746,7.822 7.734,8.87 L7.698,12.038 C7.686,13.102 7.68,14.172 7.68,15.248 C7.68,16.32 7.704,17.358 7.751,18.333 C7.775,18.816 7.799,19.42 7.824,20.147 C7.847,20.851 7.895,21.608 7.965,22.415 C8.036,23.228 8.13,24.064 8.249,24.922 C8.362,25.746 8.528,26.548 8.744,27.305 C8.953,28.041 9.221,28.732 9.539,29.356 C9.824,29.911 10.167,30.354 10.559,30.669 C11.351,31.334 11.792,31.432 11.986,31.432 C12.467,31.344 12.816,31.065 13.147,30.568 C13.631,29.816 14.032,28.836 14.33,27.672 C14.64,26.458 14.874,25.108 15.026,23.658 C15.18,22.189 15.275,20.63 15.31,19.024 C15.345,17.388 15.364,15.745 15.364,14.097 L15.364,9.561 C15.364,8.085 15.401,6.685 15.474,5.4 C15.506,4.609 15.722,3.972 16.115,3.522 C16.516,3.058 17.039,2.779 17.625,2.716 C17.724,2.705 17.822,2.7 17.921,2.7 C18.331,2.7 18.758,2.789 19.189,2.964 C19.661,3.157 20.12,3.43 20.553,3.775 L20.928,4.076 L20.928,4.557 C20.928,4.704 20.934,4.856 20.944,5.013 C20.955,5.171 20.971,5.338 20.993,5.511 C21.048,6.776 21.09,8.077 21.126,9.499 C21.163,10.923 21.18,12.408 21.18,13.952 C21.155,15.802 21.095,17.68 20.999,19.547 C20.901,21.441 20.729,23.264 20.487,24.965 C20.242,26.68 19.911,28.27 19.504,29.69 C19.079,31.168 18.53,32.399 17.87,33.351 C17.366,34.052 16.775,34.636 16.104,35.098 C15.4,35.581 14.591,35.892 13.699,36.02 C13.396,36.065 13.075,36.087 12.747,36.087" fill="#F7F4E2"/>
      <path d="M4.036,1.225 C3.506,1.225 2.509,1.405 1.786,2.609 C1.525,3.04 1.309,3.567 1.127,4.215 C0.974,4.76 0.846,5.381 0.736,6.113 C0.636,6.782 0.547,7.501 0.474,8.25 C0.355,9.272 0.261,10.405 0.199,11.579 C0.139,12.719 0.091,13.785 0.054,14.78 C0.018,15.785 0,16.669 0,17.409 L0,18.849 L0,18.899 L0.002,18.95 C0.072,20.332 0.164,21.795 0.275,23.298 C0.393,24.885 0.667,26.417 1.089,27.854 C1.53,29.358 2.196,30.766 3.068,32.038 C4.005,33.409 5.319,34.544 6.972,35.414 C8.282,36.124 9.479,36.595 10.61,36.841 C11.358,37.004 12.077,37.087 12.746,37.087 C13.122,37.087 13.492,37.061 13.844,37.01 C14.887,36.86 15.837,36.494 16.668,35.923 C17.437,35.394 18.11,34.73 18.672,33.948 C19.413,32.88 20.01,31.549 20.464,29.966 C20.884,28.501 21.224,26.868 21.476,25.108 C21.723,23.376 21.898,21.523 21.997,19.6 C22.093,17.719 22.155,15.828 22.18,13.979 C22.18,12.394 22.161,10.887 22.125,9.474 C22.089,8.047 22.046,6.741 21.998,5.556 L21.994,5.47 L21.984,5.385 C21.964,5.231 21.951,5.083 21.94,4.938 C21.932,4.813 21.928,4.683 21.928,4.557 L21.928,3.596 L21.177,2.995 C20.668,2.589 20.126,2.267 19.565,2.038 C19.015,1.814 18.461,1.701 17.92,1.701 C17.786,1.701 17.654,1.707 17.523,1.721 C16.675,1.812 15.928,2.209 15.356,2.87 C14.814,3.491 14.515,4.336 14.473,5.375 C14.401,6.647 14.363,8.066 14.363,9.561 L14.363,14.097 C14.363,15.701 14.345,17.351 14.31,19.003 C14.275,20.581 14.182,22.113 14.031,23.556 C13.885,24.955 13.659,26.257 13.36,27.425 C13.089,28.485 12.731,29.366 12.296,30.043 C12.162,30.243 12.037,30.362 11.951,30.413 C11.861,30.372 11.616,30.251 11.218,29.917 C10.904,29.663 10.649,29.33 10.429,28.9 C10.14,28.334 9.896,27.705 9.705,27.033 C9.502,26.32 9.346,25.564 9.239,24.787 C9.122,23.942 9.029,23.116 8.961,22.33 C8.891,21.53 8.845,20.785 8.823,20.116 C8.798,19.381 8.773,18.771 8.749,18.284 C8.703,17.326 8.68,16.305 8.68,15.248 C8.68,14.176 8.685,13.11 8.697,12.049 L8.728,9.299 L8.733,8.881 C8.745,7.829 8.752,6.831 8.752,5.889 L8.752,5.832 L8.749,5.776 C8.715,5.177 8.612,4.603 8.442,4.073 C8.183,3.266 7.631,2.568 6.845,2.054 C6.19,1.629 5.721,1.409 5.272,1.318 C4.953,1.254 4.572,1.225 4.036,1.225 M4.036,3.225 C4.417,3.225 4.697,3.243 4.876,3.279 C5.055,3.315 5.346,3.465 5.751,3.729 C6.156,3.994 6.418,4.311 6.537,4.683 C6.656,5.055 6.727,5.456 6.752,5.889 C6.752,6.825 6.745,7.815 6.733,8.859 C6.722,9.903 6.71,10.959 6.697,12.027 C6.685,13.095 6.68,14.168 6.68,15.248 C6.68,16.329 6.703,17.372 6.752,18.381 C6.775,18.861 6.8,19.46 6.824,20.181 C6.848,20.901 6.896,21.675 6.969,22.502 C7.04,23.33 7.137,24.183 7.258,25.059 C7.378,25.935 7.553,26.775 7.781,27.579 C8.01,28.383 8.299,29.126 8.648,29.811 C8.998,30.495 9.426,31.041 9.932,31.449 C10.712,32.105 11.397,32.432 11.985,32.432 C12.086,32.432 12.185,32.422 12.28,32.403 C12.931,32.271 13.497,31.845 13.978,31.124 C14.533,30.261 14.973,29.193 15.298,27.92 C15.623,26.649 15.863,25.263 16.02,23.763 C16.177,22.263 16.273,20.691 16.309,19.046 C16.345,17.403 16.363,15.752 16.363,14.097 L16.363,9.561 C16.363,8.097 16.399,6.729 16.472,5.456 C16.495,4.881 16.628,4.454 16.868,4.179 C17.107,3.903 17.395,3.746 17.731,3.71 C17.793,3.704 17.857,3.701 17.92,3.701 C18.202,3.701 18.499,3.764 18.811,3.891 C19.195,4.047 19.567,4.269 19.928,4.557 C19.928,4.725 19.933,4.899 19.945,5.079 C19.958,5.259 19.975,5.445 20,5.637 C20.048,6.813 20.09,8.109 20.126,9.525 C20.162,10.941 20.18,12.417 20.18,13.953 C20.155,15.777 20.096,17.624 20,19.496 C19.903,21.369 19.735,23.145 19.496,24.825 C19.256,26.505 18.937,28.035 18.542,29.414 C18.145,30.795 17.647,31.916 17.048,32.781 C16.616,33.381 16.111,33.878 15.536,34.275 C14.96,34.67 14.3,34.923 13.556,35.031 C13.297,35.069 13.028,35.087 12.746,35.087 C12.217,35.087 11.647,35.02 11.036,34.887 C10.099,34.683 9.056,34.269 7.903,33.645 C6.536,32.925 5.473,32.013 4.718,30.909 C3.962,29.805 3.391,28.599 3.008,27.29 C2.624,25.983 2.378,24.603 2.269,23.151 C2.162,21.699 2.071,20.265 2,18.849 L2,17.409 C2,16.689 2.017,15.837 2.053,14.853 C2.089,13.869 2.137,12.813 2.196,11.685 C2.256,10.557 2.345,9.477 2.465,8.445 C2.535,7.725 2.618,7.047 2.714,6.411 C2.809,5.775 2.922,5.223 3.054,4.754 C3.184,4.287 3.333,3.915 3.5,3.639 C3.666,3.363 3.846,3.225 4.036,3.225" fill="#8E693F"/>
      <path d="M25.471,32.809 C24.969,32.809 24.448,32.688 23.923,32.449 C23.388,32.205 22.879,31.796 22.37,31.198 C21.918,30.681 21.626,30.044 21.513,29.316 C21.422,28.728 21.375,28.125 21.375,27.525 L21.375,21.371 L21.303,21.047 L21.303,20.937 C21.303,20.659 21.291,20.266 21.269,19.757 C21.244,19.223 21.225,18.595 21.213,17.875 L21.177,15.587 C21.165,14.767 21.159,13.934 21.159,13.089 C21.159,12.315 21.165,11.56 21.177,10.823 C21.189,10.084 21.208,9.364 21.232,8.662 L21.341,6.558 C21.408,5.477 21.632,4.817 22.067,4.406 C22.454,4.037 22.946,3.818 23.486,3.776 L23.707,3.773 C24.194,3.773 24.689,3.938 25.179,4.265 C25.596,4.542 25.988,4.923 26.343,5.396 C26.688,5.857 26.983,6.415 27.22,7.054 C27.459,7.706 27.595,8.428 27.623,9.201 C27.696,13.032 27.761,16.143 27.821,18.554 L27.965,24.241 C28,25.596 28.042,26.571 28.088,27.138 C28.099,27.275 28.11,27.393 28.119,27.494 C28.172,27.496 28.343,27.497 28.343,27.497 L28.406,27.504 C28.555,27.524 28.706,27.533 28.856,27.533 L30.835,27.533 C31.175,27.56 31.429,27.577 31.688,27.587 C32.038,27.603 32.382,27.657 32.716,27.747 C33.472,27.914 34.146,28.226 34.675,28.661 C35.323,29.195 35.652,29.793 35.652,30.441 C35.652,30.808 35.528,31.503 34.698,32.026 C34.207,32.334 33.532,32.485 32.635,32.485 C32.142,32.485 31.6,32.473 31.009,32.448 C30.449,32.425 29.898,32.413 29.36,32.413 C28.708,32.413 28.108,32.447 27.576,32.513 C27.385,32.535 27.161,32.581 26.892,32.651 C26.489,32.756 26.059,32.809 25.616,32.809 z" fill="#F7F4E2"/>
      <path d="M23.707,2.772 L23.563,2.772 L23.485,2.772 L23.408,2.778 C22.636,2.838 21.932,3.152 21.374,3.685 C20.568,4.445 20.399,5.58 20.343,6.483 L20.234,8.593 C20.208,9.334 20.189,10.061 20.177,10.806 C20.165,11.548 20.159,12.309 20.159,13.088 C20.159,13.938 20.165,14.776 20.177,15.601 L20.211,17.793 L20.213,17.891 C20.225,18.622 20.245,19.26 20.269,19.804 C20.291,20.29 20.303,20.669 20.303,20.936 L20.303,21.156 L20.351,21.371 L20.375,21.48 L20.375,27.524 C20.375,28.175 20.425,28.83 20.525,29.469 C20.667,30.388 21.038,31.194 21.626,31.866 C22.215,32.558 22.837,33.053 23.51,33.359 C24.164,33.657 24.824,33.808 25.471,33.808 L25.615,33.808 C26.144,33.808 26.658,33.744 27.144,33.618 C27.443,33.541 27.606,33.515 27.676,33.507 C28.191,33.443 28.749,33.412 29.359,33.412 C29.866,33.412 30.408,33.423 30.969,33.446 C31.56,33.471 32.122,33.484 32.635,33.484 C33.726,33.484 34.575,33.284 35.23,32.871 C36.133,32.302 36.651,31.417 36.651,30.44 C36.651,29.779 36.418,28.8 35.31,27.888 C34.668,27.36 33.868,26.983 32.932,26.769 C32.542,26.668 32.141,26.606 31.738,26.587 C31.488,26.577 31.25,26.562 31.019,26.541 L30.927,26.532 L30.835,26.532 L29.467,26.532 L29.049,26.532 C29.019,25.971 28.99,25.195 28.964,24.213 C28.928,22.834 28.88,20.939 28.821,18.528 C28.76,16.119 28.695,13.009 28.623,9.198 C28.59,8.285 28.434,7.459 28.159,6.71 C27.887,5.977 27.546,5.335 27.144,4.797 C26.719,4.23 26.245,3.772 25.733,3.431 C25.076,2.994 24.394,2.772 23.707,2.772 M23.707,4.772 C23.995,4.772 24.301,4.88 24.625,5.096 C24.949,5.312 25.255,5.612 25.543,5.996 C25.831,6.38 26.077,6.848 26.281,7.4 C26.484,7.953 26.599,8.564 26.623,9.236 C26.695,13.052 26.761,16.166 26.821,18.578 C26.881,20.99 26.929,22.886 26.965,24.266 C27.001,25.646 27.043,26.63 27.091,27.218 C27.139,27.806 27.186,28.184 27.235,28.352 C27.354,28.4 27.505,28.436 27.686,28.459 C27.865,28.484 28.063,28.496 28.279,28.496 C28.471,28.52 28.663,28.532 28.855,28.532 L29.467,28.532 L30.835,28.532 C31.099,28.556 31.369,28.574 31.645,28.585 C31.921,28.598 32.19,28.64 32.455,28.711 C33.103,28.856 33.631,29.096 34.039,29.432 C34.447,29.768 34.651,30.104 34.651,30.44 C34.651,30.728 34.489,30.974 34.165,31.178 C33.841,31.382 33.331,31.484 32.635,31.484 C32.154,31.484 31.627,31.472 31.051,31.448 C30.476,31.424 29.911,31.412 29.359,31.412 C28.663,31.412 28.027,31.448 27.451,31.52 C27.235,31.544 26.965,31.598 26.641,31.682 C26.317,31.766 25.976,31.808 25.615,31.808 L25.471,31.808 C25.111,31.808 24.733,31.718 24.337,31.538 C23.941,31.358 23.539,31.028 23.131,30.548 C22.795,30.165 22.585,29.702 22.501,29.162 C22.417,28.622 22.375,28.077 22.375,27.524 L22.375,21.26 L22.303,20.936 C22.303,20.648 22.291,20.24 22.268,19.711 C22.243,19.184 22.225,18.566 22.213,17.858 C22.201,17.15 22.188,16.388 22.177,15.572 C22.165,14.756 22.159,13.928 22.159,13.088 C22.159,12.32 22.165,11.57 22.177,10.838 C22.188,10.106 22.207,9.392 22.231,8.696 L22.339,6.608 C22.387,5.84 22.524,5.348 22.753,5.132 C22.98,4.916 23.251,4.796 23.563,4.772 L23.707,4.772" fill="#8E693F"/>
      <path d="M38.251,33.024 C37.651,33.024 37.223,32.925 36.904,32.712 C36.772,32.625 36.592,32.511 36.368,32.378 C35.734,32.011 35.312,31.592 35.09,31.105 C34.9,30.693 34.803,30.286 34.803,29.9 C34.803,29.606 34.834,29.359 34.899,29.144 C34.92,29.073 34.941,29.009 34.961,28.954 C35.002,28.409 35.033,27.818 35.055,27.184 C35.078,26.488 35.091,25.737 35.091,24.932 C35.091,24.216 35.084,23.472 35.072,22.697 C35.061,21.921 35.043,21.128 35.019,20.316 C34.97,19.122 34.935,17.909 34.91,16.69 C34.887,15.475 34.868,14.289 34.856,13.134 L34.82,9.878 C34.809,8.854 34.803,7.932 34.803,7.112 C34.803,6.202 34.84,5.877 34.872,5.695 C34.904,5.511 34.985,5.061 35.337,4.76 C35.342,4.712 35.343,4.672 35.343,4.628 C35.343,4.441 35.355,4.29 35.374,4.178 C35.426,3.854 35.608,3.595 35.74,3.429 C36.149,2.964 36.778,2.725 37.877,2.591 C38.706,2.491 39.655,2.44 40.698,2.44 C40.932,2.44 41.167,2.446 41.401,2.459 C41.602,2.471 41.798,2.476 41.994,2.476 C43.051,2.527 43.993,2.609 44.844,2.722 C45.788,2.847 46.427,2.992 46.858,3.179 C47.112,3.283 47.363,3.48 47.63,3.79 C47.942,4.155 48.106,4.588 48.106,5.045 C48.106,5.211 48.072,5.38 47.984,5.648 L47.966,5.704 L47.941,5.757 C47.71,6.253 47.194,6.89 46.047,7.104 C45.399,7.223 44.678,7.284 43.902,7.284 C43.553,7.284 43.217,7.277 42.893,7.266 C42.593,7.254 42.281,7.248 41.959,7.248 L41.131,7.248 C40.936,7.248 40.754,7.252 40.587,7.261 C40.592,7.526 40.602,7.839 40.617,8.201 C40.641,8.753 40.676,9.347 40.724,9.983 C40.794,10.558 40.85,11.176 40.887,11.795 C40.923,12.39 40.959,12.924 40.993,13.399 L41.065,14.341 C41.324,14.338 41.601,14.322 41.894,14.293 C42.287,14.253 42.692,14.234 43.11,14.234 C43.365,14.234 43.613,14.249 43.855,14.276 C44.105,14.307 44.344,14.349 44.576,14.407 C45.267,14.622 45.691,14.913 45.931,15.314 C46.131,15.647 46.234,16.008 46.234,16.384 L46.234,16.528 C46.234,16.957 46.135,17.362 45.938,17.732 C45.678,18.228 45.173,18.564 44.395,18.756 C44.048,18.837 43.683,18.907 43.288,18.97 C42.896,19.034 42.51,19.085 42.13,19.123 C41.805,19.155 41.492,19.179 41.194,19.193 L41.194,20.823 C41.194,21.274 41.206,21.73 41.229,22.192 C41.23,22.688 41.236,23.123 41.248,23.545 C41.261,23.985 41.267,24.438 41.267,24.903 C41.267,25.368 41.261,25.821 41.248,26.261 C41.236,26.682 41.23,27.117 41.23,27.562 L41.23,28.065 C41.596,28.061 41.947,28.046 42.279,28.021 C42.784,27.983 43.29,27.964 43.795,27.964 C44.314,27.964 44.825,27.998 45.313,28.063 C45.82,28.131 46.353,28.262 46.897,28.452 C48.256,28.956 48.538,29.732 48.538,30.295 C48.538,30.581 48.459,31.013 48.08,31.453 C47.531,32.071 46.777,32.458 45.83,32.614 C45.064,32.743 44.282,32.808 43.507,32.808 C43.203,32.808 42.906,32.802 42.614,32.789 C42.358,32.778 42.126,32.772 41.923,32.772 L41.167,32.772 C40.748,32.772 40.418,32.783 40.175,32.804 C39.927,32.827 39.711,32.849 39.528,32.873 C39.363,32.893 39.213,32.918 39.073,32.948 C38.834,33 38.566,33.024 38.251,33.024" fill="#F7F4E2"/>
      <path d="M40.698,1.44 C39.615,1.44 38.626,1.493 37.758,1.598 C36.794,1.715 35.718,1.941 35.023,2.729 L34.99,2.767 L34.958,2.806 C34.641,3.204 34.454,3.601 34.386,4.02 C34.369,4.124 34.357,4.237 34.35,4.359 C34.126,4.668 33.969,5.057 33.887,5.52 C33.845,5.756 33.802,6.13 33.802,7.112 C33.802,7.935 33.808,8.861 33.82,9.889 L33.846,12.235 L33.856,13.146 C33.868,14.302 33.886,15.491 33.91,16.708 C33.936,17.978 33.973,19.209 34.02,20.369 C34.042,21.152 34.061,21.941 34.072,22.712 C34.084,23.482 34.091,24.221 34.091,24.932 C34.091,25.703 34.079,26.45 34.055,27.152 C34.036,27.72 34.008,28.258 33.972,28.753 C33.962,28.789 33.951,28.823 33.941,28.856 C33.848,29.166 33.802,29.507 33.802,29.9 C33.802,30.431 33.931,30.98 34.184,31.529 C34.49,32.202 35.047,32.769 35.882,33.252 C36.061,33.36 36.229,33.464 36.354,33.548 C36.994,33.974 37.743,34.024 38.251,34.024 C38.637,34.024 38.975,33.992 39.282,33.925 C39.395,33.901 39.515,33.881 39.644,33.866 C39.827,33.842 40.032,33.822 40.27,33.799 C40.409,33.788 40.683,33.772 41.167,33.772 L41.923,33.772 C42.114,33.772 42.331,33.778 42.575,33.788 C42.874,33.801 43.187,33.808 43.507,33.808 C44.337,33.808 45.176,33.738 45.998,33.6 C47.172,33.406 48.122,32.911 48.817,32.129 C49.416,31.432 49.538,30.75 49.538,30.295 C49.538,29.574 49.242,28.254 47.261,27.521 C46.619,27.295 46.02,27.149 45.447,27.072 C44.914,27.001 44.358,26.964 43.795,26.964 C43.272,26.964 42.747,26.984 42.233,27.022 C42.236,26.773 42.24,26.528 42.247,26.287 C42.26,25.841 42.266,25.378 42.266,24.903 C42.266,24.427 42.26,23.964 42.247,23.514 C42.236,23.104 42.23,22.679 42.23,22.243 L42.23,22.192 L42.228,22.141 C42.205,21.704 42.194,21.26 42.194,20.823 L42.194,20.121 C42.206,20.12 42.218,20.119 42.23,20.117 C42.631,20.077 43.042,20.023 43.449,19.957 C43.868,19.89 44.258,19.815 44.606,19.734 C45.691,19.465 46.428,18.95 46.825,18.195 C47.095,17.685 47.234,17.122 47.234,16.528 L47.234,16.384 C47.234,15.823 47.083,15.288 46.784,14.794 C46.418,14.18 45.811,13.745 44.933,13.469 L44.876,13.451 L44.818,13.437 C44.551,13.37 44.268,13.319 43.977,13.284 C43.684,13.251 43.395,13.234 43.11,13.234 C42.727,13.234 42.35,13.25 41.987,13.28 C41.954,12.823 41.919,12.307 41.885,11.735 C41.847,11.11 41.791,10.481 41.718,9.864 C41.675,9.291 41.643,8.752 41.62,8.248 L41.959,8.248 C42.268,8.248 42.567,8.254 42.855,8.265 C43.191,8.277 43.54,8.284 43.902,8.284 C44.739,8.284 45.52,8.218 46.227,8.087 C47.879,7.78 48.578,6.759 48.848,6.178 L48.897,6.072 L48.934,5.961 C49.023,5.688 49.106,5.389 49.106,5.044 C49.106,4.346 48.859,3.688 48.391,3.142 C48.019,2.71 47.636,2.418 47.217,2.246 C46.731,2.034 46.028,1.87 44.975,1.731 C44.096,1.615 43.127,1.53 42.093,1.479 L42.044,1.476 L41.994,1.476 C41.817,1.476 41.64,1.471 41.464,1.461 C41.203,1.447 40.95,1.44 40.698,1.44 M40.698,3.44 C40.914,3.44 41.131,3.446 41.346,3.458 C41.562,3.47 41.778,3.476 41.994,3.476 C42.978,3.525 43.885,3.604 44.713,3.713 C45.54,3.823 46.122,3.95 46.459,4.096 C46.578,4.145 46.716,4.26 46.872,4.442 C47.028,4.625 47.106,4.826 47.106,5.044 C47.106,5.092 47.082,5.19 47.034,5.336 C46.842,5.75 46.452,6.011 45.864,6.121 C45.276,6.229 44.622,6.284 43.902,6.284 C43.566,6.284 43.242,6.278 42.93,6.266 C42.618,6.254 42.294,6.248 41.959,6.248 L41.131,6.248 C40.794,6.248 40.494,6.26 40.23,6.284 C39.966,6.308 39.75,6.368 39.583,6.463 L39.583,6.895 C39.583,7.231 39.594,7.68 39.618,8.243 C39.642,8.806 39.677,9.411 39.726,10.058 C39.799,10.658 39.852,11.256 39.888,11.855 C39.925,12.455 39.961,12.994 39.996,13.472 C40.032,13.952 40.074,14.503 40.122,15.126 C40.242,15.27 40.53,15.341 40.986,15.341 C41.298,15.341 41.635,15.324 41.994,15.288 C42.354,15.252 42.726,15.234 43.11,15.234 C43.326,15.234 43.536,15.247 43.74,15.27 C43.944,15.294 44.142,15.33 44.335,15.378 C44.718,15.498 44.965,15.647 45.072,15.827 C45.18,16.006 45.234,16.192 45.234,16.384 L45.234,16.528 C45.234,16.792 45.175,17.038 45.054,17.264 C44.934,17.493 44.635,17.667 44.154,17.786 C43.843,17.858 43.5,17.923 43.129,17.983 C42.756,18.044 42.39,18.091 42.03,18.127 C41.671,18.164 41.328,18.188 41.005,18.2 C40.68,18.211 40.41,18.216 40.194,18.216 L40.194,19.403 L40.194,20.823 C40.194,21.291 40.206,21.763 40.23,22.243 C40.23,22.698 40.236,23.141 40.248,23.573 C40.261,24.004 40.266,24.448 40.266,24.903 C40.266,25.358 40.261,25.801 40.248,26.232 C40.236,26.664 40.23,27.107 40.23,27.562 L40.23,28.353 C40.23,28.617 40.261,28.796 40.32,28.892 C40.38,28.988 40.542,29.048 40.806,29.072 C41.358,29.072 41.874,29.054 42.354,29.018 C42.834,28.982 43.314,28.964 43.795,28.964 C44.274,28.964 44.736,28.995 45.18,29.054 C45.624,29.114 46.086,29.228 46.566,29.396 C47.215,29.636 47.538,29.936 47.538,30.295 C47.538,30.464 47.467,30.632 47.322,30.8 C46.938,31.232 46.386,31.508 45.667,31.627 C44.946,31.749 44.226,31.808 43.507,31.808 C43.219,31.808 42.936,31.802 42.66,31.79 C42.385,31.778 42.138,31.772 41.923,31.772 L41.167,31.772 C40.71,31.772 40.35,31.785 40.087,31.808 C39.822,31.833 39.594,31.856 39.402,31.88 C39.21,31.904 39.03,31.934 38.862,31.97 C38.694,32.006 38.49,32.024 38.251,32.024 C37.866,32.024 37.602,31.976 37.459,31.88 C37.314,31.785 37.122,31.664 36.883,31.52 C36.427,31.256 36.132,30.98 36.001,30.692 C35.868,30.404 35.802,30.14 35.802,29.9 C35.802,29.709 35.82,29.552 35.856,29.432 C35.892,29.312 35.922,29.228 35.946,29.18 C35.994,28.581 36.03,27.926 36.054,27.218 C36.078,26.51 36.091,25.749 36.091,24.932 C36.091,24.211 36.084,23.462 36.072,22.682 C36.06,21.902 36.042,21.104 36.018,20.288 C35.969,19.088 35.934,17.882 35.91,16.669 C35.886,15.459 35.868,14.276 35.856,13.124 C35.844,11.972 35.832,10.886 35.82,9.866 C35.808,8.846 35.802,7.928 35.802,7.112 C35.802,6.488 35.82,6.074 35.856,5.87 C35.892,5.667 35.94,5.545 36.001,5.51 C36.06,5.474 36.114,5.451 36.162,5.438 C36.21,5.426 36.258,5.289 36.306,5.024 C36.33,4.928 36.343,4.796 36.343,4.628 C36.343,4.508 36.348,4.412 36.36,4.34 C36.372,4.268 36.427,4.172 36.522,4.052 C36.714,3.836 37.206,3.68 37.998,3.584 C38.79,3.488 39.69,3.44 40.698,3.44" fill="#8E693F"/>
      <path d="M54.816,10.44 C54.9,11.355 54.979,12.246 55.051,13.112 L55.199,14.903 C55.45,14.452 55.656,13.964 55.816,13.442 C56.112,12.48 56.273,11.517 56.295,10.582 C56.316,10.033 56.269,9.508 56.156,9.004 C56.05,8.531 55.87,8.093 55.622,7.702 C55.385,7.329 55.077,7.022 54.679,6.762 C54.609,6.717 54.535,6.673 54.459,6.632 z M53.566,38.243 C53.424,38.243 53.279,38.236 53.133,38.221 C52.661,38.177 52.203,38.072 51.774,37.909 C51.283,37.721 50.902,37.488 50.609,37.193 L50.103,36.683 L50.233,36.422 C50.142,36.183 50.065,35.896 49.996,35.549 C49.88,34.972 49.786,34.271 49.71,33.408 C49.638,32.583 49.571,31.656 49.51,30.625 C49.45,29.607 49.384,28.534 49.313,27.408 C49.24,26.326 49.173,25.205 49.114,24.047 L48.934,20.685 C48.874,19.59 48.82,18.532 48.772,17.508 C48.723,16.493 48.675,15.566 48.628,14.729 C48.605,14.352 48.568,13.819 48.521,13.14 L48.359,10.893 C48.298,10.068 48.25,9.216 48.213,8.342 C48.177,7.451 48.177,6.622 48.213,5.876 C48.252,5.114 48.323,4.451 48.428,3.902 C48.584,3.078 48.934,2.524 49.467,2.257 C50.024,1.996 50.632,1.861 51.296,1.847 L51.491,1.844 C52.019,1.844 52.563,1.892 53.109,1.987 C55.89,2.429 57.975,3.425 59.292,4.945 C60.604,6.46 61.31,8.339 61.39,10.531 C61.417,11.899 61.199,13.168 60.745,14.319 C60.306,15.427 59.751,16.446 59.092,17.35 C58.437,18.249 57.724,19.032 56.975,19.677 C56.442,20.137 55.955,20.535 55.523,20.864 C55.523,21.011 55.546,21.273 55.588,21.652 L55.595,21.707 L55.595,21.764 C55.595,21.881 55.619,22.311 55.664,23.052 C55.712,23.837 55.76,24.78 55.81,25.878 C55.858,26.972 55.905,28.138 55.953,29.375 C56.002,30.617 56.038,31.768 56.062,32.829 C56.086,33.888 56.104,34.777 56.116,35.499 C56.136,36.714 56.114,36.867 55.997,37.107 L55.962,37.178 L55.917,37.243 C55.609,37.68 55.14,37.986 54.559,38.126 C54.239,38.203 53.905,38.243 53.566,38.243" fill="#F7F4E2"/>
      <path d="M51.491,0.845 L51.274,0.847 C50.47,0.866 49.726,1.032 49.065,1.342 L49.042,1.352 L49.019,1.364 C48.192,1.777 47.662,2.569 47.445,3.717 C47.331,4.318 47.255,5.008 47.214,5.825 C47.176,6.603 47.176,7.463 47.213,8.382 C47.251,9.278 47.301,10.147 47.362,10.969 L47.523,13.213 C47.571,13.887 47.606,14.415 47.63,14.795 C47.677,15.621 47.724,16.545 47.773,17.558 C47.821,18.582 47.875,19.643 47.935,20.742 C47.995,21.831 48.054,22.951 48.115,24.102 C48.175,25.262 48.242,26.389 48.315,27.479 C48.386,28.596 48.452,29.668 48.512,30.685 C48.571,31.696 48.639,32.642 48.714,33.494 C48.793,34.397 48.892,35.133 49.015,35.748 C49.058,35.962 49.104,36.159 49.156,36.341 L48.887,36.88 L49.9,37.899 C50.295,38.296 50.79,38.605 51.414,38.843 C51.932,39.039 52.478,39.165 53.039,39.218 C53.217,39.235 53.393,39.243 53.566,39.243 C53.984,39.243 54.397,39.195 54.794,39.099 C55.614,38.901 56.285,38.458 56.734,37.819 L56.825,37.69 L56.894,37.548 C57.141,37.044 57.134,36.619 57.116,35.485 C57.103,34.758 57.085,33.868 57.062,32.809 C57.037,31.741 57.001,30.584 56.952,29.337 C56.905,28.098 56.856,26.931 56.808,25.835 C56.759,24.729 56.711,23.782 56.662,22.992 C56.62,22.304 56.596,21.892 56.595,21.755 L56.593,21.658 L56.582,21.541 C56.573,21.46 56.565,21.388 56.558,21.324 C56.892,21.059 57.249,20.762 57.628,20.435 C58.434,19.741 59.199,18.901 59.9,17.939 C60.608,16.968 61.205,15.874 61.674,14.688 C62.178,13.412 62.418,12.014 62.39,10.531 C62.3,8.069 61.512,5.982 60.048,4.291 C58.572,2.588 56.286,1.48 53.252,0.998 C52.677,0.898 52.075,0.845 51.491,0.845 M54.378,17.301 C54.498,17.205 54.66,17.079 54.864,16.923 C55.068,16.767 55.218,16.629 55.314,16.509 C55.962,15.717 56.448,14.793 56.772,13.737 C57.096,12.681 57.27,11.637 57.294,10.605 C57.318,9.981 57.263,9.375 57.132,8.786 C57,8.199 56.778,7.658 56.466,7.166 C56.154,6.675 55.74,6.261 55.224,5.925 C54.708,5.589 54.078,5.349 53.334,5.204 C53.334,5.301 53.358,5.607 53.406,6.122 C53.454,6.639 53.514,7.275 53.586,8.031 C53.658,8.786 53.736,9.62 53.82,10.533 C53.904,11.445 53.982,12.332 54.054,13.197 C54.126,14.061 54.192,14.859 54.252,15.591 C54.311,16.324 54.354,16.893 54.378,17.301 M51.491,2.845 C51.964,2.845 52.446,2.887 52.938,2.973 C55.506,3.381 57.372,4.257 58.536,5.601 C59.7,6.945 60.318,8.601 60.39,10.569 C60.414,11.792 60.221,12.921 59.814,13.952 C59.406,14.985 58.896,15.921 58.284,16.761 C57.672,17.601 57.018,18.321 56.322,18.92 C55.626,19.521 55.026,20 54.522,20.361 L54.522,20.865 C54.522,21.032 54.546,21.332 54.595,21.765 C54.595,21.885 54.618,22.335 54.666,23.115 C54.714,23.895 54.762,24.831 54.81,25.923 C54.858,27.015 54.906,28.179 54.954,29.414 C55.002,30.651 55.038,31.797 55.062,32.853 C55.086,33.909 55.103,34.796 55.116,35.517 C55.128,36.237 55.122,36.62 55.098,36.668 C54.929,36.908 54.672,37.071 54.324,37.155 C54.08,37.213 53.827,37.243 53.566,37.243 C53.454,37.243 53.341,37.238 53.226,37.227 C52.842,37.191 52.475,37.107 52.128,36.975 C51.78,36.842 51.51,36.681 51.318,36.489 L51.354,36.416 C51.21,36.248 51.084,35.895 50.976,35.355 C50.868,34.815 50.778,34.137 50.706,33.321 C50.635,32.505 50.568,31.587 50.509,30.567 C50.448,29.547 50.382,28.473 50.31,27.345 C50.238,26.265 50.172,25.149 50.112,23.996 C50.052,22.845 49.992,21.723 49.932,20.631 C49.872,19.538 49.818,18.483 49.77,17.462 C49.721,16.443 49.674,15.513 49.626,14.673 C49.602,14.289 49.566,13.754 49.518,13.071 C49.47,12.387 49.416,11.637 49.356,10.821 C49.296,10.005 49.248,9.164 49.212,8.301 C49.177,7.437 49.177,6.645 49.212,5.925 C49.248,5.204 49.314,4.593 49.41,4.089 C49.506,3.584 49.674,3.273 49.914,3.153 C50.322,2.961 50.79,2.859 51.318,2.847 C51.376,2.845 51.433,2.845 51.491,2.845" fill="#8E693F"/>
      <path d="M67.812,39.459 C67.477,39.378 67.18,39.234 66.928,39.031 C66.449,38.647 66.194,38.104 66.194,37.46 L66.201,37.28 C66.25,36.818 66.444,36.425 66.76,36.141 C66.97,35.946 67.252,35.776 67.588,35.646 C67.839,35.549 68.131,35.457 68.465,35.374 C68.704,35.314 68.946,35.232 69.188,35.133 C69.207,35.124 69.299,35.077 69.452,34.943 C69.595,34.818 69.733,34.67 69.861,34.506 C69.976,34.359 70.07,34.197 70.146,34.022 C70.213,33.866 70.254,33.717 70.269,33.579 C70.291,33.385 70.307,33.216 70.318,33.052 C70.329,32.898 70.333,32.734 70.333,32.564 C70.333,31.698 70.214,30.92 69.978,30.252 C69.713,29.504 69.438,28.808 69.16,28.183 L69.035,27.935 C68.688,27.173 68.302,26.495 67.872,25.889 C67.424,25.257 66.936,24.614 66.418,23.98 C65.889,23.331 65.348,22.663 64.796,21.979 C64.232,21.281 63.647,20.491 63.057,19.63 C62.594,18.961 62.176,18.21 61.816,17.4 C61.463,16.608 61.161,15.754 60.918,14.863 C60.681,13.981 60.49,13.077 60.355,12.174 C60.216,11.259 60.146,10.343 60.146,9.452 L60.146,8.66 C60.146,8.334 60.176,8.006 60.235,7.687 C60.329,6.859 60.537,6.002 60.842,5.206 C61.157,4.383 61.586,3.653 62.117,3.039 C62.667,2.403 63.344,1.899 64.133,1.54 C64.923,1.182 65.831,1 66.833,1 C67.476,1 68.186,1.08 68.945,1.238 C70.218,1.521 71.14,1.93 71.778,2.491 C72.515,3.142 72.873,3.781 72.873,4.448 C72.873,5.242 72.357,6.168 70.902,6.168 C70.319,6.168 69.677,6.002 68.994,5.674 C68.764,5.559 68.563,5.484 68.379,5.442 C68.183,5.398 68.014,5.376 67.877,5.376 C67.388,5.376 67.087,5.57 66.839,6.045 C66.479,6.735 66.243,7.601 66.137,8.62 C66.11,8.775 66.106,8.841 66.106,8.912 L66.106,9.345 C66.106,9.931 66.161,10.523 66.27,11.105 C66.382,11.714 66.525,12.317 66.695,12.897 C66.862,13.465 67.053,13.993 67.262,14.465 C67.465,14.924 67.674,15.316 67.882,15.631 C68.47,16.548 69.093,17.423 69.743,18.247 C70.414,19.098 71.079,19.937 71.737,20.763 C72.411,21.608 73.05,22.477 73.638,23.346 C74.242,24.237 74.775,25.173 75.227,26.125 C75.887,27.528 76.222,29.125 76.222,30.872 C76.222,31.996 76.062,33.098 75.748,34.147 C75.451,35.119 75.007,36.009 74.424,36.795 C73.81,37.623 73.01,38.272 72.048,38.726 C71.682,38.934 71.209,39.15 70.707,39.335 C70.188,39.526 69.635,39.665 69.063,39.747 L67.743,39.937 z" fill="#F7F4E2"/>
      <path d="M66.834,-0 C65.688,-0 64.64,0.212 63.721,0.629 C62.798,1.05 62.005,1.64 61.361,2.384 C60.754,3.088 60.265,3.917 59.908,4.85 C59.581,5.704 59.355,6.621 59.24,7.574 C59.178,7.932 59.147,8.297 59.147,8.66 L59.147,9.452 C59.147,10.393 59.221,11.36 59.367,12.326 C59.507,13.263 59.705,14.206 59.953,15.124 C60.21,16.066 60.529,16.968 60.904,17.809 C61.288,18.673 61.737,19.479 62.237,20.202 C62.837,21.078 63.438,21.889 64.018,22.607 C64.572,23.293 65.114,23.961 65.644,24.612 C66.146,25.229 66.622,25.853 67.057,26.467 C67.45,27.021 67.804,27.644 68.11,28.316 L68.125,28.349 L68.141,28.38 L68.264,28.628 C68.525,29.22 68.784,29.877 69.034,30.584 C69.233,31.146 69.334,31.812 69.334,32.564 C69.334,32.712 69.33,32.854 69.321,32.992 C69.311,33.13 69.296,33.281 69.277,33.438 C69.272,33.491 69.264,33.541 69.225,33.634 C69.186,33.725 69.135,33.812 69.072,33.892 C68.983,34.007 68.888,34.107 68.791,34.193 C68.774,34.207 68.757,34.223 68.739,34.236 C68.575,34.302 68.394,34.361 68.219,34.405 C67.858,34.494 67.521,34.599 67.225,34.714 C66.772,34.891 66.384,35.127 66.07,35.417 C65.59,35.848 65.283,36.462 65.206,37.173 L65.194,37.28 L65.194,37.389 L65.194,37.46 C65.194,38.404 65.589,39.24 66.305,39.813 C66.433,39.917 66.569,40.009 66.711,40.091 L66.564,41.115 L69.206,40.736 C69.847,40.645 70.468,40.488 71.054,40.273 C71.581,40.079 72.081,39.852 72.54,39.599 C73.624,39.076 74.527,38.334 75.227,37.392 C75.878,36.512 76.375,35.521 76.703,34.444 C77.049,33.292 77.223,32.093 77.223,30.872 C77.223,28.977 76.855,27.236 76.132,25.7 C75.657,24.699 75.099,23.72 74.468,22.786 C73.864,21.895 73.209,21.005 72.52,20.14 C71.862,19.315 71.198,18.478 70.529,17.628 C69.898,16.829 69.295,15.981 68.733,15.105 C68.538,14.811 68.357,14.469 68.179,14.064 C67.985,13.627 67.81,13.142 67.655,12.615 C67.495,12.068 67.359,11.499 67.253,10.924 C67.156,10.4 67.106,9.87 67.106,9.345 L67.106,8.912 L67.126,8.816 L67.132,8.722 C67.224,7.83 67.424,7.085 67.725,6.507 C67.764,6.434 67.794,6.395 67.809,6.377 C67.811,6.377 67.813,6.378 67.815,6.378 C67.826,6.378 67.848,6.376 67.878,6.376 C67.9,6.376 67.986,6.379 68.16,6.418 C68.231,6.434 68.354,6.472 68.526,6.559 C69.382,6.969 70.169,7.168 70.902,7.168 C72.944,7.168 73.874,5.758 73.874,4.448 C73.874,3.491 73.392,2.581 72.441,1.742 C71.671,1.065 70.604,0.582 69.176,0.265 C68.322,0.087 67.543,-0 66.834,-0 M66.834,2 C67.41,2 68.046,2.072 68.742,2.217 C69.822,2.457 70.614,2.799 71.118,3.242 C71.622,3.687 71.874,4.089 71.874,4.448 C71.874,4.929 71.55,5.168 70.902,5.168 C70.471,5.168 69.979,5.037 69.426,4.772 C69.139,4.628 68.862,4.526 68.599,4.467 C68.334,4.407 68.095,4.376 67.878,4.376 C67.015,4.376 66.372,4.778 65.952,5.582 C65.532,6.387 65.262,7.364 65.143,8.517 C65.118,8.637 65.106,8.769 65.106,8.912 L65.106,9.345 C65.106,9.992 65.166,10.641 65.286,11.288 C65.406,11.937 65.557,12.566 65.736,13.179 C65.916,13.79 66.12,14.354 66.349,14.87 C66.576,15.387 66.811,15.824 67.05,16.185 C67.649,17.12 68.286,18.015 68.958,18.866 C69.63,19.719 70.296,20.559 70.956,21.387 C71.616,22.215 72.234,23.055 72.811,23.906 C73.387,24.759 73.891,25.641 74.322,26.553 C74.922,27.825 75.223,29.265 75.223,30.872 C75.223,31.904 75.078,32.9 74.79,33.86 C74.526,34.725 74.136,35.504 73.62,36.2 C73.104,36.896 72.438,37.437 71.622,37.82 C71.238,38.036 70.818,38.229 70.362,38.396 C69.906,38.564 69.426,38.685 68.922,38.757 L68.958,38.504 C68.862,38.528 68.718,38.54 68.526,38.54 C68.118,38.54 67.794,38.444 67.555,38.252 C67.314,38.06 67.194,37.796 67.194,37.46 L67.194,37.389 C67.218,37.173 67.296,37.004 67.429,36.885 C67.56,36.764 67.734,36.662 67.95,36.578 C68.166,36.494 68.418,36.416 68.706,36.345 C68.994,36.272 69.282,36.176 69.57,36.057 C69.738,35.984 69.918,35.864 70.11,35.696 C70.302,35.528 70.482,35.336 70.65,35.12 C70.818,34.904 70.956,34.67 71.064,34.418 C71.172,34.166 71.238,33.921 71.263,33.681 C71.286,33.488 71.304,33.303 71.316,33.122 C71.328,32.942 71.334,32.757 71.334,32.564 C71.334,31.581 71.196,30.698 70.92,29.918 C70.645,29.139 70.362,28.425 70.074,27.776 L69.931,27.488 C69.57,26.696 69.156,25.971 68.688,25.311 C68.221,24.65 67.722,23.996 67.194,23.349 C66.666,22.7 66.126,22.034 65.574,21.351 C65.022,20.666 64.458,19.904 63.882,19.064 C63.45,18.44 63.066,17.75 62.73,16.994 C62.394,16.238 62.112,15.44 61.884,14.601 C61.656,13.761 61.476,12.902 61.345,12.026 C61.212,11.15 61.147,10.293 61.147,9.452 L61.147,8.66 C61.147,8.396 61.17,8.133 61.219,7.868 C61.313,7.053 61.5,6.284 61.776,5.564 C62.052,4.845 62.418,4.221 62.874,3.692 C63.33,3.165 63.888,2.751 64.548,2.45 C65.208,2.15 65.971,2 66.834,2" fill="#8E693F"/>
      <path d="M80.154,34.824 C78.996,34.824 78.097,34.705 77.408,34.461 C76.642,34.189 76.059,33.787 75.675,33.264 C75.295,32.66 75.122,32.021 75.122,31.304 C75.122,30.816 75.192,30.286 75.332,29.73 C75.456,29.23 75.606,28.706 75.781,28.157 C75.949,27.626 76.126,27.087 76.306,26.543 C76.474,26.042 76.617,25.535 76.731,25.035 C76.858,24.497 77.008,23.958 77.184,23.405 C77.354,22.872 77.524,22.35 77.694,21.842 C77.851,21.323 78.053,20.632 78.292,19.797 C78.534,18.953 78.793,18.068 79.07,17.14 C79.343,16.223 79.612,15.292 79.874,14.35 L80.595,11.772 C80.978,10.455 81.33,9.18 81.652,7.941 C81.844,7.201 82.018,6.498 82.174,5.837 C82.08,5.842 81.983,5.845 81.882,5.845 C81.682,5.845 81.524,5.834 81.388,5.811 C81.249,5.817 81.012,5.833 80.681,5.859 C80.189,5.897 79.653,5.916 79.074,5.916 C78.168,5.887 77.479,5.741 76.934,5.469 C75.972,4.99 75.77,4.336 75.77,3.872 C75.77,3.261 76.084,2.431 77.578,1.949 C77.733,1.898 77.934,1.866 78.502,1.847 C78.871,1.835 79.313,1.828 79.83,1.828 C80.434,1.828 81.094,1.835 81.808,1.846 C82.523,1.859 83.202,1.877 83.845,1.901 C84.488,1.926 85.028,1.95 85.465,1.974 C86.11,2.009 86.325,2.041 86.501,2.115 C87.174,2.358 87.671,2.725 87.979,3.206 C88.275,3.669 88.425,4.233 88.425,4.881 C88.425,5.391 88.352,5.953 88.202,6.6 C88.068,7.171 87.905,7.841 87.713,8.614 C87.543,9.292 87.326,10.126 87.059,11.116 C86.795,12.102 86.506,13.156 86.193,14.276 C85.882,15.388 85.565,16.55 85.242,17.757 C84.917,18.972 84.597,20.139 84.285,21.259 C83.973,22.372 83.686,23.418 83.424,24.399 C83.157,25.39 82.928,26.223 82.736,26.898 C82.669,27.169 82.569,27.525 82.443,27.94 C82.324,28.332 82.206,28.735 82.087,29.149 C82.006,29.436 81.926,29.717 81.85,29.992 C82.008,29.974 82.17,29.955 82.334,29.934 C83.044,29.845 83.715,29.801 84.33,29.801 C84.502,29.801 84.673,29.807 84.842,29.821 C85.031,29.838 85.198,29.861 85.349,29.89 L86.091,30.06 C86.409,30.137 86.716,30.245 87.006,30.381 C87.349,30.545 87.644,30.758 87.886,31.016 C88.217,31.375 88.39,31.821 88.39,32.312 L88.39,32.498 L88.379,32.574 C88.281,33.2 87.908,33.71 87.328,34.01 C86.955,34.204 86.567,34.348 86.175,34.439 C85.847,34.52 85.419,34.587 84.877,34.639 C84.368,34.689 83.827,34.726 83.256,34.751 C82.699,34.775 82.157,34.795 81.634,34.806 C81.108,34.818 80.7,34.824 80.406,34.824 z" fill="#F7F4E2"/>
      <path d="M79.83,0.828 C79.301,0.828 78.848,0.835 78.469,0.848 C77.856,0.868 77.554,0.906 77.268,0.998 C75.015,1.725 74.77,3.25 74.77,3.872 C74.77,4.364 74.938,5.592 76.491,6.365 C77.164,6.701 77.988,6.882 79.009,6.915 L79.042,6.916 L79.074,6.916 C79.679,6.916 80.245,6.896 80.758,6.856 C80.808,6.852 80.854,6.849 80.899,6.846 C80.831,7.121 80.759,7.402 80.684,7.689 C80.371,8.895 80.018,10.173 79.638,11.487 C79.416,12.271 79.176,13.132 78.911,14.082 C78.65,15.018 78.384,15.943 78.111,16.855 C77.833,17.786 77.573,18.675 77.331,19.522 C77.098,20.337 76.899,21.014 76.736,21.553 C76.568,22.057 76.4,22.574 76.232,23.1 C76.05,23.673 75.892,24.242 75.761,24.794 C75.649,25.28 75.516,25.756 75.359,26.224 C75.176,26.776 74.998,27.319 74.828,27.856 C74.646,28.426 74.489,28.974 74.361,29.487 C74.202,30.123 74.122,30.734 74.122,31.305 C74.122,32.212 74.346,33.029 74.787,33.734 L74.826,33.797 L74.87,33.855 C75.374,34.544 76.116,35.064 77.074,35.403 C77.873,35.686 78.881,35.824 80.154,35.824 L80.406,35.824 C80.705,35.824 81.122,35.818 81.657,35.806 C82.187,35.794 82.735,35.775 83.303,35.75 C83.879,35.725 84.442,35.686 84.974,35.635 C85.564,35.578 86.041,35.503 86.431,35.406 C86.875,35.304 87.342,35.13 87.79,34.896 C88.658,34.447 89.219,33.677 89.366,32.728 L89.391,32.575 L89.391,32.42 L89.391,32.312 C89.391,31.565 89.126,30.885 88.625,30.343 C88.289,29.983 87.893,29.696 87.44,29.48 C87.08,29.311 86.709,29.182 86.328,29.09 C86.061,29.026 85.821,28.972 85.6,28.922 L85.57,28.915 L85.541,28.909 C85.358,28.873 85.157,28.846 84.936,28.826 C84.726,28.808 84.529,28.801 84.33,28.801 C83.975,28.801 83.603,28.814 83.218,28.843 C83.278,28.636 83.339,28.432 83.4,28.231 C83.527,27.812 83.629,27.45 83.706,27.142 C83.898,26.469 84.126,25.641 84.39,24.66 C84.651,23.681 84.937,22.638 85.248,21.529 C85.562,20.405 85.883,19.235 86.209,18.015 C86.53,16.812 86.846,15.655 87.156,14.546 C87.471,13.421 87.761,12.365 88.025,11.374 C88.293,10.379 88.513,9.539 88.683,8.856 C88.877,8.078 89.041,7.404 89.176,6.832 C89.345,6.104 89.426,5.468 89.426,4.881 C89.426,4.038 89.223,3.294 88.822,2.668 C88.393,1.999 87.732,1.499 86.855,1.179 C86.512,1.043 86.154,1.01 85.518,0.975 C85.078,0.952 84.533,0.927 83.886,0.902 C83.232,0.878 82.547,0.859 81.825,0.847 C81.105,0.835 80.439,0.828 79.83,0.828 M79.83,2.828 C80.43,2.828 81.084,2.835 81.792,2.847 C82.5,2.858 83.172,2.877 83.809,2.9 C84.443,2.925 84.978,2.949 85.41,2.973 C85.842,2.996 86.082,3.02 86.13,3.044 C86.61,3.213 86.945,3.446 87.138,3.746 C87.33,4.047 87.426,4.425 87.426,4.881 C87.426,5.312 87.359,5.81 87.228,6.374 C87.096,6.938 86.934,7.604 86.742,8.372 C86.574,9.045 86.358,9.873 86.094,10.856 C85.83,11.841 85.542,12.891 85.23,14.007 C84.918,15.122 84.601,16.287 84.276,17.498 C83.952,18.711 83.634,19.874 83.322,20.99 C83.01,22.106 82.722,23.156 82.458,24.14 C82.193,25.125 81.966,25.953 81.774,26.624 C81.702,26.912 81.606,27.254 81.486,27.65 C81.366,28.046 81.246,28.455 81.126,28.874 C81.006,29.295 80.892,29.702 80.784,30.099 C80.676,30.494 80.609,30.836 80.586,31.124 C81.162,31.076 81.786,31.011 82.458,30.927 C83.13,30.843 83.754,30.801 84.33,30.801 C84.475,30.801 84.618,30.807 84.762,30.818 C84.906,30.831 85.038,30.849 85.158,30.872 C85.374,30.921 85.608,30.974 85.86,31.034 C86.112,31.095 86.351,31.179 86.58,31.286 C86.808,31.394 87,31.533 87.156,31.7 C87.311,31.868 87.391,32.073 87.391,32.312 L87.391,32.42 C87.342,32.732 87.168,32.967 86.868,33.122 C86.567,33.278 86.262,33.392 85.95,33.465 C85.662,33.536 85.271,33.597 84.78,33.644 C84.288,33.692 83.766,33.728 83.214,33.752 C82.662,33.776 82.128,33.795 81.612,33.807 C81.096,33.818 80.694,33.824 80.406,33.824 L80.154,33.824 C79.122,33.824 78.318,33.723 77.742,33.518 C77.166,33.314 76.746,33.032 76.482,32.673 C76.242,32.289 76.122,31.833 76.122,31.305 C76.122,30.896 76.182,30.453 76.302,29.973 C76.422,29.492 76.566,28.988 76.734,28.46 C76.901,27.932 77.076,27.398 77.256,26.858 C77.436,26.318 77.586,25.784 77.706,25.257 C77.826,24.752 77.97,24.236 78.138,23.708 C78.306,23.181 78.474,22.664 78.643,22.16 C78.809,21.608 79.014,20.913 79.254,20.072 C79.494,19.232 79.752,18.35 80.028,17.427 C80.304,16.503 80.574,15.566 80.838,14.618 C81.101,13.671 81.342,12.812 81.559,12.044 C81.941,10.724 82.296,9.44 82.62,8.192 C82.944,6.944 83.214,5.816 83.43,4.808 C83.334,4.785 83.244,4.772 83.16,4.772 L82.926,4.772 C82.733,4.772 82.559,4.785 82.404,4.808 C82.248,4.833 82.074,4.845 81.882,4.845 C81.689,4.845 81.559,4.833 81.486,4.808 C81.366,4.808 81.072,4.826 80.604,4.862 C80.136,4.898 79.626,4.916 79.074,4.916 C78.354,4.892 77.79,4.778 77.382,4.574 C76.974,4.371 76.77,4.137 76.77,3.872 C76.77,3.465 77.142,3.141 77.886,2.9 C77.958,2.877 78.174,2.858 78.534,2.847 C78.894,2.835 79.326,2.828 79.83,2.828" fill="#8E693F"/>
      <path d="M91.674,33.024 C91.074,33.024 90.646,32.925 90.327,32.712 C90.195,32.625 90.015,32.511 89.791,32.378 C89.157,32.011 88.735,31.592 88.514,31.105 C88.323,30.693 88.226,30.286 88.226,29.9 C88.226,29.606 88.257,29.359 88.321,29.144 C88.343,29.073 88.364,29.009 88.384,28.954 C88.425,28.409 88.456,27.818 88.479,27.184 C88.501,26.488 88.514,25.737 88.514,24.932 C88.514,24.216 88.507,23.472 88.495,22.697 C88.484,21.921 88.465,21.128 88.442,20.316 C88.394,19.122 88.358,17.909 88.333,16.69 C88.31,15.475 88.291,14.289 88.279,13.134 L88.243,9.878 C88.232,8.854 88.226,7.932 88.226,7.112 C88.226,6.202 88.263,5.877 88.295,5.695 C88.327,5.511 88.407,5.061 88.76,4.76 C88.766,4.712 88.766,4.672 88.766,4.628 C88.766,4.441 88.778,4.29 88.797,4.178 C88.849,3.854 89.031,3.595 89.163,3.429 C89.572,2.964 90.201,2.725 91.3,2.591 C92.129,2.491 93.078,2.44 94.121,2.44 C94.355,2.44 94.59,2.446 94.824,2.459 C95.025,2.471 95.221,2.476 95.417,2.476 C96.474,2.527 97.416,2.609 98.267,2.722 C99.21,2.847 99.851,2.992 100.28,3.179 C100.534,3.283 100.786,3.48 101.053,3.79 C101.365,4.155 101.529,4.588 101.529,5.045 C101.529,5.211 101.495,5.38 101.407,5.648 L101.389,5.704 L101.364,5.757 C101.133,6.253 100.617,6.89 99.47,7.104 C98.822,7.223 98.101,7.284 97.325,7.284 C96.977,7.284 96.64,7.277 96.317,7.266 C96.016,7.254 95.704,7.248 95.382,7.248 L94.554,7.248 C94.359,7.248 94.178,7.252 94.01,7.261 C94.015,7.526 94.026,7.839 94.04,8.201 C94.065,8.753 94.099,9.347 94.147,9.983 C94.217,10.558 94.273,11.176 94.31,11.795 C94.346,12.39 94.382,12.924 94.416,13.399 L94.488,14.341 C94.746,14.338 95.024,14.322 95.318,14.293 C95.71,14.253 96.115,14.234 96.533,14.234 C96.788,14.234 97.036,14.249 97.278,14.276 C97.528,14.307 97.768,14.349 97.999,14.407 C98.691,14.622 99.114,14.913 99.354,15.314 C99.555,15.647 99.657,16.008 99.657,16.384 L99.657,16.528 C99.657,16.957 99.558,17.362 99.361,17.732 C99.101,18.228 98.596,18.564 97.818,18.756 C97.471,18.837 97.106,18.907 96.71,18.97 C96.319,19.034 95.933,19.085 95.553,19.123 C95.228,19.155 94.915,19.179 94.617,19.193 L94.617,20.823 C94.617,21.274 94.629,21.73 94.653,22.192 C94.653,22.688 94.659,23.123 94.671,23.545 C94.684,23.985 94.69,24.438 94.69,24.903 C94.69,25.368 94.684,25.821 94.671,26.261 C94.659,26.682 94.653,27.117 94.653,27.562 L94.653,28.065 C95.02,28.061 95.37,28.046 95.702,28.021 C96.207,27.983 96.712,27.964 97.218,27.964 C97.737,27.964 98.248,27.998 98.736,28.063 C99.243,28.131 99.776,28.262 100.32,28.452 C101.679,28.956 101.961,29.732 101.961,30.295 C101.961,30.581 101.882,31.013 101.503,31.453 C100.954,32.071 100.2,32.458 99.253,32.614 C98.487,32.743 97.705,32.808 96.93,32.808 C96.626,32.808 96.328,32.802 96.037,32.789 C95.781,32.778 95.549,32.772 95.346,32.772 L94.59,32.772 C94.17,32.772 93.841,32.783 93.599,32.804 C93.351,32.827 93.134,32.849 92.951,32.873 C92.785,32.893 92.636,32.918 92.495,32.948 C92.258,33 91.988,33.024 91.674,33.024" fill="#F7F4E2"/>
      <path d="M94.121,1.44 C93.038,1.44 92.049,1.493 91.181,1.598 C90.217,1.715 89.141,1.941 88.446,2.729 L88.412,2.767 L88.381,2.806 C88.064,3.204 87.877,3.601 87.809,4.02 C87.792,4.124 87.78,4.237 87.772,4.359 C87.55,4.668 87.392,5.057 87.31,5.52 C87.268,5.756 87.225,6.13 87.225,7.112 C87.225,7.935 87.231,8.861 87.243,9.889 L87.269,12.235 L87.279,13.146 C87.291,14.302 87.309,15.491 87.333,16.708 C87.359,17.978 87.395,19.209 87.443,20.369 C87.466,21.152 87.483,21.941 87.495,22.712 C87.507,23.482 87.514,24.221 87.514,24.932 C87.514,25.703 87.502,26.45 87.478,27.152 C87.459,27.72 87.432,28.258 87.395,28.753 C87.385,28.789 87.374,28.823 87.364,28.856 C87.27,29.166 87.225,29.507 87.225,29.9 C87.225,30.431 87.354,30.98 87.607,31.529 C87.913,32.202 88.47,32.769 89.305,33.252 C89.484,33.36 89.652,33.464 89.777,33.548 C90.417,33.974 91.166,34.024 91.674,34.024 C92.06,34.024 92.397,33.992 92.706,33.925 C92.818,33.901 92.938,33.881 93.067,33.866 C93.25,33.842 93.455,33.822 93.693,33.799 C93.832,33.788 94.106,33.772 94.59,33.772 L95.346,33.772 C95.537,33.772 95.754,33.778 95.998,33.788 C96.298,33.801 96.61,33.808 96.93,33.808 C97.761,33.808 98.599,33.738 99.421,33.6 C100.596,33.406 101.545,32.911 102.24,32.129 C102.84,31.432 102.961,30.75 102.961,30.295 C102.961,29.574 102.665,28.254 100.683,27.521 C100.042,27.295 99.443,27.149 98.87,27.072 C98.337,27.001 97.781,26.964 97.218,26.964 C96.695,26.964 96.17,26.984 95.656,27.022 C95.659,26.773 95.664,26.528 95.67,26.287 C95.683,25.841 95.689,25.378 95.689,24.903 C95.689,24.427 95.683,23.964 95.67,23.514 C95.659,23.104 95.653,22.679 95.653,22.243 L95.653,22.192 L95.65,22.141 C95.629,21.704 95.617,21.26 95.617,20.823 L95.617,20.121 C95.629,20.12 95.642,20.119 95.653,20.117 C96.055,20.077 96.465,20.023 96.872,19.957 C97.291,19.89 97.682,19.815 98.029,19.734 C99.114,19.465 99.851,18.95 100.248,18.195 C100.518,17.685 100.657,17.122 100.657,16.528 L100.657,16.384 C100.657,15.823 100.506,15.288 100.208,14.794 C99.841,14.18 99.234,13.745 98.356,13.469 L98.299,13.451 L98.24,13.437 C97.974,13.37 97.691,13.319 97.4,13.284 C97.107,13.251 96.818,13.234 96.533,13.234 C96.15,13.234 95.773,13.25 95.41,13.28 C95.377,12.823 95.343,12.307 95.308,11.735 C95.27,11.11 95.214,10.481 95.141,9.864 C95.098,9.291 95.066,8.752 95.043,8.248 L95.382,8.248 C95.691,8.248 95.99,8.254 96.278,8.265 C96.614,8.277 96.963,8.284 97.325,8.284 C98.161,8.284 98.943,8.218 99.649,8.087 C101.302,7.78 102.001,6.759 102.27,6.178 L102.32,6.072 L102.357,5.961 C102.446,5.688 102.529,5.389 102.529,5.044 C102.529,4.346 102.282,3.688 101.814,3.142 C101.442,2.71 101.059,2.418 100.641,2.246 C100.154,2.034 99.45,1.87 98.397,1.731 C97.519,1.615 96.55,1.53 95.516,1.479 L95.467,1.476 L95.417,1.476 C95.24,1.476 95.063,1.471 94.887,1.461 C94.626,1.447 94.373,1.44 94.121,1.44 M94.121,3.44 C94.337,3.44 94.554,3.446 94.769,3.458 C94.985,3.47 95.201,3.476 95.417,3.476 C96.401,3.525 97.308,3.604 98.136,3.713 C98.963,3.823 99.545,3.95 99.882,4.096 C100.001,4.145 100.139,4.26 100.295,4.442 C100.451,4.625 100.529,4.826 100.529,5.044 C100.529,5.092 100.505,5.19 100.457,5.336 C100.265,5.75 99.875,6.011 99.287,6.121 C98.699,6.229 98.045,6.284 97.325,6.284 C96.989,6.284 96.665,6.278 96.353,6.266 C96.041,6.254 95.717,6.248 95.382,6.248 L94.554,6.248 C94.217,6.248 93.917,6.26 93.653,6.284 C93.389,6.308 93.173,6.368 93.006,6.463 L93.006,6.895 C93.006,7.231 93.017,7.68 93.041,8.243 C93.065,8.806 93.1,9.411 93.149,10.058 C93.222,10.658 93.275,11.256 93.311,11.855 C93.348,12.455 93.384,12.994 93.419,13.472 C93.455,13.952 93.497,14.503 93.545,15.126 C93.665,15.27 93.953,15.341 94.409,15.341 C94.721,15.341 95.058,15.324 95.417,15.288 C95.777,15.252 96.149,15.234 96.533,15.234 C96.749,15.234 96.959,15.247 97.163,15.27 C97.367,15.294 97.565,15.33 97.758,15.378 C98.141,15.498 98.388,15.647 98.495,15.827 C98.603,16.006 98.657,16.192 98.657,16.384 L98.657,16.528 C98.657,16.792 98.598,17.038 98.477,17.264 C98.357,17.493 98.058,17.667 97.577,17.786 C97.266,17.858 96.923,17.923 96.552,17.983 C96.179,18.044 95.813,18.091 95.453,18.127 C95.094,18.164 94.751,18.188 94.428,18.2 C94.103,18.211 93.833,18.216 93.617,18.216 L93.617,19.403 L93.617,20.823 C93.617,21.291 93.629,21.763 93.653,22.243 C93.653,22.698 93.659,23.141 93.671,23.573 C93.684,24.004 93.689,24.448 93.689,24.903 C93.689,25.358 93.684,25.801 93.671,26.232 C93.659,26.664 93.653,27.107 93.653,27.562 L93.653,28.353 C93.653,28.617 93.684,28.796 93.743,28.892 C93.803,28.988 93.965,29.048 94.229,29.072 C94.781,29.072 95.297,29.054 95.777,29.018 C96.257,28.982 96.737,28.964 97.218,28.964 C97.697,28.964 98.159,28.995 98.603,29.054 C99.047,29.114 99.509,29.228 99.989,29.396 C100.638,29.636 100.961,29.936 100.961,30.295 C100.961,30.464 100.89,30.632 100.745,30.8 C100.361,31.232 99.809,31.508 99.09,31.627 C98.369,31.749 97.649,31.808 96.93,31.808 C96.642,31.808 96.359,31.802 96.083,31.79 C95.808,31.778 95.561,31.772 95.346,31.772 L94.59,31.772 C94.133,31.772 93.773,31.785 93.51,31.808 C93.245,31.833 93.017,31.856 92.825,31.88 C92.633,31.904 92.453,31.934 92.285,31.97 C92.117,32.006 91.913,32.024 91.674,32.024 C91.289,32.024 91.025,31.976 90.882,31.88 C90.737,31.785 90.545,31.664 90.306,31.52 C89.85,31.256 89.555,30.98 89.424,30.692 C89.291,30.404 89.225,30.14 89.225,29.9 C89.225,29.709 89.243,29.552 89.279,29.432 C89.315,29.312 89.345,29.228 89.369,29.18 C89.417,28.581 89.453,27.926 89.477,27.218 C89.501,26.51 89.514,25.749 89.514,24.932 C89.514,24.211 89.507,23.462 89.495,22.682 C89.483,21.902 89.465,21.104 89.441,20.288 C89.392,19.088 89.357,17.882 89.333,16.669 C89.309,15.459 89.291,14.276 89.279,13.124 C89.267,11.972 89.255,10.886 89.243,9.866 C89.231,8.846 89.225,7.928 89.225,7.112 C89.225,6.488 89.243,6.074 89.279,5.87 C89.315,5.667 89.363,5.545 89.424,5.51 C89.483,5.474 89.537,5.451 89.585,5.438 C89.633,5.426 89.681,5.289 89.729,5.024 C89.753,4.928 89.766,4.796 89.766,4.628 C89.766,4.508 89.771,4.412 89.783,4.34 C89.795,4.268 89.85,4.172 89.945,4.052 C90.137,3.836 90.629,3.68 91.421,3.584 C92.213,3.488 93.113,3.44 94.121,3.44" fill="#8E693F"/>
      <path d="M115.483,35.685 C115.296,35.685 115.094,35.672 114.877,35.645 C113.529,35.462 112.608,35.027 112.051,34.313 C111.52,33.632 111.285,32.64 111.336,31.284 L110.798,23.489 C110.776,23.288 110.76,22.94 110.76,22.485 L110.76,21.225 C110.76,20.816 110.75,20.442 110.727,20.102 C110.717,19.96 110.709,19.847 110.695,19.763 C110.66,19.717 110.584,19.626 110.44,19.482 C110.177,19.22 109.974,18.991 109.825,18.786 C109.64,18.573 109.467,18.346 109.308,18.107 C109.178,17.911 109.036,17.715 108.883,17.519 C108.577,17.076 108.336,16.71 108.125,16.377 C107.916,16.044 107.713,15.712 107.516,15.381 C107.322,15.053 106.879,14.29 106.84,14.227 C106.828,14.716 106.821,15.22 106.821,15.735 C106.821,16.725 106.845,17.746 106.892,18.767 L107.108,23.373 C107.178,24.874 107.321,26.381 107.531,27.851 C107.578,28.206 107.653,28.641 107.756,29.168 C107.886,29.837 107.906,30.462 107.816,31.03 C107.659,32.077 107.108,32.514 106.673,32.695 C106.372,32.822 106.046,32.885 105.707,32.885 C105.519,32.885 105.325,32.866 105.123,32.826 C104.644,32.729 104.194,32.553 103.784,32.299 C103.325,32.018 103.01,31.725 102.828,31.404 C102.67,31.132 102.553,30.717 102.465,29.506 C102.405,28.679 102.356,27.667 102.319,26.475 C102.283,25.295 102.253,24.019 102.229,22.646 L102.157,18.687 C102.132,17.564 102.108,16.539 102.085,15.617 C102.061,14.708 102.026,13.997 101.981,13.503 L101.869,9.807 C101.869,9.325 101.837,8.878 101.771,8.45 C101.687,7.879 101.668,7.381 101.712,6.926 C101.767,6.349 101.973,5.848 102.324,5.437 C102.728,4.965 103.37,4.709 104.232,4.674 L104.362,4.67 C104.878,4.67 105.391,4.847 105.89,5.196 C106.303,5.485 106.73,5.862 107.16,6.317 C107.38,6.539 107.661,6.898 107.999,7.398 C108.301,7.847 108.634,8.35 108.998,8.906 C109.362,9.464 109.736,10.049 110.124,10.666 L110.769,11.7 C110.751,11.423 110.53,8.465 110.53,8.465 C110.467,7.633 110.448,6.816 110.474,6.036 C110.473,5.785 110.479,5.521 110.493,5.275 C110.512,4.893 110.611,4.542 110.786,4.238 C110.962,3.929 111.221,3.665 111.555,3.457 C111.848,3.274 112.212,3.137 112.667,3.039 C112.836,3.01 112.958,3 113.08,3 C113.467,3 113.85,3.101 114.217,3.3 C114.55,3.48 114.967,3.759 115.492,4.152 L115.57,4.21 L115.635,4.282 C115.979,4.663 116.261,5.236 116.5,6.036 C116.705,6.728 116.874,7.514 117.015,8.437 C117.148,9.309 117.26,10.269 117.347,11.293 C117.431,12.304 117.499,13.28 117.547,14.226 C117.595,15.168 117.631,16.034 117.656,16.82 C117.679,17.59 117.704,18.186 117.727,18.612 L118.124,30.551 C118.148,31.209 118.161,31.816 118.161,32.367 C118.161,33.029 118.076,33.583 117.902,34.061 C117.688,34.642 117.309,35.098 116.803,35.381 C116.443,35.583 115.999,35.685 115.483,35.685" fill="#F7F4E2"/>
      <path d="M113.08,2 C112.903,2 112.725,2.015 112.549,2.044 L112.503,2.052 L112.456,2.062 C111.887,2.184 111.419,2.363 111.025,2.609 C110.55,2.906 110.177,3.289 109.916,3.747 C109.665,4.182 109.521,4.683 109.494,5.228 C109.48,5.473 109.474,5.745 109.474,6.036 C109.455,6.618 109.461,7.219 109.489,7.832 C109.255,7.476 109.035,7.146 108.829,6.84 C108.458,6.291 108.153,5.901 107.871,5.614 C107.4,5.117 106.928,4.701 106.466,4.377 C105.794,3.908 105.087,3.67 104.362,3.67 C104.297,3.67 104.23,3.672 104.165,3.676 C103.026,3.728 102.152,4.101 101.566,4.785 C101.078,5.358 100.793,6.044 100.717,6.83 C100.664,7.367 100.685,7.944 100.782,8.595 C100.84,8.978 100.869,9.375 100.869,9.777 L100.869,9.807 L100.87,9.836 L100.978,13.472 L100.98,13.533 L100.985,13.593 C101.028,14.066 101.062,14.756 101.086,15.644 C101.109,16.562 101.134,17.587 101.157,18.712 L101.164,19.064 L101.229,22.665 C101.253,24.041 101.284,25.322 101.32,26.506 C101.357,27.707 101.407,28.74 101.468,29.579 C101.559,30.822 101.689,31.432 101.967,31.911 C102.227,32.369 102.655,32.781 103.265,33.153 C103.77,33.465 104.331,33.687 104.924,33.806 C105.19,33.859 105.452,33.885 105.707,33.885 C106.18,33.885 106.635,33.795 107.059,33.618 C107.608,33.389 108.566,32.767 108.807,31.17 C108.913,30.503 108.891,29.761 108.738,28.979 C108.638,28.466 108.565,28.047 108.523,27.729 C108.315,26.271 108.176,24.796 108.107,23.327 L107.892,18.72 C107.877,18.409 107.865,18.099 107.854,17.789 C107.91,17.87 107.967,17.953 108.024,18.037 L108.058,18.086 L108.095,18.133 C108.231,18.31 108.359,18.486 108.477,18.663 C108.65,18.922 108.84,19.174 109.043,19.41 C109.219,19.646 109.445,19.902 109.731,20.187 C109.751,20.494 109.761,20.844 109.761,21.225 L109.761,22.485 C109.761,22.94 109.775,23.303 109.804,23.592 L110.334,31.301 C110.284,32.875 110.589,34.065 111.265,34.93 C111.978,35.845 113.145,36.419 114.731,36.633 C115.007,36.669 115.253,36.685 115.483,36.685 C116.172,36.685 116.779,36.541 117.291,36.255 C118.009,35.853 118.544,35.214 118.841,34.406 C119.057,33.816 119.161,33.149 119.161,32.367 C119.161,31.816 119.148,31.209 119.124,30.512 L118.728,18.602 C118.702,18.136 118.679,17.548 118.656,16.791 C118.632,15.996 118.595,15.125 118.546,14.175 C118.499,13.244 118.431,12.247 118.345,11.212 C118.255,10.162 118.141,9.18 118.005,8.288 C117.855,7.316 117.677,6.488 117.458,5.752 C117.173,4.792 116.83,4.112 116.377,3.611 L116.247,3.467 L116.092,3.351 C115.527,2.929 115.07,2.625 114.694,2.421 C114.18,2.142 113.637,2 113.08,2 M113.08,4 C113.301,4 113.52,4.06 113.741,4.179 C114.029,4.335 114.413,4.593 114.893,4.953 C115.133,5.217 115.349,5.673 115.541,6.321 C115.733,6.969 115.894,7.725 116.027,8.589 C116.159,9.453 116.267,10.383 116.351,11.378 C116.434,12.375 116.501,13.341 116.549,14.277 C116.597,15.212 116.633,16.071 116.657,16.851 C116.681,17.631 116.705,18.237 116.729,18.668 L117.125,30.584 C117.148,31.233 117.161,31.827 117.161,32.367 C117.161,32.907 117.095,33.357 116.963,33.716 C116.831,34.076 116.615,34.34 116.315,34.508 C116.105,34.625 115.828,34.685 115.483,34.685 C115.335,34.685 115.174,34.674 115.001,34.653 C113.944,34.508 113.225,34.191 112.841,33.699 C112.457,33.208 112.289,32.396 112.337,31.269 L111.797,23.42 C111.773,23.205 111.761,22.893 111.761,22.485 L111.761,21.225 C111.761,20.792 111.749,20.397 111.726,20.037 C111.701,19.677 111.665,19.449 111.617,19.353 C111.545,19.208 111.389,19.017 111.149,18.777 C110.909,18.538 110.728,18.333 110.609,18.165 C110.441,17.973 110.285,17.769 110.142,17.553 C109.997,17.336 109.841,17.121 109.673,16.905 C109.409,16.521 109.175,16.167 108.971,15.843 C108.767,15.519 108.569,15.195 108.377,14.871 C108.184,14.546 107.999,14.229 107.819,13.917 C107.639,13.605 107.429,13.281 107.189,12.945 C107.045,12.729 106.841,12.429 106.577,12.044 C106.312,11.662 106.109,11.374 105.965,11.181 C105.917,11.252 105.898,11.445 105.911,11.757 C105.923,12.069 105.917,12.441 105.893,12.873 C105.845,13.786 105.821,14.739 105.821,15.735 C105.821,16.731 105.845,17.757 105.893,18.812 C105.965,20.349 106.037,21.885 106.109,23.42 C106.182,24.958 106.325,26.481 106.541,27.993 C106.589,28.353 106.667,28.809 106.775,29.361 C106.883,29.914 106.901,30.417 106.829,30.873 C106.757,31.353 106.577,31.653 106.289,31.773 C106.109,31.848 105.915,31.885 105.707,31.885 C105.582,31.885 105.452,31.872 105.317,31.845 C104.957,31.773 104.621,31.641 104.309,31.449 C103.997,31.257 103.793,31.077 103.697,30.909 C103.601,30.742 103.522,30.25 103.463,29.433 C103.403,28.618 103.355,27.621 103.319,26.445 C103.283,25.269 103.253,23.997 103.229,22.628 C103.205,21.261 103.181,19.941 103.157,18.668 C103.133,17.542 103.108,16.515 103.085,15.591 C103.06,14.667 103.025,13.941 102.977,13.413 L102.869,9.777 C102.869,9.273 102.833,8.781 102.761,8.301 C102.689,7.821 102.671,7.395 102.707,7.023 C102.743,6.651 102.869,6.339 103.085,6.086 C103.301,5.834 103.697,5.697 104.273,5.673 C104.303,5.671 104.333,5.67 104.362,5.67 C104.671,5.67 104.988,5.785 105.317,6.015 C105.677,6.267 106.049,6.597 106.434,7.004 C106.625,7.197 106.871,7.515 107.171,7.958 C107.471,8.403 107.801,8.901 108.161,9.453 C108.521,10.005 108.893,10.586 109.277,11.199 C109.661,11.811 110.02,12.387 110.357,12.927 C110.693,13.467 110.993,13.941 111.257,14.349 C111.52,14.757 111.713,15.033 111.833,15.177 C111.881,14.529 111.887,13.833 111.851,13.089 C111.815,12.345 111.767,11.577 111.707,10.785 C111.646,9.993 111.587,9.195 111.527,8.391 C111.467,7.587 111.449,6.813 111.474,6.069 C111.474,5.805 111.478,5.559 111.491,5.331 C111.503,5.103 111.557,4.905 111.653,4.737 C111.749,4.569 111.893,4.425 112.085,4.305 C112.277,4.185 112.541,4.089 112.877,4.017 C112.944,4.006 113.013,4 113.08,4" fill="#8E693F"/>
      <path d="M122.569,36.12 C121.799,36.12 121.056,35.918 120.36,35.52 C119.59,35.082 119.057,34.401 118.821,33.552 C118.745,33.303 118.641,32.807 118.572,31.39 C118.524,30.399 118.483,29.259 118.446,27.967 C118.41,26.676 118.386,25.307 118.375,23.86 C118.363,22.417 118.357,21.071 118.357,19.82 C118.357,18.687 118.363,17.699 118.375,16.854 C118.386,16.021 118.393,15.438 118.393,15.104 C118.393,12.433 118.429,9.65 118.501,6.835 L118.501,5.816 C118.501,5.232 118.584,4.684 118.748,4.188 C118.875,3.803 119.321,2.908 120.715,2.908 C121.287,2.908 121.922,3.066 122.654,3.39 C123.26,3.641 123.742,4.091 124.025,4.681 C124.239,5.129 124.415,5.684 124.549,6.333 C124.638,6.867 124.677,7.602 124.677,8.624 C124.677,9.546 124.659,10.594 124.623,11.769 C124.587,12.922 124.569,14.011 124.569,15.032 L124.569,18.776 C124.569,19.997 124.575,21.278 124.587,22.619 C124.599,23.953 124.629,25.259 124.676,26.532 C124.724,27.807 124.783,28.998 124.855,30.105 C124.924,31.18 125.028,32.076 125.163,32.769 C125.191,32.913 125.212,33.04 125.226,33.152 C125.245,33.301 125.253,33.436 125.253,33.572 C125.253,34.315 125.045,34.911 124.635,35.342 C124.26,35.736 123.797,35.979 123.257,36.066 C123.085,36.104 122.874,36.12 122.569,36.12" fill="#F7F4E2"/>
      <path d="M120.715,1.908 C119.296,1.908 118.206,2.643 117.799,3.873 C117.601,4.472 117.501,5.125 117.501,5.816 L117.501,6.835 C117.43,9.65 117.394,12.432 117.394,15.104 C117.394,15.435 117.387,16.013 117.375,16.84 C117.363,17.689 117.358,18.681 117.358,19.82 C117.358,21.073 117.363,22.423 117.375,23.869 C117.387,25.331 117.411,26.72 117.447,27.995 C117.485,29.336 117.527,30.463 117.573,31.437 C117.648,32.957 117.766,33.517 117.872,33.866 C118.166,34.929 118.861,35.817 119.866,36.39 C120.713,36.874 121.623,37.12 122.569,37.12 C122.935,37.12 123.204,37.098 123.444,37.05 C124.183,36.925 124.844,36.573 125.361,36.031 C125.768,35.602 126.253,34.828 126.253,33.572 C126.253,33.396 126.242,33.22 126.221,33.044 C126.201,32.89 126.177,32.744 126.146,32.58 C126.019,31.927 125.92,31.073 125.854,30.041 C125.783,28.961 125.724,27.768 125.677,26.496 C125.63,25.269 125.6,23.963 125.587,22.609 C125.575,21.273 125.569,19.994 125.569,18.776 L125.569,15.032 C125.569,14.015 125.587,12.928 125.622,11.8 C125.659,10.61 125.678,9.542 125.678,8.624 C125.678,7.533 125.635,6.765 125.544,6.211 L125.537,6.171 L125.529,6.131 C125.376,5.392 125.18,4.778 124.929,4.252 C124.535,3.433 123.875,2.814 123.018,2.458 C122.196,2.094 121.43,1.908 120.715,1.908 M120.715,3.908 C121.144,3.908 121.654,4.041 122.25,4.304 C122.654,4.472 122.945,4.742 123.124,5.114 C123.302,5.486 123.451,5.96 123.57,6.536 C123.642,6.969 123.678,7.665 123.678,8.624 C123.678,9.537 123.659,10.574 123.623,11.738 C123.587,12.902 123.569,14.001 123.569,15.032 L123.569,18.776 C123.569,20 123.575,21.284 123.587,22.628 C123.6,23.972 123.629,25.287 123.678,26.57 C123.726,27.854 123.785,29.054 123.858,30.17 C123.93,31.286 124.037,32.217 124.182,32.96 C124.205,33.081 124.223,33.188 124.236,33.284 C124.247,33.381 124.253,33.476 124.253,33.572 C124.253,34.053 124.139,34.413 123.911,34.652 C123.683,34.892 123.403,35.036 123.07,35.084 C122.975,35.108 122.808,35.12 122.569,35.12 C121.975,35.12 121.403,34.965 120.857,34.652 C120.31,34.341 119.952,33.885 119.785,33.284 C119.691,32.972 119.619,32.325 119.571,31.341 C119.524,30.356 119.483,29.222 119.446,27.938 C119.41,26.654 119.387,25.292 119.375,23.852 C119.363,22.412 119.358,21.068 119.358,19.82 C119.358,18.692 119.363,17.709 119.375,16.868 C119.387,16.028 119.394,15.44 119.394,15.104 C119.394,12.417 119.43,9.668 119.501,6.86 L119.501,5.816 C119.501,5.337 119.567,4.898 119.697,4.502 C119.828,4.106 120.167,3.908 120.715,3.908" fill="#8E693F"/>
      <path d="M132.817,7.053 C132.778,7.096 132.733,7.152 132.682,7.224 C132.408,7.61 132.145,8.133 131.902,8.779 C131.64,9.473 131.398,10.275 131.182,11.165 C130.963,12.063 130.774,13.005 130.622,13.966 C130.468,14.935 130.338,15.886 130.232,16.819 C130.176,17.306 130.136,17.767 130.11,18.199 C130.574,18.177 131.08,18.144 131.631,18.104 C132.276,18.056 132.897,18.008 133.496,17.96 C133.644,17.948 133.774,17.936 133.886,17.926 C133.913,17.538 133.932,17.052 133.945,16.468 C133.968,15.4 133.944,14.234 133.875,13.001 C133.826,12.199 133.755,11.381 133.664,10.574 C133.572,9.776 133.451,9.05 133.304,8.418 C133.171,7.844 133.006,7.384 132.817,7.053 M137.945,36.305 C137.798,36.305 137.647,36.295 137.491,36.273 C136.771,36.174 136.139,35.99 135.612,35.726 C135.054,35.449 134.662,34.871 134.412,33.963 C134.23,33.299 134.087,32.502 133.986,31.595 C133.887,30.699 133.825,29.724 133.8,28.7 C133.776,27.684 133.764,26.693 133.764,25.725 L133.764,22.279 C133.134,22.315 132.502,22.356 131.867,22.402 C131.192,22.45 130.536,22.489 129.899,22.516 C129.897,22.667 129.896,22.831 129.896,23.007 C129.896,23.648 129.89,24.355 129.879,25.128 L129.842,27.467 C129.83,28.268 129.812,28.995 129.788,29.649 C129.763,30.094 129.746,30.454 129.734,30.749 C129.718,31.115 129.681,31.425 129.621,31.701 C129.535,32.089 129.37,32.419 129.131,32.681 C128.888,32.948 128.555,33.146 128.14,33.271 C127.84,33.382 127.518,33.445 127.212,33.445 C126.752,33.445 126.337,33.296 126.011,33.016 C125.583,32.646 125.293,32.139 125.149,31.508 C125.035,31.012 124.984,30.462 124.999,29.875 C125.01,29.382 125.016,28.958 125.016,28.605 C125.016,28.457 125.071,25.223 125.071,25.223 L125.106,22.705 C125.119,21.842 125.137,21.117 125.162,20.534 C125.184,19.519 125.246,18.374 125.343,17.149 C125.441,15.927 125.589,14.672 125.784,13.421 C125.982,12.149 126.271,10.875 126.642,9.634 C127.024,8.364 127.526,7.179 128.136,6.113 C128.455,5.555 128.836,5.014 129.268,4.504 C129.702,3.991 130.185,3.521 130.705,3.108 C131.237,2.685 131.806,2.338 132.398,2.076 C133.041,1.792 133.691,1.649 134.333,1.649 L134.436,1.647 C135.378,1.647 136.221,1.958 136.942,2.57 C137.606,3.137 138.178,3.889 138.644,4.806 C139.083,5.669 139.448,6.678 139.73,7.806 C140.003,8.894 140.215,10.022 140.364,11.158 C140.535,12.354 140.641,13.744 140.678,15.279 C140.714,16.787 140.733,18.337 140.733,19.929 C140.733,20.994 140.714,22.11 140.678,23.272 C140.642,24.417 140.619,25.574 140.606,26.743 L140.571,30.235 C140.558,31.375 140.564,32.456 140.588,33.477 C140.653,33.991 140.645,34.319 140.554,34.591 C140.462,34.88 140.248,35.157 139.796,35.57 C139.326,36.04 138.674,36.305 137.945,36.305" fill="#F7F4E2"/>
      <path d="M131.204,17.131 C131.211,17.066 131.219,17 131.226,16.933 C131.33,16.017 131.459,15.072 131.61,14.122 C131.758,13.188 131.941,12.274 132.154,11.403 C132.283,10.869 132.422,10.371 132.568,9.912 C132.605,10.161 132.64,10.42 132.67,10.688 C132.76,11.475 132.829,12.276 132.877,13.064 C132.944,14.264 132.968,15.404 132.945,16.447 C132.941,16.65 132.935,16.834 132.931,17.001 C132.484,17.036 132.027,17.071 131.558,17.106 C131.437,17.114 131.32,17.123 131.204,17.131 M134.436,0.647 C134.392,0.647 134.347,0.647 134.302,0.648 C133.53,0.653 132.755,0.825 131.995,1.16 C131.324,1.457 130.681,1.849 130.082,2.325 C129.512,2.778 128.98,3.295 128.504,3.859 C128.033,4.414 127.617,5.006 127.268,5.615 C126.621,6.748 126.088,8.003 125.685,9.344 C125.3,10.631 125.001,11.95 124.796,13.266 C124.598,14.542 124.446,15.821 124.348,17.069 C124.248,18.313 124.185,19.477 124.162,20.53 C124.138,21.082 124.12,21.815 124.106,22.688 L124.071,25.21 C124.058,26.033 124.047,26.763 124.035,27.397 C124.022,28.051 124.017,28.455 124.017,28.604 C124.017,28.952 124.011,29.368 124,29.853 C123.982,30.52 124.042,31.155 124.176,31.736 C124.366,32.573 124.765,33.259 125.358,33.772 C125.867,34.212 126.508,34.444 127.212,34.444 C127.616,34.444 128.045,34.365 128.486,34.21 C129.051,34.03 129.517,33.743 129.871,33.353 C130.228,32.961 130.473,32.478 130.597,31.917 C130.671,31.584 130.716,31.215 130.733,30.794 C130.745,30.498 130.763,30.143 130.786,29.725 C130.811,29.025 130.83,28.291 130.843,27.484 L130.879,25.145 C130.888,24.546 130.893,23.986 130.895,23.466 C131.24,23.447 131.589,23.424 131.939,23.399 C132.213,23.379 132.488,23.36 132.765,23.341 L132.765,25.724 C132.765,26.709 132.777,27.718 132.802,28.725 C132.826,29.776 132.891,30.779 132.992,31.704 C133.099,32.664 133.252,33.512 133.448,34.227 C133.569,34.668 133.936,36.007 135.169,36.622 C135.79,36.933 136.527,37.15 137.355,37.263 C137.554,37.291 137.753,37.304 137.945,37.304 C138.929,37.304 139.81,36.951 140.499,36.282 C140.978,35.839 141.334,35.431 141.509,34.891 C141.658,34.443 141.652,33.968 141.586,33.364 C141.564,32.385 141.559,31.337 141.571,30.247 L141.606,26.752 C141.619,25.565 141.643,24.404 141.678,23.302 C141.715,22.125 141.733,20.99 141.733,19.928 C141.733,18.349 141.715,16.777 141.678,15.254 C141.641,13.681 141.531,12.251 141.352,11.005 C141.202,9.854 140.982,8.688 140.701,7.564 C140.4,6.362 140.009,5.283 139.536,4.353 C139.011,3.317 138.356,2.462 137.593,1.81 C136.695,1.048 135.605,0.647 134.436,0.647 M129.077,19.244 C129.125,19.244 129.413,19.232 129.941,19.208 C130.469,19.184 131.057,19.148 131.705,19.1 C132.352,19.052 132.976,19.005 133.577,18.956 C134.177,18.908 134.585,18.86 134.801,18.812 C134.873,18.356 134.921,17.583 134.945,16.49 C134.969,15.398 134.945,14.216 134.873,12.944 C134.824,12.129 134.753,11.3 134.657,10.46 C134.56,9.62 134.434,8.864 134.279,8.192 C134.122,7.52 133.925,6.974 133.684,6.554 C133.444,6.134 133.169,5.924 132.856,5.924 C132.52,5.948 132.191,6.188 131.867,6.644 C131.543,7.1 131.242,7.694 130.967,8.426 C130.69,9.159 130.438,9.992 130.211,10.928 C129.982,11.864 129.791,12.824 129.635,13.808 C129.478,14.793 129.347,15.758 129.239,16.706 C129.131,17.654 129.077,18.501 129.077,19.244 M134.436,2.647 C135.137,2.647 135.757,2.875 136.295,3.332 C136.858,3.812 137.345,4.454 137.753,5.258 C138.161,6.062 138.496,6.992 138.761,8.048 C139.024,9.104 139.228,10.184 139.373,11.288 C139.541,12.464 139.642,13.802 139.679,15.302 C139.715,16.802 139.733,18.344 139.733,19.928 C139.733,20.984 139.715,22.089 139.679,23.24 C139.642,24.392 139.619,25.556 139.606,26.732 C139.595,27.908 139.583,29.072 139.571,30.224 C139.558,31.376 139.564,32.468 139.589,33.5 C139.637,33.909 139.642,34.166 139.606,34.274 C139.571,34.382 139.409,34.568 139.121,34.832 C138.806,35.147 138.414,35.304 137.945,35.304 C137.843,35.304 137.736,35.297 137.627,35.282 C137.015,35.198 136.493,35.048 136.06,34.832 C135.772,34.688 135.545,34.31 135.377,33.698 C135.209,33.086 135.076,32.348 134.98,31.484 C134.885,30.62 134.824,29.684 134.801,28.676 C134.776,27.668 134.765,26.684 134.765,25.724 L134.765,23.078 L134.765,21.224 C133.78,21.272 132.791,21.332 131.795,21.404 C130.799,21.476 129.845,21.524 128.933,21.548 C128.909,21.884 128.896,22.371 128.896,23.006 C128.896,23.642 128.891,24.344 128.879,25.112 C128.866,25.881 128.854,26.66 128.843,27.452 C128.83,28.244 128.812,28.964 128.789,29.612 C128.765,30.044 128.747,30.41 128.735,30.71 C128.723,31.01 128.692,31.268 128.644,31.484 C128.597,31.7 128.513,31.875 128.392,32.006 C128.272,32.138 128.093,32.24 127.852,32.312 C127.611,32.4 127.397,32.444 127.212,32.444 C126.99,32.444 126.808,32.382 126.665,32.258 C126.4,32.03 126.221,31.707 126.125,31.286 C126.028,30.867 125.986,30.404 125.999,29.9 C126.011,29.396 126.017,28.964 126.017,28.604 C126.017,28.46 126.022,28.07 126.035,27.434 C126.047,26.798 126.058,26.066 126.071,25.238 C126.083,24.41 126.095,23.57 126.106,22.718 C126.119,21.867 126.137,21.152 126.161,20.576 C126.184,19.545 126.245,18.428 126.341,17.228 C126.436,16.028 126.58,14.81 126.772,13.574 C126.965,12.339 127.241,11.121 127.6,9.92 C127.961,8.72 128.429,7.616 129.005,6.608 C129.293,6.104 129.635,5.618 130.031,5.15 C130.427,4.682 130.859,4.262 131.327,3.89 C131.795,3.518 132.286,3.218 132.803,2.99 C133.318,2.762 133.829,2.648 134.333,2.648 C134.368,2.647 134.402,2.647 134.436,2.647" fill="#8E693F"/>
    </g>
  </g>
</svg>
