<?xml version="1.0" encoding="UTF-8"?>
<!DOCTYPE svg PUBLIC "-//W3C//DTD SVG 1.1//EN" "http://www.w3.org/Graphics/SVG/1.1/DTD/svg11.dtd">
<svg version="1.1" xmlns="http://www.w3.org/2000/svg" xmlns:xlink="http://www.w3.org/1999/xlink" x="0" y="0" width="27.214" height="41.123" viewBox="0, 0, 27.214, 41.123">
  <defs>
    <clipPath id="Clip_1">
      <path d="M6.279,3.544 L20.66,3.544 L20.66,10.671 L6.279,10.671 z"/>
    </clipPath>
    <clipPath id="Clip_2">
      <path d="M9.833,0 L16.967,0 L16.967,14.374 L9.833,14.374 z"/>
    </clipPath>
  </defs>
  <g id="Layer_1">
    <g clip-path="url(#Clip_1)" opacity="0.906">
      <path d="M13.444,10.177 C9.997,10.177 7.139,9.009 6.805,7.408 C6.71,6.951 6.834,6.485 7.165,6.06 C8.03,4.949 10.262,4.161 12.85,4.053 C16.573,3.897 19.772,5.104 20.133,6.801 L19.842,6.863 C19.516,5.329 16.384,4.202 12.864,4.349 C10.358,4.454 8.213,5.198 7.399,6.242 C7.12,6.602 7.017,6.973 7.096,7.348 C7.416,8.881 10.542,10.011 14.063,9.867 C16.571,9.764 18.719,9.023 19.538,7.977 C19.818,7.618 19.922,7.247 19.845,6.872 L20.135,6.813 C20.229,7.271 20.103,7.737 19.771,8.16 C18.901,9.271 16.667,10.057 14.076,10.163 C13.864,10.172 13.653,10.177 13.444,10.177" fill="#9A6E38"/>
      <path d="M13.481,4.534 C13.28,4.534 13.075,4.538 12.872,4.547 C10.421,4.649 8.335,5.362 7.555,6.364 C7.313,6.675 7.223,6.992 7.29,7.306 C7.567,8.638 10.276,9.68 13.458,9.68 C13.656,9.68 13.857,9.677 14.055,9.669 C16.507,9.568 18.598,8.856 19.381,7.854 C19.625,7.544 19.715,7.226 19.651,6.912 L19.649,6.903 C19.366,5.575 16.657,4.534 13.481,4.534 M13.444,10.374 L13.444,10.374 C9.838,10.374 6.964,9.144 6.611,7.448 C6.503,6.932 6.641,6.41 7.008,5.938 C7.908,4.783 10.198,3.965 12.842,3.854 C13.06,3.846 13.28,3.841 13.497,3.841 C16.967,3.841 19.762,4.983 20.28,6.582 L20.291,6.579 L20.331,6.773 L20.331,6.778 L20.368,6.953 L20.357,6.955 C20.399,7.411 20.252,7.866 19.927,8.282 C19.024,9.436 16.729,10.253 14.085,10.361 C13.872,10.37 13.657,10.374 13.444,10.374" fill="#9A6E38"/>
      <path d="M13.481,4.831 C13.283,4.831 13.082,4.835 12.883,4.844 C10.553,4.941 8.506,5.626 7.79,6.547 C7.6,6.788 7.532,7.018 7.581,7.246 C7.794,8.274 10.102,9.384 13.458,9.384 C13.653,9.384 13.849,9.38 14.043,9.372 C16.376,9.276 18.426,8.593 19.147,7.672 C19.337,7.43 19.407,7.2 19.36,6.972 C19.14,5.938 16.831,4.831 13.481,4.831 M13.458,9.978 C10.085,9.978 7.309,8.855 6.999,7.368 C6.916,6.969 7.027,6.559 7.321,6.182 C8.151,5.114 10.326,4.356 12.859,4.25 C13.065,4.241 13.274,4.237 13.481,4.237 C16.847,4.237 19.624,5.356 19.94,6.842 L19.942,6.852 C20.024,7.251 19.911,7.661 19.616,8.038 C18.78,9.104 16.602,9.861 14.068,9.966 C13.866,9.974 13.661,9.978 13.458,9.978 M13.497,4.138 C13.284,4.138 13.069,4.143 12.855,4.151 C10.293,4.259 8.09,5.031 7.243,6.121 C6.93,6.521 6.813,6.96 6.902,7.388 C7.221,8.921 10.034,10.077 13.444,10.077 C13.652,10.077 13.864,10.073 14.072,10.064 C16.634,9.959 18.84,9.187 19.694,8.099 C19.973,7.742 20.096,7.366 20.061,6.982 L20.053,6.903 L20.023,6.754 L19.997,6.673 C19.522,5.204 16.788,4.138 13.497,4.138 M20.659,7.194 C20.639,7.636 20.47,8.07 20.161,8.465 C19.206,9.685 16.825,10.546 14.096,10.658 C13.879,10.667 13.66,10.671 13.444,10.671 C9.637,10.672 6.709,9.371 6.321,7.509 C6.194,6.905 6.351,6.299 6.774,5.756 C7.725,4.535 10.102,3.672 12.831,3.558 C13.051,3.548 13.276,3.544 13.497,3.544 C16.92,3.544 19.717,4.641 20.463,6.241" fill="#9A6E38"/>
    </g>
    <path d="M2.716,41.123 L24.849,41.123 L23.028,27.937 L4.48,27.91 z" fill="#9A6E38"/>
    <path d="M6.474,28.017 L21.019,28.017 z" fill="#9A6E38"/>
    <g clip-path="url(#Clip_2)" opacity="0.906">
      <path d="M13.523,13.884 C13.436,13.884 13.35,13.876 13.262,13.861 L13.315,13.569 C13.692,13.637 14.06,13.524 14.413,13.236 C15.438,12.393 16.128,10.227 16.172,7.718 C16.233,4.194 15.03,1.095 13.489,0.812 C13.113,0.742 12.744,0.853 12.391,1.141 C11.366,1.979 10.673,4.141 10.627,6.649 C10.563,10.173 11.764,13.277 13.305,13.567 L13.251,13.859 C11.544,13.537 10.262,10.367 10.331,6.643 C10.377,4.052 11.114,1.802 12.204,0.91 C12.62,0.571 13.083,0.435 13.544,0.52 C15.249,0.833 16.534,3.997 16.469,7.724 C16.424,10.316 15.69,12.57 14.6,13.465 C14.263,13.741 13.895,13.884 13.523,13.884" fill="#9A6E38"/>
      <path d="M13.343,13.372 L13.351,13.373 C13.668,13.431 13.982,13.333 14.286,13.082 C15.27,12.274 15.932,10.168 15.975,7.715 C16.034,4.341 14.88,1.268 13.454,1.006 C13.137,0.947 12.823,1.044 12.518,1.294 C11.535,2.097 10.871,4.2 10.826,6.651 C10.765,10.026 11.917,13.103 13.343,13.372 M13.408,14.09 L13.033,14.02 L13.035,14.01 C11.301,13.498 10.065,10.393 10.134,6.64 C10.182,3.992 10.946,1.684 12.079,0.757 C12.537,0.383 13.068,0.229 13.579,0.324 C15.407,0.661 16.736,3.844 16.667,7.726 C16.622,10.375 15.86,12.686 14.727,13.617 C14.323,13.949 13.867,14.109 13.411,14.078 z" fill="#9A6E38"/>
      <path d="M13.274,1.286 C13.088,1.286 12.897,1.366 12.706,1.523 C11.801,2.263 11.165,4.325 11.123,6.657 C11.058,10.178 12.269,12.868 13.397,13.08 C13.444,13.089 13.485,13.092 13.526,13.092 C13.711,13.092 13.904,13.012 14.098,12.852 C15.003,12.109 15.636,10.043 15.676,7.709 C15.739,4.189 14.526,1.506 13.4,1.298 C13.358,1.29 13.316,1.286 13.274,1.286 M13.526,13.686 L13.526,13.686 C13.45,13.686 13.374,13.68 13.297,13.666 L13.281,13.662 C11.51,13.329 10.471,9.761 10.528,6.646 C10.575,4.111 11.282,1.92 12.329,1.063 C12.702,0.759 13.104,0.64 13.506,0.714 C15.284,1.041 16.325,4.605 16.271,7.72 C16.227,10.257 15.522,12.451 14.475,13.311 C14.172,13.56 13.852,13.686 13.526,13.686 M13.344,13.776 L13.43,13.782 C13.809,13.807 14.194,13.671 14.538,13.388 C15.606,12.51 16.325,10.286 16.37,7.722 C16.434,4.043 15.184,0.922 13.526,0.616 C13.1,0.538 12.655,0.67 12.266,0.987 C11.198,1.861 10.477,4.081 10.43,6.644 C10.364,10.21 11.52,13.254 13.119,13.724 L13.206,13.751 z M12.698,14.202 C10.958,13.446 9.768,10.343 9.836,6.634 C9.885,3.903 10.692,1.507 11.89,0.527 C12.312,0.182 12.794,0 13.28,0 C13.398,0 13.516,0.011 13.633,0.032 C15.634,0.4 17.036,3.639 16.963,7.731 C16.917,10.463 16.112,12.863 14.915,13.847 C14.53,14.162 14.098,14.344 13.657,14.374 L13.165,14.34" fill="#9A6E38"/>
    </g>
    <path d="M22.331,16.162 L22.331,18.403 L19.807,18.403 L19.807,16.162 L16.985,16.162 L16.985,18.403 L14.46,18.403 L14.46,16.162 L12.753,16.162 L12.753,18.403 L10.228,18.403 L10.228,16.162 L7.407,16.162 L7.407,18.403 L4.882,18.403 L4.882,16.162 L2.061,16.162 L2.061,18.552 L2.07,18.552 L2.671,28.038 L24.613,28.076 L25.144,18.552 L25.153,18.552 L25.153,16.162 z" fill="#9A6E38"/>
    <g>
      <path d="M24.608,15.668 C24.564,17.329 24.301,18.934 23.412,20.372 C22.97,21.088 22.438,21.72 21.358,22.007 C22.232,19.566 22.402,17.26 22.293,14.929 C22.263,14.244 22.537,14.093 23.145,14.118 C24.734,14.184 24.659,13.776 24.608,15.668 M3.799,20.372 C2.91,18.934 2.647,17.329 2.603,15.668 C2.553,13.776 2.478,14.184 4.068,14.118 C4.675,14.093 4.95,14.244 4.919,14.929 C4.808,17.26 4.98,19.566 5.853,22.007 C4.773,21.72 4.242,21.088 3.799,20.372 M26.218,11.822 C25.155,11.768 24.082,11.81 23.017,11.778 C22.784,11.771 22.526,11.73 22.464,11.548 C22.335,11.17 22.353,10.525 22.361,9.937 C22.373,9.223 22.982,9.468 23.433,9.357 C23.433,9.091 23.432,8.771 23.433,8.45 C23.433,7.235 23.433,7.234 22.259,7.234 C19.412,7.233 16.565,7.234 13.721,7.234 L13.605,7.234 L13.492,7.234 C10.645,7.234 7.797,7.233 4.953,7.234 C3.779,7.234 3.779,7.235 3.779,8.45 C3.78,8.771 3.779,9.091 3.779,9.357 C4.229,9.468 4.839,9.223 4.85,9.937 C4.86,10.525 4.876,11.17 4.748,11.548 C4.685,11.73 4.428,11.771 4.196,11.778 C3.129,11.81 2.057,11.768 0.992,11.822 C0.766,11.834 0.37,12.147 0.375,12.311 C0.429,14.387 0.413,16.477 0.685,18.529 C0.922,20.314 1.779,21.911 3.149,23.16 C4.08,24.005 5.155,24.453 6.443,24.381 C6.7,24.367 7.071,24.548 7.215,24.759 C8.279,26.302 9.579,27.552 11.289,28.369 C11.515,28.476 11.732,28.839 11.753,29.103 C11.817,29.838 11.789,30.581 11.768,31.322 C11.76,31.525 11.718,31.818 11.582,31.916 C10.279,32.853 9.557,34.115 9.45,35.791 C8.859,35.791 8.341,35.803 7.826,35.787 C7.366,35.769 7.191,35.968 7.208,36.424 C7.229,37.082 7.247,37.742 7.2,38.396 C7.15,39.055 7.407,39.238 8.047,39.234 C9.9,39.222 11.753,39.219 13.605,39.218 C15.46,39.219 17.312,39.222 19.165,39.234 C19.805,39.238 20.062,39.055 20.012,38.396 C19.963,37.742 19.982,37.082 20.005,36.424 C20.021,35.968 19.844,35.769 19.385,35.787 C18.871,35.803 18.353,35.791 17.76,35.791 C17.654,34.115 16.934,32.853 15.629,31.916 C15.495,31.818 15.452,31.525 15.445,31.322 C15.423,30.581 15.395,29.838 15.459,29.103 C15.481,28.839 15.695,28.476 15.922,28.369 C17.633,27.552 18.932,26.302 19.997,24.759 C20.141,24.548 20.513,24.367 20.768,24.381 C22.057,24.453 23.131,24.005 24.061,23.16 C25.434,21.911 26.29,20.314 26.527,18.529 C26.799,16.477 26.781,14.387 26.838,12.311 C26.842,12.147 26.443,11.834 26.218,11.822" fill="#9A6E38"/>
      <path d="M24.608,15.668 C24.564,17.329 24.301,18.934 23.412,20.372 C22.97,21.088 22.438,21.72 21.358,22.007 C22.232,19.566 22.402,17.26 22.293,14.929 C22.263,14.244 22.537,14.093 23.145,14.118 C24.734,14.184 24.659,13.776 24.608,15.668 z M3.799,20.372 C2.91,18.934 2.647,17.329 2.603,15.668 C2.553,13.776 2.478,14.184 4.068,14.118 C4.675,14.093 4.95,14.244 4.919,14.929 C4.808,17.26 4.98,19.566 5.853,22.007 C4.773,21.72 4.242,21.088 3.799,20.372 z M26.218,11.822 C25.155,11.768 24.082,11.81 23.017,11.778 C22.784,11.771 22.526,11.73 22.464,11.548 C22.335,11.17 22.353,10.525 22.361,9.937 C22.373,9.223 22.982,9.468 23.433,9.357 C23.433,9.091 23.432,8.771 23.433,8.45 C23.433,7.235 23.433,7.234 22.259,7.234 C19.412,7.233 16.565,7.234 13.721,7.234 L13.605,7.234 L13.492,7.234 C10.645,7.234 7.797,7.233 4.953,7.234 C3.779,7.234 3.779,7.235 3.779,8.45 C3.78,8.771 3.779,9.091 3.779,9.357 C4.229,9.468 4.839,9.223 4.85,9.937 C4.86,10.525 4.876,11.17 4.748,11.548 C4.685,11.73 4.428,11.771 4.196,11.778 C3.129,11.81 2.057,11.768 0.992,11.822 C0.766,11.834 0.37,12.147 0.375,12.311 C0.429,14.387 0.413,16.477 0.685,18.529 C0.922,20.314 1.779,21.911 3.149,23.16 C4.08,24.005 5.155,24.453 6.443,24.381 C6.7,24.367 7.071,24.548 7.215,24.759 C8.279,26.302 9.579,27.552 11.289,28.369 C11.515,28.476 11.732,28.839 11.753,29.103 C11.817,29.838 11.789,30.581 11.768,31.322 C11.76,31.525 11.718,31.818 11.582,31.916 C10.279,32.853 9.557,34.115 9.45,35.791 C8.859,35.791 8.341,35.803 7.826,35.787 C7.366,35.769 7.191,35.968 7.208,36.424 C7.229,37.082 7.247,37.742 7.2,38.396 C7.15,39.055 7.407,39.238 8.047,39.234 C9.9,39.222 11.753,39.219 13.605,39.218 C15.46,39.219 17.312,39.222 19.165,39.234 C19.805,39.238 20.062,39.055 20.012,38.396 C19.963,37.742 19.982,37.082 20.005,36.424 C20.021,35.968 19.844,35.769 19.385,35.787 C18.871,35.803 18.353,35.791 17.76,35.791 C17.654,34.115 16.934,32.853 15.629,31.916 C15.495,31.818 15.452,31.525 15.445,31.322 C15.423,30.581 15.395,29.838 15.459,29.103 C15.481,28.839 15.695,28.476 15.922,28.369 C17.633,27.552 18.932,26.302 19.997,24.759 C20.141,24.548 20.513,24.367 20.768,24.381 C22.057,24.453 23.131,24.005 24.061,23.16 C25.434,21.911 26.29,20.314 26.527,18.529 C26.799,16.477 26.781,14.387 26.838,12.311 C26.842,12.147 26.443,11.834 26.218,11.822 z" fill-opacity="0" stroke="#FDF5E0" stroke-width="0.75"/>
    </g>
    <text transform="matrix(1, 0, -0, 1, 13.809, 17.849)">
      <tspan x="-4.644" y="2.5" font-family="Love*Monster" font-size="12.383" kerning="-0.235" fill="#FDF5E0">5</tspan>
      <tspan x="-0.26" y="2.5" font-family="Love*Monster" font-size="12.383" kerning="0" fill="#FDF5E0">0</tspan>
    </text>
  </g>
</svg>
