<?xml version="1.0" encoding="UTF-8"?>
<!DOCTYPE svg PUBLIC "-//W3C//DTD SVG 1.1//EN" "http://www.w3.org/Graphics/SVG/1.1/DTD/svg11.dtd">
<svg version="1.1" xmlns="http://www.w3.org/2000/svg" xmlns:xlink="http://www.w3.org/1999/xlink" x="0" y="0" width="41.172" height="11.194" viewBox="0, 0, 41.172, 11.194">
  <defs>
    <linearGradient id="Gradient_1" gradientUnits="userSpaceOnUse" x1="0.885" y1="9.554" x2="6.475" y2="-0.129">
      <stop offset="0" stop-color="#7A3827"/>
      <stop offset="1" stop-color="#91522C"/>
    </linearGradient>
    <linearGradient id="Gradient_2" gradientUnits="userSpaceOnUse" x1="8.309" y1="9.123" x2="13.037" y2="0.933">
      <stop offset="0" stop-color="#7A3827"/>
      <stop offset="1" stop-color="#91522C"/>
    </linearGradient>
    <linearGradient id="Gradient_3" gradientUnits="userSpaceOnUse" x1="13.461" y1="9.353" x2="17.304" y2="2.697">
      <stop offset="0" stop-color="#7A3827"/>
      <stop offset="1" stop-color="#91522C"/>
    </linearGradient>
    <linearGradient id="Gradient_4" gradientUnits="userSpaceOnUse" x1="18.336" y1="9.643" x2="23.03" y2="1.512">
      <stop offset="0" stop-color="#7A3827"/>
      <stop offset="1" stop-color="#91522C"/>
    </linearGradient>
    <linearGradient id="Gradient_5" gradientUnits="userSpaceOnUse" x1="25.401" y1="9.268" x2="30.326" y2="0.738">
      <stop offset="0" stop-color="#7A3827"/>
      <stop offset="1" stop-color="#91522C"/>
    </linearGradient>
    <linearGradient id="Gradient_6" gradientUnits="userSpaceOnUse" x1="30.799" y1="9.769" x2="36.104" y2="0.58">
      <stop offset="0" stop-color="#7A3827"/>
      <stop offset="1" stop-color="#91522C"/>
    </linearGradient>
    <linearGradient id="Gradient_7" gradientUnits="userSpaceOnUse" x1="36.558" y1="10.503" x2="41.781" y2="1.456">
      <stop offset="0" stop-color="#7A3827"/>
      <stop offset="1" stop-color="#91522C"/>
    </linearGradient>
    <clipPath id="Clip_1">
      <path d="M39.623,0.458 C39.512,0.49 39.403,0.566 39.299,0.686 L39.299,0.686 C39.291,0.854 39.299,1.039 39.323,1.244 L39.323,1.244 C39.348,1.448 39.367,1.639 39.384,1.814 L39.384,1.814 C39.407,2.301 39.43,2.778 39.449,3.242 L39.449,3.242 C39.469,3.706 39.478,4.168 39.474,4.628 L39.474,4.628 C39.469,5.087 39.443,5.549 39.396,6.014 L39.396,6.014 C39.348,6.478 39.271,6.95 39.167,7.429 L39.167,7.429 C39.087,7.774 38.992,8.102 38.879,8.414 L38.879,8.414 C38.768,8.726 38.635,8.998 38.483,9.23 L38.483,9.23 C38.331,9.462 38.154,9.648 37.949,9.788 L37.949,9.788 C37.745,9.928 37.516,9.993 37.26,9.986 L37.26,9.986 C36.851,9.969 36.625,10.03 36.581,10.165 L36.581,10.165 C36.537,10.302 36.667,10.494 36.972,10.742 L36.972,10.742 C37.347,10.942 37.713,11.003 38.069,10.928 L38.069,10.928 C38.425,10.852 38.764,10.698 39.083,10.466 L39.083,10.466 C39.307,10.298 39.517,10.104 39.712,9.884 L39.712,9.884 C39.91,9.664 40.085,9.43 40.241,9.182 L40.241,9.182 C40.397,8.934 40.531,8.687 40.644,8.438 L40.644,8.438 C40.755,8.19 40.839,7.958 40.895,7.742 L40.895,7.742 C40.968,7.462 41.027,7.13 41.075,6.746 L41.075,6.746 C41.123,6.362 41.153,5.952 41.165,5.516 L41.165,5.516 C41.178,5.079 41.173,4.634 41.153,4.178 L41.153,4.178 C41.134,3.721 41.094,3.282 41.033,2.858 L41.033,2.858 C40.973,2.434 40.891,2.037 40.787,1.669 L40.787,1.669 C40.684,1.302 40.559,0.99 40.415,0.734 L40.415,0.734 L40.392,0.734 C40.352,0.678 40.293,0.62 40.217,0.561 L40.217,0.561 C40.142,0.499 40.051,0.46 39.947,0.44 L39.947,0.44 C39.907,0.432 39.867,0.428 39.825,0.428 L39.825,0.428 C39.759,0.428 39.692,0.438 39.623,0.458 z"/>
    </clipPath>
  </defs>
  <g id="Layer_1">
    <path d="M7.464,0.788 C7.4,0.848 7.348,0.921 7.308,1.01 L7.308,1.01 C7.268,1.099 7.237,1.191 7.218,1.286 L7.218,1.286 C7.197,1.381 7.176,1.461 7.151,1.526 L7.151,1.526 C7.136,1.582 7.104,1.713 7.056,1.921 L7.056,1.921 C7.007,2.129 6.952,2.381 6.888,2.677 L6.888,2.677 C6.823,2.974 6.756,3.304 6.683,3.667 L6.683,3.667 C6.611,4.032 6.538,4.398 6.462,4.766 L6.462,4.766 C6.385,5.133 6.314,5.49 6.246,5.834 L6.246,5.834 C6.178,6.177 6.115,6.482 6.06,6.746 L6.06,6.746 C6.004,7.009 5.96,7.222 5.927,7.382 L5.927,7.382 C5.896,7.542 5.88,7.617 5.88,7.61 L5.88,7.61 C5.88,7.593 5.872,7.57 5.855,7.538 L5.855,7.538 C5.743,6.738 5.617,5.96 5.477,5.204 L5.477,5.204 C5.338,4.448 5.176,3.674 4.992,2.882 L4.992,2.882 C4.992,2.866 4.99,2.856 4.985,2.852 L4.985,2.852 C4.982,2.848 4.98,2.837 4.98,2.822 L4.98,2.822 C4.956,2.718 4.928,2.598 4.895,2.461 L4.895,2.461 C4.864,2.325 4.824,2.188 4.775,2.047 L4.775,2.047 C4.728,1.908 4.674,1.772 4.613,1.64 L4.613,1.64 C4.554,1.507 4.484,1.39 4.404,1.286 L4.404,1.286 C4.307,1.165 4.195,1.074 4.067,1.01 L4.067,1.01 C3.939,0.946 3.82,0.913 3.708,0.913 L3.708,0.913 C3.571,0.913 3.458,0.959 3.366,1.051 L3.366,1.051 C3.273,1.145 3.227,1.286 3.227,1.479 L3.227,1.479 C3.227,1.509 3.229,1.542 3.234,1.574 L3.234,1.574 C3.237,1.606 3.245,1.642 3.252,1.681 L3.252,1.681 C3.332,2.162 3.394,2.531 3.437,2.792 L3.437,2.792 C3.481,3.052 3.512,3.242 3.527,3.362 L3.527,3.362 L3.563,3.602 C3.563,3.642 3.551,3.73 3.527,3.866 L3.527,3.866 C3.504,4.001 3.474,4.169 3.437,4.37 L3.437,4.37 C3.401,4.57 3.361,4.791 3.317,5.036 L3.317,5.036 C3.273,5.28 3.227,5.526 3.18,5.774 L3.18,5.774 C3.139,5.982 3.1,6.186 3.06,6.385 L3.06,6.385 C3.02,6.586 2.982,6.768 2.946,6.932 L2.946,6.932 C2.911,7.095 2.878,7.238 2.849,7.358 L2.849,7.358 C2.822,7.478 2.8,7.562 2.785,7.61 L2.785,7.61 C2.768,7.586 2.74,7.492 2.7,7.328 L2.7,7.328 C2.66,7.164 2.614,6.96 2.561,6.716 L2.561,6.716 C2.51,6.473 2.449,6.204 2.381,5.912 L2.381,5.912 C2.314,5.619 2.248,5.341 2.183,5.078 L2.183,5.078 C2.12,4.807 2.056,4.536 1.993,4.268 L1.993,4.268 C1.928,3.999 1.867,3.754 1.812,3.53 L1.812,3.53 C1.756,3.306 1.708,3.114 1.668,2.954 L1.668,2.954 C1.628,2.793 1.596,2.686 1.571,2.63 L1.571,2.63 C1.508,2.431 1.452,2.228 1.403,2.024 L1.403,2.024 C1.355,1.82 1.279,1.639 1.175,1.479 L1.175,1.479 C1.088,1.342 0.964,1.23 0.804,1.142 L0.804,1.142 C0.643,1.054 0.496,1.01 0.359,1.01 L0.359,1.01 C0.256,1.01 0.17,1.039 0.102,1.1 L0.102,1.1 C0.034,1.16 -0,1.257 -0,1.394 L-0,1.394 C-0,1.458 0.004,1.509 0.012,1.55 L0.012,1.55 C0.052,1.782 0.105,2.064 0.174,2.396 L0.174,2.396 C0.241,2.729 0.318,3.088 0.401,3.477 L0.401,3.477 C0.485,3.863 0.573,4.274 0.666,4.706 L0.666,4.706 C0.758,5.137 0.851,5.57 0.949,6.002 L0.949,6.002 C1.107,6.746 1.272,7.455 1.439,8.131 L1.439,8.131 C1.607,8.808 1.771,9.373 1.931,9.83 L1.931,9.83 C2.02,10.062 2.115,10.222 2.219,10.31 L2.219,10.31 C2.323,10.398 2.427,10.442 2.533,10.442 L2.533,10.442 L2.604,10.442 C2.708,10.425 2.802,10.381 2.885,10.31 L2.885,10.31 C2.97,10.238 3.044,10.085 3.108,9.854 L3.108,9.854 C3.18,9.574 3.258,9.232 3.342,8.828 L3.342,8.828 C3.425,8.424 3.505,8.03 3.582,7.646 L3.582,7.646 C3.658,7.261 3.726,6.922 3.786,6.626 L3.786,6.626 C3.846,6.329 3.883,6.15 3.9,6.086 L3.9,6.086 C3.939,6.142 3.982,6.254 4.026,6.421 L4.026,6.421 C4.069,6.59 4.117,6.789 4.164,7.023 L4.164,7.023 C4.212,7.254 4.262,7.506 4.314,7.778 L4.314,7.778 C4.365,8.049 4.42,8.318 4.476,8.581 L4.476,8.581 C4.548,8.918 4.622,9.222 4.698,9.494 L4.698,9.494 C4.774,9.767 4.855,9.957 4.944,10.07 L4.944,10.07 C5.063,10.198 5.181,10.298 5.298,10.37 L5.298,10.37 C5.414,10.442 5.532,10.486 5.651,10.502 L5.651,10.502 L5.736,10.502 C5.968,10.502 6.135,10.362 6.241,10.082 L6.241,10.082 C6.328,9.841 6.413,9.528 6.493,9.139 L6.493,9.139 C6.571,8.751 6.656,8.322 6.744,7.85 L6.744,7.85 C6.823,7.426 6.903,6.982 6.983,6.518 L6.983,6.518 C7.063,6.054 7.15,5.592 7.242,5.132 L7.242,5.132 C7.334,4.672 7.43,4.226 7.529,3.793 L7.529,3.793 C7.63,3.362 7.74,2.965 7.86,2.606 L7.86,2.606 L8.22,1.526 C8.26,1.406 8.296,1.31 8.328,1.238 L8.328,1.238 C8.359,1.165 8.376,1.106 8.376,1.058 L8.376,1.058 C8.376,1.01 8.352,0.967 8.303,0.931 L8.303,0.931 C8.256,0.896 8.168,0.847 8.04,0.782 L8.04,0.782 C7.92,0.726 7.811,0.698 7.716,0.698 L7.716,0.698 C7.611,0.698 7.528,0.728 7.464,0.788 z" fill="url(#Gradient_1)"/>
    <path d="M11.903,1.01 C11.785,1.25 11.663,1.53 11.543,1.85 L11.543,1.85 C11.422,2.17 11.304,2.494 11.186,2.822 L11.186,2.822 C11.069,3.15 10.962,3.475 10.865,3.793 L10.865,3.793 C10.768,4.114 10.684,4.395 10.611,4.634 L10.611,4.634 C10.596,4.626 10.577,4.59 10.557,4.526 L10.557,4.526 C10.537,4.462 10.515,4.377 10.49,4.274 L10.49,4.274 C10.466,4.169 10.439,4.058 10.412,3.938 L10.412,3.938 C10.384,3.818 10.354,3.702 10.321,3.59 L10.321,3.59 C10.305,3.541 10.283,3.461 10.254,3.35 L10.254,3.35 C10.226,3.238 10.193,3.112 10.158,2.972 L10.158,2.972 C10.122,2.832 10.08,2.684 10.032,2.528 L10.032,2.528 C9.984,2.371 9.935,2.221 9.887,2.078 L9.887,2.078 C9.856,1.982 9.817,1.877 9.773,1.766 L9.773,1.766 C9.73,1.654 9.678,1.55 9.618,1.454 L9.618,1.454 C9.558,1.358 9.485,1.278 9.401,1.214 L9.401,1.214 C9.318,1.15 9.223,1.118 9.12,1.118 L9.12,1.118 C9.04,1.118 8.952,1.142 8.855,1.191 L8.855,1.191 C8.76,1.286 8.712,1.378 8.712,1.466 L8.712,1.466 C8.712,1.53 8.729,1.6 8.766,1.676 L8.766,1.676 C8.802,1.751 8.836,1.85 8.869,1.969 L8.869,1.969 C8.899,2.081 8.941,2.228 8.994,2.408 L8.994,2.408 C9.046,2.587 9.104,2.786 9.168,3.001 L9.168,3.001 C9.231,3.217 9.298,3.442 9.366,3.674 L9.366,3.674 C9.434,3.906 9.5,4.13 9.563,4.345 L9.563,4.345 C9.628,4.562 9.686,4.759 9.738,4.94 L9.738,4.94 C9.79,5.12 9.832,5.262 9.864,5.366 L9.864,5.366 C9.904,5.478 9.954,5.576 10.013,5.66 L10.013,5.66 C10.075,5.744 10.132,5.826 10.187,5.906 L10.187,5.906 C10.187,6.002 10.19,6.166 10.193,6.398 L10.193,6.398 C10.198,6.629 10.202,6.894 10.206,7.19 L10.206,7.19 C10.21,7.486 10.214,7.794 10.218,8.114 L10.218,8.114 C10.221,8.435 10.23,8.732 10.242,9.008 L10.242,9.008 C10.254,9.284 10.266,9.52 10.278,9.715 L10.278,9.715 C10.291,9.911 10.305,10.03 10.321,10.07 L10.321,10.07 C10.377,10.206 10.462,10.322 10.575,10.417 L10.575,10.417 C10.688,10.514 10.846,10.582 11.047,10.622 L11.047,10.622 C11.128,10.639 11.189,10.646 11.228,10.646 L11.228,10.646 C11.431,10.646 11.563,10.56 11.628,10.388 L11.628,10.388 C11.691,10.216 11.728,10.014 11.735,9.782 L11.735,9.782 L11.735,9.71 C11.735,9.533 11.728,9.324 11.712,9.08 L11.712,9.08 C11.695,8.836 11.678,8.579 11.659,8.312 L11.659,8.312 C11.638,8.044 11.62,7.769 11.604,7.484 L11.604,7.484 C11.587,7.2 11.58,6.925 11.58,6.662 L11.58,6.662 C11.58,6.358 11.594,6.077 11.622,5.822 L11.622,5.822 C11.65,5.566 11.704,5.354 11.785,5.186 L11.785,5.186 C11.872,4.994 11.941,4.814 11.994,4.646 L11.994,4.646 C12.046,4.478 12.111,4.278 12.191,4.045 L12.191,4.045 C12.328,3.654 12.471,3.26 12.624,2.864 L12.624,2.864 C12.775,2.468 12.907,2.102 13.019,1.766 L13.019,1.766 C13.036,1.71 13.05,1.659 13.062,1.616 L13.062,1.616 C13.074,1.572 13.08,1.526 13.08,1.479 L13.08,1.479 C13.08,1.366 13.06,1.266 13.019,1.177 L13.019,1.177 C12.98,1.09 12.931,1.001 12.876,0.913 L12.876,0.913 C12.756,0.746 12.612,0.662 12.443,0.662 L12.443,0.662 C12.227,0.662 12.048,0.778 11.903,1.01 z" fill="url(#Gradient_2)"/>
    <path d="M14.088,0.939 C13.983,0.946 13.893,0.986 13.818,1.058 L13.818,1.058 C13.741,1.129 13.695,1.294 13.68,1.55 L13.68,1.55 L13.644,2.246 C13.636,2.478 13.63,2.715 13.626,2.96 L13.626,2.96 C13.622,3.204 13.62,3.454 13.62,3.71 L13.62,3.71 C13.62,3.99 13.622,4.267 13.626,4.538 L13.626,4.538 C13.63,4.81 13.634,5.064 13.638,5.3 L13.638,5.3 C13.641,5.536 13.648,5.742 13.657,5.917 L13.657,5.917 C13.664,6.094 13.668,6.23 13.668,6.326 L13.668,6.326 L13.692,6.434 L13.692,8.522 C13.692,8.706 13.706,8.887 13.733,9.068 L13.733,9.068 C13.762,9.247 13.832,9.402 13.944,9.53 L13.944,9.53 C14.081,9.69 14.214,9.8 14.346,9.86 L14.346,9.86 C14.477,9.92 14.603,9.95 14.724,9.95 L14.724,9.95 L14.772,9.95 C14.891,9.95 15.006,9.936 15.114,9.908 L15.114,9.908 C15.222,9.879 15.312,9.862 15.384,9.854 L15.384,9.854 C15.576,9.83 15.788,9.818 16.019,9.818 L16.019,9.818 C16.204,9.818 16.392,9.822 16.584,9.83 L16.584,9.83 C16.775,9.838 16.952,9.841 17.112,9.841 L17.112,9.841 C17.344,9.841 17.514,9.808 17.622,9.74 L17.622,9.74 C17.729,9.671 17.784,9.589 17.784,9.494 L17.784,9.494 C17.784,9.381 17.716,9.27 17.58,9.158 L17.58,9.158 C17.444,9.046 17.267,8.966 17.051,8.918 L17.051,8.918 C16.964,8.895 16.874,8.879 16.782,8.876 L16.782,8.876 C16.69,8.872 16.6,8.866 16.511,8.859 L16.511,8.859 L16.056,8.859 L15.852,8.859 C15.788,8.859 15.724,8.854 15.66,8.845 L15.66,8.845 C15.588,8.845 15.521,8.841 15.462,8.833 L15.462,8.833 C15.402,8.826 15.351,8.814 15.312,8.797 L15.312,8.797 C15.296,8.742 15.279,8.615 15.264,8.419 L15.264,8.419 C15.248,8.224 15.233,7.896 15.222,7.436 L15.222,7.436 C15.21,6.977 15.194,6.343 15.174,5.539 L15.174,5.539 C15.153,4.736 15.132,3.698 15.107,2.425 L15.107,2.425 C15.099,2.202 15.061,1.998 14.994,1.814 L14.994,1.814 C14.926,1.63 14.844,1.474 14.748,1.345 L14.748,1.345 C14.651,1.217 14.549,1.118 14.441,1.046 L14.441,1.046 C14.334,0.975 14.232,0.939 14.135,0.939 L14.135,0.939 z" fill="url(#Gradient_3)"/>
    <path d="M19.391,0.679 C19.103,0.852 18.866,1.08 18.678,1.364 L18.678,1.364 C18.49,1.648 18.346,1.973 18.246,2.335 L18.246,2.335 C18.146,2.7 18.077,3.076 18.036,3.464 L18.036,3.464 C17.996,3.852 17.976,4.232 17.976,4.604 L17.976,4.604 C17.976,4.976 17.984,5.31 18,5.606 L18,5.606 C18.023,6.07 18.061,6.53 18.114,6.986 L18.114,6.986 C18.166,7.442 18.216,7.886 18.264,8.318 L18.264,8.318 C18.311,8.661 18.416,8.984 18.576,9.284 L18.576,9.284 C18.735,9.584 18.938,9.843 19.182,10.064 L19.182,10.064 C19.426,10.284 19.704,10.454 20.016,10.574 L20.016,10.574 C20.328,10.694 20.656,10.746 21,10.73 L21,10.73 C21.399,10.713 21.74,10.613 22.019,10.429 L22.019,10.429 C22.3,10.245 22.534,10.011 22.721,9.728 L22.721,9.728 C22.91,9.444 23.058,9.12 23.166,8.756 L23.166,8.756 C23.273,8.392 23.356,8.018 23.412,7.634 L23.412,7.634 C23.467,7.249 23.503,6.866 23.52,6.482 L23.52,6.482 C23.536,6.097 23.548,5.745 23.556,5.425 L23.556,5.425 C23.564,5.033 23.559,4.648 23.544,4.268 L23.544,4.268 C23.527,3.889 23.496,3.532 23.449,3.2 L23.449,3.2 C23.399,2.868 23.332,2.568 23.244,2.299 L23.244,2.299 C23.156,2.032 23.048,1.818 22.92,1.658 L22.92,1.658 C22.776,1.474 22.618,1.318 22.446,1.191 L22.446,1.191 C22.273,1.062 22.064,0.954 21.815,0.866 L21.815,0.866 C21.696,0.841 21.604,0.826 21.54,0.818 L21.54,0.818 C21.476,0.81 21.422,0.8 21.378,0.788 L21.378,0.788 C21.334,0.776 21.288,0.756 21.24,0.728 L21.24,0.728 C21.192,0.7 21.12,0.654 21.023,0.589 L21.023,0.589 C20.865,0.479 20.672,0.422 20.448,0.422 L20.448,0.422 C20.032,0.422 19.679,0.507 19.391,0.679 z M20.357,9.553 C20.226,9.378 20.116,9.15 20.029,8.87 L20.029,8.87 C19.939,8.589 19.868,8.276 19.812,7.927 L19.812,7.927 C19.756,7.58 19.714,7.247 19.686,6.932 L19.686,6.932 C19.658,6.616 19.638,6.336 19.626,6.092 L19.626,6.092 C19.615,5.848 19.607,5.686 19.607,5.606 L19.607,5.606 C19.607,5.558 19.602,5.45 19.589,5.282 L19.589,5.282 C19.578,5.114 19.565,4.914 19.553,4.682 L19.553,4.682 C19.542,4.45 19.538,4.196 19.542,3.919 L19.542,3.919 C19.546,3.644 19.558,3.368 19.578,3.091 L19.578,3.091 C19.598,2.816 19.633,2.553 19.686,2.306 L19.686,2.306 C19.738,2.058 19.81,1.843 19.903,1.664 L19.903,1.664 C19.994,1.484 20.11,1.354 20.25,1.274 L20.25,1.274 C20.389,1.194 20.56,1.182 20.759,1.238 L20.759,1.238 C20.808,1.253 20.88,1.298 20.975,1.37 L20.975,1.37 C21.073,1.442 21.168,1.514 21.263,1.586 L21.263,1.586 C21.376,1.674 21.497,1.77 21.624,1.874 L21.624,1.874 C21.735,1.921 21.822,1.948 21.882,1.952 L21.882,1.952 C21.942,1.956 21.992,2.014 22.032,2.126 L22.032,2.126 C22.088,2.27 22.14,2.456 22.188,2.684 L22.188,2.684 C22.236,2.912 22.273,3.163 22.302,3.441 L22.302,3.441 C22.33,3.716 22.35,4.015 22.362,4.333 L22.362,4.333 C22.374,4.654 22.376,4.979 22.369,5.305 L22.369,5.305 C22.36,5.457 22.348,5.67 22.332,5.942 L22.332,5.942 C22.316,6.213 22.288,6.508 22.248,6.824 L22.248,6.824 C22.208,7.14 22.154,7.465 22.086,7.801 L22.086,7.801 C22.018,8.138 21.928,8.446 21.815,8.726 L21.815,8.726 C21.704,9.005 21.566,9.242 21.402,9.434 L21.402,9.434 C21.238,9.625 21.048,9.738 20.832,9.77 L20.832,9.77 C20.804,9.775 20.777,9.777 20.75,9.777 L20.75,9.777 C20.6,9.777 20.47,9.703 20.357,9.553 z" fill="url(#Gradient_4)"/>
    <path d="M28.336,0 C28.104,0.003 27.87,0.03 27.635,0.08 L27.635,0.08 C27.275,0.156 26.932,0.276 26.609,0.44 L26.609,0.44 C26.285,0.605 26.014,0.794 25.799,1.01 L25.799,1.01 C25.32,1.49 24.936,2.07 24.654,2.749 L24.654,2.749 C24.369,3.431 24.199,4.133 24.143,4.862 L24.143,4.862 C24.087,5.59 24.149,6.308 24.329,7.016 L24.329,7.016 C24.509,7.725 24.818,8.355 25.258,8.906 L25.258,8.906 C25.635,9.37 26.083,9.712 26.602,9.931 L26.602,9.931 C27.123,10.152 27.699,10.182 28.331,10.022 L28.331,10.022 C28.835,9.894 29.249,9.714 29.573,9.482 L29.573,9.482 C29.896,9.25 30.145,8.976 30.317,8.66 L30.317,8.66 C30.489,8.344 30.593,7.992 30.629,7.604 L30.629,7.604 C30.665,7.215 30.65,6.806 30.587,6.374 L30.587,6.374 C30.57,6.261 30.557,6.13 30.545,5.979 L30.545,5.979 C30.533,5.826 30.523,5.673 30.514,5.522 L30.514,5.522 C30.499,5.297 30.47,5.125 30.431,5.006 L30.431,5.006 C30.39,4.885 30.326,4.801 30.233,4.754 L30.233,4.754 C30.141,4.706 30.019,4.688 29.867,4.7 L29.867,4.7 C29.714,4.711 29.518,4.734 29.28,4.766 L29.28,4.766 C29.174,4.781 29.045,4.791 28.889,4.796 L28.889,4.796 C28.732,4.799 28.571,4.809 28.403,4.82 L28.403,4.82 C28.236,4.832 28.076,4.85 27.923,4.873 L27.923,4.873 C27.77,4.898 27.651,4.934 27.562,4.982 L27.562,4.982 C27.402,5.078 27.329,5.192 27.341,5.324 L27.341,5.324 C27.353,5.456 27.431,5.554 27.575,5.618 L27.575,5.618 C27.743,5.691 27.895,5.727 28.031,5.727 L28.031,5.727 C28.167,5.727 28.295,5.714 28.415,5.691 L28.415,5.691 C28.535,5.665 28.653,5.64 28.768,5.612 L28.768,5.612 C28.885,5.583 29.007,5.582 29.135,5.606 L29.135,5.606 C29.143,5.814 29.148,6.05 29.154,6.314 L29.154,6.314 C29.157,6.578 29.146,6.851 29.123,7.13 L29.123,7.13 C29.106,7.346 29.077,7.555 29.033,7.76 L29.033,7.76 C28.989,7.964 28.925,8.154 28.84,8.329 L28.84,8.329 C28.757,8.506 28.649,8.658 28.516,8.786 L28.516,8.786 C28.385,8.913 28.219,9.005 28.019,9.062 L28.019,9.062 L27.995,9.062 C27.707,9.15 27.405,9.124 27.089,8.984 L27.089,8.984 C26.772,8.844 26.507,8.581 26.291,8.198 L26.291,8.198 C26.019,7.709 25.847,7.166 25.775,6.566 L25.775,6.566 C25.703,5.966 25.703,5.362 25.775,4.754 L25.775,4.754 C25.847,4.169 25.98,3.612 26.176,3.08 L26.176,3.08 C26.373,2.548 26.652,2.086 27.011,1.694 L27.011,1.694 C27.234,1.446 27.451,1.257 27.659,1.129 L27.659,1.129 C27.868,1.001 28.06,0.916 28.241,0.872 L28.241,0.872 C28.421,0.828 28.591,0.814 28.751,0.83 L28.751,0.83 C28.911,0.847 29.053,0.867 29.177,0.896 L29.177,0.896 C29.3,0.923 29.411,0.946 29.507,0.962 L29.507,0.962 C29.603,0.978 29.678,0.965 29.735,0.925 L29.735,0.925 C29.871,0.838 29.921,0.742 29.885,0.637 L29.885,0.637 C29.848,0.533 29.767,0.438 29.639,0.35 L29.639,0.35 C29.367,0.158 29.055,0.046 28.703,0.013 L28.703,0.013 C28.617,0.006 28.531,0.001 28.444,0 L28.444,0 z" fill="url(#Gradient_5)"/>
    <path d="M35.417,0.278 C35.309,0.293 35.201,0.332 35.093,0.392 L35.093,0.392 C34.985,0.452 34.885,0.526 34.793,0.614 L34.793,0.614 C34.701,0.702 34.631,0.786 34.583,0.866 L34.583,0.866 L34.583,1.532 C34.583,1.808 34.581,2.117 34.577,2.461 L34.577,2.461 C34.573,2.806 34.568,3.175 34.564,3.572 L34.564,3.572 C34.561,3.967 34.555,4.37 34.546,4.778 L34.546,4.778 C34.539,4.93 34.533,5.184 34.529,5.539 L34.529,5.539 C34.524,5.896 34.517,6.29 34.505,6.721 L34.505,6.721 C34.493,7.154 34.471,7.597 34.439,8.048 L34.439,8.048 C34.407,8.499 34.358,8.898 34.294,9.242 L34.294,9.242 C34.255,9.434 34.211,9.602 34.163,9.746 L34.163,9.746 C34.115,9.889 34.059,9.998 33.995,10.07 L33.995,10.07 C33.907,10.165 33.826,10.227 33.749,10.25 L33.749,10.25 C33.673,10.274 33.601,10.271 33.533,10.238 L33.533,10.238 C33.465,10.206 33.404,10.15 33.352,10.07 L33.352,10.07 C33.301,9.99 33.255,9.894 33.215,9.782 L33.215,9.782 C33.079,9.453 32.979,9.085 32.915,8.678 L32.915,8.678 C32.851,8.27 32.807,7.854 32.783,7.429 L32.783,7.429 C32.759,7.005 32.745,6.59 32.741,6.181 L32.741,6.181 C32.737,5.774 32.735,5.402 32.735,5.066 L32.735,5.066 C32.727,4.418 32.71,3.786 32.686,3.17 L32.686,3.17 C32.663,2.553 32.606,2.022 32.519,1.574 L32.519,1.574 C32.463,1.271 32.375,1.038 32.255,0.877 L32.255,0.877 C32.135,0.717 32.013,0.616 31.889,0.572 L31.889,0.572 C31.765,0.528 31.656,0.536 31.559,0.596 L31.559,0.596 C31.463,0.656 31.411,0.754 31.404,0.889 L31.404,0.889 C31.387,1.082 31.375,1.334 31.367,1.646 L31.367,1.646 C31.359,1.957 31.351,2.305 31.342,2.684 L31.342,2.684 C31.335,3.064 31.331,3.467 31.331,3.896 L31.331,3.896 C31.331,4.324 31.335,4.745 31.342,5.162 L31.342,5.162 C31.342,5.41 31.349,5.732 31.361,6.128 L31.361,6.128 C31.373,6.524 31.4,6.948 31.445,7.4 L31.445,7.4 C31.488,7.852 31.557,8.305 31.648,8.761 L31.648,8.761 C31.74,9.218 31.875,9.625 32.051,9.986 L32.051,9.986 C32.187,10.257 32.342,10.49 32.519,10.681 L32.519,10.681 C32.694,10.874 32.908,11.01 33.155,11.09 L33.155,11.09 C33.475,11.194 33.757,11.219 34.001,11.168 L34.001,11.168 C34.245,11.116 34.455,11.014 34.631,10.862 L34.631,10.862 C34.807,10.71 34.955,10.52 35.075,10.291 L35.075,10.291 C35.195,10.064 35.299,9.818 35.387,9.553 L35.387,9.553 C35.507,9.186 35.6,8.814 35.669,8.438 L35.669,8.438 C35.736,8.062 35.791,7.684 35.831,7.303 L35.831,7.303 C35.871,6.924 35.898,6.544 35.915,6.164 L35.915,6.164 C35.931,5.784 35.946,5.402 35.963,5.018 L35.963,5.018 C35.963,4.906 35.969,4.724 35.98,4.471 L35.98,4.471 C35.993,4.219 36.003,3.935 36.011,3.614 L36.011,3.614 C36.019,3.294 36.023,2.958 36.023,2.606 L36.023,2.606 C36.023,2.253 36.011,1.921 35.987,1.61 L35.987,1.61 C35.97,1.298 35.941,1.026 35.896,0.794 L35.896,0.794 C35.852,0.562 35.787,0.414 35.699,0.35 L35.699,0.35 C35.635,0.299 35.562,0.273 35.48,0.273 L35.48,0.273 C35.46,0.273 35.438,0.275 35.417,0.278 z" fill="url(#Gradient_6)"/>
    <g clip-path="url(#Clip_1)">
      <path d="M39.825,0.428 C39.867,0.428 39.907,0.432 39.947,0.44 C40.051,0.46 40.142,0.499 40.217,0.561 C40.293,0.62 40.352,0.678 40.392,0.734 L40.415,0.734 C40.559,0.99 40.684,1.302 40.787,1.669 C40.891,2.037 40.973,2.434 41.033,2.858 C41.094,3.282 41.134,3.721 41.153,4.178 C41.173,4.634 41.178,5.079 41.165,5.516 C41.153,5.952 41.123,6.362 41.075,6.746 C41.027,7.13 40.968,7.462 40.895,7.742 C40.839,7.958 40.755,8.19 40.644,8.438 C40.531,8.687 40.397,8.934 40.241,9.182 C40.085,9.43 39.91,9.664 39.712,9.884 C39.517,10.104 39.307,10.298 39.083,10.466 C38.764,10.698 38.425,10.852 38.069,10.928 C37.713,11.003 37.347,10.942 36.972,10.742 C36.667,10.494 36.537,10.302 36.581,10.165 C36.625,10.03 36.851,9.969 37.26,9.986 C37.516,9.993 37.745,9.928 37.949,9.788 C38.154,9.648 38.331,9.462 38.483,9.23 C38.635,8.998 38.768,8.726 38.879,8.414 C38.992,8.102 39.087,7.774 39.167,7.429 C39.271,6.95 39.348,6.478 39.396,6.014 C39.443,5.549 39.469,5.087 39.474,4.628 C39.478,4.168 39.469,3.706 39.449,3.242 C39.43,2.778 39.407,2.301 39.384,1.814 C39.367,1.639 39.348,1.448 39.323,1.244 C39.299,1.039 39.291,0.854 39.299,0.686 C39.403,0.566 39.512,0.49 39.623,0.458 C39.692,0.438 39.759,0.428 39.825,0.428 z" fill="url(#Gradient_7)"/>
    </g>
  </g>
</svg>
